G04*
G04 #@! TF.GenerationSoftware,Altium Limited,Altium Designer,23.3.1 (30)*
G04*
G04 Layer_Color=16711935*
%FSLAX25Y25*%
%MOIN*%
G70*
G04*
G04 #@! TF.SameCoordinates,D820F0C6-32BC-4761-972E-96396E6F3E69*
G04*
G04*
G04 #@! TF.FilePolarity,Positive*
G04*
G01*
G75*
%ADD10C,0.00394*%
%ADD12C,0.00787*%
%ADD72R,0.02436X0.11496*%
D10*
X514039Y282784D02*
X516598Y285343D01*
X514039Y265657D02*
Y285343D01*
Y265657D02*
X531361D01*
Y285343D01*
X514039D02*
X531361D01*
X278157Y345843D02*
X297843D01*
Y326157D02*
Y345843D01*
X278157Y326157D02*
X297843D01*
X278157D02*
Y345843D01*
Y343874D02*
X280126Y345843D01*
X304445Y313579D02*
Y317319D01*
X297555Y313579D02*
Y317319D01*
Y313579D02*
X304445D01*
X297555Y317319D02*
X304445D01*
X289630Y309504D02*
X293370D01*
X289630Y316394D02*
X293370D01*
X289630Y309504D02*
Y316394D01*
X293370Y309504D02*
Y316394D01*
X269445Y338079D02*
Y341819D01*
X262555Y338079D02*
Y341819D01*
Y338079D02*
X269445D01*
X262555Y341819D02*
X269445D01*
X290130Y359547D02*
X293870D01*
X290130Y366437D02*
X293870D01*
X290130Y359547D02*
Y366437D01*
X293870Y359547D02*
Y366437D01*
X282130Y359547D02*
X285870D01*
X282130Y366437D02*
X285870D01*
X282130Y359547D02*
Y366437D01*
X285870Y359547D02*
Y366437D01*
X279130Y309347D02*
X282870D01*
X279130Y316236D02*
X282870D01*
X279130Y309347D02*
Y316236D01*
X282870Y309347D02*
Y316236D01*
X259630Y333736D02*
X263370D01*
X259630Y326846D02*
X263370D01*
Y333736D01*
X259630Y326846D02*
Y333736D01*
X266630Y333736D02*
X270370D01*
X266630Y326847D02*
X270370D01*
Y333736D01*
X266630Y326847D02*
Y333736D01*
X297130Y359347D02*
X300870D01*
X297130Y366236D02*
X300870D01*
X297130Y359347D02*
Y366236D01*
X300870Y359347D02*
Y366236D01*
X275130Y359504D02*
X278870D01*
X275130Y366394D02*
X278870D01*
X275130Y359504D02*
Y366394D01*
X278870Y359504D02*
Y366394D01*
X261555Y352579D02*
Y356319D01*
X268445Y352579D02*
Y356319D01*
X261555D02*
X268445D01*
X261555Y352579D02*
X268445D01*
X314445Y352579D02*
Y356319D01*
X307555Y352579D02*
Y356319D01*
Y352579D02*
X314445D01*
X307555Y356319D02*
X314445D01*
X307555Y363819D02*
X314445D01*
X307555Y360079D02*
X314445D01*
X307555D02*
Y363819D01*
X314445Y360079D02*
Y363819D01*
X544655Y285970D02*
X551545D01*
X544655Y282230D02*
X551545D01*
X544655D02*
Y285970D01*
X551545Y282230D02*
Y285970D01*
X312370Y309055D02*
Y315945D01*
X308630Y309055D02*
Y315945D01*
X312370D01*
X308630Y309055D02*
X312370D01*
X547130Y326846D02*
Y333736D01*
X550870Y326846D02*
Y333736D01*
X547130Y326846D02*
X550870D01*
X547130Y333736D02*
X550870D01*
X540130Y326846D02*
Y333736D01*
X543870Y326846D02*
Y333736D01*
X540130Y326846D02*
X543870D01*
X540130Y333736D02*
X543870D01*
X588055Y356319D02*
X594945D01*
X588055Y352579D02*
X594945D01*
X588055D02*
Y356319D01*
X594945Y352579D02*
Y356319D01*
Y360079D02*
Y363819D01*
X588055Y360079D02*
Y363819D01*
Y360079D02*
X594945D01*
X588055Y363819D02*
X594945D01*
X542055Y352579D02*
X548945D01*
X542055Y356319D02*
X548945D01*
Y352579D02*
Y356319D01*
X542055Y352579D02*
Y356319D01*
X559370Y359504D02*
Y366394D01*
X555630Y359504D02*
Y366394D01*
X559370D01*
X555630Y359504D02*
X559370D01*
X581370Y359346D02*
Y366236D01*
X577630Y359346D02*
Y366236D01*
X581370D01*
X577630Y359346D02*
X581370D01*
X592870Y309398D02*
Y316287D01*
X589130Y309398D02*
Y316287D01*
X592870D01*
X589130Y309398D02*
X592870D01*
X563370Y309346D02*
Y316236D01*
X559630Y309346D02*
Y316236D01*
X563370D01*
X559630Y309346D02*
X563370D01*
X566370Y359547D02*
Y366437D01*
X562630Y359547D02*
Y366437D01*
X566370D01*
X562630Y359547D02*
X566370D01*
X574370D02*
Y366437D01*
X570630Y359547D02*
Y366437D01*
X574370D01*
X570630Y359547D02*
X574370D01*
X543055Y341819D02*
X549945D01*
X543055Y338079D02*
X549945D01*
X543055D02*
Y341819D01*
X549945Y338079D02*
Y341819D01*
X573870Y309504D02*
Y316394D01*
X570130Y309504D02*
Y316394D01*
X573870D01*
X570130Y309504D02*
X573870D01*
X578055Y317319D02*
X584945D01*
X578055Y313579D02*
X584945D01*
X578055D02*
Y317319D01*
X584945Y313579D02*
Y317319D01*
X558658Y343874D02*
X560626Y345843D01*
X558658Y326157D02*
Y345843D01*
Y326157D02*
X578342D01*
Y345843D01*
X558658D02*
X578342D01*
X477130Y326846D02*
Y333736D01*
X480870Y326846D02*
Y333736D01*
X477130Y326846D02*
X480870D01*
X477130Y333736D02*
X480870D01*
X470130Y326846D02*
Y333736D01*
X473870Y326846D02*
Y333736D01*
X470130Y326846D02*
X473870D01*
X470130Y333736D02*
X473870D01*
X518055Y356319D02*
X524945D01*
X518055Y352579D02*
X524945D01*
X518055D02*
Y356319D01*
X524945Y352579D02*
Y356319D01*
X488658Y343874D02*
X490626Y345843D01*
X488658Y326157D02*
Y345843D01*
Y326157D02*
X508343D01*
Y345843D01*
X488658D02*
X508343D01*
X508055Y317319D02*
X514945D01*
X508055Y313579D02*
X514945D01*
X508055D02*
Y317319D01*
X514945Y313579D02*
Y317319D01*
X503870Y309504D02*
Y316394D01*
X500130Y309504D02*
Y316394D01*
X503870D01*
X500130Y309504D02*
X503870D01*
X473055Y341819D02*
X479945D01*
X473055Y338079D02*
X479945D01*
X473055D02*
Y341819D01*
X479945Y338079D02*
Y341819D01*
X504370Y359547D02*
Y366437D01*
X500630Y359547D02*
Y366437D01*
X504370D01*
X500630Y359547D02*
X504370D01*
X496370D02*
Y366437D01*
X492630Y359547D02*
Y366437D01*
X496370D01*
X492630Y359547D02*
X496370D01*
X493370Y309346D02*
Y316236D01*
X489630Y309346D02*
Y316236D01*
X493370D01*
X489630Y309346D02*
X493370D01*
X522870Y309213D02*
Y316102D01*
X519130Y309213D02*
Y316102D01*
X522870D01*
X519130Y309213D02*
X522870D01*
X511370Y359346D02*
Y366236D01*
X507630Y359346D02*
Y366236D01*
X511370D01*
X507630Y359346D02*
X511370D01*
X489370Y359504D02*
Y366394D01*
X485630Y359504D02*
Y366394D01*
X489370D01*
X485630Y359504D02*
X489370D01*
X472055Y352579D02*
X478945D01*
X472055Y356319D02*
X478945D01*
Y352579D02*
Y356319D01*
X472055Y352579D02*
Y356319D01*
X524945Y360079D02*
Y363819D01*
X518055Y360079D02*
Y363819D01*
Y360079D02*
X524945D01*
X518055Y363819D02*
X524945D01*
X438004Y313610D02*
X444894D01*
X438004Y317350D02*
X444894D01*
Y313610D02*
Y317350D01*
X438004Y313610D02*
Y317350D01*
X418606Y343905D02*
X420575Y345874D01*
X418606Y326189D02*
Y345874D01*
Y326189D02*
X438291D01*
Y345874D01*
X418606D02*
X438291D01*
X433819Y309535D02*
Y316425D01*
X430079Y309535D02*
Y316425D01*
X433819D01*
X430079Y309535D02*
X433819D01*
X403004Y341850D02*
X409894D01*
X403004Y338110D02*
X409894D01*
X403004D02*
Y341850D01*
X409894Y338110D02*
Y341850D01*
X434319Y359579D02*
Y366469D01*
X430579Y359579D02*
Y366469D01*
X434319D01*
X430579Y359579D02*
X434319D01*
X426319D02*
Y366469D01*
X422579Y359579D02*
Y366469D01*
X426319D01*
X422579Y359579D02*
X426319D01*
X423319Y309378D02*
Y316268D01*
X419579Y309378D02*
Y316268D01*
X423319D01*
X419579Y309378D02*
X423319D01*
X452870Y309213D02*
Y316102D01*
X449130Y309213D02*
Y316102D01*
X452870D01*
X449130Y309213D02*
X452870D01*
X400079Y326878D02*
Y333768D01*
X403819Y326878D02*
Y333768D01*
X400079Y326878D02*
X403819D01*
X400079Y333768D02*
X403819D01*
X407079Y326878D02*
Y333768D01*
X410819Y326878D02*
Y333768D01*
X407079Y326878D02*
X410819D01*
X407079Y333768D02*
X410819D01*
X441319Y359378D02*
Y366268D01*
X437579Y359378D02*
Y366268D01*
X441319D01*
X437579Y359378D02*
X441319D01*
X419319Y359535D02*
Y366425D01*
X415579Y359535D02*
Y366425D01*
X419319D01*
X415579Y359535D02*
X419319D01*
X402004Y352610D02*
X408894D01*
X402004Y356350D02*
X408894D01*
Y352610D02*
Y356350D01*
X402004Y352610D02*
Y356350D01*
X448004Y356350D02*
X454894D01*
X448004Y352610D02*
X454894D01*
X448004D02*
Y356350D01*
X454894Y352610D02*
Y356350D01*
Y360110D02*
Y363850D01*
X448004Y360110D02*
Y363850D01*
Y360110D02*
X454894D01*
X448004Y363850D02*
X454894D01*
X349319Y359567D02*
Y366457D01*
X345579Y359567D02*
Y366457D01*
X349319D01*
X345579Y359567D02*
X349319D01*
X371319Y359409D02*
Y366299D01*
X367579Y359409D02*
Y366299D01*
X371319D01*
X367579Y359409D02*
X371319D01*
X348606Y343937D02*
X350575Y345905D01*
X348606Y326220D02*
Y345905D01*
Y326220D02*
X368291D01*
Y345905D01*
X348606D02*
X368291D01*
X368004Y317382D02*
X374894D01*
X368004Y313642D02*
X374894D01*
X368004D02*
Y317382D01*
X374894Y313642D02*
Y317382D01*
X363819Y309567D02*
Y316457D01*
X360079Y309567D02*
Y316457D01*
X363819D01*
X360079Y309567D02*
X363819D01*
X333004Y341882D02*
X339894D01*
X333004Y338142D02*
X339894D01*
X333004D02*
Y341882D01*
X339894Y338142D02*
Y341882D01*
X364319Y359610D02*
Y366500D01*
X360579Y359610D02*
Y366500D01*
X364319D01*
X360579Y359610D02*
X364319D01*
X356319D02*
Y366500D01*
X352579Y359610D02*
Y366500D01*
X356319D01*
X352579Y359610D02*
X356319D01*
X353319Y309409D02*
Y316299D01*
X349579Y309409D02*
Y316299D01*
X353319D01*
X349579Y309409D02*
X353319D01*
X330079Y326909D02*
Y333799D01*
X333819Y326909D02*
Y333799D01*
X330079Y326909D02*
X333819D01*
X330079Y333799D02*
X333819D01*
X337079Y326909D02*
Y333799D01*
X340819Y326909D02*
Y333799D01*
X337079Y326909D02*
X340819D01*
X337079Y333799D02*
X340819D01*
X332004Y352642D02*
X338894D01*
X332004Y356382D02*
X338894D01*
Y352642D02*
Y356382D01*
X332004Y352642D02*
Y356382D01*
X378004Y356382D02*
X384894D01*
X378004Y352642D02*
X384894D01*
X378004D02*
Y356382D01*
X384894Y352642D02*
Y356382D01*
Y360142D02*
Y363882D01*
X378004Y360142D02*
Y363882D01*
Y360142D02*
X384894D01*
X378004Y363882D02*
X384894D01*
X382870Y309213D02*
Y316102D01*
X379130Y309213D02*
Y316102D01*
X382870D01*
X379130Y309213D02*
X382870D01*
X286319Y289752D02*
X304429D01*
X286319Y301248D02*
X304429D01*
Y289752D02*
Y301248D01*
X286319Y289752D02*
Y301248D01*
X427319Y289752D02*
X445429D01*
X427319Y301248D02*
X445429D01*
Y289752D02*
Y301248D01*
X427319Y289752D02*
Y301248D01*
X537945D02*
X556055D01*
X537945Y289752D02*
X556055D01*
X537945D02*
Y301248D01*
X556055Y289752D02*
Y301248D01*
X291130Y425445D02*
X294870D01*
X291130Y418555D02*
X294870D01*
Y425445D01*
X291130Y418555D02*
Y425445D01*
X581130D02*
X584870D01*
X581130Y418555D02*
X584870D01*
Y425445D01*
X581130Y418555D02*
Y425445D01*
X571130D02*
X574870D01*
X571130Y418555D02*
X574870D01*
Y425445D01*
X571130Y418555D02*
Y425445D01*
X511130D02*
X514870D01*
X511130Y418555D02*
X514870D01*
Y425445D01*
X511130Y418555D02*
Y425445D01*
X501130D02*
X504870D01*
X501130Y418555D02*
X504870D01*
Y425445D01*
X501130Y418555D02*
Y425445D01*
X461130Y391898D02*
X464870D01*
X461130Y398787D02*
X464870D01*
X461130Y391898D02*
Y398787D01*
X464870Y391898D02*
Y398787D01*
X461130Y426055D02*
X464870D01*
X461130Y432945D02*
X464870D01*
X461130Y426055D02*
Y432945D01*
X464870Y426055D02*
Y432945D01*
X370630Y425602D02*
X374370D01*
X370630Y418713D02*
X374370D01*
Y425602D01*
X370630Y418713D02*
Y425602D01*
X360630Y425445D02*
X364370D01*
X360630Y418555D02*
X364370D01*
Y425445D01*
X360630Y418555D02*
Y425445D01*
X300630D02*
X304370D01*
X300630Y418555D02*
X304370D01*
Y425445D01*
X300630Y418555D02*
Y425445D01*
X281130D02*
X284870D01*
X281130Y418555D02*
X284870D01*
Y425445D01*
X281130Y418555D02*
Y425445D01*
X551130D02*
X554870D01*
X551130Y418555D02*
X554870D01*
Y425445D01*
X551130Y418555D02*
Y425445D01*
X561130D02*
X564870D01*
X561130Y418555D02*
X564870D01*
Y425445D01*
X561130Y418555D02*
Y425445D01*
X481130D02*
X484870D01*
X481130Y418555D02*
X484870D01*
Y425445D01*
X481130Y418555D02*
Y425445D01*
X491130D02*
X494870D01*
X491130Y418555D02*
X494870D01*
Y425445D01*
X491130Y418555D02*
Y425445D01*
X390630Y391898D02*
X394370D01*
X390630Y398787D02*
X394370D01*
X390630Y391898D02*
Y398787D01*
X394370Y391898D02*
Y398787D01*
X390630Y425898D02*
X394370D01*
X390630Y432787D02*
X394370D01*
X390630Y425898D02*
Y432787D01*
X394370Y425898D02*
Y432787D01*
X341130Y425445D02*
X344870D01*
X341130Y418555D02*
X344870D01*
Y425445D01*
X341130Y418555D02*
Y425445D01*
X351130D02*
X354870D01*
X351130Y418555D02*
X354870D01*
Y425445D01*
X351130Y418555D02*
Y425445D01*
X271130D02*
X274870D01*
X271130Y418555D02*
X274870D01*
Y425445D01*
X271130Y418555D02*
Y425445D01*
X357445Y289752D02*
X375555D01*
X357445Y301248D02*
X375555D01*
Y289752D02*
Y301248D01*
X357445Y289752D02*
Y301248D01*
X497445Y289752D02*
X515555D01*
X497445Y301248D02*
X515555D01*
Y289752D02*
Y301248D01*
X497445Y289752D02*
Y301248D01*
X544355Y274430D02*
Y278170D01*
X551245Y274430D02*
Y278170D01*
X544355D02*
X551245D01*
X544355Y274430D02*
X551245D01*
X544355Y267330D02*
Y271070D01*
X551245Y267330D02*
Y271070D01*
X544355D02*
X551245D01*
X544355Y267330D02*
X551245D01*
X559630Y262104D02*
X563370D01*
X559630Y255214D02*
X563370D01*
Y262104D01*
X559630Y255214D02*
Y262104D01*
X373110Y251705D02*
X386890D01*
X373110D02*
Y277295D01*
X386890D01*
Y251705D02*
Y277295D01*
X377835Y251705D02*
X386890Y260760D01*
X411345Y271930D02*
Y275670D01*
X404455Y271930D02*
Y275670D01*
Y271930D02*
X411345D01*
X404455Y275670D02*
X411345D01*
X410945Y258430D02*
Y262170D01*
X404055Y258430D02*
Y262170D01*
Y258430D02*
X410945D01*
X404055Y262170D02*
X410945D01*
X411345Y265130D02*
Y268870D01*
X404455Y265130D02*
Y268870D01*
Y265130D02*
X411345D01*
X404455Y268870D02*
X411345D01*
X410904Y251630D02*
Y255370D01*
X404014Y251630D02*
Y255370D01*
Y251630D02*
X410904D01*
X404014Y255370D02*
X410904D01*
X384126Y196153D02*
X409874D01*
X384126D02*
Y220150D01*
X409874D01*
Y196153D02*
Y220150D01*
X425126Y195972D02*
X450874D01*
X425126D02*
Y219969D01*
X450874D01*
Y195972D02*
Y219969D01*
X303126Y196153D02*
X328874D01*
X303126D02*
Y220150D01*
X328874D01*
Y196153D02*
Y220150D01*
X343626Y196153D02*
X369374D01*
X343626D02*
Y220150D01*
X369374D01*
Y196153D02*
Y220150D01*
X298146Y272677D02*
X303146Y267677D01*
X283854Y272677D02*
X303146D01*
X283854Y257323D02*
Y272677D01*
Y257323D02*
X303146D01*
Y272677D01*
X323146D02*
X328146Y267677D01*
X308854Y272677D02*
X328146D01*
X308854Y257323D02*
Y272677D01*
Y257323D02*
X328146D01*
Y272677D01*
X348146D02*
X353146Y267677D01*
X333854Y272677D02*
X353146D01*
X333854Y257323D02*
Y272677D01*
Y257323D02*
X353146D01*
Y272677D01*
X262126Y196472D02*
X287874D01*
X262126D02*
Y220468D01*
X287874D01*
Y196472D02*
Y220468D01*
X465626Y195972D02*
X491374D01*
X465626D02*
Y219969D01*
X491374D01*
Y195972D02*
Y219969D01*
X506126Y195972D02*
X531874D01*
X506126D02*
Y219969D01*
X531874D01*
Y195972D02*
Y219969D01*
X273146Y272677D02*
X278146Y267677D01*
X258854Y272677D02*
X278146D01*
X258854Y257323D02*
Y272677D01*
Y257323D02*
X278146D01*
Y272677D01*
X564307Y210433D02*
X568933Y205807D01*
Y189567D02*
Y205807D01*
X548067Y189567D02*
X568933D01*
X548067D02*
Y205906D01*
X552595Y210433D02*
X564307D01*
X548067Y205906D02*
X552595Y210433D01*
X564307Y174398D02*
X568933Y169772D01*
Y153532D02*
Y169772D01*
X548067Y153532D02*
X568933D01*
X548067D02*
Y169870D01*
X552595Y174398D02*
X564307D01*
X548067Y169870D02*
X552595Y174398D01*
D12*
X583059Y217602D02*
X605106D01*
Y280988D01*
X583059D02*
X605106D01*
X583059Y217602D02*
Y280988D01*
X543854Y384614D02*
X592673D01*
X543854D02*
Y407252D01*
X592673D01*
Y384614D02*
Y407252D01*
X473354Y384614D02*
X522173D01*
X473354D02*
Y407252D01*
X522173D01*
Y384614D02*
Y407252D01*
X403012Y417114D02*
X451831D01*
X403012D02*
Y439752D01*
X451831D01*
Y417114D02*
Y439752D01*
X403354Y384614D02*
X452173D01*
X403354D02*
Y407252D01*
X452173D01*
Y384614D02*
Y407252D01*
X333354Y384614D02*
X382173D01*
X333354D02*
Y407252D01*
X382173D01*
Y384614D02*
Y407252D01*
X263012Y385114D02*
X311831D01*
X263012D02*
Y407752D01*
X311831D01*
Y385114D02*
Y407752D01*
X581205Y181095D02*
Y202906D01*
Y181095D02*
X606795D01*
Y202906D01*
X581205D02*
X606795D01*
X264094Y152205D02*
X285905D01*
Y177795D01*
X264094D02*
X285905D01*
X264094Y152205D02*
Y177795D01*
X345594Y152205D02*
X367405D01*
Y177795D01*
X345594D02*
X367405D01*
X345594Y152205D02*
Y177795D01*
X581205Y150595D02*
Y172406D01*
Y150595D02*
X606795D01*
Y172406D01*
X581205D02*
X606795D01*
X305094Y152205D02*
X326905D01*
Y177795D01*
X305094D02*
X326905D01*
X305094Y152205D02*
Y177795D01*
X423354Y154248D02*
X452488D01*
Y176886D01*
X423354D02*
X452488D01*
X423354Y154248D02*
Y176886D01*
X382512Y154248D02*
X411646D01*
Y176886D01*
X382512D02*
X411646D01*
X382512Y154248D02*
Y176886D01*
X504354Y154248D02*
X533488D01*
Y176886D01*
X504354D02*
X533488D01*
X504354Y154248D02*
Y176886D01*
X464012Y154248D02*
X493146D01*
Y176886D01*
X464012D02*
X493146D01*
X464012Y154248D02*
Y176886D01*
D72*
X303211Y295500D02*
D03*
X444211D02*
D03*
X539163Y295500D02*
D03*
X374337Y295500D02*
D03*
X514337D02*
D03*
M02*
