G04*
G04 #@! TF.GenerationSoftware,Altium Limited,Altium Designer,23.3.1 (30)*
G04*
G04 Layer_Color=8388736*
%FSLAX25Y25*%
%MOIN*%
G70*
G04*
G04 #@! TF.SameCoordinates,A8F844DE-C0E2-4737-AB7E-767533C4F731*
G04*
G04*
G04 #@! TF.FilePolarity,Negative*
G04*
G01*
G75*
%ADD33R,0.06890X0.11614*%
%ADD34R,0.06496X0.10433*%
%ADD35R,0.28150X0.28150*%
%ADD36R,0.03937X0.04331*%
%ADD37R,0.04134X0.04528*%
%ADD38R,0.05315X0.04528*%
%ADD39R,0.05315X0.13583*%
%ADD40R,0.03150X0.06594*%
%ADD41R,0.04528X0.04134*%
%ADD42R,0.10433X0.07284*%
%ADD43R,0.04331X0.03937*%
%ADD44R,0.13189X0.13189*%
%ADD45R,0.01772X0.04528*%
%ADD46R,0.04528X0.01772*%
%ADD47R,0.06398X0.02362*%
%ADD48R,0.05709X0.01772*%
%ADD49R,0.09252X0.07677*%
%ADD50C,0.06496*%
%ADD51O,0.07480X0.10433*%
%ADD52C,0.03150*%
%ADD53C,0.06791*%
%ADD54R,0.06791X0.06791*%
%ADD55O,0.10433X0.07480*%
%ADD56C,0.05591*%
%ADD57C,0.02953*%
%ADD58C,0.15591*%
D33*
X558500Y208465D02*
D03*
Y191535D02*
D03*
Y172429D02*
D03*
Y155500D02*
D03*
D34*
X509945Y232665D02*
D03*
X528055D02*
D03*
X469445D02*
D03*
X487555D02*
D03*
X428945D02*
D03*
X447055D02*
D03*
X387945Y232846D02*
D03*
X406055D02*
D03*
X347445D02*
D03*
X365555D02*
D03*
X306945D02*
D03*
X325055D02*
D03*
X284055Y233165D02*
D03*
X265945D02*
D03*
D35*
X519000Y205500D02*
D03*
X478500D02*
D03*
X438000D02*
D03*
X397000Y205681D02*
D03*
X356500D02*
D03*
X316000D02*
D03*
X275000Y206000D02*
D03*
D36*
X404900Y253500D02*
D03*
X410018D02*
D03*
X404941Y260300D02*
D03*
X410059D02*
D03*
X298441Y315449D02*
D03*
X303559D02*
D03*
X409008Y339980D02*
D03*
X403890D02*
D03*
X438890Y315480D02*
D03*
X444008D02*
D03*
X479059Y339949D02*
D03*
X473941D02*
D03*
X514059Y315449D02*
D03*
X508941D02*
D03*
X550359Y269200D02*
D03*
X545241D02*
D03*
Y276300D02*
D03*
X550359D02*
D03*
X584059Y315449D02*
D03*
X578941D02*
D03*
X268559Y339949D02*
D03*
X263441D02*
D03*
X543941Y339949D02*
D03*
X549059D02*
D03*
X368890Y315512D02*
D03*
X374008D02*
D03*
X333890Y340012D02*
D03*
X339008D02*
D03*
D37*
X405242Y267000D02*
D03*
X410558D02*
D03*
X405242Y273800D02*
D03*
X410558D02*
D03*
X402791Y354480D02*
D03*
X408106D02*
D03*
X472843Y354449D02*
D03*
X478158D02*
D03*
X550758Y284100D02*
D03*
X545442D02*
D03*
X518843Y361949D02*
D03*
X524157D02*
D03*
X502500Y359449D02*
D03*
Y366535D02*
D03*
X292000Y359449D02*
D03*
Y366535D02*
D03*
X284000Y359449D02*
D03*
Y366535D02*
D03*
X262343Y354449D02*
D03*
X267657D02*
D03*
X313657D02*
D03*
X308343D02*
D03*
Y361949D02*
D03*
X313657D02*
D03*
X588842Y354449D02*
D03*
X594158D02*
D03*
Y361949D02*
D03*
X588842D02*
D03*
X548158Y354449D02*
D03*
X542842D02*
D03*
X564500Y366535D02*
D03*
Y359449D02*
D03*
X572500Y366535D02*
D03*
Y359449D02*
D03*
X518843Y354449D02*
D03*
X524157D02*
D03*
X494500Y366535D02*
D03*
Y359449D02*
D03*
X432449Y366567D02*
D03*
Y359480D02*
D03*
X424449Y366567D02*
D03*
Y359480D02*
D03*
X448791Y354480D02*
D03*
X454106D02*
D03*
Y361980D02*
D03*
X448791D02*
D03*
X362449Y366598D02*
D03*
Y359512D02*
D03*
X354449Y366598D02*
D03*
Y359512D02*
D03*
X338106Y354512D02*
D03*
X332791D02*
D03*
X378791D02*
D03*
X384106D02*
D03*
Y362012D02*
D03*
X378791D02*
D03*
D38*
X393386Y255445D02*
D03*
Y264500D02*
D03*
Y273555D02*
D03*
D39*
X366614Y264500D02*
D03*
D40*
X351000Y275677D02*
D03*
X346000D02*
D03*
X341000D02*
D03*
X336000D02*
D03*
Y254323D02*
D03*
X341000D02*
D03*
X346000D02*
D03*
X351000D02*
D03*
X276000Y275677D02*
D03*
X271000D02*
D03*
X266000D02*
D03*
X261000D02*
D03*
Y254323D02*
D03*
X266000D02*
D03*
X271000D02*
D03*
X276000D02*
D03*
X301000D02*
D03*
X296000D02*
D03*
X291000D02*
D03*
X286000D02*
D03*
Y275677D02*
D03*
X291000D02*
D03*
X296000D02*
D03*
X301000D02*
D03*
X326000Y254323D02*
D03*
X321000D02*
D03*
X316000D02*
D03*
X311000D02*
D03*
Y275677D02*
D03*
X316000D02*
D03*
X321000D02*
D03*
X326000D02*
D03*
D41*
X310500Y309842D02*
D03*
Y315158D02*
D03*
X281000Y315449D02*
D03*
Y310134D02*
D03*
X351449Y310197D02*
D03*
Y315512D02*
D03*
X451000Y310000D02*
D03*
Y315315D02*
D03*
X421449Y310165D02*
D03*
Y315480D02*
D03*
X491500Y310134D02*
D03*
Y315449D02*
D03*
X521000Y310000D02*
D03*
Y315315D02*
D03*
X591000Y310185D02*
D03*
Y315500D02*
D03*
X561500Y310134D02*
D03*
Y315449D02*
D03*
X463000Y398000D02*
D03*
Y392685D02*
D03*
Y432158D02*
D03*
Y426842D02*
D03*
X261500Y332949D02*
D03*
Y327634D02*
D03*
X268500Y332949D02*
D03*
Y327634D02*
D03*
X299000Y360134D02*
D03*
Y365449D02*
D03*
X277000Y360291D02*
D03*
Y365606D02*
D03*
X549000Y327634D02*
D03*
Y332949D02*
D03*
X542000Y327634D02*
D03*
Y332949D02*
D03*
X557500Y365606D02*
D03*
Y360291D02*
D03*
X579500Y365449D02*
D03*
Y360134D02*
D03*
X479000Y327634D02*
D03*
Y332949D02*
D03*
X472000Y327634D02*
D03*
Y332949D02*
D03*
X509500Y365449D02*
D03*
Y360134D02*
D03*
X487500Y365606D02*
D03*
Y360291D02*
D03*
X401949Y327665D02*
D03*
Y332980D02*
D03*
X408949Y327665D02*
D03*
Y332980D02*
D03*
X439449Y365480D02*
D03*
Y360165D02*
D03*
X417449Y365638D02*
D03*
Y360323D02*
D03*
X347449Y365669D02*
D03*
Y360354D02*
D03*
X369449Y365512D02*
D03*
Y360197D02*
D03*
X331949Y327697D02*
D03*
Y333012D02*
D03*
X338949Y327697D02*
D03*
Y333012D02*
D03*
X381000Y315315D02*
D03*
Y310000D02*
D03*
X293000Y424657D02*
D03*
Y419343D02*
D03*
X583000Y424657D02*
D03*
Y419343D02*
D03*
X573000Y424657D02*
D03*
Y419343D02*
D03*
X513000Y424657D02*
D03*
Y419343D02*
D03*
X503000Y424657D02*
D03*
Y419343D02*
D03*
X372500Y424815D02*
D03*
Y419500D02*
D03*
X362500Y424657D02*
D03*
Y419343D02*
D03*
X302500Y424657D02*
D03*
Y419343D02*
D03*
X283000Y424657D02*
D03*
Y419343D02*
D03*
X553000Y424657D02*
D03*
Y419343D02*
D03*
X563000Y424657D02*
D03*
Y419343D02*
D03*
X483000Y424657D02*
D03*
Y419343D02*
D03*
X493000Y424657D02*
D03*
Y419343D02*
D03*
X392500Y392685D02*
D03*
Y398000D02*
D03*
Y426685D02*
D03*
Y432000D02*
D03*
X343000Y424657D02*
D03*
Y419343D02*
D03*
X353000Y424657D02*
D03*
Y419343D02*
D03*
X273000Y424657D02*
D03*
Y419343D02*
D03*
D42*
X287500Y295500D02*
D03*
X303248D02*
D03*
X358626D02*
D03*
X374374D02*
D03*
X428500D02*
D03*
X444248D02*
D03*
X514374D02*
D03*
X498626D02*
D03*
X539126D02*
D03*
X554874D02*
D03*
D43*
X291500Y315508D02*
D03*
Y310390D02*
D03*
X361949Y310453D02*
D03*
Y315571D02*
D03*
X431949Y310421D02*
D03*
Y315539D02*
D03*
X502000Y310390D02*
D03*
Y315508D02*
D03*
X561500Y256100D02*
D03*
Y261218D02*
D03*
X572000Y310390D02*
D03*
Y315508D02*
D03*
D44*
X288000Y336000D02*
D03*
X428449Y336032D02*
D03*
X498500Y336000D02*
D03*
X568500D02*
D03*
X358449Y336063D02*
D03*
D45*
X282095Y345449D02*
D03*
X284063D02*
D03*
X286032D02*
D03*
X288000D02*
D03*
X289968D02*
D03*
X291937D02*
D03*
X293905D02*
D03*
Y326551D02*
D03*
X291937D02*
D03*
X289968D02*
D03*
X288000D02*
D03*
X286032D02*
D03*
X284063D02*
D03*
X282095D02*
D03*
X422543Y326583D02*
D03*
X424512D02*
D03*
X426480D02*
D03*
X428449D02*
D03*
X430417D02*
D03*
X432386D02*
D03*
X434354D02*
D03*
Y345480D02*
D03*
X432386D02*
D03*
X430417D02*
D03*
X428449D02*
D03*
X426480D02*
D03*
X424512D02*
D03*
X422543D02*
D03*
X492594Y345449D02*
D03*
X494563D02*
D03*
X496531D02*
D03*
X498500D02*
D03*
X500468D02*
D03*
X502437D02*
D03*
X504405D02*
D03*
Y326551D02*
D03*
X502437D02*
D03*
X500468D02*
D03*
X498500D02*
D03*
X496531D02*
D03*
X494563D02*
D03*
X492594D02*
D03*
X562595D02*
D03*
X564563D02*
D03*
X566532D02*
D03*
X568500D02*
D03*
X570469D02*
D03*
X572437D02*
D03*
X574405D02*
D03*
Y345449D02*
D03*
X572437D02*
D03*
X570469D02*
D03*
X568500D02*
D03*
X566532D02*
D03*
X564563D02*
D03*
X562595D02*
D03*
X352543Y345512D02*
D03*
X354512D02*
D03*
X356480D02*
D03*
X358449D02*
D03*
X360417D02*
D03*
X362386D02*
D03*
X364354D02*
D03*
Y326614D02*
D03*
X362386D02*
D03*
X360417D02*
D03*
X358449D02*
D03*
X356480D02*
D03*
X354512D02*
D03*
X352543D02*
D03*
D46*
X297449Y341905D02*
D03*
Y339937D02*
D03*
Y337968D02*
D03*
Y336000D02*
D03*
Y334032D02*
D03*
Y332063D02*
D03*
Y330095D02*
D03*
X278551D02*
D03*
Y332063D02*
D03*
Y334032D02*
D03*
Y336000D02*
D03*
Y337968D02*
D03*
Y339937D02*
D03*
Y341905D02*
D03*
X419000Y341937D02*
D03*
Y339968D02*
D03*
Y338000D02*
D03*
Y336032D02*
D03*
Y334063D02*
D03*
Y332095D02*
D03*
Y330126D02*
D03*
X437898D02*
D03*
Y332095D02*
D03*
Y334063D02*
D03*
Y336032D02*
D03*
Y338000D02*
D03*
Y339968D02*
D03*
Y341937D02*
D03*
X507949Y341905D02*
D03*
Y339937D02*
D03*
Y337968D02*
D03*
Y336000D02*
D03*
Y334032D02*
D03*
Y332063D02*
D03*
Y330095D02*
D03*
X489051D02*
D03*
Y332063D02*
D03*
Y334032D02*
D03*
Y336000D02*
D03*
Y337968D02*
D03*
Y339937D02*
D03*
Y341905D02*
D03*
X559051D02*
D03*
Y339937D02*
D03*
Y337968D02*
D03*
Y336000D02*
D03*
Y334032D02*
D03*
Y332063D02*
D03*
Y330095D02*
D03*
X577949D02*
D03*
Y332063D02*
D03*
Y334032D02*
D03*
Y336000D02*
D03*
Y337968D02*
D03*
Y339937D02*
D03*
Y341905D02*
D03*
X367898Y341968D02*
D03*
Y340000D02*
D03*
Y338032D02*
D03*
Y336063D02*
D03*
Y334095D02*
D03*
Y332126D02*
D03*
Y330157D02*
D03*
X349000D02*
D03*
Y332126D02*
D03*
Y334095D02*
D03*
Y336063D02*
D03*
Y338032D02*
D03*
Y340000D02*
D03*
Y341968D02*
D03*
D47*
X511133Y284457D02*
D03*
Y281898D02*
D03*
Y279339D02*
D03*
Y276780D02*
D03*
Y274220D02*
D03*
Y271661D02*
D03*
Y269102D02*
D03*
Y266543D02*
D03*
X534267D02*
D03*
Y269102D02*
D03*
Y271661D02*
D03*
Y274220D02*
D03*
Y276780D02*
D03*
Y279339D02*
D03*
Y281898D02*
D03*
Y284457D02*
D03*
D48*
X580500Y224689D02*
D03*
Y226658D02*
D03*
Y228626D02*
D03*
Y230594D02*
D03*
Y232563D02*
D03*
Y234531D02*
D03*
Y236500D02*
D03*
Y238469D02*
D03*
Y240437D02*
D03*
Y242406D02*
D03*
Y244374D02*
D03*
Y246342D02*
D03*
Y248311D02*
D03*
Y250279D02*
D03*
Y252248D02*
D03*
Y254217D02*
D03*
Y256185D02*
D03*
Y258154D02*
D03*
Y260122D02*
D03*
Y262091D02*
D03*
Y264059D02*
D03*
Y266028D02*
D03*
Y267996D02*
D03*
Y269965D02*
D03*
Y271933D02*
D03*
Y273902D02*
D03*
D49*
X593295Y217209D02*
D03*
Y281382D02*
D03*
D50*
X583028Y398000D02*
D03*
X573185D02*
D03*
X563343D02*
D03*
X553500D02*
D03*
X483000D02*
D03*
X492842D02*
D03*
X502685D02*
D03*
X512528D02*
D03*
X412657Y430500D02*
D03*
X422500D02*
D03*
X432342D02*
D03*
X442185D02*
D03*
X413000Y398000D02*
D03*
X422843D02*
D03*
X432685D02*
D03*
X442528D02*
D03*
X343000D02*
D03*
X352842D02*
D03*
X362685D02*
D03*
X372528D02*
D03*
X272657Y398500D02*
D03*
X282500D02*
D03*
X292342D02*
D03*
X302185D02*
D03*
D51*
X321000Y165000D02*
D03*
X311000D02*
D03*
X270000D02*
D03*
X280000D02*
D03*
X351500D02*
D03*
X361500D02*
D03*
D52*
X489799Y171374D02*
D03*
X449142D02*
D03*
X408299D02*
D03*
X530142D02*
D03*
D53*
X483500Y163500D02*
D03*
X442842D02*
D03*
X402000D02*
D03*
X523842D02*
D03*
D54*
X473658D02*
D03*
X433000D02*
D03*
X392158D02*
D03*
X514000D02*
D03*
D55*
X594000Y187000D02*
D03*
Y197000D02*
D03*
Y156500D02*
D03*
Y166500D02*
D03*
D56*
X557600Y276500D02*
D03*
Y269300D02*
D03*
X575500Y155100D02*
D03*
X288000Y336000D02*
D03*
X358449Y336063D02*
D03*
X428449Y336032D02*
D03*
X498500Y336000D02*
D03*
X568500D02*
D03*
X285000Y196500D02*
D03*
X278500D02*
D03*
X272000D02*
D03*
X285000Y203000D02*
D03*
X278500D02*
D03*
X272000D02*
D03*
X285000Y209500D02*
D03*
X278500D02*
D03*
X272000D02*
D03*
X265500Y196500D02*
D03*
Y203000D02*
D03*
Y209500D02*
D03*
X285000Y215500D02*
D03*
X278500D02*
D03*
X272000D02*
D03*
X265500D02*
D03*
X326000Y196000D02*
D03*
X319500D02*
D03*
X313000D02*
D03*
X326000Y202500D02*
D03*
X319500D02*
D03*
X313000D02*
D03*
X326000Y209000D02*
D03*
X319500D02*
D03*
X313000D02*
D03*
X306500Y196000D02*
D03*
Y202500D02*
D03*
Y209000D02*
D03*
X326000Y215000D02*
D03*
X319500D02*
D03*
X313000D02*
D03*
X306500D02*
D03*
X366500Y196000D02*
D03*
X360000D02*
D03*
X353500D02*
D03*
X366500Y202500D02*
D03*
X360000D02*
D03*
X353500D02*
D03*
X366500Y209000D02*
D03*
X360000D02*
D03*
X353500D02*
D03*
X347000Y196000D02*
D03*
Y202500D02*
D03*
Y209000D02*
D03*
X366500Y215000D02*
D03*
X360000D02*
D03*
X353500D02*
D03*
X347000D02*
D03*
X407000Y196000D02*
D03*
X400500D02*
D03*
X394000D02*
D03*
X407000Y202500D02*
D03*
X400500D02*
D03*
X394000D02*
D03*
X407000Y209000D02*
D03*
X400500D02*
D03*
X394000D02*
D03*
X387500Y196000D02*
D03*
Y202500D02*
D03*
Y209000D02*
D03*
X407000Y215000D02*
D03*
X400500D02*
D03*
X394000D02*
D03*
X387500D02*
D03*
X448000Y196000D02*
D03*
X441500D02*
D03*
X435000D02*
D03*
X448000Y202500D02*
D03*
X441500D02*
D03*
X435000D02*
D03*
X448000Y209000D02*
D03*
X441500D02*
D03*
X435000D02*
D03*
X428500Y196000D02*
D03*
Y202500D02*
D03*
Y209000D02*
D03*
X448000Y215000D02*
D03*
X441500D02*
D03*
X435000D02*
D03*
X428500D02*
D03*
X509500D02*
D03*
X516000D02*
D03*
X522500D02*
D03*
X529000D02*
D03*
Y209000D02*
D03*
X522500D02*
D03*
X516000D02*
D03*
X509500D02*
D03*
Y202500D02*
D03*
X516000D02*
D03*
X522500D02*
D03*
X529000D02*
D03*
Y196000D02*
D03*
X522500D02*
D03*
X516000D02*
D03*
X509500D02*
D03*
X469000Y215000D02*
D03*
X475500D02*
D03*
X482000D02*
D03*
X488500D02*
D03*
X469000Y209000D02*
D03*
Y202500D02*
D03*
Y196000D02*
D03*
X475500Y209000D02*
D03*
X482000D02*
D03*
X488500D02*
D03*
X475500Y202500D02*
D03*
X482000D02*
D03*
X488500D02*
D03*
X475500Y196000D02*
D03*
X482000D02*
D03*
X488500D02*
D03*
D57*
X536500Y343500D02*
D03*
X515200Y337900D02*
D03*
X396400Y343500D02*
D03*
X374800Y337800D02*
D03*
X582900Y413400D02*
D03*
X582600Y350200D02*
D03*
X579826Y354081D02*
D03*
X573122Y413590D02*
D03*
X570500Y354000D02*
D03*
X563400Y413300D02*
D03*
X566500Y354000D02*
D03*
X553000Y413000D02*
D03*
X553900Y353900D02*
D03*
X512700Y413400D02*
D03*
X512500Y353900D02*
D03*
X502663Y413433D02*
D03*
X500400Y353700D02*
D03*
X492900Y413500D02*
D03*
X496500Y353800D02*
D03*
X482939Y413795D02*
D03*
X484092Y353960D02*
D03*
X456753Y397906D02*
D03*
X442600Y353631D02*
D03*
X455251Y437139D02*
D03*
X430500Y353900D02*
D03*
X400800Y436400D02*
D03*
X426600Y354000D02*
D03*
X398600Y398100D02*
D03*
X413800Y354300D02*
D03*
X414000Y339968D02*
D03*
X372500Y412900D02*
D03*
X372156Y353941D02*
D03*
X362600Y413300D02*
D03*
X360400Y353700D02*
D03*
X352900Y412900D02*
D03*
X356500Y353700D02*
D03*
X422581Y350200D02*
D03*
X343200Y353800D02*
D03*
X343000Y412400D02*
D03*
X302321Y414057D02*
D03*
X292700Y413700D02*
D03*
X282800Y413300D02*
D03*
X301500Y353900D02*
D03*
X290000Y353700D02*
D03*
X286000Y353800D02*
D03*
X272800Y414300D02*
D03*
X273200Y354600D02*
D03*
X272600Y343500D02*
D03*
X273561Y339937D02*
D03*
X574400Y350000D02*
D03*
X562600Y350100D02*
D03*
X548200Y350000D02*
D03*
X533400Y350200D02*
D03*
X518810Y350070D02*
D03*
X504400Y350200D02*
D03*
X492600Y350100D02*
D03*
X478200Y350200D02*
D03*
X461800D02*
D03*
X448900D02*
D03*
X434400D02*
D03*
X408100Y350100D02*
D03*
X393200Y350300D02*
D03*
X378842Y350206D02*
D03*
X364400Y350300D02*
D03*
X352500Y350200D02*
D03*
X338100D02*
D03*
X322800D02*
D03*
X308300D02*
D03*
X293900D02*
D03*
X282100D02*
D03*
X267700D02*
D03*
X255100Y333000D02*
D03*
X255200Y267600D02*
D03*
X306200Y343500D02*
D03*
X302900Y337900D02*
D03*
X326600Y343500D02*
D03*
X378200D02*
D03*
X447800D02*
D03*
X445800Y338000D02*
D03*
X464900Y343500D02*
D03*
X517500Y343400D02*
D03*
X600400Y315400D02*
D03*
X556600Y285400D02*
D03*
X343800Y339900D02*
D03*
X483880Y339880D02*
D03*
X553911Y339895D02*
D03*
X588431Y332026D02*
D03*
X586954Y257740D02*
D03*
X586500Y261300D02*
D03*
X583000Y337900D02*
D03*
X578400Y304200D02*
D03*
X540500Y281900D02*
D03*
X572200Y254200D02*
D03*
X569700Y252256D02*
D03*
X513300Y332100D02*
D03*
X504800Y285600D02*
D03*
X508900Y305200D02*
D03*
X302800Y332026D02*
D03*
X374600Y332089D02*
D03*
X411823Y307623D02*
D03*
X414873Y304573D02*
D03*
X444400Y332057D02*
D03*
X569600Y248393D02*
D03*
X572100Y250300D02*
D03*
X497700Y283600D02*
D03*
X488900Y293100D02*
D03*
X495000Y281000D02*
D03*
X495396Y277096D02*
D03*
X394600Y304200D02*
D03*
X345200Y304300D02*
D03*
X572069Y246305D02*
D03*
X571500Y242443D02*
D03*
X569000Y240669D02*
D03*
Y244531D02*
D03*
X567600Y208600D02*
D03*
X546400Y172500D02*
D03*
D58*
X599800Y338800D02*
D03*
X474000Y275200D02*
D03*
X267500Y296500D02*
D03*
X533500Y438500D02*
D03*
X322500D02*
D03*
M02*
