M48
;Layer_Color=9474304
;FILE_FORMAT=2:5
INCH,LZ
;TYPE=PLATED
T1F00S00C0.01181
T2F00S00C0.02800
T3F00S00C0.03937
T4F00S00C0.04134
T5F00S00C0.04331
T6F00S00C0.12000
;TYPE=NON_PLATED
T7F00S00C0.05118
%
T01
X05464Y01725
X05676Y02086
X0569Y0240669
Y0244531
X05696Y0248393
X05697Y0252256
X05721Y02503
X05722Y02542
X0572069Y0246305
X05715Y0242443
X0586954Y025774
X05865Y02613
X05784Y03042
X05566Y02854
X05405Y02819
X05048Y02856
X04977Y02836
X0495Y0281
X0495396Y0277096
X04889Y02931
X05089Y03052
X0414873Y0304573
X0411823Y0307623
X03946Y03042
X03452Y03043
X02552Y02676
X02551Y0333
X0273561Y0339937
X02726Y03435
X02677Y03502
X02732Y03546
X02821Y03502
X0286Y03538
X029Y03537
X02939Y03502
X03015Y03539
X03083Y03502
X03062Y03435
X03029Y03379
X03028Y0332026
X0302321Y0414057
X02927Y04137
X02828Y04133
X02728Y04143
X0343Y04124
X03529Y04129
X03626Y04133
X03725Y04129
X03986Y03981
X04008Y04364
X0455251Y0437139
X0456753Y0397906
X04618Y03502
X04649Y03435
X04478
X04458Y0338
X04444Y0332057
X04489Y03502
X04426Y0353631
X04344Y03502
X04305Y03539
X04266Y0354
X0422581Y03502
X04138Y03543
X04081Y03501
X03932Y03503
X03964Y03435
X03782
X0378842Y0350206
X0372156Y0353941
X03644Y03503
X03604Y03537
X03565
X03525Y03502
X03432Y03538
X03381Y03502
X03228
X03266Y03435
X03438Y03399
X03748Y03378
X03746Y0332089
X0414Y0339968
X048388Y033988
X0484092Y035396
X04782Y03502
X04926Y03501
X04965Y03538
X05004Y03537
X05044Y03502
X05125Y03539
X051881Y035007
X05175Y03434
X05152Y03379
X05133Y03321
X05365Y03435
X05334Y03502
X05482Y035
X05539Y03539
X05626Y03501
X05665Y0354
X05705
X05744Y035
X05826Y03502
X0579826Y0354081
X0583Y03379
X0588431Y0332026
X06004Y03154
X0553911Y0339895
X0553Y0413
X05634Y04133
X0573122Y041359
X05829Y04134
X05127
X0502663Y0413433
X04929Y04135
X0482939Y0413795
T02
X05755Y01551
X0529Y0196
Y02025
Y0209
Y0215
X05225
Y0209
X0516
Y0215
X05095
Y0209
Y02025
X0516
X05225
Y0196
X0516
X05095
X04885
Y02025
Y0209
Y0215
X0482
Y0209
X04755
Y0215
X0469
Y0209
Y02025
Y0196
X04755
Y02025
X0482
Y0196
X05576Y02693
Y02765
X0448Y0215
Y0209
Y02025
Y0196
X04415
X0435
Y02025
X04415
Y0209
Y0215
X0435
Y0209
X04285
Y0215
Y02025
Y0196
X0407
X04005
X0394
Y02025
X04005
X0407
Y0209
Y0215
X04005
Y0209
X0394
Y0215
X03875
Y0209
Y02025
Y0196
X03665
X036
X03535
Y02025
X036
X03665
Y0209
Y0215
X036
Y0209
X03535
Y0215
X0347
Y0209
Y02025
Y0196
X0326
X03195
X0313
Y02025
X03195
X0326
Y0209
Y0215
X03195
Y0209
X0313
Y0215
X03065
Y0209
Y02025
Y0196
X0285Y01965
X02785
X0272
Y0203
X02785
X0285
Y02095
Y02155
X02785
Y02095
X0272
Y02155
X02655
Y02095
Y0203
Y01965
X0288Y0336
X0358449Y0336063
X0428449Y0336032
X04985Y0336
X05685
T03
X0272657Y03985
X02825
X0292342
X0302185
X0343Y0398
X0352842
X0362685
X0372528
X0413
X0422843
X0432685
X0442528
X0442185Y04305
X0432342
X04225
X0412657
X0483Y0398
X0492842
X0502685
X0512528
X05535
X0563343
X0573185
X0583028
T04
X0473658Y01635
X04835
X0514
X0523842
X0442842
X0433
X0402
X0392158
T05
X0594Y01565
Y01665
Y0187
Y0197
X03615Y0165
X03515
X0321
X0311
X028
X027
T06
X0474Y02752
X02675Y02965
X03225Y04385
X05335
X05998Y03388
T07
X0489799Y0171374
X0530142
X0449142
X0408299
M30
