G04*
G04 #@! TF.GenerationSoftware,Altium Limited,Altium Designer,23.3.1 (30)*
G04*
G04 Layer_Color=65535*
%FSLAX25Y25*%
%MOIN*%
G70*
G04*
G04 #@! TF.SameCoordinates,D820F0C6-32BC-4761-972E-96396E6F3E69*
G04*
G04*
G04 #@! TF.FilePolarity,Positive*
G04*
G01*
G75*
%ADD10C,0.00394*%
%ADD11C,0.00984*%
%ADD12C,0.00787*%
%ADD13C,0.00591*%
%ADD14C,0.00200*%
D10*
X577153Y224689D02*
G03*
X576760Y224689I-197J0D01*
G01*
D02*
G03*
X577153Y224689I197J0D01*
G01*
X406449Y239697D02*
G03*
X406055Y239697I-197J0D01*
G01*
D02*
G03*
X406449Y239697I197J0D01*
G01*
X447449Y239516D02*
G03*
X447055Y239516I-197J0D01*
G01*
D02*
G03*
X447449Y239516I197J0D01*
G01*
X325449Y239697D02*
G03*
X325055Y239697I-197J0D01*
G01*
D02*
G03*
X325449Y239697I197J0D01*
G01*
X365949D02*
G03*
X365555Y239697I-197J0D01*
G01*
D02*
G03*
X365949Y239697I197J0D01*
G01*
X284449Y240016D02*
G03*
X284055Y240016I-197J0D01*
G01*
D02*
G03*
X284449Y240016I197J0D01*
G01*
X487949Y239516D02*
G03*
X487555Y239516I-197J0D01*
G01*
D02*
G03*
X487949Y239516I197J0D01*
G01*
X528449D02*
G03*
X528055Y239516I-197J0D01*
G01*
D02*
G03*
X528449Y239516I197J0D01*
G01*
X583059Y217602D02*
X586996D01*
X583059D02*
Y220787D01*
Y277882D02*
X583090Y280988D01*
X586996D01*
X598807D02*
X605106D01*
Y217602D02*
Y280988D01*
X598807Y217602D02*
X605106D01*
X543854Y384614D02*
X592673D01*
X543854D02*
Y407252D01*
X592673D01*
Y384614D02*
Y407252D01*
X473354Y384614D02*
X522173D01*
X473354D02*
Y407252D01*
X522173D01*
Y384614D02*
Y407252D01*
X403012Y417114D02*
X451831D01*
X403012D02*
Y439752D01*
X451831D01*
Y417114D02*
Y439752D01*
X403354Y384614D02*
X452173D01*
X403354D02*
Y407252D01*
X452173D01*
Y384614D02*
Y407252D01*
X333354Y384614D02*
X382173D01*
X333354D02*
Y407252D01*
X382173D01*
Y384614D02*
Y407252D01*
X263012Y385114D02*
X311831D01*
X263012D02*
Y407752D01*
X311831D01*
Y385114D02*
Y407752D01*
X452488Y175311D02*
Y176886D01*
Y175311D02*
Y176886D01*
X423354D02*
X452488D01*
X423354D02*
X452488D01*
X423354Y154248D02*
Y176886D01*
Y154248D02*
Y176886D01*
Y154248D02*
X452488D01*
X423354D02*
X452488D01*
Y167437D01*
Y154248D02*
Y167437D01*
X411646Y175311D02*
Y176886D01*
Y175311D02*
Y176886D01*
X382512D02*
X411646D01*
X382512D02*
X411646D01*
X382512Y154248D02*
Y176886D01*
Y154248D02*
Y176886D01*
Y154248D02*
X411646D01*
X382512D02*
X411646D01*
Y167437D01*
Y154248D02*
Y167437D01*
X533488Y175311D02*
Y176886D01*
Y175311D02*
Y176886D01*
X504354D02*
X533488D01*
X504354D02*
X533488D01*
X504354Y154248D02*
Y176886D01*
Y154248D02*
Y176886D01*
Y154248D02*
X533488D01*
X504354D02*
X533488D01*
Y167437D01*
Y154248D02*
Y167437D01*
X493146Y175311D02*
Y176886D01*
Y175311D02*
Y176886D01*
X464012D02*
X493146D01*
X464012D02*
X493146D01*
X464012Y154248D02*
Y176886D01*
Y154248D02*
Y176886D01*
Y154248D02*
X493146D01*
X464012D02*
X493146D01*
Y167437D01*
Y154248D02*
Y167437D01*
D11*
X277075Y344858D02*
G03*
X277075Y344858I-492J0D01*
G01*
X557575D02*
G03*
X557575Y344858I-492J0D01*
G01*
X487575D02*
G03*
X487575Y344858I-492J0D01*
G01*
X417524Y344890D02*
G03*
X417524Y344890I-492J0D01*
G01*
X347524Y344921D02*
G03*
X347524Y344921I-492J0D01*
G01*
D12*
X508231Y286720D02*
X514039D01*
X515416Y265657D02*
Y285343D01*
Y265657D02*
X529984D01*
Y285343D01*
X515416D02*
X529984D01*
X293406Y295500D02*
X294193D01*
X296949D02*
X297342D01*
X294193Y293531D02*
Y297075D01*
Y293531D02*
X296949Y295500D01*
X294193Y297075D02*
X296949Y295500D01*
Y293531D02*
Y297468D01*
X310138Y289000D02*
Y294500D01*
X280874Y289000D02*
X310138D01*
X309374Y294500D02*
X310138D01*
X309374Y289000D02*
Y294500D01*
Y296500D02*
Y302000D01*
Y296500D02*
X310138D01*
X280874Y289000D02*
Y290874D01*
X310138Y296500D02*
Y302000D01*
X280874Y300126D02*
Y302000D01*
X310138D01*
X434406Y295500D02*
X435193D01*
X437949D02*
X438343D01*
X435193Y293531D02*
Y297075D01*
Y293531D02*
X437949Y295500D01*
X435193Y297075D02*
X437949Y295500D01*
Y293531D02*
Y297468D01*
X451138Y289000D02*
Y294500D01*
X421874Y289000D02*
X451138D01*
X450374Y294500D02*
X451138D01*
X450374Y289000D02*
Y294500D01*
Y296500D02*
Y302000D01*
Y296500D02*
X451138D01*
X421874Y289000D02*
Y290874D01*
X451138Y296500D02*
Y302000D01*
X421874Y300126D02*
Y302000D01*
X451138D01*
X548181Y295500D02*
X548969D01*
X545031D02*
X545425D01*
X548181Y293925D02*
Y297468D01*
X545425Y295500D02*
X548181Y297468D01*
X545425Y295500D02*
X548181Y293925D01*
X545425Y293531D02*
Y297468D01*
X532236Y296500D02*
Y302000D01*
X561500D01*
X532236Y296500D02*
X533000D01*
Y302000D01*
Y289000D02*
Y294500D01*
X532236D02*
X533000D01*
X561500Y300126D02*
Y302000D01*
X532236Y289000D02*
Y294500D01*
X561500Y289000D02*
Y290874D01*
X532236Y289000D02*
X561500D01*
X364531Y295500D02*
X365319D01*
X368075D02*
X368468D01*
X365319Y293531D02*
Y297075D01*
Y293531D02*
X368075Y295500D01*
X365319Y297075D02*
X368075Y295500D01*
Y293531D02*
Y297468D01*
X381264Y289000D02*
Y294500D01*
X352000Y289000D02*
X381264D01*
X380500Y294500D02*
X381264D01*
X380500Y289000D02*
Y294500D01*
Y296500D02*
Y302000D01*
Y296500D02*
X381264D01*
X352000Y289000D02*
Y290874D01*
X381264Y296500D02*
Y302000D01*
X352000Y300126D02*
Y302000D01*
X381264D01*
X504531Y295500D02*
X505319D01*
X508075D02*
X508468D01*
X505319Y293531D02*
Y297075D01*
Y293531D02*
X508075Y295500D01*
X505319Y297075D02*
X508075Y295500D01*
Y293531D02*
Y297468D01*
X521264Y289000D02*
Y294500D01*
X492000Y289000D02*
X521264D01*
X520500Y294500D02*
X521264D01*
X520500Y289000D02*
Y294500D01*
Y296500D02*
Y302000D01*
Y296500D02*
X521264D01*
X492000Y289000D02*
Y290874D01*
X521264Y296500D02*
Y302000D01*
X492000Y300126D02*
Y302000D01*
X521264D01*
X373110Y251705D02*
X386890D01*
X373110D02*
Y277295D01*
X386890D01*
Y251705D02*
Y277295D01*
X391024Y252098D02*
X395748D01*
X303658Y272677D02*
Y278681D01*
X283854Y271299D02*
X303146D01*
X283854Y258701D02*
Y271299D01*
Y258701D02*
X303146D01*
Y271299D01*
X328658Y272677D02*
Y278681D01*
X308854Y271299D02*
X328146D01*
X308854Y258701D02*
Y271299D01*
Y258701D02*
X328146D01*
Y271299D01*
X353658Y272677D02*
Y278681D01*
X333854Y271299D02*
X353146D01*
X333854Y258701D02*
Y271299D01*
Y258701D02*
X353146D01*
Y271299D01*
X278658Y272677D02*
Y278681D01*
X258854Y271299D02*
X278146D01*
X258854Y258701D02*
Y271299D01*
Y258701D02*
X278146D01*
Y271299D01*
X605500Y184500D02*
Y189500D01*
Y184500D02*
X606598Y183500D01*
X605500Y189500D02*
X606598Y190500D01*
X605500Y199500D02*
X606598Y200500D01*
X605500Y194500D02*
X606598Y193500D01*
X605500Y194500D02*
Y199500D01*
X581402Y181370D02*
Y202236D01*
Y181370D02*
X606598D01*
Y202630D01*
X581402D02*
X606598D01*
X581402Y202236D02*
Y202630D01*
X277500Y176500D02*
X282500D01*
X283500Y177598D01*
X276500D02*
X277500Y176500D01*
X266500Y177598D02*
X267500Y176500D01*
X272500D02*
X273500Y177598D01*
X267500Y176500D02*
X272500D01*
X264764Y152402D02*
X285630D01*
Y177598D01*
X264370D02*
X285630D01*
X264370Y152402D02*
Y177598D01*
Y152402D02*
X264764D01*
X359000Y176500D02*
X364000D01*
X365000Y177598D01*
X358000D02*
X359000Y176500D01*
X348000Y177598D02*
X349000Y176500D01*
X354000D02*
X355000Y177598D01*
X349000Y176500D02*
X354000D01*
X346264Y152402D02*
X367130D01*
Y177598D01*
X345870D02*
X367130D01*
X345870Y152402D02*
Y177598D01*
Y152402D02*
X346264D01*
X552595Y210236D02*
X554169D01*
X547870Y205512D02*
X552595Y210236D01*
X547870Y189370D02*
Y205512D01*
Y189370D02*
X554169D01*
X562831Y210236D02*
X564405D01*
X569130Y205512D01*
Y189370D02*
Y205512D01*
X562831Y189370D02*
X569130D01*
X552595Y174201D02*
X554169D01*
X547870Y169476D02*
X552595Y174201D01*
X547870Y153335D02*
Y169476D01*
Y153335D02*
X554169D01*
X562831Y174201D02*
X564405D01*
X569130Y169476D01*
Y153335D02*
Y169476D01*
X562831Y153335D02*
X569130D01*
X605500Y154000D02*
Y159000D01*
Y154000D02*
X606598Y153000D01*
X605500Y159000D02*
X606598Y160000D01*
X605500Y169000D02*
X606598Y170000D01*
X605500Y164000D02*
X606598Y163000D01*
X605500Y164000D02*
Y169000D01*
X581402Y150870D02*
Y171736D01*
Y150870D02*
X606598D01*
Y172130D01*
X581402D02*
X606598D01*
X581402Y171736D02*
Y172130D01*
X318500Y176500D02*
X323500D01*
X324500Y177598D01*
X317500D02*
X318500Y176500D01*
X307500Y177598D02*
X308500Y176500D01*
X313500D02*
X314500Y177598D01*
X308500Y176500D02*
X313500D01*
X305764Y152402D02*
X326630D01*
Y177598D01*
X305370D02*
X326630D01*
X305370Y152402D02*
Y177598D01*
Y152402D02*
X305764D01*
D13*
X301000Y312693D02*
Y318205D01*
X306000Y312693D02*
Y313449D01*
X296000Y312693D02*
X306000D01*
X296000D02*
Y313449D01*
Y317449D02*
Y318205D01*
X306000D01*
Y317449D02*
Y318205D01*
X288744Y312949D02*
X294256D01*
X288744Y307949D02*
X289500D01*
X288744D02*
Y317949D01*
X289500D01*
X293500D02*
X294256D01*
Y307949D02*
Y317949D01*
X293500Y307949D02*
X294256D01*
X266000Y337193D02*
Y342705D01*
X271000Y337193D02*
Y337949D01*
X261000Y337193D02*
X271000D01*
X261000D02*
Y337949D01*
Y341949D02*
Y342705D01*
X271000D01*
Y341949D02*
Y342705D01*
X289244Y362992D02*
X294756D01*
X289244Y356693D02*
X290000D01*
X289244D02*
Y369291D01*
X290000D01*
X294000D02*
X294756D01*
Y356693D02*
Y369291D01*
X294000Y356693D02*
X294756D01*
X281244Y362992D02*
X286756D01*
X281244Y356693D02*
X282000D01*
X281244D02*
Y369291D01*
X282000D01*
X286000D02*
X286756D01*
Y356693D02*
Y369291D01*
X286000Y356693D02*
X286756D01*
X282575Y307279D02*
X283756D01*
Y318303D01*
X282575D02*
X283756D01*
X278244D02*
X279425D01*
X278244Y307279D02*
Y318303D01*
Y307279D02*
X279425D01*
X278244Y312791D02*
X283756D01*
X258744Y335803D02*
X259925D01*
X258744Y324780D02*
Y335803D01*
Y324780D02*
X259925D01*
X263075D02*
X264256D01*
Y335803D01*
X263075D02*
X264256D01*
X258744Y330291D02*
X264256D01*
X265744Y335803D02*
X266925D01*
X265744Y324780D02*
Y335803D01*
Y324780D02*
X266925D01*
X270075D02*
X271256D01*
Y335803D01*
X270075D02*
X271256D01*
X265744Y330291D02*
X271256D01*
X300575Y357279D02*
X301756D01*
Y368303D01*
X300575D02*
X301756D01*
X296244D02*
X297425D01*
X296244Y357279D02*
Y368303D01*
Y357279D02*
X297425D01*
X296244Y362791D02*
X301756D01*
X278575Y357437D02*
X279756D01*
Y368461D01*
X278575D02*
X279756D01*
X274244D02*
X275425D01*
X274244Y357437D02*
Y368461D01*
Y357437D02*
X275425D01*
X274244Y362949D02*
X279756D01*
X259488Y351693D02*
Y352874D01*
Y351693D02*
X270512D01*
Y352874D01*
Y356024D02*
Y357205D01*
X259488D02*
X270512D01*
X259488Y356024D02*
Y357205D01*
X265000Y351693D02*
Y357205D01*
X316512Y356024D02*
Y357205D01*
X305488D02*
X316512D01*
X305488Y356024D02*
Y357205D01*
Y351693D02*
Y352874D01*
Y351693D02*
X316512D01*
Y352874D01*
X311000Y351693D02*
Y357205D01*
Y359193D02*
Y364705D01*
X316512Y359193D02*
Y360374D01*
X305488Y359193D02*
X316512D01*
X305488D02*
Y360374D01*
Y363524D02*
Y364705D01*
X316512D01*
Y363524D02*
Y364705D01*
X548100Y281344D02*
Y286856D01*
X553612Y281344D02*
Y282525D01*
X542588Y281344D02*
X553612D01*
X542588D02*
Y282525D01*
Y285675D02*
Y286856D01*
X553612D01*
Y285675D02*
Y286856D01*
X307744Y312500D02*
X313256D01*
X307744Y306988D02*
X308925D01*
X307744D02*
Y318012D01*
X308925D01*
X312075D02*
X313256D01*
Y306988D02*
Y318012D01*
X312075Y306988D02*
X313256D01*
X546244Y330291D02*
X551756D01*
X550575Y335803D02*
X551756D01*
Y324780D02*
Y335803D01*
X550575Y324780D02*
X551756D01*
X546244D02*
X547425D01*
X546244D02*
Y335803D01*
X547425D01*
X539244Y330291D02*
X544756D01*
X543575Y335803D02*
X544756D01*
Y324780D02*
Y335803D01*
X543575Y324780D02*
X544756D01*
X539244D02*
X540425D01*
X539244D02*
Y335803D01*
X540425D01*
X591500Y351693D02*
Y357205D01*
X597012Y351693D02*
Y352874D01*
X585988Y351693D02*
X597012D01*
X585988D02*
Y352874D01*
Y356024D02*
Y357205D01*
X597012D01*
Y356024D02*
Y357205D01*
Y363524D02*
Y364705D01*
X585988D02*
X597012D01*
X585988Y363524D02*
Y364705D01*
Y359193D02*
Y360374D01*
Y359193D02*
X597012D01*
Y360374D01*
X591500Y359193D02*
Y364705D01*
X545500Y351693D02*
Y357205D01*
X539988Y356024D02*
Y357205D01*
X551012D01*
Y356024D02*
Y357205D01*
Y351693D02*
Y352874D01*
X539988Y351693D02*
X551012D01*
X539988D02*
Y352874D01*
X554744Y362949D02*
X560256D01*
X554744Y357437D02*
X555925D01*
X554744D02*
Y368461D01*
X555925D01*
X559075D02*
X560256D01*
Y357437D02*
Y368461D01*
X559075Y357437D02*
X560256D01*
X576744Y362791D02*
X582256D01*
X576744Y357279D02*
X577925D01*
X576744D02*
Y368303D01*
X577925D01*
X581075D02*
X582256D01*
Y357279D02*
Y368303D01*
X581075Y357279D02*
X582256D01*
X588244Y312842D02*
X593756D01*
X588244Y307331D02*
X589425D01*
X588244D02*
Y318354D01*
X589425D01*
X592575D02*
X593756D01*
Y307331D02*
Y318354D01*
X592575Y307331D02*
X593756D01*
X558744Y312791D02*
X564256D01*
X558744Y307279D02*
X559925D01*
X558744D02*
Y318303D01*
X559925D01*
X563075D02*
X564256D01*
Y307279D02*
Y318303D01*
X563075Y307279D02*
X564256D01*
X566500Y356693D02*
X567256D01*
Y369291D01*
X566500D02*
X567256D01*
X561744D02*
X562500D01*
X561744Y356693D02*
Y369291D01*
Y356693D02*
X562500D01*
X561744Y362992D02*
X567256D01*
X574500Y356693D02*
X575256D01*
Y369291D01*
X574500D02*
X575256D01*
X569744D02*
X570500D01*
X569744Y356693D02*
Y369291D01*
Y356693D02*
X570500D01*
X569744Y362992D02*
X575256D01*
X551500Y341949D02*
Y342705D01*
X541500D02*
X551500D01*
X541500Y341949D02*
Y342705D01*
Y337193D02*
Y337949D01*
Y337193D02*
X551500D01*
Y337949D01*
X546500Y337193D02*
Y342705D01*
X574000Y307949D02*
X574756D01*
Y317949D01*
X574000D02*
X574756D01*
X569244D02*
X570000D01*
X569244Y307949D02*
Y317949D01*
Y307949D02*
X570000D01*
X569244Y312949D02*
X574756D01*
X586500Y317449D02*
Y318205D01*
X576500D02*
X586500D01*
X576500Y317449D02*
Y318205D01*
Y312693D02*
Y313449D01*
Y312693D02*
X586500D01*
Y313449D01*
X581500Y312693D02*
Y318205D01*
X476244Y330291D02*
X481756D01*
X480575Y335803D02*
X481756D01*
Y324780D02*
Y335803D01*
X480575Y324780D02*
X481756D01*
X476244D02*
X477425D01*
X476244D02*
Y335803D01*
X477425D01*
X469244Y330291D02*
X474756D01*
X473575Y335803D02*
X474756D01*
Y324780D02*
Y335803D01*
X473575Y324780D02*
X474756D01*
X469244D02*
X470425D01*
X469244D02*
Y335803D01*
X470425D01*
X521500Y351693D02*
Y357205D01*
X527012Y351693D02*
Y352874D01*
X515988Y351693D02*
X527012D01*
X515988D02*
Y352874D01*
Y356024D02*
Y357205D01*
X527012D01*
Y356024D02*
Y357205D01*
X516500Y317449D02*
Y318205D01*
X506500D02*
X516500D01*
X506500Y317449D02*
Y318205D01*
Y312693D02*
Y313449D01*
Y312693D02*
X516500D01*
Y313449D01*
X511500Y312693D02*
Y318205D01*
X504000Y307949D02*
X504756D01*
Y317949D01*
X504000D02*
X504756D01*
X499244D02*
X500000D01*
X499244Y307949D02*
Y317949D01*
Y307949D02*
X500000D01*
X499244Y312949D02*
X504756D01*
X481500Y341949D02*
Y342705D01*
X471500D02*
X481500D01*
X471500Y341949D02*
Y342705D01*
Y337193D02*
Y337949D01*
Y337193D02*
X481500D01*
Y337949D01*
X476500Y337193D02*
Y342705D01*
X504500Y356693D02*
X505256D01*
Y369291D01*
X504500D02*
X505256D01*
X499744D02*
X500500D01*
X499744Y356693D02*
Y369291D01*
Y356693D02*
X500500D01*
X499744Y362992D02*
X505256D01*
X496500Y356693D02*
X497256D01*
Y369291D01*
X496500D02*
X497256D01*
X491744D02*
X492500D01*
X491744Y356693D02*
Y369291D01*
Y356693D02*
X492500D01*
X491744Y362992D02*
X497256D01*
X488744Y312791D02*
X494256D01*
X488744Y307279D02*
X489925D01*
X488744D02*
Y318303D01*
X489925D01*
X493075D02*
X494256D01*
Y307279D02*
Y318303D01*
X493075Y307279D02*
X494256D01*
X518244Y312657D02*
X523756D01*
X518244Y307146D02*
X519425D01*
X518244D02*
Y318169D01*
X519425D01*
X522575D02*
X523756D01*
Y307146D02*
Y318169D01*
X522575Y307146D02*
X523756D01*
X506744Y362791D02*
X512256D01*
X506744Y357279D02*
X507925D01*
X506744D02*
Y368303D01*
X507925D01*
X511075D02*
X512256D01*
Y357279D02*
Y368303D01*
X511075Y357279D02*
X512256D01*
X484744Y362949D02*
X490256D01*
X484744Y357437D02*
X485925D01*
X484744D02*
Y368461D01*
X485925D01*
X489075D02*
X490256D01*
Y357437D02*
Y368461D01*
X489075Y357437D02*
X490256D01*
X475500Y351693D02*
Y357205D01*
X469988Y356024D02*
Y357205D01*
X481012D01*
Y356024D02*
Y357205D01*
Y351693D02*
Y352874D01*
X469988Y351693D02*
X481012D01*
X469988D02*
Y352874D01*
X527012Y363524D02*
Y364705D01*
X515988D02*
X527012D01*
X515988Y363524D02*
Y364705D01*
Y359193D02*
Y360374D01*
Y359193D02*
X527012D01*
Y360374D01*
X521500Y359193D02*
Y364705D01*
X436449Y312724D02*
Y313480D01*
Y312724D02*
X446449D01*
Y313480D01*
Y317480D02*
Y318236D01*
X436449D02*
X446449D01*
X436449Y317480D02*
Y318236D01*
X441449Y312724D02*
Y318236D01*
X433949Y307980D02*
X434705D01*
Y317980D01*
X433949D02*
X434705D01*
X429193D02*
X429949D01*
X429193Y307980D02*
Y317980D01*
Y307980D02*
X429949D01*
X429193Y312980D02*
X434705D01*
X411449Y341980D02*
Y342736D01*
X401449D02*
X411449D01*
X401449Y341980D02*
Y342736D01*
Y337224D02*
Y337980D01*
Y337224D02*
X411449D01*
Y337980D01*
X406449Y337224D02*
Y342736D01*
X434449Y356724D02*
X435205D01*
Y369323D01*
X434449D02*
X435205D01*
X429693D02*
X430449D01*
X429693Y356724D02*
Y369323D01*
Y356724D02*
X430449D01*
X429693Y363024D02*
X435205D01*
X426449Y356724D02*
X427205D01*
Y369323D01*
X426449D02*
X427205D01*
X421693D02*
X422449D01*
X421693Y356724D02*
Y369323D01*
Y356724D02*
X422449D01*
X421693Y363024D02*
X427205D01*
X418693Y312823D02*
X424205D01*
X418693Y307311D02*
X419874D01*
X418693D02*
Y318335D01*
X419874D01*
X423024D02*
X424205D01*
Y307311D02*
Y318335D01*
X423024Y307311D02*
X424205D01*
X448244Y312657D02*
X453756D01*
X448244Y307146D02*
X449425D01*
X448244D02*
Y318169D01*
X449425D01*
X452575D02*
X453756D01*
Y307146D02*
Y318169D01*
X452575Y307146D02*
X453756D01*
X399193Y330323D02*
X404705D01*
X403524Y335835D02*
X404705D01*
Y324811D02*
Y335835D01*
X403524Y324811D02*
X404705D01*
X399193D02*
X400374D01*
X399193D02*
Y335835D01*
X400374D01*
X406193Y330323D02*
X411705D01*
X410524Y335835D02*
X411705D01*
Y324811D02*
Y335835D01*
X410524Y324811D02*
X411705D01*
X406193D02*
X407374D01*
X406193D02*
Y335835D01*
X407374D01*
X436693Y362823D02*
X442205D01*
X436693Y357311D02*
X437874D01*
X436693D02*
Y368335D01*
X437874D01*
X441024D02*
X442205D01*
Y357311D02*
Y368335D01*
X441024Y357311D02*
X442205D01*
X414693Y362980D02*
X420205D01*
X414693Y357469D02*
X415874D01*
X414693D02*
Y368492D01*
X415874D01*
X419024D02*
X420205D01*
Y357469D02*
Y368492D01*
X419024Y357469D02*
X420205D01*
X405449Y351724D02*
Y357236D01*
X399937Y356055D02*
Y357236D01*
X410961D01*
Y356055D02*
Y357236D01*
Y351724D02*
Y352906D01*
X399937Y351724D02*
X410961D01*
X399937D02*
Y352906D01*
X451449Y351724D02*
Y357236D01*
X456961Y351724D02*
Y352906D01*
X445937Y351724D02*
X456961D01*
X445937D02*
Y352906D01*
Y356055D02*
Y357236D01*
X456961D01*
Y356055D02*
Y357236D01*
Y363555D02*
Y364736D01*
X445937D02*
X456961D01*
X445937Y363555D02*
Y364736D01*
Y359224D02*
Y360405D01*
Y359224D02*
X456961D01*
Y360405D01*
X451449Y359224D02*
Y364736D01*
X344693Y363012D02*
X350205D01*
X344693Y357500D02*
X345874D01*
X344693D02*
Y368524D01*
X345874D01*
X349024D02*
X350205D01*
Y357500D02*
Y368524D01*
X349024Y357500D02*
X350205D01*
X366693Y362854D02*
X372205D01*
X366693Y357343D02*
X367874D01*
X366693D02*
Y368366D01*
X367874D01*
X371024D02*
X372205D01*
Y357343D02*
Y368366D01*
X371024Y357343D02*
X372205D01*
X376449Y317512D02*
Y318268D01*
X366449D02*
X376449D01*
X366449Y317512D02*
Y318268D01*
Y312756D02*
Y313512D01*
Y312756D02*
X376449D01*
Y313512D01*
X371449Y312756D02*
Y318268D01*
X363949Y308012D02*
X364705D01*
Y318012D01*
X363949D02*
X364705D01*
X359193D02*
X359949D01*
X359193Y308012D02*
Y318012D01*
Y308012D02*
X359949D01*
X359193Y313012D02*
X364705D01*
X341449Y342012D02*
Y342768D01*
X331449D02*
X341449D01*
X331449Y342012D02*
Y342768D01*
Y337256D02*
Y338012D01*
Y337256D02*
X341449D01*
Y338012D01*
X336449Y337256D02*
Y342768D01*
X364449Y356756D02*
X365205D01*
Y369354D01*
X364449D02*
X365205D01*
X359693D02*
X360449D01*
X359693Y356756D02*
Y369354D01*
Y356756D02*
X360449D01*
X359693Y363055D02*
X365205D01*
X356449Y356756D02*
X357205D01*
Y369354D01*
X356449D02*
X357205D01*
X351693D02*
X352449D01*
X351693Y356756D02*
Y369354D01*
Y356756D02*
X352449D01*
X351693Y363055D02*
X357205D01*
X348693Y312854D02*
X354205D01*
X348693Y307343D02*
X349874D01*
X348693D02*
Y318366D01*
X349874D01*
X353024D02*
X354205D01*
Y307343D02*
Y318366D01*
X353024Y307343D02*
X354205D01*
X329193Y330354D02*
X334705D01*
X333524Y335866D02*
X334705D01*
Y324843D02*
Y335866D01*
X333524Y324843D02*
X334705D01*
X329193D02*
X330374D01*
X329193D02*
Y335866D01*
X330374D01*
X336193Y330354D02*
X341705D01*
X340524Y335866D02*
X341705D01*
Y324843D02*
Y335866D01*
X340524Y324843D02*
X341705D01*
X336193D02*
X337374D01*
X336193D02*
Y335866D01*
X337374D01*
X335449Y351756D02*
Y357268D01*
X329937Y356087D02*
Y357268D01*
X340961D01*
Y356087D02*
Y357268D01*
Y351756D02*
Y352937D01*
X329937Y351756D02*
X340961D01*
X329937D02*
Y352937D01*
X381449Y351756D02*
Y357268D01*
X386961Y351756D02*
Y352937D01*
X375937Y351756D02*
X386961D01*
X375937D02*
Y352937D01*
Y356087D02*
Y357268D01*
X386961D01*
Y356087D02*
Y357268D01*
Y363587D02*
Y364768D01*
X375937D02*
X386961D01*
X375937Y363587D02*
Y364768D01*
Y359256D02*
Y360437D01*
Y359256D02*
X386961D01*
Y360437D01*
X381449Y359256D02*
Y364768D01*
X378244Y312657D02*
X383756D01*
X378244Y307146D02*
X379425D01*
X378244D02*
Y318169D01*
X379425D01*
X382575D02*
X383756D01*
Y307146D02*
Y318169D01*
X382575Y307146D02*
X383756D01*
X290244Y427512D02*
X291425D01*
X290244Y416488D02*
Y427512D01*
Y416488D02*
X291425D01*
X294575D02*
X295756D01*
Y427512D01*
X294575D02*
X295756D01*
X290244Y422000D02*
X295756D01*
X580244Y427512D02*
X581425D01*
X580244Y416488D02*
Y427512D01*
Y416488D02*
X581425D01*
X584575D02*
X585756D01*
Y427512D01*
X584575D02*
X585756D01*
X580244Y422000D02*
X585756D01*
X570244Y427512D02*
X571425D01*
X570244Y416488D02*
Y427512D01*
Y416488D02*
X571425D01*
X574575D02*
X575756D01*
Y427512D01*
X574575D02*
X575756D01*
X570244Y422000D02*
X575756D01*
X510244Y427512D02*
X511425D01*
X510244Y416488D02*
Y427512D01*
Y416488D02*
X511425D01*
X514575D02*
X515756D01*
Y427512D01*
X514575D02*
X515756D01*
X510244Y422000D02*
X515756D01*
X500244Y427512D02*
X501425D01*
X500244Y416488D02*
Y427512D01*
Y416488D02*
X501425D01*
X504575D02*
X505756D01*
Y427512D01*
X504575D02*
X505756D01*
X500244Y422000D02*
X505756D01*
X464575Y389831D02*
X465756D01*
Y400854D01*
X464575D02*
X465756D01*
X460244D02*
X461425D01*
X460244Y389831D02*
Y400854D01*
Y389831D02*
X461425D01*
X460244Y395342D02*
X465756D01*
X464575Y423988D02*
X465756D01*
Y435012D01*
X464575D02*
X465756D01*
X460244D02*
X461425D01*
X460244Y423988D02*
Y435012D01*
Y423988D02*
X461425D01*
X460244Y429500D02*
X465756D01*
X369744Y427669D02*
X370925D01*
X369744Y416646D02*
Y427669D01*
Y416646D02*
X370925D01*
X374075D02*
X375256D01*
Y427669D01*
X374075D02*
X375256D01*
X369744Y422157D02*
X375256D01*
X359744Y427512D02*
X360925D01*
X359744Y416488D02*
Y427512D01*
Y416488D02*
X360925D01*
X364075D02*
X365256D01*
Y427512D01*
X364075D02*
X365256D01*
X359744Y422000D02*
X365256D01*
X299744Y427512D02*
X300925D01*
X299744Y416488D02*
Y427512D01*
Y416488D02*
X300925D01*
X304075D02*
X305256D01*
Y427512D01*
X304075D02*
X305256D01*
X299744Y422000D02*
X305256D01*
X280244Y427512D02*
X281425D01*
X280244Y416488D02*
Y427512D01*
Y416488D02*
X281425D01*
X284575D02*
X285756D01*
Y427512D01*
X284575D02*
X285756D01*
X280244Y422000D02*
X285756D01*
X550244Y427512D02*
X551425D01*
X550244Y416488D02*
Y427512D01*
Y416488D02*
X551425D01*
X554575D02*
X555756D01*
Y427512D01*
X554575D02*
X555756D01*
X550244Y422000D02*
X555756D01*
X560244Y427512D02*
X561425D01*
X560244Y416488D02*
Y427512D01*
Y416488D02*
X561425D01*
X564575D02*
X565756D01*
Y427512D01*
X564575D02*
X565756D01*
X560244Y422000D02*
X565756D01*
X480244Y427512D02*
X481425D01*
X480244Y416488D02*
Y427512D01*
Y416488D02*
X481425D01*
X484575D02*
X485756D01*
Y427512D01*
X484575D02*
X485756D01*
X480244Y422000D02*
X485756D01*
X490244Y427512D02*
X491425D01*
X490244Y416488D02*
Y427512D01*
Y416488D02*
X491425D01*
X494575D02*
X495756D01*
Y427512D01*
X494575D02*
X495756D01*
X490244Y422000D02*
X495756D01*
X394075Y389831D02*
X395256D01*
Y400854D01*
X394075D02*
X395256D01*
X389744D02*
X390925D01*
X389744Y389831D02*
Y400854D01*
Y389831D02*
X390925D01*
X389744Y395342D02*
X395256D01*
X394075Y423831D02*
X395256D01*
Y434854D01*
X394075D02*
X395256D01*
X389744D02*
X390925D01*
X389744Y423831D02*
Y434854D01*
Y423831D02*
X390925D01*
X389744Y429343D02*
X395256D01*
X340244Y427512D02*
X341425D01*
X340244Y416488D02*
Y427512D01*
Y416488D02*
X341425D01*
X344575D02*
X345756D01*
Y427512D01*
X344575D02*
X345756D01*
X340244Y422000D02*
X345756D01*
X350244Y427512D02*
X351425D01*
X350244Y416488D02*
Y427512D01*
Y416488D02*
X351425D01*
X354575D02*
X355756D01*
Y427512D01*
X354575D02*
X355756D01*
X350244Y422000D02*
X355756D01*
X270244Y427512D02*
X271425D01*
X270244Y416488D02*
Y427512D01*
Y416488D02*
X271425D01*
X274575D02*
X275756D01*
Y427512D01*
X274575D02*
X275756D01*
X270244Y422000D02*
X275756D01*
X547800Y273544D02*
Y279056D01*
X542800Y278300D02*
Y279056D01*
X552800D01*
Y278300D02*
Y279056D01*
Y273544D02*
Y274300D01*
X542800Y273544D02*
X552800D01*
X542800D02*
Y274300D01*
X547800Y266444D02*
Y271956D01*
X542800Y271200D02*
Y271956D01*
X552800D01*
Y271200D02*
Y271956D01*
Y266444D02*
Y267200D01*
X542800Y266444D02*
X552800D01*
X542800D02*
Y267200D01*
X558744Y258659D02*
X564256D01*
X563500Y263659D02*
X564256D01*
Y253659D02*
Y263659D01*
X563500Y253659D02*
X564256D01*
X558744D02*
X559500D01*
X558744D02*
Y263659D01*
X559500D01*
X413412Y275375D02*
Y276556D01*
X402388D02*
X413412D01*
X402388Y275375D02*
Y276556D01*
Y271044D02*
Y272225D01*
Y271044D02*
X413412D01*
Y272225D01*
X407900Y271044D02*
Y276556D01*
X407500Y257544D02*
Y263056D01*
X412500Y257544D02*
Y258300D01*
X402500Y257544D02*
X412500D01*
X402500D02*
Y258300D01*
Y262300D02*
Y263056D01*
X412500D01*
Y262300D02*
Y263056D01*
X413412Y268575D02*
Y269756D01*
X402388D02*
X413412D01*
X402388Y268575D02*
Y269756D01*
Y264244D02*
Y265425D01*
Y264244D02*
X413412D01*
Y265425D01*
X407900Y264244D02*
Y269756D01*
X407459Y250744D02*
Y256256D01*
X412459Y250744D02*
Y251500D01*
X402459Y250744D02*
X412459D01*
X402459D02*
Y251500D01*
Y255500D02*
Y256256D01*
X412459D01*
Y255500D02*
Y256256D01*
D14*
X573600Y292300D02*
X573400Y292500D01*
X573000D01*
X572800Y292300D01*
Y291500D01*
X573000Y291300D01*
X573400D01*
X573600Y291500D01*
X574000Y291300D02*
Y292500D01*
X574799Y291300D01*
Y292500D01*
X575199Y291300D02*
X575599D01*
X575399D01*
Y292500D01*
X575199Y292300D01*
X576999Y292500D02*
X576599Y292300D01*
X576199Y291900D01*
Y291500D01*
X576399Y291300D01*
X576799D01*
X576999Y291500D01*
Y291700D01*
X576799Y291900D01*
X576199D01*
X507300Y290500D02*
Y289500D01*
X507500Y289300D01*
X507900D01*
X508100Y289500D01*
Y290500D01*
X508500Y289300D02*
X508899D01*
X508700D01*
Y290500D01*
X508500Y290300D01*
X509499Y289300D02*
X509899D01*
X509699D01*
Y290500D01*
X509499Y290300D01*
X275700Y351900D02*
Y350900D01*
X275900Y350700D01*
X276300D01*
X276500Y350900D01*
Y351900D01*
X276900Y350700D02*
X277299D01*
X277099D01*
Y351900D01*
X276900Y351700D01*
X295800Y320700D02*
Y321900D01*
X296400D01*
X296600Y321700D01*
Y321300D01*
X296400Y321100D01*
X295800D01*
X296200D02*
X296600Y320700D01*
X297000D02*
X297399D01*
X297200D01*
Y321900D01*
X297000Y321700D01*
X297999Y320700D02*
X298399D01*
X298199D01*
Y321900D01*
X297999Y321700D01*
X288600Y320600D02*
Y321800D01*
X289200D01*
X289400Y321600D01*
Y321200D01*
X289200Y321000D01*
X288600D01*
X289000D02*
X289400Y320600D01*
X289800D02*
X290199D01*
X290000D01*
Y321800D01*
X289800Y321600D01*
X290799D02*
X290999Y321800D01*
X291399D01*
X291599Y321600D01*
Y320800D01*
X291399Y320600D01*
X290999D01*
X290799Y320800D01*
Y321600D01*
X260800Y345200D02*
Y346400D01*
X261400D01*
X261600Y346200D01*
Y345800D01*
X261400Y345600D01*
X260800D01*
X261200D02*
X261600Y345200D01*
X262000Y346400D02*
X262799D01*
Y346200D01*
X262000Y345400D01*
Y345200D01*
X289100Y372000D02*
Y373200D01*
X289700D01*
X289900Y373000D01*
Y372600D01*
X289700Y372400D01*
X289100D01*
X289500D02*
X289900Y372000D01*
X291099D02*
X290300D01*
X291099Y372800D01*
Y373000D01*
X290899Y373200D01*
X290499D01*
X290300Y373000D01*
X281100Y372000D02*
Y373200D01*
X281700D01*
X281900Y373000D01*
Y372600D01*
X281700Y372400D01*
X281100D01*
X281500D02*
X281900Y372000D01*
X282300D02*
X282699D01*
X282500D01*
Y373200D01*
X282300Y373000D01*
X278900Y321800D02*
X278700Y322000D01*
X278300D01*
X278100Y321800D01*
Y321000D01*
X278300Y320800D01*
X278700D01*
X278900Y321000D01*
X280099Y320800D02*
X279300D01*
X280099Y321600D01*
Y321800D01*
X279899Y322000D01*
X279500D01*
X279300Y321800D01*
X281299Y322000D02*
X280899Y321800D01*
X280499Y321400D01*
Y321000D01*
X280699Y320800D01*
X281099D01*
X281299Y321000D01*
Y321200D01*
X281099Y321400D01*
X280499D01*
X257300Y338349D02*
X257100Y338549D01*
X256700D01*
X256501Y338349D01*
Y337549D01*
X256700Y337349D01*
X257100D01*
X257300Y337549D01*
X257700Y337349D02*
X258100D01*
X257900D01*
Y338549D01*
X257700Y338349D01*
X258700Y337549D02*
X258900Y337349D01*
X259300D01*
X259500Y337549D01*
Y338349D01*
X259300Y338549D01*
X258900D01*
X258700Y338349D01*
Y338149D01*
X258900Y337949D01*
X259500D01*
X272800Y337349D02*
X272600Y337549D01*
X272200D01*
X272001Y337349D01*
Y336549D01*
X272200Y336349D01*
X272600D01*
X272800Y336549D01*
X273200Y336349D02*
X273600D01*
X273400D01*
Y337549D01*
X273200Y337349D01*
X274999Y337549D02*
X274600Y337349D01*
X274200Y336949D01*
Y336549D01*
X274400Y336349D01*
X274800D01*
X274999Y336549D01*
Y336749D01*
X274800Y336949D01*
X274200D01*
X296900Y371800D02*
X296700Y372000D01*
X296300D01*
X296100Y371800D01*
Y371000D01*
X296300Y370800D01*
X296700D01*
X296900Y371000D01*
X297300Y371800D02*
X297499Y372000D01*
X297899D01*
X298099Y371800D01*
Y371600D01*
X297899Y371400D01*
X298099Y371200D01*
Y371000D01*
X297899Y370800D01*
X297499D01*
X297300Y371000D01*
Y371200D01*
X297499Y371400D01*
X297300Y371600D01*
Y371800D01*
X297499Y371400D02*
X297899D01*
X274900Y372000D02*
X274700Y372200D01*
X274300D01*
X274100Y372000D01*
Y371200D01*
X274300Y371000D01*
X274700D01*
X274900Y371200D01*
X275300Y372200D02*
X276099D01*
Y372000D01*
X275300Y371200D01*
Y371000D01*
X260200Y360700D02*
X260000Y360900D01*
X259600D01*
X259400Y360700D01*
Y359900D01*
X259600Y359700D01*
X260000D01*
X260200Y359900D01*
X261199Y359700D02*
Y360900D01*
X260600Y360300D01*
X261399D01*
X303300Y354849D02*
X303100Y355049D01*
X302700D01*
X302500Y354849D01*
Y354049D01*
X302700Y353849D01*
X303100D01*
X303300Y354049D01*
X303700Y354849D02*
X303900Y355049D01*
X304300D01*
X304500Y354849D01*
Y354649D01*
X304300Y354449D01*
X304100D01*
X304300D01*
X304500Y354249D01*
Y354049D01*
X304300Y353849D01*
X303900D01*
X303700Y354049D01*
X306200Y368200D02*
X306000Y368400D01*
X305600D01*
X305400Y368200D01*
Y367400D01*
X305600Y367200D01*
X306000D01*
X306200Y367400D01*
X306600Y367200D02*
X306999D01*
X306800D01*
Y368400D01*
X306600Y368200D01*
X543300Y290400D02*
X543100Y290600D01*
X542700D01*
X542500Y290400D01*
Y289600D01*
X542700Y289400D01*
X543100D01*
X543300Y289600D01*
X544499Y290600D02*
X544100Y290400D01*
X543700Y290000D01*
Y289600D01*
X543899Y289400D01*
X544299D01*
X544499Y289600D01*
Y289800D01*
X544299Y290000D01*
X543700D01*
X544899Y290400D02*
X545099Y290600D01*
X545499D01*
X545699Y290400D01*
Y290200D01*
X545499Y290000D01*
X545699Y289800D01*
Y289600D01*
X545499Y289400D01*
X545099D01*
X544899Y289600D01*
Y289800D01*
X545099Y290000D01*
X544899Y290200D01*
Y290400D01*
X545099Y290000D02*
X545499D01*
X257800Y283200D02*
Y282200D01*
X258000Y282000D01*
X258400D01*
X258600Y282200D01*
Y283200D01*
X259000Y282000D02*
X259400D01*
X259200D01*
Y283200D01*
X259000Y283000D01*
X259999D02*
X260199Y283200D01*
X260599D01*
X260799Y283000D01*
Y282200D01*
X260599Y282000D01*
X260199D01*
X259999Y282200D01*
Y283000D01*
X332800Y283200D02*
Y282200D01*
X333000Y282000D01*
X333400D01*
X333600Y282200D01*
Y283200D01*
X334000Y282200D02*
X334200Y282000D01*
X334599D01*
X334799Y282200D01*
Y283000D01*
X334599Y283200D01*
X334200D01*
X334000Y283000D01*
Y282800D01*
X334200Y282600D01*
X334799D01*
X307800Y283200D02*
Y282200D01*
X308000Y282000D01*
X308400D01*
X308600Y282200D01*
Y283200D01*
X309000Y283000D02*
X309200Y283200D01*
X309599D01*
X309799Y283000D01*
Y282800D01*
X309599Y282600D01*
X309799Y282400D01*
Y282200D01*
X309599Y282000D01*
X309200D01*
X309000Y282200D01*
Y282400D01*
X309200Y282600D01*
X309000Y282800D01*
Y283000D01*
X309200Y282600D02*
X309599D01*
X282800Y283200D02*
Y282200D01*
X283000Y282000D01*
X283400D01*
X283600Y282200D01*
Y283200D01*
X284000D02*
X284799D01*
Y283000D01*
X284000Y282200D01*
Y282000D01*
X363400Y282200D02*
Y281200D01*
X363600Y281000D01*
X364000D01*
X364200Y281200D01*
Y282200D01*
X365399D02*
X365000Y282000D01*
X364600Y281600D01*
Y281200D01*
X364799Y281000D01*
X365199D01*
X365399Y281200D01*
Y281400D01*
X365199Y281600D01*
X364600D01*
X486200Y351900D02*
Y350900D01*
X486400Y350700D01*
X486800D01*
X487000Y350900D01*
Y351900D01*
X488199D02*
X487400D01*
Y351300D01*
X487800Y351500D01*
X487999D01*
X488199Y351300D01*
Y350900D01*
X487999Y350700D01*
X487600D01*
X487400Y350900D01*
X345949Y352011D02*
Y351012D01*
X346149Y350812D01*
X346549D01*
X346749Y351012D01*
Y352011D01*
X347748Y350812D02*
Y352011D01*
X347148Y351412D01*
X347948D01*
X556200Y351900D02*
Y350900D01*
X556400Y350700D01*
X556800D01*
X557000Y350900D01*
Y351900D01*
X557400Y351700D02*
X557599Y351900D01*
X557999D01*
X558199Y351700D01*
Y351500D01*
X557999Y351300D01*
X557799D01*
X557999D01*
X558199Y351100D01*
Y350900D01*
X557999Y350700D01*
X557599D01*
X557400Y350900D01*
X416100Y351900D02*
Y350900D01*
X416300Y350700D01*
X416700D01*
X416900Y350900D01*
Y351900D01*
X418099Y350700D02*
X417300D01*
X418099Y351500D01*
Y351700D01*
X417899Y351900D01*
X417499D01*
X417300Y351700D01*
X542600Y281600D02*
Y282800D01*
X543200D01*
X543400Y282600D01*
Y282200D01*
X543200Y282000D01*
X542600D01*
X543000D02*
X543400Y281600D01*
X543800Y282600D02*
X543999Y282800D01*
X544399D01*
X544599Y282600D01*
Y282400D01*
X544399Y282200D01*
X544200D01*
X544399D01*
X544599Y282000D01*
Y281800D01*
X544399Y281600D01*
X543999D01*
X543800Y281800D01*
X545799Y281600D02*
X544999D01*
X545799Y282400D01*
Y282600D01*
X545599Y282800D01*
X545199D01*
X544999Y282600D01*
X542600Y274500D02*
Y275700D01*
X543200D01*
X543400Y275500D01*
Y275100D01*
X543200Y274900D01*
X542600D01*
X543000D02*
X543400Y274500D01*
X543800Y275500D02*
X543999Y275700D01*
X544399D01*
X544599Y275500D01*
Y275300D01*
X544399Y275100D01*
X544200D01*
X544399D01*
X544599Y274900D01*
Y274700D01*
X544399Y274500D01*
X543999D01*
X543800Y274700D01*
X544999Y274500D02*
X545399D01*
X545199D01*
Y275700D01*
X544999Y275500D01*
X558600Y266300D02*
Y267500D01*
X559200D01*
X559400Y267300D01*
Y266900D01*
X559200Y266700D01*
X558600D01*
X559000D02*
X559400Y266300D01*
X559800Y267300D02*
X560000Y267500D01*
X560399D01*
X560599Y267300D01*
Y267100D01*
X560399Y266900D01*
X560199D01*
X560399D01*
X560599Y266700D01*
Y266500D01*
X560399Y266300D01*
X560000D01*
X559800Y266500D01*
X560999Y267300D02*
X561199Y267500D01*
X561599D01*
X561799Y267300D01*
Y266500D01*
X561599Y266300D01*
X561199D01*
X560999Y266500D01*
Y267300D01*
X402200Y258800D02*
Y260000D01*
X402800D01*
X403000Y259800D01*
Y259400D01*
X402800Y259200D01*
X402200D01*
X402600D02*
X403000Y258800D01*
X404199D02*
X403400D01*
X404199Y259600D01*
Y259800D01*
X403999Y260000D01*
X403600D01*
X403400Y259800D01*
X404599Y259000D02*
X404799Y258800D01*
X405199D01*
X405399Y259000D01*
Y259800D01*
X405199Y260000D01*
X404799D01*
X404599Y259800D01*
Y259600D01*
X404799Y259400D01*
X405399D01*
X402300Y265600D02*
Y266800D01*
X402900D01*
X403100Y266600D01*
Y266200D01*
X402900Y266000D01*
X402300D01*
X402700D02*
X403100Y265600D01*
X404299D02*
X403500D01*
X404299Y266400D01*
Y266600D01*
X404099Y266800D01*
X403699D01*
X403500Y266600D01*
X404699D02*
X404899Y266800D01*
X405299D01*
X405499Y266600D01*
Y266400D01*
X405299Y266200D01*
X405499Y266000D01*
Y265800D01*
X405299Y265600D01*
X404899D01*
X404699Y265800D01*
Y266000D01*
X404899Y266200D01*
X404699Y266400D01*
Y266600D01*
X404899Y266200D02*
X405299D01*
X506300Y320700D02*
Y321900D01*
X506900D01*
X507100Y321700D01*
Y321300D01*
X506900Y321100D01*
X506300D01*
X506700D02*
X507100Y320700D01*
X508299D02*
X507500D01*
X508299Y321500D01*
Y321700D01*
X508099Y321900D01*
X507699D01*
X507500Y321700D01*
X508699Y321900D02*
X509499D01*
Y321700D01*
X508699Y320900D01*
Y320700D01*
X499100Y320600D02*
Y321800D01*
X499700D01*
X499900Y321600D01*
Y321200D01*
X499700Y321000D01*
X499100D01*
X499500D02*
X499900Y320600D01*
X501099D02*
X500300D01*
X501099Y321400D01*
Y321600D01*
X500899Y321800D01*
X500499D01*
X500300Y321600D01*
X502299Y321800D02*
X501899Y321600D01*
X501499Y321200D01*
Y320800D01*
X501699Y320600D01*
X502099D01*
X502299Y320800D01*
Y321000D01*
X502099Y321200D01*
X501499D01*
X365949Y320812D02*
Y322011D01*
X366549D01*
X366749Y321812D01*
Y321412D01*
X366549Y321212D01*
X365949D01*
X366349D02*
X366749Y320812D01*
X367948D02*
X367148D01*
X367948Y321611D01*
Y321812D01*
X367748Y322011D01*
X367349D01*
X367148Y321812D01*
X369148Y322011D02*
X368348D01*
Y321412D01*
X368748Y321611D01*
X368948D01*
X369148Y321412D01*
Y321012D01*
X368948Y320812D01*
X368548D01*
X368348Y321012D01*
X359100Y320600D02*
Y321800D01*
X359700D01*
X359900Y321600D01*
Y321200D01*
X359700Y321000D01*
X359100D01*
X359500D02*
X359900Y320600D01*
X361099D02*
X360300D01*
X361099Y321400D01*
Y321600D01*
X360899Y321800D01*
X360500D01*
X360300Y321600D01*
X362099Y320600D02*
Y321800D01*
X361499Y321200D01*
X362299D01*
X471300Y345200D02*
Y346400D01*
X471900D01*
X472100Y346200D01*
Y345800D01*
X471900Y345600D01*
X471300D01*
X471700D02*
X472100Y345200D01*
X473299D02*
X472500D01*
X473299Y346000D01*
Y346200D01*
X473099Y346400D01*
X472699D01*
X472500Y346200D01*
X473699D02*
X473899Y346400D01*
X474299D01*
X474499Y346200D01*
Y346000D01*
X474299Y345800D01*
X474099D01*
X474299D01*
X474499Y345600D01*
Y345400D01*
X474299Y345200D01*
X473899D01*
X473699Y345400D01*
X330649Y345312D02*
Y346511D01*
X331249D01*
X331449Y346311D01*
Y345912D01*
X331249Y345712D01*
X330649D01*
X331049D02*
X331449Y345312D01*
X332648D02*
X331849D01*
X332648Y346111D01*
Y346311D01*
X332449Y346511D01*
X332049D01*
X331849Y346311D01*
X333848Y345312D02*
X333048D01*
X333848Y346111D01*
Y346311D01*
X333648Y346511D01*
X333248D01*
X333048Y346311D01*
X499600Y372000D02*
Y373200D01*
X500200D01*
X500400Y373000D01*
Y372600D01*
X500200Y372400D01*
X499600D01*
X500000D02*
X500400Y372000D01*
X500800D02*
X501199D01*
X500999D01*
Y373200D01*
X500800Y373000D01*
X501799Y372200D02*
X501999Y372000D01*
X502399D01*
X502599Y372200D01*
Y373000D01*
X502399Y373200D01*
X501999D01*
X501799Y373000D01*
Y372800D01*
X501999Y372600D01*
X502599D01*
X491600Y372000D02*
Y373200D01*
X492200D01*
X492400Y373000D01*
Y372600D01*
X492200Y372400D01*
X491600D01*
X492000D02*
X492400Y372000D01*
X492800D02*
X493199D01*
X493000D01*
Y373200D01*
X492800Y373000D01*
X493799D02*
X493999Y373200D01*
X494399D01*
X494599Y373000D01*
Y372800D01*
X494399Y372600D01*
X494599Y372400D01*
Y372200D01*
X494399Y372000D01*
X493999D01*
X493799Y372200D01*
Y372400D01*
X493999Y372600D01*
X493799Y372800D01*
Y373000D01*
X493999Y372600D02*
X494399D01*
X359049Y372012D02*
Y373211D01*
X359649D01*
X359849Y373011D01*
Y372612D01*
X359649Y372412D01*
X359049D01*
X359449D02*
X359849Y372012D01*
X360249D02*
X360648D01*
X360449D01*
Y373211D01*
X360249Y373011D01*
X361248Y373211D02*
X362048D01*
Y373011D01*
X361248Y372212D01*
Y372012D01*
X350849D02*
Y373211D01*
X351449D01*
X351649Y373011D01*
Y372612D01*
X351449Y372412D01*
X350849D01*
X351249D02*
X351649Y372012D01*
X352049D02*
X352449D01*
X352249D01*
Y373211D01*
X352049Y373011D01*
X353848Y373211D02*
X353448Y373011D01*
X353048Y372612D01*
Y372212D01*
X353248Y372012D01*
X353648D01*
X353848Y372212D01*
Y372412D01*
X353648Y372612D01*
X353048D01*
X576300Y320700D02*
Y321900D01*
X576900D01*
X577100Y321700D01*
Y321300D01*
X576900Y321100D01*
X576300D01*
X576700D02*
X577100Y320700D01*
X577500D02*
X577900D01*
X577700D01*
Y321900D01*
X577500Y321700D01*
X579299Y321900D02*
X578499D01*
Y321300D01*
X578899Y321500D01*
X579099D01*
X579299Y321300D01*
Y320900D01*
X579099Y320700D01*
X578699D01*
X578499Y320900D01*
X569100Y320600D02*
Y321800D01*
X569700D01*
X569900Y321600D01*
Y321200D01*
X569700Y321000D01*
X569100D01*
X569500D02*
X569900Y320600D01*
X570300D02*
X570700D01*
X570500D01*
Y321800D01*
X570300Y321600D01*
X571899Y320600D02*
Y321800D01*
X571299Y321200D01*
X572099D01*
X436200Y320700D02*
Y321900D01*
X436800D01*
X437000Y321700D01*
Y321300D01*
X436800Y321100D01*
X436200D01*
X436600D02*
X437000Y320700D01*
X437400D02*
X437800D01*
X437600D01*
Y321900D01*
X437400Y321700D01*
X438399D02*
X438599Y321900D01*
X438999D01*
X439199Y321700D01*
Y321500D01*
X438999Y321300D01*
X438799D01*
X438999D01*
X439199Y321100D01*
Y320900D01*
X438999Y320700D01*
X438599D01*
X438399Y320900D01*
X429100Y320600D02*
Y321800D01*
X429700D01*
X429900Y321600D01*
Y321200D01*
X429700Y321000D01*
X429100D01*
X429500D02*
X429900Y320600D01*
X430300D02*
X430699D01*
X430500D01*
Y321800D01*
X430300Y321600D01*
X432099Y320600D02*
X431299D01*
X432099Y321400D01*
Y321600D01*
X431899Y321800D01*
X431499D01*
X431299Y321600D01*
X541300Y345200D02*
Y346400D01*
X541900D01*
X542100Y346200D01*
Y345800D01*
X541900Y345600D01*
X541300D01*
X541700D02*
X542100Y345200D01*
X542500Y345400D02*
X542699Y345200D01*
X543099D01*
X543299Y345400D01*
Y346200D01*
X543099Y346400D01*
X542699D01*
X542500Y346200D01*
Y346000D01*
X542699Y345800D01*
X543299D01*
X401200Y345200D02*
Y346400D01*
X401800D01*
X402000Y346200D01*
Y345800D01*
X401800Y345600D01*
X401200D01*
X401600D02*
X402000Y345200D01*
X402400Y346200D02*
X402599Y346400D01*
X402999D01*
X403199Y346200D01*
Y346000D01*
X402999Y345800D01*
X403199Y345600D01*
Y345400D01*
X402999Y345200D01*
X402599D01*
X402400Y345400D01*
Y345600D01*
X402599Y345800D01*
X402400Y346000D01*
Y346200D01*
X402599Y345800D02*
X402999D01*
X569600Y372000D02*
Y373200D01*
X570200D01*
X570400Y373000D01*
Y372600D01*
X570200Y372400D01*
X569600D01*
X570000D02*
X570400Y372000D01*
X571599Y373200D02*
X571200Y373000D01*
X570800Y372600D01*
Y372200D01*
X570999Y372000D01*
X571399D01*
X571599Y372200D01*
Y372400D01*
X571399Y372600D01*
X570800D01*
X561600Y372000D02*
Y373200D01*
X562200D01*
X562400Y373000D01*
Y372600D01*
X562200Y372400D01*
X561600D01*
X562000D02*
X562400Y372000D01*
X563599Y373200D02*
X562800D01*
Y372600D01*
X563200Y372800D01*
X563399D01*
X563599Y372600D01*
Y372200D01*
X563399Y372000D01*
X562999D01*
X562800Y372200D01*
X429600Y372000D02*
Y373200D01*
X430200D01*
X430400Y373000D01*
Y372600D01*
X430200Y372400D01*
X429600D01*
X430000D02*
X430400Y372000D01*
X431399D02*
Y373200D01*
X430800Y372600D01*
X431599D01*
X421600Y372000D02*
Y373200D01*
X422200D01*
X422400Y373000D01*
Y372600D01*
X422200Y372400D01*
X421600D01*
X422000D02*
X422400Y372000D01*
X422800Y373000D02*
X422999Y373200D01*
X423399D01*
X423599Y373000D01*
Y372800D01*
X423399Y372600D01*
X423200D01*
X423399D01*
X423599Y372400D01*
Y372200D01*
X423399Y372000D01*
X422999D01*
X422800Y372200D01*
X258100Y244600D02*
Y245400D01*
X257900Y245600D01*
X257500D01*
X257300Y245400D01*
Y244600D01*
X257500Y244400D01*
X257900D01*
X257700Y244800D02*
X258100Y244400D01*
X257900D02*
X258100Y244600D01*
X258500Y245600D02*
X259299D01*
Y245400D01*
X258500Y244600D01*
Y244400D01*
X461600Y244100D02*
Y244900D01*
X461400Y245100D01*
X461000D01*
X460800Y244900D01*
Y244100D01*
X461000Y243900D01*
X461400D01*
X461200Y244300D02*
X461600Y243900D01*
X461400D02*
X461600Y244100D01*
X462799Y245100D02*
X462399Y244900D01*
X462000Y244500D01*
Y244100D01*
X462199Y243900D01*
X462599D01*
X462799Y244100D01*
Y244300D01*
X462599Y244500D01*
X462000D01*
X502100Y244100D02*
Y244900D01*
X501900Y245100D01*
X501500D01*
X501300Y244900D01*
Y244100D01*
X501500Y243900D01*
X501900D01*
X501700Y244300D02*
X502100Y243900D01*
X501900D02*
X502100Y244100D01*
X503299Y245100D02*
X502500D01*
Y244500D01*
X502900Y244700D01*
X503099D01*
X503299Y244500D01*
Y244100D01*
X503099Y243900D01*
X502700D01*
X502500Y244100D01*
X380100Y244300D02*
Y245100D01*
X379900Y245300D01*
X379500D01*
X379300Y245100D01*
Y244300D01*
X379500Y244100D01*
X379900D01*
X379700Y244500D02*
X380100Y244100D01*
X379900D02*
X380100Y244300D01*
X381099Y244100D02*
Y245300D01*
X380500Y244700D01*
X381299D01*
X421100Y244100D02*
Y244900D01*
X420900Y245100D01*
X420500D01*
X420300Y244900D01*
Y244100D01*
X420500Y243900D01*
X420900D01*
X420700Y244300D02*
X421100Y243900D01*
X420900D02*
X421100Y244100D01*
X421500Y244900D02*
X421699Y245100D01*
X422099D01*
X422299Y244900D01*
Y244700D01*
X422099Y244500D01*
X421900D01*
X422099D01*
X422299Y244300D01*
Y244100D01*
X422099Y243900D01*
X421699D01*
X421500Y244100D01*
X299100Y244300D02*
Y245100D01*
X298900Y245300D01*
X298500D01*
X298300Y245100D01*
Y244300D01*
X298500Y244100D01*
X298900D01*
X298700Y244500D02*
X299100Y244100D01*
X298900D02*
X299100Y244300D01*
X300299Y244100D02*
X299500D01*
X300299Y244900D01*
Y245100D01*
X300099Y245300D01*
X299699D01*
X299500Y245100D01*
X339600Y244300D02*
Y245100D01*
X339400Y245300D01*
X339000D01*
X338800Y245100D01*
Y244300D01*
X339000Y244100D01*
X339400D01*
X339200Y244500D02*
X339600Y244100D01*
X339400D02*
X339600Y244300D01*
X340000Y244100D02*
X340400D01*
X340199D01*
Y245300D01*
X340000Y245100D01*
X491800Y305900D02*
Y304700D01*
X492400D01*
X492600Y304900D01*
Y305700D01*
X492400Y305900D01*
X491800D01*
X493799D02*
X493000D01*
Y305300D01*
X493399Y305500D01*
X493599D01*
X493799Y305300D01*
Y304900D01*
X493599Y304700D01*
X493199D01*
X493000Y304900D01*
X351800Y305900D02*
Y304700D01*
X352400D01*
X352600Y304900D01*
Y305700D01*
X352400Y305900D01*
X351800D01*
X353599Y304700D02*
Y305900D01*
X353000Y305300D01*
X353799D01*
X532000Y305900D02*
Y304700D01*
X532600D01*
X532800Y304900D01*
Y305700D01*
X532600Y305900D01*
X532000D01*
X533200Y305700D02*
X533399Y305900D01*
X533799D01*
X533999Y305700D01*
Y305500D01*
X533799Y305300D01*
X533600D01*
X533799D01*
X533999Y305100D01*
Y304900D01*
X533799Y304700D01*
X533399D01*
X533200Y304900D01*
X421700Y305900D02*
Y304700D01*
X422300D01*
X422500Y304900D01*
Y305700D01*
X422300Y305900D01*
X421700D01*
X423699Y304700D02*
X422900D01*
X423699Y305500D01*
Y305700D01*
X423499Y305900D01*
X423100D01*
X422900Y305700D01*
X280700Y305900D02*
Y304700D01*
X281300D01*
X281500Y304900D01*
Y305700D01*
X281300Y305900D01*
X280700D01*
X281900Y304700D02*
X282299D01*
X282100D01*
Y305900D01*
X281900Y305700D01*
X460900Y184200D02*
X460700Y184400D01*
X460300D01*
X460100Y184200D01*
Y183400D01*
X460300Y183200D01*
X460700D01*
X460900Y183400D01*
X461300Y183200D02*
Y184400D01*
X462099Y183200D01*
Y184400D01*
X462499Y183200D02*
X462899D01*
X462699D01*
Y184400D01*
X462499Y184200D01*
X464299Y184400D02*
X463499D01*
Y183800D01*
X463899Y184000D01*
X464099D01*
X464299Y183800D01*
Y183400D01*
X464099Y183200D01*
X463699D01*
X463499Y183400D01*
X501200Y184200D02*
X501000Y184400D01*
X500600D01*
X500400Y184200D01*
Y183400D01*
X500600Y183200D01*
X501000D01*
X501200Y183400D01*
X501600Y183200D02*
Y184400D01*
X502399Y183200D01*
Y184400D01*
X502799Y183200D02*
X503199D01*
X502999D01*
Y184400D01*
X502799Y184200D01*
X504399Y183200D02*
Y184400D01*
X503799Y183800D01*
X504599D01*
X379400Y184200D02*
X379200Y184400D01*
X378800D01*
X378600Y184200D01*
Y183400D01*
X378800Y183200D01*
X379200D01*
X379400Y183400D01*
X379800Y183200D02*
Y184400D01*
X380599Y183200D01*
Y184400D01*
X380999Y183200D02*
X381399D01*
X381199D01*
Y184400D01*
X380999Y184200D01*
X381999D02*
X382199Y184400D01*
X382599D01*
X382799Y184200D01*
Y184000D01*
X382599Y183800D01*
X382399D01*
X382599D01*
X382799Y183600D01*
Y183400D01*
X382599Y183200D01*
X382199D01*
X381999Y183400D01*
X540700Y414600D02*
X540500Y414800D01*
X540100D01*
X539900Y414600D01*
Y413800D01*
X540100Y413600D01*
X540500D01*
X540700Y413800D01*
X541100Y413600D02*
Y414800D01*
X541899Y413600D01*
Y414800D01*
X542299Y413600D02*
X542699D01*
X542499D01*
Y414800D01*
X542299Y414600D01*
X544099Y413600D02*
X543299D01*
X544099Y414400D01*
Y414600D01*
X543899Y414800D01*
X543499D01*
X543299Y414600D01*
X470200D02*
X470000Y414800D01*
X469600D01*
X469400Y414600D01*
Y413800D01*
X469600Y413600D01*
X470000D01*
X470200Y413800D01*
X470600Y413600D02*
Y414800D01*
X471399Y413600D01*
Y414800D01*
X471799Y413600D02*
X472199D01*
X471999D01*
Y414800D01*
X471799Y414600D01*
X472799Y413600D02*
X473199D01*
X472999D01*
Y414800D01*
X472799Y414600D01*
X420200Y184200D02*
X420000Y184400D01*
X419600D01*
X419400Y184200D01*
Y183400D01*
X419600Y183200D01*
X420000D01*
X420200Y183400D01*
X420600Y183200D02*
Y184400D01*
X421399Y183200D01*
Y184400D01*
X421799Y183200D02*
X422199D01*
X421999D01*
Y184400D01*
X421799Y184200D01*
X422799D02*
X422999Y184400D01*
X423399D01*
X423599Y184200D01*
Y183400D01*
X423399Y183200D01*
X422999D01*
X422799Y183400D01*
Y184200D01*
X303600Y183200D02*
X303400Y183400D01*
X303000D01*
X302800Y183200D01*
Y182400D01*
X303000Y182200D01*
X303400D01*
X303600Y182400D01*
X304000Y182200D02*
Y183400D01*
X304799Y182200D01*
Y183400D01*
X305199Y182400D02*
X305399Y182200D01*
X305799D01*
X305999Y182400D01*
Y183200D01*
X305799Y183400D01*
X305399D01*
X305199Y183200D01*
Y183000D01*
X305399Y182800D01*
X305999D01*
X580000Y178100D02*
X579800Y178300D01*
X579400D01*
X579200Y178100D01*
Y177300D01*
X579400Y177100D01*
X579800D01*
X580000Y177300D01*
X580400Y177100D02*
Y178300D01*
X581199Y177100D01*
Y178300D01*
X581599Y178100D02*
X581799Y178300D01*
X582199D01*
X582399Y178100D01*
Y177900D01*
X582199Y177700D01*
X582399Y177500D01*
Y177300D01*
X582199Y177100D01*
X581799D01*
X581599Y177300D01*
Y177500D01*
X581799Y177700D01*
X581599Y177900D01*
Y178100D01*
X581799Y177700D02*
X582199D01*
X399900Y447100D02*
X399700Y447300D01*
X399300D01*
X399100Y447100D01*
Y446300D01*
X399300Y446100D01*
X399700D01*
X399900Y446300D01*
X400300Y446100D02*
Y447300D01*
X401099Y446100D01*
Y447300D01*
X401499D02*
X402299D01*
Y447100D01*
X401499Y446300D01*
Y446100D01*
X400200Y414600D02*
X400000Y414800D01*
X399600D01*
X399400Y414600D01*
Y413800D01*
X399600Y413600D01*
X400000D01*
X400200Y413800D01*
X400600Y413600D02*
Y414800D01*
X401399Y413600D01*
Y414800D01*
X402599D02*
X402199Y414600D01*
X401799Y414200D01*
Y413800D01*
X401999Y413600D01*
X402399D01*
X402599Y413800D01*
Y414000D01*
X402399Y414200D01*
X401799D01*
X344100Y183200D02*
X343900Y183400D01*
X343500D01*
X343300Y183200D01*
Y182400D01*
X343500Y182200D01*
X343900D01*
X344100Y182400D01*
X344500Y182200D02*
Y183400D01*
X345299Y182200D01*
Y183400D01*
X346499D02*
X345699D01*
Y182800D01*
X346099Y183000D01*
X346299D01*
X346499Y182800D01*
Y182400D01*
X346299Y182200D01*
X345899D01*
X345699Y182400D01*
X580000Y208600D02*
X579800Y208800D01*
X579400D01*
X579200Y208600D01*
Y207800D01*
X579400Y207600D01*
X579800D01*
X580000Y207800D01*
X580400Y207600D02*
Y208800D01*
X581199Y207600D01*
Y208800D01*
X582199Y207600D02*
Y208800D01*
X581599Y208200D01*
X582399D01*
X262600Y183200D02*
X262400Y183400D01*
X262000D01*
X261800Y183200D01*
Y182400D01*
X262000Y182200D01*
X262400D01*
X262600Y182400D01*
X263000Y182200D02*
Y183400D01*
X263799Y182200D01*
Y183400D01*
X264199Y183200D02*
X264399Y183400D01*
X264799D01*
X264999Y183200D01*
Y183000D01*
X264799Y182800D01*
X264599D01*
X264799D01*
X264999Y182600D01*
Y182400D01*
X264799Y182200D01*
X264399D01*
X264199Y182400D01*
X330200Y414600D02*
X330000Y414800D01*
X329600D01*
X329400Y414600D01*
Y413800D01*
X329600Y413600D01*
X330000D01*
X330200Y413800D01*
X330600Y413600D02*
Y414800D01*
X331399Y413600D01*
Y414800D01*
X332599Y413600D02*
X331799D01*
X332599Y414400D01*
Y414600D01*
X332399Y414800D01*
X331999D01*
X331799Y414600D01*
X259900Y415100D02*
X259700Y415300D01*
X259300D01*
X259100Y415100D01*
Y414300D01*
X259300Y414100D01*
X259700D01*
X259900Y414300D01*
X260300Y414100D02*
Y415300D01*
X261099Y414100D01*
Y415300D01*
X261499Y414100D02*
X261899D01*
X261699D01*
Y415300D01*
X261499Y415100D01*
X548000Y218300D02*
X547800Y218500D01*
X547400D01*
X547200Y218300D01*
Y217500D01*
X547400Y217300D01*
X547800D01*
X548000Y217500D01*
X548400Y218500D02*
X549199D01*
Y218300D01*
X548400Y217500D01*
Y217300D01*
X549599Y218300D02*
X549799Y218500D01*
X550199D01*
X550399Y218300D01*
Y217500D01*
X550199Y217300D01*
X549799D01*
X549599Y217500D01*
Y218300D01*
X548000Y182200D02*
X547800Y182400D01*
X547400D01*
X547200Y182200D01*
Y181400D01*
X547400Y181200D01*
X547800D01*
X548000Y181400D01*
X549199Y182400D02*
X548800Y182200D01*
X548400Y181800D01*
Y181400D01*
X548599Y181200D01*
X548999D01*
X549199Y181400D01*
Y181600D01*
X548999Y181800D01*
X548400D01*
X549599Y181400D02*
X549799Y181200D01*
X550199D01*
X550399Y181400D01*
Y182200D01*
X550199Y182400D01*
X549799D01*
X549599Y182200D01*
Y182000D01*
X549799Y181800D01*
X550399D01*
X403100Y273300D02*
X402900Y273500D01*
X402500D01*
X402300Y273300D01*
Y272500D01*
X402500Y272300D01*
X402900D01*
X403100Y272500D01*
X404299Y273500D02*
X403899Y273300D01*
X403500Y272900D01*
Y272500D01*
X403699Y272300D01*
X404099D01*
X404299Y272500D01*
Y272700D01*
X404099Y272900D01*
X403500D01*
X404699Y273500D02*
X405499D01*
Y273300D01*
X404699Y272500D01*
Y272300D01*
X403100Y280100D02*
X402900Y280300D01*
X402500D01*
X402300Y280100D01*
Y279300D01*
X402500Y279100D01*
X402900D01*
X403100Y279300D01*
X404299Y280300D02*
X403899Y280100D01*
X403500Y279700D01*
Y279300D01*
X403699Y279100D01*
X404099D01*
X404299Y279300D01*
Y279500D01*
X404099Y279700D01*
X403500D01*
X405499Y280300D02*
X405099Y280100D01*
X404699Y279700D01*
Y279300D01*
X404899Y279100D01*
X405299D01*
X405499Y279300D01*
Y279500D01*
X405299Y279700D01*
X404699D01*
X489400Y321800D02*
X489200Y322000D01*
X488800D01*
X488600Y321800D01*
Y321000D01*
X488800Y320800D01*
X489200D01*
X489400Y321000D01*
X490599Y322000D02*
X490200Y321800D01*
X489800Y321400D01*
Y321000D01*
X489999Y320800D01*
X490399D01*
X490599Y321000D01*
Y321200D01*
X490399Y321400D01*
X489800D01*
X491799Y322000D02*
X490999D01*
Y321400D01*
X491399Y321600D01*
X491599D01*
X491799Y321400D01*
Y321000D01*
X491599Y320800D01*
X491199D01*
X490999Y321000D01*
X349400Y321900D02*
X349200Y322100D01*
X348800D01*
X348600Y321900D01*
Y321100D01*
X348800Y320900D01*
X349200D01*
X349400Y321100D01*
X350599Y322100D02*
X350200Y321900D01*
X349800Y321500D01*
Y321100D01*
X349999Y320900D01*
X350399D01*
X350599Y321100D01*
Y321300D01*
X350399Y321500D01*
X349800D01*
X351599Y320900D02*
Y322100D01*
X350999Y321500D01*
X351799D01*
X550900Y431000D02*
X550700Y431200D01*
X550300D01*
X550100Y431000D01*
Y430200D01*
X550300Y430000D01*
X550700D01*
X550900Y430200D01*
X552099Y431200D02*
X551699Y431000D01*
X551300Y430600D01*
Y430200D01*
X551500Y430000D01*
X551899D01*
X552099Y430200D01*
Y430400D01*
X551899Y430600D01*
X551300D01*
X552499Y431000D02*
X552699Y431200D01*
X553099D01*
X553299Y431000D01*
Y430800D01*
X553099Y430600D01*
X552899D01*
X553099D01*
X553299Y430400D01*
Y430200D01*
X553099Y430000D01*
X552699D01*
X552499Y430200D01*
X560900Y431000D02*
X560700Y431200D01*
X560300D01*
X560100Y431000D01*
Y430200D01*
X560300Y430000D01*
X560700D01*
X560900Y430200D01*
X562099Y431200D02*
X561699Y431000D01*
X561300Y430600D01*
Y430200D01*
X561500Y430000D01*
X561899D01*
X562099Y430200D01*
Y430400D01*
X561899Y430600D01*
X561300D01*
X563299Y430000D02*
X562499D01*
X563299Y430800D01*
Y431000D01*
X563099Y431200D01*
X562699D01*
X562499Y431000D01*
X480900D02*
X480700Y431200D01*
X480300D01*
X480100Y431000D01*
Y430200D01*
X480300Y430000D01*
X480700D01*
X480900Y430200D01*
X482099Y431200D02*
X481700Y431000D01*
X481300Y430600D01*
Y430200D01*
X481499Y430000D01*
X481899D01*
X482099Y430200D01*
Y430400D01*
X481899Y430600D01*
X481300D01*
X482499Y430000D02*
X482899D01*
X482699D01*
Y431200D01*
X482499Y431000D01*
X490900D02*
X490700Y431200D01*
X490300D01*
X490100Y431000D01*
Y430200D01*
X490300Y430000D01*
X490700D01*
X490900Y430200D01*
X492099Y431200D02*
X491700Y431000D01*
X491300Y430600D01*
Y430200D01*
X491500Y430000D01*
X491899D01*
X492099Y430200D01*
Y430400D01*
X491899Y430600D01*
X491300D01*
X492499Y431000D02*
X492699Y431200D01*
X493099D01*
X493299Y431000D01*
Y430200D01*
X493099Y430000D01*
X492699D01*
X492499Y430200D01*
Y431000D01*
X390400Y404300D02*
X390200Y404500D01*
X389800D01*
X389600Y404300D01*
Y403500D01*
X389800Y403300D01*
X390200D01*
X390400Y403500D01*
X391599Y404500D02*
X390800D01*
Y403900D01*
X391199Y404100D01*
X391399D01*
X391599Y403900D01*
Y403500D01*
X391399Y403300D01*
X391000D01*
X390800Y403500D01*
X391999D02*
X392199Y403300D01*
X392599D01*
X392799Y403500D01*
Y404300D01*
X392599Y404500D01*
X392199D01*
X391999Y404300D01*
Y404100D01*
X392199Y403900D01*
X392799D01*
X390400Y438300D02*
X390200Y438500D01*
X389800D01*
X389600Y438300D01*
Y437500D01*
X389800Y437300D01*
X390200D01*
X390400Y437500D01*
X391599Y438500D02*
X390800D01*
Y437900D01*
X391199Y438100D01*
X391399D01*
X391599Y437900D01*
Y437500D01*
X391399Y437300D01*
X391000D01*
X390800Y437500D01*
X391999Y438300D02*
X392199Y438500D01*
X392599D01*
X392799Y438300D01*
Y438100D01*
X392599Y437900D01*
X392799Y437700D01*
Y437500D01*
X392599Y437300D01*
X392199D01*
X391999Y437500D01*
Y437700D01*
X392199Y437900D01*
X391999Y438100D01*
Y438300D01*
X392199Y437900D02*
X392599D01*
X340900Y431000D02*
X340700Y431200D01*
X340300D01*
X340100Y431000D01*
Y430200D01*
X340300Y430000D01*
X340700D01*
X340900Y430200D01*
X342099Y431200D02*
X341300D01*
Y430600D01*
X341700Y430800D01*
X341899D01*
X342099Y430600D01*
Y430200D01*
X341899Y430000D01*
X341499D01*
X341300Y430200D01*
X342499Y431200D02*
X343299D01*
Y431000D01*
X342499Y430200D01*
Y430000D01*
X350900Y431000D02*
X350700Y431200D01*
X350300D01*
X350100Y431000D01*
Y430200D01*
X350300Y430000D01*
X350700D01*
X350900Y430200D01*
X352099Y431200D02*
X351300D01*
Y430600D01*
X351699Y430800D01*
X351899D01*
X352099Y430600D01*
Y430200D01*
X351899Y430000D01*
X351500D01*
X351300Y430200D01*
X353299Y431200D02*
X352899Y431000D01*
X352499Y430600D01*
Y430200D01*
X352699Y430000D01*
X353099D01*
X353299Y430200D01*
Y430400D01*
X353099Y430600D01*
X352499D01*
X270900Y431000D02*
X270700Y431200D01*
X270300D01*
X270100Y431000D01*
Y430200D01*
X270300Y430000D01*
X270700D01*
X270900Y430200D01*
X272099Y431200D02*
X271300D01*
Y430600D01*
X271700Y430800D01*
X271899D01*
X272099Y430600D01*
Y430200D01*
X271899Y430000D01*
X271499D01*
X271300Y430200D01*
X273299Y431200D02*
X272499D01*
Y430600D01*
X272899Y430800D01*
X273099D01*
X273299Y430600D01*
Y430200D01*
X273099Y430000D01*
X272699D01*
X272499Y430200D01*
X280900Y431000D02*
X280700Y431200D01*
X280300D01*
X280100Y431000D01*
Y430200D01*
X280300Y430000D01*
X280700D01*
X280900Y430200D01*
X282099Y431200D02*
X281300D01*
Y430600D01*
X281699Y430800D01*
X281899D01*
X282099Y430600D01*
Y430200D01*
X281899Y430000D01*
X281500D01*
X281300Y430200D01*
X283099Y430000D02*
Y431200D01*
X282499Y430600D01*
X283299D01*
X518900Y321700D02*
X518700Y321900D01*
X518300D01*
X518100Y321700D01*
Y320900D01*
X518300Y320700D01*
X518700D01*
X518900Y320900D01*
X520099Y321900D02*
X519300D01*
Y321300D01*
X519699Y321500D01*
X519899D01*
X520099Y321300D01*
Y320900D01*
X519899Y320700D01*
X519499D01*
X519300Y320900D01*
X520499Y321700D02*
X520699Y321900D01*
X521099D01*
X521299Y321700D01*
Y321500D01*
X521099Y321300D01*
X520899D01*
X521099D01*
X521299Y321100D01*
Y320900D01*
X521099Y320700D01*
X520699D01*
X520499Y320900D01*
X373100Y306858D02*
X372900Y306658D01*
Y306258D01*
X373100Y306058D01*
X373900D01*
X374100Y306258D01*
Y306658D01*
X373900Y306858D01*
X372900Y308057D02*
Y307258D01*
X373500D01*
X373300Y307658D01*
Y307857D01*
X373500Y308057D01*
X373900D01*
X374100Y307857D01*
Y307457D01*
X373900Y307258D01*
X374100Y309257D02*
Y308457D01*
X373300Y309257D01*
X373100D01*
X372900Y309057D01*
Y308657D01*
X373100Y308457D01*
X467400Y337849D02*
X467200Y338049D01*
X466800D01*
X466601Y337849D01*
Y337049D01*
X466800Y336849D01*
X467200D01*
X467400Y337049D01*
X468600Y338049D02*
X467800D01*
Y337449D01*
X468200Y337649D01*
X468400D01*
X468600Y337449D01*
Y337049D01*
X468400Y336849D01*
X468000D01*
X467800Y337049D01*
X469000Y336849D02*
X469399D01*
X469200D01*
Y338049D01*
X469000Y337849D01*
X330649Y323412D02*
X330449Y323612D01*
X330049D01*
X329849Y323412D01*
Y322612D01*
X330049Y322412D01*
X330449D01*
X330649Y322612D01*
X331849Y323612D02*
X331049D01*
Y323012D01*
X331449Y323212D01*
X331649D01*
X331849Y323012D01*
Y322612D01*
X331649Y322412D01*
X331249D01*
X331049Y322612D01*
X332249Y323412D02*
X332449Y323612D01*
X332848D01*
X333048Y323412D01*
Y322612D01*
X332848Y322412D01*
X332449D01*
X332249Y322612D01*
Y323412D01*
X483700Y336849D02*
X483500Y337049D01*
X483101D01*
X482900Y336849D01*
Y336049D01*
X483101Y335849D01*
X483500D01*
X483700Y336049D01*
X484700Y335849D02*
Y337049D01*
X484100Y336449D01*
X484900D01*
X485300Y336049D02*
X485500Y335849D01*
X485899D01*
X486099Y336049D01*
Y336849D01*
X485899Y337049D01*
X485500D01*
X485300Y336849D01*
Y336649D01*
X485500Y336449D01*
X486099D01*
X338649Y322412D02*
X338449Y322612D01*
X338049D01*
X337849Y322412D01*
Y321612D01*
X338049Y321412D01*
X338449D01*
X338649Y321612D01*
X339649Y321412D02*
Y322612D01*
X339049Y322012D01*
X339849D01*
X340249Y322412D02*
X340448Y322612D01*
X340848D01*
X341048Y322412D01*
Y322212D01*
X340848Y322012D01*
X341048Y321812D01*
Y321612D01*
X340848Y321412D01*
X340448D01*
X340249Y321612D01*
Y321812D01*
X340448Y322012D01*
X340249Y322212D01*
Y322412D01*
X340448Y322012D02*
X340848D01*
X580900Y431000D02*
X580700Y431200D01*
X580300D01*
X580100Y431000D01*
Y430200D01*
X580300Y430000D01*
X580700D01*
X580900Y430200D01*
X581899Y430000D02*
Y431200D01*
X581300Y430600D01*
X582099D01*
X582499Y431200D02*
X583299D01*
Y431000D01*
X582499Y430200D01*
Y430000D01*
X570900Y431000D02*
X570700Y431200D01*
X570300D01*
X570100Y431000D01*
Y430200D01*
X570300Y430000D01*
X570700D01*
X570900Y430200D01*
X571899Y430000D02*
Y431200D01*
X571300Y430600D01*
X572099D01*
X573299Y431200D02*
X572899Y431000D01*
X572499Y430600D01*
Y430200D01*
X572699Y430000D01*
X573099D01*
X573299Y430200D01*
Y430400D01*
X573099Y430600D01*
X572499D01*
X510900Y431000D02*
X510700Y431200D01*
X510300D01*
X510100Y431000D01*
Y430200D01*
X510300Y430000D01*
X510700D01*
X510900Y430200D01*
X511899Y430000D02*
Y431200D01*
X511300Y430600D01*
X512099D01*
X513299Y431200D02*
X512499D01*
Y430600D01*
X512899Y430800D01*
X513099D01*
X513299Y430600D01*
Y430200D01*
X513099Y430000D01*
X512699D01*
X512499Y430200D01*
X500900Y431000D02*
X500700Y431200D01*
X500300D01*
X500100Y431000D01*
Y430200D01*
X500300Y430000D01*
X500700D01*
X500900Y430200D01*
X501899Y430000D02*
Y431200D01*
X501300Y430600D01*
X502099D01*
X503099Y430000D02*
Y431200D01*
X502499Y430600D01*
X503299D01*
X460900Y404300D02*
X460700Y404500D01*
X460300D01*
X460100Y404300D01*
Y403500D01*
X460300Y403300D01*
X460700D01*
X460900Y403500D01*
X461899Y403300D02*
Y404500D01*
X461300Y403900D01*
X462099D01*
X462499Y404300D02*
X462699Y404500D01*
X463099D01*
X463299Y404300D01*
Y404100D01*
X463099Y403900D01*
X462899D01*
X463099D01*
X463299Y403700D01*
Y403500D01*
X463099Y403300D01*
X462699D01*
X462499Y403500D01*
X460900Y438500D02*
X460700Y438700D01*
X460300D01*
X460100Y438500D01*
Y437700D01*
X460300Y437500D01*
X460700D01*
X460900Y437700D01*
X461899Y437500D02*
Y438700D01*
X461300Y438100D01*
X462099D01*
X463299Y437500D02*
X462499D01*
X463299Y438300D01*
Y438500D01*
X463099Y438700D01*
X462699D01*
X462499Y438500D01*
X370400Y431200D02*
X370200Y431400D01*
X369800D01*
X369600Y431200D01*
Y430400D01*
X369800Y430200D01*
X370200D01*
X370400Y430400D01*
X371399Y430200D02*
Y431400D01*
X370800Y430800D01*
X371599D01*
X371999Y430200D02*
X372399D01*
X372199D01*
Y431400D01*
X371999Y431200D01*
X360400Y431000D02*
X360200Y431200D01*
X359800D01*
X359600Y431000D01*
Y430200D01*
X359800Y430000D01*
X360200D01*
X360400Y430200D01*
X361399Y430000D02*
Y431200D01*
X360800Y430600D01*
X361599D01*
X361999Y431000D02*
X362199Y431200D01*
X362599D01*
X362799Y431000D01*
Y430200D01*
X362599Y430000D01*
X362199D01*
X361999Y430200D01*
Y431000D01*
X300400D02*
X300200Y431200D01*
X299800D01*
X299600Y431000D01*
Y430200D01*
X299800Y430000D01*
X300200D01*
X300400Y430200D01*
X300800Y431000D02*
X300999Y431200D01*
X301399D01*
X301599Y431000D01*
Y430800D01*
X301399Y430600D01*
X301200D01*
X301399D01*
X301599Y430400D01*
Y430200D01*
X301399Y430000D01*
X300999D01*
X300800Y430200D01*
X301999D02*
X302199Y430000D01*
X302599D01*
X302799Y430200D01*
Y431000D01*
X302599Y431200D01*
X302199D01*
X301999Y431000D01*
Y430800D01*
X302199Y430600D01*
X302799D01*
X290900Y431000D02*
X290700Y431200D01*
X290300D01*
X290100Y431000D01*
Y430200D01*
X290300Y430000D01*
X290700D01*
X290900Y430200D01*
X291300Y431000D02*
X291499Y431200D01*
X291899D01*
X292099Y431000D01*
Y430800D01*
X291899Y430600D01*
X291700D01*
X291899D01*
X292099Y430400D01*
Y430200D01*
X291899Y430000D01*
X291499D01*
X291300Y430200D01*
X292499Y431000D02*
X292699Y431200D01*
X293099D01*
X293299Y431000D01*
Y430800D01*
X293099Y430600D01*
X293299Y430400D01*
Y430200D01*
X293099Y430000D01*
X292699D01*
X292499Y430200D01*
Y430400D01*
X292699Y430600D01*
X292499Y430800D01*
Y431000D01*
X292699Y430600D02*
X293099D01*
X507400Y371800D02*
X507200Y372000D01*
X506800D01*
X506600Y371800D01*
Y371000D01*
X506800Y370800D01*
X507200D01*
X507400Y371000D01*
X507800Y371800D02*
X508000Y372000D01*
X508399D01*
X508599Y371800D01*
Y371600D01*
X508399Y371400D01*
X508200D01*
X508399D01*
X508599Y371200D01*
Y371000D01*
X508399Y370800D01*
X508000D01*
X507800Y371000D01*
X508999Y372000D02*
X509799D01*
Y371800D01*
X508999Y371000D01*
Y370800D01*
X485400Y372000D02*
X485200Y372200D01*
X484800D01*
X484600Y372000D01*
Y371200D01*
X484800Y371000D01*
X485200D01*
X485400Y371200D01*
X485800Y372000D02*
X485999Y372200D01*
X486399D01*
X486599Y372000D01*
Y371800D01*
X486399Y371600D01*
X486200D01*
X486399D01*
X486599Y371400D01*
Y371200D01*
X486399Y371000D01*
X485999D01*
X485800Y371200D01*
X487799Y372200D02*
X487399Y372000D01*
X486999Y371600D01*
Y371200D01*
X487199Y371000D01*
X487599D01*
X487799Y371200D01*
Y371400D01*
X487599Y371600D01*
X486999D01*
X346149Y370912D02*
X345949Y371112D01*
X345549D01*
X345349Y370912D01*
Y370112D01*
X345549Y369912D01*
X345949D01*
X346149Y370112D01*
X346549Y370912D02*
X346749Y371112D01*
X347149D01*
X347349Y370912D01*
Y370712D01*
X347149Y370512D01*
X346949D01*
X347149D01*
X347349Y370312D01*
Y370112D01*
X347149Y369912D01*
X346749D01*
X346549Y370112D01*
X348348Y369912D02*
Y371112D01*
X347749Y370512D01*
X348548D01*
X369649Y370912D02*
X369449Y371112D01*
X369049D01*
X368849Y370912D01*
Y370112D01*
X369049Y369912D01*
X369449D01*
X369649Y370112D01*
X370049Y370912D02*
X370249Y371112D01*
X370649D01*
X370849Y370912D01*
Y370712D01*
X370649Y370512D01*
X370449D01*
X370649D01*
X370849Y370312D01*
Y370112D01*
X370649Y369912D01*
X370249D01*
X370049Y370112D01*
X372048Y371112D02*
X371249D01*
Y370512D01*
X371648Y370712D01*
X371848D01*
X372048Y370512D01*
Y370112D01*
X371848Y369912D01*
X371448D01*
X371249Y370112D01*
X470700Y360700D02*
X470500Y360900D01*
X470100D01*
X469900Y360700D01*
Y359900D01*
X470100Y359700D01*
X470500D01*
X470700Y359900D01*
X471100Y360700D02*
X471300Y360900D01*
X471699D01*
X471899Y360700D01*
Y360500D01*
X471699Y360300D01*
X471499D01*
X471699D01*
X471899Y360100D01*
Y359900D01*
X471699Y359700D01*
X471300D01*
X471100Y359900D01*
X472299Y360700D02*
X472499Y360900D01*
X472899D01*
X473099Y360700D01*
Y360500D01*
X472899Y360300D01*
X472699D01*
X472899D01*
X473099Y360100D01*
Y359900D01*
X472899Y359700D01*
X472499D01*
X472299Y359900D01*
X515700Y349849D02*
X515500Y350049D01*
X515100D01*
X514900Y349849D01*
Y349049D01*
X515100Y348849D01*
X515500D01*
X515700Y349049D01*
X516100Y349849D02*
X516300Y350049D01*
X516700D01*
X516900Y349849D01*
Y349649D01*
X516700Y349449D01*
X516500D01*
X516700D01*
X516900Y349249D01*
Y349049D01*
X516700Y348849D01*
X516300D01*
X516100Y349049D01*
X518099Y348849D02*
X517300D01*
X518099Y349649D01*
Y349849D01*
X517900Y350049D01*
X517500D01*
X517300Y349849D01*
X516700Y368200D02*
X516500Y368400D01*
X516100D01*
X515900Y368200D01*
Y367400D01*
X516100Y367200D01*
X516500D01*
X516700Y367400D01*
X517100Y368200D02*
X517300Y368400D01*
X517699D01*
X517899Y368200D01*
Y368000D01*
X517699Y367800D01*
X517499D01*
X517699D01*
X517899Y367600D01*
Y367400D01*
X517699Y367200D01*
X517300D01*
X517100Y367400D01*
X518299Y367200D02*
X518699D01*
X518499D01*
Y368400D01*
X518299Y368200D01*
X330149Y359912D02*
X329949Y360112D01*
X329549D01*
X329349Y359912D01*
Y359112D01*
X329549Y358912D01*
X329949D01*
X330149Y359112D01*
X330549Y359912D02*
X330749Y360112D01*
X331149D01*
X331349Y359912D01*
Y359712D01*
X331149Y359512D01*
X330949D01*
X331149D01*
X331349Y359312D01*
Y359112D01*
X331149Y358912D01*
X330749D01*
X330549Y359112D01*
X331749Y359912D02*
X331948Y360112D01*
X332348D01*
X332548Y359912D01*
Y359112D01*
X332348Y358912D01*
X331948D01*
X331749Y359112D01*
Y359912D01*
X377149Y349912D02*
X376949Y350112D01*
X376549D01*
X376349Y349912D01*
Y349112D01*
X376549Y348912D01*
X376949D01*
X377149Y349112D01*
X378349Y348912D02*
X377549D01*
X378349Y349712D01*
Y349912D01*
X378149Y350112D01*
X377749D01*
X377549Y349912D01*
X378749Y349112D02*
X378948Y348912D01*
X379348D01*
X379548Y349112D01*
Y349912D01*
X379348Y350112D01*
X378948D01*
X378749Y349912D01*
Y349712D01*
X378948Y349512D01*
X379548D01*
X382149Y366912D02*
X381949Y367112D01*
X381549D01*
X381349Y366912D01*
Y366112D01*
X381549Y365912D01*
X381949D01*
X382149Y366112D01*
X383349Y365912D02*
X382549D01*
X383349Y366712D01*
Y366912D01*
X383149Y367112D01*
X382749D01*
X382549Y366912D01*
X383749D02*
X383948Y367112D01*
X384348D01*
X384548Y366912D01*
Y366712D01*
X384348Y366512D01*
X384548Y366312D01*
Y366112D01*
X384348Y365912D01*
X383948D01*
X383749Y366112D01*
Y366312D01*
X383948Y366512D01*
X383749Y366712D01*
Y366912D01*
X383948Y366512D02*
X384348D01*
X559400Y321800D02*
X559200Y322000D01*
X558800D01*
X558600Y321800D01*
Y321000D01*
X558800Y320800D01*
X559200D01*
X559400Y321000D01*
X560599Y320800D02*
X559800D01*
X560599Y321600D01*
Y321800D01*
X560399Y322000D01*
X560000D01*
X559800Y321800D01*
X560999Y322000D02*
X561799D01*
Y321800D01*
X560999Y321000D01*
Y320800D01*
X419400Y321800D02*
X419200Y322000D01*
X418800D01*
X418600Y321800D01*
Y321000D01*
X418800Y320800D01*
X419200D01*
X419400Y321000D01*
X420599Y320800D02*
X419800D01*
X420599Y321600D01*
Y321800D01*
X420399Y322000D01*
X420000D01*
X419800Y321800D01*
X421799Y322000D02*
X420999D01*
Y321400D01*
X421399Y321600D01*
X421599D01*
X421799Y321400D01*
Y321000D01*
X421599Y320800D01*
X421199D01*
X420999Y321000D01*
X588900Y321800D02*
X588700Y322000D01*
X588300D01*
X588100Y321800D01*
Y321000D01*
X588300Y320800D01*
X588700D01*
X588900Y321000D01*
X590099Y320800D02*
X589300D01*
X590099Y321600D01*
Y321800D01*
X589899Y322000D01*
X589500D01*
X589300Y321800D01*
X591099Y320800D02*
Y322000D01*
X590499Y321400D01*
X591299D01*
X537200Y337849D02*
X537000Y338049D01*
X536600D01*
X536401Y337849D01*
Y337049D01*
X536600Y336849D01*
X537000D01*
X537200Y337049D01*
X538400Y336849D02*
X537600D01*
X538400Y337649D01*
Y337849D01*
X538200Y338049D01*
X537800D01*
X537600Y337849D01*
X538800D02*
X539000Y338049D01*
X539399D01*
X539600Y337849D01*
Y337649D01*
X539399Y337449D01*
X539200D01*
X539399D01*
X539600Y337249D01*
Y337049D01*
X539399Y336849D01*
X539000D01*
X538800Y337049D01*
X448900Y321700D02*
X448700Y321900D01*
X448300D01*
X448100Y321700D01*
Y320900D01*
X448300Y320700D01*
X448700D01*
X448900Y320900D01*
X450099Y320700D02*
X449300D01*
X450099Y321500D01*
Y321700D01*
X449899Y321900D01*
X449500D01*
X449300Y321700D01*
X451299Y320700D02*
X450499D01*
X451299Y321500D01*
Y321700D01*
X451099Y321900D01*
X450699D01*
X450499Y321700D01*
X308400Y321500D02*
X308200Y321700D01*
X307800D01*
X307600Y321500D01*
Y320700D01*
X307800Y320500D01*
X308200D01*
X308400Y320700D01*
X309599Y320500D02*
X308800D01*
X309599Y321300D01*
Y321500D01*
X309399Y321700D01*
X308999D01*
X308800Y321500D01*
X309999Y320500D02*
X310399D01*
X310199D01*
Y321700D01*
X309999Y321500D01*
X397149Y337880D02*
X396949Y338080D01*
X396549D01*
X396349Y337880D01*
Y337080D01*
X396549Y336880D01*
X396949D01*
X397149Y337080D01*
X398349Y336880D02*
X397549D01*
X398349Y337680D01*
Y337880D01*
X398149Y338080D01*
X397749D01*
X397549Y337880D01*
X398749D02*
X398949Y338080D01*
X399348D01*
X399548Y337880D01*
Y337080D01*
X399348Y336880D01*
X398949D01*
X398749Y337080D01*
Y337880D01*
X553800Y335849D02*
X553600Y336049D01*
X553200D01*
X553000Y335849D01*
Y335049D01*
X553200Y334849D01*
X553600D01*
X553800Y335049D01*
X554200Y334849D02*
X554600D01*
X554400D01*
Y336049D01*
X554200Y335849D01*
X555200D02*
X555400Y336049D01*
X555800D01*
X556000Y335849D01*
Y335649D01*
X555800Y335449D01*
X556000Y335249D01*
Y335049D01*
X555800Y334849D01*
X555400D01*
X555200Y335049D01*
Y335249D01*
X555400Y335449D01*
X555200Y335649D01*
Y335849D01*
X555400Y335449D02*
X555800D01*
X413749Y336380D02*
X413549Y336580D01*
X413149D01*
X412949Y336380D01*
Y335580D01*
X413149Y335381D01*
X413549D01*
X413749Y335580D01*
X414149Y335381D02*
X414549D01*
X414349D01*
Y336580D01*
X414149Y336380D01*
X415149Y336580D02*
X415948D01*
Y336380D01*
X415149Y335580D01*
Y335381D01*
X577400Y371800D02*
X577200Y372000D01*
X576800D01*
X576600Y371800D01*
Y371000D01*
X576800Y370800D01*
X577200D01*
X577400Y371000D01*
X577800Y370800D02*
X578199D01*
X577999D01*
Y372000D01*
X577800Y371800D01*
X579599Y372000D02*
X578799D01*
Y371400D01*
X579199Y371600D01*
X579399D01*
X579599Y371400D01*
Y371000D01*
X579399Y370800D01*
X578999D01*
X578799Y371000D01*
X555400Y372000D02*
X555200Y372200D01*
X554800D01*
X554600Y372000D01*
Y371200D01*
X554800Y371000D01*
X555200D01*
X555400Y371200D01*
X555800Y371000D02*
X556200D01*
X556000D01*
Y372200D01*
X555800Y372000D01*
X557399Y371000D02*
Y372200D01*
X556799Y371600D01*
X557599D01*
X540700Y360700D02*
X540500Y360900D01*
X540100D01*
X539900Y360700D01*
Y359900D01*
X540100Y359700D01*
X540500D01*
X540700Y359900D01*
X541100Y359700D02*
X541500D01*
X541299D01*
Y360900D01*
X541100Y360700D01*
X542099D02*
X542299Y360900D01*
X542699D01*
X542899Y360700D01*
Y360500D01*
X542699Y360300D01*
X542499D01*
X542699D01*
X542899Y360100D01*
Y359900D01*
X542699Y359700D01*
X542299D01*
X542099Y359900D01*
X586300Y349849D02*
X586100Y350049D01*
X585700D01*
X585500Y349849D01*
Y349049D01*
X585700Y348849D01*
X586100D01*
X586300Y349049D01*
X586700Y348849D02*
X587100D01*
X586900D01*
Y350049D01*
X586700Y349849D01*
X588499Y348849D02*
X587700D01*
X588499Y349649D01*
Y349849D01*
X588300Y350049D01*
X587900D01*
X587700Y349849D01*
X586700Y368200D02*
X586500Y368400D01*
X586100D01*
X585900Y368200D01*
Y367400D01*
X586100Y367200D01*
X586500D01*
X586700Y367400D01*
X587100Y367200D02*
X587500D01*
X587299D01*
Y368400D01*
X587100Y368200D01*
X588099Y367200D02*
X588499D01*
X588299D01*
Y368400D01*
X588099Y368200D01*
X437400Y371800D02*
X437200Y372000D01*
X436800D01*
X436600Y371800D01*
Y371000D01*
X436800Y370800D01*
X437200D01*
X437400Y371000D01*
X437800Y370800D02*
X438200D01*
X437999D01*
Y372000D01*
X437800Y371800D01*
X438799D02*
X438999Y372000D01*
X439399D01*
X439599Y371800D01*
Y371000D01*
X439399Y370800D01*
X438999D01*
X438799Y371000D01*
Y371800D01*
X415400Y372000D02*
X415200Y372200D01*
X414800D01*
X414600Y372000D01*
Y371200D01*
X414800Y371000D01*
X415200D01*
X415400Y371200D01*
X415800D02*
X416000Y371000D01*
X416399D01*
X416599Y371200D01*
Y372000D01*
X416399Y372200D01*
X416000D01*
X415800Y372000D01*
Y371800D01*
X416000Y371600D01*
X416599D01*
X400600Y360700D02*
X400400Y360900D01*
X400000D01*
X399800Y360700D01*
Y359900D01*
X400000Y359700D01*
X400400D01*
X400600Y359900D01*
X401799Y360900D02*
X401400Y360700D01*
X401000Y360300D01*
Y359900D01*
X401199Y359700D01*
X401599D01*
X401799Y359900D01*
Y360100D01*
X401599Y360300D01*
X401000D01*
X443749Y354880D02*
X443549Y355080D01*
X443149D01*
X442949Y354880D01*
Y354080D01*
X443149Y353881D01*
X443549D01*
X443749Y354080D01*
X444948Y355080D02*
X444149D01*
Y354480D01*
X444549Y354680D01*
X444749D01*
X444948Y354480D01*
Y354080D01*
X444749Y353881D01*
X444349D01*
X444149Y354080D01*
X446600Y368200D02*
X446400Y368400D01*
X446000D01*
X445800Y368200D01*
Y367400D01*
X446000Y367200D01*
X446400D01*
X446600Y367400D01*
X447799Y367200D02*
X447000D01*
X447799Y368000D01*
Y368200D01*
X447599Y368400D01*
X447199D01*
X447000Y368200D01*
M02*
