M48
;Layer_Color=9474304
;FILE_FORMAT=2:5
INCH,TZ
;TYPE=PLATED
T1F00S00C0.01181
T2F00S00C0.02800
T3F00S00C0.03937
T4F00S00C0.04134
T5F00S00C0.04331
T6F00S00C0.12000
;TYPE=NON_PLATED
T7F00S00C0.05118
%
T01
X546400Y172500
X567600Y208600
X569000Y240669
Y244531
X569600Y248393
X569700Y252256
X572100Y250300
X572200Y254200
X572069Y246305
X571500Y242443
X586954Y257740
X586500Y261300
X578400Y304200
X556600Y285400
X540500Y281900
X504800Y285600
X497700Y283600
X495000Y281000
X495396Y277096
X488900Y293100
X508900Y305200
X414873Y304573
X411823Y307623
X394600Y304200
X345200Y304300
X255200Y267600
X255100Y333000
X273561Y339937
X272600Y343500
X267700Y350200
X273200Y354600
X282100Y350200
X286000Y353800
X290000Y353700
X293900Y350200
X301500Y353900
X308300Y350200
X306200Y343500
X302900Y337900
X302800Y332026
X302321Y414057
X292700Y413700
X282800Y413300
X272800Y414300
X343000Y412400
X352900Y412900
X362600Y413300
X372500Y412900
X398600Y398100
X400800Y436400
X455251Y437139
X456753Y397906
X461800Y350200
X464900Y343500
X447800
X445800Y338000
X444400Y332057
X448900Y350200
X442600Y353631
X434400Y350200
X430500Y353900
X426600Y354000
X422581Y350200
X413800Y354300
X408100Y350100
X393200Y350300
X396400Y343500
X378200
X378842Y350206
X372156Y353941
X364400Y350300
X360400Y353700
X356500
X352500Y350200
X343200Y353800
X338100Y350200
X322800
X326600Y343500
X343800Y339900
X374800Y337800
X374600Y332089
X414000Y339968
X483880Y339880
X484092Y353960
X478200Y350200
X492600Y350100
X496500Y353800
X500400Y353700
X504400Y350200
X512500Y353900
X518810Y350070
X517500Y343400
X515200Y337900
X513300Y332100
X536500Y343500
X533400Y350200
X548200Y350000
X553900Y353900
X562600Y350100
X566500Y354000
X570500
X574400Y350000
X582600Y350200
X579826Y354081
X583000Y337900
X588431Y332026
X600400Y315400
X553911Y339895
X553000Y413000
X563400Y413300
X573122Y413590
X582900Y413400
X512700
X502663Y413433
X492900Y413500
X482939Y413795
T02
X575500Y155100
X529000Y196000
Y202500
Y209000
Y215000
X522500
Y209000
X516000
Y215000
X509500
Y209000
Y202500
X516000
X522500
Y196000
X516000
X509500
X488500
Y202500
Y209000
Y215000
X482000
Y209000
X475500
Y215000
X469000
Y209000
Y202500
Y196000
X475500
Y202500
X482000
Y196000
X557600Y269300
Y276500
X448000Y215000
Y209000
Y202500
Y196000
X441500
X435000
Y202500
X441500
Y209000
Y215000
X435000
Y209000
X428500
Y215000
Y202500
Y196000
X407000
X400500
X394000
Y202500
X400500
X407000
Y209000
Y215000
X400500
Y209000
X394000
Y215000
X387500
Y209000
Y202500
Y196000
X366500
X360000
X353500
Y202500
X360000
X366500
Y209000
Y215000
X360000
Y209000
X353500
Y215000
X347000
Y209000
Y202500
Y196000
X326000
X319500
X313000
Y202500
X319500
X326000
Y209000
Y215000
X319500
Y209000
X313000
Y215000
X306500
Y209000
Y202500
Y196000
X285000Y196500
X278500
X272000
Y203000
X278500
X285000
Y209500
Y215500
X278500
Y209500
X272000
Y215500
X265500
Y209500
Y203000
Y196500
X288000Y336000
X358449Y336063
X428449Y336032
X498500Y336000
X568500
T03
X272657Y398500
X282500
X292342
X302185
X343000Y398000
X352842
X362685
X372528
X413000
X422843
X432685
X442528
X442185Y430500
X432342
X422500
X412657
X483000Y398000
X492842
X502685
X512528
X553500
X563343
X573185
X583028
T04
X473658Y163500
X483500
X514000
X523842
X442842
X433000
X402000
X392158
T05
X594000Y156500
Y166500
Y187000
Y197000
X361500Y165000
X351500
X321000
X311000
X280000
X270000
T06
X474000Y275200
X267500Y296500
X322500Y438500
X533500
X599800Y338800
T07
X489799Y171374
X530142
X449142
X408299
M30
