G04*
G04 #@! TF.GenerationSoftware,Altium Limited,Altium Designer,23.3.1 (30)*
G04*
G04 Layer_Color=2752767*
%FSLAX25Y25*%
%MOIN*%
G70*
G04*
G04 #@! TF.SameCoordinates,A8F844DE-C0E2-4737-AB7E-767533C4F731*
G04*
G04*
G04 #@! TF.FilePolarity,Positive*
G04*
G01*
G75*
%ADD60C,0.00500*%
%ADD74C,0.00667*%
D60*
X581028Y396000D02*
X582028Y398000D01*
X581028Y400000D01*
X583028Y399000D01*
X585028Y400000D01*
X584028Y398000D01*
X585028Y396000D01*
X583028Y397000D01*
X581028Y396000D01*
X571185D02*
X572185Y398000D01*
X571185Y400000D01*
X573185Y399000D01*
X575185Y400000D01*
X574185Y398000D01*
X575185Y396000D01*
X573185Y397000D01*
X571185Y396000D01*
X561342D02*
X562343Y398000D01*
X561342Y400000D01*
X563343Y399000D01*
X565343Y400000D01*
X564342Y398000D01*
X565343Y396000D01*
X563343Y397000D01*
X561342Y396000D01*
X551500D02*
X552500Y398000D01*
X551500Y400000D01*
X553500Y399000D01*
X555500Y400000D01*
X554500Y398000D01*
X555500Y396000D01*
X553500Y397000D01*
X551500Y396000D01*
X481000D02*
X482000Y398000D01*
X481000Y400000D01*
X483000Y399000D01*
X485000Y400000D01*
X484000Y398000D01*
X485000Y396000D01*
X483000Y397000D01*
X481000Y396000D01*
X490842D02*
X491843Y398000D01*
X490842Y400000D01*
X492842Y399000D01*
X494842Y400000D01*
X493843Y398000D01*
X494842Y396000D01*
X492842Y397000D01*
X490842Y396000D01*
X500685D02*
X501685Y398000D01*
X500685Y400000D01*
X502685Y399000D01*
X504685Y400000D01*
X503685Y398000D01*
X504685Y396000D01*
X502685Y397000D01*
X500685Y396000D01*
X510528D02*
X511528Y398000D01*
X510528Y400000D01*
X512528Y399000D01*
X514528Y400000D01*
X513528Y398000D01*
X514528Y396000D01*
X512528Y397000D01*
X510528Y396000D01*
X410658Y428500D02*
X411657Y430500D01*
X410658Y432500D01*
X412657Y431500D01*
X414657Y432500D01*
X413658Y430500D01*
X414657Y428500D01*
X412657Y429500D01*
X410658Y428500D01*
X420500D02*
X421500Y430500D01*
X420500Y432500D01*
X422500Y431500D01*
X424500Y432500D01*
X423500Y430500D01*
X424500Y428500D01*
X422500Y429500D01*
X420500Y428500D01*
X430342D02*
X431343Y430500D01*
X430342Y432500D01*
X432342Y431500D01*
X434342Y432500D01*
X433343Y430500D01*
X434342Y428500D01*
X432342Y429500D01*
X430342Y428500D01*
X440185D02*
X441185Y430500D01*
X440185Y432500D01*
X442185Y431500D01*
X444185Y432500D01*
X443185Y430500D01*
X444185Y428500D01*
X442185Y429500D01*
X440185Y428500D01*
X411000Y396000D02*
X412000Y398000D01*
X411000Y400000D01*
X413000Y399000D01*
X415000Y400000D01*
X414000Y398000D01*
X415000Y396000D01*
X413000Y397000D01*
X411000Y396000D01*
X420843D02*
X421842Y398000D01*
X420843Y400000D01*
X422843Y399000D01*
X424843Y400000D01*
X423842Y398000D01*
X424843Y396000D01*
X422843Y397000D01*
X420843Y396000D01*
X430685D02*
X431685Y398000D01*
X430685Y400000D01*
X432685Y399000D01*
X434685Y400000D01*
X433685Y398000D01*
X434685Y396000D01*
X432685Y397000D01*
X430685Y396000D01*
X440528D02*
X441528Y398000D01*
X440528Y400000D01*
X442528Y399000D01*
X444528Y400000D01*
X443528Y398000D01*
X444528Y396000D01*
X442528Y397000D01*
X440528Y396000D01*
X341000D02*
X342000Y398000D01*
X341000Y400000D01*
X343000Y399000D01*
X345000Y400000D01*
X344000Y398000D01*
X345000Y396000D01*
X343000Y397000D01*
X341000Y396000D01*
X350842D02*
X351842Y398000D01*
X350842Y400000D01*
X352842Y399000D01*
X354842Y400000D01*
X353842Y398000D01*
X354842Y396000D01*
X352842Y397000D01*
X350842Y396000D01*
X360685D02*
X361685Y398000D01*
X360685Y400000D01*
X362685Y399000D01*
X364685Y400000D01*
X363685Y398000D01*
X364685Y396000D01*
X362685Y397000D01*
X360685Y396000D01*
X370528D02*
X371528Y398000D01*
X370528Y400000D01*
X372528Y399000D01*
X374528Y400000D01*
X373528Y398000D01*
X374528Y396000D01*
X372528Y397000D01*
X370528Y396000D01*
X270657Y396500D02*
X271657Y398500D01*
X270657Y400500D01*
X272657Y399500D01*
X274658Y400500D01*
X273657Y398500D01*
X274658Y396500D01*
X272657Y397500D01*
X270657Y396500D01*
X280500D02*
X281500Y398500D01*
X280500Y400500D01*
X282500Y399500D01*
X284500Y400500D01*
X283500Y398500D01*
X284500Y396500D01*
X282500Y397500D01*
X280500Y396500D01*
X290342D02*
X291342Y398500D01*
X290342Y400500D01*
X292342Y399500D01*
X294342Y400500D01*
X293342Y398500D01*
X294342Y396500D01*
X292342Y397500D01*
X290342Y396500D01*
X300185D02*
X301185Y398500D01*
X300185Y400500D01*
X302185Y399500D01*
X304185Y400500D01*
X303185Y398500D01*
X304185Y396500D01*
X302185Y397500D01*
X300185Y396500D01*
X489799Y169374D02*
X490799Y170374D01*
X491799D01*
X490799Y171374D01*
X491799Y172374D01*
X490799D01*
X489799Y173374D01*
X488799Y172374D01*
X487799D01*
X488799Y171374D01*
X487799Y170374D01*
X488799D01*
X489799Y169374D01*
X483500Y161500D02*
X481500Y165500D01*
X485500D01*
X483500Y161500D01*
X473658D02*
X471658Y165500D01*
X475658D01*
X473658Y161500D01*
X433000D02*
X431000Y165500D01*
X435000D01*
X433000Y161500D01*
X442842D02*
X440842Y165500D01*
X444842D01*
X442842Y161500D01*
X449142Y169374D02*
X450142Y170374D01*
X451142D01*
X450142Y171374D01*
X451142Y172374D01*
X450142D01*
X449142Y173374D01*
X448142Y172374D01*
X447142D01*
X448142Y171374D01*
X447142Y170374D01*
X448142D01*
X449142Y169374D01*
X392158Y161500D02*
X390158Y165500D01*
X394158D01*
X392158Y161500D01*
X402000D02*
X400000Y165500D01*
X404000D01*
X402000Y161500D01*
X408299Y169374D02*
X409299Y170374D01*
X410299D01*
X409299Y171374D01*
X410299Y172374D01*
X409299D01*
X408299Y173374D01*
X407299Y172374D01*
X406299D01*
X407299Y171374D01*
X406299Y170374D01*
X407299D01*
X408299Y169374D01*
X514000Y161500D02*
X512000Y165500D01*
X516000D01*
X514000Y161500D01*
X523842D02*
X521842Y165500D01*
X525843D01*
X523842Y161500D01*
X530142Y169374D02*
X531142Y170374D01*
X532142D01*
X531142Y171374D01*
X532142Y172374D01*
X531142D01*
X530142Y173374D01*
X529142Y172374D01*
X528142D01*
X529142Y171374D01*
X528142Y170374D01*
X529142D01*
X530142Y169374D01*
X555600Y274500D02*
Y278500D01*
X559600D01*
Y274500D01*
X555600D01*
Y267300D02*
Y271300D01*
X559600D01*
Y267300D01*
X555600D01*
X573500Y153100D02*
Y157100D01*
X577500D01*
Y153100D01*
X573500D01*
X534500Y341500D02*
X535500D01*
X536500Y342500D01*
X537500Y341500D01*
X538500D01*
Y342500D01*
X537500Y343500D01*
X538500Y344500D01*
Y345500D01*
X537500D01*
X536500Y344500D01*
X535500Y345500D01*
X534500D01*
Y344500D01*
X535500Y343500D01*
X534500Y342500D01*
Y341500D01*
X513200Y335900D02*
X514200D01*
X515200Y336900D01*
X516200Y335900D01*
X517200D01*
Y336900D01*
X516200Y337900D01*
X517200Y338900D01*
Y339900D01*
X516200D01*
X515200Y338900D01*
X514200Y339900D01*
X513200D01*
Y338900D01*
X514200Y337900D01*
X513200Y336900D01*
Y335900D01*
X394400Y341500D02*
X395400D01*
X396400Y342500D01*
X397400Y341500D01*
X398400D01*
Y342500D01*
X397400Y343500D01*
X398400Y344500D01*
Y345500D01*
X397400D01*
X396400Y344500D01*
X395400Y345500D01*
X394400D01*
Y344500D01*
X395400Y343500D01*
X394400Y342500D01*
Y341500D01*
X372800Y335800D02*
X373800D01*
X374800Y336800D01*
X375800Y335800D01*
X376800D01*
Y336800D01*
X375800Y337800D01*
X376800Y338800D01*
Y339800D01*
X375800D01*
X374800Y338800D01*
X373800Y339800D01*
X372800D01*
Y338800D01*
X373800Y337800D01*
X372800Y336800D01*
Y335800D01*
X286000Y334000D02*
Y338000D01*
X290000D01*
Y334000D01*
X286000D01*
X356449Y334063D02*
Y338063D01*
X360449D01*
Y334063D01*
X356449D01*
X426449Y334032D02*
Y338032D01*
X430449D01*
Y334032D01*
X426449D01*
X496500Y334000D02*
Y338000D01*
X500500D01*
Y334000D01*
X496500D01*
X566500D02*
Y338000D01*
X570500D01*
Y334000D01*
X566500D01*
X580900Y411400D02*
X581900D01*
X582900Y412400D01*
X583900Y411400D01*
X584900D01*
Y412400D01*
X583900Y413400D01*
X584900Y414400D01*
Y415400D01*
X583900D01*
X582900Y414400D01*
X581900Y415400D01*
X580900D01*
Y414400D01*
X581900Y413400D01*
X580900Y412400D01*
Y411400D01*
X580600Y348200D02*
X581600D01*
X582600Y349200D01*
X583600Y348200D01*
X584600D01*
Y349200D01*
X583600Y350200D01*
X584600Y351200D01*
Y352200D01*
X583600D01*
X582600Y351200D01*
X581600Y352200D01*
X580600D01*
Y351200D01*
X581600Y350200D01*
X580600Y349200D01*
Y348200D01*
X577826Y352081D02*
X578826D01*
X579826Y353081D01*
X580826Y352081D01*
X581826D01*
Y353081D01*
X580826Y354081D01*
X581826Y355081D01*
Y356081D01*
X580826D01*
X579826Y355081D01*
X578826Y356081D01*
X577826D01*
Y355081D01*
X578826Y354081D01*
X577826Y353081D01*
Y352081D01*
X571122Y411590D02*
X572122D01*
X573122Y412590D01*
X574122Y411590D01*
X575122D01*
Y412590D01*
X574122Y413590D01*
X575122Y414590D01*
Y415590D01*
X574122D01*
X573122Y414590D01*
X572122Y415590D01*
X571122D01*
Y414590D01*
X572122Y413590D01*
X571122Y412590D01*
Y411590D01*
X568500Y352000D02*
X569500D01*
X570500Y353000D01*
X571500Y352000D01*
X572500D01*
Y353000D01*
X571500Y354000D01*
X572500Y355000D01*
Y356000D01*
X571500D01*
X570500Y355000D01*
X569500Y356000D01*
X568500D01*
Y355000D01*
X569500Y354000D01*
X568500Y353000D01*
Y352000D01*
X561400Y411300D02*
X562400D01*
X563400Y412300D01*
X564400Y411300D01*
X565400D01*
Y412300D01*
X564400Y413300D01*
X565400Y414300D01*
Y415300D01*
X564400D01*
X563400Y414300D01*
X562400Y415300D01*
X561400D01*
Y414300D01*
X562400Y413300D01*
X561400Y412300D01*
Y411300D01*
X564500Y352000D02*
X565500D01*
X566500Y353000D01*
X567500Y352000D01*
X568500D01*
Y353000D01*
X567500Y354000D01*
X568500Y355000D01*
Y356000D01*
X567500D01*
X566500Y355000D01*
X565500Y356000D01*
X564500D01*
Y355000D01*
X565500Y354000D01*
X564500Y353000D01*
Y352000D01*
X551000Y411000D02*
X552000D01*
X553000Y412000D01*
X554000Y411000D01*
X555000D01*
Y412000D01*
X554000Y413000D01*
X555000Y414000D01*
Y415000D01*
X554000D01*
X553000Y414000D01*
X552000Y415000D01*
X551000D01*
Y414000D01*
X552000Y413000D01*
X551000Y412000D01*
Y411000D01*
X551900Y351900D02*
X552900D01*
X553900Y352900D01*
X554900Y351900D01*
X555900D01*
Y352900D01*
X554900Y353900D01*
X555900Y354900D01*
Y355900D01*
X554900D01*
X553900Y354900D01*
X552900Y355900D01*
X551900D01*
Y354900D01*
X552900Y353900D01*
X551900Y352900D01*
Y351900D01*
X510700Y411400D02*
X511700D01*
X512700Y412400D01*
X513700Y411400D01*
X514700D01*
Y412400D01*
X513700Y413400D01*
X514700Y414400D01*
Y415400D01*
X513700D01*
X512700Y414400D01*
X511700Y415400D01*
X510700D01*
Y414400D01*
X511700Y413400D01*
X510700Y412400D01*
Y411400D01*
X510500Y351900D02*
X511500D01*
X512500Y352900D01*
X513500Y351900D01*
X514500D01*
Y352900D01*
X513500Y353900D01*
X514500Y354900D01*
Y355900D01*
X513500D01*
X512500Y354900D01*
X511500Y355900D01*
X510500D01*
Y354900D01*
X511500Y353900D01*
X510500Y352900D01*
Y351900D01*
X500663Y411433D02*
X501663D01*
X502663Y412433D01*
X503663Y411433D01*
X504663D01*
Y412433D01*
X503663Y413433D01*
X504663Y414433D01*
Y415433D01*
X503663D01*
X502663Y414433D01*
X501663Y415433D01*
X500663D01*
Y414433D01*
X501663Y413433D01*
X500663Y412433D01*
Y411433D01*
X498400Y351700D02*
X499400D01*
X500400Y352700D01*
X501400Y351700D01*
X502400D01*
Y352700D01*
X501400Y353700D01*
X502400Y354700D01*
Y355700D01*
X501400D01*
X500400Y354700D01*
X499400Y355700D01*
X498400D01*
Y354700D01*
X499400Y353700D01*
X498400Y352700D01*
Y351700D01*
X490900Y411500D02*
X491900D01*
X492900Y412500D01*
X493900Y411500D01*
X494900D01*
Y412500D01*
X493900Y413500D01*
X494900Y414500D01*
Y415500D01*
X493900D01*
X492900Y414500D01*
X491900Y415500D01*
X490900D01*
Y414500D01*
X491900Y413500D01*
X490900Y412500D01*
Y411500D01*
X494500Y351800D02*
X495500D01*
X496500Y352800D01*
X497500Y351800D01*
X498500D01*
Y352800D01*
X497500Y353800D01*
X498500Y354800D01*
Y355800D01*
X497500D01*
X496500Y354800D01*
X495500Y355800D01*
X494500D01*
Y354800D01*
X495500Y353800D01*
X494500Y352800D01*
Y351800D01*
X480939Y411795D02*
X481939D01*
X482939Y412795D01*
X483939Y411795D01*
X484939D01*
Y412795D01*
X483939Y413795D01*
X484939Y414795D01*
Y415795D01*
X483939D01*
X482939Y414795D01*
X481939Y415795D01*
X480939D01*
Y414795D01*
X481939Y413795D01*
X480939Y412795D01*
Y411795D01*
X482092Y351960D02*
X483092D01*
X484092Y352960D01*
X485092Y351960D01*
X486092D01*
Y352960D01*
X485092Y353960D01*
X486092Y354960D01*
Y355960D01*
X485092D01*
X484092Y354960D01*
X483092Y355960D01*
X482092D01*
Y354960D01*
X483092Y353960D01*
X482092Y352960D01*
Y351960D01*
X454753Y395906D02*
X455753D01*
X456753Y396906D01*
X457753Y395906D01*
X458753D01*
Y396906D01*
X457753Y397906D01*
X458753Y398906D01*
Y399906D01*
X457753D01*
X456753Y398906D01*
X455753Y399906D01*
X454753D01*
Y398906D01*
X455753Y397906D01*
X454753Y396906D01*
Y395906D01*
X440600Y351631D02*
X441600D01*
X442600Y352631D01*
X443600Y351631D01*
X444600D01*
Y352631D01*
X443600Y353631D01*
X444600Y354631D01*
Y355631D01*
X443600D01*
X442600Y354631D01*
X441600Y355631D01*
X440600D01*
Y354631D01*
X441600Y353631D01*
X440600Y352631D01*
Y351631D01*
X453251Y435139D02*
X454251D01*
X455251Y436138D01*
X456251Y435139D01*
X457251D01*
Y436138D01*
X456251Y437139D01*
X457251Y438138D01*
Y439139D01*
X456251D01*
X455251Y438138D01*
X454251Y439139D01*
X453251D01*
Y438138D01*
X454251Y437139D01*
X453251Y436138D01*
Y435139D01*
X428500Y351900D02*
X429500D01*
X430500Y352900D01*
X431500Y351900D01*
X432500D01*
Y352900D01*
X431500Y353900D01*
X432500Y354900D01*
Y355900D01*
X431500D01*
X430500Y354900D01*
X429500Y355900D01*
X428500D01*
Y354900D01*
X429500Y353900D01*
X428500Y352900D01*
Y351900D01*
X398800Y434400D02*
X399800D01*
X400800Y435400D01*
X401800Y434400D01*
X402800D01*
Y435400D01*
X401800Y436400D01*
X402800Y437400D01*
Y438400D01*
X401800D01*
X400800Y437400D01*
X399800Y438400D01*
X398800D01*
Y437400D01*
X399800Y436400D01*
X398800Y435400D01*
Y434400D01*
X424600Y352000D02*
X425600D01*
X426600Y353000D01*
X427600Y352000D01*
X428600D01*
Y353000D01*
X427600Y354000D01*
X428600Y355000D01*
Y356000D01*
X427600D01*
X426600Y355000D01*
X425600Y356000D01*
X424600D01*
Y355000D01*
X425600Y354000D01*
X424600Y353000D01*
Y352000D01*
X396600Y396100D02*
X397600D01*
X398600Y397100D01*
X399600Y396100D01*
X400600D01*
Y397100D01*
X399600Y398100D01*
X400600Y399100D01*
Y400100D01*
X399600D01*
X398600Y399100D01*
X397600Y400100D01*
X396600D01*
Y399100D01*
X397600Y398100D01*
X396600Y397100D01*
Y396100D01*
X411800Y352300D02*
X412800D01*
X413800Y353300D01*
X414800Y352300D01*
X415800D01*
Y353300D01*
X414800Y354300D01*
X415800Y355300D01*
Y356300D01*
X414800D01*
X413800Y355300D01*
X412800Y356300D01*
X411800D01*
Y355300D01*
X412800Y354300D01*
X411800Y353300D01*
Y352300D01*
X412000Y337968D02*
X413000D01*
X414000Y338968D01*
X415000Y337968D01*
X416000D01*
Y338968D01*
X415000Y339968D01*
X416000Y340968D01*
Y341968D01*
X415000D01*
X414000Y340968D01*
X413000Y341968D01*
X412000D01*
Y340968D01*
X413000Y339968D01*
X412000Y338968D01*
Y337968D01*
X370500Y410900D02*
X371500D01*
X372500Y411900D01*
X373500Y410900D01*
X374500D01*
Y411900D01*
X373500Y412900D01*
X374500Y413900D01*
Y414900D01*
X373500D01*
X372500Y413900D01*
X371500Y414900D01*
X370500D01*
Y413900D01*
X371500Y412900D01*
X370500Y411900D01*
Y410900D01*
X370156Y351941D02*
X371156D01*
X372156Y352941D01*
X373156Y351941D01*
X374156D01*
Y352941D01*
X373156Y353941D01*
X374156Y354942D01*
Y355942D01*
X373156D01*
X372156Y354942D01*
X371156Y355942D01*
X370156D01*
Y354942D01*
X371156Y353941D01*
X370156Y352941D01*
Y351941D01*
X360600Y411300D02*
X361600D01*
X362600Y412300D01*
X363600Y411300D01*
X364600D01*
Y412300D01*
X363600Y413300D01*
X364600Y414300D01*
Y415300D01*
X363600D01*
X362600Y414300D01*
X361600Y415300D01*
X360600D01*
Y414300D01*
X361600Y413300D01*
X360600Y412300D01*
Y411300D01*
X358400Y351700D02*
X359400D01*
X360400Y352700D01*
X361400Y351700D01*
X362400D01*
Y352700D01*
X361400Y353700D01*
X362400Y354700D01*
Y355700D01*
X361400D01*
X360400Y354700D01*
X359400Y355700D01*
X358400D01*
Y354700D01*
X359400Y353700D01*
X358400Y352700D01*
Y351700D01*
X350900Y410900D02*
X351900D01*
X352900Y411900D01*
X353900Y410900D01*
X354900D01*
Y411900D01*
X353900Y412900D01*
X354900Y413900D01*
Y414900D01*
X353900D01*
X352900Y413900D01*
X351900Y414900D01*
X350900D01*
Y413900D01*
X351900Y412900D01*
X350900Y411900D01*
Y410900D01*
X354500Y351700D02*
X355500D01*
X356500Y352700D01*
X357500Y351700D01*
X358500D01*
Y352700D01*
X357500Y353700D01*
X358500Y354700D01*
Y355700D01*
X357500D01*
X356500Y354700D01*
X355500Y355700D01*
X354500D01*
Y354700D01*
X355500Y353700D01*
X354500Y352700D01*
Y351700D01*
X420581Y348200D02*
X421581D01*
X422581Y349200D01*
X423581Y348200D01*
X424581D01*
Y349200D01*
X423581Y350200D01*
X424581Y351200D01*
Y352200D01*
X423581D01*
X422581Y351200D01*
X421581Y352200D01*
X420581D01*
Y351200D01*
X421581Y350200D01*
X420581Y349200D01*
Y348200D01*
X341200Y351800D02*
X342200D01*
X343200Y352800D01*
X344200Y351800D01*
X345200D01*
Y352800D01*
X344200Y353800D01*
X345200Y354800D01*
Y355800D01*
X344200D01*
X343200Y354800D01*
X342200Y355800D01*
X341200D01*
Y354800D01*
X342200Y353800D01*
X341200Y352800D01*
Y351800D01*
X341000Y410400D02*
X342000D01*
X343000Y411400D01*
X344000Y410400D01*
X345000D01*
Y411400D01*
X344000Y412400D01*
X345000Y413400D01*
Y414400D01*
X344000D01*
X343000Y413400D01*
X342000Y414400D01*
X341000D01*
Y413400D01*
X342000Y412400D01*
X341000Y411400D01*
Y410400D01*
X300321Y412057D02*
X301321D01*
X302321Y413057D01*
X303321Y412057D01*
X304321D01*
Y413057D01*
X303321Y414057D01*
X304321Y415057D01*
Y416057D01*
X303321D01*
X302321Y415057D01*
X301321Y416057D01*
X300321D01*
Y415057D01*
X301321Y414057D01*
X300321Y413057D01*
Y412057D01*
X290700Y411700D02*
X291700D01*
X292700Y412700D01*
X293700Y411700D01*
X294700D01*
Y412700D01*
X293700Y413700D01*
X294700Y414700D01*
Y415700D01*
X293700D01*
X292700Y414700D01*
X291700Y415700D01*
X290700D01*
Y414700D01*
X291700Y413700D01*
X290700Y412700D01*
Y411700D01*
X280800Y411300D02*
X281800D01*
X282800Y412300D01*
X283800Y411300D01*
X284800D01*
Y412300D01*
X283800Y413300D01*
X284800Y414300D01*
Y415300D01*
X283800D01*
X282800Y414300D01*
X281800Y415300D01*
X280800D01*
Y414300D01*
X281800Y413300D01*
X280800Y412300D01*
Y411300D01*
X299500Y351900D02*
X300500D01*
X301500Y352900D01*
X302500Y351900D01*
X303500D01*
Y352900D01*
X302500Y353900D01*
X303500Y354900D01*
Y355900D01*
X302500D01*
X301500Y354900D01*
X300500Y355900D01*
X299500D01*
Y354900D01*
X300500Y353900D01*
X299500Y352900D01*
Y351900D01*
X288000Y351700D02*
X289000D01*
X290000Y352700D01*
X291000Y351700D01*
X292000D01*
Y352700D01*
X291000Y353700D01*
X292000Y354700D01*
Y355700D01*
X291000D01*
X290000Y354700D01*
X289000Y355700D01*
X288000D01*
Y354700D01*
X289000Y353700D01*
X288000Y352700D01*
Y351700D01*
X284000Y351800D02*
X285000D01*
X286000Y352800D01*
X287000Y351800D01*
X288000D01*
Y352800D01*
X287000Y353800D01*
X288000Y354800D01*
Y355800D01*
X287000D01*
X286000Y354800D01*
X285000Y355800D01*
X284000D01*
Y354800D01*
X285000Y353800D01*
X284000Y352800D01*
Y351800D01*
X270800Y412300D02*
X271800D01*
X272800Y413300D01*
X273800Y412300D01*
X274800D01*
Y413300D01*
X273800Y414300D01*
X274800Y415300D01*
Y416300D01*
X273800D01*
X272800Y415300D01*
X271800Y416300D01*
X270800D01*
Y415300D01*
X271800Y414300D01*
X270800Y413300D01*
Y412300D01*
X271200Y352600D02*
X272200D01*
X273200Y353600D01*
X274200Y352600D01*
X275200D01*
Y353600D01*
X274200Y354600D01*
X275200Y355600D01*
Y356600D01*
X274200D01*
X273200Y355600D01*
X272200Y356600D01*
X271200D01*
Y355600D01*
X272200Y354600D01*
X271200Y353600D01*
Y352600D01*
X270600Y341500D02*
X271600D01*
X272600Y342500D01*
X273600Y341500D01*
X274600D01*
Y342500D01*
X273600Y343500D01*
X274600Y344500D01*
Y345500D01*
X273600D01*
X272600Y344500D01*
X271600Y345500D01*
X270600D01*
Y344500D01*
X271600Y343500D01*
X270600Y342500D01*
Y341500D01*
X271561Y337937D02*
X272561D01*
X273561Y338937D01*
X274561Y337937D01*
X275561D01*
Y338937D01*
X274561Y339937D01*
X275561Y340937D01*
Y341937D01*
X274561D01*
X273561Y340937D01*
X272561Y341937D01*
X271561D01*
Y340937D01*
X272561Y339937D01*
X271561Y338937D01*
Y337937D01*
X572400Y348000D02*
X573400D01*
X574400Y349000D01*
X575400Y348000D01*
X576400D01*
Y349000D01*
X575400Y350000D01*
X576400Y351000D01*
Y352000D01*
X575400D01*
X574400Y351000D01*
X573400Y352000D01*
X572400D01*
Y351000D01*
X573400Y350000D01*
X572400Y349000D01*
Y348000D01*
X560600Y348100D02*
X561600D01*
X562600Y349100D01*
X563600Y348100D01*
X564600D01*
Y349100D01*
X563600Y350100D01*
X564600Y351100D01*
Y352100D01*
X563600D01*
X562600Y351100D01*
X561600Y352100D01*
X560600D01*
Y351100D01*
X561600Y350100D01*
X560600Y349100D01*
Y348100D01*
X546200Y348000D02*
X547200D01*
X548200Y349000D01*
X549200Y348000D01*
X550200D01*
Y349000D01*
X549200Y350000D01*
X550200Y351000D01*
Y352000D01*
X549200D01*
X548200Y351000D01*
X547200Y352000D01*
X546200D01*
Y351000D01*
X547200Y350000D01*
X546200Y349000D01*
Y348000D01*
X531400Y348200D02*
X532400D01*
X533400Y349200D01*
X534400Y348200D01*
X535400D01*
Y349200D01*
X534400Y350200D01*
X535400Y351200D01*
Y352200D01*
X534400D01*
X533400Y351200D01*
X532400Y352200D01*
X531400D01*
Y351200D01*
X532400Y350200D01*
X531400Y349200D01*
Y348200D01*
X516810Y348070D02*
X517810D01*
X518810Y349070D01*
X519810Y348070D01*
X520810D01*
Y349070D01*
X519810Y350070D01*
X520810Y351070D01*
Y352070D01*
X519810D01*
X518810Y351070D01*
X517810Y352070D01*
X516810D01*
Y351070D01*
X517810Y350070D01*
X516810Y349070D01*
Y348070D01*
X502400Y348200D02*
X503400D01*
X504400Y349200D01*
X505400Y348200D01*
X506400D01*
Y349200D01*
X505400Y350200D01*
X506400Y351200D01*
Y352200D01*
X505400D01*
X504400Y351200D01*
X503400Y352200D01*
X502400D01*
Y351200D01*
X503400Y350200D01*
X502400Y349200D01*
Y348200D01*
X490600Y348100D02*
X491600D01*
X492600Y349100D01*
X493600Y348100D01*
X494600D01*
Y349100D01*
X493600Y350100D01*
X494600Y351100D01*
Y352100D01*
X493600D01*
X492600Y351100D01*
X491600Y352100D01*
X490600D01*
Y351100D01*
X491600Y350100D01*
X490600Y349100D01*
Y348100D01*
X476200Y348200D02*
X477200D01*
X478200Y349200D01*
X479200Y348200D01*
X480200D01*
Y349200D01*
X479200Y350200D01*
X480200Y351200D01*
Y352200D01*
X479200D01*
X478200Y351200D01*
X477200Y352200D01*
X476200D01*
Y351200D01*
X477200Y350200D01*
X476200Y349200D01*
Y348200D01*
X459800D02*
X460800D01*
X461800Y349200D01*
X462800Y348200D01*
X463800D01*
Y349200D01*
X462800Y350200D01*
X463800Y351200D01*
Y352200D01*
X462800D01*
X461800Y351200D01*
X460800Y352200D01*
X459800D01*
Y351200D01*
X460800Y350200D01*
X459800Y349200D01*
Y348200D01*
X446900D02*
X447900D01*
X448900Y349200D01*
X449900Y348200D01*
X450900D01*
Y349200D01*
X449900Y350200D01*
X450900Y351200D01*
Y352200D01*
X449900D01*
X448900Y351200D01*
X447900Y352200D01*
X446900D01*
Y351200D01*
X447900Y350200D01*
X446900Y349200D01*
Y348200D01*
X432400D02*
X433400D01*
X434400Y349200D01*
X435400Y348200D01*
X436400D01*
Y349200D01*
X435400Y350200D01*
X436400Y351200D01*
Y352200D01*
X435400D01*
X434400Y351200D01*
X433400Y352200D01*
X432400D01*
Y351200D01*
X433400Y350200D01*
X432400Y349200D01*
Y348200D01*
X406100Y348100D02*
X407100D01*
X408100Y349100D01*
X409100Y348100D01*
X410100D01*
Y349100D01*
X409100Y350100D01*
X410100Y351100D01*
Y352100D01*
X409100D01*
X408100Y351100D01*
X407100Y352100D01*
X406100D01*
Y351100D01*
X407100Y350100D01*
X406100Y349100D01*
Y348100D01*
X391200Y348300D02*
X392200D01*
X393200Y349300D01*
X394200Y348300D01*
X395200D01*
Y349300D01*
X394200Y350300D01*
X395200Y351300D01*
Y352300D01*
X394200D01*
X393200Y351300D01*
X392200Y352300D01*
X391200D01*
Y351300D01*
X392200Y350300D01*
X391200Y349300D01*
Y348300D01*
X376842Y348206D02*
X377842D01*
X378842Y349206D01*
X379842Y348206D01*
X380842D01*
Y349206D01*
X379842Y350206D01*
X380842Y351206D01*
Y352206D01*
X379842D01*
X378842Y351206D01*
X377842Y352206D01*
X376842D01*
Y351206D01*
X377842Y350206D01*
X376842Y349206D01*
Y348206D01*
X362400Y348300D02*
X363400D01*
X364400Y349300D01*
X365400Y348300D01*
X366400D01*
Y349300D01*
X365400Y350300D01*
X366400Y351300D01*
Y352300D01*
X365400D01*
X364400Y351300D01*
X363400Y352300D01*
X362400D01*
Y351300D01*
X363400Y350300D01*
X362400Y349300D01*
Y348300D01*
X350500Y348200D02*
X351500D01*
X352500Y349200D01*
X353500Y348200D01*
X354500D01*
Y349200D01*
X353500Y350200D01*
X354500Y351200D01*
Y352200D01*
X353500D01*
X352500Y351200D01*
X351500Y352200D01*
X350500D01*
Y351200D01*
X351500Y350200D01*
X350500Y349200D01*
Y348200D01*
X336100D02*
X337100D01*
X338100Y349200D01*
X339100Y348200D01*
X340100D01*
Y349200D01*
X339100Y350200D01*
X340100Y351200D01*
Y352200D01*
X339100D01*
X338100Y351200D01*
X337100Y352200D01*
X336100D01*
Y351200D01*
X337100Y350200D01*
X336100Y349200D01*
Y348200D01*
X320800D02*
X321800D01*
X322800Y349200D01*
X323800Y348200D01*
X324800D01*
Y349200D01*
X323800Y350200D01*
X324800Y351200D01*
Y352200D01*
X323800D01*
X322800Y351200D01*
X321800Y352200D01*
X320800D01*
Y351200D01*
X321800Y350200D01*
X320800Y349200D01*
Y348200D01*
X306300D02*
X307300D01*
X308300Y349200D01*
X309300Y348200D01*
X310300D01*
Y349200D01*
X309300Y350200D01*
X310300Y351200D01*
Y352200D01*
X309300D01*
X308300Y351200D01*
X307300Y352200D01*
X306300D01*
Y351200D01*
X307300Y350200D01*
X306300Y349200D01*
Y348200D01*
X291900D02*
X292900D01*
X293900Y349200D01*
X294900Y348200D01*
X295900D01*
Y349200D01*
X294900Y350200D01*
X295900Y351200D01*
Y352200D01*
X294900D01*
X293900Y351200D01*
X292900Y352200D01*
X291900D01*
Y351200D01*
X292900Y350200D01*
X291900Y349200D01*
Y348200D01*
X280100D02*
X281100D01*
X282100Y349200D01*
X283100Y348200D01*
X284100D01*
Y349200D01*
X283100Y350200D01*
X284100Y351200D01*
Y352200D01*
X283100D01*
X282100Y351200D01*
X281100Y352200D01*
X280100D01*
Y351200D01*
X281100Y350200D01*
X280100Y349200D01*
Y348200D01*
X265700D02*
X266700D01*
X267700Y349200D01*
X268700Y348200D01*
X269700D01*
Y349200D01*
X268700Y350200D01*
X269700Y351200D01*
Y352200D01*
X268700D01*
X267700Y351200D01*
X266700Y352200D01*
X265700D01*
Y351200D01*
X266700Y350200D01*
X265700Y349200D01*
Y348200D01*
X253100Y331000D02*
X254100D01*
X255100Y332000D01*
X256100Y331000D01*
X257100D01*
Y332000D01*
X256100Y333000D01*
X257100Y334000D01*
Y335000D01*
X256100D01*
X255100Y334000D01*
X254100Y335000D01*
X253100D01*
Y334000D01*
X254100Y333000D01*
X253100Y332000D01*
Y331000D01*
X253200Y265600D02*
X254200D01*
X255200Y266600D01*
X256200Y265600D01*
X257200D01*
Y266600D01*
X256200Y267600D01*
X257200Y268600D01*
Y269600D01*
X256200D01*
X255200Y268600D01*
X254200Y269600D01*
X253200D01*
Y268600D01*
X254200Y267600D01*
X253200Y266600D01*
Y265600D01*
X304200Y341500D02*
X305200D01*
X306200Y342500D01*
X307200Y341500D01*
X308200D01*
Y342500D01*
X307200Y343500D01*
X308200Y344500D01*
Y345500D01*
X307200D01*
X306200Y344500D01*
X305200Y345500D01*
X304200D01*
Y344500D01*
X305200Y343500D01*
X304200Y342500D01*
Y341500D01*
X300900Y335900D02*
X301900D01*
X302900Y336900D01*
X303900Y335900D01*
X304900D01*
Y336900D01*
X303900Y337900D01*
X304900Y338900D01*
Y339900D01*
X303900D01*
X302900Y338900D01*
X301900Y339900D01*
X300900D01*
Y338900D01*
X301900Y337900D01*
X300900Y336900D01*
Y335900D01*
X324600Y341500D02*
X325600D01*
X326600Y342500D01*
X327600Y341500D01*
X328600D01*
Y342500D01*
X327600Y343500D01*
X328600Y344500D01*
Y345500D01*
X327600D01*
X326600Y344500D01*
X325600Y345500D01*
X324600D01*
Y344500D01*
X325600Y343500D01*
X324600Y342500D01*
Y341500D01*
X376200D02*
X377200D01*
X378200Y342500D01*
X379200Y341500D01*
X380200D01*
Y342500D01*
X379200Y343500D01*
X380200Y344500D01*
Y345500D01*
X379200D01*
X378200Y344500D01*
X377200Y345500D01*
X376200D01*
Y344500D01*
X377200Y343500D01*
X376200Y342500D01*
Y341500D01*
X445800D02*
X446800D01*
X447800Y342500D01*
X448800Y341500D01*
X449800D01*
Y342500D01*
X448800Y343500D01*
X449800Y344500D01*
Y345500D01*
X448800D01*
X447800Y344500D01*
X446800Y345500D01*
X445800D01*
Y344500D01*
X446800Y343500D01*
X445800Y342500D01*
Y341500D01*
X443800Y336000D02*
X444800D01*
X445800Y337000D01*
X446800Y336000D01*
X447800D01*
Y337000D01*
X446800Y338000D01*
X447800Y339000D01*
Y340000D01*
X446800D01*
X445800Y339000D01*
X444800Y340000D01*
X443800D01*
Y339000D01*
X444800Y338000D01*
X443800Y337000D01*
Y336000D01*
X462900Y341500D02*
X463900D01*
X464900Y342500D01*
X465900Y341500D01*
X466900D01*
Y342500D01*
X465900Y343500D01*
X466900Y344500D01*
Y345500D01*
X465900D01*
X464900Y344500D01*
X463900Y345500D01*
X462900D01*
Y344500D01*
X463900Y343500D01*
X462900Y342500D01*
Y341500D01*
X515500Y341400D02*
X516500D01*
X517500Y342400D01*
X518500Y341400D01*
X519500D01*
Y342400D01*
X518500Y343400D01*
X519500Y344400D01*
Y345400D01*
X518500D01*
X517500Y344400D01*
X516500Y345400D01*
X515500D01*
Y344400D01*
X516500Y343400D01*
X515500Y342400D01*
Y341400D01*
X598800Y337800D02*
Y336800D01*
X600800D01*
Y337800D01*
X601800D01*
Y339800D01*
X600800D01*
Y340800D01*
X598800D01*
Y339800D01*
X597800D01*
Y337800D01*
X598800D01*
X598400Y313400D02*
X599400D01*
X600400Y314400D01*
X601400Y313400D01*
X602400D01*
Y314400D01*
X601400Y315400D01*
X602400Y316400D01*
Y317400D01*
X601400D01*
X600400Y316400D01*
X599400Y317400D01*
X598400D01*
Y316400D01*
X599400Y315400D01*
X598400Y314400D01*
Y313400D01*
X554600Y283400D02*
X555600D01*
X556600Y284400D01*
X557600Y283400D01*
X558600D01*
Y284400D01*
X557600Y285400D01*
X558600Y286400D01*
Y287400D01*
X557600D01*
X556600Y286400D01*
X555600Y287400D01*
X554600D01*
Y286400D01*
X555600Y285400D01*
X554600Y284400D01*
Y283400D01*
X341800Y337900D02*
X342800D01*
X343800Y338900D01*
X344800Y337900D01*
X345800D01*
Y338900D01*
X344800Y339900D01*
X345800Y340900D01*
Y341900D01*
X344800D01*
X343800Y340900D01*
X342800Y341900D01*
X341800D01*
Y340900D01*
X342800Y339900D01*
X341800Y338900D01*
Y337900D01*
X481880Y337880D02*
X482880D01*
X483880Y338880D01*
X484880Y337880D01*
X485880D01*
Y338880D01*
X484880Y339880D01*
X485880Y340880D01*
Y341880D01*
X484880D01*
X483880Y340880D01*
X482880Y341880D01*
X481880D01*
Y340880D01*
X482880Y339880D01*
X481880Y338880D01*
Y337880D01*
X551911Y337895D02*
X552911D01*
X553911Y338895D01*
X554911Y337895D01*
X555911D01*
Y338895D01*
X554911Y339895D01*
X555911Y340895D01*
Y341895D01*
X554911D01*
X553911Y340895D01*
X552911Y341895D01*
X551911D01*
Y340895D01*
X552911Y339895D01*
X551911Y338895D01*
Y337895D01*
X586431Y330026D02*
X587431D01*
X588431Y331026D01*
X589431Y330026D01*
X590431D01*
Y331026D01*
X589431Y332026D01*
X590431Y333026D01*
Y334026D01*
X589431D01*
X588431Y333026D01*
X587431Y334026D01*
X586431D01*
Y333026D01*
X587431Y332026D01*
X586431Y331026D01*
Y330026D01*
X584954Y255740D02*
X585954D01*
X586954Y256740D01*
X587954Y255740D01*
X588954D01*
Y256740D01*
X587954Y257740D01*
X588954Y258740D01*
Y259740D01*
X587954D01*
X586954Y258740D01*
X585954Y259740D01*
X584954D01*
Y258740D01*
X585954Y257740D01*
X584954Y256740D01*
Y255740D01*
X584500Y259300D02*
X585500D01*
X586500Y260300D01*
X587500Y259300D01*
X588500D01*
Y260300D01*
X587500Y261300D01*
X588500Y262300D01*
Y263300D01*
X587500D01*
X586500Y262300D01*
X585500Y263300D01*
X584500D01*
Y262300D01*
X585500Y261300D01*
X584500Y260300D01*
Y259300D01*
X581000Y335900D02*
X582000D01*
X583000Y336900D01*
X584000Y335900D01*
X585000D01*
Y336900D01*
X584000Y337900D01*
X585000Y338900D01*
Y339900D01*
X584000D01*
X583000Y338900D01*
X582000Y339900D01*
X581000D01*
Y338900D01*
X582000Y337900D01*
X581000Y336900D01*
Y335900D01*
X576400Y302200D02*
X577400D01*
X578400Y303200D01*
X579400Y302200D01*
X580400D01*
Y303200D01*
X579400Y304200D01*
X580400Y305200D01*
Y306200D01*
X579400D01*
X578400Y305200D01*
X577400Y306200D01*
X576400D01*
Y305200D01*
X577400Y304200D01*
X576400Y303200D01*
Y302200D01*
X538500Y279900D02*
X539500D01*
X540500Y280900D01*
X541500Y279900D01*
X542500D01*
Y280900D01*
X541500Y281900D01*
X542500Y282900D01*
Y283900D01*
X541500D01*
X540500Y282900D01*
X539500Y283900D01*
X538500D01*
Y282900D01*
X539500Y281900D01*
X538500Y280900D01*
Y279900D01*
X570200Y252200D02*
X571200D01*
X572200Y253200D01*
X573200Y252200D01*
X574200D01*
Y253200D01*
X573200Y254200D01*
X574200Y255200D01*
Y256200D01*
X573200D01*
X572200Y255200D01*
X571200Y256200D01*
X570200D01*
Y255200D01*
X571200Y254200D01*
X570200Y253200D01*
Y252200D01*
X567700Y250255D02*
X568700D01*
X569700Y251255D01*
X570700Y250255D01*
X571700D01*
Y251255D01*
X570700Y252256D01*
X571700Y253256D01*
Y254256D01*
X570700D01*
X569700Y253256D01*
X568700Y254256D01*
X567700D01*
Y253256D01*
X568700Y252256D01*
X567700Y251255D01*
Y250255D01*
X511300Y330100D02*
X512300D01*
X513300Y331100D01*
X514300Y330100D01*
X515300D01*
Y331100D01*
X514300Y332100D01*
X515300Y333100D01*
Y334100D01*
X514300D01*
X513300Y333100D01*
X512300Y334100D01*
X511300D01*
Y333100D01*
X512300Y332100D01*
X511300Y331100D01*
Y330100D01*
X502800Y283600D02*
X503800D01*
X504800Y284600D01*
X505800Y283600D01*
X506800D01*
Y284600D01*
X505800Y285600D01*
X506800Y286600D01*
Y287600D01*
X505800D01*
X504800Y286600D01*
X503800Y287600D01*
X502800D01*
Y286600D01*
X503800Y285600D01*
X502800Y284600D01*
Y283600D01*
X506900Y303200D02*
X507900D01*
X508900Y304200D01*
X509900Y303200D01*
X510900D01*
Y304200D01*
X509900Y305200D01*
X510900Y306200D01*
Y307200D01*
X509900D01*
X508900Y306200D01*
X507900Y307200D01*
X506900D01*
Y306200D01*
X507900Y305200D01*
X506900Y304200D01*
Y303200D01*
X300800Y330026D02*
X301800D01*
X302800Y331026D01*
X303800Y330026D01*
X304800D01*
Y331026D01*
X303800Y332026D01*
X304800Y333026D01*
Y334026D01*
X303800D01*
X302800Y333026D01*
X301800Y334026D01*
X300800D01*
Y333026D01*
X301800Y332026D01*
X300800Y331026D01*
Y330026D01*
X372600Y330089D02*
X373600D01*
X374600Y331089D01*
X375600Y330089D01*
X376600D01*
Y331089D01*
X375600Y332089D01*
X376600Y333089D01*
Y334089D01*
X375600D01*
X374600Y333089D01*
X373600Y334089D01*
X372600D01*
Y333089D01*
X373600Y332089D01*
X372600Y331089D01*
Y330089D01*
X409823Y305623D02*
X410823D01*
X411823Y306623D01*
X412823Y305623D01*
X413823D01*
Y306623D01*
X412823Y307623D01*
X413823Y308623D01*
Y309623D01*
X412823D01*
X411823Y308623D01*
X410823Y309623D01*
X409823D01*
Y308623D01*
X410823Y307623D01*
X409823Y306623D01*
Y305623D01*
X412873Y302573D02*
X413873D01*
X414873Y303573D01*
X415873Y302573D01*
X416873D01*
Y303573D01*
X415873Y304573D01*
X416873Y305573D01*
Y306573D01*
X415873D01*
X414873Y305573D01*
X413873Y306573D01*
X412873D01*
Y305573D01*
X413873Y304573D01*
X412873Y303573D01*
Y302573D01*
X442400Y330057D02*
X443400D01*
X444400Y331057D01*
X445400Y330057D01*
X446400D01*
Y331057D01*
X445400Y332057D01*
X446400Y333057D01*
Y334057D01*
X445400D01*
X444400Y333057D01*
X443400Y334057D01*
X442400D01*
Y333057D01*
X443400Y332057D01*
X442400Y331057D01*
Y330057D01*
X567600Y246393D02*
X568600D01*
X569600Y247393D01*
X570600Y246393D01*
X571600D01*
Y247393D01*
X570600Y248393D01*
X571600Y249393D01*
Y250393D01*
X570600D01*
X569600Y249393D01*
X568600Y250393D01*
X567600D01*
Y249393D01*
X568600Y248393D01*
X567600Y247393D01*
Y246393D01*
X570100Y248300D02*
X571100D01*
X572100Y249300D01*
X573100Y248300D01*
X574100D01*
Y249300D01*
X573100Y250300D01*
X574100Y251300D01*
Y252300D01*
X573100D01*
X572100Y251300D01*
X571100Y252300D01*
X570100D01*
Y251300D01*
X571100Y250300D01*
X570100Y249300D01*
Y248300D01*
X495700Y281600D02*
X496700D01*
X497700Y282600D01*
X498700Y281600D01*
X499700D01*
Y282600D01*
X498700Y283600D01*
X499700Y284600D01*
Y285600D01*
X498700D01*
X497700Y284600D01*
X496700Y285600D01*
X495700D01*
Y284600D01*
X496700Y283600D01*
X495700Y282600D01*
Y281600D01*
X486900Y291100D02*
X487900D01*
X488900Y292100D01*
X489900Y291100D01*
X490900D01*
Y292100D01*
X489900Y293100D01*
X490900Y294100D01*
Y295100D01*
X489900D01*
X488900Y294100D01*
X487900Y295100D01*
X486900D01*
Y294100D01*
X487900Y293100D01*
X486900Y292100D01*
Y291100D01*
X493000Y279000D02*
X494000D01*
X495000Y280000D01*
X496000Y279000D01*
X497000D01*
Y280000D01*
X496000Y281000D01*
X497000Y282000D01*
Y283000D01*
X496000D01*
X495000Y282000D01*
X494000Y283000D01*
X493000D01*
Y282000D01*
X494000Y281000D01*
X493000Y280000D01*
Y279000D01*
X493396Y275096D02*
X494396D01*
X495396Y276096D01*
X496396Y275096D01*
X497396D01*
Y276096D01*
X496396Y277096D01*
X497396Y278096D01*
Y279096D01*
X496396D01*
X495396Y278096D01*
X494396Y279096D01*
X493396D01*
Y278096D01*
X494396Y277096D01*
X493396Y276096D01*
Y275096D01*
X392600Y302200D02*
X393600D01*
X394600Y303200D01*
X395600Y302200D01*
X396600D01*
Y303200D01*
X395600Y304200D01*
X396600Y305200D01*
Y306200D01*
X395600D01*
X394600Y305200D01*
X393600Y306200D01*
X392600D01*
Y305200D01*
X393600Y304200D01*
X392600Y303200D01*
Y302200D01*
X343200Y302300D02*
X344200D01*
X345200Y303300D01*
X346200Y302300D01*
X347200D01*
Y303300D01*
X346200Y304300D01*
X347200Y305300D01*
Y306300D01*
X346200D01*
X345200Y305300D01*
X344200Y306300D01*
X343200D01*
Y305300D01*
X344200Y304300D01*
X343200Y303300D01*
Y302300D01*
X570069Y244305D02*
X571069D01*
X572069Y245305D01*
X573069Y244305D01*
X574069D01*
Y245305D01*
X573069Y246305D01*
X574069Y247305D01*
Y248305D01*
X573069D01*
X572069Y247305D01*
X571069Y248305D01*
X570069D01*
Y247305D01*
X571069Y246305D01*
X570069Y245305D01*
Y244305D01*
X569500Y240443D02*
X570500D01*
X571500Y241443D01*
X572500Y240443D01*
X573500D01*
Y241443D01*
X572500Y242443D01*
X573500Y243443D01*
Y244443D01*
X572500D01*
X571500Y243443D01*
X570500Y244443D01*
X569500D01*
Y243443D01*
X570500Y242443D01*
X569500Y241443D01*
Y240443D01*
X567000Y238669D02*
X568000D01*
X569000Y239669D01*
X570000Y238669D01*
X571000D01*
Y239669D01*
X570000Y240669D01*
X571000Y241669D01*
Y242669D01*
X570000D01*
X569000Y241669D01*
X568000Y242669D01*
X567000D01*
Y241669D01*
X568000Y240669D01*
X567000Y239669D01*
Y238669D01*
Y242531D02*
X568000D01*
X569000Y243531D01*
X570000Y242531D01*
X571000D01*
Y243531D01*
X570000Y244531D01*
X571000Y245531D01*
Y246531D01*
X570000D01*
X569000Y245531D01*
X568000Y246531D01*
X567000D01*
Y245531D01*
X568000Y244531D01*
X567000Y243531D01*
Y242531D01*
X473000Y274200D02*
Y273200D01*
X475000D01*
Y274200D01*
X476000D01*
Y276200D01*
X475000D01*
Y277200D01*
X473000D01*
Y276200D01*
X472000D01*
Y274200D01*
X473000D01*
X565600Y206600D02*
X566600D01*
X567600Y207600D01*
X568600Y206600D01*
X569600D01*
Y207600D01*
X568600Y208600D01*
X569600Y209600D01*
Y210600D01*
X568600D01*
X567600Y209600D01*
X566600Y210600D01*
X565600D01*
Y209600D01*
X566600Y208600D01*
X565600Y207600D01*
Y206600D01*
X544400Y170500D02*
X545400D01*
X546400Y171500D01*
X547400Y170500D01*
X548400D01*
Y171500D01*
X547400Y172500D01*
X548400Y173500D01*
Y174500D01*
X547400D01*
X546400Y173500D01*
X545400Y174500D01*
X544400D01*
Y173500D01*
X545400Y172500D01*
X544400Y171500D01*
Y170500D01*
X283000Y194500D02*
Y198500D01*
X287000D01*
Y194500D01*
X283000D01*
X276500D02*
Y198500D01*
X280500D01*
Y194500D01*
X276500D01*
X270000D02*
Y198500D01*
X274000D01*
Y194500D01*
X270000D01*
X283000Y201000D02*
Y205000D01*
X287000D01*
Y201000D01*
X283000D01*
X276500D02*
Y205000D01*
X280500D01*
Y201000D01*
X276500D01*
X270000D02*
Y205000D01*
X274000D01*
Y201000D01*
X270000D01*
X283000Y207500D02*
Y211500D01*
X287000D01*
Y207500D01*
X283000D01*
X276500D02*
Y211500D01*
X280500D01*
Y207500D01*
X276500D01*
X270000D02*
Y211500D01*
X274000D01*
Y207500D01*
X270000D01*
X263500Y194500D02*
Y198500D01*
X267500D01*
Y194500D01*
X263500D01*
Y201000D02*
Y205000D01*
X267500D01*
Y201000D01*
X263500D01*
Y207500D02*
Y211500D01*
X267500D01*
Y207500D01*
X263500D01*
X283000Y213500D02*
Y217500D01*
X287000D01*
Y213500D01*
X283000D01*
X276500D02*
Y217500D01*
X280500D01*
Y213500D01*
X276500D01*
X270000D02*
Y217500D01*
X274000D01*
Y213500D01*
X270000D01*
X263500D02*
Y217500D01*
X267500D01*
Y213500D01*
X263500D01*
X324000Y194000D02*
Y198000D01*
X328000D01*
Y194000D01*
X324000D01*
X317500D02*
Y198000D01*
X321500D01*
Y194000D01*
X317500D01*
X311000D02*
Y198000D01*
X315000D01*
Y194000D01*
X311000D01*
X324000Y200500D02*
Y204500D01*
X328000D01*
Y200500D01*
X324000D01*
X317500D02*
Y204500D01*
X321500D01*
Y200500D01*
X317500D01*
X311000D02*
Y204500D01*
X315000D01*
Y200500D01*
X311000D01*
X324000Y207000D02*
Y211000D01*
X328000D01*
Y207000D01*
X324000D01*
X317500D02*
Y211000D01*
X321500D01*
Y207000D01*
X317500D01*
X311000D02*
Y211000D01*
X315000D01*
Y207000D01*
X311000D01*
X304500Y194000D02*
Y198000D01*
X308500D01*
Y194000D01*
X304500D01*
Y200500D02*
Y204500D01*
X308500D01*
Y200500D01*
X304500D01*
Y207000D02*
Y211000D01*
X308500D01*
Y207000D01*
X304500D01*
X324000Y213000D02*
Y217000D01*
X328000D01*
Y213000D01*
X324000D01*
X317500D02*
Y217000D01*
X321500D01*
Y213000D01*
X317500D01*
X311000D02*
Y217000D01*
X315000D01*
Y213000D01*
X311000D01*
X304500D02*
Y217000D01*
X308500D01*
Y213000D01*
X304500D01*
X364500Y194000D02*
Y198000D01*
X368500D01*
Y194000D01*
X364500D01*
X358000D02*
Y198000D01*
X362000D01*
Y194000D01*
X358000D01*
X351500D02*
Y198000D01*
X355500D01*
Y194000D01*
X351500D01*
X364500Y200500D02*
Y204500D01*
X368500D01*
Y200500D01*
X364500D01*
X358000D02*
Y204500D01*
X362000D01*
Y200500D01*
X358000D01*
X351500D02*
Y204500D01*
X355500D01*
Y200500D01*
X351500D01*
X364500Y207000D02*
Y211000D01*
X368500D01*
Y207000D01*
X364500D01*
X358000D02*
Y211000D01*
X362000D01*
Y207000D01*
X358000D01*
X351500D02*
Y211000D01*
X355500D01*
Y207000D01*
X351500D01*
X345000Y194000D02*
Y198000D01*
X349000D01*
Y194000D01*
X345000D01*
Y200500D02*
Y204500D01*
X349000D01*
Y200500D01*
X345000D01*
Y207000D02*
Y211000D01*
X349000D01*
Y207000D01*
X345000D01*
X364500Y213000D02*
Y217000D01*
X368500D01*
Y213000D01*
X364500D01*
X358000D02*
Y217000D01*
X362000D01*
Y213000D01*
X358000D01*
X351500D02*
Y217000D01*
X355500D01*
Y213000D01*
X351500D01*
X345000D02*
Y217000D01*
X349000D01*
Y213000D01*
X345000D01*
X405000Y194000D02*
Y198000D01*
X409000D01*
Y194000D01*
X405000D01*
X398500D02*
Y198000D01*
X402500D01*
Y194000D01*
X398500D01*
X392000D02*
Y198000D01*
X396000D01*
Y194000D01*
X392000D01*
X405000Y200500D02*
Y204500D01*
X409000D01*
Y200500D01*
X405000D01*
X398500D02*
Y204500D01*
X402500D01*
Y200500D01*
X398500D01*
X392000D02*
Y204500D01*
X396000D01*
Y200500D01*
X392000D01*
X405000Y207000D02*
Y211000D01*
X409000D01*
Y207000D01*
X405000D01*
X398500D02*
Y211000D01*
X402500D01*
Y207000D01*
X398500D01*
X392000D02*
Y211000D01*
X396000D01*
Y207000D01*
X392000D01*
X385500Y194000D02*
Y198000D01*
X389500D01*
Y194000D01*
X385500D01*
Y200500D02*
Y204500D01*
X389500D01*
Y200500D01*
X385500D01*
Y207000D02*
Y211000D01*
X389500D01*
Y207000D01*
X385500D01*
X405000Y213000D02*
Y217000D01*
X409000D01*
Y213000D01*
X405000D01*
X398500D02*
Y217000D01*
X402500D01*
Y213000D01*
X398500D01*
X392000D02*
Y217000D01*
X396000D01*
Y213000D01*
X392000D01*
X385500D02*
Y217000D01*
X389500D01*
Y213000D01*
X385500D01*
X446000Y194000D02*
Y198000D01*
X450000D01*
Y194000D01*
X446000D01*
X439500D02*
Y198000D01*
X443500D01*
Y194000D01*
X439500D01*
X433000D02*
Y198000D01*
X437000D01*
Y194000D01*
X433000D01*
X446000Y200500D02*
Y204500D01*
X450000D01*
Y200500D01*
X446000D01*
X439500D02*
Y204500D01*
X443500D01*
Y200500D01*
X439500D01*
X433000D02*
Y204500D01*
X437000D01*
Y200500D01*
X433000D01*
X446000Y207000D02*
Y211000D01*
X450000D01*
Y207000D01*
X446000D01*
X439500D02*
Y211000D01*
X443500D01*
Y207000D01*
X439500D01*
X433000D02*
Y211000D01*
X437000D01*
Y207000D01*
X433000D01*
X426500Y194000D02*
Y198000D01*
X430500D01*
Y194000D01*
X426500D01*
Y200500D02*
Y204500D01*
X430500D01*
Y200500D01*
X426500D01*
Y207000D02*
Y211000D01*
X430500D01*
Y207000D01*
X426500D01*
X446000Y213000D02*
Y217000D01*
X450000D01*
Y213000D01*
X446000D01*
X439500D02*
Y217000D01*
X443500D01*
Y213000D01*
X439500D01*
X433000D02*
Y217000D01*
X437000D01*
Y213000D01*
X433000D01*
X426500D02*
Y217000D01*
X430500D01*
Y213000D01*
X426500D01*
X507500D02*
Y217000D01*
X511500D01*
Y213000D01*
X507500D01*
X514000D02*
Y217000D01*
X518000D01*
Y213000D01*
X514000D01*
X520500D02*
Y217000D01*
X524500D01*
Y213000D01*
X520500D01*
X527000D02*
Y217000D01*
X531000D01*
Y213000D01*
X527000D01*
Y207000D02*
Y211000D01*
X531000D01*
Y207000D01*
X527000D01*
X520500D02*
Y211000D01*
X524500D01*
Y207000D01*
X520500D01*
X514000D02*
Y211000D01*
X518000D01*
Y207000D01*
X514000D01*
X507500D02*
Y211000D01*
X511500D01*
Y207000D01*
X507500D01*
Y200500D02*
Y204500D01*
X511500D01*
Y200500D01*
X507500D01*
X514000D02*
Y204500D01*
X518000D01*
Y200500D01*
X514000D01*
X520500D02*
Y204500D01*
X524500D01*
Y200500D01*
X520500D01*
X527000D02*
Y204500D01*
X531000D01*
Y200500D01*
X527000D01*
Y194000D02*
Y198000D01*
X531000D01*
Y194000D01*
X527000D01*
X520500D02*
Y198000D01*
X524500D01*
Y194000D01*
X520500D01*
X514000D02*
Y198000D01*
X518000D01*
Y194000D01*
X514000D01*
X507500D02*
Y198000D01*
X511500D01*
Y194000D01*
X507500D01*
X467000Y213000D02*
Y217000D01*
X471000D01*
Y213000D01*
X467000D01*
X473500D02*
Y217000D01*
X477500D01*
Y213000D01*
X473500D01*
X480000D02*
Y217000D01*
X484000D01*
Y213000D01*
X480000D01*
X486500D02*
Y217000D01*
X490500D01*
Y213000D01*
X486500D01*
X467000Y207000D02*
Y211000D01*
X471000D01*
Y207000D01*
X467000D01*
Y200500D02*
Y204500D01*
X471000D01*
Y200500D01*
X467000D01*
Y194000D02*
Y198000D01*
X471000D01*
Y194000D01*
X467000D01*
X473500Y207000D02*
Y211000D01*
X477500D01*
Y207000D01*
X473500D01*
X480000D02*
Y211000D01*
X484000D01*
Y207000D01*
X480000D01*
X486500D02*
Y211000D01*
X490500D01*
Y207000D01*
X486500D01*
X473500Y200500D02*
Y204500D01*
X477500D01*
Y200500D01*
X473500D01*
X480000D02*
Y204500D01*
X484000D01*
Y200500D01*
X480000D01*
X486500D02*
Y204500D01*
X490500D01*
Y200500D01*
X486500D01*
X473500Y194000D02*
Y198000D01*
X477500D01*
Y194000D01*
X473500D01*
X480000D02*
Y198000D01*
X484000D01*
Y194000D01*
X480000D01*
X486500D02*
Y198000D01*
X490500D01*
Y194000D01*
X486500D01*
X266500Y295500D02*
Y294500D01*
X268500D01*
Y295500D01*
X269500D01*
Y297500D01*
X268500D01*
Y298500D01*
X266500D01*
Y297500D01*
X265500D01*
Y295500D01*
X266500D01*
X532500Y437500D02*
Y436500D01*
X534500D01*
Y437500D01*
X535500D01*
Y439500D01*
X534500D01*
Y440500D01*
X532500D01*
Y439500D01*
X531500D01*
Y437500D01*
X532500D01*
X321500D02*
Y436500D01*
X323500D01*
Y437500D01*
X324500D01*
Y439500D01*
X323500D01*
Y440500D01*
X321500D01*
Y439500D01*
X320500D01*
Y437500D01*
X321500D01*
D74*
X323000Y165000D02*
X322771Y165929D01*
X322136Y166646D01*
X321241Y166985D01*
X320291Y166870D01*
X319503Y166326D01*
X319058Y165479D01*
Y164521D01*
X319503Y163674D01*
X320291Y163130D01*
X321241Y163015D01*
X322136Y163354D01*
X322771Y164071D01*
X323000Y165000D01*
X313000D02*
X312771Y165929D01*
X312136Y166646D01*
X311241Y166985D01*
X310291Y166870D01*
X309503Y166326D01*
X309058Y165479D01*
Y164521D01*
X309503Y163674D01*
X310291Y163130D01*
X311241Y163015D01*
X312136Y163354D01*
X312771Y164071D01*
X313000Y165000D01*
X596000Y187000D02*
X595771Y187929D01*
X595136Y188646D01*
X594241Y188985D01*
X593291Y188870D01*
X592503Y188326D01*
X592058Y187479D01*
Y186521D01*
X592503Y185674D01*
X593291Y185130D01*
X594241Y185015D01*
X595136Y185354D01*
X595771Y186071D01*
X596000Y187000D01*
Y197000D02*
X595771Y197929D01*
X595136Y198646D01*
X594241Y198985D01*
X593291Y198870D01*
X592503Y198326D01*
X592058Y197479D01*
Y196521D01*
X592503Y195674D01*
X593291Y195130D01*
X594241Y195015D01*
X595136Y195354D01*
X595771Y196071D01*
X596000Y197000D01*
X272000Y165000D02*
X271771Y165929D01*
X271136Y166646D01*
X270241Y166985D01*
X269291Y166870D01*
X268503Y166326D01*
X268058Y165479D01*
Y164521D01*
X268503Y163674D01*
X269291Y163130D01*
X270241Y163015D01*
X271136Y163354D01*
X271771Y164071D01*
X272000Y165000D01*
X282000D02*
X281771Y165929D01*
X281136Y166646D01*
X280241Y166985D01*
X279291Y166870D01*
X278503Y166326D01*
X278058Y165479D01*
Y164521D01*
X278503Y163674D01*
X279291Y163130D01*
X280241Y163015D01*
X281136Y163354D01*
X281771Y164071D01*
X282000Y165000D01*
X353500D02*
X353271Y165929D01*
X352636Y166646D01*
X351741Y166985D01*
X350791Y166870D01*
X350003Y166326D01*
X349558Y165479D01*
Y164521D01*
X350003Y163674D01*
X350791Y163130D01*
X351741Y163015D01*
X352636Y163354D01*
X353271Y164071D01*
X353500Y165000D01*
X363500D02*
X363271Y165929D01*
X362636Y166646D01*
X361741Y166985D01*
X360791Y166870D01*
X360003Y166326D01*
X359558Y165479D01*
Y164521D01*
X360003Y163674D01*
X360791Y163130D01*
X361741Y163015D01*
X362636Y163354D01*
X363271Y164071D01*
X363500Y165000D01*
X596000Y156500D02*
X595771Y157429D01*
X595136Y158146D01*
X594241Y158485D01*
X593291Y158370D01*
X592503Y157826D01*
X592058Y156979D01*
Y156021D01*
X592503Y155174D01*
X593291Y154630D01*
X594241Y154515D01*
X595136Y154854D01*
X595771Y155571D01*
X596000Y156500D01*
Y166500D02*
X595771Y167429D01*
X595136Y168146D01*
X594241Y168485D01*
X593291Y168370D01*
X592503Y167826D01*
X592058Y166979D01*
Y166021D01*
X592503Y165174D01*
X593291Y164630D01*
X594241Y164515D01*
X595136Y164854D01*
X595771Y165571D01*
X596000Y166500D01*
M02*
