G04*
G04 #@! TF.GenerationSoftware,Altium Limited,Altium Designer,23.3.1 (30)*
G04*
G04 Layer_Color=65535*
%FSLAX25Y25*%
%MOIN*%
G70*
G04*
G04 #@! TF.SameCoordinates,A8F844DE-C0E2-4737-AB7E-767533C4F731*
G04*
G04*
G04 #@! TF.FilePolarity,Positive*
G04*
G01*
G75*
%ADD10C,0.00394*%
%ADD11C,0.00984*%
%ADD12C,0.00787*%
%ADD13C,0.00591*%
%ADD14C,0.01000*%
%ADD15C,0.00200*%
D10*
X528055Y239516D02*
X528449D01*
X528055D01*
X487555D02*
X487949D01*
X487555D01*
X447055D02*
X447449D01*
X447055D01*
X406055Y239697D02*
X406449D01*
X406055D01*
X365555D02*
X365949D01*
X365555D01*
X325055D02*
X325449D01*
X325055D01*
X284449Y240016D02*
X284055D01*
X284449D01*
X576760Y224689D02*
X577153D01*
X576760D01*
X598807Y217602D02*
X605106D01*
Y280988D01*
X598807D02*
X605106D01*
X583090D02*
X586996D01*
X583059Y277882D02*
X583090Y280988D01*
X583059Y217602D02*
Y220787D01*
Y217602D02*
X586996D01*
X543854Y384614D02*
X592673D01*
X543854D02*
Y407252D01*
X592673D01*
Y384614D02*
Y407252D01*
X522173Y384614D02*
Y407252D01*
X473354D02*
X522173D01*
X473354Y384614D02*
Y407252D01*
Y384614D02*
X522173D01*
X451831Y417114D02*
Y439752D01*
X403012D02*
X451831D01*
X403012Y417114D02*
Y439752D01*
Y417114D02*
X451831D01*
X452173Y384614D02*
Y407252D01*
X403354D02*
X452173D01*
X403354Y384614D02*
Y407252D01*
Y384614D02*
X452173D01*
X382173D02*
Y407252D01*
X333354D02*
X382173D01*
X333354Y384614D02*
Y407252D01*
Y384614D02*
X382173D01*
X311831Y385114D02*
Y407752D01*
X263012D02*
X311831D01*
X263012Y385114D02*
Y407752D01*
Y385114D02*
X311831D01*
X493146Y154248D02*
Y167437D01*
Y154248D02*
Y167437D01*
X464012Y154248D02*
X493146D01*
X464012D02*
X493146D01*
X464012D02*
Y176886D01*
Y154248D02*
Y176886D01*
X493146D01*
X464012D02*
X493146D01*
Y175311D02*
Y176886D01*
Y175311D02*
Y176886D01*
X452488Y175311D02*
Y176886D01*
Y175311D02*
Y176886D01*
X423354D02*
X452488D01*
X423354D02*
X452488D01*
X423354Y154248D02*
Y176886D01*
Y154248D02*
Y176886D01*
Y154248D02*
X452488D01*
X423354D02*
X452488D01*
Y167437D01*
Y154248D02*
Y167437D01*
X411646Y175311D02*
Y176886D01*
Y175311D02*
Y176886D01*
X382512D02*
X411646D01*
X382512D02*
X411646D01*
X382512Y154248D02*
Y176886D01*
Y154248D02*
Y176886D01*
Y154248D02*
X411646D01*
X382512D02*
X411646D01*
Y167437D01*
Y154248D02*
Y167437D01*
X533488Y175311D02*
Y176886D01*
Y175311D02*
Y176886D01*
X504354D02*
X533488D01*
X504354D02*
X533488D01*
X504354Y154248D02*
Y176886D01*
Y154248D02*
Y176886D01*
Y154248D02*
X533488D01*
X504354D02*
X533488D01*
Y167437D01*
Y154248D02*
Y167437D01*
D11*
X277075Y344858D02*
X276337Y345285D01*
Y344432D01*
X277075Y344858D01*
X417524Y344890D02*
X416785Y345316D01*
Y344464D01*
X417524Y344890D01*
X487575Y344858D02*
X486837Y345285D01*
Y344432D01*
X487575Y344858D01*
X557575D02*
X556837Y345285D01*
Y344432D01*
X557575Y344858D01*
X347524Y344921D02*
X346785Y345347D01*
Y344495D01*
X347524Y344921D01*
D12*
X552595Y210236D02*
X554169D01*
X547870Y205512D02*
X552595Y210236D01*
X547870Y189370D02*
Y205512D01*
Y189370D02*
X554169D01*
X562831Y210236D02*
X564405D01*
X569130Y205512D01*
Y189370D02*
Y205512D01*
X562831Y189370D02*
X569130D01*
X373110Y251705D02*
X386890D01*
X373110D02*
Y277295D01*
X386890D01*
Y251705D02*
Y277295D01*
X391024Y252098D02*
X395748D01*
X353146Y258701D02*
Y271299D01*
X333854Y258701D02*
X353146D01*
X333854D02*
Y271299D01*
X353146D01*
X353658Y272677D02*
Y278681D01*
X280874Y302000D02*
X310138D01*
X280874Y300126D02*
Y302000D01*
X310138Y296500D02*
Y302000D01*
X280874Y289000D02*
Y290874D01*
X309374Y296500D02*
X310138D01*
X309374D02*
Y302000D01*
Y289000D02*
Y294500D01*
X310138D01*
X280874Y289000D02*
X310138D01*
Y294500D01*
X296949Y293531D02*
Y297468D01*
X294193Y297075D02*
X296949Y295500D01*
X294193Y293531D02*
X296949Y295500D01*
X294193Y293531D02*
Y297075D01*
X296949Y295500D02*
X297342D01*
X293406D02*
X294193D01*
X352000Y302000D02*
X381264D01*
X352000Y300126D02*
Y302000D01*
X381264Y296500D02*
Y302000D01*
X352000Y289000D02*
Y290874D01*
X380500Y296500D02*
X381264D01*
X380500D02*
Y302000D01*
Y289000D02*
Y294500D01*
X381264D01*
X352000Y289000D02*
X381264D01*
Y294500D01*
X368075Y293531D02*
Y297468D01*
X365319Y297075D02*
X368075Y295500D01*
X365319Y293531D02*
X368075Y295500D01*
X365319Y293531D02*
Y297075D01*
X368075Y295500D02*
X368468D01*
X364531D02*
X365319D01*
X421874Y302000D02*
X451138D01*
X421874Y300126D02*
Y302000D01*
X451138Y296500D02*
Y302000D01*
X421874Y289000D02*
Y290874D01*
X450374Y296500D02*
X451138D01*
X450374D02*
Y302000D01*
Y289000D02*
Y294500D01*
X451138D01*
X421874Y289000D02*
X451138D01*
Y294500D01*
X437949Y293531D02*
Y297468D01*
X435193Y297075D02*
X437949Y295500D01*
X435193Y293531D02*
X437949Y295500D01*
X435193Y293531D02*
Y297075D01*
X437949Y295500D02*
X438343D01*
X434406D02*
X435193D01*
X504531D02*
X505319D01*
X508075D02*
X508468D01*
X505319Y293531D02*
Y297075D01*
Y293531D02*
X508075Y295500D01*
X505319Y297075D02*
X508075Y295500D01*
Y293531D02*
Y297468D01*
X521264Y289000D02*
Y294500D01*
X492000Y289000D02*
X521264D01*
X520500Y294500D02*
X521264D01*
X520500Y289000D02*
Y294500D01*
Y296500D02*
Y302000D01*
Y296500D02*
X521264D01*
X492000Y289000D02*
Y290874D01*
X521264Y296500D02*
Y302000D01*
X492000Y300126D02*
Y302000D01*
X521264D01*
X515416Y285343D02*
X529984D01*
Y265657D02*
Y285343D01*
X515416Y265657D02*
X529984D01*
X515416D02*
Y285343D01*
X508231Y286720D02*
X514039D01*
X326236Y177598D02*
X326630D01*
Y152402D02*
Y177598D01*
X305370Y152402D02*
X326630D01*
X305370D02*
Y177598D01*
X326236D01*
X318500Y153500D02*
X323500D01*
X317500Y152402D02*
X318500Y153500D01*
X323500D02*
X324500Y152402D01*
X313500Y153500D02*
X314500Y152402D01*
X307500D02*
X308500Y153500D01*
X313500D01*
X278146Y258701D02*
Y271299D01*
X258854Y258701D02*
X278146D01*
X258854D02*
Y271299D01*
X278146D01*
X278658Y272677D02*
Y278681D01*
X548181Y295500D02*
X548969D01*
X545031D02*
X545425D01*
X548181Y293925D02*
Y297468D01*
X545425Y295500D02*
X548181Y297468D01*
X545425Y295500D02*
X548181Y293925D01*
X545425Y293531D02*
Y297468D01*
X532236Y296500D02*
Y302000D01*
X561500D01*
X532236Y296500D02*
X533000D01*
Y302000D01*
Y289000D02*
Y294500D01*
X532236D02*
X533000D01*
X561500Y300126D02*
Y302000D01*
X532236Y289000D02*
Y294500D01*
X561500Y289000D02*
Y290874D01*
X532236Y289000D02*
X561500D01*
X303658Y272677D02*
Y278681D01*
X283854Y271299D02*
X303146D01*
X283854Y258701D02*
Y271299D01*
Y258701D02*
X303146D01*
Y271299D01*
X328658Y272677D02*
Y278681D01*
X308854Y271299D02*
X328146D01*
X308854Y258701D02*
Y271299D01*
Y258701D02*
X328146D01*
Y271299D01*
X605500Y184500D02*
Y189500D01*
Y184500D02*
X606598Y183500D01*
X605500Y189500D02*
X606598Y190500D01*
X605500Y199500D02*
X606598Y200500D01*
X605500Y194500D02*
X606598Y193500D01*
X605500Y194500D02*
Y199500D01*
X581402Y181370D02*
Y202236D01*
Y181370D02*
X606598D01*
Y202630D01*
X581402D02*
X606598D01*
X581402Y202236D02*
Y202630D01*
X267500Y153500D02*
X272500D01*
X266500Y152402D02*
X267500Y153500D01*
X272500D02*
X273500Y152402D01*
X282500Y153500D02*
X283500Y152402D01*
X276500D02*
X277500Y153500D01*
X282500D01*
X264370Y177598D02*
X285236D01*
X264370Y152402D02*
Y177598D01*
Y152402D02*
X285630D01*
Y177598D01*
X285236D02*
X285630D01*
X349000Y153500D02*
X354000D01*
X348000Y152402D02*
X349000Y153500D01*
X354000D02*
X355000Y152402D01*
X364000Y153500D02*
X365000Y152402D01*
X358000D02*
X359000Y153500D01*
X364000D01*
X345870Y177598D02*
X366736D01*
X345870Y152402D02*
Y177598D01*
Y152402D02*
X367130D01*
Y177598D01*
X366736D02*
X367130D01*
X552595Y174201D02*
X554169D01*
X547870Y169476D02*
X552595Y174201D01*
X547870Y153335D02*
Y169476D01*
Y153335D02*
X554169D01*
X562831Y174201D02*
X564405D01*
X569130Y169476D01*
Y153335D02*
Y169476D01*
X562831Y153335D02*
X569130D01*
X605500Y154000D02*
Y159000D01*
Y154000D02*
X606598Y153000D01*
X605500Y159000D02*
X606598Y160000D01*
X605500Y169000D02*
X606598Y170000D01*
X605500Y164000D02*
X606598Y163000D01*
X605500Y164000D02*
Y169000D01*
X581402Y150870D02*
Y171736D01*
Y150870D02*
X606598D01*
Y172130D01*
X581402D02*
X606598D01*
X581402Y171736D02*
Y172130D01*
D13*
X412459Y255500D02*
Y256256D01*
X402459D02*
X412459D01*
X402459Y255500D02*
Y256256D01*
Y250744D02*
Y251500D01*
Y250744D02*
X412459D01*
Y251500D01*
X407459Y250744D02*
Y256256D01*
X412500Y262300D02*
Y263056D01*
X402500D02*
X412500D01*
X402500Y262300D02*
Y263056D01*
Y257544D02*
Y258300D01*
Y257544D02*
X412500D01*
Y258300D01*
X407500Y257544D02*
Y263056D01*
X407900Y264244D02*
Y269756D01*
X413412Y264244D02*
Y265425D01*
X402388Y264244D02*
X413412D01*
X402388D02*
Y265425D01*
Y268575D02*
Y269756D01*
X413412D01*
Y268575D02*
Y269756D01*
X407900Y271044D02*
Y276556D01*
X413412Y271044D02*
Y272225D01*
X402388Y271044D02*
X413412D01*
X402388D02*
Y272225D01*
Y275375D02*
Y276556D01*
X413412D01*
Y275375D02*
Y276556D01*
X312075Y306988D02*
X313256D01*
Y318012D01*
X312075D02*
X313256D01*
X307744D02*
X308925D01*
X307744Y306988D02*
Y318012D01*
Y306988D02*
X308925D01*
X307744Y312500D02*
X313256D01*
X306000Y317449D02*
Y318205D01*
X296000D02*
X306000D01*
X296000Y317449D02*
Y318205D01*
Y312693D02*
Y313449D01*
Y312693D02*
X306000D01*
Y313449D01*
X301000Y312693D02*
Y318205D01*
X293500Y307949D02*
X294256D01*
Y317949D01*
X293500D02*
X294256D01*
X288744D02*
X289500D01*
X288744Y307949D02*
Y317949D01*
Y307949D02*
X289500D01*
X288744Y312949D02*
X294256D01*
X278244Y312791D02*
X283756D01*
X278244Y307279D02*
X279425D01*
X278244D02*
Y318303D01*
X279425D01*
X282575D02*
X283756D01*
Y307279D02*
Y318303D01*
X282575Y307279D02*
X283756D01*
X353024Y307343D02*
X354205D01*
Y318366D01*
X353024D02*
X354205D01*
X348693D02*
X349874D01*
X348693Y307343D02*
Y318366D01*
Y307343D02*
X349874D01*
X348693Y312854D02*
X354205D01*
X359193Y313012D02*
X364705D01*
X359193Y308012D02*
X359949D01*
X359193D02*
Y318012D01*
X359949D01*
X363949D02*
X364705D01*
Y308012D02*
Y318012D01*
X363949Y308012D02*
X364705D01*
X399937Y351724D02*
Y352906D01*
Y351724D02*
X410961D01*
Y352906D01*
Y356055D02*
Y357236D01*
X399937D02*
X410961D01*
X399937Y356055D02*
Y357236D01*
X405449Y351724D02*
Y357236D01*
X406449Y337224D02*
Y342736D01*
X411449Y337224D02*
Y337980D01*
X401449Y337224D02*
X411449D01*
X401449D02*
Y337980D01*
Y341980D02*
Y342736D01*
X411449D01*
Y341980D02*
Y342736D01*
X452575Y307146D02*
X453756D01*
Y318169D01*
X452575D02*
X453756D01*
X448244D02*
X449425D01*
X448244Y307146D02*
Y318169D01*
Y307146D02*
X449425D01*
X448244Y312657D02*
X453756D01*
X441449Y312724D02*
Y318236D01*
X436449Y317480D02*
Y318236D01*
X446449D01*
Y317480D02*
Y318236D01*
Y312724D02*
Y313480D01*
X436449Y312724D02*
X446449D01*
X436449D02*
Y313480D01*
X429193Y312980D02*
X434705D01*
X429193Y307980D02*
X429949D01*
X429193D02*
Y317980D01*
X429949D01*
X433949D02*
X434705D01*
Y307980D02*
Y317980D01*
X433949Y307980D02*
X434705D01*
X423024Y307311D02*
X424205D01*
Y318335D01*
X423024D02*
X424205D01*
X418693D02*
X419874D01*
X418693Y307311D02*
Y318335D01*
Y307311D02*
X419874D01*
X418693Y312823D02*
X424205D01*
X469988Y351693D02*
Y352874D01*
Y351693D02*
X481012D01*
Y352874D01*
Y356024D02*
Y357205D01*
X469988D02*
X481012D01*
X469988Y356024D02*
Y357205D01*
X475500Y351693D02*
Y357205D01*
X476500Y337193D02*
Y342705D01*
X481500Y337193D02*
Y337949D01*
X471500Y337193D02*
X481500D01*
X471500D02*
Y337949D01*
Y341949D02*
Y342705D01*
X481500D01*
Y341949D02*
Y342705D01*
X493075Y307279D02*
X494256D01*
Y318303D01*
X493075D02*
X494256D01*
X488744D02*
X489925D01*
X488744Y307279D02*
Y318303D01*
Y307279D02*
X489925D01*
X488744Y312791D02*
X494256D01*
X522575Y307146D02*
X523756D01*
Y318169D01*
X522575D02*
X523756D01*
X518244D02*
X519425D01*
X518244Y307146D02*
Y318169D01*
Y307146D02*
X519425D01*
X518244Y312657D02*
X523756D01*
X511500Y312693D02*
Y318205D01*
X516500Y312693D02*
Y313449D01*
X506500Y312693D02*
X516500D01*
X506500D02*
Y313449D01*
Y317449D02*
Y318205D01*
X516500D01*
Y317449D02*
Y318205D01*
X499244Y312949D02*
X504756D01*
X499244Y307949D02*
X500000D01*
X499244D02*
Y317949D01*
X500000D01*
X504000D02*
X504756D01*
Y307949D02*
Y317949D01*
X504000Y307949D02*
X504756D01*
X558744Y263659D02*
X559500D01*
X558744Y253659D02*
Y263659D01*
Y253659D02*
X559500D01*
X563500D02*
X564256D01*
Y263659D01*
X563500D02*
X564256D01*
X558744Y258659D02*
X564256D01*
X542800Y266444D02*
Y267200D01*
Y266444D02*
X552800D01*
Y267200D01*
Y271200D02*
Y271956D01*
X542800D02*
X552800D01*
X542800Y271200D02*
Y271956D01*
X547800Y266444D02*
Y271956D01*
Y273544D02*
Y279056D01*
X542800Y278300D02*
Y279056D01*
X552800D01*
Y278300D02*
Y279056D01*
Y273544D02*
Y274300D01*
X542800Y273544D02*
X552800D01*
X542800D02*
Y274300D01*
X553612Y285675D02*
Y286856D01*
X542588D02*
X553612D01*
X542588Y285675D02*
Y286856D01*
Y281344D02*
Y282525D01*
Y281344D02*
X553612D01*
Y282525D01*
X548100Y281344D02*
Y286856D01*
X592575Y307331D02*
X593756D01*
Y318354D01*
X592575D02*
X593756D01*
X588244D02*
X589425D01*
X588244Y307331D02*
Y318354D01*
Y307331D02*
X589425D01*
X588244Y312842D02*
X593756D01*
X581500Y312693D02*
Y318205D01*
X586500Y312693D02*
Y313449D01*
X576500Y312693D02*
X586500D01*
X576500D02*
Y313449D01*
Y317449D02*
Y318205D01*
X586500D01*
Y317449D02*
Y318205D01*
X569244Y312949D02*
X574756D01*
X569244Y307949D02*
X570000D01*
X569244D02*
Y317949D01*
X570000D01*
X574000D02*
X574756D01*
Y307949D02*
Y317949D01*
X574000Y307949D02*
X574756D01*
X563075Y307279D02*
X564256D01*
Y318303D01*
X563075D02*
X564256D01*
X558744D02*
X559925D01*
X558744Y307279D02*
Y318303D01*
Y307279D02*
X559925D01*
X558744Y312791D02*
X564256D01*
X460244Y395342D02*
X465756D01*
X460244Y389831D02*
X461425D01*
X460244D02*
Y400854D01*
X461425D01*
X464575D02*
X465756D01*
Y389831D02*
Y400854D01*
X464575Y389831D02*
X465756D01*
X460244Y429500D02*
X465756D01*
X460244Y423988D02*
X461425D01*
X460244D02*
Y435012D01*
X461425D01*
X464575D02*
X465756D01*
Y423988D02*
Y435012D01*
X464575Y423988D02*
X465756D01*
X521500Y359193D02*
Y364705D01*
X527012Y359193D02*
Y360374D01*
X515988Y359193D02*
X527012D01*
X515988D02*
Y360374D01*
Y363524D02*
Y364705D01*
X527012D01*
Y363524D02*
Y364705D01*
X499744Y362992D02*
X505256D01*
X499744Y356693D02*
X500500D01*
X499744D02*
Y369291D01*
X500500D01*
X504500D02*
X505256D01*
Y356693D02*
Y369291D01*
X504500Y356693D02*
X505256D01*
X266000Y337193D02*
Y342705D01*
X271000Y337193D02*
Y337949D01*
X261000Y337193D02*
X271000D01*
X261000D02*
Y337949D01*
Y341949D02*
Y342705D01*
X271000D01*
Y341949D02*
Y342705D01*
X289244Y362992D02*
X294756D01*
X289244Y356693D02*
X290000D01*
X289244D02*
Y369291D01*
X290000D01*
X294000D02*
X294756D01*
Y356693D02*
Y369291D01*
X294000Y356693D02*
X294756D01*
X281244Y362992D02*
X286756D01*
X281244Y356693D02*
X282000D01*
X281244D02*
Y369291D01*
X282000D01*
X286000D02*
X286756D01*
Y356693D02*
Y369291D01*
X286000Y356693D02*
X286756D01*
X258744Y335803D02*
X259925D01*
X258744Y324780D02*
Y335803D01*
Y324780D02*
X259925D01*
X263075D02*
X264256D01*
Y335803D01*
X263075D02*
X264256D01*
X258744Y330291D02*
X264256D01*
X265744Y335803D02*
X266925D01*
X265744Y324780D02*
Y335803D01*
Y324780D02*
X266925D01*
X270075D02*
X271256D01*
Y335803D01*
X270075D02*
X271256D01*
X265744Y330291D02*
X271256D01*
X300575Y357279D02*
X301756D01*
Y368303D01*
X300575D02*
X301756D01*
X296244D02*
X297425D01*
X296244Y357279D02*
Y368303D01*
Y357279D02*
X297425D01*
X296244Y362791D02*
X301756D01*
X278575Y357437D02*
X279756D01*
Y368461D01*
X278575D02*
X279756D01*
X274244D02*
X275425D01*
X274244Y357437D02*
Y368461D01*
Y357437D02*
X275425D01*
X274244Y362949D02*
X279756D01*
X259488Y351693D02*
Y352874D01*
Y351693D02*
X270512D01*
Y352874D01*
Y356024D02*
Y357205D01*
X259488D02*
X270512D01*
X259488Y356024D02*
Y357205D01*
X265000Y351693D02*
Y357205D01*
X316512Y356024D02*
Y357205D01*
X305488D02*
X316512D01*
X305488Y356024D02*
Y357205D01*
Y351693D02*
Y352874D01*
Y351693D02*
X316512D01*
Y352874D01*
X311000Y351693D02*
Y357205D01*
Y359193D02*
Y364705D01*
X316512Y359193D02*
Y360374D01*
X305488Y359193D02*
X316512D01*
X305488D02*
Y360374D01*
Y363524D02*
Y364705D01*
X316512D01*
Y363524D02*
Y364705D01*
X546244Y330291D02*
X551756D01*
X550575Y335803D02*
X551756D01*
Y324780D02*
Y335803D01*
X550575Y324780D02*
X551756D01*
X546244D02*
X547425D01*
X546244D02*
Y335803D01*
X547425D01*
X539244Y330291D02*
X544756D01*
X543575Y335803D02*
X544756D01*
Y324780D02*
Y335803D01*
X543575Y324780D02*
X544756D01*
X539244D02*
X540425D01*
X539244D02*
Y335803D01*
X540425D01*
X591500Y351693D02*
Y357205D01*
X597012Y351693D02*
Y352874D01*
X585988Y351693D02*
X597012D01*
X585988D02*
Y352874D01*
Y356024D02*
Y357205D01*
X597012D01*
Y356024D02*
Y357205D01*
Y363524D02*
Y364705D01*
X585988D02*
X597012D01*
X585988Y363524D02*
Y364705D01*
Y359193D02*
Y360374D01*
Y359193D02*
X597012D01*
Y360374D01*
X591500Y359193D02*
Y364705D01*
X545500Y351693D02*
Y357205D01*
X539988Y356024D02*
Y357205D01*
X551012D01*
Y356024D02*
Y357205D01*
Y351693D02*
Y352874D01*
X539988Y351693D02*
X551012D01*
X539988D02*
Y352874D01*
X554744Y362949D02*
X560256D01*
X554744Y357437D02*
X555925D01*
X554744D02*
Y368461D01*
X555925D01*
X559075D02*
X560256D01*
Y357437D02*
Y368461D01*
X559075Y357437D02*
X560256D01*
X576744Y362791D02*
X582256D01*
X576744Y357279D02*
X577925D01*
X576744D02*
Y368303D01*
X577925D01*
X581075D02*
X582256D01*
Y357279D02*
Y368303D01*
X581075Y357279D02*
X582256D01*
X566500Y356693D02*
X567256D01*
Y369291D01*
X566500D02*
X567256D01*
X561744D02*
X562500D01*
X561744Y356693D02*
Y369291D01*
Y356693D02*
X562500D01*
X561744Y362992D02*
X567256D01*
X574500Y356693D02*
X575256D01*
Y369291D01*
X574500D02*
X575256D01*
X569744D02*
X570500D01*
X569744Y356693D02*
Y369291D01*
Y356693D02*
X570500D01*
X569744Y362992D02*
X575256D01*
X551500Y341949D02*
Y342705D01*
X541500D02*
X551500D01*
X541500Y341949D02*
Y342705D01*
Y337193D02*
Y337949D01*
Y337193D02*
X551500D01*
Y337949D01*
X546500Y337193D02*
Y342705D01*
X476244Y330291D02*
X481756D01*
X480575Y335803D02*
X481756D01*
Y324780D02*
Y335803D01*
X480575Y324780D02*
X481756D01*
X476244D02*
X477425D01*
X476244D02*
Y335803D01*
X477425D01*
X469244Y330291D02*
X474756D01*
X473575Y335803D02*
X474756D01*
Y324780D02*
Y335803D01*
X473575Y324780D02*
X474756D01*
X469244D02*
X470425D01*
X469244D02*
Y335803D01*
X470425D01*
X521500Y351693D02*
Y357205D01*
X527012Y351693D02*
Y352874D01*
X515988Y351693D02*
X527012D01*
X515988D02*
Y352874D01*
Y356024D02*
Y357205D01*
X527012D01*
Y356024D02*
Y357205D01*
X496500Y356693D02*
X497256D01*
Y369291D01*
X496500D02*
X497256D01*
X491744D02*
X492500D01*
X491744Y356693D02*
Y369291D01*
Y356693D02*
X492500D01*
X491744Y362992D02*
X497256D01*
X506744Y362791D02*
X512256D01*
X506744Y357279D02*
X507925D01*
X506744D02*
Y368303D01*
X507925D01*
X511075D02*
X512256D01*
Y357279D02*
Y368303D01*
X511075Y357279D02*
X512256D01*
X484744Y362949D02*
X490256D01*
X484744Y357437D02*
X485925D01*
X484744D02*
Y368461D01*
X485925D01*
X489075D02*
X490256D01*
Y357437D02*
Y368461D01*
X489075Y357437D02*
X490256D01*
X434449Y356724D02*
X435205D01*
Y369323D01*
X434449D02*
X435205D01*
X429693D02*
X430449D01*
X429693Y356724D02*
Y369323D01*
Y356724D02*
X430449D01*
X429693Y363024D02*
X435205D01*
X426449Y356724D02*
X427205D01*
Y369323D01*
X426449D02*
X427205D01*
X421693D02*
X422449D01*
X421693Y356724D02*
Y369323D01*
Y356724D02*
X422449D01*
X421693Y363024D02*
X427205D01*
X399193Y330323D02*
X404705D01*
X403524Y335835D02*
X404705D01*
Y324811D02*
Y335835D01*
X403524Y324811D02*
X404705D01*
X399193D02*
X400374D01*
X399193D02*
Y335835D01*
X400374D01*
X406193Y330323D02*
X411705D01*
X410524Y335835D02*
X411705D01*
Y324811D02*
Y335835D01*
X410524Y324811D02*
X411705D01*
X406193D02*
X407374D01*
X406193D02*
Y335835D01*
X407374D01*
X436693Y362823D02*
X442205D01*
X436693Y357311D02*
X437874D01*
X436693D02*
Y368335D01*
X437874D01*
X441024D02*
X442205D01*
Y357311D02*
Y368335D01*
X441024Y357311D02*
X442205D01*
X414693Y362980D02*
X420205D01*
X414693Y357469D02*
X415874D01*
X414693D02*
Y368492D01*
X415874D01*
X419024D02*
X420205D01*
Y357469D02*
Y368492D01*
X419024Y357469D02*
X420205D01*
X451449Y351724D02*
Y357236D01*
X456961Y351724D02*
Y352906D01*
X445937Y351724D02*
X456961D01*
X445937D02*
Y352906D01*
Y356055D02*
Y357236D01*
X456961D01*
Y356055D02*
Y357236D01*
Y363555D02*
Y364736D01*
X445937D02*
X456961D01*
X445937Y363555D02*
Y364736D01*
Y359224D02*
Y360405D01*
Y359224D02*
X456961D01*
Y360405D01*
X451449Y359224D02*
Y364736D01*
X344693Y363012D02*
X350205D01*
X344693Y357500D02*
X345874D01*
X344693D02*
Y368524D01*
X345874D01*
X349024D02*
X350205D01*
Y357500D02*
Y368524D01*
X349024Y357500D02*
X350205D01*
X366693Y362854D02*
X372205D01*
X366693Y357343D02*
X367874D01*
X366693D02*
Y368366D01*
X367874D01*
X371024D02*
X372205D01*
Y357343D02*
Y368366D01*
X371024Y357343D02*
X372205D01*
X376449Y317512D02*
Y318268D01*
X366449D02*
X376449D01*
X366449Y317512D02*
Y318268D01*
Y312756D02*
Y313512D01*
Y312756D02*
X376449D01*
Y313512D01*
X371449Y312756D02*
Y318268D01*
X341449Y342012D02*
Y342768D01*
X331449D02*
X341449D01*
X331449Y342012D02*
Y342768D01*
Y337256D02*
Y338012D01*
Y337256D02*
X341449D01*
Y338012D01*
X336449Y337256D02*
Y342768D01*
X364449Y356756D02*
X365205D01*
Y369354D01*
X364449D02*
X365205D01*
X359693D02*
X360449D01*
X359693Y356756D02*
Y369354D01*
Y356756D02*
X360449D01*
X359693Y363055D02*
X365205D01*
X356449Y356756D02*
X357205D01*
Y369354D01*
X356449D02*
X357205D01*
X351693D02*
X352449D01*
X351693Y356756D02*
Y369354D01*
Y356756D02*
X352449D01*
X351693Y363055D02*
X357205D01*
X329193Y330354D02*
X334705D01*
X333524Y335866D02*
X334705D01*
Y324843D02*
Y335866D01*
X333524Y324843D02*
X334705D01*
X329193D02*
X330374D01*
X329193D02*
Y335866D01*
X330374D01*
X336193Y330354D02*
X341705D01*
X340524Y335866D02*
X341705D01*
Y324843D02*
Y335866D01*
X340524Y324843D02*
X341705D01*
X336193D02*
X337374D01*
X336193D02*
Y335866D01*
X337374D01*
X335449Y351756D02*
Y357268D01*
X329937Y356087D02*
Y357268D01*
X340961D01*
Y356087D02*
Y357268D01*
Y351756D02*
Y352937D01*
X329937Y351756D02*
X340961D01*
X329937D02*
Y352937D01*
X381449Y351756D02*
Y357268D01*
X386961Y351756D02*
Y352937D01*
X375937Y351756D02*
X386961D01*
X375937D02*
Y352937D01*
Y356087D02*
Y357268D01*
X386961D01*
Y356087D02*
Y357268D01*
Y363587D02*
Y364768D01*
X375937D02*
X386961D01*
X375937Y363587D02*
Y364768D01*
Y359256D02*
Y360437D01*
Y359256D02*
X386961D01*
Y360437D01*
X381449Y359256D02*
Y364768D01*
X378244Y312657D02*
X383756D01*
X378244Y307146D02*
X379425D01*
X378244D02*
Y318169D01*
X379425D01*
X382575D02*
X383756D01*
Y307146D02*
Y318169D01*
X382575Y307146D02*
X383756D01*
X290244Y427512D02*
X291425D01*
X290244Y416488D02*
Y427512D01*
Y416488D02*
X291425D01*
X294575D02*
X295756D01*
Y427512D01*
X294575D02*
X295756D01*
X290244Y422000D02*
X295756D01*
X580244Y427512D02*
X581425D01*
X580244Y416488D02*
Y427512D01*
Y416488D02*
X581425D01*
X584575D02*
X585756D01*
Y427512D01*
X584575D02*
X585756D01*
X580244Y422000D02*
X585756D01*
X570244Y427512D02*
X571425D01*
X570244Y416488D02*
Y427512D01*
Y416488D02*
X571425D01*
X574575D02*
X575756D01*
Y427512D01*
X574575D02*
X575756D01*
X570244Y422000D02*
X575756D01*
X510244Y427512D02*
X511425D01*
X510244Y416488D02*
Y427512D01*
Y416488D02*
X511425D01*
X514575D02*
X515756D01*
Y427512D01*
X514575D02*
X515756D01*
X510244Y422000D02*
X515756D01*
X500244Y427512D02*
X501425D01*
X500244Y416488D02*
Y427512D01*
Y416488D02*
X501425D01*
X504575D02*
X505756D01*
Y427512D01*
X504575D02*
X505756D01*
X500244Y422000D02*
X505756D01*
X369744Y427669D02*
X370925D01*
X369744Y416646D02*
Y427669D01*
Y416646D02*
X370925D01*
X374075D02*
X375256D01*
Y427669D01*
X374075D02*
X375256D01*
X369744Y422157D02*
X375256D01*
X359744Y427512D02*
X360925D01*
X359744Y416488D02*
Y427512D01*
Y416488D02*
X360925D01*
X364075D02*
X365256D01*
Y427512D01*
X364075D02*
X365256D01*
X359744Y422000D02*
X365256D01*
X299744Y427512D02*
X300925D01*
X299744Y416488D02*
Y427512D01*
Y416488D02*
X300925D01*
X304075D02*
X305256D01*
Y427512D01*
X304075D02*
X305256D01*
X299744Y422000D02*
X305256D01*
X280244Y427512D02*
X281425D01*
X280244Y416488D02*
Y427512D01*
Y416488D02*
X281425D01*
X284575D02*
X285756D01*
Y427512D01*
X284575D02*
X285756D01*
X280244Y422000D02*
X285756D01*
X550244Y427512D02*
X551425D01*
X550244Y416488D02*
Y427512D01*
Y416488D02*
X551425D01*
X554575D02*
X555756D01*
Y427512D01*
X554575D02*
X555756D01*
X550244Y422000D02*
X555756D01*
X560244Y427512D02*
X561425D01*
X560244Y416488D02*
Y427512D01*
Y416488D02*
X561425D01*
X564575D02*
X565756D01*
Y427512D01*
X564575D02*
X565756D01*
X560244Y422000D02*
X565756D01*
X480244Y427512D02*
X481425D01*
X480244Y416488D02*
Y427512D01*
Y416488D02*
X481425D01*
X484575D02*
X485756D01*
Y427512D01*
X484575D02*
X485756D01*
X480244Y422000D02*
X485756D01*
X490244Y427512D02*
X491425D01*
X490244Y416488D02*
Y427512D01*
Y416488D02*
X491425D01*
X494575D02*
X495756D01*
Y427512D01*
X494575D02*
X495756D01*
X490244Y422000D02*
X495756D01*
X394075Y389831D02*
X395256D01*
Y400854D01*
X394075D02*
X395256D01*
X389744D02*
X390925D01*
X389744Y389831D02*
Y400854D01*
Y389831D02*
X390925D01*
X389744Y395342D02*
X395256D01*
X394075Y423831D02*
X395256D01*
Y434854D01*
X394075D02*
X395256D01*
X389744D02*
X390925D01*
X389744Y423831D02*
Y434854D01*
Y423831D02*
X390925D01*
X389744Y429343D02*
X395256D01*
X340244Y427512D02*
X341425D01*
X340244Y416488D02*
Y427512D01*
Y416488D02*
X341425D01*
X344575D02*
X345756D01*
Y427512D01*
X344575D02*
X345756D01*
X340244Y422000D02*
X345756D01*
X350244Y427512D02*
X351425D01*
X350244Y416488D02*
Y427512D01*
Y416488D02*
X351425D01*
X354575D02*
X355756D01*
Y427512D01*
X354575D02*
X355756D01*
X350244Y422000D02*
X355756D01*
X270244Y427512D02*
X271425D01*
X270244Y416488D02*
Y427512D01*
Y416488D02*
X271425D01*
X274575D02*
X275756D01*
Y427512D01*
X274575D02*
X275756D01*
X270244Y422000D02*
X275756D01*
D14*
X546200Y447896D02*
Y441898D01*
X550199D01*
X552198Y445896D02*
Y442897D01*
X553198Y441898D01*
X556197D01*
Y445896D01*
X558196Y441898D02*
Y447896D01*
Y443897D02*
X561195Y445896D01*
X558196Y443897D02*
X561195Y441898D01*
X565194Y445896D02*
X567193D01*
X568193Y444897D01*
Y441898D01*
X565194D01*
X564194Y442897D01*
X565194Y443897D01*
X568193D01*
X570192Y441898D02*
X573191D01*
X574191Y442897D01*
X573191Y443897D01*
X571192D01*
X570192Y444897D01*
X571192Y445896D01*
X574191D01*
X576190D02*
X580189D01*
X576190Y441898D01*
X580189D01*
X546200Y438298D02*
Y432300D01*
X548199Y434299D01*
X550199Y432300D01*
Y438298D01*
X555197Y432300D02*
X553198D01*
X552198Y433300D01*
Y435299D01*
X553198Y436299D01*
X555197D01*
X556197Y435299D01*
Y434299D01*
X552198D01*
X558196Y438298D02*
Y432300D01*
X561195D01*
X562195Y433300D01*
Y434299D01*
Y435299D01*
X561195Y436299D01*
X558196D01*
X567193Y432300D02*
X565194D01*
X564194Y433300D01*
Y435299D01*
X565194Y436299D01*
X567193D01*
X568193Y435299D01*
Y434299D01*
X564194D01*
X570192Y436299D02*
Y432300D01*
Y434299D01*
X571192Y435299D01*
X572192Y436299D01*
X573191D01*
X586187Y432300D02*
X582188D01*
X586187Y436299D01*
Y437298D01*
X585187Y438298D01*
X583188D01*
X582188Y437298D01*
X588186D02*
X589186Y438298D01*
X591186D01*
X592185Y437298D01*
Y433300D01*
X591186Y432300D01*
X589186D01*
X588186Y433300D01*
Y437298D01*
X598183Y432300D02*
X594184D01*
X598183Y436299D01*
Y437298D01*
X597184Y438298D01*
X595184D01*
X594184Y437298D01*
X600182D02*
X601182Y438298D01*
X603182D01*
X604181Y437298D01*
Y436299D01*
X603182Y435299D01*
X602182D01*
X603182D01*
X604181Y434299D01*
Y433300D01*
X603182Y432300D01*
X601182D01*
X600182Y433300D01*
D15*
X519400Y263200D02*
Y262200D01*
X519600Y262000D01*
X520000D01*
X520200Y262200D01*
Y263200D01*
X520600Y262000D02*
X521000D01*
X520800D01*
Y263200D01*
X520600Y263000D01*
X521600Y262000D02*
X522000D01*
X521800D01*
Y263200D01*
X521600Y263000D01*
X257800Y283200D02*
Y282200D01*
X258000Y282000D01*
X258400D01*
X258600Y282200D01*
Y283200D01*
X259000Y282000D02*
X259400D01*
X259200D01*
Y283200D01*
X259000Y283000D01*
X259999D02*
X260199Y283200D01*
X260599D01*
X260799Y283000D01*
Y282200D01*
X260599Y282000D01*
X260199D01*
X259999Y282200D01*
Y283000D01*
X331300Y280100D02*
Y279100D01*
X331500Y278900D01*
X331900D01*
X332100Y279100D01*
Y280100D01*
X332500Y279100D02*
X332700Y278900D01*
X333100D01*
X333300Y279100D01*
Y279900D01*
X333100Y280100D01*
X332700D01*
X332500Y279900D01*
Y279700D01*
X332700Y279500D01*
X333300D01*
X307800Y283200D02*
Y282200D01*
X308000Y282000D01*
X308400D01*
X308600Y282200D01*
Y283200D01*
X309000Y283000D02*
X309200Y283200D01*
X309599D01*
X309799Y283000D01*
Y282800D01*
X309599Y282600D01*
X309799Y282400D01*
Y282200D01*
X309599Y282000D01*
X309200D01*
X309000Y282200D01*
Y282400D01*
X309200Y282600D01*
X309000Y282800D01*
Y283000D01*
X309200Y282600D02*
X309599D01*
X282800Y283200D02*
Y282200D01*
X283000Y282000D01*
X283400D01*
X283600Y282200D01*
Y283200D01*
X284000D02*
X284799D01*
Y283000D01*
X284000Y282200D01*
Y282000D01*
X368200Y278300D02*
Y277300D01*
X368400Y277100D01*
X368800D01*
X369000Y277300D01*
Y278300D01*
X370200D02*
X369800Y278100D01*
X369400Y277700D01*
Y277300D01*
X369600Y277100D01*
X370000D01*
X370200Y277300D01*
Y277500D01*
X370000Y277700D01*
X369400D01*
X487700Y348900D02*
Y347900D01*
X487900Y347700D01*
X488300D01*
X488500Y347900D01*
Y348900D01*
X489700D02*
X488900D01*
Y348300D01*
X489300Y348500D01*
X489500D01*
X489700Y348300D01*
Y347900D01*
X489500Y347700D01*
X489100D01*
X488900Y347900D01*
X347400Y349100D02*
Y348100D01*
X347600Y347900D01*
X348000D01*
X348200Y348100D01*
Y349100D01*
X349200Y347900D02*
Y349100D01*
X348600Y348500D01*
X349400D01*
X557000Y349000D02*
Y348000D01*
X557200Y347800D01*
X557600D01*
X557800Y348000D01*
Y349000D01*
X558200Y348800D02*
X558400Y349000D01*
X558800D01*
X559000Y348800D01*
Y348600D01*
X558800Y348400D01*
X558600D01*
X558800D01*
X559000Y348200D01*
Y348000D01*
X558800Y347800D01*
X558400D01*
X558200Y348000D01*
X417600Y349000D02*
Y348000D01*
X417800Y347800D01*
X418200D01*
X418400Y348000D01*
Y349000D01*
X419600Y347800D02*
X418800D01*
X419600Y348600D01*
Y348800D01*
X419400Y349000D01*
X419000D01*
X418800Y348800D01*
X277900Y348700D02*
Y347700D01*
X278100Y347500D01*
X278500D01*
X278700Y347700D01*
Y348700D01*
X279100Y347500D02*
X279500D01*
X279300D01*
Y348700D01*
X279100Y348500D01*
X539001Y276300D02*
Y277500D01*
X539600D01*
X539800Y277300D01*
Y276900D01*
X539600Y276700D01*
X539001D01*
X539400D02*
X539800Y276300D01*
X540200Y277300D02*
X540400Y277500D01*
X540800D01*
X541000Y277300D01*
Y277100D01*
X540800Y276900D01*
X540600D01*
X540800D01*
X541000Y276700D01*
Y276500D01*
X540800Y276300D01*
X540400D01*
X540200Y276500D01*
X542200Y276300D02*
X541400D01*
X542200Y277100D01*
Y277300D01*
X541999Y277500D01*
X541600D01*
X541400Y277300D01*
X538901Y269700D02*
Y270900D01*
X539500D01*
X539700Y270700D01*
Y270300D01*
X539500Y270100D01*
X538901D01*
X539300D02*
X539700Y269700D01*
X540100Y270700D02*
X540300Y270900D01*
X540700D01*
X540900Y270700D01*
Y270500D01*
X540700Y270300D01*
X540500D01*
X540700D01*
X540900Y270100D01*
Y269900D01*
X540700Y269700D01*
X540300D01*
X540100Y269900D01*
X541300Y269700D02*
X541700D01*
X541500D01*
Y270900D01*
X541300Y270700D01*
X554101Y255500D02*
Y256700D01*
X554700D01*
X554900Y256500D01*
Y256100D01*
X554700Y255900D01*
X554101D01*
X554500D02*
X554900Y255500D01*
X555300Y256500D02*
X555500Y256700D01*
X555900D01*
X556100Y256500D01*
Y256300D01*
X555900Y256100D01*
X555700D01*
X555900D01*
X556100Y255900D01*
Y255700D01*
X555900Y255500D01*
X555500D01*
X555300Y255700D01*
X556500Y256500D02*
X556700Y256700D01*
X557099D01*
X557300Y256500D01*
Y255700D01*
X557099Y255500D01*
X556700D01*
X556500Y255700D01*
Y256500D01*
X397601Y249700D02*
Y250900D01*
X398200D01*
X398400Y250700D01*
Y250300D01*
X398200Y250100D01*
X397601D01*
X398000D02*
X398400Y249700D01*
X399600D02*
X398800D01*
X399600Y250500D01*
Y250700D01*
X399400Y250900D01*
X399000D01*
X398800Y250700D01*
X400000Y249900D02*
X400200Y249700D01*
X400599D01*
X400800Y249900D01*
Y250700D01*
X400599Y250900D01*
X400200D01*
X400000Y250700D01*
Y250500D01*
X400200Y250300D01*
X400800D01*
X397100Y258500D02*
Y259700D01*
X397700D01*
X397900Y259500D01*
Y259100D01*
X397700Y258900D01*
X397100D01*
X397500D02*
X397900Y258500D01*
X399100D02*
X398300D01*
X399100Y259300D01*
Y259500D01*
X398900Y259700D01*
X398500D01*
X398300Y259500D01*
X399500D02*
X399700Y259700D01*
X400100D01*
X400300Y259500D01*
Y259300D01*
X400100Y259100D01*
X400300Y258900D01*
Y258700D01*
X400100Y258500D01*
X399700D01*
X399500Y258700D01*
Y258900D01*
X399700Y259100D01*
X399500Y259300D01*
Y259500D01*
X399700Y259100D02*
X400100D01*
X511100Y319900D02*
Y321100D01*
X511700D01*
X511900Y320900D01*
Y320500D01*
X511700Y320300D01*
X511100D01*
X511500D02*
X511900Y319900D01*
X513100D02*
X512300D01*
X513100Y320700D01*
Y320900D01*
X512900Y321100D01*
X512500D01*
X512300Y320900D01*
X513500Y321100D02*
X514299D01*
Y320900D01*
X513500Y320100D01*
Y319900D01*
X500701Y304500D02*
Y305700D01*
X501300D01*
X501500Y305500D01*
Y305100D01*
X501300Y304900D01*
X500701D01*
X501100D02*
X501500Y304500D01*
X502700D02*
X501900D01*
X502700Y305300D01*
Y305500D01*
X502500Y305700D01*
X502100D01*
X501900Y305500D01*
X503899Y305700D02*
X503500Y305500D01*
X503100Y305100D01*
Y304700D01*
X503300Y304500D01*
X503699D01*
X503899Y304700D01*
Y304900D01*
X503699Y305100D01*
X503100D01*
X371301Y320000D02*
Y321200D01*
X371900D01*
X372100Y321000D01*
Y320600D01*
X371900Y320400D01*
X371301D01*
X371700D02*
X372100Y320000D01*
X373300D02*
X372500D01*
X373300Y320800D01*
Y321000D01*
X373100Y321200D01*
X372700D01*
X372500Y321000D01*
X374500Y321200D02*
X373700D01*
Y320600D01*
X374100Y320800D01*
X374300D01*
X374500Y320600D01*
Y320200D01*
X374300Y320000D01*
X373900D01*
X373700Y320200D01*
X361701Y305200D02*
Y306400D01*
X362300D01*
X362500Y306200D01*
Y305800D01*
X362300Y305600D01*
X361701D01*
X362100D02*
X362500Y305200D01*
X363700D02*
X362900D01*
X363700Y306000D01*
Y306200D01*
X363500Y306400D01*
X363100D01*
X362900Y306200D01*
X364700Y305200D02*
Y306400D01*
X364100Y305800D01*
X364899D01*
X471700Y344100D02*
Y345300D01*
X472300D01*
X472500Y345100D01*
Y344700D01*
X472300Y344500D01*
X471700D01*
X472100D02*
X472500Y344100D01*
X473700D02*
X472900D01*
X473700Y344900D01*
Y345100D01*
X473500Y345300D01*
X473100D01*
X472900Y345100D01*
X474100D02*
X474300Y345300D01*
X474699D01*
X474899Y345100D01*
Y344900D01*
X474699Y344700D01*
X474500D01*
X474699D01*
X474899Y344500D01*
Y344300D01*
X474699Y344100D01*
X474300D01*
X474100Y344300D01*
X330649Y345312D02*
Y346511D01*
X331249D01*
X331449Y346311D01*
Y345912D01*
X331249Y345712D01*
X330649D01*
X331049D02*
X331449Y345312D01*
X332648D02*
X331849D01*
X332648Y346111D01*
Y346311D01*
X332449Y346511D01*
X332049D01*
X331849Y346311D01*
X333848Y345312D02*
X333048D01*
X333848Y346111D01*
Y346311D01*
X333648Y346511D01*
X333248D01*
X333048Y346311D01*
X499600Y372000D02*
Y373200D01*
X500200D01*
X500400Y373000D01*
Y372600D01*
X500200Y372400D01*
X499600D01*
X500000D02*
X500400Y372000D01*
X500800D02*
X501199D01*
X500999D01*
Y373200D01*
X500800Y373000D01*
X501799Y372200D02*
X501999Y372000D01*
X502399D01*
X502599Y372200D01*
Y373000D01*
X502399Y373200D01*
X501999D01*
X501799Y373000D01*
Y372800D01*
X501999Y372600D01*
X502599D01*
X491600Y372000D02*
Y373200D01*
X492200D01*
X492400Y373000D01*
Y372600D01*
X492200Y372400D01*
X491600D01*
X492000D02*
X492400Y372000D01*
X492800D02*
X493199D01*
X493000D01*
Y373200D01*
X492800Y373000D01*
X493799D02*
X493999Y373200D01*
X494399D01*
X494599Y373000D01*
Y372800D01*
X494399Y372600D01*
X494599Y372400D01*
Y372200D01*
X494399Y372000D01*
X493999D01*
X493799Y372200D01*
Y372400D01*
X493999Y372600D01*
X493799Y372800D01*
Y373000D01*
X493999Y372600D02*
X494399D01*
X359049Y372012D02*
Y373211D01*
X359649D01*
X359849Y373011D01*
Y372612D01*
X359649Y372412D01*
X359049D01*
X359449D02*
X359849Y372012D01*
X360249D02*
X360648D01*
X360449D01*
Y373211D01*
X360249Y373011D01*
X361248Y373211D02*
X362048D01*
Y373011D01*
X361248Y372212D01*
Y372012D01*
X350849D02*
Y373211D01*
X351449D01*
X351649Y373011D01*
Y372612D01*
X351449Y372412D01*
X350849D01*
X351249D02*
X351649Y372012D01*
X352049D02*
X352449D01*
X352249D01*
Y373211D01*
X352049Y373011D01*
X353848Y373211D02*
X353448Y373011D01*
X353048Y372612D01*
Y372212D01*
X353248Y372012D01*
X353648D01*
X353848Y372212D01*
Y372412D01*
X353648Y372612D01*
X353048D01*
X581300Y319900D02*
Y321100D01*
X581900D01*
X582100Y320900D01*
Y320500D01*
X581900Y320300D01*
X581300D01*
X581700D02*
X582100Y319900D01*
X582500D02*
X582900D01*
X582700D01*
Y321100D01*
X582500Y320900D01*
X584300Y321100D02*
X583500D01*
Y320500D01*
X583900Y320700D01*
X584100D01*
X584300Y320500D01*
Y320100D01*
X584100Y319900D01*
X583700D01*
X583500Y320100D01*
X570900Y304200D02*
Y305400D01*
X571500D01*
X571700Y305200D01*
Y304800D01*
X571500Y304600D01*
X570900D01*
X571300D02*
X571700Y304200D01*
X572100D02*
X572500D01*
X572300D01*
Y305400D01*
X572100Y305200D01*
X573700Y304200D02*
Y305400D01*
X573100Y304800D01*
X573900D01*
X441001Y319700D02*
Y320900D01*
X441600D01*
X441800Y320700D01*
Y320300D01*
X441600Y320100D01*
X441001D01*
X441400D02*
X441800Y319700D01*
X442200D02*
X442600D01*
X442400D01*
Y320900D01*
X442200Y320700D01*
X443200D02*
X443400Y320900D01*
X443800D01*
X443999Y320700D01*
Y320500D01*
X443800Y320300D01*
X443600D01*
X443800D01*
X443999Y320100D01*
Y319900D01*
X443800Y319700D01*
X443400D01*
X443200Y319900D01*
X431300Y304900D02*
Y306100D01*
X431900D01*
X432100Y305900D01*
Y305500D01*
X431900Y305300D01*
X431300D01*
X431700D02*
X432100Y304900D01*
X432500D02*
X432900D01*
X432700D01*
Y306100D01*
X432500Y305900D01*
X434300Y304900D02*
X433500D01*
X434300Y305700D01*
Y305900D01*
X434100Y306100D01*
X433700D01*
X433500Y305900D01*
X299900Y320100D02*
Y321300D01*
X300500D01*
X300700Y321100D01*
Y320700D01*
X300500Y320500D01*
X299900D01*
X300300D02*
X300700Y320100D01*
X301100D02*
X301500D01*
X301300D01*
Y321300D01*
X301100Y321100D01*
X302100Y320100D02*
X302500D01*
X302300D01*
Y321300D01*
X302100Y321100D01*
X291101Y305200D02*
Y306400D01*
X291700D01*
X291900Y306200D01*
Y305800D01*
X291700Y305600D01*
X291101D01*
X291500D02*
X291900Y305200D01*
X292300D02*
X292700D01*
X292500D01*
Y306400D01*
X292300Y306200D01*
X293300D02*
X293500Y306400D01*
X293900D01*
X294099Y306200D01*
Y305400D01*
X293900Y305200D01*
X293500D01*
X293300Y305400D01*
Y306200D01*
X541300Y345200D02*
Y346400D01*
X541900D01*
X542100Y346200D01*
Y345800D01*
X541900Y345600D01*
X541300D01*
X541700D02*
X542100Y345200D01*
X542500Y345400D02*
X542699Y345200D01*
X543099D01*
X543299Y345400D01*
Y346200D01*
X543099Y346400D01*
X542699D01*
X542500Y346200D01*
Y346000D01*
X542699Y345800D01*
X543299D01*
X402200Y344100D02*
Y345300D01*
X402800D01*
X403000Y345100D01*
Y344700D01*
X402800Y344500D01*
X402200D01*
X402600D02*
X403000Y344100D01*
X403400Y345100D02*
X403600Y345300D01*
X404000D01*
X404200Y345100D01*
Y344900D01*
X404000Y344700D01*
X404200Y344500D01*
Y344300D01*
X404000Y344100D01*
X403600D01*
X403400Y344300D01*
Y344500D01*
X403600Y344700D01*
X403400Y344900D01*
Y345100D01*
X403600Y344700D02*
X404000D01*
X260800Y345200D02*
Y346400D01*
X261400D01*
X261600Y346200D01*
Y345800D01*
X261400Y345600D01*
X260800D01*
X261200D02*
X261600Y345200D01*
X262000Y346400D02*
X262799D01*
Y346200D01*
X262000Y345400D01*
Y345200D01*
X569600Y372000D02*
Y373200D01*
X570200D01*
X570400Y373000D01*
Y372600D01*
X570200Y372400D01*
X569600D01*
X570000D02*
X570400Y372000D01*
X571599Y373200D02*
X571200Y373000D01*
X570800Y372600D01*
Y372200D01*
X570999Y372000D01*
X571399D01*
X571599Y372200D01*
Y372400D01*
X571399Y372600D01*
X570800D01*
X561600Y372000D02*
Y373200D01*
X562200D01*
X562400Y373000D01*
Y372600D01*
X562200Y372400D01*
X561600D01*
X562000D02*
X562400Y372000D01*
X563599Y373200D02*
X562800D01*
Y372600D01*
X563200Y372800D01*
X563399D01*
X563599Y372600D01*
Y372200D01*
X563399Y372000D01*
X562999D01*
X562800Y372200D01*
X429600Y372000D02*
Y373200D01*
X430200D01*
X430400Y373000D01*
Y372600D01*
X430200Y372400D01*
X429600D01*
X430000D02*
X430400Y372000D01*
X431399D02*
Y373200D01*
X430800Y372600D01*
X431599D01*
X421600Y372000D02*
Y373200D01*
X422200D01*
X422400Y373000D01*
Y372600D01*
X422200Y372400D01*
X421600D01*
X422000D02*
X422400Y372000D01*
X422800Y373000D02*
X422999Y373200D01*
X423399D01*
X423599Y373000D01*
Y372800D01*
X423399Y372600D01*
X423200D01*
X423399D01*
X423599Y372400D01*
Y372200D01*
X423399Y372000D01*
X422999D01*
X422800Y372200D01*
X289100Y372000D02*
Y373200D01*
X289700D01*
X289900Y373000D01*
Y372600D01*
X289700Y372400D01*
X289100D01*
X289500D02*
X289900Y372000D01*
X291099D02*
X290300D01*
X291099Y372800D01*
Y373000D01*
X290899Y373200D01*
X290499D01*
X290300Y373000D01*
X281100Y372000D02*
Y373200D01*
X281700D01*
X281900Y373000D01*
Y372600D01*
X281700Y372400D01*
X281100D01*
X281500D02*
X281900Y372000D01*
X282300D02*
X282699D01*
X282500D01*
Y373200D01*
X282300Y373000D01*
X258800Y242000D02*
Y242800D01*
X258600Y243000D01*
X258200D01*
X258000Y242800D01*
Y242000D01*
X258200Y241800D01*
X258600D01*
X258400Y242200D02*
X258800Y241800D01*
X258600D02*
X258800Y242000D01*
X259200Y243000D02*
X260000D01*
Y242800D01*
X259200Y242000D01*
Y241800D01*
X460700Y240500D02*
Y241300D01*
X460500Y241500D01*
X460100D01*
X459900Y241300D01*
Y240500D01*
X460100Y240300D01*
X460500D01*
X460300Y240700D02*
X460700Y240300D01*
X460500D02*
X460700Y240500D01*
X461900Y241500D02*
X461500Y241300D01*
X461100Y240900D01*
Y240500D01*
X461300Y240300D01*
X461700D01*
X461900Y240500D01*
Y240700D01*
X461700Y240900D01*
X461100D01*
X501000Y240700D02*
Y241500D01*
X500800Y241700D01*
X500400D01*
X500200Y241500D01*
Y240700D01*
X500400Y240500D01*
X500800D01*
X500600Y240900D02*
X501000Y240500D01*
X500800D02*
X501000Y240700D01*
X502200Y241700D02*
X501400D01*
Y241100D01*
X501800Y241300D01*
X502000D01*
X502200Y241100D01*
Y240700D01*
X502000Y240500D01*
X501600D01*
X501400Y240700D01*
X379900Y240300D02*
Y241100D01*
X379700Y241300D01*
X379300D01*
X379100Y241100D01*
Y240300D01*
X379300Y240100D01*
X379700D01*
X379500Y240500D02*
X379900Y240100D01*
X379700D02*
X379900Y240300D01*
X380900Y240100D02*
Y241300D01*
X380300Y240700D01*
X381100D01*
X420500Y241500D02*
Y242300D01*
X420300Y242500D01*
X419900D01*
X419700Y242300D01*
Y241500D01*
X419900Y241300D01*
X420300D01*
X420100Y241700D02*
X420500Y241300D01*
X420300D02*
X420500Y241500D01*
X420900Y242300D02*
X421100Y242500D01*
X421500D01*
X421700Y242300D01*
Y242100D01*
X421500Y241900D01*
X421300D01*
X421500D01*
X421700Y241700D01*
Y241500D01*
X421500Y241300D01*
X421100D01*
X420900Y241500D01*
X298300Y239200D02*
Y240000D01*
X298100Y240200D01*
X297700D01*
X297500Y240000D01*
Y239200D01*
X297700Y239000D01*
X298100D01*
X297900Y239400D02*
X298300Y239000D01*
X298100D02*
X298300Y239200D01*
X299500Y239000D02*
X298700D01*
X299500Y239800D01*
Y240000D01*
X299300Y240200D01*
X298900D01*
X298700Y240000D01*
X339200Y240000D02*
Y240800D01*
X339000Y241000D01*
X338600D01*
X338400Y240800D01*
Y240000D01*
X338600Y239800D01*
X339000D01*
X338800Y240200D02*
X339200Y239800D01*
X339000D02*
X339200Y240000D01*
X339600Y239800D02*
X340000D01*
X339800D01*
Y241000D01*
X339600Y240800D01*
X488900Y303900D02*
Y302700D01*
X489500D01*
X489700Y302900D01*
Y303700D01*
X489500Y303900D01*
X488900D01*
X490900D02*
X490100D01*
Y303300D01*
X490500Y303500D01*
X490700D01*
X490900Y303300D01*
Y302900D01*
X490700Y302700D01*
X490300D01*
X490100Y302900D01*
X353100Y305000D02*
Y303800D01*
X353700D01*
X353900Y304000D01*
Y304800D01*
X353700Y305000D01*
X353100D01*
X354900Y303800D02*
Y305000D01*
X354300Y304400D01*
X355100D01*
X532000Y305900D02*
Y304700D01*
X532600D01*
X532800Y304900D01*
Y305700D01*
X532600Y305900D01*
X532000D01*
X533200Y305700D02*
X533399Y305900D01*
X533799D01*
X533999Y305700D01*
Y305500D01*
X533799Y305300D01*
X533600D01*
X533799D01*
X533999Y305100D01*
Y304900D01*
X533799Y304700D01*
X533399D01*
X533200Y304900D01*
X423100Y305000D02*
Y303800D01*
X423700D01*
X423900Y304000D01*
Y304800D01*
X423700Y305000D01*
X423100D01*
X425100Y303800D02*
X424300D01*
X425100Y304600D01*
Y304800D01*
X424900Y305000D01*
X424500D01*
X424300Y304800D01*
X278300Y304100D02*
Y302900D01*
X278900D01*
X279100Y303100D01*
Y303900D01*
X278900Y304100D01*
X278300D01*
X279500Y302900D02*
X279900D01*
X279700D01*
Y304100D01*
X279500Y303900D01*
X581000Y284700D02*
X580800Y284900D01*
X580401D01*
X580201Y284700D01*
Y283900D01*
X580401Y283700D01*
X580800D01*
X581000Y283900D01*
X581400Y283700D02*
Y284900D01*
X582200Y283700D01*
Y284900D01*
X582600Y283700D02*
X583000D01*
X582800D01*
Y284900D01*
X582600Y284700D01*
X584399Y284900D02*
X583999Y284700D01*
X583600Y284300D01*
Y283900D01*
X583800Y283700D01*
X584199D01*
X584399Y283900D01*
Y284100D01*
X584199Y284300D01*
X583600D01*
X460900Y184200D02*
X460700Y184400D01*
X460300D01*
X460100Y184200D01*
Y183400D01*
X460300Y183200D01*
X460700D01*
X460900Y183400D01*
X461300Y183200D02*
Y184400D01*
X462099Y183200D01*
Y184400D01*
X462499Y183200D02*
X462899D01*
X462699D01*
Y184400D01*
X462499Y184200D01*
X464299Y184400D02*
X463499D01*
Y183800D01*
X463899Y184000D01*
X464099D01*
X464299Y183800D01*
Y183400D01*
X464099Y183200D01*
X463699D01*
X463499Y183400D01*
X501200Y184200D02*
X501000Y184400D01*
X500600D01*
X500400Y184200D01*
Y183400D01*
X500600Y183200D01*
X501000D01*
X501200Y183400D01*
X501600Y183200D02*
Y184400D01*
X502399Y183200D01*
Y184400D01*
X502799Y183200D02*
X503199D01*
X502999D01*
Y184400D01*
X502799Y184200D01*
X504399Y183200D02*
Y184400D01*
X503799Y183800D01*
X504599D01*
X379400Y184200D02*
X379200Y184400D01*
X378800D01*
X378600Y184200D01*
Y183400D01*
X378800Y183200D01*
X379200D01*
X379400Y183400D01*
X379800Y183200D02*
Y184400D01*
X380599Y183200D01*
Y184400D01*
X380999Y183200D02*
X381399D01*
X381199D01*
Y184400D01*
X380999Y184200D01*
X381999D02*
X382199Y184400D01*
X382599D01*
X382799Y184200D01*
Y184000D01*
X382599Y183800D01*
X382399D01*
X382599D01*
X382799Y183600D01*
Y183400D01*
X382599Y183200D01*
X382199D01*
X381999Y183400D01*
X541300Y410000D02*
X541101Y410200D01*
X540701D01*
X540501Y410000D01*
Y409200D01*
X540701Y409000D01*
X541101D01*
X541300Y409200D01*
X541700Y409000D02*
Y410200D01*
X542500Y409000D01*
Y410200D01*
X542900Y409000D02*
X543300D01*
X543100D01*
Y410200D01*
X542900Y410000D01*
X544699Y409000D02*
X543900D01*
X544699Y409800D01*
Y410000D01*
X544499Y410200D01*
X544100D01*
X543900Y410000D01*
X472400Y410100D02*
X472200Y410300D01*
X471801D01*
X471601Y410100D01*
Y409300D01*
X471801Y409100D01*
X472200D01*
X472400Y409300D01*
X472800Y409100D02*
Y410300D01*
X473600Y409100D01*
Y410300D01*
X474000Y409100D02*
X474400D01*
X474200D01*
Y410300D01*
X474000Y410100D01*
X475000Y409100D02*
X475399D01*
X475200D01*
Y410300D01*
X475000Y410100D01*
X420200Y184200D02*
X420000Y184400D01*
X419600D01*
X419400Y184200D01*
Y183400D01*
X419600Y183200D01*
X420000D01*
X420200Y183400D01*
X420600Y183200D02*
Y184400D01*
X421399Y183200D01*
Y184400D01*
X421799Y183200D02*
X422199D01*
X421999D01*
Y184400D01*
X421799Y184200D01*
X422799D02*
X422999Y184400D01*
X423399D01*
X423599Y184200D01*
Y183400D01*
X423399Y183200D01*
X422999D01*
X422799Y183400D01*
Y184200D01*
X304000Y183200D02*
X303800Y183400D01*
X303400D01*
X303200Y183200D01*
Y182400D01*
X303400Y182200D01*
X303800D01*
X304000Y182400D01*
X304400Y182200D02*
Y183400D01*
X305199Y182200D01*
Y183400D01*
X305599Y182400D02*
X305799Y182200D01*
X306199D01*
X306399Y182400D01*
Y183200D01*
X306199Y183400D01*
X305799D01*
X305599Y183200D01*
Y183000D01*
X305799Y182800D01*
X306399D01*
X580000Y178100D02*
X579800Y178300D01*
X579400D01*
X579200Y178100D01*
Y177300D01*
X579400Y177100D01*
X579800D01*
X580000Y177300D01*
X580400Y177100D02*
Y178300D01*
X581199Y177100D01*
Y178300D01*
X581599Y178100D02*
X581799Y178300D01*
X582199D01*
X582399Y178100D01*
Y177900D01*
X582199Y177700D01*
X582399Y177500D01*
Y177300D01*
X582199Y177100D01*
X581799D01*
X581599Y177300D01*
Y177500D01*
X581799Y177700D01*
X581599Y177900D01*
Y178100D01*
X581799Y177700D02*
X582199D01*
X403600Y442600D02*
X403400Y442800D01*
X403000D01*
X402801Y442600D01*
Y441800D01*
X403000Y441600D01*
X403400D01*
X403600Y441800D01*
X404000Y441600D02*
Y442800D01*
X404800Y441600D01*
Y442800D01*
X405200D02*
X406000D01*
Y442600D01*
X405200Y441800D01*
Y441600D01*
X401900Y410300D02*
X401700Y410500D01*
X401300D01*
X401100Y410300D01*
Y409500D01*
X401300Y409300D01*
X401700D01*
X401900Y409500D01*
X402300Y409300D02*
Y410500D01*
X403100Y409300D01*
Y410500D01*
X404299D02*
X403900Y410300D01*
X403500Y409900D01*
Y409500D01*
X403700Y409300D01*
X404100D01*
X404299Y409500D01*
Y409700D01*
X404100Y409900D01*
X403500D01*
X344500Y183200D02*
X344300Y183400D01*
X343900D01*
X343700Y183200D01*
Y182400D01*
X343900Y182200D01*
X344300D01*
X344500Y182400D01*
X344900Y182200D02*
Y183400D01*
X345699Y182200D01*
Y183400D01*
X346899D02*
X346099D01*
Y182800D01*
X346499Y183000D01*
X346699D01*
X346899Y182800D01*
Y182400D01*
X346699Y182200D01*
X346299D01*
X346099Y182400D01*
X580000Y208600D02*
X579800Y208800D01*
X579400D01*
X579200Y208600D01*
Y207800D01*
X579400Y207600D01*
X579800D01*
X580000Y207800D01*
X580400Y207600D02*
Y208800D01*
X581199Y207600D01*
Y208800D01*
X582199Y207600D02*
Y208800D01*
X581599Y208200D01*
X582399D01*
X263000Y183200D02*
X262800Y183400D01*
X262400D01*
X262200Y183200D01*
Y182400D01*
X262400Y182200D01*
X262800D01*
X263000Y182400D01*
X263400Y182200D02*
Y183400D01*
X264199Y182200D01*
Y183400D01*
X264599Y183200D02*
X264799Y183400D01*
X265199D01*
X265399Y183200D01*
Y183000D01*
X265199Y182800D01*
X264999D01*
X265199D01*
X265399Y182600D01*
Y182400D01*
X265199Y182200D01*
X264799D01*
X264599Y182400D01*
X331700Y410000D02*
X331500Y410200D01*
X331101D01*
X330901Y410000D01*
Y409200D01*
X331101Y409000D01*
X331500D01*
X331700Y409200D01*
X332100Y409000D02*
Y410200D01*
X332900Y409000D01*
Y410200D01*
X334100Y409000D02*
X333300D01*
X334100Y409800D01*
Y410000D01*
X333899Y410200D01*
X333500D01*
X333300Y410000D01*
X261300Y411000D02*
X261100Y411200D01*
X260700D01*
X260501Y411000D01*
Y410200D01*
X260700Y410000D01*
X261100D01*
X261300Y410200D01*
X261700Y410000D02*
Y411200D01*
X262500Y410000D01*
Y411200D01*
X262900Y410000D02*
X263299D01*
X263100D01*
Y411200D01*
X262900Y411000D01*
X547100Y217400D02*
X546900Y217600D01*
X546500D01*
X546301Y217400D01*
Y216600D01*
X546500Y216400D01*
X546900D01*
X547100Y216600D01*
X547500Y217600D02*
X548300D01*
Y217400D01*
X547500Y216600D01*
Y216400D01*
X548700Y217400D02*
X548900Y217600D01*
X549299D01*
X549500Y217400D01*
Y216600D01*
X549299Y216400D01*
X548900D01*
X548700Y216600D01*
Y217400D01*
X548000Y182200D02*
X547800Y182400D01*
X547400D01*
X547200Y182200D01*
Y181400D01*
X547400Y181200D01*
X547800D01*
X548000Y181400D01*
X549199Y182400D02*
X548800Y182200D01*
X548400Y181800D01*
Y181400D01*
X548599Y181200D01*
X548999D01*
X549199Y181400D01*
Y181600D01*
X548999Y181800D01*
X548400D01*
X549599Y181400D02*
X549799Y181200D01*
X550199D01*
X550399Y181400D01*
Y182200D01*
X550199Y182400D01*
X549799D01*
X549599Y182200D01*
Y182000D01*
X549799Y181800D01*
X550399D01*
X555400Y281800D02*
X555200Y282000D01*
X554801D01*
X554600Y281800D01*
Y281000D01*
X554801Y280800D01*
X555200D01*
X555400Y281000D01*
X556600Y282000D02*
X556200Y281800D01*
X555800Y281400D01*
Y281000D01*
X556000Y280800D01*
X556400D01*
X556600Y281000D01*
Y281200D01*
X556400Y281400D01*
X555800D01*
X557000Y281800D02*
X557200Y282000D01*
X557599D01*
X557799Y281800D01*
Y281600D01*
X557599Y281400D01*
X557799Y281200D01*
Y281000D01*
X557599Y280800D01*
X557200D01*
X557000Y281000D01*
Y281200D01*
X557200Y281400D01*
X557000Y281600D01*
Y281800D01*
X557200Y281400D02*
X557599D01*
X398300Y270300D02*
X398100Y270500D01*
X397701D01*
X397500Y270300D01*
Y269500D01*
X397701Y269300D01*
X398100D01*
X398300Y269500D01*
X399500Y270500D02*
X399100Y270300D01*
X398700Y269900D01*
Y269500D01*
X398900Y269300D01*
X399300D01*
X399500Y269500D01*
Y269700D01*
X399300Y269900D01*
X398700D01*
X399900Y270500D02*
X400700D01*
Y270300D01*
X399900Y269500D01*
Y269300D01*
X398600Y277500D02*
X398400Y277700D01*
X398001D01*
X397800Y277500D01*
Y276700D01*
X398001Y276500D01*
X398400D01*
X398600Y276700D01*
X399800Y277700D02*
X399400Y277500D01*
X399000Y277100D01*
Y276700D01*
X399200Y276500D01*
X399600D01*
X399800Y276700D01*
Y276900D01*
X399600Y277100D01*
X399000D01*
X400999Y277700D02*
X400600Y277500D01*
X400200Y277100D01*
Y276700D01*
X400400Y276500D01*
X400800D01*
X400999Y276700D01*
Y276900D01*
X400800Y277100D01*
X400200D01*
X484900Y319800D02*
X484700Y320000D01*
X484301D01*
X484100Y319800D01*
Y319000D01*
X484301Y318800D01*
X484700D01*
X484900Y319000D01*
X486100Y320000D02*
X485700Y319800D01*
X485300Y319400D01*
Y319000D01*
X485500Y318800D01*
X485900D01*
X486100Y319000D01*
Y319200D01*
X485900Y319400D01*
X485300D01*
X487299Y320000D02*
X486500D01*
Y319400D01*
X486900Y319600D01*
X487100D01*
X487299Y319400D01*
Y319000D01*
X487100Y318800D01*
X486700D01*
X486500Y319000D01*
X345100Y319000D02*
X344900Y319200D01*
X344500D01*
X344301Y319000D01*
Y318200D01*
X344500Y318000D01*
X344900D01*
X345100Y318200D01*
X346300Y319200D02*
X345900Y319000D01*
X345500Y318600D01*
Y318200D01*
X345700Y318000D01*
X346100D01*
X346300Y318200D01*
Y318400D01*
X346100Y318600D01*
X345500D01*
X347300Y318000D02*
Y319200D01*
X346700Y318600D01*
X347499D01*
X550900Y431000D02*
X550700Y431200D01*
X550300D01*
X550100Y431000D01*
Y430200D01*
X550300Y430000D01*
X550700D01*
X550900Y430200D01*
X552099Y431200D02*
X551699Y431000D01*
X551300Y430600D01*
Y430200D01*
X551500Y430000D01*
X551899D01*
X552099Y430200D01*
Y430400D01*
X551899Y430600D01*
X551300D01*
X552499Y431000D02*
X552699Y431200D01*
X553099D01*
X553299Y431000D01*
Y430800D01*
X553099Y430600D01*
X552899D01*
X553099D01*
X553299Y430400D01*
Y430200D01*
X553099Y430000D01*
X552699D01*
X552499Y430200D01*
X560900Y431000D02*
X560700Y431200D01*
X560300D01*
X560100Y431000D01*
Y430200D01*
X560300Y430000D01*
X560700D01*
X560900Y430200D01*
X562099Y431200D02*
X561699Y431000D01*
X561300Y430600D01*
Y430200D01*
X561500Y430000D01*
X561899D01*
X562099Y430200D01*
Y430400D01*
X561899Y430600D01*
X561300D01*
X563299Y430000D02*
X562499D01*
X563299Y430800D01*
Y431000D01*
X563099Y431200D01*
X562699D01*
X562499Y431000D01*
X480900D02*
X480700Y431200D01*
X480300D01*
X480100Y431000D01*
Y430200D01*
X480300Y430000D01*
X480700D01*
X480900Y430200D01*
X482099Y431200D02*
X481700Y431000D01*
X481300Y430600D01*
Y430200D01*
X481499Y430000D01*
X481899D01*
X482099Y430200D01*
Y430400D01*
X481899Y430600D01*
X481300D01*
X482499Y430000D02*
X482899D01*
X482699D01*
Y431200D01*
X482499Y431000D01*
X490900D02*
X490700Y431200D01*
X490300D01*
X490100Y431000D01*
Y430200D01*
X490300Y430000D01*
X490700D01*
X490900Y430200D01*
X492099Y431200D02*
X491700Y431000D01*
X491300Y430600D01*
Y430200D01*
X491500Y430000D01*
X491899D01*
X492099Y430200D01*
Y430400D01*
X491899Y430600D01*
X491300D01*
X492499Y431000D02*
X492699Y431200D01*
X493099D01*
X493299Y431000D01*
Y430200D01*
X493099Y430000D01*
X492699D01*
X492499Y430200D01*
Y431000D01*
X390400Y404300D02*
X390200Y404500D01*
X389800D01*
X389600Y404300D01*
Y403500D01*
X389800Y403300D01*
X390200D01*
X390400Y403500D01*
X391599Y404500D02*
X390800D01*
Y403900D01*
X391199Y404100D01*
X391399D01*
X391599Y403900D01*
Y403500D01*
X391399Y403300D01*
X391000D01*
X390800Y403500D01*
X391999D02*
X392199Y403300D01*
X392599D01*
X392799Y403500D01*
Y404300D01*
X392599Y404500D01*
X392199D01*
X391999Y404300D01*
Y404100D01*
X392199Y403900D01*
X392799D01*
X390400Y438300D02*
X390200Y438500D01*
X389800D01*
X389600Y438300D01*
Y437500D01*
X389800Y437300D01*
X390200D01*
X390400Y437500D01*
X391599Y438500D02*
X390800D01*
Y437900D01*
X391199Y438100D01*
X391399D01*
X391599Y437900D01*
Y437500D01*
X391399Y437300D01*
X391000D01*
X390800Y437500D01*
X391999Y438300D02*
X392199Y438500D01*
X392599D01*
X392799Y438300D01*
Y438100D01*
X392599Y437900D01*
X392799Y437700D01*
Y437500D01*
X392599Y437300D01*
X392199D01*
X391999Y437500D01*
Y437700D01*
X392199Y437900D01*
X391999Y438100D01*
Y438300D01*
X392199Y437900D02*
X392599D01*
X340900Y431000D02*
X340700Y431200D01*
X340300D01*
X340100Y431000D01*
Y430200D01*
X340300Y430000D01*
X340700D01*
X340900Y430200D01*
X342099Y431200D02*
X341300D01*
Y430600D01*
X341700Y430800D01*
X341899D01*
X342099Y430600D01*
Y430200D01*
X341899Y430000D01*
X341499D01*
X341300Y430200D01*
X342499Y431200D02*
X343299D01*
Y431000D01*
X342499Y430200D01*
Y430000D01*
X350900Y431000D02*
X350700Y431200D01*
X350300D01*
X350100Y431000D01*
Y430200D01*
X350300Y430000D01*
X350700D01*
X350900Y430200D01*
X352099Y431200D02*
X351300D01*
Y430600D01*
X351699Y430800D01*
X351899D01*
X352099Y430600D01*
Y430200D01*
X351899Y430000D01*
X351500D01*
X351300Y430200D01*
X353299Y431200D02*
X352899Y431000D01*
X352499Y430600D01*
Y430200D01*
X352699Y430000D01*
X353099D01*
X353299Y430200D01*
Y430400D01*
X353099Y430600D01*
X352499D01*
X270900Y431000D02*
X270700Y431200D01*
X270300D01*
X270100Y431000D01*
Y430200D01*
X270300Y430000D01*
X270700D01*
X270900Y430200D01*
X272099Y431200D02*
X271300D01*
Y430600D01*
X271700Y430800D01*
X271899D01*
X272099Y430600D01*
Y430200D01*
X271899Y430000D01*
X271499D01*
X271300Y430200D01*
X273299Y431200D02*
X272499D01*
Y430600D01*
X272899Y430800D01*
X273099D01*
X273299Y430600D01*
Y430200D01*
X273099Y430000D01*
X272699D01*
X272499Y430200D01*
X280900Y431000D02*
X280700Y431200D01*
X280300D01*
X280100Y431000D01*
Y430200D01*
X280300Y430000D01*
X280700D01*
X280900Y430200D01*
X282099Y431200D02*
X281300D01*
Y430600D01*
X281699Y430800D01*
X281899D01*
X282099Y430600D01*
Y430200D01*
X281899Y430000D01*
X281500D01*
X281300Y430200D01*
X283099Y430000D02*
Y431200D01*
X282499Y430600D01*
X283299D01*
X525900Y318300D02*
X525700Y318500D01*
X525301D01*
X525101Y318300D01*
Y317500D01*
X525301Y317300D01*
X525700D01*
X525900Y317500D01*
X527100Y318500D02*
X526300D01*
Y317900D01*
X526700Y318100D01*
X526900D01*
X527100Y317900D01*
Y317500D01*
X526900Y317300D01*
X526500D01*
X526300Y317500D01*
X527500Y318300D02*
X527700Y318500D01*
X528099D01*
X528300Y318300D01*
Y318100D01*
X528099Y317900D01*
X527900D01*
X528099D01*
X528300Y317700D01*
Y317500D01*
X528099Y317300D01*
X527700D01*
X527500Y317500D01*
X385800Y317300D02*
X385600Y317500D01*
X385201D01*
X385000Y317300D01*
Y316500D01*
X385201Y316300D01*
X385600D01*
X385800Y316500D01*
X387000Y317500D02*
X386200D01*
Y316900D01*
X386600Y317100D01*
X386800D01*
X387000Y316900D01*
Y316500D01*
X386800Y316300D01*
X386400D01*
X386200Y316500D01*
X388199Y316300D02*
X387400D01*
X388199Y317100D01*
Y317300D01*
X388000Y317500D01*
X387600D01*
X387400Y317300D01*
X467200Y337800D02*
X467000Y338000D01*
X466600D01*
X466400Y337800D01*
Y337000D01*
X466600Y336800D01*
X467000D01*
X467200Y337000D01*
X468400Y338000D02*
X467600D01*
Y337400D01*
X468000Y337600D01*
X468200D01*
X468400Y337400D01*
Y337000D01*
X468200Y336800D01*
X467800D01*
X467600Y337000D01*
X468800Y336800D02*
X469200D01*
X469000D01*
Y338000D01*
X468800Y337800D01*
X329200Y322200D02*
X329000Y322400D01*
X328601D01*
X328400Y322200D01*
Y321400D01*
X328601Y321200D01*
X329000D01*
X329200Y321400D01*
X330400Y322400D02*
X329600D01*
Y321800D01*
X330000Y322000D01*
X330200D01*
X330400Y321800D01*
Y321400D01*
X330200Y321200D01*
X329800D01*
X329600Y321400D01*
X330800Y322200D02*
X331000Y322400D01*
X331399D01*
X331599Y322200D01*
Y321400D01*
X331399Y321200D01*
X331000D01*
X330800Y321400D01*
Y322200D01*
X478500Y322300D02*
X478300Y322500D01*
X477901D01*
X477701Y322300D01*
Y321500D01*
X477901Y321300D01*
X478300D01*
X478500Y321500D01*
X479500Y321300D02*
Y322500D01*
X478900Y321900D01*
X479700D01*
X480100Y321500D02*
X480300Y321300D01*
X480699D01*
X480899Y321500D01*
Y322300D01*
X480699Y322500D01*
X480300D01*
X480100Y322300D01*
Y322100D01*
X480300Y321900D01*
X480899D01*
X338649Y322412D02*
X338449Y322612D01*
X338049D01*
X337849Y322412D01*
Y321612D01*
X338049Y321412D01*
X338449D01*
X338649Y321612D01*
X339649Y321412D02*
Y322612D01*
X339049Y322012D01*
X339849D01*
X340249Y322412D02*
X340448Y322612D01*
X340848D01*
X341048Y322412D01*
Y322212D01*
X340848Y322012D01*
X341048Y321812D01*
Y321612D01*
X340848Y321412D01*
X340448D01*
X340249Y321612D01*
Y321812D01*
X340448Y322012D01*
X340249Y322212D01*
Y322412D01*
X340448Y322012D02*
X340848D01*
X580900Y431000D02*
X580700Y431200D01*
X580300D01*
X580100Y431000D01*
Y430200D01*
X580300Y430000D01*
X580700D01*
X580900Y430200D01*
X581899Y430000D02*
Y431200D01*
X581300Y430600D01*
X582099D01*
X582499Y431200D02*
X583299D01*
Y431000D01*
X582499Y430200D01*
Y430000D01*
X570900Y431000D02*
X570700Y431200D01*
X570300D01*
X570100Y431000D01*
Y430200D01*
X570300Y430000D01*
X570700D01*
X570900Y430200D01*
X571899Y430000D02*
Y431200D01*
X571300Y430600D01*
X572099D01*
X573299Y431200D02*
X572899Y431000D01*
X572499Y430600D01*
Y430200D01*
X572699Y430000D01*
X573099D01*
X573299Y430200D01*
Y430400D01*
X573099Y430600D01*
X572499D01*
X510900Y431000D02*
X510700Y431200D01*
X510300D01*
X510100Y431000D01*
Y430200D01*
X510300Y430000D01*
X510700D01*
X510900Y430200D01*
X511899Y430000D02*
Y431200D01*
X511300Y430600D01*
X512099D01*
X513299Y431200D02*
X512499D01*
Y430600D01*
X512899Y430800D01*
X513099D01*
X513299Y430600D01*
Y430200D01*
X513099Y430000D01*
X512699D01*
X512499Y430200D01*
X500900Y431000D02*
X500700Y431200D01*
X500300D01*
X500100Y431000D01*
Y430200D01*
X500300Y430000D01*
X500700D01*
X500900Y430200D01*
X501899Y430000D02*
Y431200D01*
X501300Y430600D01*
X502099D01*
X503099Y430000D02*
Y431200D01*
X502499Y430600D01*
X503299D01*
X461600Y403500D02*
X461400Y403700D01*
X461000D01*
X460801Y403500D01*
Y402700D01*
X461000Y402500D01*
X461400D01*
X461600Y402700D01*
X462600Y402500D02*
Y403700D01*
X462000Y403100D01*
X462800D01*
X463200Y403500D02*
X463400Y403700D01*
X463799D01*
X464000Y403500D01*
Y403300D01*
X463799Y403100D01*
X463600D01*
X463799D01*
X464000Y402900D01*
Y402700D01*
X463799Y402500D01*
X463400D01*
X463200Y402700D01*
X465900Y437600D02*
X465700Y437800D01*
X465301D01*
X465100Y437600D01*
Y436800D01*
X465301Y436600D01*
X465700D01*
X465900Y436800D01*
X466900Y436600D02*
Y437800D01*
X466300Y437200D01*
X467100D01*
X468299Y436600D02*
X467500D01*
X468299Y437400D01*
Y437600D01*
X468099Y437800D01*
X467700D01*
X467500Y437600D01*
X370400Y431200D02*
X370200Y431400D01*
X369800D01*
X369600Y431200D01*
Y430400D01*
X369800Y430200D01*
X370200D01*
X370400Y430400D01*
X371399Y430200D02*
Y431400D01*
X370800Y430800D01*
X371599D01*
X371999Y430200D02*
X372399D01*
X372199D01*
Y431400D01*
X371999Y431200D01*
X360400Y431000D02*
X360200Y431200D01*
X359800D01*
X359600Y431000D01*
Y430200D01*
X359800Y430000D01*
X360200D01*
X360400Y430200D01*
X361399Y430000D02*
Y431200D01*
X360800Y430600D01*
X361599D01*
X361999Y431000D02*
X362199Y431200D01*
X362599D01*
X362799Y431000D01*
Y430200D01*
X362599Y430000D01*
X362199D01*
X361999Y430200D01*
Y431000D01*
X300400D02*
X300200Y431200D01*
X299800D01*
X299600Y431000D01*
Y430200D01*
X299800Y430000D01*
X300200D01*
X300400Y430200D01*
X300800Y431000D02*
X300999Y431200D01*
X301399D01*
X301599Y431000D01*
Y430800D01*
X301399Y430600D01*
X301200D01*
X301399D01*
X301599Y430400D01*
Y430200D01*
X301399Y430000D01*
X300999D01*
X300800Y430200D01*
X301999D02*
X302199Y430000D01*
X302599D01*
X302799Y430200D01*
Y431000D01*
X302599Y431200D01*
X302199D01*
X301999Y431000D01*
Y430800D01*
X302199Y430600D01*
X302799D01*
X290900Y431000D02*
X290700Y431200D01*
X290300D01*
X290100Y431000D01*
Y430200D01*
X290300Y430000D01*
X290700D01*
X290900Y430200D01*
X291300Y431000D02*
X291499Y431200D01*
X291899D01*
X292099Y431000D01*
Y430800D01*
X291899Y430600D01*
X291700D01*
X291899D01*
X292099Y430400D01*
Y430200D01*
X291899Y430000D01*
X291499D01*
X291300Y430200D01*
X292499Y431000D02*
X292699Y431200D01*
X293099D01*
X293299Y431000D01*
Y430800D01*
X293099Y430600D01*
X293299Y430400D01*
Y430200D01*
X293099Y430000D01*
X292699D01*
X292499Y430200D01*
Y430400D01*
X292699Y430600D01*
X292499Y430800D01*
Y431000D01*
X292699Y430600D02*
X293099D01*
X507400Y371800D02*
X507200Y372000D01*
X506800D01*
X506600Y371800D01*
Y371000D01*
X506800Y370800D01*
X507200D01*
X507400Y371000D01*
X507800Y371800D02*
X508000Y372000D01*
X508399D01*
X508599Y371800D01*
Y371600D01*
X508399Y371400D01*
X508200D01*
X508399D01*
X508599Y371200D01*
Y371000D01*
X508399Y370800D01*
X508000D01*
X507800Y371000D01*
X508999Y372000D02*
X509799D01*
Y371800D01*
X508999Y371000D01*
Y370800D01*
X485400Y372000D02*
X485200Y372200D01*
X484800D01*
X484600Y372000D01*
Y371200D01*
X484800Y371000D01*
X485200D01*
X485400Y371200D01*
X485800Y372000D02*
X485999Y372200D01*
X486399D01*
X486599Y372000D01*
Y371800D01*
X486399Y371600D01*
X486200D01*
X486399D01*
X486599Y371400D01*
Y371200D01*
X486399Y371000D01*
X485999D01*
X485800Y371200D01*
X487799Y372200D02*
X487399Y372000D01*
X486999Y371600D01*
Y371200D01*
X487199Y371000D01*
X487599D01*
X487799Y371200D01*
Y371400D01*
X487599Y371600D01*
X486999D01*
X346149Y370912D02*
X345949Y371112D01*
X345549D01*
X345349Y370912D01*
Y370112D01*
X345549Y369912D01*
X345949D01*
X346149Y370112D01*
X346549Y370912D02*
X346749Y371112D01*
X347149D01*
X347349Y370912D01*
Y370712D01*
X347149Y370512D01*
X346949D01*
X347149D01*
X347349Y370312D01*
Y370112D01*
X347149Y369912D01*
X346749D01*
X346549Y370112D01*
X348348Y369912D02*
Y371112D01*
X347749Y370512D01*
X348548D01*
X369649Y370912D02*
X369449Y371112D01*
X369049D01*
X368849Y370912D01*
Y370112D01*
X369049Y369912D01*
X369449D01*
X369649Y370112D01*
X370049Y370912D02*
X370249Y371112D01*
X370649D01*
X370849Y370912D01*
Y370712D01*
X370649Y370512D01*
X370449D01*
X370649D01*
X370849Y370312D01*
Y370112D01*
X370649Y369912D01*
X370249D01*
X370049Y370112D01*
X372048Y371112D02*
X371249D01*
Y370512D01*
X371648Y370712D01*
X371848D01*
X372048Y370512D01*
Y370112D01*
X371848Y369912D01*
X371448D01*
X371249Y370112D01*
X471200Y360000D02*
X471000Y360200D01*
X470601D01*
X470400Y360000D01*
Y359200D01*
X470601Y359000D01*
X471000D01*
X471200Y359200D01*
X471600Y360000D02*
X471800Y360200D01*
X472200D01*
X472400Y360000D01*
Y359800D01*
X472200Y359600D01*
X472000D01*
X472200D01*
X472400Y359400D01*
Y359200D01*
X472200Y359000D01*
X471800D01*
X471600Y359200D01*
X472800Y360000D02*
X473000Y360200D01*
X473399D01*
X473599Y360000D01*
Y359800D01*
X473399Y359600D01*
X473200D01*
X473399D01*
X473599Y359400D01*
Y359200D01*
X473399Y359000D01*
X473000D01*
X472800Y359200D01*
X523200Y349900D02*
X523000Y350100D01*
X522601D01*
X522401Y349900D01*
Y349100D01*
X522601Y348900D01*
X523000D01*
X523200Y349100D01*
X523600Y349900D02*
X523800Y350100D01*
X524200D01*
X524400Y349900D01*
Y349700D01*
X524200Y349500D01*
X524000D01*
X524200D01*
X524400Y349300D01*
Y349100D01*
X524200Y348900D01*
X523800D01*
X523600Y349100D01*
X525599Y348900D02*
X524800D01*
X525599Y349700D01*
Y349900D01*
X525399Y350100D01*
X525000D01*
X524800Y349900D01*
X516700Y368200D02*
X516500Y368400D01*
X516100D01*
X515900Y368200D01*
Y367400D01*
X516100Y367200D01*
X516500D01*
X516700Y367400D01*
X517100Y368200D02*
X517300Y368400D01*
X517699D01*
X517899Y368200D01*
Y368000D01*
X517699Y367800D01*
X517499D01*
X517699D01*
X517899Y367600D01*
Y367400D01*
X517699Y367200D01*
X517300D01*
X517100Y367400D01*
X518299Y367200D02*
X518699D01*
X518499D01*
Y368400D01*
X518299Y368200D01*
X330149Y359912D02*
X329949Y360112D01*
X329549D01*
X329349Y359912D01*
Y359112D01*
X329549Y358912D01*
X329949D01*
X330149Y359112D01*
X330549Y359912D02*
X330749Y360112D01*
X331149D01*
X331349Y359912D01*
Y359712D01*
X331149Y359512D01*
X330949D01*
X331149D01*
X331349Y359312D01*
Y359112D01*
X331149Y358912D01*
X330749D01*
X330549Y359112D01*
X331749Y359912D02*
X331948Y360112D01*
X332348D01*
X332548Y359912D01*
Y359112D01*
X332348Y358912D01*
X331948D01*
X331749Y359112D01*
Y359912D01*
X382800Y349600D02*
X382600Y349800D01*
X382201D01*
X382000Y349600D01*
Y348800D01*
X382201Y348600D01*
X382600D01*
X382800Y348800D01*
X384000Y348600D02*
X383200D01*
X384000Y349400D01*
Y349600D01*
X383800Y349800D01*
X383400D01*
X383200Y349600D01*
X384400Y348800D02*
X384600Y348600D01*
X384999D01*
X385199Y348800D01*
Y349600D01*
X384999Y349800D01*
X384600D01*
X384400Y349600D01*
Y349400D01*
X384600Y349200D01*
X385199D01*
X382149Y366912D02*
X381949Y367112D01*
X381549D01*
X381349Y366912D01*
Y366112D01*
X381549Y365912D01*
X381949D01*
X382149Y366112D01*
X383349Y365912D02*
X382549D01*
X383349Y366712D01*
Y366912D01*
X383149Y367112D01*
X382749D01*
X382549Y366912D01*
X383749D02*
X383948Y367112D01*
X384348D01*
X384548Y366912D01*
Y366712D01*
X384348Y366512D01*
X384548Y366312D01*
Y366112D01*
X384348Y365912D01*
X383948D01*
X383749Y366112D01*
Y366312D01*
X383948Y366512D01*
X383749Y366712D01*
Y366912D01*
X383948Y366512D02*
X384348D01*
X557500Y321100D02*
X557300Y321300D01*
X556901D01*
X556701Y321100D01*
Y320300D01*
X556901Y320100D01*
X557300D01*
X557500Y320300D01*
X558700Y320100D02*
X557900D01*
X558700Y320900D01*
Y321100D01*
X558500Y321300D01*
X558100D01*
X557900Y321100D01*
X559100Y321300D02*
X559900D01*
Y321100D01*
X559100Y320300D01*
Y320100D01*
X276200Y320600D02*
X276000Y320800D01*
X275601D01*
X275400Y320600D01*
Y319800D01*
X275601Y319600D01*
X276000D01*
X276200Y319800D01*
X277400Y319600D02*
X276600D01*
X277400Y320400D01*
Y320600D01*
X277200Y320800D01*
X276800D01*
X276600Y320600D01*
X278600Y320800D02*
X278200Y320600D01*
X277800Y320200D01*
Y319800D01*
X278000Y319600D01*
X278399D01*
X278600Y319800D01*
Y320000D01*
X278399Y320200D01*
X277800D01*
X415200Y319900D02*
X415000Y320100D01*
X414601D01*
X414400Y319900D01*
Y319100D01*
X414601Y318900D01*
X415000D01*
X415200Y319100D01*
X416400Y318900D02*
X415600D01*
X416400Y319700D01*
Y319900D01*
X416200Y320100D01*
X415800D01*
X415600Y319900D01*
X417599Y320100D02*
X416800D01*
Y319500D01*
X417200Y319700D01*
X417400D01*
X417599Y319500D01*
Y319100D01*
X417400Y318900D01*
X417000D01*
X416800Y319100D01*
X595700Y310300D02*
X595500Y310500D01*
X595100D01*
X594901Y310300D01*
Y309500D01*
X595100Y309300D01*
X595500D01*
X595700Y309500D01*
X596900Y309300D02*
X596100D01*
X596900Y310100D01*
Y310300D01*
X596700Y310500D01*
X596300D01*
X596100Y310300D01*
X597899Y309300D02*
Y310500D01*
X597300Y309900D01*
X598100D01*
X537200Y337849D02*
X537000Y338049D01*
X536600D01*
X536401Y337849D01*
Y337049D01*
X536600Y336849D01*
X537000D01*
X537200Y337049D01*
X538400Y336849D02*
X537600D01*
X538400Y337649D01*
Y337849D01*
X538200Y338049D01*
X537800D01*
X537600Y337849D01*
X538800D02*
X539000Y338049D01*
X539399D01*
X539600Y337849D01*
Y337649D01*
X539399Y337449D01*
X539200D01*
X539399D01*
X539600Y337249D01*
Y337049D01*
X539399Y336849D01*
X539000D01*
X538800Y337049D01*
X454100Y320600D02*
X453900Y320800D01*
X453501D01*
X453301Y320600D01*
Y319800D01*
X453501Y319600D01*
X453900D01*
X454100Y319800D01*
X455300Y319600D02*
X454500D01*
X455300Y320400D01*
Y320600D01*
X455100Y320800D01*
X454700D01*
X454500Y320600D01*
X456499Y319600D02*
X455700D01*
X456499Y320400D01*
Y320600D01*
X456299Y320800D01*
X455900D01*
X455700Y320600D01*
X315200Y318100D02*
X315000Y318300D01*
X314600D01*
X314401Y318100D01*
Y317300D01*
X314600Y317100D01*
X315000D01*
X315200Y317300D01*
X316400Y317100D02*
X315600D01*
X316400Y317900D01*
Y318100D01*
X316200Y318300D01*
X315800D01*
X315600Y318100D01*
X316800Y317100D02*
X317199D01*
X317000D01*
Y318300D01*
X316800Y318100D01*
X397700Y338300D02*
X397500Y338500D01*
X397100D01*
X396901Y338300D01*
Y337500D01*
X397100Y337300D01*
X397500D01*
X397700Y337500D01*
X398900Y337300D02*
X398100D01*
X398900Y338100D01*
Y338300D01*
X398700Y338500D01*
X398300D01*
X398100Y338300D01*
X399300D02*
X399500Y338500D01*
X399900D01*
X400100Y338300D01*
Y337500D01*
X399900Y337300D01*
X399500D01*
X399300Y337500D01*
Y338300D01*
X257300Y338349D02*
X257100Y338549D01*
X256700D01*
X256501Y338349D01*
Y337549D01*
X256700Y337349D01*
X257100D01*
X257300Y337549D01*
X257700Y337349D02*
X258100D01*
X257900D01*
Y338549D01*
X257700Y338349D01*
X258700Y337549D02*
X258900Y337349D01*
X259300D01*
X259500Y337549D01*
Y338349D01*
X259300Y338549D01*
X258900D01*
X258700Y338349D01*
Y338149D01*
X258900Y337949D01*
X259500D01*
X548500Y322000D02*
X548300Y322200D01*
X547900D01*
X547701Y322000D01*
Y321200D01*
X547900Y321000D01*
X548300D01*
X548500Y321200D01*
X548900Y321000D02*
X549300D01*
X549100D01*
Y322200D01*
X548900Y322000D01*
X549900D02*
X550100Y322200D01*
X550500D01*
X550700Y322000D01*
Y321800D01*
X550500Y321600D01*
X550700Y321400D01*
Y321200D01*
X550500Y321000D01*
X550100D01*
X549900Y321200D01*
Y321400D01*
X550100Y321600D01*
X549900Y321800D01*
Y322000D01*
X550100Y321600D02*
X550500D01*
X408400Y322000D02*
X408200Y322200D01*
X407800D01*
X407600Y322000D01*
Y321200D01*
X407800Y321000D01*
X408200D01*
X408400Y321200D01*
X408800Y321000D02*
X409200D01*
X409000D01*
Y322200D01*
X408800Y322000D01*
X409800Y322200D02*
X410600D01*
Y322000D01*
X409800Y321200D01*
Y321000D01*
X268200Y321300D02*
X268000Y321500D01*
X267600D01*
X267401Y321300D01*
Y320500D01*
X267600Y320300D01*
X268000D01*
X268200Y320500D01*
X268600Y320300D02*
X269000D01*
X268800D01*
Y321500D01*
X268600Y321300D01*
X270399Y321500D02*
X270000Y321300D01*
X269600Y320900D01*
Y320500D01*
X269800Y320300D01*
X270200D01*
X270399Y320500D01*
Y320700D01*
X270200Y320900D01*
X269600D01*
X577400Y371800D02*
X577200Y372000D01*
X576800D01*
X576600Y371800D01*
Y371000D01*
X576800Y370800D01*
X577200D01*
X577400Y371000D01*
X577800Y370800D02*
X578199D01*
X577999D01*
Y372000D01*
X577800Y371800D01*
X579599Y372000D02*
X578799D01*
Y371400D01*
X579199Y371600D01*
X579399D01*
X579599Y371400D01*
Y371000D01*
X579399Y370800D01*
X578999D01*
X578799Y371000D01*
X555400Y372000D02*
X555200Y372200D01*
X554800D01*
X554600Y372000D01*
Y371200D01*
X554800Y371000D01*
X555200D01*
X555400Y371200D01*
X555800Y371000D02*
X556200D01*
X556000D01*
Y372200D01*
X555800Y372000D01*
X557399Y371000D02*
Y372200D01*
X556799Y371600D01*
X557599D01*
X540700Y360700D02*
X540500Y360900D01*
X540100D01*
X539900Y360700D01*
Y359900D01*
X540100Y359700D01*
X540500D01*
X540700Y359900D01*
X541100Y359700D02*
X541500D01*
X541299D01*
Y360900D01*
X541100Y360700D01*
X542099D02*
X542299Y360900D01*
X542699D01*
X542899Y360700D01*
Y360500D01*
X542699Y360300D01*
X542499D01*
X542699D01*
X542899Y360100D01*
Y359900D01*
X542699Y359700D01*
X542299D01*
X542099Y359900D01*
X592800Y349400D02*
X592600Y349600D01*
X592200D01*
X592000Y349400D01*
Y348600D01*
X592200Y348400D01*
X592600D01*
X592800Y348600D01*
X593200Y348400D02*
X593600D01*
X593400D01*
Y349600D01*
X593200Y349400D01*
X595000Y348400D02*
X594200D01*
X595000Y349200D01*
Y349400D01*
X594800Y349600D01*
X594400D01*
X594200Y349400D01*
X586700Y368200D02*
X586500Y368400D01*
X586100D01*
X585900Y368200D01*
Y367400D01*
X586100Y367200D01*
X586500D01*
X586700Y367400D01*
X587100Y367200D02*
X587500D01*
X587299D01*
Y368400D01*
X587100Y368200D01*
X588099Y367200D02*
X588499D01*
X588299D01*
Y368400D01*
X588099Y368200D01*
X437400Y371800D02*
X437200Y372000D01*
X436800D01*
X436600Y371800D01*
Y371000D01*
X436800Y370800D01*
X437200D01*
X437400Y371000D01*
X437800Y370800D02*
X438200D01*
X437999D01*
Y372000D01*
X437800Y371800D01*
X438799D02*
X438999Y372000D01*
X439399D01*
X439599Y371800D01*
Y371000D01*
X439399Y370800D01*
X438999D01*
X438799Y371000D01*
Y371800D01*
X415400Y372000D02*
X415200Y372200D01*
X414800D01*
X414600Y372000D01*
Y371200D01*
X414800Y371000D01*
X415200D01*
X415400Y371200D01*
X415800D02*
X416000Y371000D01*
X416399D01*
X416599Y371200D01*
Y372000D01*
X416399Y372200D01*
X416000D01*
X415800Y372000D01*
Y371800D01*
X416000Y371600D01*
X416599D01*
X296900Y371800D02*
X296700Y372000D01*
X296300D01*
X296100Y371800D01*
Y371000D01*
X296300Y370800D01*
X296700D01*
X296900Y371000D01*
X297300Y371800D02*
X297499Y372000D01*
X297899D01*
X298099Y371800D01*
Y371600D01*
X297899Y371400D01*
X298099Y371200D01*
Y371000D01*
X297899Y370800D01*
X297499D01*
X297300Y371000D01*
Y371200D01*
X297499Y371400D01*
X297300Y371600D01*
Y371800D01*
X297499Y371400D02*
X297899D01*
X274900Y372000D02*
X274700Y372200D01*
X274300D01*
X274100Y372000D01*
Y371200D01*
X274300Y371000D01*
X274700D01*
X274900Y371200D01*
X275300Y372200D02*
X276099D01*
Y372000D01*
X275300Y371200D01*
Y371000D01*
X400700Y359800D02*
X400500Y360000D01*
X400100D01*
X399900Y359800D01*
Y359000D01*
X400100Y358800D01*
X400500D01*
X400700Y359000D01*
X401900Y360000D02*
X401500Y359800D01*
X401100Y359400D01*
Y359000D01*
X401300Y358800D01*
X401700D01*
X401900Y359000D01*
Y359200D01*
X401700Y359400D01*
X401100D01*
X453600Y349600D02*
X453400Y349800D01*
X453000D01*
X452800Y349600D01*
Y348800D01*
X453000Y348600D01*
X453400D01*
X453600Y348800D01*
X454800Y349800D02*
X454000D01*
Y349200D01*
X454400Y349400D01*
X454600D01*
X454800Y349200D01*
Y348800D01*
X454600Y348600D01*
X454200D01*
X454000Y348800D01*
X260200Y360700D02*
X260000Y360900D01*
X259600D01*
X259400Y360700D01*
Y359900D01*
X259600Y359700D01*
X260000D01*
X260200Y359900D01*
X261199Y359700D02*
Y360900D01*
X260600Y360300D01*
X261399D01*
X313800Y349800D02*
X313600Y350000D01*
X313200D01*
X313000Y349800D01*
Y349000D01*
X313200Y348800D01*
X313600D01*
X313800Y349000D01*
X314200Y349800D02*
X314400Y350000D01*
X314800D01*
X315000Y349800D01*
Y349600D01*
X314800Y349400D01*
X314600D01*
X314800D01*
X315000Y349200D01*
Y349000D01*
X314800Y348800D01*
X314400D01*
X314200Y349000D01*
X446600Y368200D02*
X446400Y368400D01*
X446000D01*
X445800Y368200D01*
Y367400D01*
X446000Y367200D01*
X446400D01*
X446600Y367400D01*
X447799Y367200D02*
X447000D01*
X447799Y368000D01*
Y368200D01*
X447599Y368400D01*
X447199D01*
X447000Y368200D01*
X306200D02*
X306000Y368400D01*
X305600D01*
X305400Y368200D01*
Y367400D01*
X305600Y367200D01*
X306000D01*
X306200Y367400D01*
X306600Y367200D02*
X306999D01*
X306800D01*
Y368400D01*
X306600Y368200D01*
M02*
