G04*
G04 #@! TF.GenerationSoftware,Altium Limited,Altium Designer,23.3.1 (30)*
G04*
G04 Layer_Color=32768*
%FSLAX25Y25*%
%MOIN*%
G70*
G04*
G04 #@! TF.SameCoordinates,D820F0C6-32BC-4761-972E-96396E6F3E69*
G04*
G04*
G04 #@! TF.FilePolarity,Positive*
G04*
G01*
G75*
%ADD10C,0.00394*%
%ADD12C,0.00787*%
%ADD73C,0.00197*%
D10*
X572823Y209728D02*
X609043D01*
Y288862D01*
X572823D02*
X609043D01*
X572823Y209728D02*
Y288862D01*
X299130Y315449D02*
X302870D01*
X301000Y313579D02*
Y317319D01*
X291500Y311079D02*
Y314819D01*
X289630Y312949D02*
X293370D01*
X264130Y339949D02*
X267870D01*
X266000Y338079D02*
Y341819D01*
X292000Y361122D02*
Y364862D01*
X290130Y362992D02*
X293870D01*
X284000Y361122D02*
Y364862D01*
X282130Y362992D02*
X285870D01*
X281000Y310921D02*
Y314661D01*
X279130Y312791D02*
X282870D01*
X261500Y328421D02*
Y332161D01*
X259630Y330291D02*
X263370D01*
X268500Y328421D02*
Y332161D01*
X266630Y330291D02*
X270370D01*
X299000Y360921D02*
Y364661D01*
X297130Y362791D02*
X300870D01*
X277000Y361079D02*
Y364819D01*
X275130Y362949D02*
X278870D01*
X263130Y354449D02*
X266870D01*
X265000Y352579D02*
Y356319D01*
X309130Y354449D02*
X312870D01*
X311000Y352579D02*
Y356319D01*
Y360079D02*
Y363819D01*
X309130Y361949D02*
X312870D01*
X548100Y282230D02*
Y285970D01*
X546230Y284100D02*
X549970D01*
X539917Y380677D02*
X596610D01*
X539917D02*
Y411189D01*
X596610D01*
Y380677D02*
Y411189D01*
X469417Y380677D02*
X526110D01*
X469417D02*
Y411189D01*
X526110D01*
Y380677D02*
Y411189D01*
X399075Y413177D02*
X455768D01*
X399075D02*
Y443689D01*
X455768D01*
Y413177D02*
Y443689D01*
X399417Y380677D02*
X456110D01*
X399417D02*
Y411189D01*
X456110D01*
Y380677D02*
Y411189D01*
X329417Y380677D02*
X386110D01*
X329417D02*
Y411189D01*
X386110D01*
Y380677D02*
Y411189D01*
X259075Y381177D02*
X315768D01*
X259075D02*
Y411689D01*
X315768D01*
Y381177D02*
Y411689D01*
X308630Y312500D02*
X312370D01*
X310500Y310630D02*
Y314370D01*
X547130Y330291D02*
X550870D01*
X549000Y328421D02*
Y332161D01*
X540130Y330291D02*
X543870D01*
X542000Y328421D02*
Y332161D01*
X591500Y352579D02*
Y356319D01*
X589630Y354449D02*
X593370D01*
X589630Y361949D02*
X593370D01*
X591500Y360079D02*
Y363819D01*
X545500Y352579D02*
Y356319D01*
X543630Y354449D02*
X547370D01*
X555630Y362949D02*
X559370D01*
X557500Y361079D02*
Y364819D01*
X577630Y362791D02*
X581370D01*
X579500Y360921D02*
Y364661D01*
X589130Y312842D02*
X592870D01*
X591000Y310972D02*
Y314713D01*
X559630Y312791D02*
X563370D01*
X561500Y310921D02*
Y314661D01*
X562630Y362992D02*
X566370D01*
X564500Y361122D02*
Y364862D01*
X570630Y362992D02*
X574370D01*
X572500Y361122D02*
Y364862D01*
X546500Y338079D02*
Y341819D01*
X544630Y339949D02*
X548370D01*
X570130Y312949D02*
X573870D01*
X572000Y311079D02*
Y314819D01*
X581500Y313579D02*
Y317319D01*
X579630Y315449D02*
X583370D01*
X477130Y330291D02*
X480870D01*
X479000Y328421D02*
Y332161D01*
X470130Y330291D02*
X473870D01*
X472000Y328421D02*
Y332161D01*
X521500Y352579D02*
Y356319D01*
X519630Y354449D02*
X523370D01*
X511500Y313579D02*
Y317319D01*
X509630Y315449D02*
X513370D01*
X500130Y312949D02*
X503870D01*
X502000Y311079D02*
Y314819D01*
X476500Y338079D02*
Y341819D01*
X474630Y339949D02*
X478370D01*
X500630Y362992D02*
X504370D01*
X502500Y361122D02*
Y364862D01*
X492630Y362992D02*
X496370D01*
X494500Y361122D02*
Y364862D01*
X489630Y312791D02*
X493370D01*
X491500Y310921D02*
Y314661D01*
X519130Y312657D02*
X522870D01*
X521000Y310787D02*
Y314528D01*
X507630Y362791D02*
X511370D01*
X509500Y360921D02*
Y364661D01*
X485630Y362949D02*
X489370D01*
X487500Y361079D02*
Y364819D01*
X475500Y352579D02*
Y356319D01*
X473630Y354449D02*
X477370D01*
X519630Y361949D02*
X523370D01*
X521500Y360079D02*
Y363819D01*
X441449Y313610D02*
Y317350D01*
X439579Y315480D02*
X443319D01*
X430079Y312980D02*
X433819D01*
X431949Y311110D02*
Y314850D01*
X406449Y338110D02*
Y341850D01*
X404579Y339980D02*
X408319D01*
X430579Y363024D02*
X434319D01*
X432449Y361154D02*
Y364894D01*
X422579Y363024D02*
X426319D01*
X424449Y361154D02*
Y364894D01*
X419579Y312823D02*
X423319D01*
X421449Y310953D02*
Y314693D01*
X449130Y312657D02*
X452870D01*
X451000Y310787D02*
Y314528D01*
X400079Y330323D02*
X403819D01*
X401949Y328453D02*
Y332193D01*
X407079Y330323D02*
X410819D01*
X408949Y328453D02*
Y332193D01*
X437579Y362823D02*
X441319D01*
X439449Y360953D02*
Y364693D01*
X415579Y362980D02*
X419319D01*
X417449Y361110D02*
Y364850D01*
X405449Y352610D02*
Y356350D01*
X403579Y354480D02*
X407319D01*
X451449Y352610D02*
Y356350D01*
X449579Y354480D02*
X453319D01*
X449579Y361980D02*
X453319D01*
X451449Y360110D02*
Y363850D01*
X345579Y363012D02*
X349319D01*
X347449Y361142D02*
Y364882D01*
X367579Y362854D02*
X371319D01*
X369449Y360984D02*
Y364724D01*
X371449Y313642D02*
Y317382D01*
X369579Y315512D02*
X373319D01*
X360079Y313012D02*
X363819D01*
X361949Y311142D02*
Y314882D01*
X336449Y338142D02*
Y341882D01*
X334579Y340012D02*
X338319D01*
X360579Y363055D02*
X364319D01*
X362449Y361185D02*
Y364925D01*
X352579Y363055D02*
X356319D01*
X354449Y361185D02*
Y364925D01*
X349579Y312854D02*
X353319D01*
X351449Y310984D02*
Y314724D01*
X330079Y330354D02*
X333819D01*
X331949Y328484D02*
Y332224D01*
X337079Y330354D02*
X340819D01*
X338949Y328484D02*
Y332224D01*
X335449Y352642D02*
Y356382D01*
X333579Y354512D02*
X337319D01*
X381449Y352642D02*
Y356382D01*
X379579Y354512D02*
X383319D01*
X379579Y362012D02*
X383319D01*
X381449Y360142D02*
Y363882D01*
X379130Y312657D02*
X382870D01*
X381000Y310787D02*
Y314528D01*
X295374Y293531D02*
Y297468D01*
X293406Y295500D02*
X297342D01*
X436374Y293531D02*
Y297468D01*
X434406Y295500D02*
X438343D01*
X547000Y293531D02*
Y297468D01*
X545031Y295500D02*
X548969D01*
X293000Y420130D02*
Y423870D01*
X291130Y422000D02*
X294870D01*
X583000Y420130D02*
Y423870D01*
X581130Y422000D02*
X584870D01*
X573000Y420130D02*
Y423870D01*
X571130Y422000D02*
X574870D01*
X513000Y420130D02*
Y423870D01*
X511130Y422000D02*
X514870D01*
X503000Y420130D02*
Y423870D01*
X501130Y422000D02*
X504870D01*
X463000Y393472D02*
Y397213D01*
X461130Y395342D02*
X464870D01*
X463000Y427630D02*
Y431370D01*
X461130Y429500D02*
X464870D01*
X372500Y420287D02*
Y424028D01*
X370630Y422157D02*
X374370D01*
X362500Y420130D02*
Y423870D01*
X360630Y422000D02*
X364370D01*
X302500Y420130D02*
Y423870D01*
X300630Y422000D02*
X304370D01*
X283000Y420130D02*
Y423870D01*
X281130Y422000D02*
X284870D01*
X553000Y420130D02*
Y423870D01*
X551130Y422000D02*
X554870D01*
X563000Y420130D02*
Y423870D01*
X561130Y422000D02*
X564870D01*
X483000Y420130D02*
Y423870D01*
X481130Y422000D02*
X484870D01*
X493000Y420130D02*
Y423870D01*
X491130Y422000D02*
X494870D01*
X392500Y393472D02*
Y397213D01*
X390630Y395342D02*
X394370D01*
X392500Y427472D02*
Y431213D01*
X390630Y429343D02*
X394370D01*
X343000Y420130D02*
Y423870D01*
X341130Y422000D02*
X344870D01*
X353000Y420130D02*
Y423870D01*
X351130Y422000D02*
X354870D01*
X273000Y420130D02*
Y423870D01*
X271130Y422000D02*
X274870D01*
X366500Y293531D02*
Y297468D01*
X364531Y295500D02*
X368468D01*
X506500Y293531D02*
Y297468D01*
X504531Y295500D02*
X508468D01*
X545930Y276300D02*
X549670D01*
X547800Y274430D02*
Y278170D01*
X545930Y269200D02*
X549670D01*
X547800Y267330D02*
Y271070D01*
X561500Y256789D02*
Y260529D01*
X559630Y258659D02*
X563370D01*
X406030Y273800D02*
X409770D01*
X407900Y271930D02*
Y275670D01*
X405630Y260300D02*
X409370D01*
X407500Y258430D02*
Y262170D01*
X406030Y267000D02*
X409770D01*
X407900Y265130D02*
Y268870D01*
X405589Y253500D02*
X409329D01*
X407459Y251630D02*
Y255370D01*
X379283Y187965D02*
X414716D01*
X379283D02*
Y241705D01*
X414716D01*
Y187965D02*
Y241705D01*
X420284Y187784D02*
X455717D01*
X420284D02*
Y241524D01*
X455717D01*
Y187784D02*
Y241524D01*
X298284Y187965D02*
X333717D01*
X298284D02*
Y241705D01*
X333717D01*
Y187965D02*
Y241705D01*
X338784Y187965D02*
X374217D01*
X338784D02*
Y241705D01*
X374217D01*
Y187965D02*
Y241705D01*
X257283Y188284D02*
X292717D01*
X257283D02*
Y242024D01*
X292717D01*
Y188284D02*
Y242024D01*
X460783Y187784D02*
X496216D01*
X460783D02*
Y241524D01*
X496216D01*
Y187784D02*
Y241524D01*
X501284Y187784D02*
X536717D01*
X501284D02*
Y241524D01*
X536717D01*
Y187784D02*
Y241524D01*
X558500Y198031D02*
Y201969D01*
X556531Y200000D02*
X560468D01*
X558500Y161996D02*
Y165933D01*
X556531Y163965D02*
X560468D01*
X419417Y180823D02*
X456425D01*
Y150311D02*
Y180823D01*
X419417Y150311D02*
X456425D01*
X419417D02*
Y180823D01*
X378575D02*
X415583D01*
Y150311D02*
Y180823D01*
X378575Y150311D02*
X415583D01*
X378575D02*
Y180823D01*
X500417D02*
X537425D01*
Y150311D02*
Y180823D01*
X500417Y150311D02*
X537425D01*
X500417D02*
Y180823D01*
X460075D02*
X497083D01*
Y150311D02*
Y180823D01*
X460075Y150311D02*
X497083D01*
X460075D02*
Y180823D01*
D12*
X592031Y192000D02*
X595968D01*
X594000Y190032D02*
Y193968D01*
X579433Y204992D02*
X581008D01*
X579433Y179402D02*
Y204992D01*
Y179402D02*
X582583D01*
X608567D01*
Y204992D01*
X581008D02*
X608567D01*
X275000Y163031D02*
Y166969D01*
X273031Y165000D02*
X276969D01*
X262008Y150433D02*
Y152008D01*
Y150433D02*
X287598D01*
Y153583D01*
Y179567D01*
X262008D02*
X287598D01*
X262008Y152008D02*
Y179567D01*
X356500Y163031D02*
Y166969D01*
X354532Y165000D02*
X358469D01*
X343508Y150433D02*
Y152008D01*
Y150433D02*
X369098D01*
Y153583D01*
Y179567D01*
X343508D02*
X369098D01*
X343508Y152008D02*
Y179567D01*
X592031Y161500D02*
X595968D01*
X594000Y159531D02*
Y163469D01*
X579433Y174492D02*
X581008D01*
X579433Y148902D02*
Y174492D01*
Y148902D02*
X582583D01*
X608567D01*
Y174492D01*
X581008D02*
X608567D01*
X316000Y163031D02*
Y166969D01*
X314032Y165000D02*
X317969D01*
X303008Y150433D02*
Y152008D01*
Y150433D02*
X328598D01*
Y153583D01*
Y179567D01*
X303008D02*
X328598D01*
X303008Y152008D02*
Y179567D01*
D73*
X507247Y264476D02*
Y286524D01*
Y264476D02*
X538153D01*
Y286524D01*
X507247D02*
X538153D01*
X275598Y348402D02*
X300402D01*
Y323598D02*
Y348402D01*
X275598Y323598D02*
X300402D01*
X275598D02*
Y348402D01*
X306315Y312496D02*
Y318402D01*
X295685Y312496D02*
Y318402D01*
Y312496D02*
X306315D01*
X295685Y318402D02*
X306315D01*
X288547Y307634D02*
X294453D01*
X288547Y318264D02*
X294453D01*
X288547Y307634D02*
Y318264D01*
X294453Y307634D02*
Y318264D01*
X271315Y336996D02*
Y342902D01*
X260685Y336996D02*
Y342902D01*
Y336996D02*
X271315D01*
X260685Y342902D02*
X271315D01*
X289047Y356299D02*
X294953D01*
X289047Y369685D02*
X294953D01*
X289047Y356299D02*
Y369685D01*
X294953Y356299D02*
Y369685D01*
X281047Y356299D02*
X286953D01*
X281047Y369685D02*
X286953D01*
X281047Y356299D02*
Y369685D01*
X286953Y356299D02*
Y369685D01*
X278047Y307476D02*
X283953D01*
X278047Y318106D02*
X283953D01*
X278047Y307476D02*
Y318106D01*
X283953Y307476D02*
Y318106D01*
X258547Y335606D02*
X264453D01*
X258547Y324976D02*
X264453D01*
Y335606D01*
X258547Y324976D02*
Y335606D01*
X265547Y335606D02*
X271453D01*
X265547Y324976D02*
X271453D01*
Y335606D01*
X265547Y324976D02*
Y335606D01*
X296047Y357476D02*
X301953D01*
X296047Y368106D02*
X301953D01*
X296047Y357476D02*
Y368106D01*
X301953Y357476D02*
Y368106D01*
X274047Y357634D02*
X279953D01*
X274047Y368264D02*
X279953D01*
X274047Y357634D02*
Y368264D01*
X279953Y357634D02*
Y368264D01*
X259685Y351496D02*
Y357402D01*
X270315Y351496D02*
Y357402D01*
X259685D02*
X270315D01*
X259685Y351496D02*
X270315D01*
X316315Y351496D02*
Y357402D01*
X305685Y351496D02*
Y357402D01*
Y351496D02*
X316315D01*
X305685Y357402D02*
X316315D01*
X305685Y364902D02*
X316315D01*
X305685Y358996D02*
X316315D01*
X305685D02*
Y364902D01*
X316315Y358996D02*
Y364902D01*
X542785Y287053D02*
X553415D01*
X542785Y281147D02*
X553415D01*
X542785D02*
Y287053D01*
X553415Y281147D02*
Y287053D01*
X313453Y307185D02*
Y317815D01*
X307547Y307185D02*
Y317815D01*
X313453D01*
X307547Y307185D02*
X313453D01*
X546047Y324976D02*
Y335606D01*
X551953Y324976D02*
Y335606D01*
X546047Y324976D02*
X551953D01*
X546047Y335606D02*
X551953D01*
X539047Y324976D02*
Y335606D01*
X544953Y324976D02*
Y335606D01*
X539047Y324976D02*
X544953D01*
X539047Y335606D02*
X544953D01*
X586185Y357402D02*
X596815D01*
X586185Y351496D02*
X596815D01*
X586185D02*
Y357402D01*
X596815Y351496D02*
Y357402D01*
Y358996D02*
Y364902D01*
X586185Y358996D02*
Y364902D01*
Y358996D02*
X596815D01*
X586185Y364902D02*
X596815D01*
X540185Y351496D02*
X550815D01*
X540185Y357401D02*
X550815D01*
Y351496D02*
Y357401D01*
X540185Y351496D02*
Y357401D01*
X560453Y357634D02*
Y368264D01*
X554547Y357634D02*
Y368264D01*
X560453D01*
X554547Y357634D02*
X560453D01*
X582453Y357476D02*
Y368106D01*
X576547Y357476D02*
Y368106D01*
X582453D01*
X576547Y357476D02*
X582453D01*
X593953Y307528D02*
Y318158D01*
X588047Y307528D02*
Y318158D01*
X593953D01*
X588047Y307528D02*
X593953D01*
X564453Y307476D02*
Y318106D01*
X558547Y307476D02*
Y318106D01*
X564453D01*
X558547Y307476D02*
X564453D01*
X567453Y356299D02*
Y369685D01*
X561547Y356299D02*
Y369685D01*
X567453D01*
X561547Y356299D02*
X567453D01*
X575453D02*
Y369685D01*
X569547Y356299D02*
Y369685D01*
X575453D01*
X569547Y356299D02*
X575453D01*
X541185Y342901D02*
X551815D01*
X541185Y336996D02*
X551815D01*
X541185D02*
Y342901D01*
X551815Y336996D02*
Y342901D01*
X574953Y307634D02*
Y318264D01*
X569047Y307634D02*
Y318264D01*
X574953D01*
X569047Y307634D02*
X574953D01*
X576185Y318402D02*
X586815D01*
X576185Y312496D02*
X586815D01*
X576185D02*
Y318402D01*
X586815Y312496D02*
Y318402D01*
X556098Y323598D02*
Y348402D01*
Y323598D02*
X580902D01*
Y348402D01*
X556098D02*
X580902D01*
X476047Y324976D02*
Y335606D01*
X481953Y324976D02*
Y335606D01*
X476047Y324976D02*
X481953D01*
X476047Y335606D02*
X481953D01*
X469047Y324976D02*
Y335606D01*
X474953Y324976D02*
Y335606D01*
X469047Y324976D02*
X474953D01*
X469047Y335606D02*
X474953D01*
X516185Y357402D02*
X526815D01*
X516185Y351496D02*
X526815D01*
X516185D02*
Y357402D01*
X526815Y351496D02*
Y357402D01*
X486098Y323598D02*
Y348402D01*
Y323598D02*
X510902D01*
Y348402D01*
X486098D02*
X510902D01*
X506185Y318402D02*
X516815D01*
X506185Y312496D02*
X516815D01*
X506185D02*
Y318402D01*
X516815Y312496D02*
Y318402D01*
X504953Y307634D02*
Y318264D01*
X499047Y307634D02*
Y318264D01*
X504953D01*
X499047Y307634D02*
X504953D01*
X471185Y342901D02*
X481815D01*
X471185Y336996D02*
X481815D01*
X471185D02*
Y342901D01*
X481815Y336996D02*
Y342901D01*
X505453Y356299D02*
Y369685D01*
X499547Y356299D02*
Y369685D01*
X505453D01*
X499547Y356299D02*
X505453D01*
X497453D02*
Y369685D01*
X491547Y356299D02*
Y369685D01*
X497453D01*
X491547Y356299D02*
X497453D01*
X494453Y307476D02*
Y318106D01*
X488547Y307476D02*
Y318106D01*
X494453D01*
X488547Y307476D02*
X494453D01*
X523953Y307343D02*
Y317972D01*
X518047Y307343D02*
Y317972D01*
X523953D01*
X518047Y307343D02*
X523953D01*
X512453Y357476D02*
Y368106D01*
X506547Y357476D02*
Y368106D01*
X512453D01*
X506547Y357476D02*
X512453D01*
X490453Y357634D02*
Y368264D01*
X484547Y357634D02*
Y368264D01*
X490453D01*
X484547Y357634D02*
X490453D01*
X470185Y351496D02*
X480815D01*
X470185Y357401D02*
X480815D01*
Y351496D02*
Y357401D01*
X470185Y351496D02*
Y357401D01*
X526815Y358996D02*
Y364902D01*
X516185Y358996D02*
Y364902D01*
Y358996D02*
X526815D01*
X516185Y364902D02*
X526815D01*
X436134Y312528D02*
X446764D01*
X436134Y318433D02*
X446764D01*
Y312528D02*
Y318433D01*
X436134Y312528D02*
Y318433D01*
X416047Y323630D02*
Y348433D01*
Y323630D02*
X440850D01*
Y348433D01*
X416047D02*
X440850D01*
X434902Y307665D02*
Y318295D01*
X428996Y307665D02*
Y318295D01*
X434902D01*
X428996Y307665D02*
X434902D01*
X401134Y342933D02*
X411764D01*
X401134Y337028D02*
X411764D01*
X401134D02*
Y342933D01*
X411764Y337028D02*
Y342933D01*
X435402Y356331D02*
Y369717D01*
X429496Y356331D02*
Y369717D01*
X435402D01*
X429496Y356331D02*
X435402D01*
X427402D02*
Y369717D01*
X421496Y356331D02*
Y369717D01*
X427402D01*
X421496Y356331D02*
X427402D01*
X424402Y307508D02*
Y318138D01*
X418496Y307508D02*
Y318138D01*
X424402D01*
X418496Y307508D02*
X424402D01*
X453953Y307343D02*
Y317972D01*
X448047Y307343D02*
Y317972D01*
X453953D01*
X448047Y307343D02*
X453953D01*
X398996Y325008D02*
Y335638D01*
X404902Y325008D02*
Y335638D01*
X398996Y325008D02*
X404902D01*
X398996Y335638D02*
X404902D01*
X405996Y325008D02*
Y335638D01*
X411902Y325008D02*
Y335638D01*
X405996Y325008D02*
X411902D01*
X405996Y335638D02*
X411902D01*
X442402Y357508D02*
Y368138D01*
X436496Y357508D02*
Y368138D01*
X442402D01*
X436496Y357508D02*
X442402D01*
X420402Y357665D02*
Y368295D01*
X414496Y357665D02*
Y368295D01*
X420402D01*
X414496Y357665D02*
X420402D01*
X400134Y351528D02*
X410764D01*
X400134Y357433D02*
X410764D01*
Y351528D02*
Y357433D01*
X400134Y351528D02*
Y357433D01*
X446134Y357433D02*
X456764D01*
X446134Y351528D02*
X456764D01*
X446134D02*
Y357433D01*
X456764Y351528D02*
Y357433D01*
Y359028D02*
Y364933D01*
X446134Y359028D02*
Y364933D01*
Y359028D02*
X456764D01*
X446134Y364933D02*
X456764D01*
X350402Y357697D02*
Y368327D01*
X344496Y357697D02*
Y368327D01*
X350402D01*
X344496Y357697D02*
X350402D01*
X372402Y357539D02*
Y368169D01*
X366496Y357539D02*
Y368169D01*
X372402D01*
X366496Y357539D02*
X372402D01*
X346047Y323661D02*
Y348465D01*
Y323661D02*
X370850D01*
Y348465D01*
X346047D02*
X370850D01*
X366134Y318464D02*
X376764D01*
X366134Y312559D02*
X376764D01*
X366134D02*
Y318464D01*
X376764Y312559D02*
Y318464D01*
X364902Y307697D02*
Y318327D01*
X358996Y307697D02*
Y318327D01*
X364902D01*
X358996Y307697D02*
X364902D01*
X331134Y342965D02*
X341764D01*
X331134Y337059D02*
X341764D01*
X331134D02*
Y342965D01*
X341764Y337059D02*
Y342965D01*
X365402Y356362D02*
Y369748D01*
X359496Y356362D02*
Y369748D01*
X365402D01*
X359496Y356362D02*
X365402D01*
X357402D02*
Y369748D01*
X351496Y356362D02*
Y369748D01*
X357402D01*
X351496Y356362D02*
X357402D01*
X354402Y307539D02*
Y318169D01*
X348496Y307539D02*
Y318169D01*
X354402D01*
X348496Y307539D02*
X354402D01*
X328996Y325039D02*
Y335669D01*
X334902Y325039D02*
Y335669D01*
X328996Y325039D02*
X334902D01*
X328996Y335669D02*
X334902D01*
X335996Y325039D02*
Y335669D01*
X341902Y325039D02*
Y335669D01*
X335996Y325039D02*
X341902D01*
X335996Y335669D02*
X341902D01*
X330134Y351559D02*
X340764D01*
X330134Y357465D02*
X340764D01*
Y351559D02*
Y357465D01*
X330134Y351559D02*
Y357465D01*
X376134Y357465D02*
X386764D01*
X376134Y351559D02*
X386764D01*
X376134D02*
Y357465D01*
X386764Y351559D02*
Y357465D01*
Y359059D02*
Y364965D01*
X376134Y359059D02*
Y364965D01*
Y359059D02*
X386764D01*
X376134Y364965D02*
X386764D01*
X383953Y307343D02*
Y317972D01*
X378047Y307343D02*
Y317972D01*
X383953D01*
X378047Y307343D02*
X383953D01*
X281374Y288610D02*
X309374D01*
X281374Y302390D02*
X309374D01*
Y288610D02*
Y302390D01*
X281374Y288610D02*
Y302390D01*
X422374Y288610D02*
X450374D01*
X422374Y302390D02*
X450374D01*
Y288610D02*
Y302390D01*
X422374Y288610D02*
Y302390D01*
X533000D02*
X561000D01*
X533000Y288610D02*
X561000D01*
X533000D02*
Y302390D01*
X561000Y288610D02*
Y302390D01*
X290047Y427315D02*
X295953D01*
X290047Y416685D02*
X295953D01*
Y427315D01*
X290047Y416685D02*
Y427315D01*
X580047D02*
X585953D01*
X580047Y416685D02*
X585953D01*
Y427315D01*
X580047Y416685D02*
Y427315D01*
X570047D02*
X575953D01*
X570047Y416685D02*
X575953D01*
Y427315D01*
X570047Y416685D02*
Y427315D01*
X510047D02*
X515953D01*
X510047Y416685D02*
X515953D01*
Y427315D01*
X510047Y416685D02*
Y427315D01*
X500047D02*
X505953D01*
X500047Y416685D02*
X505953D01*
Y427315D01*
X500047Y416685D02*
Y427315D01*
X460047Y390028D02*
X465953D01*
X460047Y400658D02*
X465953D01*
X460047Y390028D02*
Y400658D01*
X465953Y390028D02*
Y400658D01*
X460047Y424185D02*
X465953D01*
X460047Y434815D02*
X465953D01*
X460047Y424185D02*
Y434815D01*
X465953Y424185D02*
Y434815D01*
X369547Y427472D02*
X375453D01*
X369547Y416843D02*
X375453D01*
Y427472D01*
X369547Y416843D02*
Y427472D01*
X359547Y427315D02*
X365453D01*
X359547Y416685D02*
X365453D01*
Y427315D01*
X359547Y416685D02*
Y427315D01*
X299547D02*
X305453D01*
X299547Y416685D02*
X305453D01*
Y427315D01*
X299547Y416685D02*
Y427315D01*
X280047D02*
X285953D01*
X280047Y416685D02*
X285953D01*
Y427315D01*
X280047Y416685D02*
Y427315D01*
X550047D02*
X555953D01*
X550047Y416685D02*
X555953D01*
Y427315D01*
X550047Y416685D02*
Y427315D01*
X560047D02*
X565953D01*
X560047Y416685D02*
X565953D01*
Y427315D01*
X560047Y416685D02*
Y427315D01*
X480047D02*
X485953D01*
X480047Y416685D02*
X485953D01*
Y427315D01*
X480047Y416685D02*
Y427315D01*
X490047D02*
X495953D01*
X490047Y416685D02*
X495953D01*
Y427315D01*
X490047Y416685D02*
Y427315D01*
X389547Y390028D02*
X395453D01*
X389547Y400658D02*
X395453D01*
X389547Y390028D02*
Y400658D01*
X395453Y390028D02*
Y400658D01*
X389547Y424028D02*
X395453D01*
X389547Y434657D02*
X395453D01*
X389547Y424028D02*
Y434657D01*
X395453Y424028D02*
Y434657D01*
X340047Y427315D02*
X345953D01*
X340047Y416685D02*
X345953D01*
Y427315D01*
X340047Y416685D02*
Y427315D01*
X350047D02*
X355953D01*
X350047Y416685D02*
X355953D01*
Y427315D01*
X350047Y416685D02*
Y427315D01*
X270047D02*
X275953D01*
X270047Y416685D02*
X275953D01*
Y427315D01*
X270047Y416685D02*
Y427315D01*
X352500Y288610D02*
X380500D01*
X352500Y302390D02*
X380500D01*
Y288610D02*
Y302390D01*
X352500Y288610D02*
Y302390D01*
X492500Y288610D02*
X520500D01*
X492500Y302390D02*
X520500D01*
Y288610D02*
Y302390D01*
X492500Y288610D02*
Y302390D01*
X542485Y273347D02*
Y279253D01*
X553115Y273347D02*
Y279253D01*
X542485D02*
X553115D01*
X542485Y273347D02*
X553115D01*
X542485Y266247D02*
Y272153D01*
X553115Y266247D02*
Y272153D01*
X542485D02*
X553115D01*
X542485Y266247D02*
X553115D01*
X558547Y263974D02*
X564453D01*
X558547Y253344D02*
X564453D01*
Y263974D01*
X558547Y253344D02*
Y263974D01*
X363268Y250327D02*
X396732D01*
X363268D02*
Y278673D01*
X396732D01*
Y250327D02*
Y278673D01*
X413215Y270847D02*
Y276753D01*
X402585Y270847D02*
Y276753D01*
Y270847D02*
X413215D01*
X402585Y276753D02*
X413215D01*
X412815Y257347D02*
Y263253D01*
X402185Y257347D02*
Y263253D01*
Y257347D02*
X412815D01*
X402185Y263253D02*
X412815D01*
X413215Y264047D02*
Y269953D01*
X402585Y264047D02*
Y269953D01*
Y264047D02*
X413215D01*
X402585Y269953D02*
X413215D01*
X412774Y250547D02*
Y256453D01*
X402144Y250547D02*
Y256453D01*
Y250547D02*
X412774D01*
X402144Y256453D02*
X412774D01*
X282673Y279665D02*
X304327D01*
X282673Y250335D02*
Y279665D01*
Y250335D02*
X304327D01*
Y279665D01*
X307673D02*
X329327D01*
X307673Y250335D02*
Y279665D01*
Y250335D02*
X329327D01*
Y279665D01*
X332673D02*
X354327D01*
X332673Y250335D02*
Y279665D01*
Y250335D02*
X354327D01*
Y279665D01*
X257673D02*
X279327D01*
X257673Y250335D02*
Y279665D01*
Y250335D02*
X279327D01*
Y279665D01*
X547083Y214961D02*
X569917D01*
X547083Y185039D02*
X569917D01*
Y214961D01*
X547083Y185039D02*
Y214961D01*
Y178925D02*
X569917D01*
X547083Y149004D02*
X569917D01*
Y178925D01*
X547083Y149004D02*
Y178925D01*
M02*
