G04*
G04 #@! TF.GenerationSoftware,Altium Limited,Altium Designer,23.3.1 (30)*
G04*
G04 Layer_Color=8388736*
%FSLAX25Y25*%
%MOIN*%
G70*
G04*
G04 #@! TF.SameCoordinates,276AF690-C454-4130-B770-83727FADBF24*
G04*
G04*
G04 #@! TF.FilePolarity,Negative*
G04*
G01*
G75*
%ADD23R,0.03950X0.04343*%
%ADD24R,0.07099X0.13398*%
%ADD25R,0.04343X0.03950*%
%ADD26R,0.03162X0.07887*%
%ADD27R,0.05131X0.06312*%
%ADD28R,0.05328X0.03162*%
%ADD29R,0.20800X0.33595*%
%ADD30R,0.08320X0.43320*%
%ADD31R,0.09304X0.05013*%
%ADD32O,0.10642X0.07690*%
%ADD33C,0.16548*%
%ADD34C,0.05800*%
D23*
X358012Y313000D02*
D03*
X352500D02*
D03*
X371988Y320500D02*
D03*
X377500D02*
D03*
X383744Y315372D02*
D03*
X389256D02*
D03*
X385000Y348000D02*
D03*
X379488D02*
D03*
D24*
X413500Y280157D02*
D03*
Y299843D02*
D03*
X445000Y280157D02*
D03*
Y299843D02*
D03*
X476000Y280157D02*
D03*
Y299843D02*
D03*
X383000Y280157D02*
D03*
Y299843D02*
D03*
D25*
X399000Y333244D02*
D03*
Y338756D02*
D03*
X388000Y342000D02*
D03*
Y336488D02*
D03*
X405000Y327500D02*
D03*
Y321988D02*
D03*
X405000Y338756D02*
D03*
Y333244D02*
D03*
D26*
X424000Y347000D02*
D03*
X417701D02*
D03*
D27*
X399047Y347000D02*
D03*
X404953D02*
D03*
X423953Y332500D02*
D03*
X418047D02*
D03*
D28*
X371079Y332760D02*
D03*
Y340240D02*
D03*
X380921D02*
D03*
Y336500D02*
D03*
Y332760D02*
D03*
D29*
X483500Y337000D02*
D03*
D30*
X497260D02*
D03*
D31*
X445232Y323614D02*
D03*
Y330307D02*
D03*
Y337000D02*
D03*
Y343693D02*
D03*
Y350386D02*
D03*
D32*
X347000Y339500D02*
D03*
Y329500D02*
D03*
Y300000D02*
D03*
Y290000D02*
D03*
Y280000D02*
D03*
X512500Y284000D02*
D03*
Y294000D02*
D03*
D33*
X342520Y358268D02*
D03*
X515748D02*
D03*
X342520Y259842D02*
D03*
X515748D02*
D03*
D34*
X375500Y313000D02*
D03*
X363500Y319500D02*
D03*
X506500Y309000D02*
D03*
X365500Y336000D02*
D03*
X506000Y271500D02*
D03*
X346750Y309250D02*
D03*
M02*
