G04*
G04 #@! TF.GenerationSoftware,Altium Limited,Altium Designer,23.3.1 (30)*
G04*
G04 Layer_Color=65535*
%FSLAX25Y25*%
%MOIN*%
G70*
G04*
G04 #@! TF.SameCoordinates,276AF690-C454-4130-B770-83727FADBF24*
G04*
G04*
G04 #@! TF.FilePolarity,Positive*
G04*
G01*
G75*
%ADD10C,0.00787*%
%ADD11C,0.00591*%
%ADD12C,0.00394*%
%ADD13C,0.00400*%
D10*
X444870Y354323D02*
X445657D01*
X444870D01*
X417831Y277008D02*
X426492D01*
Y298661D01*
X422161Y302992D02*
X426492Y298661D01*
X417831Y302992D02*
X422161D01*
X400508Y277008D02*
X409169D01*
X400508D02*
Y298661D01*
X404839Y302992D01*
X409169D01*
X449331Y277008D02*
X457992D01*
Y298661D01*
X453661Y302992D02*
X457992Y298661D01*
X449331Y302992D02*
X453661D01*
X432008Y277008D02*
X440669D01*
X432008D02*
Y298661D01*
X436339Y302992D01*
X440669D01*
X378658Y330594D02*
X383185D01*
X377279Y330693D02*
Y342307D01*
X374721D02*
X377279D01*
X374721Y330693D02*
Y342307D01*
Y330693D02*
X377279D01*
X335500Y337000D02*
Y342000D01*
X334402Y343000D02*
X335500Y342000D01*
X334402Y336000D02*
X335500Y337000D01*
X334402Y326000D02*
X335500Y327000D01*
X334402Y333000D02*
X335500Y332000D01*
Y327000D02*
Y332000D01*
X359598Y324264D02*
Y345130D01*
X334402D02*
X359598D01*
X334402Y323870D02*
Y345130D01*
Y323870D02*
X359598D01*
Y324264D01*
X480331Y277008D02*
X488992D01*
Y298661D01*
X484661Y302992D02*
X488992Y298661D01*
X480331Y302992D02*
X484661D01*
X463008Y277008D02*
X471669D01*
X463008D02*
Y298661D01*
X467339Y302992D01*
X471669D01*
X387331Y277008D02*
X395992D01*
Y298661D01*
X391661Y302992D02*
X395992Y298661D01*
X387331Y302992D02*
X391661D01*
X370008Y277008D02*
X378669D01*
X370008D02*
Y298661D01*
X374339Y302992D01*
X378669D01*
X334402Y296500D02*
X335500Y297500D01*
X334402Y303500D02*
X335500Y302500D01*
Y297500D02*
Y302500D01*
Y287500D02*
Y292500D01*
X334402Y293500D02*
X335500Y292500D01*
X334402Y286500D02*
X335500Y287500D01*
X334402Y276500D02*
X335500Y277500D01*
X334402Y283500D02*
X335500Y282500D01*
Y277500D02*
Y282500D01*
X359598Y274764D02*
Y305630D01*
X334402D02*
X359598D01*
X334402Y274370D02*
Y305630D01*
Y274370D02*
X359598D01*
Y274764D01*
X524000Y281500D02*
Y286500D01*
Y281500D02*
X525098Y280500D01*
X524000Y286500D02*
X525098Y287500D01*
X524000Y296500D02*
X525098Y297500D01*
X524000Y291500D02*
X525098Y290500D01*
X524000Y291500D02*
Y296500D01*
X499902Y278370D02*
Y299236D01*
Y278370D02*
X525098D01*
Y299630D01*
X499902D02*
X525098D01*
X499902Y299236D02*
Y299630D01*
D11*
X420850Y343457D02*
Y350543D01*
X415732Y342669D02*
Y345031D01*
Y342669D02*
X425969D01*
Y345031D01*
Y348969D02*
Y351331D01*
X415732D02*
X425969D01*
X415732Y348969D02*
Y351331D01*
D12*
X462110Y357000D02*
X490933D01*
X462110Y317000D02*
Y357000D01*
Y317000D02*
X490933D01*
D13*
X417667Y355000D02*
Y353000D01*
X419000D01*
X419666D02*
X420333D01*
X420000D01*
Y355000D01*
X419666Y354666D01*
X363334Y345000D02*
Y343334D01*
X363667Y343000D01*
X364334D01*
X364667Y343334D01*
Y345000D01*
X366666Y343000D02*
X365333D01*
X366666Y344333D01*
Y344667D01*
X366333Y345000D01*
X365667D01*
X365333Y344667D01*
X435167Y359000D02*
Y357334D01*
X435500Y357000D01*
X436167D01*
X436500Y357334D01*
Y359000D01*
X437166Y357000D02*
X437833D01*
X437500D01*
Y359000D01*
X437166Y358666D01*
X408334Y338500D02*
Y340500D01*
X409334D01*
X409667Y340166D01*
Y339500D01*
X409334Y339167D01*
X408334D01*
X409000D02*
X409667Y338500D01*
X411666D02*
X410333D01*
X411666Y339833D01*
Y340166D01*
X411333Y340500D01*
X410667D01*
X410333Y340166D01*
X404667Y316500D02*
Y318500D01*
X405667D01*
X406000Y318166D01*
Y317500D01*
X405667Y317167D01*
X404667D01*
X405334D02*
X406000Y316500D01*
X406666D02*
X407333D01*
X407000D01*
Y318500D01*
X406666Y318166D01*
X400334Y353500D02*
Y351500D01*
X401334D01*
X401667Y351834D01*
Y353167D01*
X401334Y353500D01*
X400334D01*
X403666Y351500D02*
X402333D01*
X403666Y352833D01*
Y353167D01*
X403333Y353500D01*
X402667D01*
X402333Y353167D01*
X416667Y339000D02*
Y337000D01*
X417667D01*
X418000Y337334D01*
Y338667D01*
X417667Y339000D01*
X416667D01*
X418666Y337000D02*
X419333D01*
X419000D01*
Y339000D01*
X418666Y338667D01*
X332167Y351167D02*
X331834Y351500D01*
X331167D01*
X330834Y351167D01*
Y349834D01*
X331167Y349500D01*
X331834D01*
X332167Y349834D01*
X332834Y349500D02*
Y351500D01*
X334166Y349500D01*
Y351500D01*
X334833Y351167D02*
X335166Y351500D01*
X335833D01*
X336166Y351167D01*
Y350833D01*
X335833Y350500D01*
X335499D01*
X335833D01*
X336166Y350167D01*
Y349834D01*
X335833Y349500D01*
X335166D01*
X334833Y349834D01*
X333733Y312066D02*
X333400Y312399D01*
X332733D01*
X332400Y312066D01*
Y310733D01*
X332733Y310400D01*
X333400D01*
X333733Y310733D01*
X334399Y310400D02*
Y312399D01*
X335732Y310400D01*
Y312399D01*
X337732Y310400D02*
X336399D01*
X337732Y311733D01*
Y312066D01*
X337398Y312399D01*
X336732D01*
X336399Y312066D01*
X499233Y306466D02*
X498900Y306799D01*
X498233D01*
X497900Y306466D01*
Y305133D01*
X498233Y304800D01*
X498900D01*
X499233Y305133D01*
X499899Y304800D02*
Y306799D01*
X501232Y304800D01*
Y306799D01*
X501899Y304800D02*
X502565D01*
X502232D01*
Y306799D01*
X501899Y306466D01*
X373334Y325666D02*
X373001Y326000D01*
X372334D01*
X372001Y325666D01*
Y324334D01*
X372334Y324000D01*
X373001D01*
X373334Y324334D01*
X374000Y324000D02*
X374667D01*
X374333D01*
Y326000D01*
X374000Y325666D01*
X375666D02*
X375999Y326000D01*
X376666D01*
X376999Y325666D01*
Y324334D01*
X376666Y324000D01*
X375999D01*
X375666Y324334D01*
Y325666D01*
X354667Y318667D02*
X354334Y319000D01*
X353667D01*
X353334Y318667D01*
Y317334D01*
X353667Y317000D01*
X354334D01*
X354667Y317334D01*
X355333D02*
X355666Y317000D01*
X356333D01*
X356666Y317334D01*
Y318667D01*
X356333Y319000D01*
X355666D01*
X355333Y318667D01*
Y318333D01*
X355666Y318000D01*
X356666D01*
X382167Y353167D02*
X381834Y353500D01*
X381167D01*
X380834Y353167D01*
Y351834D01*
X381167Y351500D01*
X381834D01*
X382167Y351834D01*
X382833Y353167D02*
X383167Y353500D01*
X383833D01*
X384166Y353167D01*
Y352833D01*
X383833Y352500D01*
X384166Y352167D01*
Y351834D01*
X383833Y351500D01*
X383167D01*
X382833Y351834D01*
Y352167D01*
X383167Y352500D01*
X382833Y352833D01*
Y353167D01*
X383167Y352500D02*
X383833D01*
X389667Y346667D02*
X389334Y347000D01*
X388667D01*
X388334Y346667D01*
Y345334D01*
X388667Y345000D01*
X389334D01*
X389667Y345334D01*
X390333Y347000D02*
X391666D01*
Y346667D01*
X390333Y345334D01*
Y345000D01*
X384667Y321166D02*
X384334Y321500D01*
X383667D01*
X383334Y321166D01*
Y319834D01*
X383667Y319500D01*
X384334D01*
X384667Y319834D01*
X386666Y321500D02*
X386000Y321166D01*
X385333Y320500D01*
Y319834D01*
X385666Y319500D01*
X386333D01*
X386666Y319834D01*
Y320167D01*
X386333Y320500D01*
X385333D01*
X394167Y343166D02*
X393834Y343500D01*
X393167D01*
X392834Y343166D01*
Y341834D01*
X393167Y341500D01*
X393834D01*
X394167Y341834D01*
X396166Y343500D02*
X394833D01*
Y342500D01*
X395500Y342833D01*
X395833D01*
X396166Y342500D01*
Y341834D01*
X395833Y341500D01*
X395166D01*
X394833Y341834D01*
X370433Y311066D02*
X370100Y311399D01*
X369433D01*
X369100Y311066D01*
Y309733D01*
X369433Y309400D01*
X370100D01*
X370433Y309733D01*
X372099Y309400D02*
Y311399D01*
X371099Y310400D01*
X372432D01*
X403167Y310666D02*
X402834Y311000D01*
X402167D01*
X401834Y310666D01*
Y309334D01*
X402167Y309000D01*
X402834D01*
X403167Y309334D01*
X403833Y310666D02*
X404167Y311000D01*
X404833D01*
X405166Y310666D01*
Y310333D01*
X404833Y310000D01*
X404500D01*
X404833D01*
X405166Y309667D01*
Y309334D01*
X404833Y309000D01*
X404167D01*
X403833Y309334D01*
X439167Y312167D02*
X438834Y312500D01*
X438167D01*
X437834Y312167D01*
Y310834D01*
X438167Y310500D01*
X438834D01*
X439167Y310834D01*
X441166Y310500D02*
X439833D01*
X441166Y311833D01*
Y312167D01*
X440833Y312500D01*
X440167D01*
X439833Y312167D01*
X463433Y311066D02*
X463100Y311399D01*
X462433D01*
X462100Y311066D01*
Y309733D01*
X462433Y309400D01*
X463100D01*
X463433Y309733D01*
X464099Y309400D02*
X464766D01*
X464433D01*
Y311399D01*
X464099Y311066D01*
M02*
