G04*
G04 #@! TF.GenerationSoftware,Altium Limited,Altium Designer,23.3.1 (30)*
G04*
G04 Layer_Physical_Order=2*
G04 Layer_Color=16711680*
%FSLAX25Y25*%
%MOIN*%
G70*
G04*
G04 #@! TF.SameCoordinates,276AF690-C454-4130-B770-83727FADBF24*
G04*
G04*
G04 #@! TF.FilePolarity,Positive*
G04*
G01*
G75*
%ADD35C,0.02000*%
%ADD36O,0.09843X0.06890*%
%ADD37C,0.15748*%
%ADD38C,0.05000*%
G36*
X530500Y370000D02*
Y248000D01*
X327500D01*
X327000Y248500D01*
Y370667D01*
X327500Y371000D01*
X529500Y371000D01*
X530500Y370000D01*
D02*
G37*
%LPC*%
G36*
X516248Y367135D02*
Y358768D01*
X524616D01*
X524494Y360007D01*
X523986Y361680D01*
X523162Y363222D01*
X522053Y364573D01*
X520702Y365682D01*
X519160Y366506D01*
X517488Y367013D01*
X516248Y367135D01*
D02*
G37*
G36*
X515248D02*
X514008Y367013D01*
X512336Y366506D01*
X510794Y365682D01*
X509443Y364573D01*
X508334Y363222D01*
X507510Y361680D01*
X507002Y360007D01*
X506880Y358768D01*
X515248D01*
Y367135D01*
D02*
G37*
G36*
X343020D02*
Y358768D01*
X351387D01*
X351265Y360007D01*
X350758Y361680D01*
X349934Y363222D01*
X348825Y364573D01*
X347474Y365682D01*
X345932Y366506D01*
X344259Y367013D01*
X343020Y367135D01*
D02*
G37*
G36*
X342020D02*
X340780Y367013D01*
X339107Y366506D01*
X337566Y365682D01*
X336214Y364573D01*
X335105Y363222D01*
X334281Y361680D01*
X333774Y360007D01*
X333652Y358768D01*
X342020D01*
Y367135D01*
D02*
G37*
G36*
X524616Y357768D02*
X516248D01*
Y349400D01*
X517488Y349522D01*
X519160Y350029D01*
X520702Y350853D01*
X522053Y351962D01*
X523162Y353314D01*
X523986Y354855D01*
X524494Y356528D01*
X524616Y357768D01*
D02*
G37*
G36*
X515248D02*
X506880D01*
X507002Y356528D01*
X507510Y354855D01*
X508334Y353314D01*
X509443Y351962D01*
X510794Y350853D01*
X512336Y350029D01*
X514008Y349522D01*
X515248Y349400D01*
Y357768D01*
D02*
G37*
G36*
X351387D02*
X343020D01*
Y349400D01*
X344259Y349522D01*
X345932Y350029D01*
X347474Y350853D01*
X348825Y351962D01*
X349934Y353314D01*
X350758Y354855D01*
X351265Y356528D01*
X351387Y357768D01*
D02*
G37*
G36*
X342020D02*
X333652D01*
X333774Y356528D01*
X334281Y354855D01*
X335105Y353314D01*
X336214Y351962D01*
X337566Y350853D01*
X339107Y350029D01*
X340780Y349522D01*
X342020Y349400D01*
Y357768D01*
D02*
G37*
G36*
X346500Y343983D02*
X345524D01*
X344363Y343830D01*
X343282Y343383D01*
X342354Y342670D01*
X341641Y341742D01*
X341193Y340660D01*
X341106Y340000D01*
X346500D01*
Y343983D01*
D02*
G37*
G36*
X366000Y339464D02*
Y336500D01*
X368964D01*
X368910Y336914D01*
X368557Y337765D01*
X367996Y338496D01*
X367265Y339057D01*
X366414Y339410D01*
X366000Y339464D01*
D02*
G37*
G36*
X346500Y339000D02*
X341106D01*
X341193Y338340D01*
X341641Y337258D01*
X342354Y336330D01*
X343282Y335617D01*
X344363Y335170D01*
X345524Y335017D01*
X346500D01*
Y339000D01*
D02*
G37*
G36*
X368964Y335500D02*
X366000D01*
Y332536D01*
X366414Y332590D01*
X367265Y332943D01*
X367996Y333504D01*
X368557Y334235D01*
X368910Y335086D01*
X368964Y335500D01*
D02*
G37*
G36*
X348476Y343983D02*
X347500D01*
Y339500D01*
Y335017D01*
X348476D01*
X349637Y335170D01*
X350718Y335617D01*
X351646Y336330D01*
X352359Y337258D01*
X352443Y337461D01*
X360377D01*
X361990Y335848D01*
X362090Y335086D01*
X362443Y334235D01*
X363004Y333504D01*
X363735Y332943D01*
X364586Y332590D01*
X365000Y332536D01*
Y336000D01*
Y339464D01*
X364586Y339410D01*
X364310Y339296D01*
X362664Y340942D01*
X362002Y341384D01*
X361222Y341539D01*
X352443D01*
X352359Y341742D01*
X351646Y342670D01*
X350718Y343383D01*
X349637Y343830D01*
X348476Y343983D01*
D02*
G37*
G36*
Y333983D02*
X345524D01*
X344363Y333830D01*
X343282Y333383D01*
X342354Y332670D01*
X341641Y331742D01*
X341193Y330660D01*
X341040Y329500D01*
X341193Y328340D01*
X341641Y327258D01*
X342354Y326330D01*
X343282Y325617D01*
X344363Y325169D01*
X345524Y325017D01*
X348476D01*
X349637Y325169D01*
X350718Y325617D01*
X351646Y326330D01*
X352359Y327258D01*
X352443Y327461D01*
X359019D01*
X363056Y323424D01*
X362895Y322951D01*
X362586Y322910D01*
X361735Y322557D01*
X361004Y321996D01*
X360443Y321265D01*
X360090Y320414D01*
X360036Y320000D01*
X363500D01*
Y319000D01*
X360036D01*
X360090Y318586D01*
X360443Y317735D01*
X361004Y317004D01*
X361461Y316653D01*
Y307033D01*
X353318Y298890D01*
X352844Y299123D01*
X352960Y300000D01*
X352807Y301160D01*
X352359Y302242D01*
X351646Y303170D01*
X350718Y303883D01*
X349637Y304330D01*
X349039Y304409D01*
Y306595D01*
X349246Y306754D01*
X349807Y307485D01*
X350160Y308336D01*
X350280Y309250D01*
X350160Y310164D01*
X349807Y311015D01*
X349246Y311746D01*
X348515Y312307D01*
X347664Y312660D01*
X346750Y312780D01*
X345836Y312660D01*
X344985Y312307D01*
X344254Y311746D01*
X343693Y311015D01*
X343340Y310164D01*
X343220Y309250D01*
X343295Y308679D01*
X336558Y301942D01*
X336116Y301280D01*
X335961Y300500D01*
Y282000D01*
X336116Y281220D01*
X336558Y280558D01*
X338558Y278558D01*
X339220Y278116D01*
X340000Y277961D01*
X341557D01*
X341641Y277758D01*
X342354Y276830D01*
X343282Y276117D01*
X344363Y275670D01*
X345524Y275517D01*
X348476D01*
X349637Y275670D01*
X350718Y276117D01*
X351646Y276830D01*
X352359Y277758D01*
X352807Y278840D01*
X352960Y280000D01*
X352807Y281160D01*
X352359Y282242D01*
X351646Y283170D01*
X350718Y283883D01*
X349637Y284331D01*
X348476Y284483D01*
X345524D01*
X344363Y284331D01*
X343282Y283883D01*
X342354Y283170D01*
X341641Y282242D01*
X341557Y282039D01*
X340845D01*
X340039Y282845D01*
Y299655D01*
X340601Y300217D01*
X340832Y300103D01*
X341046Y299955D01*
X341193Y298840D01*
X341641Y297758D01*
X342354Y296830D01*
X343282Y296117D01*
X344363Y295670D01*
X345524Y295517D01*
X348476D01*
X349353Y295632D01*
X349587Y295159D01*
X348861Y294433D01*
X348476Y294483D01*
X347500D01*
Y290500D01*
X352894D01*
X352807Y291160D01*
X352382Y292186D01*
X364942Y304746D01*
X365384Y305408D01*
X365539Y306188D01*
Y316653D01*
X365996Y317004D01*
X366557Y317735D01*
X366910Y318586D01*
X366951Y318895D01*
X367424Y319056D01*
X372230Y314250D01*
X372090Y313914D01*
X371970Y313000D01*
X372090Y312086D01*
X372443Y311235D01*
X373004Y310504D01*
X373735Y309943D01*
X374586Y309590D01*
X375500Y309470D01*
X376414Y309590D01*
X377265Y309943D01*
X377996Y310504D01*
X378557Y311235D01*
X378910Y312086D01*
X379030Y313000D01*
X378910Y313914D01*
X378557Y314765D01*
X377996Y315496D01*
X377265Y316057D01*
X376414Y316410D01*
X375751Y316497D01*
X361306Y330942D01*
X360644Y331384D01*
X359864Y331539D01*
X352443D01*
X352359Y331742D01*
X351646Y332670D01*
X350718Y333383D01*
X349637Y333830D01*
X348476Y333983D01*
D02*
G37*
G36*
X346500Y294483D02*
X345524D01*
X344363Y294331D01*
X343282Y293883D01*
X342354Y293170D01*
X341641Y292242D01*
X341193Y291160D01*
X341106Y290500D01*
X346500D01*
Y294483D01*
D02*
G37*
G36*
X506500Y312530D02*
X505586Y312410D01*
X504735Y312057D01*
X504004Y311496D01*
X503443Y310765D01*
X503090Y309914D01*
X502970Y309000D01*
X503090Y308086D01*
X503443Y307235D01*
X504004Y306504D01*
X504735Y305943D01*
X505586Y305590D01*
X506500Y305470D01*
X507071Y305545D01*
X510461Y302155D01*
Y298409D01*
X509863Y298330D01*
X508782Y297883D01*
X507854Y297170D01*
X507141Y296242D01*
X506693Y295160D01*
X506540Y294000D01*
X506693Y292840D01*
X507141Y291758D01*
X507854Y290830D01*
X508782Y290117D01*
X509863Y289669D01*
X511024Y289517D01*
X513976D01*
X515137Y289669D01*
X516218Y290117D01*
X517146Y290830D01*
X517859Y291758D01*
X518307Y292840D01*
X518460Y294000D01*
X518307Y295160D01*
X517859Y296242D01*
X517146Y297170D01*
X516218Y297883D01*
X515137Y298330D01*
X514539Y298409D01*
Y303000D01*
X514384Y303780D01*
X513942Y304442D01*
X509955Y308429D01*
X510030Y309000D01*
X509910Y309914D01*
X509557Y310765D01*
X508996Y311496D01*
X508265Y312057D01*
X507414Y312410D01*
X506500Y312530D01*
D02*
G37*
G36*
X352894Y289500D02*
X347500D01*
Y285517D01*
X348476D01*
X349637Y285669D01*
X350718Y286117D01*
X351646Y286830D01*
X352359Y287758D01*
X352807Y288840D01*
X352894Y289500D01*
D02*
G37*
G36*
X346500D02*
X341106D01*
X341193Y288840D01*
X341641Y287758D01*
X342354Y286830D01*
X343282Y286117D01*
X344363Y285669D01*
X345524Y285517D01*
X346500D01*
Y289500D01*
D02*
G37*
G36*
X513976Y288483D02*
X513000D01*
Y284500D01*
X518394D01*
X518307Y285160D01*
X517859Y286242D01*
X517146Y287170D01*
X516218Y287883D01*
X515137Y288331D01*
X513976Y288483D01*
D02*
G37*
G36*
X512000D02*
X511024D01*
X509863Y288331D01*
X508782Y287883D01*
X507854Y287170D01*
X507141Y286242D01*
X506693Y285160D01*
X506606Y284500D01*
X512000D01*
Y288483D01*
D02*
G37*
G36*
X518394Y283500D02*
X512500D01*
X506606D01*
X506693Y282840D01*
X507141Y281758D01*
X507854Y280830D01*
X508782Y280117D01*
X509863Y279669D01*
X510461Y279591D01*
Y278845D01*
X506571Y274955D01*
X506500Y274964D01*
Y272000D01*
X509464D01*
X509455Y272071D01*
X513942Y276558D01*
X514384Y277220D01*
X514539Y278000D01*
Y279591D01*
X515137Y279669D01*
X516218Y280117D01*
X517146Y280830D01*
X517859Y281758D01*
X518307Y282840D01*
X518394Y283500D01*
D02*
G37*
G36*
X505500Y274964D02*
X505086Y274910D01*
X504235Y274557D01*
X503504Y273996D01*
X502943Y273265D01*
X502590Y272414D01*
X502536Y272000D01*
X505500D01*
Y274964D01*
D02*
G37*
G36*
X509464Y271000D02*
X506500D01*
Y268036D01*
X506914Y268090D01*
X507765Y268443D01*
X508496Y269004D01*
X509057Y269735D01*
X509410Y270586D01*
X509464Y271000D01*
D02*
G37*
G36*
X505500D02*
X502536D01*
X502590Y270586D01*
X502943Y269735D01*
X503504Y269004D01*
X504235Y268443D01*
X505086Y268090D01*
X505500Y268036D01*
Y271000D01*
D02*
G37*
G36*
X516248Y268710D02*
Y260343D01*
X524616D01*
X524494Y261582D01*
X523986Y263255D01*
X523162Y264796D01*
X522053Y266148D01*
X520702Y267257D01*
X519160Y268081D01*
X517488Y268588D01*
X516248Y268710D01*
D02*
G37*
G36*
X515248D02*
X514008Y268588D01*
X512336Y268081D01*
X510794Y267257D01*
X509443Y266148D01*
X508334Y264796D01*
X507510Y263255D01*
X507002Y261582D01*
X506880Y260343D01*
X515248D01*
Y268710D01*
D02*
G37*
G36*
X343020D02*
Y260343D01*
X351387D01*
X351265Y261582D01*
X350758Y263255D01*
X349934Y264796D01*
X348825Y266148D01*
X347474Y267257D01*
X345932Y268081D01*
X344259Y268588D01*
X343020Y268710D01*
D02*
G37*
G36*
X342020D02*
X340780Y268588D01*
X339107Y268081D01*
X337566Y267257D01*
X336214Y266148D01*
X335105Y264796D01*
X334281Y263255D01*
X333774Y261582D01*
X333652Y260343D01*
X342020D01*
Y268710D01*
D02*
G37*
G36*
X524616Y259343D02*
X516248D01*
Y250975D01*
X517488Y251097D01*
X519160Y251604D01*
X520702Y252428D01*
X522053Y253537D01*
X523162Y254889D01*
X523986Y256430D01*
X524494Y258103D01*
X524616Y259343D01*
D02*
G37*
G36*
X515248D02*
X506880D01*
X507002Y258103D01*
X507510Y256430D01*
X508334Y254889D01*
X509443Y253537D01*
X510794Y252428D01*
X512336Y251604D01*
X514008Y251097D01*
X515248Y250975D01*
Y259343D01*
D02*
G37*
G36*
X351387D02*
X343020D01*
Y250975D01*
X344259Y251097D01*
X345932Y251604D01*
X347474Y252428D01*
X348825Y253537D01*
X349934Y254889D01*
X350758Y256430D01*
X351265Y258103D01*
X351387Y259343D01*
D02*
G37*
G36*
X342020D02*
X333652D01*
X333774Y258103D01*
X334281Y256430D01*
X335105Y254889D01*
X336214Y253537D01*
X337566Y252428D01*
X339107Y251604D01*
X340780Y251097D01*
X342020Y250975D01*
Y259343D01*
D02*
G37*
%LPD*%
D35*
X375500Y313000D02*
Y313864D01*
X359864Y329500D02*
X375500Y313864D01*
X363500Y306188D02*
Y319500D01*
X347312Y290000D02*
X363500Y306188D01*
X347000Y329500D02*
X359864D01*
X506500Y309000D02*
X512500Y303000D01*
Y294000D02*
Y303000D01*
X347000Y290000D02*
X347312D01*
X347000Y339500D02*
X361222D01*
X364722Y336000D01*
X365500D01*
X512500Y278000D02*
Y284000D01*
X506000Y271500D02*
X512500Y278000D01*
X338000Y282000D02*
X340000Y280000D01*
X347000D01*
X338000Y300500D02*
X346750Y309250D01*
X338000Y282000D02*
Y300500D01*
X346750Y309250D02*
X347000Y309000D01*
Y300000D02*
Y309000D01*
D36*
Y339500D02*
D03*
Y329500D02*
D03*
Y300000D02*
D03*
Y290000D02*
D03*
Y280000D02*
D03*
X512500Y284000D02*
D03*
Y294000D02*
D03*
D37*
X342520Y358268D02*
D03*
X515748D02*
D03*
X342520Y259842D02*
D03*
X515748D02*
D03*
D38*
X375500Y313000D02*
D03*
X363500Y319500D02*
D03*
X506500Y309000D02*
D03*
X365500Y336000D02*
D03*
X506000Y271500D02*
D03*
X346750Y309250D02*
D03*
M02*
