G04*
G04 #@! TF.GenerationSoftware,Altium Limited,Altium Designer,23.3.1 (30)*
G04*
G04 Layer_Color=65535*
%FSLAX25Y25*%
%MOIN*%
G70*
G04*
G04 #@! TF.SameCoordinates,6E427E01-6470-4732-AD83-5CA9447D70B9*
G04*
G04*
G04 #@! TF.FilePolarity,Positive*
G04*
G01*
G75*
%ADD10C,0.00984*%
%ADD11C,0.00394*%
%ADD12C,0.00787*%
%ADD13C,0.00591*%
%ADD14C,0.00200*%
D10*
X444071Y294583D02*
X443333Y295009D01*
Y294157D01*
X444071Y294583D01*
D11*
X516260Y375189D02*
X516653D01*
X516260D01*
X393815Y317484D02*
X394209D01*
X393815D01*
X534551Y300095D02*
Y304425D01*
Y300095D02*
X537701D01*
X534551Y315449D02*
Y319779D01*
X537701D01*
X544394Y303638D02*
Y316236D01*
X538307Y368102D02*
X544606D01*
Y431488D01*
X538307D02*
X544606D01*
X522590D02*
X526496D01*
X522559Y428382D02*
X522590Y431488D01*
X522559Y368102D02*
Y371287D01*
Y368102D02*
X526496D01*
D12*
X413346Y226500D02*
X412953D01*
X413346D01*
X412953D01*
X484100Y355300D02*
X494100D01*
X484100D02*
Y375300D01*
X494100D01*
Y355300D02*
Y375300D01*
X429500Y276000D02*
Y286000D01*
X399500Y276000D02*
X429500D01*
X399500D02*
Y286000D01*
X429500D01*
X410804Y383604D02*
X414145Y380264D01*
X406595Y370765D02*
X414735Y378905D01*
X406595Y370765D02*
X408265Y369095D01*
X416405Y377235D01*
X414735Y378905D02*
X416405Y377235D01*
X433004Y227476D02*
Y245193D01*
Y227476D02*
X480248D01*
Y245193D01*
X433004D02*
X480248D01*
X442988Y300783D02*
Y337398D01*
X479602D01*
Y300783D02*
Y337398D01*
X442988Y300783D02*
X479602D01*
X388090Y422138D02*
X388090Y368595D01*
X379823Y422138D02*
X388090D01*
X332579Y420957D02*
X364075D01*
X379823Y368595D02*
X388090D01*
X332579Y369776D02*
Y420957D01*
Y369776D02*
X364075D01*
X410244Y405819D02*
Y408181D01*
X412016Y412709D02*
X415756D01*
Y409756D02*
Y412709D01*
Y401291D02*
Y404244D01*
X412016Y401291D02*
X415756D01*
X507851Y423354D02*
Y462331D01*
X485212Y423354D02*
X507851D01*
X485212D02*
Y462331D01*
X507851D01*
X478350Y423354D02*
Y462331D01*
X455712Y423354D02*
X478350D01*
X455712D02*
Y462331D01*
X478350D01*
X391000Y345000D02*
Y355000D01*
X331000Y345000D02*
Y355000D01*
X391000D01*
X331000Y345000D02*
X391000D01*
X529307Y329323D02*
Y352551D01*
X547024D01*
Y329323D02*
Y352551D01*
X529307Y329323D02*
X547024D01*
X436500Y197000D02*
X441500D01*
X435500Y195902D02*
X436500Y197000D01*
X441500D02*
X442500Y195902D01*
X451500Y197000D02*
X452500Y195902D01*
X445500D02*
X446500Y197000D01*
X451500D01*
X433370Y221098D02*
X454236D01*
X433370Y195902D02*
Y221098D01*
Y195902D02*
X454630D01*
Y221098D01*
X454236D02*
X454630D01*
X467000Y197000D02*
X472000D01*
X466000Y195902D02*
X467000Y197000D01*
X472000D02*
X473000Y195902D01*
X482000Y197000D02*
X483000Y195902D01*
X476000D02*
X477000Y197000D01*
X482000D01*
X463870Y221098D02*
X484736D01*
X463870Y195902D02*
Y221098D01*
Y195902D02*
X485130D01*
Y221098D01*
X484736D02*
X485130D01*
X418851Y423354D02*
Y462331D01*
X396212Y423354D02*
X418851D01*
X396212D02*
Y462331D01*
X418851D01*
X448850Y423512D02*
Y462488D01*
X426212Y423512D02*
X448850D01*
X426212D02*
Y462488D01*
X448850D01*
X510831Y198264D02*
X512405D01*
X517130Y202988D01*
Y219130D01*
X510831D02*
X517130D01*
X500595Y198264D02*
X502169D01*
X495870Y202988D02*
X500595Y198264D01*
X495870Y202988D02*
Y219130D01*
X502169D01*
X452433Y259807D02*
Y260988D01*
X431567Y259807D02*
Y260988D01*
X452433Y272012D02*
Y273193D01*
X431567Y272012D02*
Y273193D01*
Y259807D02*
X452433D01*
X431567Y273193D02*
X452433D01*
X349327Y333823D02*
X381217D01*
X390665D02*
X391512D01*
Y282405D02*
Y333823D01*
X390665Y282405D02*
X391512D01*
X349327D02*
X377673D01*
X336276Y304571D02*
X336335Y284886D01*
X336276Y310870D02*
Y321894D01*
X523823Y286193D02*
X547051D01*
Y268476D02*
Y286193D01*
X523823Y268476D02*
X547051D01*
X523823D02*
Y286193D01*
Y240193D02*
X547051D01*
Y222476D02*
Y240193D01*
X523823Y222476D02*
X547051D01*
X523823D02*
Y240193D01*
X523886Y263193D02*
X547114D01*
Y245476D02*
Y263193D01*
X523886Y245476D02*
X547114D01*
X523886D02*
Y263193D01*
X387500Y263500D02*
X417500D01*
Y273500D01*
X387500D02*
X417500D01*
X387500Y263500D02*
Y273500D01*
X482350Y268905D02*
X484319Y268905D01*
X482350Y257095D02*
Y268905D01*
Y257095D02*
X484319Y257095D01*
X486681Y268905D02*
X488650Y268905D01*
Y257095D02*
Y268905D01*
X486681Y257095D02*
X488650Y257095D01*
X482350Y263000D02*
X488650D01*
D13*
X490744Y339000D02*
X496256D01*
X495075Y344512D02*
X496256D01*
Y333488D02*
Y344512D01*
X495075Y333488D02*
X496256D01*
X490744D02*
X491925D01*
X490744D02*
Y344512D01*
X491925D01*
X513244Y241669D02*
X514425D01*
X513244Y230646D02*
Y241669D01*
Y230646D02*
X514425D01*
X517575D02*
X518756D01*
Y241669D01*
X517575D02*
X518756D01*
X513244Y236157D02*
X518756D01*
X513244Y264354D02*
X514425D01*
X513244Y253331D02*
Y264354D01*
Y253331D02*
X514425D01*
X517575D02*
X518756D01*
Y264354D01*
X517575D02*
X518756D01*
X513244Y258842D02*
X518756D01*
X513244Y287512D02*
X514425D01*
X513244Y276488D02*
Y287512D01*
Y276488D02*
X514425D01*
X517575D02*
X518756D01*
Y287512D01*
X517575D02*
X518756D01*
X513244Y282000D02*
X518756D01*
X455744D02*
X461256D01*
X455744Y277000D02*
X456500D01*
X455744D02*
Y287000D01*
X456500D01*
X460500D02*
X461256D01*
Y277000D02*
Y287000D01*
X460500Y277000D02*
X461256D01*
X451957Y404134D02*
X459043D01*
X456500Y411634D02*
X459043D01*
Y396134D02*
Y411634D01*
X458256Y396134D02*
X459043D01*
X451957Y411634D02*
X454500D01*
X451957Y396134D02*
Y411634D01*
Y396134D02*
X452744D01*
X456500Y411634D02*
Y412134D01*
X459043D01*
Y411634D02*
Y412134D01*
X451957Y411634D02*
Y412134D01*
X454500D01*
Y411634D02*
Y412134D01*
X455500Y404134D02*
Y405134D01*
X454500Y403134D02*
X456500D01*
X454500D02*
X455500Y404134D01*
X456500Y403134D01*
X481957Y404000D02*
X489043D01*
X486500Y411500D02*
X489043D01*
Y396000D02*
Y411500D01*
X488256Y396000D02*
X489043D01*
X481957Y411500D02*
X484500D01*
X481957Y396000D02*
Y411500D01*
Y396000D02*
X482744D01*
X486500Y411500D02*
Y412000D01*
X489043D01*
Y411500D02*
Y412000D01*
X481957Y411500D02*
Y412000D01*
X484500D01*
Y411500D02*
Y412000D01*
X485500Y404000D02*
Y405000D01*
X484500Y403000D02*
X486500D01*
X484500D02*
X485500Y404000D01*
X486500Y403000D01*
X506244Y282059D02*
X511756D01*
X506244Y277059D02*
X507000D01*
X506244D02*
Y287059D01*
X507000D01*
X511000D02*
X511756D01*
Y277059D02*
Y287059D01*
X511000Y277059D02*
X511756D01*
X506244Y236000D02*
X511756D01*
X506244Y231000D02*
X507000D01*
X506244D02*
Y241000D01*
X507000D01*
X511000D02*
X511756D01*
Y231000D02*
Y241000D01*
X511000Y231000D02*
X511756D01*
X506244Y258941D02*
X511756D01*
X506244Y253941D02*
X507000D01*
X506244D02*
Y263941D01*
X507000D01*
X511000D02*
X511756D01*
Y253941D02*
Y263941D01*
X511000Y253941D02*
X511756D01*
X418831Y294744D02*
Y295925D01*
Y294744D02*
X429854D01*
Y295925D01*
Y299075D02*
Y300256D01*
X418831D02*
X429854D01*
X418831Y299075D02*
Y300256D01*
X424342Y294744D02*
Y300256D01*
X467075Y276331D02*
X468256D01*
Y287354D01*
X467075D02*
X468256D01*
X462744D02*
X463925D01*
X462744Y276331D02*
Y287354D01*
Y276331D02*
X463925D01*
X462744Y281842D02*
X468256D01*
X418831Y301244D02*
Y302425D01*
Y301244D02*
X429854D01*
Y302425D01*
Y305575D02*
Y306756D01*
X418831D02*
X429854D01*
X418831Y305575D02*
Y306756D01*
X424342Y301244D02*
Y306756D01*
X441644Y360012D02*
X442825D01*
X441644Y348988D02*
Y360012D01*
Y348988D02*
X442825D01*
X445975D02*
X447156D01*
Y360012D01*
X445975D02*
X447156D01*
X441644Y354500D02*
X447156D01*
X503669Y309575D02*
Y310756D01*
X492646D02*
X503669D01*
X492646Y309575D02*
Y310756D01*
Y305244D02*
Y306425D01*
Y305244D02*
X503669D01*
Y306425D01*
X498158Y305244D02*
Y310756D01*
X469331Y270244D02*
Y271425D01*
Y270244D02*
X480354D01*
Y271425D01*
Y274575D02*
Y275756D01*
X469331D02*
X480354D01*
X469331Y274575D02*
Y275756D01*
X474843Y270244D02*
Y275756D01*
X469331Y263744D02*
Y264925D01*
Y263744D02*
X480354D01*
Y264925D01*
Y268075D02*
Y269256D01*
X469331D02*
X480354D01*
X469331Y268075D02*
Y269256D01*
X474843Y263744D02*
Y269256D01*
D14*
X430700Y347600D02*
X431100D01*
X430900D01*
Y346400D01*
X430700D01*
X431100D01*
X432500Y347400D02*
X432300Y347600D01*
X431900D01*
X431700Y347400D01*
Y346600D01*
X431900Y346400D01*
X432300D01*
X432500Y346600D01*
X432900Y346400D02*
X433300D01*
X433100D01*
Y347600D01*
X432900Y347400D01*
X521700Y327400D02*
X521500Y327600D01*
X521101D01*
X520901Y327400D01*
Y326600D01*
X521101Y326400D01*
X521500D01*
X521700Y326600D01*
X522100Y326400D02*
Y327600D01*
X522900Y326400D01*
Y327600D01*
X523300Y326400D02*
X523700D01*
X523500D01*
Y327600D01*
X523300Y327400D01*
X524300Y327600D02*
X525099D01*
Y327400D01*
X524300Y326600D01*
Y326400D01*
X428900Y277700D02*
X429700Y276500D01*
Y277700D02*
X428900Y276500D01*
X430100D02*
X430500D01*
X430300D01*
Y277700D01*
X430100Y277500D01*
X399300Y413600D02*
Y414800D01*
X399900D01*
X400100Y414600D01*
Y414200D01*
X399900Y414000D01*
X399300D01*
X399700D02*
X400100Y413600D01*
X400500D02*
X400900D01*
X400700D01*
Y414800D01*
X400500Y414600D01*
X402299Y414800D02*
X401899Y414600D01*
X401499Y414200D01*
Y413800D01*
X401699Y413600D01*
X402099D01*
X402299Y413800D01*
Y414000D01*
X402099Y414200D01*
X401499D01*
X393300Y413600D02*
Y414800D01*
X393900D01*
X394100Y414600D01*
Y414200D01*
X393900Y414000D01*
X393300D01*
X393700D02*
X394100Y413600D01*
X394500D02*
X394900D01*
X394700D01*
Y414800D01*
X394500Y414600D01*
X396299Y414800D02*
X395499D01*
Y414200D01*
X395899Y414400D01*
X396099D01*
X396299Y414200D01*
Y413800D01*
X396099Y413600D01*
X395699D01*
X395499Y413800D01*
X423300Y406100D02*
Y407300D01*
X423900D01*
X424100Y407100D01*
Y406700D01*
X423900Y406500D01*
X423300D01*
X423700D02*
X424100Y406100D01*
X424500D02*
X424899D01*
X424699D01*
Y407300D01*
X424500Y407100D01*
X426099Y406100D02*
Y407300D01*
X425499Y406700D01*
X426299D01*
X399300Y300100D02*
Y301300D01*
X399900D01*
X400100Y301100D01*
Y300700D01*
X399900Y300500D01*
X399300D01*
X399700D02*
X400100Y300100D01*
X400500D02*
X400900D01*
X400700D01*
Y301300D01*
X400500Y301100D01*
X401499D02*
X401699Y301300D01*
X402099D01*
X402299Y301100D01*
Y300900D01*
X402099Y300700D01*
X401899D01*
X402099D01*
X402299Y300500D01*
Y300300D01*
X402099Y300100D01*
X401699D01*
X401499Y300300D01*
X399300Y294600D02*
Y295800D01*
X399900D01*
X400100Y295600D01*
Y295200D01*
X399900Y295000D01*
X399300D01*
X399700D02*
X400100Y294600D01*
X400500Y294800D02*
X400700Y294600D01*
X401099D01*
X401299Y294800D01*
Y295600D01*
X401099Y295800D01*
X400700D01*
X400500Y295600D01*
Y295400D01*
X400700Y295200D01*
X401299D01*
X506100Y289700D02*
Y290900D01*
X506700D01*
X506900Y290700D01*
Y290300D01*
X506700Y290100D01*
X506100D01*
X506500D02*
X506900Y289700D01*
X507300Y290700D02*
X507500Y290900D01*
X507899D01*
X508099Y290700D01*
Y290500D01*
X507899Y290300D01*
X508099Y290100D01*
Y289900D01*
X507899Y289700D01*
X507500D01*
X507300Y289900D01*
Y290100D01*
X507500Y290300D01*
X507300Y290500D01*
Y290700D01*
X507500Y290300D02*
X507899D01*
X506100Y243600D02*
Y244800D01*
X506700D01*
X506900Y244600D01*
Y244200D01*
X506700Y244000D01*
X506100D01*
X506500D02*
X506900Y243600D01*
X507300Y244800D02*
X508099D01*
Y244600D01*
X507300Y243800D01*
Y243600D01*
X506100Y266600D02*
Y267800D01*
X506700D01*
X506900Y267600D01*
Y267200D01*
X506700Y267000D01*
X506100D01*
X506500D02*
X506900Y266600D01*
X508099Y267800D02*
X507699Y267600D01*
X507300Y267200D01*
Y266800D01*
X507500Y266600D01*
X507899D01*
X508099Y266800D01*
Y267000D01*
X507899Y267200D01*
X507300D01*
X455600Y289600D02*
Y290800D01*
X456200D01*
X456400Y290600D01*
Y290200D01*
X456200Y290000D01*
X455600D01*
X456000D02*
X456400Y289600D01*
X457599Y290800D02*
X456800D01*
Y290200D01*
X457199Y290400D01*
X457399D01*
X457599Y290200D01*
Y289800D01*
X457399Y289600D01*
X456999D01*
X456800Y289800D01*
X475800Y411100D02*
Y412300D01*
X476400D01*
X476600Y412100D01*
Y411700D01*
X476400Y411500D01*
X475800D01*
X476200D02*
X476600Y411100D01*
X477599D02*
Y412300D01*
X477000Y411700D01*
X477799D01*
X476300Y396600D02*
Y397800D01*
X476900D01*
X477100Y397600D01*
Y397200D01*
X476900Y397000D01*
X476300D01*
X476700D02*
X477100Y396600D01*
X477500Y397600D02*
X477700Y397800D01*
X478099D01*
X478299Y397600D01*
Y397400D01*
X478099Y397200D01*
X477900D01*
X478099D01*
X478299Y397000D01*
Y396800D01*
X478099Y396600D01*
X477700D01*
X477500Y396800D01*
X445800Y411400D02*
Y412600D01*
X446400D01*
X446600Y412400D01*
Y412000D01*
X446400Y411800D01*
X445800D01*
X446200D02*
X446600Y411400D01*
X447799D02*
X447000D01*
X447799Y412200D01*
Y412400D01*
X447599Y412600D01*
X447199D01*
X447000Y412400D01*
X446500Y396600D02*
Y397800D01*
X447100D01*
X447300Y397600D01*
Y397200D01*
X447100Y397000D01*
X446500D01*
X446900D02*
X447300Y396600D01*
X447700D02*
X448100D01*
X447899D01*
Y397800D01*
X447700Y397600D01*
X407200Y416200D02*
Y417000D01*
X407000Y417200D01*
X406600D01*
X406400Y417000D01*
Y416200D01*
X406600Y416000D01*
X407000D01*
X406800Y416400D02*
X407200Y416000D01*
X407000D02*
X407200Y416200D01*
X407600Y416000D02*
X408000D01*
X407799D01*
Y417200D01*
X407600Y417000D01*
X482200Y272700D02*
Y271500D01*
X483000D01*
X483400D02*
X483800D01*
X483600D01*
Y272700D01*
X483400Y272500D01*
X400800Y388300D02*
X401200D01*
X401000D01*
Y387100D01*
X400800D01*
X401200D01*
X402599Y388100D02*
X402399Y388300D01*
X402000D01*
X401800Y388100D01*
Y387300D01*
X402000Y387100D01*
X402399D01*
X402599Y387300D01*
X402999Y388100D02*
X403199Y388300D01*
X403599D01*
X403799Y388100D01*
Y387900D01*
X403599Y387700D01*
X403399D01*
X403599D01*
X403799Y387500D01*
Y387300D01*
X403599Y387100D01*
X403199D01*
X402999Y387300D01*
X330300Y263100D02*
X330700D01*
X330500D01*
Y261900D01*
X330300D01*
X330700D01*
X332099Y262900D02*
X331899Y263100D01*
X331500D01*
X331300Y262900D01*
Y262100D01*
X331500Y261900D01*
X331899D01*
X332099Y262100D01*
X333299Y261900D02*
X332499D01*
X333299Y262700D01*
Y262900D01*
X333099Y263100D01*
X332699D01*
X332499Y262900D01*
X423300Y412800D02*
Y411600D01*
X423900D01*
X424100Y411800D01*
Y412600D01*
X423900Y412800D01*
X423300D01*
X424500Y412600D02*
X424699Y412800D01*
X425099D01*
X425299Y412600D01*
Y412400D01*
X425099Y412200D01*
X424899D01*
X425099D01*
X425299Y412000D01*
Y411800D01*
X425099Y411600D01*
X424699D01*
X424500Y411800D01*
X481900Y415700D02*
Y414500D01*
X482500D01*
X482700Y414700D01*
Y415500D01*
X482500Y415700D01*
X481900D01*
X483899Y414500D02*
X483100D01*
X483899Y415300D01*
Y415500D01*
X483699Y415700D01*
X483299D01*
X483100Y415500D01*
X451900Y415800D02*
Y414600D01*
X452500D01*
X452700Y414800D01*
Y415600D01*
X452500Y415800D01*
X451900D01*
X453100Y414600D02*
X453500D01*
X453300D01*
Y415800D01*
X453100Y415600D01*
X484700Y378900D02*
X484500Y379100D01*
X484100D01*
X483900Y378900D01*
Y378100D01*
X484100Y377900D01*
X484500D01*
X484700Y378100D01*
X485100Y377900D02*
Y379100D01*
X485899Y377900D01*
Y379100D01*
X486299Y377900D02*
X486699D01*
X486499D01*
Y379100D01*
X486299Y378900D01*
X487299Y378100D02*
X487499Y377900D01*
X487899D01*
X488099Y378100D01*
Y378900D01*
X487899Y379100D01*
X487499D01*
X487299Y378900D01*
Y378700D01*
X487499Y378500D01*
X488099D01*
X528300Y357900D02*
X528100Y358100D01*
X527700D01*
X527500Y357900D01*
Y357100D01*
X527700Y356900D01*
X528100D01*
X528300Y357100D01*
X528700Y356900D02*
Y358100D01*
X529499Y356900D01*
Y358100D01*
X529899Y356900D02*
X530299D01*
X530099D01*
Y358100D01*
X529899Y357900D01*
X530899D02*
X531099Y358100D01*
X531499D01*
X531699Y357900D01*
Y357700D01*
X531499Y357500D01*
X531699Y357300D01*
Y357100D01*
X531499Y356900D01*
X531099D01*
X530899Y357100D01*
Y357300D01*
X531099Y357500D01*
X530899Y357700D01*
Y357900D01*
X531099Y357500D02*
X531499D01*
X332100Y431700D02*
X331900Y431900D01*
X331500D01*
X331300Y431700D01*
Y430900D01*
X331500Y430700D01*
X331900D01*
X332100Y430900D01*
X332500Y430700D02*
Y431900D01*
X333299Y430700D01*
Y431900D01*
X333699Y430700D02*
X334099D01*
X333899D01*
Y431900D01*
X333699Y431700D01*
X335499Y431900D02*
X335099Y431700D01*
X334699Y431300D01*
Y430900D01*
X334899Y430700D01*
X335299D01*
X335499Y430900D01*
Y431100D01*
X335299Y431300D01*
X334699D01*
X332000Y342300D02*
X331800Y342500D01*
X331400D01*
X331200Y342300D01*
Y341500D01*
X331400Y341300D01*
X331800D01*
X332000Y341500D01*
X332400Y341300D02*
Y342500D01*
X333199Y341300D01*
Y342500D01*
X333599Y341300D02*
X333999D01*
X333799D01*
Y342500D01*
X333599Y342300D01*
X335399Y342500D02*
X334599D01*
Y341900D01*
X334999Y342100D01*
X335199D01*
X335399Y341900D01*
Y341500D01*
X335199Y341300D01*
X334799D01*
X334599Y341500D01*
X388100Y277100D02*
X387900Y277300D01*
X387500D01*
X387300Y277100D01*
Y276300D01*
X387500Y276100D01*
X387900D01*
X388100Y276300D01*
X388500Y276100D02*
Y277300D01*
X389299Y276100D01*
Y277300D01*
X389699Y276100D02*
X390099D01*
X389899D01*
Y277300D01*
X389699Y277100D01*
X391299Y276100D02*
Y277300D01*
X390699Y276700D01*
X391499D01*
X522700Y291400D02*
X522500Y291600D01*
X522100D01*
X521900Y291400D01*
Y290600D01*
X522100Y290400D01*
X522500D01*
X522700Y290600D01*
X523100Y290400D02*
Y291600D01*
X523899Y290400D01*
Y291600D01*
X524299Y290400D02*
X524699D01*
X524499D01*
Y291600D01*
X524299Y291400D01*
X525299D02*
X525499Y291600D01*
X525899D01*
X526099Y291400D01*
Y291200D01*
X525899Y291000D01*
X525699D01*
X525899D01*
X526099Y290800D01*
Y290600D01*
X525899Y290400D01*
X525499D01*
X525299Y290600D01*
X522700Y245400D02*
X522500Y245600D01*
X522100D01*
X521900Y245400D01*
Y244600D01*
X522100Y244400D01*
X522500D01*
X522700Y244600D01*
X523100Y244400D02*
Y245600D01*
X523899Y244400D01*
Y245600D01*
X524299Y244400D02*
X524699D01*
X524499D01*
Y245600D01*
X524299Y245400D01*
X526099Y244400D02*
X525299D01*
X526099Y245200D01*
Y245400D01*
X525899Y245600D01*
X525499D01*
X525299Y245400D01*
X462500Y226700D02*
X462300Y226900D01*
X461900D01*
X461700Y226700D01*
Y225900D01*
X461900Y225700D01*
X462300D01*
X462500Y225900D01*
X462900Y225700D02*
Y226900D01*
X463699Y225700D01*
Y226900D01*
X464099Y225700D02*
X464499D01*
X464299D01*
Y226900D01*
X464099Y226700D01*
X465099Y225700D02*
X465499D01*
X465299D01*
Y226900D01*
X465099Y226700D01*
X425700Y288400D02*
X425500Y288600D01*
X425101D01*
X424901Y288400D01*
Y287600D01*
X425101Y287400D01*
X425500D01*
X425700Y287600D01*
X426100Y287400D02*
Y288600D01*
X426900Y287400D01*
Y288600D01*
X427300Y287400D02*
X427700D01*
X427500D01*
Y288600D01*
X427300Y288400D01*
X428300D02*
X428500Y288600D01*
X428899D01*
X429099Y288400D01*
Y287600D01*
X428899Y287400D01*
X428500D01*
X428300Y287600D01*
Y288400D01*
X331600Y358600D02*
X331400Y358800D01*
X331000D01*
X330800Y358600D01*
Y357800D01*
X331000Y357600D01*
X331400D01*
X331600Y357800D01*
X332000Y357600D02*
Y358800D01*
X332799Y357600D01*
Y358800D01*
X333199Y357800D02*
X333399Y357600D01*
X333799D01*
X333999Y357800D01*
Y358600D01*
X333799Y358800D01*
X333399D01*
X333199Y358600D01*
Y358400D01*
X333399Y358200D01*
X333999D01*
X432000Y226700D02*
X431800Y226900D01*
X431400D01*
X431200Y226700D01*
Y225900D01*
X431400Y225700D01*
X431800D01*
X432000Y225900D01*
X432400Y225700D02*
Y226900D01*
X433199Y225700D01*
Y226900D01*
X433599Y226700D02*
X433799Y226900D01*
X434199D01*
X434399Y226700D01*
Y226500D01*
X434199Y226300D01*
X434399Y226100D01*
Y225900D01*
X434199Y225700D01*
X433799D01*
X433599Y225900D01*
Y226100D01*
X433799Y226300D01*
X433599Y226500D01*
Y226700D01*
X433799Y226300D02*
X434199D01*
X432200Y248900D02*
X432000Y249100D01*
X431601D01*
X431400Y248900D01*
Y248100D01*
X431601Y247900D01*
X432000D01*
X432200Y248100D01*
X432600Y247900D02*
Y249100D01*
X433400Y247900D01*
Y249100D01*
X433800D02*
X434599D01*
Y248900D01*
X433800Y248100D01*
Y247900D01*
X522700Y268400D02*
X522500Y268600D01*
X522100D01*
X521900Y268400D01*
Y267600D01*
X522100Y267400D01*
X522500D01*
X522700Y267600D01*
X523100Y267400D02*
Y268600D01*
X523899Y267400D01*
Y268600D01*
X525099D02*
X524699Y268400D01*
X524299Y268000D01*
Y267600D01*
X524499Y267400D01*
X524899D01*
X525099Y267600D01*
Y267800D01*
X524899Y268000D01*
X524299D01*
X394800Y467900D02*
X394600Y468100D01*
X394200D01*
X394000Y467900D01*
Y467100D01*
X394200Y466900D01*
X394600D01*
X394800Y467100D01*
X395200Y466900D02*
Y468100D01*
X395999Y466900D01*
Y468100D01*
X397199D02*
X396399D01*
Y467500D01*
X396799Y467700D01*
X396999D01*
X397199Y467500D01*
Y467100D01*
X396999Y466900D01*
X396599D01*
X396399Y467100D01*
X424800Y468100D02*
X424600Y468300D01*
X424200D01*
X424000Y468100D01*
Y467300D01*
X424200Y467100D01*
X424600D01*
X424800Y467300D01*
X425200Y467100D02*
Y468300D01*
X425999Y467100D01*
Y468300D01*
X426999Y467100D02*
Y468300D01*
X426399Y467700D01*
X427199D01*
X483800Y467900D02*
X483600Y468100D01*
X483200D01*
X483000Y467900D01*
Y467100D01*
X483200Y466900D01*
X483600D01*
X483800Y467100D01*
X484200Y466900D02*
Y468100D01*
X484999Y466900D01*
Y468100D01*
X485399Y467900D02*
X485599Y468100D01*
X485999D01*
X486199Y467900D01*
Y467700D01*
X485999Y467500D01*
X485799D01*
X485999D01*
X486199Y467300D01*
Y467100D01*
X485999Y466900D01*
X485599D01*
X485399Y467100D01*
X454300Y467900D02*
X454100Y468100D01*
X453700D01*
X453500Y467900D01*
Y467100D01*
X453700Y466900D01*
X454100D01*
X454300Y467100D01*
X454700Y466900D02*
Y468100D01*
X455499Y466900D01*
Y468100D01*
X456699Y466900D02*
X455899D01*
X456699Y467700D01*
Y467900D01*
X456499Y468100D01*
X456099D01*
X455899Y467900D01*
X513100Y442800D02*
X512900Y443000D01*
X512500D01*
X512300Y442800D01*
Y442000D01*
X512500Y441800D01*
X512900D01*
X513100Y442000D01*
X513500Y441800D02*
Y443000D01*
X514299Y441800D01*
Y443000D01*
X514699Y441800D02*
X515099D01*
X514899D01*
Y443000D01*
X514699Y442800D01*
X412400Y392300D02*
X412200Y392500D01*
X411800D01*
X411600Y392300D01*
Y391500D01*
X411800Y391300D01*
X412200D01*
X412400Y391500D01*
X412800Y391300D02*
X413200D01*
X412999D01*
Y392500D01*
X412800Y392300D01*
X413799Y391500D02*
X413999Y391300D01*
X414399D01*
X414599Y391500D01*
Y392300D01*
X414399Y392500D01*
X413999D01*
X413799Y392300D01*
Y392100D01*
X413999Y391900D01*
X414599D01*
X451100Y259100D02*
X450900Y259300D01*
X450500D01*
X450300Y259100D01*
Y258300D01*
X450500Y258100D01*
X450900D01*
X451100Y258300D01*
X451500Y258100D02*
X451899D01*
X451699D01*
Y259300D01*
X451500Y259100D01*
X452499D02*
X452699Y259300D01*
X453099D01*
X453299Y259100D01*
Y258900D01*
X453099Y258700D01*
X453299Y258500D01*
Y258300D01*
X453099Y258100D01*
X452699D01*
X452499Y258300D01*
Y258500D01*
X452699Y258700D01*
X452499Y258900D01*
Y259100D01*
X452699Y258700D02*
X453099D01*
X428300Y259100D02*
X428100Y259300D01*
X427700D01*
X427500Y259100D01*
Y258300D01*
X427700Y258100D01*
X428100D01*
X428300Y258300D01*
X428700Y258100D02*
X429100D01*
X428899D01*
Y259300D01*
X428700Y259100D01*
X429699Y259300D02*
X430499D01*
Y259100D01*
X429699Y258300D01*
Y258100D01*
X419500Y303800D02*
X419300Y304000D01*
X418900D01*
X418700Y303800D01*
Y303000D01*
X418900Y302800D01*
X419300D01*
X419500Y303000D01*
X419900Y302800D02*
X420299D01*
X420099D01*
Y304000D01*
X419900Y303800D01*
X421699Y304000D02*
X421299Y303800D01*
X420899Y303400D01*
Y303000D01*
X421099Y302800D01*
X421499D01*
X421699Y303000D01*
Y303200D01*
X421499Y303400D01*
X420899D01*
X419500Y310300D02*
X419300Y310500D01*
X418900D01*
X418700Y310300D01*
Y309500D01*
X418900Y309300D01*
X419300D01*
X419500Y309500D01*
X419900Y309300D02*
X420299D01*
X420099D01*
Y310500D01*
X419900Y310300D01*
X421699Y310500D02*
X420899D01*
Y309900D01*
X421299Y310100D01*
X421499D01*
X421699Y309900D01*
Y309500D01*
X421499Y309300D01*
X421099D01*
X420899Y309500D01*
X442300Y363500D02*
X442100Y363700D01*
X441700D01*
X441500Y363500D01*
Y362700D01*
X441700Y362500D01*
X442100D01*
X442300Y362700D01*
X442700Y362500D02*
X443099D01*
X442900D01*
Y363700D01*
X442700Y363500D01*
X444299Y362500D02*
Y363700D01*
X443699Y363100D01*
X444499D01*
X491400Y348000D02*
X491200Y348200D01*
X490800D01*
X490600Y348000D01*
Y347200D01*
X490800Y347000D01*
X491200D01*
X491400Y347200D01*
X491800Y347000D02*
X492200D01*
X491999D01*
Y348200D01*
X491800Y348000D01*
X492799D02*
X492999Y348200D01*
X493399D01*
X493599Y348000D01*
Y347800D01*
X493399Y347600D01*
X493199D01*
X493399D01*
X493599Y347400D01*
Y347200D01*
X493399Y347000D01*
X492999D01*
X492799Y347200D01*
X493400Y314300D02*
X493200Y314500D01*
X492800D01*
X492600Y314300D01*
Y313500D01*
X492800Y313300D01*
X493200D01*
X493400Y313500D01*
X493800Y313300D02*
X494200D01*
X493999D01*
Y314500D01*
X493800Y314300D01*
X495599Y313300D02*
X494799D01*
X495599Y314100D01*
Y314300D01*
X495399Y314500D01*
X494999D01*
X494799Y314300D01*
X520400Y278500D02*
X520600Y278700D01*
Y279100D01*
X520400Y279300D01*
X519600D01*
X519400Y279100D01*
Y278700D01*
X519600Y278500D01*
X519400Y278100D02*
Y277700D01*
Y277900D01*
X520600D01*
X520400Y278100D01*
X519400Y277100D02*
Y276700D01*
Y276900D01*
X520600D01*
X520400Y277100D01*
X514300Y243900D02*
X514100Y244100D01*
X513700D01*
X513500Y243900D01*
Y243100D01*
X513700Y242900D01*
X514100D01*
X514300Y243100D01*
X514700Y242900D02*
X515100D01*
X514900D01*
Y244100D01*
X514700Y243900D01*
X515700D02*
X515900Y244100D01*
X516300D01*
X516500Y243900D01*
Y243100D01*
X516300Y242900D01*
X515900D01*
X515700Y243100D01*
Y243900D01*
X439600Y259100D02*
X439400Y259300D01*
X439000D01*
X438800Y259100D01*
Y258300D01*
X439000Y258100D01*
X439400D01*
X439600Y258300D01*
X440000D02*
X440200Y258100D01*
X440599D01*
X440799Y258300D01*
Y259100D01*
X440599Y259300D01*
X440200D01*
X440000Y259100D01*
Y258900D01*
X440200Y258700D01*
X440799D01*
X496000Y226800D02*
X495800Y227000D01*
X495400D01*
X495200Y226800D01*
Y226000D01*
X495400Y225800D01*
X495800D01*
X496000Y226000D01*
X496400Y226800D02*
X496599Y227000D01*
X496999D01*
X497199Y226800D01*
Y226600D01*
X496999Y226400D01*
X497199Y226200D01*
Y226000D01*
X496999Y225800D01*
X496599D01*
X496400Y226000D01*
Y226200D01*
X496599Y226400D01*
X496400Y226600D01*
Y226800D01*
X496599Y226400D02*
X496999D01*
X470000Y279300D02*
X469800Y279500D01*
X469400D01*
X469200Y279300D01*
Y278500D01*
X469400Y278300D01*
X469800D01*
X470000Y278500D01*
X470400Y279500D02*
X471199D01*
Y279300D01*
X470400Y278500D01*
Y278300D01*
X470000Y272800D02*
X469800Y273000D01*
X469400D01*
X469200Y272800D01*
Y272000D01*
X469400Y271800D01*
X469800D01*
X470000Y272000D01*
X471199Y273000D02*
X470799Y272800D01*
X470400Y272400D01*
Y272000D01*
X470600Y271800D01*
X470999D01*
X471199Y272000D01*
Y272200D01*
X470999Y272400D01*
X470400D01*
X463400Y290800D02*
X463200Y291000D01*
X462800D01*
X462600Y290800D01*
Y290000D01*
X462800Y289800D01*
X463200D01*
X463400Y290000D01*
X464599Y291000D02*
X463800D01*
Y290400D01*
X464199Y290600D01*
X464399D01*
X464599Y290400D01*
Y290000D01*
X464399Y289800D01*
X464000D01*
X463800Y290000D01*
X470100Y290400D02*
X469900Y290600D01*
X469500D01*
X469300Y290400D01*
Y289600D01*
X469500Y289400D01*
X469900D01*
X470100Y289600D01*
X471099Y289400D02*
Y290600D01*
X470500Y290000D01*
X471299D01*
X522200Y252443D02*
X522400Y252243D01*
X522800D01*
X523000Y252443D01*
Y253242D01*
X522800Y253442D01*
X522400D01*
X522200Y253242D01*
X521800Y252443D02*
X521600Y252243D01*
X521200D01*
X521000Y252443D01*
Y252643D01*
X521200Y252842D01*
X521400D01*
X521200D01*
X521000Y253043D01*
Y253242D01*
X521200Y253442D01*
X521600D01*
X521800Y253242D01*
X492100Y412100D02*
X491900Y412300D01*
X491500D01*
X491300Y412100D01*
Y411300D01*
X491500Y411100D01*
X491900D01*
X492100Y411300D01*
X493299Y411100D02*
X492500D01*
X493299Y411900D01*
Y412100D01*
X493099Y412300D01*
X492699D01*
X492500Y412100D01*
X462100D02*
X461900Y412300D01*
X461500D01*
X461300Y412100D01*
Y411300D01*
X461500Y411100D01*
X461900D01*
X462100Y411300D01*
X462500Y411100D02*
X462899D01*
X462700D01*
Y412300D01*
X462500Y412100D01*
M02*
