%TF.GenerationSoftware,Altium Limited,Altium Designer,23.3.1 (30)*%
G04 Layer_Color=0*
%FSLAX25Y25*%
%MOIN*%
%TF.SameCoordinates,70BEFA69-D3B7-480D-BB84-950A8577B244*%
%TF.FilePolarity,Positive*%
%TF.FileFunction,Plated,1,2,PTH,Drill*%
%TF.Part,Single*%
G01*
G75*
%TA.AperFunction,ComponentDrill*%
%ADD97C,0.03543*%
%ADD98C,0.03622*%
%ADD99C,0.09055*%
%ADD100C,0.03543*%
%ADD101C,0.02756*%
%ADD102C,0.02756*%
%ADD103C,0.12000*%
%ADD104C,0.04331*%
%TA.AperFunction,ViaDrill,NotFilled*%
%ADD105C,0.01181*%
D97*
X386200Y350000D02*
D03*
X376200D02*
D03*
X366200D02*
D03*
X356200D02*
D03*
X346200D02*
D03*
X336200D02*
D03*
X435000Y267000D02*
D03*
X425000D02*
D03*
X415000D02*
D03*
D98*
X383169Y409146D02*
D03*
Y391429D02*
D03*
Y399303D02*
D03*
Y381587D02*
D03*
D99*
X372500Y421232D02*
D03*
Y369500D02*
D03*
D100*
X489100Y360300D02*
D03*
Y370300D02*
D03*
X409500Y442842D02*
D03*
Y452685D02*
D03*
Y433000D02*
D03*
X439500Y443000D02*
D03*
Y452843D02*
D03*
Y433157D02*
D03*
X469000Y442842D02*
D03*
Y452685D02*
D03*
Y433000D02*
D03*
X498500Y442842D02*
D03*
Y452685D02*
D03*
Y433000D02*
D03*
D101*
X536000Y337000D02*
D03*
Y344874D02*
D03*
X466000Y243500D02*
D03*
Y212004D02*
D03*
Y235626D02*
D03*
Y227752D02*
D03*
Y219878D02*
D03*
D102*
X531500Y233500D02*
D03*
X539374D02*
D03*
X531500Y279500D02*
D03*
X539374D02*
D03*
X531563Y256500D02*
D03*
X539437D02*
D03*
D103*
X514000Y300500D02*
D03*
X437500Y213600D02*
D03*
X373000Y270000D02*
D03*
X364500Y441600D02*
D03*
X533000Y452100D02*
D03*
D104*
X534500Y211500D02*
D03*
Y201500D02*
D03*
D105*
X452257Y348121D02*
D03*
X451605Y351712D02*
D03*
X449100Y347400D02*
D03*
X514800Y416500D02*
D03*
X515000Y420500D02*
D03*
X512200Y422400D02*
D03*
X511700Y418500D02*
D03*
X448500Y314100D02*
D03*
X448000Y318100D02*
D03*
X514000Y398700D02*
D03*
X514100Y402600D02*
D03*
Y406700D02*
D03*
X460400Y305700D02*
D03*
X447900Y310100D02*
D03*
X445300Y312200D02*
D03*
X452000Y305100D02*
D03*
X455800Y306200D02*
D03*
X446500Y290500D02*
D03*
X441000Y283000D02*
D03*
X435000Y257500D02*
D03*
X475000Y220000D02*
D03*
X463000Y258500D02*
D03*
X457000Y233500D02*
D03*
X466108Y291608D02*
D03*
X517676Y212676D02*
D03*
X451500Y370500D02*
D03*
X456500Y376500D02*
D03*
X471300Y377300D02*
D03*
X479900Y355200D02*
D03*
X455800Y364200D02*
D03*
X405500Y276200D02*
D03*
X379000Y312500D02*
D03*
X427000Y276500D02*
D03*
X452300Y276100D02*
D03*
X432000Y330000D02*
D03*
X427000Y331000D02*
D03*
Y318500D02*
D03*
X408500Y305000D02*
D03*
X427000Y313000D02*
D03*
X404000Y307500D02*
D03*
Y320000D02*
D03*
X410500Y322000D02*
D03*
X424000Y334000D02*
D03*
X479800Y351000D02*
D03*
X439500Y341700D02*
D03*
X474400Y396900D02*
D03*
X488978Y442788D02*
D03*
X422528Y452562D02*
D03*
X495300Y284800D02*
D03*
X501939Y261490D02*
D03*
X485600Y238600D02*
D03*
X501900D02*
D03*
X445324Y320064D02*
D03*
X489000Y387000D02*
D03*
X445200Y316100D02*
D03*
X511100Y414500D02*
D03*
X476000Y348500D02*
D03*
X447000Y331900D02*
D03*
X458500Y361500D02*
D03*
X480000Y365200D02*
D03*
X452602Y308283D02*
D03*
X510900Y408700D02*
D03*
X511000Y404700D02*
D03*
X510500Y400650D02*
D03*
Y397000D02*
D03*
X462280Y302221D02*
D03*
X455500Y302500D02*
D03*
X464374Y304874D02*
D03*
X510000Y393000D02*
D03*
X513000Y395000D02*
D03*
X477500Y311500D02*
D03*
X476500Y305000D02*
D03*
X491500Y326000D02*
D03*
X512500Y391000D02*
D03*
X458486Y355000D02*
D03*
X468200Y350700D02*
D03*
X466217Y353283D02*
D03*
X486500Y380500D02*
D03*
X395500Y399500D02*
D03*
X459000Y443000D02*
D03*
X416000Y364000D02*
D03*
X401500Y378500D02*
D03*
X421500Y369500D02*
D03*
X407000Y384000D02*
D03*
X520500Y227000D02*
D03*
X521000Y250500D02*
D03*
X522000Y274500D02*
D03*
X524000Y330000D02*
D03*
X522500Y337000D02*
D03*
%TF.MD5,d16929669d3e73e4541b8ebd90322b13*%
M02*
