G04*
G04 #@! TF.GenerationSoftware,Altium Limited,Altium Designer,23.3.1 (30)*
G04*
G04 Layer_Color=8388736*
%FSLAX25Y25*%
%MOIN*%
G70*
G04*
G04 #@! TF.SameCoordinates,6E427E01-6470-4732-AD83-5CA9447D70B9*
G04*
G04*
G04 #@! TF.FilePolarity,Negative*
G04*
G01*
G75*
G04:AMPARAMS|DCode=41|XSize=53.15mil|YSize=29.53mil|CornerRadius=0mil|HoleSize=0mil|Usage=FLASHONLY|Rotation=315.000|XOffset=0mil|YOffset=0mil|HoleType=Round|Shape=Rectangle|*
%AMROTATEDRECTD41*
4,1,4,-0.02923,0.00835,-0.00835,0.02923,0.02923,-0.00835,0.00835,-0.02923,-0.02923,0.00835,0.0*
%
%ADD41ROTATEDRECTD41*%

G04:AMPARAMS|DCode=42|XSize=41.34mil|YSize=37.4mil|CornerRadius=0mil|HoleSize=0mil|Usage=FLASHONLY|Rotation=45.000|XOffset=0mil|YOffset=0mil|HoleType=Round|Shape=Rectangle|*
%AMROTATEDRECTD42*
4,1,4,-0.00139,-0.02784,-0.02784,-0.00139,0.00139,0.02784,0.02784,0.00139,-0.00139,-0.02784,0.0*
%
%ADD42ROTATEDRECTD42*%

%ADD43R,0.04528X0.04134*%
%ADD44R,0.06693X0.02953*%
%ADD45R,0.07677X0.05315*%
%ADD46R,0.01772X0.06398*%
%ADD47R,0.06398X0.01772*%
%ADD48R,0.03740X0.04134*%
%ADD49R,0.04134X0.03740*%
%ADD50R,0.04134X0.03740*%
%ADD51R,0.04331X0.03937*%
%ADD52R,0.05315X0.05315*%
%ADD53R,0.06890X0.11614*%
%ADD54R,0.05709X0.01772*%
%ADD55R,0.09252X0.07677*%
%ADD56R,0.10039X0.08465*%
%ADD57R,0.04921X0.03347*%
%ADD58R,0.07795X0.05079*%
%ADD59R,0.11614X0.03976*%
%ADD60R,0.13701X0.03347*%
%ADD61R,0.04252X0.04134*%
%ADD62R,0.03661X0.04724*%
%ADD63R,0.17598X0.07756*%
%ADD64R,0.14449X0.07953*%
%ADD65R,0.04134X0.04528*%
%ADD66R,0.05039X0.03583*%
%ADD67R,0.06496X0.06496*%
%ADD68C,0.06496*%
%ADD69R,0.06496X0.06496*%
%ADD70O,0.06496X0.10433*%
%ADD71C,0.12402*%
%ADD72C,0.07284*%
%ADD73O,0.10433X0.07480*%
%ADD74O,0.10433X0.06496*%
%ADD75O,0.07480X0.10433*%
%ADD76C,0.02362*%
%ADD77C,0.02874*%
%ADD78C,0.02559*%
D41*
X417625Y373165D02*
D03*
X414980Y370520D02*
D03*
X412335Y367876D02*
D03*
X405375Y374835D02*
D03*
X408020Y377480D02*
D03*
X410665Y380124D02*
D03*
D42*
X418500Y382000D02*
D03*
X414603Y385897D02*
D03*
D43*
X493500Y336343D02*
D03*
Y341657D02*
D03*
X516000Y238815D02*
D03*
Y233500D02*
D03*
Y261500D02*
D03*
Y256185D02*
D03*
Y284658D02*
D03*
Y279343D02*
D03*
X465500Y279185D02*
D03*
Y284500D02*
D03*
X444400Y357157D02*
D03*
Y351842D02*
D03*
D44*
X531500Y306000D02*
D03*
Y309937D02*
D03*
Y313874D02*
D03*
D45*
X541441Y300882D02*
D03*
Y318992D02*
D03*
D46*
X446531Y296500D02*
D03*
X448500D02*
D03*
X450468D02*
D03*
X452437D02*
D03*
X454405Y296500D02*
D03*
X456374Y296500D02*
D03*
X458343D02*
D03*
X460311D02*
D03*
X462280D02*
D03*
X464248D02*
D03*
X466217D02*
D03*
X468185Y296500D02*
D03*
X470154Y296500D02*
D03*
X472122D02*
D03*
X474091D02*
D03*
X476059D02*
D03*
Y341681D02*
D03*
X474091D02*
D03*
X472122D02*
D03*
X470154D02*
D03*
X468185Y341681D02*
D03*
X466217Y341681D02*
D03*
X464248D02*
D03*
X462280D02*
D03*
X460311D02*
D03*
X458343D02*
D03*
X456374D02*
D03*
X454405Y341681D02*
D03*
X452437Y341681D02*
D03*
X450468D02*
D03*
X448500D02*
D03*
X446531D02*
D03*
D47*
X483886Y304327D02*
D03*
Y306295D02*
D03*
Y308264D02*
D03*
Y310232D02*
D03*
X483886Y312201D02*
D03*
X483886Y314169D02*
D03*
Y316138D02*
D03*
Y318106D02*
D03*
Y320075D02*
D03*
Y322043D02*
D03*
Y324012D02*
D03*
X483886Y325980D02*
D03*
X483886Y327949D02*
D03*
Y329917D02*
D03*
Y331886D02*
D03*
Y333854D02*
D03*
X438705D02*
D03*
Y331886D02*
D03*
Y329917D02*
D03*
Y327949D02*
D03*
X438705Y325980D02*
D03*
X438705Y324012D02*
D03*
Y322043D02*
D03*
Y320075D02*
D03*
Y318106D02*
D03*
Y316138D02*
D03*
Y314169D02*
D03*
X438705Y312201D02*
D03*
X438705Y310232D02*
D03*
Y308264D02*
D03*
Y306295D02*
D03*
Y304327D02*
D03*
D48*
X430756Y401500D02*
D03*
X425244D02*
D03*
X430756Y407000D02*
D03*
X425244D02*
D03*
X478244Y392000D02*
D03*
X483756D02*
D03*
X448488Y392000D02*
D03*
X454000D02*
D03*
X446256Y253500D02*
D03*
X440744D02*
D03*
X406756Y290000D02*
D03*
X401244D02*
D03*
X406756Y295500D02*
D03*
X401244D02*
D03*
X452244Y253500D02*
D03*
X457756D02*
D03*
X435000Y253500D02*
D03*
X429488D02*
D03*
D49*
X395500Y409256D02*
D03*
Y403744D02*
D03*
X401500Y403744D02*
D03*
Y409256D02*
D03*
X478000Y401244D02*
D03*
Y406756D02*
D03*
X448000Y401488D02*
D03*
Y407000D02*
D03*
X493500Y406756D02*
D03*
Y401244D02*
D03*
X463500Y406756D02*
D03*
Y401244D02*
D03*
X471500Y279488D02*
D03*
Y285000D02*
D03*
D50*
X416937Y407000D02*
D03*
X409063Y403260D02*
D03*
Y410740D02*
D03*
D51*
X458500Y279441D02*
D03*
Y284559D02*
D03*
X509000Y279500D02*
D03*
Y284618D02*
D03*
Y233441D02*
D03*
Y238559D02*
D03*
Y256382D02*
D03*
Y261500D02*
D03*
D52*
X455500Y408268D02*
D03*
Y400000D02*
D03*
X485500Y408134D02*
D03*
Y399866D02*
D03*
D53*
X506500Y200035D02*
D03*
Y216965D02*
D03*
D54*
X520000Y375189D02*
D03*
Y377157D02*
D03*
Y379126D02*
D03*
Y381095D02*
D03*
Y383063D02*
D03*
Y385032D02*
D03*
Y387000D02*
D03*
Y388968D02*
D03*
Y390937D02*
D03*
Y392905D02*
D03*
Y394874D02*
D03*
Y396843D02*
D03*
Y398811D02*
D03*
Y400779D02*
D03*
Y402748D02*
D03*
Y404716D02*
D03*
Y406685D02*
D03*
Y408653D02*
D03*
Y410622D02*
D03*
Y412591D02*
D03*
Y414559D02*
D03*
Y416528D02*
D03*
Y418496D02*
D03*
Y420465D02*
D03*
Y422433D02*
D03*
Y424402D02*
D03*
D55*
X532795Y367709D02*
D03*
Y431882D02*
D03*
D56*
X449874Y266500D02*
D03*
X434126D02*
D03*
D57*
X386000Y317484D02*
D03*
Y313154D02*
D03*
Y308823D02*
D03*
Y304492D02*
D03*
Y300161D02*
D03*
Y295831D02*
D03*
Y291500D02*
D03*
Y287169D02*
D03*
D58*
X385941Y332760D02*
D03*
D59*
X384032Y282917D02*
D03*
D60*
X341650Y282602D02*
D03*
Y333626D02*
D03*
D61*
X336925Y324532D02*
D03*
D62*
X336630Y307740D02*
D03*
D63*
X401653Y226500D02*
D03*
D64*
X341181D02*
D03*
D65*
X421685Y297500D02*
D03*
X427000D02*
D03*
X421685Y304000D02*
D03*
X427000D02*
D03*
X500815Y308000D02*
D03*
X495500D02*
D03*
X472185Y273000D02*
D03*
X477500D02*
D03*
X472185Y266500D02*
D03*
X477500D02*
D03*
D66*
X485500Y259555D02*
D03*
Y266445D02*
D03*
D67*
X489100Y370300D02*
D03*
D68*
Y360300D02*
D03*
X404500Y281000D02*
D03*
X414500D02*
D03*
X346000Y350000D02*
D03*
X356000D02*
D03*
X366000D02*
D03*
X376000D02*
D03*
X386000D02*
D03*
X402500Y268500D02*
D03*
X412500D02*
D03*
D69*
X424500Y281000D02*
D03*
X336000Y350000D02*
D03*
X392500Y268500D02*
D03*
D70*
X448752Y238500D02*
D03*
X456626D02*
D03*
X464500D02*
D03*
X440878D02*
D03*
X472374D02*
D03*
X539374Y279500D02*
D03*
X531500D02*
D03*
X539374Y233500D02*
D03*
X531500D02*
D03*
X539437Y256500D02*
D03*
X531563D02*
D03*
D71*
X372500Y369500D02*
D03*
Y421232D02*
D03*
D72*
X383169Y381587D02*
D03*
Y399303D02*
D03*
Y391429D02*
D03*
Y409146D02*
D03*
D73*
X498500Y433000D02*
D03*
Y452685D02*
D03*
Y442842D02*
D03*
X469000Y433000D02*
D03*
Y452685D02*
D03*
Y442842D02*
D03*
X409500Y433000D02*
D03*
Y452685D02*
D03*
Y442842D02*
D03*
X439500Y433157D02*
D03*
Y452843D02*
D03*
Y443000D02*
D03*
D74*
X536000Y344874D02*
D03*
Y337000D02*
D03*
D75*
X439000Y208500D02*
D03*
X449000D02*
D03*
X469500D02*
D03*
X479500D02*
D03*
D76*
X385000Y226500D02*
D03*
D77*
X356457D02*
D03*
D78*
X447407Y248315D02*
D03*
X479800Y351000D02*
D03*
X439500Y341700D02*
D03*
X474400Y396900D02*
D03*
X488978Y442788D02*
D03*
X422528Y452562D02*
D03*
X495300Y284800D02*
D03*
X452300Y276100D02*
D03*
X381900Y304400D02*
D03*
X411500Y274000D02*
D03*
X424525Y290002D02*
D03*
X414500Y299300D02*
D03*
X462100Y267300D02*
D03*
X501939Y261490D02*
D03*
X485600Y238600D02*
D03*
X501900D02*
D03*
X492700Y202700D02*
D03*
X512200Y422400D02*
D03*
X445324Y320064D02*
D03*
X447400Y318100D02*
D03*
X447100Y310100D02*
D03*
X447500Y314100D02*
D03*
X514200Y420400D02*
D03*
X511700Y418500D02*
D03*
X489000Y387000D02*
D03*
X445200Y316100D02*
D03*
X511100Y414500D02*
D03*
X513700Y416500D02*
D03*
X445300Y312200D02*
D03*
X471300Y377300D02*
D03*
X476000Y348500D02*
D03*
X455800Y364200D02*
D03*
X447000Y331900D02*
D03*
X458500Y361500D02*
D03*
X479900Y355200D02*
D03*
X480000Y365200D02*
D03*
X452602Y308283D02*
D03*
X455240Y305760D02*
D03*
X452200Y305300D02*
D03*
X510900Y408700D02*
D03*
X511000Y404700D02*
D03*
X513400Y406700D02*
D03*
X510500Y400650D02*
D03*
Y397000D02*
D03*
X513000Y402539D02*
D03*
X460358Y304653D02*
D03*
X513000Y398746D02*
D03*
X462280Y302221D02*
D03*
X455500Y302500D02*
D03*
X464374Y304874D02*
D03*
X510000Y393000D02*
D03*
X513000Y395000D02*
D03*
X477500Y311500D02*
D03*
X476500Y305000D02*
D03*
X491500Y326000D02*
D03*
X512500Y391000D02*
D03*
X458486Y355000D02*
D03*
X468200Y350700D02*
D03*
X466217Y353283D02*
D03*
X486500Y380500D02*
D03*
X443000Y288500D02*
D03*
X412500Y258500D02*
D03*
Y322000D02*
D03*
X399500Y334000D02*
D03*
X449500Y348000D02*
D03*
X395500Y399500D02*
D03*
X459000Y443000D02*
D03*
X421000Y324000D02*
D03*
X415000Y328000D02*
D03*
X409000Y330000D02*
D03*
X397500Y309000D02*
D03*
X392500D02*
D03*
X452000Y351012D02*
D03*
X452457Y347945D02*
D03*
X416000Y364000D02*
D03*
X401500Y378500D02*
D03*
X421500Y369500D02*
D03*
X407000Y384000D02*
D03*
X520500Y227000D02*
D03*
X521000Y250500D02*
D03*
X522000Y274500D02*
D03*
X524000Y330000D02*
D03*
X522500Y337000D02*
D03*
M02*
