%TF.GenerationSoftware,Altium Limited,Altium Designer,23.3.1 (30)*%
G04 Layer_Color=8388736*
%FSLAX25Y25*%
%MOIN*%
%TF.SameCoordinates,70BEFA69-D3B7-480D-BB84-950A8577B244*%
%TF.FilePolarity,Negative*%
%TF.FileFunction,Soldermask,Top*%
%TF.Part,Single*%
G01*
G75*
%TA.AperFunction,SMDPad,CuDef*%
%ADD57R,0.06890X0.11614*%
%ADD58R,0.04331X0.03937*%
%ADD59R,0.09252X0.07677*%
%ADD60R,0.05709X0.01772*%
%ADD61R,0.04134X0.03740*%
%ADD62R,0.03740X0.04134*%
G04:AMPARAMS|DCode=63|XSize=53.15mil|YSize=29.53mil|CornerRadius=0mil|HoleSize=0mil|Usage=FLASHONLY|Rotation=315.000|XOffset=0mil|YOffset=0mil|HoleType=Round|Shape=Rectangle|*
%AMROTATEDRECTD63*
4,1,4,-0.02923,0.00835,-0.00835,0.02923,0.02923,-0.00835,0.00835,-0.02923,-0.02923,0.00835,0.0*
%
%ADD63ROTATEDRECTD63*%

G04:AMPARAMS|DCode=64|XSize=41.34mil|YSize=37.4mil|CornerRadius=0mil|HoleSize=0mil|Usage=FLASHONLY|Rotation=45.000|XOffset=0mil|YOffset=0mil|HoleType=Round|Shape=Rectangle|*
%AMROTATEDRECTD64*
4,1,4,-0.00139,-0.02784,-0.02784,-0.00139,0.00139,0.02784,0.02784,0.00139,-0.00139,-0.02784,0.0*
%
%ADD64ROTATEDRECTD64*%

%TA.AperFunction,ConnectorPad*%
%ADD65R,0.05315X0.03347*%
%ADD66R,0.05315X0.04528*%
%ADD67R,0.03740X0.04528*%
%ADD68R,0.11614X0.04528*%
%ADD69R,0.08071X0.05709*%
%TA.AperFunction,SMDPad,CuDef*%
%ADD70R,0.04134X0.04528*%
%ADD71R,0.04528X0.04134*%
%ADD72R,0.04134X0.03740*%
%ADD73R,0.05039X0.03583*%
%TA.AperFunction,ConnectorPad*%
%ADD74R,0.14449X0.07953*%
%ADD75R,0.17598X0.07756*%
%TA.AperFunction,SMDPad,CuDef*%
G04:AMPARAMS|DCode=76|XSize=43.31mil|YSize=39.37mil|CornerRadius=0mil|HoleSize=0mil|Usage=FLASHONLY|Rotation=225.000|XOffset=0mil|YOffset=0mil|HoleType=Round|Shape=Rectangle|*
%AMROTATEDRECTD76*
4,1,4,0.00139,0.02923,0.02923,0.00139,-0.00139,-0.02923,-0.02923,-0.00139,0.00139,0.02923,0.0*
%
%ADD76ROTATEDRECTD76*%

%ADD77R,0.03937X0.04331*%
%TA.AperFunction,ConnectorPad*%
%ADD78R,0.06693X0.02953*%
%ADD79R,0.07677X0.05315*%
%TA.AperFunction,SMDPad,CuDef*%
%ADD80R,0.01772X0.06398*%
%ADD81R,0.06398X0.01772*%
%ADD82R,0.05315X0.05315*%
%TA.AperFunction,ComponentPad*%
%ADD83C,0.06496*%
%ADD84R,0.06496X0.06496*%
%ADD85C,0.07284*%
%ADD86C,0.12402*%
%ADD87R,0.06496X0.06496*%
%ADD88O,0.10433X0.06496*%
%ADD89C,0.02874*%
%ADD90C,0.02362*%
%ADD91O,0.06496X0.10433*%
%ADD92C,0.15591*%
%ADD93O,0.10433X0.07480*%
%TA.AperFunction,ViaPad*%
%ADD94C,0.02559*%
D57*
X503500Y201535D02*
D03*
Y218465D02*
D03*
D58*
X509000Y261500D02*
D03*
Y256382D02*
D03*
Y284618D02*
D03*
Y279500D02*
D03*
X458500Y284559D02*
D03*
Y279441D02*
D03*
X509000Y238559D02*
D03*
Y233441D02*
D03*
D59*
X532795Y431882D02*
D03*
Y367709D02*
D03*
D60*
X520000Y424402D02*
D03*
Y422433D02*
D03*
Y420465D02*
D03*
Y418496D02*
D03*
Y416528D02*
D03*
Y414559D02*
D03*
Y412591D02*
D03*
Y410622D02*
D03*
Y408653D02*
D03*
Y406685D02*
D03*
Y404716D02*
D03*
Y402748D02*
D03*
Y400779D02*
D03*
Y398811D02*
D03*
Y396843D02*
D03*
Y394874D02*
D03*
Y392905D02*
D03*
Y390937D02*
D03*
Y388968D02*
D03*
Y387000D02*
D03*
Y385032D02*
D03*
Y383063D02*
D03*
Y381095D02*
D03*
Y379126D02*
D03*
Y377157D02*
D03*
Y375189D02*
D03*
D61*
X478000Y406756D02*
D03*
Y401244D02*
D03*
X448000Y407000D02*
D03*
Y401488D02*
D03*
X395500Y403744D02*
D03*
Y409256D02*
D03*
X401500Y409256D02*
D03*
Y403744D02*
D03*
X405500Y289744D02*
D03*
Y295256D02*
D03*
X471500Y285000D02*
D03*
Y279488D02*
D03*
X483000Y210244D02*
D03*
Y215756D02*
D03*
X493500Y406756D02*
D03*
Y401244D02*
D03*
X463500Y406756D02*
D03*
Y401244D02*
D03*
D62*
X455500Y392000D02*
D03*
X449988D02*
D03*
X414000Y318500D02*
D03*
X419512D02*
D03*
Y313000D02*
D03*
X414000D02*
D03*
X483756Y392000D02*
D03*
X478244D02*
D03*
X425244Y407000D02*
D03*
X430756D02*
D03*
X425244Y401500D02*
D03*
X430756D02*
D03*
X420744Y341500D02*
D03*
X426256D02*
D03*
X414244Y331000D02*
D03*
X419756D02*
D03*
D63*
X410665Y380124D02*
D03*
X408020Y377480D02*
D03*
X405375Y374835D02*
D03*
X412335Y367876D02*
D03*
X414980Y370520D02*
D03*
X417625Y373165D02*
D03*
D64*
X414603Y385897D02*
D03*
X418500Y382000D02*
D03*
D65*
X395807Y299402D02*
D03*
Y303732D02*
D03*
Y308063D02*
D03*
Y312394D02*
D03*
Y316724D02*
D03*
Y321055D02*
D03*
Y325386D02*
D03*
Y329716D02*
D03*
Y333457D02*
D03*
D66*
Y293299D02*
D03*
X378878Y337197D02*
D03*
D67*
X354468Y337787D02*
D03*
D68*
X338327Y337197D02*
D03*
D69*
X336358Y284638D02*
D03*
D70*
X427000Y304000D02*
D03*
X421685D02*
D03*
X427000Y297500D02*
D03*
X421685D02*
D03*
X495500Y308000D02*
D03*
X500815D02*
D03*
X477500Y273000D02*
D03*
X472185D02*
D03*
X477500Y266500D02*
D03*
X472185D02*
D03*
D71*
X446500Y354500D02*
D03*
Y359815D02*
D03*
X493500Y341657D02*
D03*
Y336343D02*
D03*
X465500Y284500D02*
D03*
Y279185D02*
D03*
X516000Y238815D02*
D03*
Y233500D02*
D03*
Y261500D02*
D03*
Y256185D02*
D03*
Y284658D02*
D03*
Y279343D02*
D03*
D72*
X409063Y410740D02*
D03*
Y403260D02*
D03*
X416937Y407000D02*
D03*
D73*
X485500Y266445D02*
D03*
Y259555D02*
D03*
D74*
X341181Y226500D02*
D03*
D75*
X401653D02*
D03*
D76*
X446809Y373190D02*
D03*
X443190Y376810D02*
D03*
X453619Y380381D02*
D03*
X450000Y384000D02*
D03*
D77*
X457559Y258500D02*
D03*
X452441D02*
D03*
D78*
X531500Y306000D02*
D03*
Y309937D02*
D03*
Y313874D02*
D03*
D79*
X541441Y300882D02*
D03*
Y318992D02*
D03*
D80*
X446531Y296500D02*
D03*
X448500D02*
D03*
X450468D02*
D03*
X452437D02*
D03*
X454405Y296500D02*
D03*
X456374Y296500D02*
D03*
X458343D02*
D03*
X460311D02*
D03*
X462280D02*
D03*
X464248D02*
D03*
X466217D02*
D03*
X468185Y296500D02*
D03*
X470154Y296500D02*
D03*
X472122D02*
D03*
X474091D02*
D03*
X476059D02*
D03*
Y341681D02*
D03*
X474091D02*
D03*
X472122D02*
D03*
X470154D02*
D03*
X468185Y341681D02*
D03*
X466217Y341681D02*
D03*
X464248D02*
D03*
X462280D02*
D03*
X460311D02*
D03*
X458343D02*
D03*
X456374D02*
D03*
X454405Y341681D02*
D03*
X452437Y341681D02*
D03*
X450468D02*
D03*
X448500D02*
D03*
X446531D02*
D03*
D81*
X483886Y304327D02*
D03*
Y306295D02*
D03*
Y308264D02*
D03*
Y310232D02*
D03*
X483886Y312201D02*
D03*
X483886Y314169D02*
D03*
Y316138D02*
D03*
Y318106D02*
D03*
Y320075D02*
D03*
Y322043D02*
D03*
Y324012D02*
D03*
X483886Y325980D02*
D03*
X483886Y327949D02*
D03*
Y329917D02*
D03*
Y331886D02*
D03*
Y333854D02*
D03*
X438705D02*
D03*
Y331886D02*
D03*
Y329917D02*
D03*
Y327949D02*
D03*
X438705Y325980D02*
D03*
X438705Y324012D02*
D03*
Y322043D02*
D03*
Y320075D02*
D03*
Y318106D02*
D03*
Y316138D02*
D03*
Y314169D02*
D03*
X438705Y312201D02*
D03*
X438705Y310232D02*
D03*
Y308264D02*
D03*
Y306295D02*
D03*
Y304327D02*
D03*
D82*
X455500Y408268D02*
D03*
Y400000D02*
D03*
X485500Y408134D02*
D03*
Y399866D02*
D03*
D83*
X386200Y350000D02*
D03*
X376200D02*
D03*
X366200D02*
D03*
X356200D02*
D03*
X346200D02*
D03*
X489100Y360300D02*
D03*
X435000Y267000D02*
D03*
X425000D02*
D03*
D84*
X336200Y350000D02*
D03*
X415000Y267000D02*
D03*
D85*
X383169Y409146D02*
D03*
Y391429D02*
D03*
Y399303D02*
D03*
Y381587D02*
D03*
D86*
X372500Y421232D02*
D03*
Y369500D02*
D03*
D87*
X489100Y370300D02*
D03*
D88*
X536000Y337000D02*
D03*
Y344874D02*
D03*
X466000Y243500D02*
D03*
Y212004D02*
D03*
Y235626D02*
D03*
Y227752D02*
D03*
Y219878D02*
D03*
D89*
X356457Y226500D02*
D03*
D90*
X385000D02*
D03*
D91*
X531500Y233500D02*
D03*
X539374D02*
D03*
X531500Y279500D02*
D03*
X539374D02*
D03*
X531563Y256500D02*
D03*
X539437D02*
D03*
D92*
X514000Y300500D02*
D03*
X437500Y213600D02*
D03*
X373000Y270000D02*
D03*
X364500Y441600D02*
D03*
X533000Y452100D02*
D03*
D93*
X534500Y211500D02*
D03*
Y201500D02*
D03*
X409500Y442842D02*
D03*
Y452685D02*
D03*
Y433000D02*
D03*
X439500Y443000D02*
D03*
Y452843D02*
D03*
Y433157D02*
D03*
X469000Y442842D02*
D03*
Y452685D02*
D03*
Y433000D02*
D03*
X498500Y442842D02*
D03*
Y452685D02*
D03*
Y433000D02*
D03*
D94*
X452257Y348121D02*
D03*
X451605Y351712D02*
D03*
X449100Y347400D02*
D03*
X514800Y416500D02*
D03*
X515000Y420500D02*
D03*
X512200Y422400D02*
D03*
X511700Y418500D02*
D03*
X448500Y314100D02*
D03*
X448000Y318100D02*
D03*
X514000Y398700D02*
D03*
X514100Y402600D02*
D03*
Y406700D02*
D03*
X460400Y305700D02*
D03*
X447900Y310100D02*
D03*
X445300Y312200D02*
D03*
X452000Y305100D02*
D03*
X455800Y306200D02*
D03*
X446500Y290500D02*
D03*
X441000Y283000D02*
D03*
X435000Y257500D02*
D03*
X475000Y220000D02*
D03*
X463000Y258500D02*
D03*
X457000Y233500D02*
D03*
X466108Y291608D02*
D03*
X517676Y212676D02*
D03*
X451500Y370500D02*
D03*
X456500Y376500D02*
D03*
X471300Y377300D02*
D03*
X479900Y355200D02*
D03*
X455800Y364200D02*
D03*
X405500Y276200D02*
D03*
X379000Y312500D02*
D03*
X427000Y276500D02*
D03*
X452300Y276100D02*
D03*
X432000Y330000D02*
D03*
X427000Y331000D02*
D03*
Y318500D02*
D03*
X408500Y305000D02*
D03*
X427000Y313000D02*
D03*
X404000Y307500D02*
D03*
Y320000D02*
D03*
X410500Y322000D02*
D03*
X424000Y334000D02*
D03*
X479800Y351000D02*
D03*
X439500Y341700D02*
D03*
X474400Y396900D02*
D03*
X488978Y442788D02*
D03*
X422528Y452562D02*
D03*
X495300Y284800D02*
D03*
X501939Y261490D02*
D03*
X485600Y238600D02*
D03*
X501900D02*
D03*
X445324Y320064D02*
D03*
X489000Y387000D02*
D03*
X445200Y316100D02*
D03*
X511100Y414500D02*
D03*
X476000Y348500D02*
D03*
X447000Y331900D02*
D03*
X458500Y361500D02*
D03*
X480000Y365200D02*
D03*
X452602Y308283D02*
D03*
X510900Y408700D02*
D03*
X511000Y404700D02*
D03*
X510500Y400650D02*
D03*
Y397000D02*
D03*
X462280Y302221D02*
D03*
X455500Y302500D02*
D03*
X464374Y304874D02*
D03*
X510000Y393000D02*
D03*
X513000Y395000D02*
D03*
X477500Y311500D02*
D03*
X476500Y305000D02*
D03*
X491500Y326000D02*
D03*
X512500Y391000D02*
D03*
X458486Y355000D02*
D03*
X468200Y350700D02*
D03*
X466217Y353283D02*
D03*
X486500Y380500D02*
D03*
X395500Y399500D02*
D03*
X459000Y443000D02*
D03*
X416000Y364000D02*
D03*
X401500Y378500D02*
D03*
X421500Y369500D02*
D03*
X407000Y384000D02*
D03*
X520500Y227000D02*
D03*
X521000Y250500D02*
D03*
X522000Y274500D02*
D03*
X524000Y330000D02*
D03*
X522500Y337000D02*
D03*
%TF.MD5,1d62a1a400879eae971492b437e55f9a*%
M02*
