G04*
G04 #@! TF.GenerationSoftware,Altium Limited,Altium Designer,23.3.1 (30)*
G04*
G04 Layer_Physical_Order=1*
G04 Layer_Color=255*
%FSLAX25Y25*%
%MOIN*%
G70*
G04*
G04 #@! TF.SameCoordinates,6E427E01-6470-4732-AD83-5CA9447D70B9*
G04*
G04*
G04 #@! TF.FilePolarity,Positive*
G04*
G01*
G75*
G04:AMPARAMS|DCode=15|XSize=47.24mil|YSize=23.62mil|CornerRadius=0mil|HoleSize=0mil|Usage=FLASHONLY|Rotation=315.000|XOffset=0mil|YOffset=0mil|HoleType=Round|Shape=Rectangle|*
%AMROTATEDRECTD15*
4,1,4,-0.02506,0.00835,-0.00835,0.02506,0.02506,-0.00835,0.00835,-0.02506,-0.02506,0.00835,0.0*
%
%ADD15ROTATEDRECTD15*%

G04:AMPARAMS|DCode=16|XSize=35.43mil|YSize=31.5mil|CornerRadius=0mil|HoleSize=0mil|Usage=FLASHONLY|Rotation=45.000|XOffset=0mil|YOffset=0mil|HoleType=Round|Shape=Rectangle|*
%AMROTATEDRECTD16*
4,1,4,-0.00139,-0.02366,-0.02366,-0.00139,0.00139,0.02366,0.02366,0.00139,-0.00139,-0.02366,0.0*
%
%ADD16ROTATEDRECTD16*%

%ADD17R,0.03937X0.03543*%
%ADD18R,0.06102X0.02362*%
%ADD19R,0.07087X0.04724*%
%ADD20R,0.01181X0.05807*%
%ADD21R,0.05807X0.01181*%
%ADD22R,0.03150X0.03543*%
%ADD23R,0.03543X0.03150*%
%ADD24R,0.03543X0.03150*%
%ADD25R,0.03740X0.03347*%
%ADD26R,0.04724X0.04724*%
%ADD27R,0.06299X0.11024*%
%ADD28R,0.05118X0.01181*%
%ADD29R,0.08661X0.07087*%
%ADD30R,0.09449X0.07874*%
%ADD31R,0.04331X0.02756*%
%ADD32R,0.07205X0.04488*%
%ADD33R,0.11024X0.03386*%
%ADD34R,0.13110X0.02756*%
%ADD35R,0.03661X0.03543*%
%ADD36R,0.03071X0.04134*%
%ADD37R,0.17008X0.07165*%
%ADD38R,0.13858X0.07362*%
%ADD39R,0.03543X0.03937*%
%ADD40R,0.04449X0.02992*%
%ADD79C,0.01000*%
%ADD80C,0.00800*%
%ADD81C,0.00500*%
%ADD82R,0.05906X0.05906*%
%ADD83C,0.05906*%
%ADD84R,0.05906X0.05906*%
%ADD85O,0.05906X0.09843*%
%ADD86C,0.11811*%
%ADD87C,0.06693*%
%ADD88O,0.09843X0.06890*%
%ADD89O,0.09843X0.05906*%
%ADD90O,0.06890X0.09843*%
%ADD91C,0.01772*%
%ADD92C,0.02284*%
%ADD93C,0.01968*%
G36*
X549197Y193803D02*
X510558D01*
X510150Y194024D01*
X510150Y194303D01*
Y206047D01*
X502850D01*
Y201055D01*
X499687D01*
X497321Y203421D01*
X496990Y203642D01*
X496600Y203720D01*
X493907D01*
X493720Y203907D01*
Y227000D01*
X493642Y227390D01*
X493421Y227721D01*
X486520Y234622D01*
Y237293D01*
X486935Y237708D01*
X487175Y238287D01*
Y238913D01*
X486935Y239492D01*
X486520Y239908D01*
Y257559D01*
X488224D01*
Y261551D01*
X482776D01*
Y260575D01*
X463567D01*
X459520Y264622D01*
Y275900D01*
Y277268D01*
X460735D01*
X460870Y277268D01*
X461235Y276942D01*
Y268646D01*
X461208Y268635D01*
X460765Y268192D01*
X460525Y267613D01*
Y266987D01*
X460765Y266408D01*
X461208Y265965D01*
X461787Y265725D01*
X462413D01*
X462992Y265965D01*
X463435Y266408D01*
X463675Y266987D01*
Y267613D01*
X463435Y268192D01*
X462992Y268635D01*
X462765Y268729D01*
Y276524D01*
X463031Y276913D01*
X463265Y276913D01*
X465250D01*
Y279185D01*
Y281457D01*
X463265D01*
X463031Y281457D01*
X462767Y281842D01*
X463031Y282228D01*
X467969D01*
Y286772D01*
X466777D01*
X466569Y287272D01*
X468736Y289438D01*
X469236Y289231D01*
Y288846D01*
X469306Y288495D01*
X469505Y288198D01*
X470127Y287575D01*
X469920Y287075D01*
X469228D01*
Y282925D01*
X473772D01*
Y284082D01*
X474920D01*
X476582Y282420D01*
Y275468D01*
X475228D01*
Y270532D01*
X476480D01*
Y268969D01*
X475228D01*
Y264032D01*
X479772D01*
Y265425D01*
X482776D01*
Y264449D01*
X488224D01*
Y268441D01*
X482776D01*
Y267464D01*
X479772D01*
Y268969D01*
X478520D01*
Y270532D01*
X479772D01*
Y275468D01*
X478418D01*
Y282800D01*
X478348Y283151D01*
X478149Y283449D01*
X475949Y285649D01*
X475651Y285848D01*
X475300Y285918D01*
X473772D01*
Y287075D01*
X472418D01*
Y287500D01*
X472348Y287851D01*
X472149Y288149D01*
X471071Y289227D01*
Y291201D01*
X471571Y291352D01*
X471581Y291337D01*
X491235Y271683D01*
Y237500D01*
X491293Y237207D01*
X491459Y236959D01*
X501959Y226459D01*
X502207Y226293D01*
X502500Y226235D01*
X519112D01*
X519165Y226108D01*
X519608Y225665D01*
X520187Y225425D01*
X520813D01*
X521392Y225665D01*
X521835Y226108D01*
X522075Y226687D01*
Y227313D01*
X521835Y227892D01*
X521392Y228335D01*
X520813Y228575D01*
X520187D01*
X519608Y228335D01*
X519165Y227892D01*
X519112Y227765D01*
X516765D01*
Y231228D01*
X518469D01*
Y235772D01*
X513531D01*
Y231228D01*
X515235D01*
Y227765D01*
X509765D01*
Y231268D01*
X511370D01*
Y235614D01*
X506630D01*
Y231268D01*
X508235D01*
Y227765D01*
X502817D01*
X492765Y237817D01*
Y258001D01*
X493227Y258192D01*
X501459Y249959D01*
X501707Y249794D01*
X502000Y249735D01*
X519612D01*
X519665Y249608D01*
X520108Y249165D01*
X520687Y248925D01*
X521313D01*
X521892Y249165D01*
X522335Y249608D01*
X522575Y250187D01*
Y250813D01*
X522335Y251392D01*
X521892Y251835D01*
X521313Y252075D01*
X520687D01*
X520108Y251835D01*
X519665Y251392D01*
X519612Y251265D01*
X516765D01*
Y253913D01*
X518469D01*
Y258457D01*
X513531D01*
Y253913D01*
X515235D01*
Y251265D01*
X509765D01*
Y254209D01*
X511370D01*
Y258555D01*
X506630D01*
Y254209D01*
X508235D01*
Y251265D01*
X502317D01*
X493765Y259817D01*
Y273000D01*
X493765Y273000D01*
X493718Y273235D01*
X493749Y273354D01*
X494012Y273735D01*
X520612D01*
X520665Y273608D01*
X521108Y273165D01*
X521687Y272925D01*
X522313D01*
X522892Y273165D01*
X523335Y273608D01*
X523575Y274187D01*
Y274813D01*
X523335Y275392D01*
X522892Y275835D01*
X522313Y276075D01*
X521687D01*
X521108Y275835D01*
X520665Y275392D01*
X520612Y275265D01*
X516765D01*
Y277071D01*
X518469D01*
Y281614D01*
X513531D01*
Y277071D01*
X515235D01*
Y275265D01*
X509765D01*
Y277327D01*
X511370D01*
Y281673D01*
X506630D01*
Y277327D01*
X508235D01*
Y275265D01*
X493817D01*
X476824Y292258D01*
Y293096D01*
X477150D01*
Y299903D01*
X469063D01*
Y299903D01*
X468435D01*
Y296500D01*
X467935D01*
Y299903D01*
X467307D01*
Y299903D01*
X465013D01*
Y303434D01*
X465266Y303539D01*
X465709Y303982D01*
X465949Y304561D01*
Y305187D01*
X465709Y305766D01*
X465266Y306209D01*
X464687Y306449D01*
X464061D01*
X463482Y306209D01*
X463039Y305766D01*
X462799Y305187D01*
Y304561D01*
X462897Y304324D01*
X462575Y303913D01*
X462215Y303928D01*
X461933Y304340D01*
Y304966D01*
X461693Y305545D01*
X461250Y305988D01*
X460671Y306227D01*
X460045D01*
X459466Y305988D01*
X459023Y305545D01*
X458783Y304966D01*
Y304340D01*
X459023Y303761D01*
X459466Y303318D01*
X459570Y303275D01*
Y301395D01*
X459070Y301345D01*
X459049Y301450D01*
X458883Y301698D01*
X457541Y303041D01*
X457293Y303206D01*
X457000Y303265D01*
X456888D01*
X456835Y303392D01*
X456392Y303835D01*
X456204Y303913D01*
X456164Y304198D01*
X456174Y304467D01*
X456575Y304868D01*
X456815Y305446D01*
Y306073D01*
X456575Y306652D01*
X456132Y307095D01*
X455554Y307334D01*
X454927D01*
X454348Y307095D01*
X454088Y306834D01*
X453861Y306899D01*
X453787Y307070D01*
X453795Y307249D01*
X453937Y307391D01*
X454177Y307969D01*
Y308596D01*
X453937Y309175D01*
X453494Y309618D01*
X452915Y309858D01*
X452289D01*
X451710Y309618D01*
X451267Y309175D01*
X451027Y308596D01*
Y307969D01*
X451080Y307842D01*
X447959Y304721D01*
X447793Y304473D01*
X447735Y304181D01*
Y299903D01*
X445441D01*
Y293096D01*
X445767D01*
Y289768D01*
X445027Y289028D01*
X444437Y289145D01*
X444335Y289392D01*
X443892Y289835D01*
X443765Y289888D01*
Y307500D01*
X443707Y307793D01*
X443541Y308041D01*
X442777Y308804D01*
X442632Y308902D01*
X442729Y309401D01*
X445685D01*
X445765Y309208D01*
X446208Y308765D01*
X446787Y308525D01*
X447413D01*
X447992Y308765D01*
X448435Y309208D01*
X448675Y309787D01*
Y310413D01*
X448435Y310992D01*
X447992Y311435D01*
X447413Y311675D01*
X447040D01*
X446878Y312118D01*
X447184Y312521D01*
X447337Y312525D01*
X447813D01*
X448392Y312765D01*
X448835Y313208D01*
X449075Y313787D01*
Y314413D01*
X448835Y314992D01*
X448392Y315435D01*
X447813Y315675D01*
X447237D01*
X447168Y315691D01*
X446775Y316045D01*
Y316113D01*
X447053Y316481D01*
X447237Y316525D01*
X447713D01*
X448292Y316765D01*
X448735Y317208D01*
X448975Y317787D01*
Y318413D01*
X448735Y318992D01*
X448292Y319435D01*
X447713Y319675D01*
X447361D01*
X447067Y319723D01*
X446899Y320137D01*
Y320378D01*
X446659Y320956D01*
X446216Y321399D01*
X445637Y321639D01*
X445011D01*
X444432Y321399D01*
X443989Y320956D01*
X443938Y320834D01*
X442108D01*
Y325102D01*
X442108D01*
Y326858D01*
X442108D01*
Y331128D01*
X445615D01*
X445665Y331008D01*
X446108Y330565D01*
X446687Y330325D01*
X447313D01*
X447892Y330565D01*
X448335Y331008D01*
X448575Y331587D01*
Y332213D01*
X448335Y332792D01*
X447892Y333235D01*
X447313Y333475D01*
X446687D01*
X446108Y333235D01*
X445665Y332792D01*
X445609Y332658D01*
X442108D01*
Y334945D01*
X442560Y335060D01*
X462825D01*
X463117Y335118D01*
X463366Y335284D01*
X464789Y336707D01*
X464789Y336707D01*
X464955Y336955D01*
X465013Y337248D01*
X465013Y337248D01*
Y338278D01*
X467307D01*
Y338278D01*
X469063D01*
Y338278D01*
X477150D01*
Y345085D01*
X476794D01*
Y347124D01*
X476892Y347165D01*
X477335Y347608D01*
X477575Y348187D01*
Y348813D01*
X477335Y349392D01*
X476892Y349835D01*
X476490Y350002D01*
X476318Y350537D01*
X479459Y353678D01*
X479587Y353625D01*
X480213D01*
X480792Y353865D01*
X481235Y354308D01*
X481475Y354887D01*
Y355513D01*
X481235Y356092D01*
X480792Y356535D01*
X480213Y356775D01*
X479587D01*
X479008Y356535D01*
X478565Y356092D01*
X478325Y355513D01*
Y354887D01*
X478378Y354759D01*
X473550Y349931D01*
X473384Y349683D01*
X472887Y349746D01*
Y352705D01*
X477641Y357459D01*
X477641Y357459D01*
X477807Y357707D01*
X477865Y358000D01*
Y361983D01*
X479559Y363678D01*
X479687Y363625D01*
X480313D01*
X480892Y363865D01*
X481335Y364308D01*
X481575Y364887D01*
Y365513D01*
X481335Y366092D01*
X480892Y366535D01*
X480313Y366775D01*
X479687D01*
X479108Y366535D01*
X478665Y366092D01*
X478425Y365513D01*
Y364887D01*
X478478Y364759D01*
X476559Y362841D01*
X476394Y362593D01*
X476335Y362300D01*
Y358317D01*
X471581Y353563D01*
X471416Y353315D01*
X470918Y353377D01*
Y363837D01*
X486059Y378978D01*
X486187Y378925D01*
X486813D01*
X487392Y379165D01*
X487835Y379608D01*
X488075Y380187D01*
Y380813D01*
X487835Y381392D01*
X487429Y381798D01*
X487447Y381969D01*
X487580Y382298D01*
X516239D01*
X516302Y381801D01*
X516054Y381635D01*
X516054Y381635D01*
X508959Y374541D01*
X508793Y374293D01*
X508735Y374000D01*
Y339817D01*
X499601Y330682D01*
X487289D01*
Y331636D01*
X483886D01*
X480482D01*
Y330795D01*
Y326858D01*
X480482D01*
Y325102D01*
X480482D01*
Y320953D01*
Y317016D01*
Y313079D01*
X480482D01*
Y311323D01*
X480482D01*
Y310997D01*
X479355D01*
X479075Y311277D01*
Y311813D01*
X478835Y312392D01*
X478392Y312835D01*
X477813Y313075D01*
X477187D01*
X476608Y312835D01*
X476165Y312392D01*
X475925Y311813D01*
Y311187D01*
X476165Y310608D01*
X476608Y310165D01*
X477187Y309925D01*
X477813D01*
X478132Y310057D01*
X478498Y309692D01*
X478746Y309526D01*
X479038Y309468D01*
X479038Y309468D01*
X480482D01*
Y306545D01*
X483886D01*
X487289D01*
Y307346D01*
X493228D01*
Y305532D01*
X494319D01*
Y286046D01*
X493965Y285692D01*
X493725Y285113D01*
Y284487D01*
X493965Y283908D01*
X494408Y283465D01*
X494987Y283225D01*
X495613D01*
X496192Y283465D01*
X496326Y283598D01*
X506630D01*
Y282445D01*
X511370D01*
Y286791D01*
X506630D01*
Y285638D01*
X496658D01*
X496635Y285692D01*
X496192Y286135D01*
X496154Y286151D01*
Y305532D01*
X497772D01*
Y310469D01*
X493228D01*
Y309181D01*
X487289D01*
Y311110D01*
X487289D01*
Y311436D01*
X506983D01*
X512959Y305459D01*
X513207Y305293D01*
X513500Y305235D01*
X527949D01*
Y304319D01*
X535051D01*
Y307681D01*
X527949D01*
Y306765D01*
X513817D01*
X507886Y312696D01*
X507893Y312911D01*
X507995Y313239D01*
X508142Y313276D01*
X512022Y309396D01*
X512022Y309396D01*
X512270Y309230D01*
X512563Y309172D01*
X527949D01*
Y308256D01*
X535051D01*
Y311618D01*
X527949D01*
Y310702D01*
X512880D01*
X508917Y314664D01*
X508924Y314879D01*
X509027Y315208D01*
X509174Y315245D01*
X511085Y313333D01*
X511085Y313333D01*
X511333Y313168D01*
X511626Y313109D01*
X527949D01*
Y312193D01*
X535051D01*
Y315555D01*
X527949D01*
Y314639D01*
X511943D01*
X509903Y316679D01*
X509655Y316844D01*
X509718Y317342D01*
X515606D01*
X515899Y317400D01*
X516147Y317566D01*
X522041Y323459D01*
X522206Y323707D01*
X522265Y324000D01*
Y327183D01*
X523559Y328478D01*
X523687Y328425D01*
X524313D01*
X524892Y328665D01*
X525335Y329108D01*
X525575Y329687D01*
Y330313D01*
X525335Y330892D01*
X524892Y331335D01*
X524313Y331575D01*
X523687D01*
X523108Y331335D01*
X522665Y330892D01*
X522425Y330313D01*
Y329687D01*
X522478Y329559D01*
X520959Y328041D01*
X520793Y327793D01*
X520765Y327648D01*
X520265Y327697D01*
Y333683D01*
X522059Y335478D01*
X522187Y335425D01*
X522813D01*
X523392Y335665D01*
X523835Y336108D01*
X524075Y336687D01*
Y337313D01*
X523835Y337892D01*
X523392Y338335D01*
X522813Y338575D01*
X522187D01*
X521608Y338335D01*
X521165Y337892D01*
X520925Y337313D01*
Y336687D01*
X520978Y336559D01*
X518959Y334541D01*
X518793Y334293D01*
X518735Y334000D01*
Y325317D01*
X514258Y320840D01*
X505399D01*
X505336Y321337D01*
X505584Y321503D01*
X513041Y328959D01*
X513206Y329207D01*
X513265Y329500D01*
Y371183D01*
X516441Y374359D01*
X516941Y374268D01*
Y374098D01*
X523059D01*
Y378035D01*
Y381972D01*
Y385910D01*
Y388719D01*
X520000D01*
X516941D01*
Y387765D01*
X490388D01*
X490335Y387892D01*
X489892Y388335D01*
X489313Y388575D01*
X488687D01*
X488108Y388335D01*
X487665Y387892D01*
X487425Y387313D01*
Y386687D01*
X487587Y386296D01*
X487323Y385796D01*
X485032D01*
X484739Y385738D01*
X484491Y385572D01*
X460915Y361996D01*
X460362Y362151D01*
X460337Y362255D01*
X509907Y411826D01*
X516941D01*
Y410872D01*
X520000D01*
X523059D01*
Y413469D01*
Y417406D01*
Y421343D01*
Y424152D01*
X520000D01*
X516941D01*
Y423198D01*
X513574D01*
X513535Y423292D01*
X513092Y423735D01*
X512513Y423975D01*
X511887D01*
X511308Y423735D01*
X510865Y423292D01*
X510625Y422713D01*
Y422087D01*
X510865Y421508D01*
X511308Y421065D01*
X511887Y420825D01*
X512163D01*
X512369Y420775D01*
X512463Y420361D01*
X512066Y420053D01*
X512013Y420075D01*
X511387D01*
X510808Y419835D01*
X510365Y419392D01*
X510125Y418813D01*
Y418187D01*
X510365Y417608D01*
X510808Y417165D01*
X511387Y416925D01*
X511663D01*
X512035Y416835D01*
X512125Y416463D01*
Y416321D01*
X511825Y416040D01*
X511675Y415966D01*
X511413Y416075D01*
X510787D01*
X510208Y415835D01*
X509765Y415392D01*
X509525Y414813D01*
Y414187D01*
X509662Y413855D01*
X509647Y413746D01*
X509411Y413334D01*
X509386Y413315D01*
X509298Y413297D01*
X509050Y413131D01*
X496234Y400315D01*
X495772Y400506D01*
Y400994D01*
X493750D01*
Y399169D01*
X494435D01*
X494626Y398707D01*
X486293Y390374D01*
X485831Y390565D01*
Y394272D01*
X485506D01*
X485315Y394734D01*
X486041Y395459D01*
X486041Y395459D01*
X486206Y395707D01*
X486265Y396000D01*
X486265Y396000D01*
Y397004D01*
X488362D01*
Y402728D01*
X482638D01*
Y397004D01*
X484735D01*
Y396317D01*
X483215Y394797D01*
X483049Y394549D01*
X482994Y394272D01*
X481681D01*
Y389728D01*
X484994D01*
X485185Y389266D01*
X473375Y377456D01*
X472875Y377613D01*
X472635Y378192D01*
X472192Y378635D01*
X472065Y378688D01*
Y402383D01*
X475228Y405547D01*
X475728Y405340D01*
Y404681D01*
X480272D01*
Y405994D01*
X480548Y406049D01*
X480797Y406215D01*
X481951Y407369D01*
X482638D01*
Y405272D01*
X488362D01*
Y407369D01*
X489549D01*
X490703Y406215D01*
X490951Y406049D01*
X491228Y405994D01*
Y404681D01*
X495772D01*
Y408831D01*
X491228D01*
Y408506D01*
X490766Y408315D01*
X490407Y408675D01*
X490159Y408840D01*
X489866Y408898D01*
X488362D01*
Y410996D01*
X486265D01*
Y438993D01*
X488538Y441266D01*
X488665Y441213D01*
X489292D01*
X489870Y441453D01*
X490313Y441896D01*
X490553Y442475D01*
Y443101D01*
X490313Y443680D01*
X489870Y444123D01*
X489292Y444363D01*
X488665D01*
X488086Y444123D01*
X487643Y443680D01*
X487403Y443101D01*
Y442475D01*
X487456Y442347D01*
X484959Y439850D01*
X484794Y439602D01*
X484735Y439310D01*
Y410996D01*
X482638D01*
Y408898D01*
X481634D01*
X481634Y408899D01*
X481341Y408840D01*
X481093Y408675D01*
X481093Y408674D01*
X480734Y408315D01*
X480272Y408506D01*
Y408831D01*
X475728D01*
Y407521D01*
X475356D01*
X475063Y407462D01*
X474815Y407297D01*
X470759Y403241D01*
X470594Y402993D01*
X470535Y402700D01*
Y378688D01*
X470408Y378635D01*
X469965Y378192D01*
X469725Y377613D01*
Y376987D01*
X469965Y376408D01*
X470408Y375965D01*
X470987Y375725D01*
X471144Y375225D01*
X458941Y363022D01*
X458813Y363075D01*
X458187D01*
X457608Y362835D01*
X457165Y362392D01*
X456925Y361813D01*
Y361187D01*
X457165Y360608D01*
X457608Y360165D01*
X458187Y359925D01*
X458344Y359425D01*
X455833Y356915D01*
X455667Y356667D01*
X455609Y356374D01*
Y349091D01*
X455112Y349029D01*
X454946Y349277D01*
X453560Y350663D01*
X453575Y350699D01*
Y351325D01*
X453335Y351904D01*
X452892Y352347D01*
X452313Y352587D01*
X451687D01*
X451108Y352347D01*
X450665Y351904D01*
X450425Y351325D01*
Y350699D01*
X450665Y350120D01*
X451108Y349677D01*
X451126Y349669D01*
X451200Y349172D01*
X450833Y348974D01*
X450679Y349048D01*
X450392Y349335D01*
X449813Y349575D01*
X449187D01*
X448608Y349335D01*
X448165Y348892D01*
X447925Y348313D01*
Y347687D01*
X448165Y347108D01*
X448608Y346665D01*
X449187Y346425D01*
X449596D01*
X449704Y346317D01*
Y345085D01*
X448750D01*
Y341681D01*
Y338278D01*
X453528D01*
Y338278D01*
X455283D01*
Y338278D01*
X460202D01*
X460450Y337778D01*
X460307Y337590D01*
X397825D01*
X397825Y337590D01*
X397532Y337531D01*
X397284Y337366D01*
X390505Y330587D01*
X390043Y330778D01*
Y332510D01*
X386191D01*
Y330016D01*
X389281D01*
X389472Y329554D01*
X378459Y318541D01*
X378293Y318293D01*
X378235Y318000D01*
Y290000D01*
X378293Y289707D01*
X378459Y289459D01*
X381290Y286629D01*
X381538Y286463D01*
X381831Y286405D01*
X382981D01*
X383335Y286051D01*
X383335Y285291D01*
X382910Y285110D01*
X378020D01*
Y283167D01*
X390043D01*
Y285110D01*
X389090D01*
X388665Y285291D01*
X388665Y285610D01*
Y286405D01*
X392169D01*
X392462Y286463D01*
X392710Y286629D01*
X395317Y289235D01*
X399169D01*
Y287728D01*
X403319D01*
Y292272D01*
X399169D01*
Y290765D01*
X395000D01*
X394707Y290706D01*
X394459Y290541D01*
X394459Y290541D01*
X391852Y287934D01*
X388665D01*
Y289047D01*
X383335D01*
Y287934D01*
X382148D01*
X379765Y290317D01*
Y291001D01*
X380227Y291192D01*
X380459Y290959D01*
X380459Y290959D01*
X380707Y290793D01*
X381000Y290735D01*
X383335D01*
Y289622D01*
X388665D01*
Y290735D01*
X390500D01*
X390793Y290793D01*
X391041Y290959D01*
X394817Y294735D01*
X399169D01*
Y293228D01*
X403319D01*
Y297772D01*
X399169D01*
Y296265D01*
X394500D01*
X394207Y296206D01*
X393959Y296041D01*
X390183Y292265D01*
X388665D01*
Y293378D01*
X383335D01*
Y292265D01*
X381317D01*
X380765Y292817D01*
Y302655D01*
X381265Y302959D01*
X381587Y302825D01*
X382213D01*
X382792Y303065D01*
X382835Y303108D01*
X383335Y302900D01*
Y302614D01*
X388665D01*
Y306370D01*
X383335D01*
Y305900D01*
X382835Y305693D01*
X382792Y305735D01*
X382213Y305975D01*
X381587D01*
X381265Y305841D01*
X380765Y306145D01*
Y317183D01*
X382835Y319253D01*
X383335Y319046D01*
Y315606D01*
X388665D01*
Y316720D01*
X389984D01*
X390277Y316778D01*
X390525Y316944D01*
X402734Y329153D01*
X404594D01*
X404656Y328655D01*
X404408Y328489D01*
X404408Y328489D01*
X389683Y313765D01*
X388665D01*
Y315032D01*
X383335D01*
Y311276D01*
X388665D01*
Y312235D01*
X390000D01*
X390293Y312294D01*
X390541Y312459D01*
X405266Y327184D01*
X406218D01*
X406281Y326687D01*
X406033Y326521D01*
X394488Y314976D01*
X394322Y314728D01*
X394264Y314436D01*
Y310117D01*
X394100Y310031D01*
X393764Y309963D01*
X393392Y310335D01*
X392813Y310575D01*
X392187D01*
X391608Y310335D01*
X391165Y309892D01*
X391112Y309765D01*
X388665D01*
Y310701D01*
X383335D01*
Y306945D01*
X388665D01*
Y308235D01*
X391112D01*
X391165Y308108D01*
X391608Y307665D01*
X392187Y307425D01*
X392813D01*
X393392Y307665D01*
X393764Y308037D01*
X394100Y307969D01*
X394264Y307884D01*
Y303845D01*
X391345Y300926D01*
X388665D01*
Y302039D01*
X383335D01*
Y298284D01*
X388665D01*
Y299397D01*
X391661D01*
X391954Y299455D01*
X392202Y299621D01*
X395569Y302988D01*
X395735Y303236D01*
X395793Y303529D01*
X395793Y303529D01*
Y307798D01*
X396293Y307980D01*
X396608Y307665D01*
X397187Y307425D01*
X397813D01*
X398392Y307665D01*
X398835Y308108D01*
X399075Y308687D01*
Y309313D01*
X398835Y309892D01*
X398392Y310335D01*
X398265Y310388D01*
Y311683D01*
X409829Y323247D01*
X410867D01*
X411105Y322747D01*
X410925Y322313D01*
Y321687D01*
X411165Y321108D01*
X411608Y320665D01*
X412187Y320425D01*
X412813D01*
X413392Y320665D01*
X413835Y321108D01*
X413897Y321257D01*
X435301D01*
Y317016D01*
Y313291D01*
X435301D01*
Y312965D01*
X422701D01*
X422408Y312907D01*
X422160Y312741D01*
X413959Y304541D01*
X413794Y304293D01*
X413735Y304000D01*
Y300688D01*
X413608Y300635D01*
X413165Y300192D01*
X412925Y299613D01*
Y298987D01*
X413165Y298408D01*
X413608Y297965D01*
X414187Y297725D01*
X414813D01*
X415392Y297965D01*
X415835Y298408D01*
X416075Y298987D01*
Y299613D01*
X415835Y300192D01*
X415392Y300635D01*
X415265Y300688D01*
Y303683D01*
X423018Y311436D01*
X435301D01*
Y311110D01*
X435301D01*
Y309142D01*
Y306545D01*
X438705D01*
Y306045D01*
X435301D01*
Y305346D01*
X429272D01*
Y306469D01*
X424728D01*
Y301532D01*
X425980D01*
Y299969D01*
X424728D01*
Y295031D01*
X425980D01*
Y292022D01*
X425331Y291373D01*
X424838Y291577D01*
X424212D01*
X423633Y291337D01*
X423316Y291020D01*
X408831D01*
Y292272D01*
X407775D01*
Y293228D01*
X408831D01*
Y297772D01*
X404681D01*
Y293228D01*
X405736D01*
Y292272D01*
X404681D01*
Y287728D01*
X408831D01*
Y288980D01*
X423320D01*
X423633Y288667D01*
X424212Y288427D01*
X424838D01*
X425417Y288667D01*
X425845Y289094D01*
X426121Y289279D01*
X427721Y290879D01*
X427942Y291210D01*
X428020Y291600D01*
Y295031D01*
X429272D01*
Y299969D01*
X428020D01*
Y301532D01*
X429272D01*
Y303307D01*
X435301D01*
Y303236D01*
X442108D01*
X442235Y302789D01*
Y289888D01*
X442108Y289835D01*
X441665Y289392D01*
X441425Y288813D01*
Y288187D01*
X441665Y287608D01*
X442108Y287165D01*
X442355Y287063D01*
X442472Y286473D01*
X430764Y274765D01*
X412888D01*
X412835Y274892D01*
X412392Y275335D01*
X411813Y275575D01*
X411187D01*
X410608Y275335D01*
X410165Y274892D01*
X409925Y274313D01*
Y273687D01*
X410165Y273108D01*
X410608Y272665D01*
X411187Y272425D01*
X411813D01*
X412392Y272665D01*
X412835Y273108D01*
X412888Y273235D01*
X431081D01*
X431373Y273293D01*
X431621Y273459D01*
X447072Y288910D01*
X447238Y289158D01*
X447296Y289451D01*
Y293096D01*
X453315D01*
Y293096D01*
X453641D01*
Y292222D01*
X433585Y272167D01*
X433420Y271919D01*
X433361Y271626D01*
Y270937D01*
X428902D01*
Y262063D01*
X433361D01*
Y257374D01*
X433420Y257081D01*
X433585Y256833D01*
X434147Y256272D01*
X434022Y255772D01*
X432925D01*
Y251228D01*
X437075D01*
Y255772D01*
X435765D01*
Y256500D01*
X435707Y256793D01*
X435541Y257041D01*
X434891Y257691D01*
Y262063D01*
X439350D01*
Y270937D01*
X435199D01*
X435018Y271437D01*
X454946Y291365D01*
X455112Y291613D01*
X455609Y291550D01*
Y290691D01*
X449333Y284415D01*
X449167Y284167D01*
X449109Y283874D01*
Y270937D01*
X444650D01*
Y262063D01*
X449109D01*
Y258126D01*
X449167Y257833D01*
X449333Y257585D01*
X450685Y256234D01*
X450494Y255772D01*
X450169D01*
Y251228D01*
X454319D01*
Y255772D01*
X453006D01*
X452951Y256048D01*
X452785Y256297D01*
X450639Y258443D01*
Y262063D01*
X455098D01*
Y270937D01*
X450639D01*
Y274827D01*
X451139Y275034D01*
X451408Y274765D01*
X451987Y274525D01*
X452613D01*
X453192Y274765D01*
X453508Y275080D01*
X457480D01*
Y264200D01*
X457558Y263810D01*
X457779Y263479D01*
X462424Y258834D01*
X462755Y258613D01*
X463145Y258536D01*
X482776D01*
Y257559D01*
X484480D01*
Y239707D01*
X484265Y239492D01*
X484025Y238913D01*
Y238287D01*
X484265Y237708D01*
X484480Y237492D01*
Y234200D01*
X484558Y233810D01*
X484779Y233479D01*
X491680Y226578D01*
Y203907D01*
X491365Y203592D01*
X491125Y203013D01*
Y202387D01*
X491365Y201808D01*
X491808Y201365D01*
X492387Y201125D01*
X493013D01*
X493592Y201365D01*
X493907Y201680D01*
X496178D01*
X498544Y199314D01*
X498874Y199093D01*
X499265Y199016D01*
X502850D01*
Y194303D01*
X502850Y194024D01*
X502442Y193803D01*
X330803D01*
Y465197D01*
X549197D01*
Y193803D01*
D02*
G37*
G36*
X485553Y381969D02*
X485571Y381798D01*
X485165Y381392D01*
X484925Y380813D01*
Y380187D01*
X484978Y380059D01*
X469613Y364694D01*
X469447Y364446D01*
X469389Y364154D01*
Y352392D01*
X468889Y352119D01*
X468513Y352275D01*
X468045D01*
X467751Y352601D01*
X467695Y352736D01*
X467791Y352970D01*
Y353597D01*
X467552Y354175D01*
X467109Y354619D01*
X466530Y354858D01*
X465903D01*
X465324Y354619D01*
X464882Y354175D01*
X464642Y353597D01*
Y352970D01*
X464882Y352391D01*
X465324Y351948D01*
X465452Y351896D01*
Y345085D01*
X461076D01*
Y358494D01*
X484880Y382298D01*
X485420D01*
X485553Y381969D01*
D02*
G37*
G36*
X397925Y333687D02*
X398165Y333108D01*
X398608Y332665D01*
X399187Y332425D01*
X399813D01*
X400392Y332665D01*
X400817Y333090D01*
X435301D01*
Y330682D01*
X410422D01*
X410335Y330892D01*
X409892Y331335D01*
X409313Y331575D01*
X408687D01*
X408108Y331335D01*
X407665Y330892D01*
X407578Y330682D01*
X402417D01*
X402417Y330682D01*
X402125Y330624D01*
X401877Y330458D01*
X401877Y330458D01*
X389668Y318249D01*
X388665D01*
Y319362D01*
X383651D01*
X383444Y319862D01*
X397425Y333844D01*
X397925Y333687D01*
D02*
G37*
G36*
X510735Y337501D02*
Y330317D01*
X505195Y324777D01*
X493157D01*
X492905Y325276D01*
X493075Y325687D01*
Y326313D01*
X492921Y326684D01*
X493196Y327184D01*
X499449D01*
X499742Y327242D01*
X499990Y327408D01*
X510273Y337692D01*
X510735Y337501D01*
D02*
G37*
G36*
X409219Y324718D02*
X408971Y324552D01*
X396959Y312541D01*
X396794Y312293D01*
X396735Y312000D01*
Y310388D01*
X396608Y310335D01*
X396293Y310020D01*
X395793Y310202D01*
Y314119D01*
X406890Y325216D01*
X409156D01*
X409219Y324718D01*
D02*
G37*
G36*
X465452Y291533D02*
X461459Y287541D01*
X461294Y287293D01*
X461243Y287039D01*
X460870Y286732D01*
X459107D01*
Y293096D01*
X465452D01*
Y291533D01*
D02*
G37*
G36*
X457578Y290019D02*
Y286732D01*
X456130D01*
Y282386D01*
X460870D01*
X460938Y282325D01*
Y281675D01*
X460870Y281614D01*
X460735Y281614D01*
X456130D01*
Y277268D01*
X455691Y277120D01*
X453508D01*
X453192Y277435D01*
X452613Y277675D01*
X451987D01*
X451408Y277435D01*
X451139Y277166D01*
X450639Y277373D01*
Y283557D01*
X456915Y289833D01*
X457081Y290081D01*
X457578Y290019D01*
D02*
G37*
%LPC*%
G36*
X440976Y456821D02*
X438024D01*
X436994Y456686D01*
X436034Y456288D01*
X435210Y455656D01*
X434578Y454832D01*
X434180Y453872D01*
X434045Y452843D01*
X434180Y451813D01*
X434578Y450853D01*
X435210Y450029D01*
X436034Y449397D01*
X436994Y448999D01*
X438024Y448864D01*
X440976D01*
X442006Y448999D01*
X442966Y449397D01*
X443790Y450029D01*
X444422Y450853D01*
X444820Y451813D01*
X444955Y452843D01*
X444820Y453872D01*
X444422Y454832D01*
X443790Y455656D01*
X442966Y456288D01*
X442006Y456686D01*
X440976Y456821D01*
D02*
G37*
G36*
X499976Y456664D02*
X497024D01*
X495994Y456528D01*
X495034Y456131D01*
X494210Y455499D01*
X493578Y454674D01*
X493180Y453715D01*
X493045Y452685D01*
X493180Y451655D01*
X493578Y450696D01*
X494210Y449871D01*
X495034Y449239D01*
X495994Y448842D01*
X497024Y448706D01*
X499976D01*
X501006Y448842D01*
X501966Y449239D01*
X502790Y449871D01*
X503422Y450696D01*
X503820Y451655D01*
X503955Y452685D01*
X503820Y453715D01*
X503422Y454674D01*
X502790Y455499D01*
X501966Y456131D01*
X501006Y456528D01*
X499976Y456664D01*
D02*
G37*
G36*
X470476D02*
X467524D01*
X466494Y456528D01*
X465534Y456131D01*
X464710Y455499D01*
X464078Y454674D01*
X463680Y453715D01*
X463545Y452685D01*
X463680Y451655D01*
X464078Y450696D01*
X464710Y449871D01*
X465534Y449239D01*
X466494Y448842D01*
X467524Y448706D01*
X470476D01*
X471506Y448842D01*
X472466Y449239D01*
X473290Y449871D01*
X473922Y450696D01*
X474320Y451655D01*
X474455Y452685D01*
X474320Y453715D01*
X473922Y454674D01*
X473290Y455499D01*
X472466Y456131D01*
X471506Y456528D01*
X470476Y456664D01*
D02*
G37*
G36*
X410976D02*
X408024D01*
X406994Y456528D01*
X406034Y456131D01*
X405210Y455499D01*
X404578Y454674D01*
X404180Y453715D01*
X404045Y452685D01*
X404180Y451655D01*
X404578Y450696D01*
X405210Y449871D01*
X406034Y449239D01*
X406994Y448842D01*
X408024Y448706D01*
X410976D01*
X412006Y448842D01*
X412966Y449239D01*
X413790Y449871D01*
X414422Y450696D01*
X414820Y451655D01*
X414955Y452685D01*
X414820Y453715D01*
X414422Y454674D01*
X413790Y455499D01*
X412966Y456131D01*
X412006Y456528D01*
X410976Y456664D01*
D02*
G37*
G36*
X440976Y446979D02*
X439750D01*
Y443250D01*
X444922D01*
X444820Y444030D01*
X444422Y444989D01*
X443790Y445814D01*
X442966Y446446D01*
X442006Y446843D01*
X440976Y446979D01*
D02*
G37*
G36*
X439250D02*
X438024D01*
X436994Y446843D01*
X436034Y446446D01*
X435210Y445814D01*
X434578Y444989D01*
X434180Y444030D01*
X434078Y443250D01*
X439250D01*
Y446979D01*
D02*
G37*
G36*
X410976Y446821D02*
X409750D01*
Y443092D01*
X414922D01*
X414820Y443872D01*
X414422Y444832D01*
X413790Y445656D01*
X412966Y446288D01*
X412006Y446686D01*
X410976Y446821D01*
D02*
G37*
G36*
X409250D02*
X408024D01*
X406994Y446686D01*
X406034Y446288D01*
X405210Y445656D01*
X404578Y444832D01*
X404180Y443872D01*
X404078Y443092D01*
X409250D01*
Y446821D01*
D02*
G37*
G36*
X459313Y444575D02*
X458687D01*
X458108Y444335D01*
X457665Y443892D01*
X457425Y443313D01*
Y442687D01*
X457478Y442559D01*
X454959Y440041D01*
X454794Y439793D01*
X454735Y439500D01*
Y411130D01*
X452638D01*
Y409032D01*
X451768D01*
X451768Y409032D01*
X451475Y408974D01*
X451227Y408808D01*
X450734Y408315D01*
X450272Y408506D01*
Y409075D01*
X445728D01*
Y404925D01*
X450272D01*
Y406235D01*
X450500D01*
X450793Y406293D01*
X451041Y406459D01*
X452084Y407503D01*
X452638D01*
Y405406D01*
X454735D01*
Y405000D01*
X454794Y404707D01*
X454959Y404459D01*
X455559Y403859D01*
X455807Y403693D01*
X456100Y403635D01*
X457776D01*
X458012Y403336D01*
X457802Y402862D01*
X452638D01*
Y397138D01*
X454735D01*
Y396317D01*
X453459Y395041D01*
X453294Y394793D01*
X453235Y394500D01*
Y394272D01*
X451925D01*
Y389728D01*
X456075D01*
Y394272D01*
X455506D01*
X455315Y394734D01*
X456041Y395459D01*
X456207Y395707D01*
X456265Y396000D01*
Y397138D01*
X458362D01*
Y402052D01*
X458862Y402310D01*
X459035Y402187D01*
Y368517D01*
X456241Y365722D01*
X456113Y365775D01*
X455487D01*
X454908Y365535D01*
X454465Y365092D01*
X454225Y364513D01*
Y363887D01*
X454465Y363308D01*
X454908Y362865D01*
X455487Y362625D01*
X456113D01*
X456692Y362865D01*
X457135Y363308D01*
X457375Y363887D01*
Y364513D01*
X457322Y364641D01*
X460341Y367659D01*
X460341Y367659D01*
X460506Y367907D01*
X460565Y368200D01*
Y402800D01*
X460506Y403093D01*
X460341Y403341D01*
X458741Y404941D01*
X458628Y405016D01*
X458362Y405406D01*
Y407503D01*
X459415D01*
X460703Y406215D01*
X460703Y406215D01*
X460952Y406049D01*
X461228Y405994D01*
Y404681D01*
X465772D01*
Y408831D01*
X461228D01*
Y408506D01*
X460766Y408315D01*
X460273Y408808D01*
X460025Y408974D01*
X459732Y409032D01*
X458362D01*
Y411130D01*
X456265D01*
Y439183D01*
X458559Y441478D01*
X458687Y441425D01*
X459313D01*
X459892Y441665D01*
X460335Y442108D01*
X460575Y442687D01*
Y443313D01*
X460335Y443892D01*
X459892Y444335D01*
X459313Y444575D01*
D02*
G37*
G36*
X444922Y442750D02*
X439750D01*
Y439021D01*
X440976D01*
X442006Y439157D01*
X442966Y439554D01*
X443790Y440187D01*
X444422Y441011D01*
X444820Y441970D01*
X444922Y442750D01*
D02*
G37*
G36*
X439250D02*
X434078D01*
X434180Y441970D01*
X434578Y441011D01*
X435210Y440187D01*
X436034Y439554D01*
X436994Y439157D01*
X438024Y439021D01*
X439250D01*
Y442750D01*
D02*
G37*
G36*
X499976Y446821D02*
X497024D01*
X495994Y446686D01*
X495034Y446288D01*
X494210Y445656D01*
X493578Y444832D01*
X493180Y443872D01*
X493045Y442842D01*
X493180Y441813D01*
X493578Y440853D01*
X494210Y440029D01*
X495034Y439397D01*
X495994Y438999D01*
X497024Y438864D01*
X499976D01*
X501006Y438999D01*
X501966Y439397D01*
X502790Y440029D01*
X503422Y440853D01*
X503820Y441813D01*
X503955Y442842D01*
X503820Y443872D01*
X503422Y444832D01*
X502790Y445656D01*
X501966Y446288D01*
X501006Y446686D01*
X499976Y446821D01*
D02*
G37*
G36*
X470476D02*
X467524D01*
X466494Y446686D01*
X465534Y446288D01*
X464710Y445656D01*
X464078Y444832D01*
X463680Y443872D01*
X463545Y442842D01*
X463680Y441813D01*
X464078Y440853D01*
X464710Y440029D01*
X465534Y439397D01*
X466494Y438999D01*
X467524Y438864D01*
X470476D01*
X471506Y438999D01*
X472466Y439397D01*
X473290Y440029D01*
X473922Y440853D01*
X474320Y441813D01*
X474455Y442842D01*
X474320Y443872D01*
X473922Y444832D01*
X473290Y445656D01*
X472466Y446288D01*
X471506Y446686D01*
X470476Y446821D01*
D02*
G37*
G36*
X414922Y442592D02*
X409750D01*
Y438864D01*
X410976D01*
X412006Y438999D01*
X412966Y439397D01*
X413790Y440029D01*
X414422Y440853D01*
X414820Y441813D01*
X414922Y442592D01*
D02*
G37*
G36*
X409250D02*
X404078D01*
X404180Y441813D01*
X404578Y440853D01*
X405210Y440029D01*
X406034Y439397D01*
X406994Y438999D01*
X408024Y438864D01*
X409250D01*
Y442592D01*
D02*
G37*
G36*
X499976Y436979D02*
X498750D01*
Y433250D01*
X503922D01*
X503820Y434030D01*
X503422Y434990D01*
X502790Y435814D01*
X501966Y436446D01*
X501006Y436843D01*
X499976Y436979D01*
D02*
G37*
G36*
X470476D02*
X469250D01*
Y433250D01*
X474422D01*
X474320Y434030D01*
X473922Y434990D01*
X473290Y435814D01*
X472466Y436446D01*
X471506Y436843D01*
X470476Y436979D01*
D02*
G37*
G36*
X498250D02*
X497024D01*
X495994Y436843D01*
X495034Y436446D01*
X494210Y435814D01*
X493578Y434990D01*
X493180Y434030D01*
X493078Y433250D01*
X498250D01*
Y436979D01*
D02*
G37*
G36*
X468750D02*
X467524D01*
X466494Y436843D01*
X465534Y436446D01*
X464710Y435814D01*
X464078Y434990D01*
X463680Y434030D01*
X463578Y433250D01*
X468750D01*
Y436979D01*
D02*
G37*
G36*
X537626Y435925D02*
X533045D01*
Y432132D01*
X537626D01*
Y435925D01*
D02*
G37*
G36*
X532545D02*
X527965D01*
Y432132D01*
X532545D01*
Y435925D01*
D02*
G37*
G36*
X440976Y437136D02*
X438024D01*
X436994Y437001D01*
X436034Y436603D01*
X435210Y435971D01*
X434578Y435147D01*
X434180Y434187D01*
X434045Y433157D01*
X434180Y432128D01*
X434578Y431168D01*
X435210Y430344D01*
X436034Y429712D01*
X436994Y429314D01*
X438024Y429179D01*
X440976D01*
X442006Y429314D01*
X442966Y429712D01*
X443790Y430344D01*
X444422Y431168D01*
X444820Y432128D01*
X444955Y433157D01*
X444820Y434187D01*
X444422Y435147D01*
X443790Y435971D01*
X442966Y436603D01*
X442006Y437001D01*
X440976Y437136D01*
D02*
G37*
G36*
X503922Y432750D02*
X498750D01*
Y429021D01*
X499976D01*
X501006Y429157D01*
X501966Y429554D01*
X502790Y430187D01*
X503422Y431010D01*
X503820Y431970D01*
X503922Y432750D01*
D02*
G37*
G36*
X498250D02*
X493078D01*
X493180Y431970D01*
X493578Y431010D01*
X494210Y430187D01*
X495034Y429554D01*
X495994Y429157D01*
X497024Y429021D01*
X498250D01*
Y432750D01*
D02*
G37*
G36*
X474422D02*
X469250D01*
Y429021D01*
X470476D01*
X471506Y429157D01*
X472466Y429554D01*
X473290Y430187D01*
X473922Y431010D01*
X474320Y431970D01*
X474422Y432750D01*
D02*
G37*
G36*
X468750D02*
X463578D01*
X463680Y431970D01*
X464078Y431010D01*
X464710Y430187D01*
X465534Y429554D01*
X466494Y429157D01*
X467524Y429021D01*
X468750D01*
Y432750D01*
D02*
G37*
G36*
X410976Y436979D02*
X408024D01*
X406994Y436843D01*
X406034Y436446D01*
X405210Y435814D01*
X404578Y434990D01*
X404180Y434030D01*
X404045Y433000D01*
X404180Y431970D01*
X404578Y431010D01*
X405210Y430187D01*
X406034Y429554D01*
X406994Y429157D01*
X408024Y429021D01*
X410976D01*
X412006Y429157D01*
X412966Y429554D01*
X413790Y430187D01*
X414422Y431010D01*
X414820Y431970D01*
X414955Y433000D01*
X414820Y434030D01*
X414422Y434990D01*
X413790Y435814D01*
X412966Y436446D01*
X412006Y436843D01*
X410976Y436979D01*
D02*
G37*
G36*
X537626Y431632D02*
X533045D01*
Y427839D01*
X537626D01*
Y431632D01*
D02*
G37*
G36*
X532545D02*
X527965D01*
Y427839D01*
X532545D01*
Y431632D01*
D02*
G37*
G36*
X523059Y425492D02*
X520250D01*
Y424652D01*
X523059D01*
Y425492D01*
D02*
G37*
G36*
X519750D02*
X516941D01*
Y424652D01*
X519750D01*
Y425492D01*
D02*
G37*
G36*
X373131Y427638D02*
X372750D01*
Y421482D01*
X378906D01*
Y421863D01*
X378659Y423101D01*
X378176Y424266D01*
X377476Y425316D01*
X376583Y426208D01*
X375534Y426909D01*
X374368Y427392D01*
X373131Y427638D01*
D02*
G37*
G36*
X372250D02*
X371869D01*
X370632Y427392D01*
X369466Y426909D01*
X368417Y426208D01*
X367525Y425316D01*
X366824Y424266D01*
X366341Y423101D01*
X366094Y421863D01*
Y421482D01*
X372250D01*
Y427638D01*
D02*
G37*
G36*
X378906Y420982D02*
X372750D01*
Y414827D01*
X373131D01*
X374368Y415073D01*
X375534Y415556D01*
X376583Y416257D01*
X377476Y417149D01*
X378176Y418198D01*
X378659Y419364D01*
X378906Y420601D01*
Y420982D01*
D02*
G37*
G36*
X372250D02*
X366094D01*
Y420601D01*
X366341Y419364D01*
X366824Y418198D01*
X367525Y417149D01*
X368417Y416257D01*
X369466Y415556D01*
X370632Y415073D01*
X371869Y414827D01*
X372250D01*
Y420982D01*
D02*
G37*
G36*
X411335Y412815D02*
X406791D01*
Y411505D01*
X405240D01*
X405240Y411505D01*
X404948Y411447D01*
X404699Y411281D01*
X404699Y411281D01*
X404234Y410815D01*
X403772Y411006D01*
Y411331D01*
X399228D01*
Y410021D01*
X397772D01*
Y411331D01*
X393228D01*
Y407181D01*
X397772D01*
Y408491D01*
X399228D01*
Y407181D01*
X403772D01*
Y408494D01*
X404048Y408549D01*
X404297Y408715D01*
X405557Y409975D01*
X406791D01*
Y408665D01*
X411335D01*
Y412815D01*
D02*
G37*
G36*
X523059Y410372D02*
X520000D01*
X516941D01*
Y409442D01*
X512297D01*
X512235Y409592D01*
X511792Y410035D01*
X511213Y410275D01*
X510587D01*
X510008Y410035D01*
X509565Y409592D01*
X509325Y409013D01*
Y408387D01*
X509565Y407808D01*
X510008Y407365D01*
X510587Y407125D01*
X511154D01*
X511311Y407040D01*
X511609Y406780D01*
X511608Y406663D01*
X511313Y406275D01*
X510687D01*
X510108Y406035D01*
X509665Y405592D01*
X509425Y405013D01*
Y404387D01*
X509665Y403808D01*
X510108Y403365D01*
X510687Y403125D01*
X510997D01*
X511271Y402950D01*
X511307Y402463D01*
X510917Y402181D01*
X510813Y402224D01*
X510187D01*
X509608Y401985D01*
X509165Y401542D01*
X508925Y400963D01*
Y400336D01*
X509165Y399758D01*
X509608Y399315D01*
X510187Y399075D01*
X510602D01*
X510824Y398848D01*
X510651Y398575D01*
X510187D01*
X509608Y398335D01*
X509165Y397892D01*
X508925Y397313D01*
Y396687D01*
X509165Y396108D01*
X509608Y395665D01*
X510187Y395425D01*
X510813D01*
X510963Y395487D01*
X511070Y395447D01*
X511425Y395138D01*
Y394687D01*
X511551Y394383D01*
X511127Y394100D01*
X510892Y394335D01*
X510313Y394575D01*
X509687D01*
X509108Y394335D01*
X508665Y393892D01*
X508425Y393313D01*
Y392687D01*
X508665Y392108D01*
X509108Y391665D01*
X509687Y391425D01*
X510313D01*
X510463Y391487D01*
X510570Y391447D01*
X510925Y391138D01*
Y390687D01*
X511165Y390108D01*
X511608Y389665D01*
X512187Y389425D01*
X512813D01*
X513392Y389665D01*
X513835Y390108D01*
X513875Y390204D01*
X516941D01*
Y389218D01*
X520000D01*
X523059D01*
Y389846D01*
Y393783D01*
Y397721D01*
Y401657D01*
Y405594D01*
Y409531D01*
Y410372D01*
D02*
G37*
G36*
X427319Y409272D02*
X423169D01*
Y407765D01*
X419209D01*
Y409075D01*
X414665D01*
Y404925D01*
X419209D01*
Y406235D01*
X423169D01*
Y404728D01*
X427319D01*
Y409272D01*
D02*
G37*
G36*
X383676Y412992D02*
X382663D01*
X381685Y412730D01*
X380807Y412224D01*
X380091Y411507D01*
X379585Y410630D01*
X379323Y409652D01*
Y408639D01*
X379585Y407661D01*
X380091Y406784D01*
X380807Y406068D01*
X381685Y405561D01*
X382663Y405299D01*
X383676D01*
X384654Y405561D01*
X385531Y406068D01*
X386247Y406784D01*
X386754Y407661D01*
X387016Y408639D01*
Y409652D01*
X386754Y410630D01*
X386247Y411507D01*
X385531Y412224D01*
X384654Y412730D01*
X383676Y412992D01*
D02*
G37*
G36*
X403772Y405819D02*
X401750D01*
Y403994D01*
X403772D01*
Y405819D01*
D02*
G37*
G36*
X401250D02*
X399228D01*
Y403994D01*
X401250D01*
Y405819D01*
D02*
G37*
G36*
X411335Y405335D02*
X409313D01*
Y403510D01*
X411335D01*
Y405335D01*
D02*
G37*
G36*
X408813D02*
X406791D01*
Y403510D01*
X408813D01*
Y405335D01*
D02*
G37*
G36*
X403772Y403494D02*
X401750D01*
Y401669D01*
X403772D01*
Y403494D01*
D02*
G37*
G36*
X401250D02*
X399228D01*
Y401669D01*
X401250D01*
Y403494D01*
D02*
G37*
G36*
X495772Y403319D02*
X493750D01*
Y401494D01*
X495772D01*
Y403319D01*
D02*
G37*
G36*
X493250D02*
X491228D01*
Y401494D01*
X493250D01*
Y403319D01*
D02*
G37*
G36*
X465772D02*
X463750D01*
Y401494D01*
X465772D01*
Y403319D01*
D02*
G37*
G36*
X463250D02*
X461228D01*
Y401494D01*
X463250D01*
Y403319D01*
D02*
G37*
G36*
X411335Y403010D02*
X409313D01*
Y401185D01*
X411335D01*
Y403010D01*
D02*
G37*
G36*
X408813D02*
X406791D01*
Y401185D01*
X408813D01*
Y403010D01*
D02*
G37*
G36*
X432831Y409272D02*
X428681D01*
Y404728D01*
X429991D01*
Y403772D01*
X428681D01*
Y399228D01*
X432831D01*
Y403772D01*
X431521D01*
Y404728D01*
X432831D01*
Y409272D01*
D02*
G37*
G36*
X493250Y400994D02*
X491228D01*
Y399169D01*
X493250D01*
Y400994D01*
D02*
G37*
G36*
X465772D02*
X463750D01*
Y399169D01*
X465772D01*
Y400994D01*
D02*
G37*
G36*
X463250D02*
X461228D01*
Y399169D01*
X463250D01*
Y400994D01*
D02*
G37*
G36*
X480272Y403319D02*
X475728D01*
Y399169D01*
X476780D01*
Y397764D01*
X475747D01*
X475735Y397792D01*
X475292Y398235D01*
X474713Y398475D01*
X474087D01*
X473508Y398235D01*
X473065Y397792D01*
X472825Y397213D01*
Y396587D01*
X473065Y396008D01*
X473508Y395565D01*
X474087Y395325D01*
X474713D01*
X475292Y395565D01*
X475452Y395725D01*
X476780D01*
Y394272D01*
X476169D01*
Y389728D01*
X480319D01*
Y394272D01*
X478820D01*
Y399169D01*
X480272D01*
Y403319D01*
D02*
G37*
G36*
X422841Y454136D02*
X422215D01*
X421636Y453897D01*
X421193Y453454D01*
X420953Y452875D01*
Y452248D01*
X421193Y451670D01*
X421610Y451252D01*
Y425274D01*
X421680Y424923D01*
X421879Y424625D01*
X435982Y410522D01*
Y392918D01*
X431680D01*
X426162Y398436D01*
Y399228D01*
X427319D01*
Y403772D01*
X423169D01*
Y399228D01*
X424327D01*
Y398056D01*
X424396Y397705D01*
X424595Y397407D01*
X430651Y391351D01*
X430949Y391152D01*
X431300Y391082D01*
X435982D01*
Y355060D01*
X436052Y354709D01*
X436251Y354412D01*
X439469Y351194D01*
X439767Y350995D01*
X440118Y350925D01*
X441931D01*
Y349571D01*
X443482D01*
Y348300D01*
X443552Y347949D01*
X443751Y347651D01*
X445614Y345788D01*
Y345085D01*
X445441D01*
Y342618D01*
X440809D01*
X440392Y343035D01*
X439813Y343275D01*
X439187D01*
X438608Y343035D01*
X438165Y342592D01*
X437925Y342013D01*
Y341387D01*
X438165Y340808D01*
X438608Y340365D01*
X439187Y340125D01*
X439813D01*
X440392Y340365D01*
X440809Y340782D01*
X445441D01*
Y338278D01*
X448250D01*
Y341681D01*
Y345085D01*
X447449D01*
Y346168D01*
X447379Y346520D01*
X447180Y346817D01*
X445318Y348680D01*
Y349571D01*
X446869D01*
Y354114D01*
X441931D01*
Y352760D01*
X440498D01*
X437818Y355440D01*
Y391082D01*
X446413D01*
Y389728D01*
X450563D01*
Y394272D01*
X446413D01*
Y392918D01*
X443418D01*
Y399920D01*
X444068Y400571D01*
X445728D01*
Y399413D01*
X450272D01*
Y403563D01*
X445728D01*
Y402406D01*
X443688D01*
X443337Y402336D01*
X443039Y402137D01*
X441851Y400949D01*
X441652Y400651D01*
X441582Y400300D01*
Y392918D01*
X437818D01*
Y410902D01*
X437748Y411253D01*
X437549Y411551D01*
X423446Y425654D01*
Y451252D01*
X423863Y451670D01*
X424103Y452248D01*
Y452875D01*
X423863Y453454D01*
X423420Y453897D01*
X422841Y454136D01*
D02*
G37*
G36*
X383676Y403150D02*
X382663D01*
X381685Y402887D01*
X380807Y402381D01*
X380091Y401665D01*
X379585Y400788D01*
X379323Y399810D01*
Y398797D01*
X379585Y397818D01*
X380091Y396941D01*
X380807Y396225D01*
X381685Y395719D01*
X382035Y395625D01*
Y395107D01*
X381685Y395013D01*
X380807Y394507D01*
X380091Y393791D01*
X379585Y392914D01*
X379323Y391935D01*
Y390923D01*
X379585Y389945D01*
X380091Y389067D01*
X380807Y388351D01*
X381685Y387845D01*
X382663Y387583D01*
X383676D01*
X384654Y387845D01*
X385531Y388351D01*
X386247Y389067D01*
X386754Y389945D01*
X387016Y390923D01*
Y391935D01*
X386754Y392914D01*
X386247Y393791D01*
X385531Y394507D01*
X384654Y395013D01*
X384304Y395107D01*
Y395625D01*
X384654Y395719D01*
X385531Y396225D01*
X386247Y396941D01*
X386754Y397818D01*
X387016Y398797D01*
Y399810D01*
X386754Y400788D01*
X386247Y401665D01*
X385531Y402381D01*
X384654Y402887D01*
X383676Y403150D01*
D02*
G37*
G36*
X414742Y388971D02*
X413312Y387541D01*
X414603Y386251D01*
X416032Y387681D01*
X414742Y388971D01*
D02*
G37*
G36*
X397772Y405819D02*
X393228D01*
Y401669D01*
X394735D01*
Y400888D01*
X394608Y400835D01*
X394165Y400392D01*
X393925Y399813D01*
Y399187D01*
X394165Y398608D01*
X394608Y398165D01*
X395187Y397925D01*
X395813D01*
X395941Y397978D01*
X408219Y385700D01*
X407892Y385335D01*
X407313Y385575D01*
X406687D01*
X406108Y385335D01*
X405665Y384892D01*
X405425Y384313D01*
Y383687D01*
X405665Y383108D01*
X406108Y382665D01*
X406687Y382425D01*
X407313D01*
X407441Y382478D01*
X408206Y381713D01*
X407539Y381046D01*
X407185Y380693D01*
X407099Y380606D01*
X406173Y379680D01*
X408197Y377657D01*
X410221Y375633D01*
X411146Y376558D01*
X411500Y376912D01*
X411586Y376998D01*
X413877Y379289D01*
X409830Y383337D01*
X409287Y382794D01*
X408522Y383559D01*
X408575Y383687D01*
Y384313D01*
X408335Y384892D01*
X408700Y385219D01*
X414669Y379250D01*
X411459Y376041D01*
X411294Y375793D01*
X411235Y375500D01*
Y373500D01*
X411294Y373207D01*
X411459Y372959D01*
X412415Y372003D01*
X411854Y371442D01*
X411500Y371088D01*
X411414Y371002D01*
X409123Y368711D01*
X413170Y364663D01*
X413818Y365311D01*
X414540Y364590D01*
X414425Y364313D01*
Y363687D01*
X414665Y363108D01*
X415108Y362665D01*
X415687Y362425D01*
X416313D01*
X416892Y362665D01*
X417335Y363108D01*
X417575Y363687D01*
Y364313D01*
X417335Y364892D01*
X416892Y365335D01*
X416313Y365575D01*
X415717D01*
X414900Y366392D01*
X415461Y366954D01*
X415815Y367307D01*
X415901Y367394D01*
X418106Y369599D01*
X418192Y369685D01*
X418546Y370039D01*
X419213Y370706D01*
X419978Y369941D01*
X419925Y369813D01*
Y369187D01*
X420165Y368608D01*
X420608Y368165D01*
X421187Y367925D01*
X421813D01*
X422392Y368165D01*
X422835Y368608D01*
X423075Y369187D01*
Y369813D01*
X422835Y370392D01*
X422392Y370835D01*
X421813Y371075D01*
X421187D01*
X421059Y371022D01*
X420294Y371787D01*
X420837Y372330D01*
X416789Y376377D01*
X414498Y374086D01*
X414412Y374000D01*
X414058Y373646D01*
X413497Y373085D01*
X412765Y373817D01*
Y375183D01*
X416541Y378959D01*
X417434Y379853D01*
X418361Y378927D01*
X421573Y382139D01*
X418639Y385073D01*
X415427Y381861D01*
X416353Y380934D01*
X415750Y380331D01*
X397022Y399059D01*
X397075Y399187D01*
Y399813D01*
X396835Y400392D01*
X396392Y400835D01*
X396265Y400888D01*
Y401669D01*
X397772D01*
Y405819D01*
D02*
G37*
G36*
X416386Y387327D02*
X414956Y385897D01*
X416246Y384607D01*
X417676Y386037D01*
X416386Y387327D01*
D02*
G37*
G36*
X412959Y387188D02*
X411529Y385758D01*
X412819Y384468D01*
X414249Y385897D01*
X412959Y387188D01*
D02*
G37*
G36*
X414603Y385544D02*
X413173Y384114D01*
X414463Y382824D01*
X415893Y384254D01*
X414603Y385544D01*
D02*
G37*
G36*
X383676Y385433D02*
X383419D01*
Y381837D01*
X387016D01*
Y382093D01*
X386754Y383071D01*
X386247Y383948D01*
X385531Y384665D01*
X384654Y385171D01*
X383676Y385433D01*
D02*
G37*
G36*
X382919D02*
X382663D01*
X381685Y385171D01*
X380807Y384665D01*
X380091Y383948D01*
X379585Y383071D01*
X379323Y382093D01*
Y381837D01*
X382919D01*
Y385433D01*
D02*
G37*
G36*
X387016Y381337D02*
X383419D01*
Y377740D01*
X383676D01*
X384654Y378002D01*
X385531Y378509D01*
X386247Y379225D01*
X386754Y380102D01*
X387016Y381080D01*
Y381337D01*
D02*
G37*
G36*
X382919D02*
X379323D01*
Y381080D01*
X379585Y380102D01*
X380091Y379225D01*
X380807Y378509D01*
X381685Y378002D01*
X382663Y377740D01*
X382919D01*
Y381337D01*
D02*
G37*
G36*
X401813Y380075D02*
X401187D01*
X400608Y379835D01*
X400165Y379392D01*
X399925Y378813D01*
Y378187D01*
X400165Y377608D01*
X400608Y377165D01*
X401187Y376925D01*
X401813D01*
X401941Y376978D01*
X402705Y376213D01*
X402163Y375670D01*
X406211Y371623D01*
X408502Y373914D01*
X408588Y374000D01*
X408942Y374354D01*
X409867Y375279D01*
X407843Y377303D01*
X405820Y379327D01*
X404894Y378401D01*
X404808Y378315D01*
X404454Y377961D01*
X403787Y377294D01*
X403022Y378059D01*
X403075Y378187D01*
Y378813D01*
X402835Y379392D01*
X402392Y379835D01*
X401813Y380075D01*
D02*
G37*
G36*
X373131Y375905D02*
X372750D01*
Y369750D01*
X378906D01*
Y370131D01*
X378659Y371368D01*
X378176Y372534D01*
X377476Y373583D01*
X376583Y374476D01*
X375534Y375177D01*
X374368Y375659D01*
X373131Y375905D01*
D02*
G37*
G36*
X372250D02*
X371869D01*
X370632Y375659D01*
X369466Y375177D01*
X368417Y374476D01*
X367525Y373583D01*
X366824Y372534D01*
X366341Y371368D01*
X366094Y370131D01*
Y369750D01*
X372250D01*
Y375905D01*
D02*
G37*
G36*
X537626Y371752D02*
X533045D01*
Y367959D01*
X537626D01*
Y371752D01*
D02*
G37*
G36*
X532545D02*
X527965D01*
Y367959D01*
X532545D01*
Y371752D01*
D02*
G37*
G36*
X492553Y373753D02*
X485647D01*
Y366847D01*
X492553D01*
Y373753D01*
D02*
G37*
G36*
X537626Y367459D02*
X533045D01*
Y363665D01*
X537626D01*
Y367459D01*
D02*
G37*
G36*
X532545D02*
X527965D01*
Y363665D01*
X532545D01*
Y367459D01*
D02*
G37*
G36*
X378906Y369250D02*
X372750D01*
Y363094D01*
X373131D01*
X374368Y363341D01*
X375534Y363824D01*
X376583Y364525D01*
X377476Y365417D01*
X378176Y366466D01*
X378659Y367632D01*
X378906Y368869D01*
Y369250D01*
D02*
G37*
G36*
X372250D02*
X366094D01*
Y368869D01*
X366341Y367632D01*
X366824Y366466D01*
X367525Y365417D01*
X368417Y364525D01*
X369466Y363824D01*
X370632Y363341D01*
X371869Y363094D01*
X372250D01*
Y369250D01*
D02*
G37*
G36*
X446869Y359429D02*
X444650D01*
Y357407D01*
X446869D01*
Y359429D01*
D02*
G37*
G36*
X444150D02*
X441931D01*
Y357407D01*
X444150D01*
Y359429D01*
D02*
G37*
G36*
X489555Y363753D02*
X488645D01*
X487767Y363517D01*
X486980Y363063D01*
X486337Y362420D01*
X485883Y361633D01*
X485647Y360755D01*
Y359845D01*
X485883Y358967D01*
X486337Y358180D01*
X486980Y357537D01*
X487767Y357083D01*
X488645Y356847D01*
X489555D01*
X490433Y357083D01*
X491220Y357537D01*
X491863Y358180D01*
X492317Y358967D01*
X492553Y359845D01*
Y360755D01*
X492317Y361633D01*
X491863Y362420D01*
X491220Y363063D01*
X490433Y363517D01*
X489555Y363753D01*
D02*
G37*
G36*
X446869Y356908D02*
X444650D01*
Y354886D01*
X446869D01*
Y356908D01*
D02*
G37*
G36*
X444150D02*
X441931D01*
Y354886D01*
X444150D01*
Y356908D01*
D02*
G37*
G36*
X356455Y353453D02*
X356250D01*
Y350250D01*
X359453D01*
Y350455D01*
X359218Y351333D01*
X358763Y352120D01*
X358120Y352763D01*
X357333Y353218D01*
X356455Y353453D01*
D02*
G37*
G36*
X355750D02*
X355545D01*
X354667Y353218D01*
X353880Y352763D01*
X353237Y352120D01*
X352783Y351333D01*
X352547Y350455D01*
Y350250D01*
X355750D01*
Y353453D01*
D02*
G37*
G36*
X386455D02*
X385545D01*
X384667Y353218D01*
X383880Y352763D01*
X383237Y352120D01*
X382783Y351333D01*
X382547Y350455D01*
Y349545D01*
X382783Y348667D01*
X383237Y347880D01*
X383880Y347237D01*
X384667Y346782D01*
X385545Y346547D01*
X386455D01*
X387333Y346782D01*
X388120Y347237D01*
X388763Y347880D01*
X389217Y348667D01*
X389453Y349545D01*
Y350455D01*
X389217Y351333D01*
X388763Y352120D01*
X388120Y352763D01*
X387333Y353218D01*
X386455Y353453D01*
D02*
G37*
G36*
X376455D02*
X375545D01*
X374667Y353218D01*
X373880Y352763D01*
X373237Y352120D01*
X372782Y351333D01*
X372547Y350455D01*
Y349545D01*
X372782Y348667D01*
X373237Y347880D01*
X373880Y347237D01*
X374667Y346782D01*
X375545Y346547D01*
X376455D01*
X377333Y346782D01*
X378120Y347237D01*
X378763Y347880D01*
X379218Y348667D01*
X379453Y349545D01*
Y350455D01*
X379218Y351333D01*
X378763Y352120D01*
X378120Y352763D01*
X377333Y353218D01*
X376455Y353453D01*
D02*
G37*
G36*
X366455D02*
X365545D01*
X364667Y353218D01*
X363880Y352763D01*
X363237Y352120D01*
X362783Y351333D01*
X362547Y350455D01*
Y349545D01*
X362783Y348667D01*
X363237Y347880D01*
X363880Y347237D01*
X364667Y346782D01*
X365545Y346547D01*
X366455D01*
X367333Y346782D01*
X368120Y347237D01*
X368763Y347880D01*
X369217Y348667D01*
X369453Y349545D01*
Y350455D01*
X369217Y351333D01*
X368763Y352120D01*
X368120Y352763D01*
X367333Y353218D01*
X366455Y353453D01*
D02*
G37*
G36*
X359453Y349750D02*
X356250D01*
Y346547D01*
X356455D01*
X357333Y346782D01*
X358120Y347237D01*
X358763Y347880D01*
X359218Y348667D01*
X359453Y349545D01*
Y349750D01*
D02*
G37*
G36*
X355750D02*
X352547D01*
Y349545D01*
X352783Y348667D01*
X353237Y347880D01*
X353880Y347237D01*
X354667Y346782D01*
X355545Y346547D01*
X355750D01*
Y349750D01*
D02*
G37*
G36*
X346455Y353453D02*
X345545D01*
X344667Y353218D01*
X343880Y352763D01*
X343237Y352120D01*
X342782Y351333D01*
X342547Y350455D01*
Y349545D01*
X342782Y348667D01*
X343237Y347880D01*
X343880Y347237D01*
X344667Y346782D01*
X345545Y346547D01*
X346455D01*
X347333Y346782D01*
X348120Y347237D01*
X348763Y347880D01*
X349218Y348667D01*
X349453Y349545D01*
Y350455D01*
X349218Y351333D01*
X348763Y352120D01*
X348120Y352763D01*
X347333Y353218D01*
X346455Y353453D01*
D02*
G37*
G36*
X339453D02*
X332547D01*
Y346547D01*
X339453D01*
Y353453D01*
D02*
G37*
G36*
X495968Y343929D02*
X493750D01*
Y341908D01*
X495968D01*
Y343929D01*
D02*
G37*
G36*
X493250D02*
X491032D01*
Y341908D01*
X493250D01*
Y343929D01*
D02*
G37*
G36*
X537968Y348357D02*
X534031D01*
X533130Y348238D01*
X532290Y347890D01*
X531569Y347337D01*
X531015Y346615D01*
X530668Y345775D01*
X530549Y344874D01*
X530668Y343973D01*
X531015Y343133D01*
X531569Y342411D01*
X532290Y341858D01*
X533130Y341510D01*
X534031Y341391D01*
X537968D01*
X538870Y341510D01*
X539710Y341858D01*
X540431Y342411D01*
X540984Y343133D01*
X541332Y343973D01*
X541451Y344874D01*
X541332Y345775D01*
X540984Y346615D01*
X540431Y347337D01*
X539710Y347890D01*
X538870Y348238D01*
X537968Y348357D01*
D02*
G37*
G36*
X495968Y341407D02*
X493750D01*
Y339386D01*
X495968D01*
Y341407D01*
D02*
G37*
G36*
X493250D02*
X491032D01*
Y339386D01*
X493250D01*
Y341407D01*
D02*
G37*
G36*
X480113Y352575D02*
X479487D01*
X478908Y352335D01*
X478465Y351892D01*
X478225Y351313D01*
Y350687D01*
X478465Y350108D01*
X478908Y349665D01*
X479487Y349425D01*
X479933D01*
X482866Y346492D01*
Y334945D01*
X480482D01*
Y332136D01*
X483886D01*
X487289D01*
Y332835D01*
X487554D01*
X487945Y332912D01*
X488275Y333133D01*
X490465Y335323D01*
X491032D01*
Y334071D01*
X495968D01*
Y338614D01*
X491032D01*
Y337362D01*
X490042D01*
X489652Y337284D01*
X489322Y337064D01*
X487203Y334945D01*
X484905D01*
Y346914D01*
X484828Y347304D01*
X484607Y347635D01*
X481375Y350867D01*
Y351313D01*
X481135Y351892D01*
X480692Y352335D01*
X480113Y352575D01*
D02*
G37*
G36*
X348705Y335504D02*
X341900D01*
Y333876D01*
X348705D01*
Y335504D01*
D02*
G37*
G36*
X341400D02*
X334594D01*
Y333876D01*
X341400D01*
Y335504D01*
D02*
G37*
G36*
X537968Y340482D02*
X534031D01*
X533130Y340364D01*
X532290Y340016D01*
X531569Y339462D01*
X531015Y338741D01*
X530668Y337901D01*
X530549Y337000D01*
X530668Y336099D01*
X531015Y335259D01*
X531569Y334538D01*
X532290Y333984D01*
X533130Y333636D01*
X534031Y333518D01*
X537968D01*
X538870Y333636D01*
X539710Y333984D01*
X540431Y334538D01*
X540984Y335259D01*
X541332Y336099D01*
X541451Y337000D01*
X541332Y337901D01*
X540984Y338741D01*
X540431Y339462D01*
X539710Y340016D01*
X538870Y340364D01*
X537968Y340482D01*
D02*
G37*
G36*
X390043Y335504D02*
X386191D01*
Y333010D01*
X390043D01*
Y335504D01*
D02*
G37*
G36*
X385691D02*
X381839D01*
Y333010D01*
X385691D01*
Y335504D01*
D02*
G37*
G36*
X348705Y333376D02*
X341900D01*
Y331748D01*
X348705D01*
Y333376D01*
D02*
G37*
G36*
X341400D02*
X334594D01*
Y331748D01*
X341400D01*
Y333376D01*
D02*
G37*
G36*
X385691Y332510D02*
X381839D01*
Y330016D01*
X385691D01*
Y332510D01*
D02*
G37*
G36*
X339256Y326803D02*
X337175D01*
Y324781D01*
X339256D01*
Y326803D01*
D02*
G37*
G36*
X336675D02*
X334594D01*
Y324781D01*
X336675D01*
Y326803D01*
D02*
G37*
G36*
X339256Y324282D02*
X337175D01*
Y322260D01*
X339256D01*
Y324282D01*
D02*
G37*
G36*
X336675D02*
X334594D01*
Y322260D01*
X336675D01*
Y324282D01*
D02*
G37*
G36*
X545484Y321854D02*
X541691D01*
Y319242D01*
X545484D01*
Y321854D01*
D02*
G37*
G36*
X541191D02*
X537398D01*
Y319242D01*
X541191D01*
Y321854D01*
D02*
G37*
G36*
X545484Y318742D02*
X541691D01*
Y316130D01*
X545484D01*
Y318742D01*
D02*
G37*
G36*
X541191D02*
X537398D01*
Y316130D01*
X541191D01*
Y318742D01*
D02*
G37*
G36*
X503087Y310469D02*
X501065D01*
Y308250D01*
X503087D01*
Y310469D01*
D02*
G37*
G36*
X500565D02*
X498543D01*
Y308250D01*
X500565D01*
Y310469D01*
D02*
G37*
G36*
X338665Y310307D02*
X336880D01*
Y307990D01*
X338665D01*
Y310307D01*
D02*
G37*
G36*
X336380D02*
X334594D01*
Y307990D01*
X336380D01*
Y310307D01*
D02*
G37*
G36*
X503087Y307750D02*
X501065D01*
Y305532D01*
X503087D01*
Y307750D01*
D02*
G37*
G36*
X500565D02*
X498543D01*
Y305532D01*
X500565D01*
Y307750D01*
D02*
G37*
G36*
X338665Y307490D02*
X336880D01*
Y305173D01*
X338665D01*
Y307490D01*
D02*
G37*
G36*
X336380D02*
X334594D01*
Y305173D01*
X336380D01*
Y307490D01*
D02*
G37*
G36*
X423957Y306469D02*
X421935D01*
Y304250D01*
X423957D01*
Y306469D01*
D02*
G37*
G36*
X421435D02*
X419413D01*
Y304250D01*
X421435D01*
Y306469D01*
D02*
G37*
G36*
X476813Y306575D02*
X476187D01*
X475608Y306335D01*
X475165Y305892D01*
X474925Y305313D01*
Y304687D01*
X475165Y304108D01*
X475608Y303665D01*
X476187Y303425D01*
X476813D01*
X477282Y303620D01*
X477571Y303562D01*
X480482D01*
Y303236D01*
X487289D01*
Y306045D01*
X483886D01*
X480482D01*
Y305092D01*
X478075D01*
Y305313D01*
X477835Y305892D01*
X477392Y306335D01*
X476813Y306575D01*
D02*
G37*
G36*
X423957Y303750D02*
X421935D01*
Y301532D01*
X423957D01*
Y303750D01*
D02*
G37*
G36*
X421435D02*
X419413D01*
Y301532D01*
X421435D01*
Y303750D01*
D02*
G37*
G36*
X545484Y303744D02*
X541691D01*
Y301132D01*
X545484D01*
Y303744D01*
D02*
G37*
G36*
X541191D02*
X537398D01*
Y301132D01*
X541191D01*
Y303744D01*
D02*
G37*
G36*
X545484Y300632D02*
X541691D01*
Y298020D01*
X545484D01*
Y300632D01*
D02*
G37*
G36*
X541191D02*
X537398D01*
Y298020D01*
X541191D01*
Y300632D01*
D02*
G37*
G36*
X423957Y299969D02*
X421935D01*
Y297750D01*
X423957D01*
Y299969D01*
D02*
G37*
G36*
X421435D02*
X419413D01*
Y297750D01*
X421435D01*
Y299969D01*
D02*
G37*
G36*
X388665Y297709D02*
X386250D01*
Y296081D01*
X388665D01*
Y297709D01*
D02*
G37*
G36*
X385750D02*
X383335D01*
Y296081D01*
X385750D01*
Y297709D01*
D02*
G37*
G36*
X423957Y297250D02*
X421935D01*
Y295031D01*
X423957D01*
Y297250D01*
D02*
G37*
G36*
X421435D02*
X419413D01*
Y295031D01*
X421435D01*
Y297250D01*
D02*
G37*
G36*
X388665Y295581D02*
X386250D01*
Y293953D01*
X388665D01*
Y295581D01*
D02*
G37*
G36*
X385750D02*
X383335D01*
Y293953D01*
X385750D01*
Y295581D01*
D02*
G37*
G36*
X518469Y286929D02*
X516250D01*
Y284908D01*
X518469D01*
Y286929D01*
D02*
G37*
G36*
X515750D02*
X513531D01*
Y284908D01*
X515750D01*
Y286929D01*
D02*
G37*
G36*
X348705Y284480D02*
X341900D01*
Y282852D01*
X348705D01*
Y284480D01*
D02*
G37*
G36*
X341400D02*
X334594D01*
Y282852D01*
X341400D01*
Y284480D01*
D02*
G37*
G36*
X518469Y284407D02*
X516250D01*
Y282386D01*
X518469D01*
Y284407D01*
D02*
G37*
G36*
X515750D02*
X513531D01*
Y282386D01*
X515750D01*
Y284407D01*
D02*
G37*
G36*
X404955Y284453D02*
X404750D01*
Y281250D01*
X407953D01*
Y281455D01*
X407718Y282333D01*
X407263Y283120D01*
X406620Y283763D01*
X405833Y284218D01*
X404955Y284453D01*
D02*
G37*
G36*
X404250D02*
X404045D01*
X403167Y284218D01*
X402380Y283763D01*
X401737Y283120D01*
X401283Y282333D01*
X401047Y281455D01*
Y281250D01*
X404250D01*
Y284453D01*
D02*
G37*
G36*
X390043Y282667D02*
X384281D01*
Y280724D01*
X390043D01*
Y282667D01*
D02*
G37*
G36*
X383782D02*
X378020D01*
Y280724D01*
X383782D01*
Y282667D01*
D02*
G37*
G36*
X348705Y282352D02*
X341900D01*
Y280724D01*
X348705D01*
Y282352D01*
D02*
G37*
G36*
X341400D02*
X334594D01*
Y280724D01*
X341400D01*
Y282352D01*
D02*
G37*
G36*
X539624Y284918D02*
Y279750D01*
X542857D01*
Y281469D01*
X542738Y282370D01*
X542390Y283210D01*
X541837Y283931D01*
X541115Y284485D01*
X540275Y284832D01*
X539624Y284918D01*
D02*
G37*
G36*
X539124D02*
X538473Y284832D01*
X537633Y284485D01*
X536911Y283931D01*
X536358Y283210D01*
X536010Y282370D01*
X535891Y281469D01*
Y279750D01*
X539124D01*
Y284918D01*
D02*
G37*
G36*
X473772Y281563D02*
X471750D01*
Y279738D01*
X473772D01*
Y281563D01*
D02*
G37*
G36*
X471250D02*
X469228D01*
Y279738D01*
X471250D01*
Y281563D01*
D02*
G37*
G36*
X465750Y281457D02*
Y279435D01*
X467969D01*
Y281457D01*
X465750D01*
D02*
G37*
G36*
X427953Y284453D02*
X421047D01*
Y277547D01*
X427953D01*
Y284453D01*
D02*
G37*
G36*
X414955D02*
X414045D01*
X413167Y284218D01*
X412380Y283763D01*
X411737Y283120D01*
X411282Y282333D01*
X411047Y281455D01*
Y280545D01*
X411282Y279667D01*
X411737Y278880D01*
X412380Y278237D01*
X413167Y277783D01*
X414045Y277547D01*
X414955D01*
X415833Y277783D01*
X416620Y278237D01*
X417263Y278880D01*
X417718Y279667D01*
X417953Y280545D01*
Y281455D01*
X417718Y282333D01*
X417263Y283120D01*
X416620Y283763D01*
X415833Y284218D01*
X414955Y284453D01*
D02*
G37*
G36*
X407953Y280750D02*
X404750D01*
Y277547D01*
X404955D01*
X405833Y277783D01*
X406620Y278237D01*
X407263Y278880D01*
X407718Y279667D01*
X407953Y280545D01*
Y280750D01*
D02*
G37*
G36*
X404250D02*
X401047D01*
Y280545D01*
X401283Y279667D01*
X401737Y278880D01*
X402380Y278237D01*
X403167Y277783D01*
X404045Y277547D01*
X404250D01*
Y280750D01*
D02*
G37*
G36*
X473772Y279238D02*
X471750D01*
Y277413D01*
X473772D01*
Y279238D01*
D02*
G37*
G36*
X471250D02*
X469228D01*
Y277413D01*
X471250D01*
Y279238D01*
D02*
G37*
G36*
X467969Y278935D02*
X465750D01*
Y276913D01*
X467969D01*
Y278935D01*
D02*
G37*
G36*
X542857Y279250D02*
X539624D01*
Y274082D01*
X540275Y274168D01*
X541115Y274516D01*
X541837Y275069D01*
X542390Y275790D01*
X542738Y276630D01*
X542857Y277532D01*
Y279250D01*
D02*
G37*
G36*
X539124D02*
X535891D01*
Y277532D01*
X536010Y276630D01*
X536358Y275790D01*
X536911Y275069D01*
X537633Y274516D01*
X538473Y274168D01*
X539124Y274082D01*
Y279250D01*
D02*
G37*
G36*
X531500Y284951D02*
X530599Y284832D01*
X529759Y284485D01*
X529038Y283931D01*
X528484Y283210D01*
X528136Y282370D01*
X528018Y281469D01*
Y277532D01*
X528136Y276630D01*
X528484Y275790D01*
X529038Y275069D01*
X529759Y274516D01*
X530599Y274168D01*
X531500Y274049D01*
X532401Y274168D01*
X533241Y274516D01*
X533962Y275069D01*
X534516Y275790D01*
X534864Y276630D01*
X534982Y277532D01*
Y281469D01*
X534864Y282370D01*
X534516Y283210D01*
X533962Y283931D01*
X533241Y284485D01*
X532401Y284832D01*
X531500Y284951D01*
D02*
G37*
G36*
X474457Y275468D02*
X472435D01*
Y273250D01*
X474457D01*
Y275468D01*
D02*
G37*
G36*
X471935D02*
X469913D01*
Y273250D01*
X471935D01*
Y275468D01*
D02*
G37*
G36*
X474457Y272750D02*
X472435D01*
Y270532D01*
X474457D01*
Y272750D01*
D02*
G37*
G36*
X471935D02*
X469913D01*
Y270532D01*
X471935D01*
Y272750D01*
D02*
G37*
G36*
X474457Y268969D02*
X472435D01*
Y266750D01*
X474457D01*
Y268969D01*
D02*
G37*
G36*
X471935D02*
X469913D01*
Y266750D01*
X471935D01*
Y268969D01*
D02*
G37*
G36*
X412955Y271953D02*
X412045D01*
X411167Y271718D01*
X410380Y271263D01*
X409737Y270620D01*
X409282Y269833D01*
X409047Y268955D01*
Y268045D01*
X409282Y267167D01*
X409737Y266380D01*
X410380Y265737D01*
X411167Y265283D01*
X412045Y265047D01*
X412955D01*
X413833Y265283D01*
X414620Y265737D01*
X415263Y266380D01*
X415718Y267167D01*
X415953Y268045D01*
Y268955D01*
X415718Y269833D01*
X415263Y270620D01*
X414620Y271263D01*
X413833Y271718D01*
X412955Y271953D01*
D02*
G37*
G36*
X402955D02*
X402045D01*
X401167Y271718D01*
X400380Y271263D01*
X399737Y270620D01*
X399283Y269833D01*
X399047Y268955D01*
Y268045D01*
X399283Y267167D01*
X399737Y266380D01*
X400380Y265737D01*
X401167Y265283D01*
X402045Y265047D01*
X402955D01*
X403833Y265283D01*
X404620Y265737D01*
X405263Y266380D01*
X405718Y267167D01*
X405953Y268045D01*
Y268955D01*
X405718Y269833D01*
X405263Y270620D01*
X404620Y271263D01*
X403833Y271718D01*
X402955Y271953D01*
D02*
G37*
G36*
X395953D02*
X389047D01*
Y265047D01*
X395953D01*
Y271953D01*
D02*
G37*
G36*
X474457Y266250D02*
X472435D01*
Y264032D01*
X474457D01*
Y266250D01*
D02*
G37*
G36*
X471935D02*
X469913D01*
Y264032D01*
X471935D01*
Y266250D01*
D02*
G37*
G36*
X511370Y263673D02*
X506630D01*
Y262520D01*
X503137D01*
X502831Y262825D01*
X502253Y263065D01*
X501626D01*
X501047Y262825D01*
X500604Y262382D01*
X500365Y261803D01*
Y261177D01*
X500604Y260598D01*
X501047Y260155D01*
X501626Y259915D01*
X502253D01*
X502831Y260155D01*
X503157Y260480D01*
X506630D01*
Y259327D01*
X511370D01*
Y263673D01*
D02*
G37*
G36*
X518469Y263772D02*
X516250D01*
Y261750D01*
X518469D01*
Y263772D01*
D02*
G37*
G36*
X515750D02*
X513531D01*
Y261750D01*
X515750D01*
Y263772D01*
D02*
G37*
G36*
X518469Y261250D02*
X516250D01*
Y259228D01*
X518469D01*
Y261250D01*
D02*
G37*
G36*
X515750D02*
X513531D01*
Y259228D01*
X515750D01*
Y261250D01*
D02*
G37*
G36*
X539687Y261918D02*
Y256750D01*
X542919D01*
Y258469D01*
X542801Y259370D01*
X542453Y260210D01*
X541899Y260931D01*
X541178Y261485D01*
X540338Y261832D01*
X539687Y261918D01*
D02*
G37*
G36*
X539187D02*
X538536Y261832D01*
X537696Y261485D01*
X536974Y260931D01*
X536421Y260210D01*
X536073Y259370D01*
X535955Y258469D01*
Y256750D01*
X539187D01*
Y261918D01*
D02*
G37*
G36*
X431563Y255772D02*
X429738D01*
Y253750D01*
X431563D01*
Y255772D01*
D02*
G37*
G36*
X429238D02*
X427413D01*
Y253750D01*
X429238D01*
Y255772D01*
D02*
G37*
G36*
X459831Y255772D02*
X458006D01*
Y253750D01*
X459831D01*
Y255772D01*
D02*
G37*
G36*
X442819Y255772D02*
X440994D01*
Y253750D01*
X442819D01*
Y255772D01*
D02*
G37*
G36*
X440494D02*
X438669D01*
Y253750D01*
X440494D01*
Y255772D01*
D02*
G37*
G36*
X457506Y255772D02*
X455681D01*
Y253750D01*
X457506D01*
Y255772D01*
D02*
G37*
G36*
X459831Y253250D02*
X458006D01*
Y251228D01*
X459831D01*
Y253250D01*
D02*
G37*
G36*
X457506D02*
X455681D01*
Y251228D01*
X457506D01*
Y253250D01*
D02*
G37*
G36*
X431563Y253250D02*
X429738D01*
Y251228D01*
X431563D01*
Y253250D01*
D02*
G37*
G36*
X429238D02*
X427413D01*
Y251228D01*
X429238D01*
Y253250D01*
D02*
G37*
G36*
X442819Y253250D02*
X440994D01*
Y251228D01*
X442819D01*
Y253250D01*
D02*
G37*
G36*
X440494D02*
X438669D01*
Y251228D01*
X440494D01*
Y253250D01*
D02*
G37*
G36*
X542919Y256250D02*
X539687D01*
Y251082D01*
X540338Y251168D01*
X541178Y251516D01*
X541899Y252069D01*
X542453Y252790D01*
X542801Y253630D01*
X542919Y254532D01*
Y256250D01*
D02*
G37*
G36*
X539187D02*
X535955D01*
Y254532D01*
X536073Y253630D01*
X536421Y252790D01*
X536974Y252069D01*
X537696Y251516D01*
X538536Y251168D01*
X539187Y251082D01*
Y256250D01*
D02*
G37*
G36*
X531563Y261951D02*
X530662Y261832D01*
X529822Y261485D01*
X529101Y260931D01*
X528547Y260210D01*
X528199Y259370D01*
X528081Y258469D01*
Y254532D01*
X528199Y253630D01*
X528547Y252790D01*
X529101Y252069D01*
X529822Y251516D01*
X530662Y251168D01*
X531563Y251049D01*
X532464Y251168D01*
X533304Y251516D01*
X534025Y252069D01*
X534579Y252790D01*
X534927Y253630D01*
X535045Y254532D01*
Y258469D01*
X534927Y259370D01*
X534579Y260210D01*
X534025Y260931D01*
X533304Y261485D01*
X532464Y261832D01*
X531563Y261951D01*
D02*
G37*
G36*
X448331Y255772D02*
X444181D01*
Y251228D01*
X445236D01*
Y249728D01*
X445314Y249338D01*
X445535Y249007D01*
X445856Y248686D01*
X445832Y248629D01*
Y248002D01*
X446072Y247423D01*
X446515Y246980D01*
X447093Y246741D01*
X447720D01*
X448299Y246980D01*
X448742Y247423D01*
X448982Y248002D01*
Y248629D01*
X448742Y249207D01*
X448299Y249650D01*
X447720Y249890D01*
X447536D01*
X447275Y250151D01*
Y251228D01*
X448331D01*
Y255772D01*
D02*
G37*
G36*
X511370Y240732D02*
X506630D01*
Y239579D01*
X503149D01*
X502792Y239935D01*
X502213Y240175D01*
X501587D01*
X501008Y239935D01*
X500565Y239492D01*
X500325Y238913D01*
Y238287D01*
X500565Y237708D01*
X501008Y237265D01*
X501587Y237025D01*
X502213D01*
X502792Y237265D01*
X503067Y237540D01*
X506630D01*
Y236386D01*
X511370D01*
Y240732D01*
D02*
G37*
G36*
X518469Y241087D02*
X516250D01*
Y239065D01*
X518469D01*
Y241087D01*
D02*
G37*
G36*
X515750D02*
X513531D01*
Y239065D01*
X515750D01*
Y241087D01*
D02*
G37*
G36*
X464750Y243918D02*
Y238750D01*
X467982D01*
Y240469D01*
X467864Y241370D01*
X467516Y242210D01*
X466962Y242931D01*
X466241Y243484D01*
X465401Y243832D01*
X464750Y243918D01*
D02*
G37*
G36*
X464250D02*
X463599Y243832D01*
X462759Y243484D01*
X462038Y242931D01*
X461484Y242210D01*
X461136Y241370D01*
X461018Y240469D01*
Y238750D01*
X464250D01*
Y243918D01*
D02*
G37*
G36*
X441128D02*
Y238750D01*
X444360D01*
Y240469D01*
X444242Y241370D01*
X443894Y242210D01*
X443340Y242931D01*
X442619Y243484D01*
X441779Y243832D01*
X441128Y243918D01*
D02*
G37*
G36*
X440628D02*
X439977Y243832D01*
X439137Y243484D01*
X438415Y242931D01*
X437862Y242210D01*
X437514Y241370D01*
X437395Y240469D01*
Y238750D01*
X440628D01*
Y243918D01*
D02*
G37*
G36*
X518469Y238565D02*
X516250D01*
Y236543D01*
X518469D01*
Y238565D01*
D02*
G37*
G36*
X515750D02*
X513531D01*
Y236543D01*
X515750D01*
Y238565D01*
D02*
G37*
G36*
X539624Y238918D02*
Y233750D01*
X542857D01*
Y235469D01*
X542738Y236370D01*
X542390Y237210D01*
X541837Y237931D01*
X541115Y238485D01*
X540275Y238832D01*
X539624Y238918D01*
D02*
G37*
G36*
X539124D02*
X538473Y238832D01*
X537633Y238485D01*
X536911Y237931D01*
X536358Y237210D01*
X536010Y236370D01*
X535891Y235469D01*
Y233750D01*
X539124D01*
Y238918D01*
D02*
G37*
G36*
X467982Y238250D02*
X464750D01*
Y233082D01*
X465401Y233168D01*
X466241Y233516D01*
X466962Y234069D01*
X467516Y234790D01*
X467864Y235630D01*
X467982Y236531D01*
Y238250D01*
D02*
G37*
G36*
X464250D02*
X461018D01*
Y236531D01*
X461136Y235630D01*
X461484Y234790D01*
X462038Y234069D01*
X462759Y233516D01*
X463599Y233168D01*
X464250Y233082D01*
Y238250D01*
D02*
G37*
G36*
X444360D02*
X441128D01*
Y233082D01*
X441779Y233168D01*
X442619Y233516D01*
X443340Y234069D01*
X443894Y234790D01*
X444242Y235630D01*
X444360Y236531D01*
Y238250D01*
D02*
G37*
G36*
X440628D02*
X437395D01*
Y236531D01*
X437514Y235630D01*
X437862Y234790D01*
X438415Y234069D01*
X439137Y233516D01*
X439977Y233168D01*
X440628Y233082D01*
Y238250D01*
D02*
G37*
G36*
X472374Y243951D02*
X471473Y243832D01*
X470633Y243484D01*
X469911Y242931D01*
X469358Y242210D01*
X469010Y241370D01*
X468891Y240469D01*
Y236531D01*
X469010Y235630D01*
X469358Y234790D01*
X469911Y234069D01*
X470633Y233516D01*
X471473Y233168D01*
X472374Y233049D01*
X473275Y233168D01*
X474115Y233516D01*
X474836Y234069D01*
X475390Y234790D01*
X475738Y235630D01*
X475857Y236531D01*
Y240469D01*
X475738Y241370D01*
X475390Y242210D01*
X474836Y242931D01*
X474115Y243484D01*
X473275Y243832D01*
X472374Y243951D01*
D02*
G37*
G36*
X456626D02*
X455725Y243832D01*
X454885Y243484D01*
X454164Y242931D01*
X453610Y242210D01*
X453262Y241370D01*
X453143Y240469D01*
Y236531D01*
X453262Y235630D01*
X453610Y234790D01*
X454164Y234069D01*
X454885Y233516D01*
X455725Y233168D01*
X456626Y233049D01*
X457527Y233168D01*
X458367Y233516D01*
X459089Y234069D01*
X459642Y234790D01*
X459990Y235630D01*
X460109Y236531D01*
Y240469D01*
X459990Y241370D01*
X459642Y242210D01*
X459089Y242931D01*
X458367Y243484D01*
X457527Y243832D01*
X456626Y243951D01*
D02*
G37*
G36*
X448752D02*
X447851Y243832D01*
X447011Y243484D01*
X446289Y242931D01*
X445736Y242210D01*
X445388Y241370D01*
X445269Y240469D01*
Y236531D01*
X445388Y235630D01*
X445736Y234790D01*
X446289Y234069D01*
X447011Y233516D01*
X447851Y233168D01*
X448752Y233049D01*
X449653Y233168D01*
X450493Y233516D01*
X451215Y234069D01*
X451768Y234790D01*
X452116Y235630D01*
X452235Y236531D01*
Y240469D01*
X452116Y241370D01*
X451768Y242210D01*
X451215Y242931D01*
X450493Y243484D01*
X449653Y243832D01*
X448752Y243951D01*
D02*
G37*
G36*
X542857Y233250D02*
X539624D01*
Y228082D01*
X540275Y228168D01*
X541115Y228516D01*
X541837Y229069D01*
X542390Y229790D01*
X542738Y230630D01*
X542857Y231532D01*
Y233250D01*
D02*
G37*
G36*
X539124D02*
X535891D01*
Y231532D01*
X536010Y230630D01*
X536358Y229790D01*
X536911Y229069D01*
X537633Y228516D01*
X538473Y228168D01*
X539124Y228082D01*
Y233250D01*
D02*
G37*
G36*
X531500Y238951D02*
X530599Y238832D01*
X529759Y238485D01*
X529038Y237931D01*
X528484Y237210D01*
X528136Y236370D01*
X528018Y235469D01*
Y231532D01*
X528136Y230630D01*
X528484Y229790D01*
X529038Y229069D01*
X529759Y228516D01*
X530599Y228168D01*
X531500Y228049D01*
X532401Y228168D01*
X533241Y228516D01*
X533962Y229069D01*
X534516Y229790D01*
X534864Y230630D01*
X534982Y231532D01*
Y235469D01*
X534864Y236370D01*
X534516Y237210D01*
X533962Y237931D01*
X533241Y238485D01*
X532401Y238832D01*
X531500Y238951D01*
D02*
G37*
G36*
X412813Y260075D02*
X412187D01*
X411608Y259835D01*
X411165Y259392D01*
X410925Y258813D01*
Y258187D01*
X411165Y257608D01*
X411608Y257165D01*
X411735Y257112D01*
Y228317D01*
X411158Y227739D01*
X410658Y227946D01*
Y230583D01*
X392650D01*
Y222417D01*
X410658D01*
Y225735D01*
X411000D01*
X411293Y225794D01*
X411541Y225959D01*
X413041Y227459D01*
X413206Y227707D01*
X413265Y228000D01*
Y257112D01*
X413392Y257165D01*
X413835Y257608D01*
X414075Y258187D01*
Y258813D01*
X413835Y259392D01*
X413392Y259835D01*
X412813Y260075D01*
D02*
G37*
G36*
X348610Y230681D02*
X341431D01*
Y226750D01*
X348610D01*
Y230681D01*
D02*
G37*
G36*
X340931D02*
X333752D01*
Y226750D01*
X340931D01*
Y230681D01*
D02*
G37*
G36*
X385363Y229256D02*
X384637D01*
X383936Y229068D01*
X383308Y228705D01*
X382795Y228192D01*
X382432Y227564D01*
X382244Y226863D01*
Y226137D01*
X382432Y225436D01*
X382795Y224808D01*
X383308Y224295D01*
X383936Y223932D01*
X384637Y223744D01*
X385363D01*
X386064Y223932D01*
X386692Y224295D01*
X387205Y224808D01*
X387568Y225436D01*
X387756Y226137D01*
Y226863D01*
X387568Y227564D01*
X387205Y228192D01*
X386692Y228705D01*
X386064Y229068D01*
X385363Y229256D01*
D02*
G37*
G36*
X356887Y229768D02*
X356027D01*
X355195Y229545D01*
X354450Y229115D01*
X353842Y228506D01*
X353412Y227761D01*
X353189Y226930D01*
Y226070D01*
X353412Y225239D01*
X353842Y224494D01*
X354450Y223885D01*
X355195Y223455D01*
X356027Y223232D01*
X356887D01*
X357718Y223455D01*
X358463Y223885D01*
X359071Y224494D01*
X359502Y225239D01*
X359724Y226070D01*
Y226930D01*
X359502Y227761D01*
X359071Y228506D01*
X358463Y229115D01*
X357718Y229545D01*
X356887Y229768D01*
D02*
G37*
G36*
X348610Y226250D02*
X341431D01*
Y222319D01*
X348610D01*
Y226250D01*
D02*
G37*
G36*
X340931D02*
X333752D01*
Y222319D01*
X340931D01*
Y226250D01*
D02*
G37*
G36*
X510150Y222976D02*
X506750D01*
Y217215D01*
X510150D01*
Y222976D01*
D02*
G37*
G36*
X506250D02*
X502850D01*
Y217215D01*
X506250D01*
Y222976D01*
D02*
G37*
G36*
X510150Y216715D02*
X506750D01*
Y210953D01*
X510150D01*
Y216715D01*
D02*
G37*
G36*
X506250D02*
X502850D01*
Y210953D01*
X506250D01*
Y216715D01*
D02*
G37*
G36*
X439250Y213922D02*
Y208750D01*
X442979D01*
Y209976D01*
X442843Y211006D01*
X442446Y211966D01*
X441814Y212790D01*
X440989Y213422D01*
X440030Y213820D01*
X439250Y213922D01*
D02*
G37*
G36*
X469750D02*
Y208750D01*
X473479D01*
Y209976D01*
X473343Y211006D01*
X472946Y211966D01*
X472313Y212790D01*
X471489Y213422D01*
X470530Y213820D01*
X469750Y213922D01*
D02*
G37*
G36*
X438750D02*
X437970Y213820D01*
X437010Y213422D01*
X436187Y212790D01*
X435554Y211966D01*
X435157Y211006D01*
X435021Y209976D01*
Y208750D01*
X438750D01*
Y213922D01*
D02*
G37*
G36*
X469250D02*
X468470Y213820D01*
X467511Y213422D01*
X466686Y212790D01*
X466054Y211966D01*
X465657Y211006D01*
X465521Y209976D01*
Y208750D01*
X469250D01*
Y213922D01*
D02*
G37*
G36*
X473479Y208250D02*
X469750D01*
Y203078D01*
X470530Y203180D01*
X471489Y203578D01*
X472313Y204210D01*
X472946Y205034D01*
X473343Y205994D01*
X473479Y207024D01*
Y208250D01*
D02*
G37*
G36*
X442979D02*
X439250D01*
Y203078D01*
X440030Y203180D01*
X440989Y203578D01*
X441814Y204210D01*
X442446Y205034D01*
X442843Y205994D01*
X442979Y207024D01*
Y208250D01*
D02*
G37*
G36*
X469250D02*
X465521D01*
Y207024D01*
X465657Y205994D01*
X466054Y205034D01*
X466686Y204210D01*
X467511Y203578D01*
X468470Y203180D01*
X469250Y203078D01*
Y208250D01*
D02*
G37*
G36*
X438750D02*
X435021D01*
Y207024D01*
X435157Y205994D01*
X435554Y205034D01*
X436187Y204210D01*
X437010Y203578D01*
X437970Y203180D01*
X438750Y203078D01*
Y208250D01*
D02*
G37*
G36*
X479500Y213955D02*
X478470Y213820D01*
X477510Y213422D01*
X476686Y212790D01*
X476054Y211966D01*
X475657Y211006D01*
X475521Y209976D01*
Y207024D01*
X475657Y205994D01*
X476054Y205034D01*
X476686Y204210D01*
X477510Y203578D01*
X478470Y203180D01*
X479500Y203045D01*
X480530Y203180D01*
X481490Y203578D01*
X482313Y204210D01*
X482946Y205034D01*
X483343Y205994D01*
X483479Y207024D01*
Y209976D01*
X483343Y211006D01*
X482946Y211966D01*
X482313Y212790D01*
X481490Y213422D01*
X480530Y213820D01*
X479500Y213955D01*
D02*
G37*
G36*
X449000D02*
X447970Y213820D01*
X447011Y213422D01*
X446186Y212790D01*
X445554Y211966D01*
X445157Y211006D01*
X445021Y209976D01*
Y207024D01*
X445157Y205994D01*
X445554Y205034D01*
X446186Y204210D01*
X447011Y203578D01*
X447970Y203180D01*
X449000Y203045D01*
X450030Y203180D01*
X450989Y203578D01*
X451814Y204210D01*
X452446Y205034D01*
X452843Y205994D01*
X452979Y207024D01*
Y209976D01*
X452843Y211006D01*
X452446Y211966D01*
X451814Y212790D01*
X450989Y213422D01*
X450030Y213820D01*
X449000Y213955D01*
D02*
G37*
%LPD*%
D15*
X417625Y373165D02*
D03*
X414980Y370520D02*
D03*
X412335Y367876D02*
D03*
X405375Y374835D02*
D03*
X408020Y377480D02*
D03*
X410665Y380124D02*
D03*
D16*
X418500Y382000D02*
D03*
X414603Y385897D02*
D03*
D17*
X493500Y336343D02*
D03*
Y341657D02*
D03*
X516000Y238815D02*
D03*
Y233500D02*
D03*
Y261500D02*
D03*
Y256185D02*
D03*
Y284658D02*
D03*
Y279343D02*
D03*
X465500Y279185D02*
D03*
Y284500D02*
D03*
X444400Y357157D02*
D03*
Y351842D02*
D03*
D18*
X531500Y306000D02*
D03*
Y309937D02*
D03*
Y313874D02*
D03*
D19*
X541441Y300882D02*
D03*
Y318992D02*
D03*
D20*
X446531Y296500D02*
D03*
X448500D02*
D03*
X450468D02*
D03*
X452437D02*
D03*
X454405Y296500D02*
D03*
X456374Y296500D02*
D03*
X458343D02*
D03*
X460311D02*
D03*
X462280D02*
D03*
X464248D02*
D03*
X466217D02*
D03*
X468185Y296500D02*
D03*
X470154Y296500D02*
D03*
X472122D02*
D03*
X474091D02*
D03*
X476059D02*
D03*
Y341681D02*
D03*
X474091D02*
D03*
X472122D02*
D03*
X470154D02*
D03*
X468185Y341681D02*
D03*
X466217Y341681D02*
D03*
X464248D02*
D03*
X462280D02*
D03*
X460311D02*
D03*
X458343D02*
D03*
X456374D02*
D03*
X454405Y341681D02*
D03*
X452437Y341681D02*
D03*
X450468D02*
D03*
X448500D02*
D03*
X446531D02*
D03*
D21*
X483886Y304327D02*
D03*
Y306295D02*
D03*
Y308264D02*
D03*
Y310232D02*
D03*
X483886Y312201D02*
D03*
X483886Y314169D02*
D03*
Y316138D02*
D03*
Y318106D02*
D03*
Y320075D02*
D03*
Y322043D02*
D03*
Y324012D02*
D03*
X483886Y325980D02*
D03*
X483886Y327949D02*
D03*
Y329917D02*
D03*
Y331886D02*
D03*
Y333854D02*
D03*
X438705D02*
D03*
Y331886D02*
D03*
Y329917D02*
D03*
Y327949D02*
D03*
X438705Y325980D02*
D03*
X438705Y324012D02*
D03*
Y322043D02*
D03*
Y320075D02*
D03*
Y318106D02*
D03*
Y316138D02*
D03*
Y314169D02*
D03*
X438705Y312201D02*
D03*
X438705Y310232D02*
D03*
Y308264D02*
D03*
Y306295D02*
D03*
Y304327D02*
D03*
D22*
X430756Y401500D02*
D03*
X425244D02*
D03*
X430756Y407000D02*
D03*
X425244D02*
D03*
X478244Y392000D02*
D03*
X483756D02*
D03*
X448488Y392000D02*
D03*
X454000D02*
D03*
X446256Y253500D02*
D03*
X440744D02*
D03*
X406756Y290000D02*
D03*
X401244D02*
D03*
X406756Y295500D02*
D03*
X401244D02*
D03*
X452244Y253500D02*
D03*
X457756D02*
D03*
X435000Y253500D02*
D03*
X429488D02*
D03*
D23*
X395500Y409256D02*
D03*
Y403744D02*
D03*
X401500Y403744D02*
D03*
Y409256D02*
D03*
X478000Y401244D02*
D03*
Y406756D02*
D03*
X448000Y401488D02*
D03*
Y407000D02*
D03*
X493500Y406756D02*
D03*
Y401244D02*
D03*
X463500Y406756D02*
D03*
Y401244D02*
D03*
X471500Y279488D02*
D03*
Y285000D02*
D03*
D24*
X416937Y407000D02*
D03*
X409063Y403260D02*
D03*
Y410740D02*
D03*
D25*
X458500Y279441D02*
D03*
Y284559D02*
D03*
X509000Y279500D02*
D03*
Y284618D02*
D03*
Y233441D02*
D03*
Y238559D02*
D03*
Y256382D02*
D03*
Y261500D02*
D03*
D26*
X455500Y408268D02*
D03*
Y400000D02*
D03*
X485500Y408134D02*
D03*
Y399866D02*
D03*
D27*
X506500Y200035D02*
D03*
Y216965D02*
D03*
D28*
X520000Y375189D02*
D03*
Y377157D02*
D03*
Y379126D02*
D03*
Y381095D02*
D03*
Y383063D02*
D03*
Y385032D02*
D03*
Y387000D02*
D03*
Y388968D02*
D03*
Y390937D02*
D03*
Y392905D02*
D03*
Y394874D02*
D03*
Y396843D02*
D03*
Y398811D02*
D03*
Y400779D02*
D03*
Y402748D02*
D03*
Y404716D02*
D03*
Y406685D02*
D03*
Y408653D02*
D03*
Y410622D02*
D03*
Y412591D02*
D03*
Y414559D02*
D03*
Y416528D02*
D03*
Y418496D02*
D03*
Y420465D02*
D03*
Y422433D02*
D03*
Y424402D02*
D03*
D29*
X532795Y367709D02*
D03*
Y431882D02*
D03*
D30*
X449874Y266500D02*
D03*
X434126D02*
D03*
D31*
X386000Y317484D02*
D03*
Y313154D02*
D03*
Y308823D02*
D03*
Y304492D02*
D03*
Y300161D02*
D03*
Y295831D02*
D03*
Y291500D02*
D03*
Y287169D02*
D03*
D32*
X385941Y332760D02*
D03*
D33*
X384032Y282917D02*
D03*
D34*
X341650Y282602D02*
D03*
Y333626D02*
D03*
D35*
X336925Y324532D02*
D03*
D36*
X336630Y307740D02*
D03*
D37*
X401653Y226500D02*
D03*
D38*
X341181D02*
D03*
D39*
X421685Y297500D02*
D03*
X427000D02*
D03*
X421685Y304000D02*
D03*
X427000D02*
D03*
X500815Y308000D02*
D03*
X495500D02*
D03*
X472185Y273000D02*
D03*
X477500D02*
D03*
X472185Y266500D02*
D03*
X477500D02*
D03*
D40*
X485500Y259555D02*
D03*
Y266445D02*
D03*
D79*
X446256Y249728D02*
X447407Y248577D01*
Y248315D02*
Y248577D01*
X446256Y249728D02*
Y253500D01*
X479800Y351000D02*
X483886Y346914D01*
Y333854D02*
Y346914D01*
X474556Y396744D02*
X477800D01*
X474400Y396900D02*
X474556Y396744D01*
X477800D02*
Y401044D01*
Y392444D02*
Y396744D01*
Y392444D02*
X478244Y392000D01*
X477800Y401044D02*
X478000Y401244D01*
X487554Y333854D02*
X490042Y336343D01*
X493500D01*
X483886Y333854D02*
X487554D01*
X495747Y284618D02*
X509000D01*
X495500Y284865D02*
X495747Y284618D01*
X495300Y284800D02*
X495500Y285000D01*
Y284865D02*
Y285000D01*
X458500Y275900D02*
Y279441D01*
Y264200D02*
Y275900D01*
X458300Y276100D02*
X458500Y275900D01*
X452300Y276100D02*
X458300D01*
X381946Y304446D02*
X385954D01*
X386000Y304492D01*
X381900Y304400D02*
X381946Y304446D01*
X406756Y290000D02*
X424525D01*
X425400D02*
X427000Y291600D01*
X406756Y290000D02*
Y295500D01*
X427000Y291600D02*
Y304000D01*
X427327Y304327D02*
X438705D01*
X427000Y304000D02*
X427327Y304327D01*
X485500Y234200D02*
Y259555D01*
X458500Y264200D02*
X463145Y259555D01*
X485500D01*
X477500Y266500D02*
Y273000D01*
Y266500D02*
X477555Y266445D01*
X485500D01*
X501939Y261490D02*
X501949Y261500D01*
X509000D01*
X501900Y238600D02*
X501941Y238559D01*
X509000D01*
X485500Y234200D02*
X492700Y227000D01*
Y202700D02*
Y227000D01*
X496600Y202700D02*
X499265Y200035D01*
X492700Y202700D02*
X496600D01*
X499265Y200035D02*
X506500D01*
D80*
X439500Y341700D02*
X446513D01*
X446531Y341681D01*
X440118Y351842D02*
X444400D01*
X436900Y355060D02*
X440118Y351842D01*
X436900Y355060D02*
Y392000D01*
X442500D01*
X431300D02*
X436900D01*
X422528Y425274D02*
Y452562D01*
Y425274D02*
X436900Y410902D01*
Y392000D02*
Y410902D01*
X425244Y398056D02*
Y401500D01*
Y398056D02*
X431300Y392000D01*
X442500D02*
X448488D01*
X442500D02*
Y400300D01*
X443688Y401488D01*
X448000D01*
X444400Y348300D02*
Y351842D01*
Y348300D02*
X446531Y346168D01*
Y341681D02*
Y346168D01*
X495236Y284864D02*
X495300Y284800D01*
X495236Y284864D02*
Y308264D01*
X495500Y308000D01*
X477500Y273000D02*
Y282800D01*
X475300Y285000D02*
X477500Y282800D01*
X471500Y285000D02*
X475300D01*
X470154Y288846D02*
X471500Y287500D01*
X470154Y288846D02*
Y290846D01*
X471500Y285000D02*
Y287500D01*
X468847Y290846D02*
X470154D01*
Y296500D01*
X465500Y287500D02*
X468847Y290846D01*
X465500Y284500D02*
Y287500D01*
X484633Y308354D02*
X484724Y308264D01*
X495236D01*
X484542D02*
X484633Y308354D01*
X483886Y308264D02*
X484542D01*
D81*
X485500Y439310D02*
X488978Y442788D01*
X485500Y408134D02*
Y439310D01*
X476059Y291941D02*
X493500Y274500D01*
X509000D01*
X449874Y266500D02*
Y283874D01*
X456374Y290374D01*
X449874Y258126D02*
Y266500D01*
X411500Y274000D02*
X431081D01*
X414500Y299300D02*
Y304000D01*
X422701Y312201D01*
X462000Y267400D02*
X462100Y267300D01*
X462000Y267400D02*
Y287000D01*
X454405Y291905D02*
Y296500D01*
X431081Y274000D02*
X446531Y289451D01*
X434126Y271626D02*
X454405Y291905D01*
X512200Y422400D02*
X512233Y422433D01*
X520000D01*
X438710Y320070D02*
X445319D01*
X445324Y320064D01*
X438705Y320075D02*
X438710Y320070D01*
X519732Y420432D02*
X519900Y420600D01*
X438708Y318103D02*
X447397D01*
X447400Y318100D01*
X438705Y318106D02*
X438708Y318103D01*
X438739Y314135D02*
X447465D01*
X438771Y310166D02*
X447034D01*
X447100Y310100D01*
X447465Y314135D02*
X447500Y314100D01*
X514232Y420432D02*
X519732D01*
X514200Y420400D02*
X514232Y420432D01*
X520000Y420465D02*
Y420500D01*
X519900Y420600D02*
X520000Y420500D01*
X511702Y418498D02*
X519998D01*
X511700Y418500D02*
X511702Y418498D01*
X489000Y387000D02*
X520000D01*
X456374Y356374D02*
X485032Y385032D01*
X520000D01*
X438705Y316138D02*
X438724Y316119D01*
X445181D01*
X445200Y316100D01*
X519998Y418498D02*
X520000Y418496D01*
X438705Y314169D02*
X438739Y314135D01*
X511130Y414530D02*
X519971D01*
X511100Y414500D02*
X511130Y414530D01*
X513700Y416500D02*
X513714Y416514D01*
X519986D02*
X520000Y416528D01*
X513714Y416514D02*
X519986D01*
X438705Y312200D02*
X445300D01*
X445300Y312200D01*
X438705Y312201D02*
X438705Y312200D01*
X519971Y414530D02*
X520000Y414559D01*
X471300Y402700D02*
X475356Y406756D01*
X471300Y377300D02*
Y402700D01*
X476029Y341711D02*
X476059Y341681D01*
X476000Y348500D02*
X476029Y348470D01*
Y341711D02*
Y348470D01*
X475356Y406756D02*
X478000D01*
X470154Y341681D02*
Y364154D01*
X484563Y383063D02*
X520000D01*
X509591Y412591D02*
X520000D01*
X470154Y364154D02*
X486500Y380500D01*
X458500Y361500D02*
X509591Y412591D01*
X460311Y358811D02*
X484563Y383063D01*
X456374Y341681D02*
Y356374D01*
X460311Y341681D02*
Y358811D01*
X455800Y364200D02*
X459800Y368200D01*
Y402800D01*
X438705Y331886D02*
X438712Y331893D01*
X446993D01*
X447000Y331900D01*
X458200Y404400D02*
X459800Y402800D01*
X456100Y404400D02*
X458200D01*
X455500Y405000D02*
X456100Y404400D01*
X455500Y405000D02*
Y408268D01*
X474091Y341681D02*
Y349391D01*
X479900Y355200D01*
X477100Y362300D02*
X480000Y365200D01*
X472122Y341681D02*
Y353022D01*
X477100Y358000D01*
Y362300D01*
X448500Y304181D02*
X452602Y308283D01*
X448500Y296500D02*
Y304181D01*
X450468Y303571D02*
X452197Y305300D01*
X450468Y296500D02*
Y303571D01*
X452197Y305300D02*
X452200D01*
X452437Y296500D02*
Y302956D01*
X455240Y305760D01*
X438705Y310232D02*
X438771Y310166D01*
X510923Y408677D02*
X519977D01*
X510900Y408700D02*
X510923Y408677D01*
X519977D02*
X520000Y408653D01*
X511000Y404700D02*
X511008Y404708D01*
X519992D01*
X520000Y404716D01*
X513400Y406700D02*
X513408Y406693D01*
X519992D02*
X520000Y406685D01*
X513408Y406693D02*
X519992D01*
X510500Y400650D02*
X510565Y400715D01*
X510579Y396921D02*
X519921D01*
X510500Y397000D02*
X510579Y396921D01*
X510565Y400715D02*
X519935D01*
X519896Y402644D02*
X520000Y402748D01*
X513104Y402644D02*
X519896D01*
X513000Y402539D02*
X513104Y402644D01*
X460334Y296523D02*
Y304629D01*
X460311Y296500D02*
X460334Y296523D01*
Y304629D02*
X460358Y304653D01*
X519935Y400715D02*
X520000Y400779D01*
X513032Y398779D02*
X519968D01*
X513000Y398746D02*
X513032Y398779D01*
X462280Y296500D02*
Y302221D01*
X464248Y296500D02*
Y304748D01*
X464374Y304874D01*
X455500Y302500D02*
X457000D01*
X458343Y301157D01*
X519968Y398779D02*
X520000Y398811D01*
X510047Y392953D02*
X519953D01*
X510000Y393000D02*
X510047Y392953D01*
X519953D02*
X520000Y392905D01*
X519921Y396921D02*
X520000Y396843D01*
X513000Y395000D02*
X513063Y394937D01*
X519937D01*
X477771Y311500D02*
X479038Y310232D01*
X477500Y311500D02*
X477771D01*
X479038Y310232D02*
X483886D01*
X477571Y304327D02*
X483886D01*
X476897Y305000D02*
X477571Y304327D01*
X476500Y305000D02*
X476897D01*
X483896Y325990D02*
X491490D01*
X483886Y325980D02*
X483896Y325990D01*
X491490D02*
X491500Y326000D01*
X499449Y327949D02*
X510500Y339000D01*
X483886Y327949D02*
X499449D01*
X505512Y324012D02*
X511500Y330000D01*
X483886Y324012D02*
X505512D01*
X519937Y394937D02*
X520000Y394874D01*
X512532Y390968D02*
X519969D01*
X512500Y391000D02*
X512532Y390968D01*
X519969D02*
X520000Y390937D01*
X458414Y341753D02*
Y354928D01*
X458486Y355000D01*
X458343Y341681D02*
X458414Y341753D01*
X468185Y341681D02*
X468192Y341689D01*
Y350693D01*
X468200Y350700D01*
X466217Y341681D02*
Y353283D01*
X455500Y396000D02*
Y400000D01*
X454000Y394500D02*
X455500Y396000D01*
X454000Y392000D02*
Y394500D01*
X483756Y394256D02*
X485500Y396000D01*
Y399866D01*
X483756Y392000D02*
Y394256D01*
X438705Y308264D02*
X442236D01*
X443000Y307500D01*
Y288500D02*
Y307500D01*
X446531Y289451D02*
Y296500D01*
X462000Y287000D02*
X466217Y291217D01*
Y296500D01*
X422701Y312201D02*
X438705D01*
X401653Y226500D02*
X411000D01*
X412500Y228000D02*
Y258500D01*
X411000Y226500D02*
X412500Y228000D01*
X458343Y296500D02*
Y301157D01*
X412500Y322000D02*
X412522Y322022D01*
X438683D02*
X438705Y322043D01*
X412522Y322022D02*
X438683D01*
X409512Y324012D02*
X438705D01*
X397500Y312000D02*
X409512Y324012D01*
X398325Y335825D02*
X462825D01*
X380000Y317500D02*
X398325Y335825D01*
X462825D02*
X464248Y337248D01*
X460825Y336825D02*
X462280Y338280D01*
X379000Y318000D02*
X397825Y336825D01*
X399646Y333854D02*
X438705D01*
X399500Y334000D02*
X399646Y333854D01*
X397825Y336825D02*
X460825D01*
X449500Y347603D02*
Y348000D01*
Y347603D02*
X450468Y346634D01*
Y341681D02*
Y346634D01*
X416000Y379500D02*
X418500Y382000D01*
X412000Y375500D02*
X416000Y379500D01*
X415500D02*
X416000D01*
X395500Y399500D02*
X415500Y379500D01*
X395500Y399500D02*
Y403744D01*
X395500Y403744D01*
X430756Y401500D02*
Y407000D01*
X416937Y407000D02*
X425244D01*
X425244Y407000D01*
X405240Y410740D02*
X409063D01*
X403756Y409256D02*
X405240Y410740D01*
X401500Y409256D02*
X403756D01*
X395500Y409256D02*
X395500Y409256D01*
X401500D01*
X455500Y439500D02*
X459000Y443000D01*
X455500Y408268D02*
Y439500D01*
Y408268D02*
X459732D01*
X461244Y406756D01*
X463500D01*
X450500Y407000D02*
X451768Y408268D01*
X455500D01*
X448000Y407000D02*
X450500D01*
X485500Y408134D02*
X489866D01*
X491244Y406756D01*
X493500D01*
X480256Y406756D02*
X481634Y408134D01*
X485500D01*
X478000Y406756D02*
X480256D01*
X510500Y339000D02*
Y372887D01*
X509500Y339500D02*
Y374000D01*
X483886Y329917D02*
X499917D01*
X509500Y339500D01*
X510500Y372887D02*
X516739Y379126D01*
X512500Y329500D02*
Y371500D01*
X511500Y330000D02*
Y371914D01*
X516691Y377105D01*
X505043Y322043D02*
X512500Y329500D01*
Y371500D02*
X516189Y375189D01*
X519500Y375000D02*
X519689Y375189D01*
X516189D02*
X519311D01*
X519689D02*
X520000D01*
X519311D02*
X519500Y375000D01*
X509500Y374000D02*
X516595Y381095D01*
X520000D01*
X516739Y379126D02*
X520000D01*
X483886Y322043D02*
X505043D01*
X483886Y318106D02*
X515606D01*
X483886Y320075D02*
X514575D01*
X515606Y318106D02*
X521500Y324000D01*
X514575Y320075D02*
X519500Y325000D01*
X483886Y316138D02*
X509362D01*
X511626Y313874D01*
X531500D01*
X519500Y325000D02*
Y334000D01*
X521500Y324000D02*
Y327500D01*
X516691Y377105D02*
X519948D01*
X520000Y377157D01*
X386000Y300161D02*
X391661D01*
X395029Y303529D02*
Y314436D01*
X391661Y300161D02*
X395029Y303529D01*
X392169Y287169D02*
X395000Y290000D01*
X401244D01*
X386000Y287169D02*
X392169D01*
X390500Y291500D02*
X394500Y295500D01*
X401244D01*
X386000Y291500D02*
X390500D01*
X462280Y338280D02*
Y341681D01*
X380000Y292500D02*
Y317500D01*
X379000Y290000D02*
Y318000D01*
X380000Y292500D02*
X381000Y291500D01*
X386000D01*
X381831Y287169D02*
X386000D01*
X379000Y290000D02*
X381831Y287169D01*
X464248Y337248D02*
Y341681D01*
X404949Y327949D02*
X438705D01*
X402417Y329917D02*
X438705D01*
X397500Y309000D02*
Y312000D01*
X395029Y314436D02*
X406573Y325980D01*
X386177Y309000D02*
X392500D01*
X386000Y308823D02*
X386177Y309000D01*
X406573Y325980D02*
X438705D01*
X390000Y313000D02*
X404949Y327949D01*
X387000Y313500D02*
X387500Y313000D01*
X390000D01*
X386653Y313154D02*
X387000Y313500D01*
X386000Y313154D02*
X386653D01*
X389984Y317484D02*
X402417Y329917D01*
X386000Y317484D02*
X389984D01*
X418500Y382000D02*
Y382000D01*
X414980Y370520D02*
Y370520D01*
X412000Y373500D02*
X414980Y370520D01*
X412000Y373500D02*
Y375500D01*
X452130Y351012D02*
X454405Y348736D01*
X452000Y351012D02*
X452130D01*
X452481Y341725D02*
Y347921D01*
X452457Y347945D02*
X452481Y347921D01*
X452437Y341681D02*
X452481Y341725D01*
X454405Y341681D02*
Y348736D01*
X410500Y380000D02*
Y380500D01*
X410625Y380124D02*
X410665D01*
X410500Y380000D02*
X410625Y380124D01*
X412335Y367876D02*
X416000Y364211D01*
Y364000D02*
Y364211D01*
X401500Y378500D02*
X401500D01*
X405165Y374835D02*
X405375D01*
X401500Y378500D02*
X405165Y374835D01*
X417835Y373165D02*
X421500Y369500D01*
X417625Y373165D02*
X417835D01*
X421500Y369500D02*
X421500D01*
X407000Y384000D02*
Y384000D01*
Y384000D02*
X410500Y380500D01*
X434126Y257374D02*
Y266500D01*
Y257374D02*
X435000Y256500D01*
X434126Y266500D02*
Y271626D01*
X435000Y253500D02*
Y256500D01*
X452244Y253500D02*
Y255756D01*
X449874Y258126D02*
X452244Y255756D01*
X456374Y290374D02*
Y296500D01*
X458343Y284717D02*
X458500Y284559D01*
X458343Y284717D02*
Y296500D01*
X516000Y227000D02*
X520500D01*
X509000D02*
X516000D01*
Y233500D01*
X502500Y227000D02*
X509000D01*
Y233441D01*
X492000Y237500D02*
X502500Y227000D01*
X492000Y237500D02*
Y272000D01*
X493000Y259500D02*
X502000Y250500D01*
X493000Y259500D02*
Y273000D01*
X502000Y250500D02*
X509000D01*
X472122Y291878D02*
X492000Y272000D01*
X472122Y291878D02*
Y296500D01*
X474091Y291909D02*
X493000Y273000D01*
X516000Y250500D02*
X521000D01*
X509000D02*
X516000D01*
Y256185D01*
X509000Y250500D02*
Y256382D01*
X474091Y291909D02*
Y296500D01*
X476059Y291941D02*
Y296500D01*
X516000Y274500D02*
X522000D01*
X509000D02*
X516000D01*
Y279343D01*
X509000Y274500D02*
Y279500D01*
X519500Y334000D02*
X522500Y337000D01*
X521500Y327500D02*
X524000Y330000D01*
X483886Y312201D02*
X507299D01*
X513500Y306000D01*
X531500D01*
X483886Y314169D02*
X508331D01*
X512563Y309937D01*
X531500D01*
D82*
X489100Y370300D02*
D03*
D83*
Y360300D02*
D03*
X404500Y281000D02*
D03*
X414500D02*
D03*
X346000Y350000D02*
D03*
X356000D02*
D03*
X366000D02*
D03*
X376000D02*
D03*
X386000D02*
D03*
X402500Y268500D02*
D03*
X412500D02*
D03*
D84*
X424500Y281000D02*
D03*
X336000Y350000D02*
D03*
X392500Y268500D02*
D03*
D85*
X448752Y238500D02*
D03*
X456626D02*
D03*
X464500D02*
D03*
X440878D02*
D03*
X472374D02*
D03*
X539374Y279500D02*
D03*
X531500D02*
D03*
X539374Y233500D02*
D03*
X531500D02*
D03*
X539437Y256500D02*
D03*
X531563D02*
D03*
D86*
X372500Y369500D02*
D03*
Y421232D02*
D03*
D87*
X383169Y381587D02*
D03*
Y399303D02*
D03*
Y391429D02*
D03*
Y409146D02*
D03*
D88*
X498500Y433000D02*
D03*
Y452685D02*
D03*
Y442842D02*
D03*
X469000Y433000D02*
D03*
Y452685D02*
D03*
Y442842D02*
D03*
X409500Y433000D02*
D03*
Y452685D02*
D03*
Y442842D02*
D03*
X439500Y433157D02*
D03*
Y452843D02*
D03*
Y443000D02*
D03*
D89*
X536000Y344874D02*
D03*
Y337000D02*
D03*
D90*
X439000Y208500D02*
D03*
X449000D02*
D03*
X469500D02*
D03*
X479500D02*
D03*
D91*
X385000Y226500D02*
D03*
D92*
X356457D02*
D03*
D93*
X447407Y248315D02*
D03*
X479800Y351000D02*
D03*
X439500Y341700D02*
D03*
X474400Y396900D02*
D03*
X488978Y442788D02*
D03*
X422528Y452562D02*
D03*
X495300Y284800D02*
D03*
X452300Y276100D02*
D03*
X381900Y304400D02*
D03*
X411500Y274000D02*
D03*
X424525Y290002D02*
D03*
X414500Y299300D02*
D03*
X462100Y267300D02*
D03*
X501939Y261490D02*
D03*
X485600Y238600D02*
D03*
X501900D02*
D03*
X492700Y202700D02*
D03*
X512200Y422400D02*
D03*
X445324Y320064D02*
D03*
X447400Y318100D02*
D03*
X447100Y310100D02*
D03*
X447500Y314100D02*
D03*
X514200Y420400D02*
D03*
X511700Y418500D02*
D03*
X489000Y387000D02*
D03*
X445200Y316100D02*
D03*
X511100Y414500D02*
D03*
X513700Y416500D02*
D03*
X445300Y312200D02*
D03*
X471300Y377300D02*
D03*
X476000Y348500D02*
D03*
X455800Y364200D02*
D03*
X447000Y331900D02*
D03*
X458500Y361500D02*
D03*
X479900Y355200D02*
D03*
X480000Y365200D02*
D03*
X452602Y308283D02*
D03*
X455240Y305760D02*
D03*
X452200Y305300D02*
D03*
X510900Y408700D02*
D03*
X511000Y404700D02*
D03*
X513400Y406700D02*
D03*
X510500Y400650D02*
D03*
Y397000D02*
D03*
X513000Y402539D02*
D03*
X460358Y304653D02*
D03*
X513000Y398746D02*
D03*
X462280Y302221D02*
D03*
X455500Y302500D02*
D03*
X464374Y304874D02*
D03*
X510000Y393000D02*
D03*
X513000Y395000D02*
D03*
X477500Y311500D02*
D03*
X476500Y305000D02*
D03*
X491500Y326000D02*
D03*
X512500Y391000D02*
D03*
X458486Y355000D02*
D03*
X468200Y350700D02*
D03*
X466217Y353283D02*
D03*
X486500Y380500D02*
D03*
X443000Y288500D02*
D03*
X412500Y258500D02*
D03*
Y322000D02*
D03*
X399500Y334000D02*
D03*
X449500Y348000D02*
D03*
X395500Y399500D02*
D03*
X459000Y443000D02*
D03*
X421000Y324000D02*
D03*
X415000Y328000D02*
D03*
X409000Y330000D02*
D03*
X397500Y309000D02*
D03*
X392500D02*
D03*
X452000Y351012D02*
D03*
X452457Y347945D02*
D03*
X416000Y364000D02*
D03*
X401500Y378500D02*
D03*
X421500Y369500D02*
D03*
X407000Y384000D02*
D03*
X520500Y227000D02*
D03*
X521000Y250500D02*
D03*
X522000Y274500D02*
D03*
X524000Y330000D02*
D03*
X522500Y337000D02*
D03*
M02*
