G04*
G04 #@! TF.GenerationSoftware,Altium Limited,Altium Designer,23.3.1 (30)*
G04*
G04 Layer_Color=16711935*
%FSLAX25Y25*%
%MOIN*%
G70*
G04*
G04 #@! TF.SameCoordinates,6E427E01-6470-4732-AD83-5CA9447D70B9*
G04*
G04*
G04 #@! TF.FilePolarity,Negative*
G04*
G01*
G75*
%ADD48R,0.03740X0.04134*%
%ADD49R,0.04134X0.03740*%
%ADD67R,0.06496X0.06496*%
%ADD68C,0.06496*%
%ADD69R,0.06496X0.06496*%
%ADD70O,0.06496X0.10433*%
%ADD71C,0.12402*%
%ADD72C,0.07284*%
%ADD73O,0.10433X0.07480*%
%ADD74O,0.10433X0.06496*%
%ADD75O,0.07480X0.10433*%
%ADD76C,0.02362*%
%ADD77C,0.02874*%
%ADD78C,0.02559*%
D48*
X479856Y360300D02*
D03*
X474344D02*
D03*
X479912Y370300D02*
D03*
X474400D02*
D03*
D49*
X409000Y333744D02*
D03*
Y339256D02*
D03*
X415000Y333744D02*
D03*
Y339256D02*
D03*
X421000Y333744D02*
D03*
Y339256D02*
D03*
D67*
X489100Y370300D02*
D03*
D68*
Y360300D02*
D03*
X404500Y281000D02*
D03*
X414500D02*
D03*
X346000Y350000D02*
D03*
X356000D02*
D03*
X366000D02*
D03*
X376000D02*
D03*
X386000D02*
D03*
X402500Y268500D02*
D03*
X412500D02*
D03*
D69*
X424500Y281000D02*
D03*
X336000Y350000D02*
D03*
X392500Y268500D02*
D03*
D70*
X448752Y238500D02*
D03*
X456626D02*
D03*
X464500D02*
D03*
X440878D02*
D03*
X472374D02*
D03*
X539374Y279500D02*
D03*
X531500D02*
D03*
X539374Y233500D02*
D03*
X531500D02*
D03*
X539437Y256500D02*
D03*
X531563D02*
D03*
D71*
X372500Y369500D02*
D03*
Y421232D02*
D03*
D72*
X383169Y381587D02*
D03*
Y399303D02*
D03*
Y391429D02*
D03*
Y409146D02*
D03*
D73*
X498500Y433000D02*
D03*
Y452685D02*
D03*
Y442842D02*
D03*
X469000Y433000D02*
D03*
Y452685D02*
D03*
Y442842D02*
D03*
X409500Y433000D02*
D03*
Y452685D02*
D03*
Y442842D02*
D03*
X439500Y433157D02*
D03*
Y452843D02*
D03*
Y443000D02*
D03*
D74*
X536000Y344874D02*
D03*
Y337000D02*
D03*
D75*
X439000Y208500D02*
D03*
X449000D02*
D03*
X469500D02*
D03*
X479500D02*
D03*
D76*
X385000Y226500D02*
D03*
D77*
X356457D02*
D03*
D78*
X447407Y248315D02*
D03*
X479800Y351000D02*
D03*
X439500Y341700D02*
D03*
X474400Y396900D02*
D03*
X488978Y442788D02*
D03*
X422528Y452562D02*
D03*
X495300Y284800D02*
D03*
X452300Y276100D02*
D03*
X381900Y304400D02*
D03*
X411500Y274000D02*
D03*
X424525Y290002D02*
D03*
X414500Y299300D02*
D03*
X462100Y267300D02*
D03*
X501939Y261490D02*
D03*
X485600Y238600D02*
D03*
X501900D02*
D03*
X492700Y202700D02*
D03*
X512200Y422400D02*
D03*
X445324Y320064D02*
D03*
X447400Y318100D02*
D03*
X447100Y310100D02*
D03*
X447500Y314100D02*
D03*
X514200Y420400D02*
D03*
X511700Y418500D02*
D03*
X489000Y387000D02*
D03*
X445200Y316100D02*
D03*
X511100Y414500D02*
D03*
X513700Y416500D02*
D03*
X445300Y312200D02*
D03*
X471300Y377300D02*
D03*
X476000Y348500D02*
D03*
X455800Y364200D02*
D03*
X447000Y331900D02*
D03*
X458500Y361500D02*
D03*
X479900Y355200D02*
D03*
X480000Y365200D02*
D03*
X452602Y308283D02*
D03*
X455240Y305760D02*
D03*
X452200Y305300D02*
D03*
X510900Y408700D02*
D03*
X511000Y404700D02*
D03*
X513400Y406700D02*
D03*
X510500Y400650D02*
D03*
Y397000D02*
D03*
X513000Y402539D02*
D03*
X460358Y304653D02*
D03*
X513000Y398746D02*
D03*
X462280Y302221D02*
D03*
X455500Y302500D02*
D03*
X464374Y304874D02*
D03*
X510000Y393000D02*
D03*
X513000Y395000D02*
D03*
X477500Y311500D02*
D03*
X476500Y305000D02*
D03*
X491500Y326000D02*
D03*
X512500Y391000D02*
D03*
X458486Y355000D02*
D03*
X468200Y350700D02*
D03*
X466217Y353283D02*
D03*
X486500Y380500D02*
D03*
X443000Y288500D02*
D03*
X412500Y258500D02*
D03*
Y322000D02*
D03*
X399500Y334000D02*
D03*
X449500Y348000D02*
D03*
X395500Y399500D02*
D03*
X459000Y443000D02*
D03*
X421000Y324000D02*
D03*
X415000Y328000D02*
D03*
X409000Y330000D02*
D03*
X397500Y309000D02*
D03*
X392500D02*
D03*
X452000Y351012D02*
D03*
X452457Y347945D02*
D03*
X416000Y364000D02*
D03*
X401500Y378500D02*
D03*
X421500Y369500D02*
D03*
X407000Y384000D02*
D03*
X520500Y227000D02*
D03*
X521000Y250500D02*
D03*
X522000Y274500D02*
D03*
X524000Y330000D02*
D03*
X522500Y337000D02*
D03*
M02*
