G04*
G04 #@! TF.GenerationSoftware,Altium Limited,Altium Designer,23.3.1 (30)*
G04*
G04 Layer_Color=32896*
%FSLAX25Y25*%
%MOIN*%
G70*
G04*
G04 #@! TF.SameCoordinates,6E427E01-6470-4732-AD83-5CA9447D70B9*
G04*
G04*
G04 #@! TF.FilePolarity,Positive*
G04*
G01*
G75*
%ADD14C,0.00200*%
%ADD79C,0.01000*%
D14*
X481800Y364900D02*
Y366100D01*
X481200D01*
X481000Y365900D01*
Y365500D01*
X481200Y365300D01*
X481800D01*
X481400D02*
X481000Y364900D01*
X480600D02*
X480200D01*
X480401D01*
Y366100D01*
X480600Y365900D01*
X479601D02*
X479401Y366100D01*
X479001D01*
X478801Y365900D01*
Y365700D01*
X479001Y365500D01*
X478801Y365300D01*
Y365100D01*
X479001Y364900D01*
X479401D01*
X479601Y365100D01*
Y365300D01*
X479401Y365500D01*
X479601Y365700D01*
Y365900D01*
X479401Y365500D02*
X479001D01*
X481900Y374900D02*
Y376100D01*
X481300D01*
X481100Y375900D01*
Y375500D01*
X481300Y375300D01*
X481900D01*
X481500D02*
X481100Y374900D01*
X480700D02*
X480301D01*
X480501D01*
Y376100D01*
X480700Y375900D01*
X479701Y376100D02*
X478901D01*
Y375900D01*
X479701Y375100D01*
Y374900D01*
X421800Y343600D02*
Y344800D01*
X421200D01*
X421000Y344600D01*
Y344200D01*
X421200Y344000D01*
X421800D01*
X421400D02*
X421000Y343600D01*
X420600D02*
X420200D01*
X420400D01*
Y344800D01*
X420600Y344600D01*
X418801Y343600D02*
X419601D01*
X418801Y344400D01*
Y344600D01*
X419001Y344800D01*
X419401D01*
X419601Y344600D01*
X415400Y343600D02*
Y344800D01*
X414800D01*
X414600Y344600D01*
Y344200D01*
X414800Y344000D01*
X415400D01*
X415000D02*
X414600Y343600D01*
X414200D02*
X413800D01*
X414001D01*
Y344800D01*
X414200Y344600D01*
X413201Y343600D02*
X412801D01*
X413001D01*
Y344800D01*
X413201Y344600D01*
X409800Y343600D02*
Y344800D01*
X409200D01*
X409000Y344600D01*
Y344200D01*
X409200Y344000D01*
X409800D01*
X409400D02*
X409000Y343600D01*
X408600D02*
X408201D01*
X408400D01*
Y344800D01*
X408600Y344600D01*
X407601D02*
X407401Y344800D01*
X407001D01*
X406801Y344600D01*
Y343800D01*
X407001Y343600D01*
X407401D01*
X407601Y343800D01*
Y344600D01*
D79*
X437104Y242831D02*
X436269Y243313D01*
Y242349D01*
X437104Y242831D01*
X532226Y332669D02*
X531391Y333152D01*
Y332187D01*
X532226Y332669D01*
X527726Y283831D02*
X526891Y284313D01*
Y283348D01*
X527726Y283831D01*
Y237831D02*
X526891Y238313D01*
Y237349D01*
X527726Y237831D01*
X527789Y260831D02*
X526954Y261313D01*
Y260349D01*
X527789Y260831D01*
M02*
