M48
;Layer_Color=9474304
;FILE_FORMAT=2:5
INCH,TZ
;TYPE=PLATED
T1F00S00C0.01181
T2F00S00C0.02756
T3F00S00C0.03543
T4F00S00C0.03622
T5F00S00C0.04331
T6F00S00C0.09055
;TYPE=NON_PLATED
T7F00S00C0.03543
T8F00S00C0.04567
%
T01
X492700Y202700
X485600Y238600
X501900
X501939Y261490
X495300Y284800
X522000Y274500
X521000Y250500
X520500Y227000
X476500Y305000
X477500Y311500
X464374Y304874
X460358Y304653
X462280Y302221
X455500Y302500
X455240Y305760
X452200Y305300
X452602Y308283
X447100Y310100
X445300Y312200
X443000Y288500
X424525Y290002
X414500Y299300
X397500Y309000
X392500
X381900Y304400
X411500Y274000
X412500Y258500
X447407Y248315
X452300Y276100
X462100Y267300
X447500Y314100
X447400Y318100
X445324Y320064
X445200Y316100
X447000Y331900
X439500Y341700
X449500Y348000
X452457Y347945
X452000Y351012
X458486Y355000
X458500Y361500
X455800Y364200
X466217Y353283
X468200Y350700
X416000Y364000
X421500Y369500
X401500Y378500
X407000Y384000
X395500Y399500
X399500Y334000
X409000Y330000
X415000Y328000
X412500Y322000
X421000Y324000
X422528Y452562
X459000Y443000
X488978Y442788
X512200Y422400
X514200Y420400
X511700Y418500
X513700Y416500
X511100Y414500
X510900Y408700
X511000Y404700
X513000Y402539
Y398746
Y395000
X510500Y397000
Y400650
X510000Y393000
X512500Y391000
X513400Y406700
X489000Y387000
X486500Y380500
X471300Y377300
X480000Y365200
X479900Y355200
X479800Y351000
X476000Y348500
X491500Y326000
X524000Y330000
X522500Y337000
X474400Y396900
T02
X472374Y238500
X531500Y233500
X539374
X539437Y256500
X531563
X531500Y279500
X539374
X464500Y238500
X456626
X448752
X440878
X536000Y337000
Y344874
T03
X392500Y268500
X402500
X412500
X414500Y281000
X404500
X424500
X386000Y350000
X376000
X366000
X356000
X346000
X336000
X409500Y433000
Y442842
Y452685
X439500Y452843
Y443000
Y433157
X469000Y433000
Y442842
Y452685
X498500
Y442842
Y433000
X489100Y370300
Y360300
T04
X383169Y381587
Y391429
Y399303
Y409146
T05
X469500Y208500
X479500
X449000
X439000
T06
X372500Y369500
Y421232
T07
X385000Y226500
T08
X356457Y226500
M30
