%TF.GenerationSoftware,Altium Limited,Altium Designer,23.3.1 (30)*%
G04 Layer_Color=32896*
%FSLAX25Y25*%
%MOIN*%
%TF.SameCoordinates,70BEFA69-D3B7-480D-BB84-950A8577B244*%
%TF.FilePolarity,Positive*%
%TF.FileFunction,Legend,Bot*%
%TF.Part,Single*%
G01*
G75*
%TA.AperFunction,NonConductor*%
%ADD55C,0.00600*%
%ADD56C,0.01000*%
D55*
X471799Y365298D02*
X467801D01*
Y363299D01*
X468467Y362633D01*
X469800D01*
X470466Y363299D01*
Y365298D01*
Y363966D02*
X471799Y362633D01*
Y361300D02*
Y359967D01*
Y360633D01*
X467801D01*
X468467Y361300D01*
Y357967D02*
X467801Y357301D01*
Y355968D01*
X468467Y355302D01*
X469134D01*
X469800Y355968D01*
X470466Y355302D01*
X471133D01*
X471799Y355968D01*
Y357301D01*
X471133Y357967D01*
X470466D01*
X469800Y357301D01*
X469134Y357967D01*
X468467D01*
X469800Y357301D02*
Y355968D01*
X482998Y373601D02*
Y377599D01*
X480999D01*
X480333Y376933D01*
Y375600D01*
X480999Y374934D01*
X482998D01*
X481666D02*
X480333Y373601D01*
X479000D02*
X477667D01*
X478333D01*
Y377599D01*
X479000Y376933D01*
X475667Y377599D02*
X473002D01*
Y376933D01*
X475667Y374267D01*
Y373601D01*
D56*
X532226Y332669D02*
G03*
X532226Y332669I-557J0D01*
G01*
X527726Y237831D02*
G03*
X527726Y237831I-557J0D01*
G01*
Y283831D02*
G03*
X527726Y283831I-557J0D01*
G01*
X527789Y260831D02*
G03*
X527789Y260831I-557J0D01*
G01*
X462226Y207673D02*
G03*
X462226Y207673I-557J0D01*
G01*
X433800Y202398D02*
Y196400D01*
X429801D01*
X427802Y200399D02*
Y197400D01*
X426802Y196400D01*
X423803D01*
Y200399D01*
X421804Y196400D02*
Y202398D01*
Y198399D02*
X418805Y200399D01*
X421804Y198399D02*
X418805Y196400D01*
X414806Y200399D02*
X412807D01*
X411807Y199399D01*
Y196400D01*
X414806D01*
X415806Y197400D01*
X414806Y198399D01*
X411807D01*
X409808Y196400D02*
X406809D01*
X405809Y197400D01*
X406809Y198399D01*
X408808D01*
X409808Y199399D01*
X408808Y200399D01*
X405809D01*
X403810D02*
X399811D01*
X403810Y196400D01*
X399811D01*
X391814Y202398D02*
Y196400D01*
X389814Y198399D01*
X387815Y196400D01*
Y202398D01*
X382817Y196400D02*
X384816D01*
X385816Y197400D01*
Y199399D01*
X384816Y200399D01*
X382817D01*
X381817Y199399D01*
Y198399D01*
X385816D01*
X379818Y202398D02*
Y196400D01*
X376818D01*
X375819Y197400D01*
Y198399D01*
Y199399D01*
X376818Y200399D01*
X379818D01*
X370820Y196400D02*
X372820D01*
X373819Y197400D01*
Y199399D01*
X372820Y200399D01*
X370820D01*
X369821Y199399D01*
Y198399D01*
X373819D01*
X367821Y200399D02*
Y196400D01*
Y198399D01*
X366822Y199399D01*
X365822Y200399D01*
X364822D01*
X351827Y196400D02*
X355825D01*
X351827Y200399D01*
Y201398D01*
X352826Y202398D01*
X354825D01*
X355825Y201398D01*
X349827D02*
X348828Y202398D01*
X346828D01*
X345829Y201398D01*
Y197400D01*
X346828Y196400D01*
X348828D01*
X349827Y197400D01*
Y201398D01*
X339830Y196400D02*
X343829D01*
X339830Y200399D01*
Y201398D01*
X340830Y202398D01*
X342829D01*
X343829Y201398D01*
X337831D02*
X336831Y202398D01*
X334832D01*
X333832Y201398D01*
Y200399D01*
X334832Y199399D01*
X335832D01*
X334832D01*
X333832Y198399D01*
Y197400D01*
X334832Y196400D01*
X336831D01*
X337831Y197400D01*
%TF.MD5,694ed35293fcc503a91b9611f6adf5b1*%
M02*
