G04*
G04 #@! TF.GenerationSoftware,Altium Limited,Altium Designer,23.3.1 (30)*
G04*
G04 Layer_Physical_Order=2*
G04 Layer_Color=16711680*
%FSLAX25Y25*%
%MOIN*%
G70*
G04*
G04 #@! TF.SameCoordinates,6E427E01-6470-4732-AD83-5CA9447D70B9*
G04*
G04*
G04 #@! TF.FilePolarity,Positive*
G04*
G01*
G75*
%ADD22R,0.03150X0.03543*%
%ADD23R,0.03543X0.03150*%
%ADD79C,0.01000*%
%ADD80C,0.00800*%
%ADD81C,0.00500*%
%ADD82R,0.05906X0.05906*%
%ADD83C,0.05906*%
%ADD84R,0.05906X0.05906*%
%ADD85O,0.05906X0.09843*%
%ADD86C,0.11811*%
%ADD87C,0.06693*%
%ADD88O,0.09843X0.06890*%
%ADD89O,0.09843X0.05906*%
%ADD90O,0.06890X0.09843*%
%ADD91C,0.01772*%
%ADD92C,0.02284*%
%ADD93C,0.01968*%
G36*
X549197Y193803D02*
X330803D01*
Y465197D01*
X549197D01*
Y193803D01*
D02*
G37*
%LPC*%
G36*
X440976Y456821D02*
X438024D01*
X436994Y456686D01*
X436034Y456288D01*
X435210Y455656D01*
X434578Y454832D01*
X434180Y453872D01*
X434169Y453783D01*
X423533D01*
X423420Y453897D01*
X422841Y454136D01*
X422215D01*
X421636Y453897D01*
X421523Y453783D01*
X414791D01*
X414422Y454674D01*
X413790Y455499D01*
X412966Y456131D01*
X412006Y456528D01*
X410976Y456664D01*
X408024D01*
X406994Y456528D01*
X406034Y456131D01*
X405210Y455499D01*
X404578Y454674D01*
X404180Y453715D01*
X404179Y453705D01*
X363785D01*
X363395Y453627D01*
X363064Y453406D01*
X335279Y425621D01*
X335058Y425290D01*
X334980Y424900D01*
Y353453D01*
X332547D01*
Y346547D01*
X334980D01*
Y337900D01*
X335058Y337510D01*
X335279Y337179D01*
X368779Y303679D01*
X369110Y303458D01*
X369500Y303380D01*
X380693D01*
X380880Y303192D01*
Y283100D01*
X380958Y282710D01*
X381179Y282379D01*
X388079Y275479D01*
X388410Y275258D01*
X388800Y275180D01*
X391480D01*
Y271953D01*
X389047D01*
Y265047D01*
X395953D01*
Y271953D01*
X393520D01*
Y275180D01*
X407360D01*
X407414Y275101D01*
X407459Y274541D01*
X407459Y274541D01*
X404342Y271423D01*
X403833Y271718D01*
X402955Y271953D01*
X402045D01*
X401167Y271718D01*
X400380Y271263D01*
X399737Y270620D01*
X399283Y269833D01*
X399047Y268955D01*
Y268045D01*
X399283Y267167D01*
X399737Y266380D01*
X400380Y265737D01*
X401167Y265283D01*
X402045Y265047D01*
X402955D01*
X403833Y265283D01*
X404620Y265737D01*
X405263Y266380D01*
X405718Y267167D01*
X405953Y268045D01*
Y268955D01*
X405718Y269833D01*
X405423Y270342D01*
X408317Y273235D01*
X410112D01*
X410165Y273108D01*
X410608Y272665D01*
X411187Y272425D01*
X411813D01*
X412392Y272665D01*
X412835Y273108D01*
X413075Y273687D01*
Y274313D01*
X412923Y274680D01*
X413200Y275180D01*
X450992D01*
X451408Y274765D01*
X451987Y274525D01*
X452613D01*
X453192Y274765D01*
X453635Y275208D01*
X453875Y275787D01*
Y275837D01*
X454375Y276044D01*
X455861Y274557D01*
Y243850D01*
X455725Y243832D01*
X454885Y243484D01*
X454164Y242931D01*
X453610Y242210D01*
X453262Y241370D01*
X453143Y240469D01*
Y236531D01*
X453262Y235630D01*
X453610Y234790D01*
X454164Y234069D01*
X454885Y233516D01*
X455725Y233168D01*
X456626Y233049D01*
X457527Y233168D01*
X458367Y233516D01*
X459089Y234069D01*
X459642Y234790D01*
X459990Y235630D01*
X460109Y236531D01*
Y240469D01*
X459990Y241370D01*
X459642Y242210D01*
X459089Y242931D01*
X458367Y243484D01*
X457527Y243832D01*
X457391Y243850D01*
Y274874D01*
X457391Y274874D01*
X457333Y275167D01*
X457167Y275415D01*
X457167Y275415D01*
X444522Y288059D01*
X444575Y288187D01*
Y288813D01*
X444335Y289392D01*
X443892Y289835D01*
X443313Y290075D01*
X442687D01*
X442108Y289835D01*
X441665Y289392D01*
X441425Y288813D01*
Y288187D01*
X441665Y287608D01*
X442108Y287165D01*
X442687Y286925D01*
X443313D01*
X443441Y286978D01*
X452244Y278175D01*
X452037Y277675D01*
X451987D01*
X451408Y277435D01*
X451193Y277220D01*
X428317D01*
X427953Y277547D01*
Y284453D01*
X425545D01*
Y288795D01*
X425860Y289110D01*
X426100Y289689D01*
Y290315D01*
X425860Y290894D01*
X425417Y291337D01*
X424838Y291577D01*
X424212D01*
X423633Y291337D01*
X423190Y290894D01*
X422950Y290315D01*
Y289689D01*
X423190Y289110D01*
X423506Y288795D01*
Y284453D01*
X421047D01*
Y277547D01*
X420683Y277220D01*
X415664D01*
X415598Y277720D01*
X415833Y277783D01*
X416620Y278237D01*
X417263Y278880D01*
X417718Y279667D01*
X417953Y280545D01*
Y281455D01*
X417718Y282333D01*
X417263Y283120D01*
X416620Y283763D01*
X415833Y284218D01*
X415265Y284370D01*
Y297912D01*
X415392Y297965D01*
X415835Y298408D01*
X416075Y298987D01*
Y299613D01*
X415835Y300192D01*
X415392Y300635D01*
X414813Y300875D01*
X414187D01*
X413608Y300635D01*
X413165Y300192D01*
X412925Y299613D01*
Y298987D01*
X413165Y298408D01*
X413608Y297965D01*
X413735Y297912D01*
Y284370D01*
X413167Y284218D01*
X412380Y283763D01*
X411737Y283120D01*
X411282Y282333D01*
X411047Y281455D01*
Y280545D01*
X411282Y279667D01*
X411737Y278880D01*
X412380Y278237D01*
X413167Y277783D01*
X413402Y277720D01*
X413336Y277220D01*
X405664D01*
X405598Y277720D01*
X405833Y277783D01*
X406620Y278237D01*
X407263Y278880D01*
X407718Y279667D01*
X407953Y280545D01*
Y280750D01*
X404500D01*
X401047D01*
Y280545D01*
X401283Y279667D01*
X401737Y278880D01*
X402380Y278237D01*
X403167Y277783D01*
X403402Y277720D01*
X403336Y277220D01*
X389222D01*
X382920Y283522D01*
Y303192D01*
X383235Y303508D01*
X383475Y304087D01*
Y304713D01*
X383235Y305292D01*
X382792Y305735D01*
X382213Y305975D01*
X381587D01*
X381008Y305735D01*
X380693Y305420D01*
X369922D01*
X337020Y338322D01*
Y346547D01*
X339453D01*
Y353453D01*
X337020D01*
Y424478D01*
X364207Y451665D01*
X404179D01*
X404180Y451655D01*
X404578Y450696D01*
X405210Y449871D01*
X406034Y449239D01*
X406994Y448842D01*
X408024Y448706D01*
X410976D01*
X412006Y448842D01*
X412966Y449239D01*
X413790Y449871D01*
X414422Y450696D01*
X414820Y451655D01*
X414831Y451744D01*
X421162D01*
X421193Y451670D01*
X421636Y451227D01*
X422215Y450987D01*
X422841D01*
X423420Y451227D01*
X423863Y451670D01*
X423894Y451744D01*
X434209D01*
X434578Y450853D01*
X435210Y450029D01*
X436034Y449397D01*
X436994Y448999D01*
X438024Y448864D01*
X440976D01*
X442006Y448999D01*
X442966Y449397D01*
X443790Y450029D01*
X444422Y450853D01*
X444791Y451744D01*
X463669D01*
X463680Y451655D01*
X464078Y450696D01*
X464710Y449871D01*
X465534Y449239D01*
X466494Y448842D01*
X467524Y448706D01*
X470476D01*
X471506Y448842D01*
X472466Y449239D01*
X473290Y449871D01*
X473922Y450696D01*
X474320Y451655D01*
X474321Y451665D01*
X480680D01*
Y427822D01*
X473679Y420821D01*
X473458Y420490D01*
X473380Y420100D01*
Y398108D01*
X473065Y397792D01*
X472825Y397213D01*
Y396587D01*
X473065Y396008D01*
X473380Y395692D01*
Y372572D01*
X472465D01*
X472325Y372572D01*
X471965Y372908D01*
Y375871D01*
X472192Y375965D01*
X472635Y376408D01*
X472875Y376987D01*
Y377613D01*
X472635Y378192D01*
X472192Y378635D01*
X471613Y378875D01*
X470987D01*
X470408Y378635D01*
X469965Y378192D01*
X469725Y377613D01*
Y376987D01*
X469965Y376408D01*
X470408Y375965D01*
X470435Y375954D01*
Y356800D01*
X470494Y356507D01*
X470659Y356259D01*
X475235Y351683D01*
Y349888D01*
X475108Y349835D01*
X474665Y349392D01*
X474425Y348813D01*
Y348187D01*
X474665Y347608D01*
X475108Y347165D01*
X475687Y346925D01*
X476313D01*
X476892Y347165D01*
X477335Y347608D01*
X477575Y348187D01*
Y348813D01*
X477335Y349392D01*
X476892Y349835D01*
X476765Y349888D01*
Y351886D01*
X477038Y352058D01*
X477254Y352104D01*
X478225Y351133D01*
Y350687D01*
X478465Y350108D01*
X478908Y349665D01*
X479487Y349425D01*
X480113D01*
X480692Y349665D01*
X481135Y350108D01*
X481375Y350687D01*
Y351313D01*
X481135Y351892D01*
X480692Y352335D01*
X480113Y352575D01*
X479667D01*
X478855Y353387D01*
X479138Y353811D01*
X479587Y353625D01*
X480213D01*
X480792Y353865D01*
X481235Y354308D01*
X481475Y354887D01*
Y355513D01*
X481235Y356092D01*
X480792Y356535D01*
X480665Y356588D01*
Y358028D01*
X481931D01*
Y359535D01*
X485730D01*
X485883Y358967D01*
X486337Y358180D01*
X486980Y357537D01*
X487767Y357083D01*
X488645Y356847D01*
X489555D01*
X490433Y357083D01*
X491220Y357537D01*
X491735Y358052D01*
X492235Y357872D01*
Y357388D01*
X455677Y320829D01*
X446712D01*
X446659Y320956D01*
X446216Y321399D01*
X445637Y321639D01*
X445011D01*
X444432Y321399D01*
X443989Y320956D01*
X443749Y320378D01*
Y319751D01*
X443989Y319172D01*
X444432Y318729D01*
X445011Y318490D01*
X445363D01*
X445494Y318468D01*
X445656Y318096D01*
X445436Y317692D01*
X445363Y317675D01*
X444887D01*
X444308Y317435D01*
X443865Y316992D01*
X443625Y316413D01*
Y315787D01*
X443865Y315208D01*
X444308Y314765D01*
X444887Y314525D01*
X445463D01*
X445532Y314509D01*
X445911Y314168D01*
X445616Y313779D01*
X445463Y313775D01*
X444987D01*
X444408Y313535D01*
X443965Y313092D01*
X443725Y312513D01*
Y311887D01*
X443965Y311308D01*
X444408Y310865D01*
X444987Y310625D01*
X445384D01*
X445525Y310413D01*
Y309787D01*
X445765Y309208D01*
X446208Y308765D01*
X446787Y308525D01*
X447413D01*
X447992Y308765D01*
X448435Y309208D01*
X448488Y309335D01*
X450792D01*
X451126Y308835D01*
X451027Y308596D01*
Y307969D01*
X451267Y307391D01*
X451431Y307227D01*
X451313Y306637D01*
X451308Y306635D01*
X450865Y306192D01*
X450625Y305613D01*
Y304987D01*
X450865Y304408D01*
X451308Y303965D01*
X451791Y303765D01*
X451692Y303265D01*
X393817D01*
X348923Y348158D01*
X349218Y348667D01*
X349453Y349545D01*
Y350455D01*
X349218Y351333D01*
X348763Y352120D01*
X348120Y352763D01*
X347333Y353218D01*
X346455Y353453D01*
X345545D01*
X344667Y353218D01*
X343880Y352763D01*
X343237Y352120D01*
X342782Y351333D01*
X342547Y350455D01*
Y349545D01*
X342782Y348667D01*
X343237Y347880D01*
X343880Y347237D01*
X344667Y346782D01*
X345545Y346547D01*
X346455D01*
X347333Y346782D01*
X347842Y347077D01*
X392959Y301959D01*
X392959Y301959D01*
X393207Y301794D01*
X393500Y301735D01*
X454112D01*
X454165Y301608D01*
X454608Y301165D01*
X455187Y300925D01*
X455813D01*
X456392Y301165D01*
X456835Y301608D01*
X457075Y302187D01*
Y302813D01*
X456835Y303392D01*
X456392Y303835D01*
X456204Y303913D01*
X456164Y304198D01*
X456174Y304467D01*
X456575Y304868D01*
X456815Y305446D01*
Y306073D01*
X456739Y306257D01*
X459131Y308650D01*
X459593Y308459D01*
Y306041D01*
X459466Y305988D01*
X459023Y305545D01*
X458783Y304966D01*
Y304340D01*
X459023Y303761D01*
X459466Y303318D01*
X460045Y303078D01*
X460389D01*
X460734Y302604D01*
X460705Y302534D01*
Y301907D01*
X460945Y301328D01*
X461387Y300885D01*
X461966Y300646D01*
X462593D01*
X463172Y300885D01*
X463615Y301328D01*
X463854Y301907D01*
Y302534D01*
X463699Y302908D01*
X464061Y303299D01*
X464687D01*
X465266Y303539D01*
X465709Y303982D01*
X465949Y304561D01*
Y305187D01*
X465709Y305766D01*
X465266Y306209D01*
X465139Y306262D01*
Y310415D01*
X473273Y318549D01*
X473735Y318358D01*
Y307000D01*
X473794Y306707D01*
X473959Y306459D01*
X474978Y305441D01*
X474925Y305313D01*
Y304687D01*
X475165Y304108D01*
X475608Y303665D01*
X476187Y303425D01*
X476813D01*
X477392Y303665D01*
X477835Y304108D01*
X478075Y304687D01*
Y305313D01*
X477835Y305892D01*
X477392Y306335D01*
X476813Y306575D01*
X476187D01*
X476059Y306522D01*
X475265Y307317D01*
Y311580D01*
X475350Y311670D01*
X475765Y311830D01*
X475925Y311679D01*
Y311187D01*
X476165Y310608D01*
X476608Y310165D01*
X477187Y309925D01*
X477813D01*
X478392Y310165D01*
X478835Y310608D01*
X479075Y311187D01*
Y311813D01*
X478835Y312392D01*
X478392Y312835D01*
X477813Y313075D01*
X477187D01*
X477160Y313064D01*
X476765Y313381D01*
Y319212D01*
X506235Y348683D01*
X506735Y348476D01*
Y332817D01*
X500683Y326765D01*
X492888D01*
X492835Y326892D01*
X492392Y327335D01*
X491813Y327575D01*
X491187D01*
X490608Y327335D01*
X490165Y326892D01*
X489925Y326313D01*
Y325687D01*
X490165Y325108D01*
X490608Y324665D01*
X491187Y324425D01*
X491813D01*
X492392Y324665D01*
X492835Y325108D01*
X492888Y325235D01*
X501000D01*
X501293Y325293D01*
X501541Y325459D01*
X508041Y331959D01*
X508207Y332207D01*
X508265Y332500D01*
Y387683D01*
X510650Y390069D01*
X511165Y390108D01*
X511608Y389665D01*
X512187Y389425D01*
X512813D01*
X513392Y389665D01*
X513835Y390108D01*
X514075Y390687D01*
Y391313D01*
X513835Y391892D01*
X513392Y392335D01*
X512813Y392575D01*
X512187D01*
X512037Y392513D01*
X511930Y392553D01*
X511575Y392863D01*
Y393313D01*
X511449Y393617D01*
X511873Y393900D01*
X512108Y393665D01*
X512687Y393425D01*
X513313D01*
X513892Y393665D01*
X514335Y394108D01*
X514575Y394687D01*
Y395313D01*
X514335Y395892D01*
X513892Y396335D01*
X513313Y396575D01*
X512935D01*
X512550Y396919D01*
X512687Y397171D01*
X513313D01*
X513892Y397411D01*
X514335Y397854D01*
X514575Y398433D01*
Y399059D01*
X514335Y399638D01*
X513892Y400081D01*
X513313Y400321D01*
X512947D01*
X512527Y400663D01*
X512687Y400965D01*
X513313D01*
X513892Y401204D01*
X514335Y401647D01*
X514575Y402226D01*
Y402853D01*
X514335Y403431D01*
X513892Y403874D01*
X513313Y404114D01*
X513003D01*
X512653Y404337D01*
X512610Y404825D01*
X512989Y405132D01*
X513037Y405146D01*
X513087Y405125D01*
X513713D01*
X514292Y405365D01*
X514735Y405808D01*
X514975Y406387D01*
Y407013D01*
X514735Y407592D01*
X514292Y408035D01*
X513713Y408275D01*
X513087D01*
X512937Y408213D01*
X512830Y408253D01*
X512475Y408563D01*
Y409013D01*
X512235Y409592D01*
X511792Y410035D01*
X511213Y410275D01*
X510587D01*
X510008Y410035D01*
X509565Y409592D01*
X509396Y409184D01*
X509019D01*
X509019Y409184D01*
X508726Y409126D01*
X508478Y408960D01*
X498227Y398708D01*
X497765Y398899D01*
Y402269D01*
X509231Y413735D01*
X509712D01*
X509765Y413608D01*
X510208Y413165D01*
X510787Y412925D01*
X511413D01*
X511992Y413165D01*
X512435Y413608D01*
X512675Y414187D01*
Y414679D01*
X512975Y414960D01*
X513125Y415034D01*
X513387Y414925D01*
X514013D01*
X514592Y415165D01*
X515035Y415608D01*
X515275Y416187D01*
Y416813D01*
X515035Y417392D01*
X514592Y417835D01*
X514013Y418075D01*
X513737D01*
X513531Y418125D01*
X513437Y418539D01*
X513834Y418847D01*
X513887Y418825D01*
X514513D01*
X515092Y419065D01*
X515535Y419508D01*
X515775Y420087D01*
Y420713D01*
X515535Y421292D01*
X515092Y421735D01*
X514513Y421975D01*
X514237D01*
X513865Y422065D01*
X513775Y422437D01*
Y422713D01*
X513535Y423292D01*
X513092Y423735D01*
X512513Y423975D01*
X511887D01*
X511308Y423735D01*
X510865Y423292D01*
X510812Y423165D01*
X510000D01*
X509707Y423106D01*
X509459Y422941D01*
X492459Y405941D01*
X492294Y405693D01*
X492235Y405400D01*
Y373753D01*
X485647D01*
Y371065D01*
X481987D01*
Y372572D01*
X477837D01*
Y368028D01*
X479235D01*
Y366588D01*
X479108Y366535D01*
X478665Y366092D01*
X478425Y365513D01*
Y364887D01*
X478665Y364308D01*
X479108Y363865D01*
X479687Y363625D01*
X480313D01*
X480892Y363865D01*
X481335Y364308D01*
X481575Y364887D01*
Y365513D01*
X481335Y366092D01*
X480892Y366535D01*
X480765Y366588D01*
Y368028D01*
X481987D01*
Y369535D01*
X485647D01*
Y366847D01*
X492235D01*
Y362728D01*
X491735Y362548D01*
X491220Y363063D01*
X490433Y363517D01*
X489555Y363753D01*
X488645D01*
X487767Y363517D01*
X486980Y363063D01*
X486337Y362420D01*
X485883Y361633D01*
X485730Y361065D01*
X481931D01*
Y362572D01*
X477781D01*
Y358028D01*
X479135D01*
Y356588D01*
X479008Y356535D01*
X478565Y356092D01*
X478325Y355513D01*
Y354887D01*
X478511Y354438D01*
X478087Y354155D01*
X475364Y356878D01*
Y358028D01*
X476419D01*
Y362572D01*
X475420D01*
Y368028D01*
X476475D01*
Y372572D01*
X475420D01*
Y395692D01*
X475735Y396008D01*
X475975Y396587D01*
Y397213D01*
X475735Y397792D01*
X475420Y398108D01*
Y419678D01*
X482421Y426679D01*
X482642Y427010D01*
X482720Y427400D01*
Y451665D01*
X493179D01*
X493180Y451655D01*
X493578Y450696D01*
X494210Y449871D01*
X495034Y449239D01*
X495994Y448842D01*
X497024Y448706D01*
X499976D01*
X501006Y448842D01*
X501966Y449239D01*
X502790Y449871D01*
X503422Y450696D01*
X503820Y451655D01*
X503955Y452685D01*
X503820Y453715D01*
X503422Y454674D01*
X502790Y455499D01*
X501966Y456131D01*
X501006Y456528D01*
X499976Y456664D01*
X497024D01*
X495994Y456528D01*
X495034Y456131D01*
X494210Y455499D01*
X493578Y454674D01*
X493180Y453715D01*
X493179Y453705D01*
X474321D01*
X474320Y453715D01*
X473922Y454674D01*
X473290Y455499D01*
X472466Y456131D01*
X471506Y456528D01*
X470476Y456664D01*
X467524D01*
X466494Y456528D01*
X465534Y456131D01*
X464710Y455499D01*
X464078Y454674D01*
X463709Y453783D01*
X444831D01*
X444820Y453872D01*
X444422Y454832D01*
X443790Y455656D01*
X442966Y456288D01*
X442006Y456686D01*
X440976Y456821D01*
D02*
G37*
G36*
X470476Y446821D02*
X467524D01*
X466494Y446686D01*
X465534Y446288D01*
X464710Y445656D01*
X464078Y444832D01*
X463680Y443872D01*
X463656Y443686D01*
X460420D01*
X460335Y443892D01*
X459892Y444335D01*
X459313Y444575D01*
X458687D01*
X458108Y444335D01*
X457665Y443892D01*
X457425Y443313D01*
Y442687D01*
X457665Y442108D01*
X458108Y441665D01*
X458687Y441425D01*
X459313D01*
X459892Y441665D01*
X460335Y442108D01*
X460355Y442157D01*
X463635D01*
X463680Y441813D01*
X464078Y440853D01*
X464710Y440029D01*
X465534Y439397D01*
X466494Y438999D01*
X467524Y438864D01*
X470476D01*
X471506Y438999D01*
X472466Y439397D01*
X473290Y440029D01*
X473922Y440853D01*
X474320Y441813D01*
X474455Y442842D01*
X474320Y443872D01*
X473922Y444832D01*
X473290Y445656D01*
X472466Y446288D01*
X471506Y446686D01*
X470476Y446821D01*
D02*
G37*
G36*
X499976D02*
X497024D01*
X495994Y446686D01*
X495034Y446288D01*
X494210Y445656D01*
X493578Y444832D01*
X493180Y443872D01*
X493145Y443607D01*
X490344D01*
X490313Y443680D01*
X489870Y444123D01*
X489292Y444363D01*
X488665D01*
X488086Y444123D01*
X487643Y443680D01*
X487403Y443101D01*
Y442475D01*
X487643Y441896D01*
X488086Y441453D01*
X488665Y441213D01*
X489292D01*
X489870Y441453D01*
X490313Y441896D01*
X490389Y442078D01*
X493145D01*
X493180Y441813D01*
X493578Y440853D01*
X494210Y440029D01*
X495034Y439397D01*
X495994Y438999D01*
X497024Y438864D01*
X499976D01*
X501006Y438999D01*
X501966Y439397D01*
X502790Y440029D01*
X503422Y440853D01*
X503820Y441813D01*
X503955Y442842D01*
X503820Y443872D01*
X503422Y444832D01*
X502790Y445656D01*
X501966Y446288D01*
X501006Y446686D01*
X499976Y446821D01*
D02*
G37*
G36*
X440976Y446979D02*
X439750D01*
Y443250D01*
X444922D01*
X444820Y444030D01*
X444422Y444989D01*
X443790Y445814D01*
X442966Y446446D01*
X442006Y446843D01*
X440976Y446979D01*
D02*
G37*
G36*
X439250D02*
X438024D01*
X436994Y446843D01*
X436034Y446446D01*
X435210Y445814D01*
X434578Y444989D01*
X434180Y444030D01*
X434078Y443250D01*
X439250D01*
Y446979D01*
D02*
G37*
G36*
X410976Y446821D02*
X409750D01*
Y443092D01*
X414922D01*
X414820Y443872D01*
X414422Y444832D01*
X413790Y445656D01*
X412966Y446288D01*
X412006Y446686D01*
X410976Y446821D01*
D02*
G37*
G36*
X409250D02*
X408024D01*
X406994Y446686D01*
X406034Y446288D01*
X405210Y445656D01*
X404578Y444832D01*
X404180Y443872D01*
X404078Y443092D01*
X409250D01*
Y446821D01*
D02*
G37*
G36*
X444922Y442750D02*
X439750D01*
Y439021D01*
X440976D01*
X442006Y439157D01*
X442966Y439554D01*
X443790Y440187D01*
X444422Y441011D01*
X444820Y441970D01*
X444922Y442750D01*
D02*
G37*
G36*
X439250D02*
X434078D01*
X434180Y441970D01*
X434578Y441011D01*
X435210Y440187D01*
X436034Y439554D01*
X436994Y439157D01*
X438024Y439021D01*
X439250D01*
Y442750D01*
D02*
G37*
G36*
X414922Y442592D02*
X409750D01*
Y438864D01*
X410976D01*
X412006Y438999D01*
X412966Y439397D01*
X413790Y440029D01*
X414422Y440853D01*
X414820Y441813D01*
X414922Y442592D01*
D02*
G37*
G36*
X409250D02*
X404078D01*
X404180Y441813D01*
X404578Y440853D01*
X405210Y440029D01*
X406034Y439397D01*
X406994Y438999D01*
X408024Y438864D01*
X409250D01*
Y442592D01*
D02*
G37*
G36*
X499976Y436979D02*
X498750D01*
Y433250D01*
X503922D01*
X503820Y434030D01*
X503422Y434990D01*
X502790Y435814D01*
X501966Y436446D01*
X501006Y436843D01*
X499976Y436979D01*
D02*
G37*
G36*
X470476D02*
X469250D01*
Y433250D01*
X474422D01*
X474320Y434030D01*
X473922Y434990D01*
X473290Y435814D01*
X472466Y436446D01*
X471506Y436843D01*
X470476Y436979D01*
D02*
G37*
G36*
X498250D02*
X497024D01*
X495994Y436843D01*
X495034Y436446D01*
X494210Y435814D01*
X493578Y434990D01*
X493180Y434030D01*
X493078Y433250D01*
X498250D01*
Y436979D01*
D02*
G37*
G36*
X468750D02*
X467524D01*
X466494Y436843D01*
X465534Y436446D01*
X464710Y435814D01*
X464078Y434990D01*
X463680Y434030D01*
X463578Y433250D01*
X468750D01*
Y436979D01*
D02*
G37*
G36*
X503922Y432750D02*
X498750D01*
Y429021D01*
X499976D01*
X501006Y429157D01*
X501966Y429554D01*
X502790Y430187D01*
X503422Y431010D01*
X503820Y431970D01*
X503922Y432750D01*
D02*
G37*
G36*
X498250D02*
X493078D01*
X493180Y431970D01*
X493578Y431010D01*
X494210Y430187D01*
X495034Y429554D01*
X495994Y429157D01*
X497024Y429021D01*
X498250D01*
Y432750D01*
D02*
G37*
G36*
X474422D02*
X469250D01*
Y429021D01*
X470476D01*
X471506Y429157D01*
X472466Y429554D01*
X473290Y430187D01*
X473922Y431010D01*
X474320Y431970D01*
X474422Y432750D01*
D02*
G37*
G36*
X468750D02*
X463578D01*
X463680Y431970D01*
X464078Y431010D01*
X464710Y430187D01*
X465534Y429554D01*
X466494Y429157D01*
X467524Y429021D01*
X468750D01*
Y432750D01*
D02*
G37*
G36*
X373131Y427638D02*
X372750D01*
Y421482D01*
X378906D01*
Y421863D01*
X378659Y423101D01*
X378176Y424266D01*
X377476Y425316D01*
X376583Y426208D01*
X375534Y426909D01*
X374368Y427392D01*
X373131Y427638D01*
D02*
G37*
G36*
X372250D02*
X371869D01*
X370632Y427392D01*
X369466Y426909D01*
X368417Y426208D01*
X367525Y425316D01*
X366824Y424266D01*
X366341Y423101D01*
X366094Y421863D01*
Y421482D01*
X372250D01*
Y427638D01*
D02*
G37*
G36*
X378906Y420982D02*
X372750D01*
Y414827D01*
X373131D01*
X374368Y415073D01*
X375534Y415556D01*
X376583Y416257D01*
X377476Y417149D01*
X378176Y418198D01*
X378659Y419364D01*
X378906Y420601D01*
Y420982D01*
D02*
G37*
G36*
X372250D02*
X366094D01*
Y420601D01*
X366341Y419364D01*
X366824Y418198D01*
X367525Y417149D01*
X368417Y416257D01*
X369466Y415556D01*
X370632Y415073D01*
X371869Y414827D01*
X372250D01*
Y420982D01*
D02*
G37*
G36*
X383676Y412992D02*
X382663D01*
X381685Y412730D01*
X380807Y412224D01*
X380091Y411507D01*
X379585Y410630D01*
X379323Y409652D01*
Y408639D01*
X379585Y407661D01*
X380091Y406784D01*
X380807Y406068D01*
X381685Y405561D01*
X382663Y405299D01*
X383676D01*
X384654Y405561D01*
X385299Y405934D01*
X392274Y398959D01*
X392522Y398794D01*
X392815Y398735D01*
X392815Y398735D01*
X394112D01*
X394165Y398608D01*
X394608Y398165D01*
X395187Y397925D01*
X395813D01*
X396392Y398165D01*
X396835Y398608D01*
X397075Y399187D01*
Y399813D01*
X396835Y400392D01*
X396392Y400835D01*
X395813Y401075D01*
X395187D01*
X394608Y400835D01*
X394165Y400392D01*
X394112Y400265D01*
X393132D01*
X386381Y407016D01*
X386754Y407661D01*
X387016Y408639D01*
Y409652D01*
X386754Y410630D01*
X386247Y411507D01*
X385531Y412224D01*
X384654Y412730D01*
X383676Y412992D01*
D02*
G37*
G36*
X440976Y437136D02*
X438024D01*
X436994Y437001D01*
X436034Y436603D01*
X435210Y435971D01*
X434578Y435147D01*
X434180Y434187D01*
X434045Y433157D01*
X434180Y432128D01*
X434578Y431168D01*
X435210Y430344D01*
X436034Y429712D01*
X436994Y429314D01*
X438024Y429179D01*
X438735D01*
Y389053D01*
X438235Y388846D01*
X410265Y416817D01*
Y429021D01*
X410976D01*
X412006Y429157D01*
X412966Y429554D01*
X413790Y430187D01*
X414422Y431010D01*
X414820Y431970D01*
X414955Y433000D01*
X414820Y434030D01*
X414422Y434990D01*
X413790Y435814D01*
X412966Y436446D01*
X412006Y436843D01*
X410976Y436979D01*
X408024D01*
X406994Y436843D01*
X406034Y436446D01*
X405210Y435814D01*
X404578Y434990D01*
X404180Y434030D01*
X404045Y433000D01*
X404180Y431970D01*
X404578Y431010D01*
X405210Y430187D01*
X406034Y429554D01*
X406994Y429157D01*
X408024Y429021D01*
X408735D01*
Y416500D01*
X408793Y416207D01*
X408959Y415959D01*
X465452Y359467D01*
Y354671D01*
X465324Y354619D01*
X464882Y354175D01*
X464642Y353597D01*
Y352970D01*
X464882Y352391D01*
X465324Y351948D01*
X465903Y351709D01*
X466372D01*
X466666Y351382D01*
X466722Y351247D01*
X466625Y351013D01*
Y350387D01*
X466865Y349808D01*
X467308Y349365D01*
X467887Y349125D01*
X468513D01*
X469092Y349365D01*
X469535Y349808D01*
X469775Y350387D01*
Y351013D01*
X469535Y351592D01*
X469092Y352035D01*
X468965Y352088D01*
Y359800D01*
X468906Y360093D01*
X468741Y360341D01*
X440265Y388817D01*
Y429179D01*
X440976D01*
X442006Y429314D01*
X442966Y429712D01*
X443790Y430344D01*
X444422Y431168D01*
X444820Y432128D01*
X444955Y433157D01*
X444820Y434187D01*
X444422Y435147D01*
X443790Y435971D01*
X442966Y436603D01*
X442006Y437001D01*
X440976Y437136D01*
D02*
G37*
G36*
X489313Y388575D02*
X488687D01*
X488108Y388335D01*
X487665Y387892D01*
X487425Y387313D01*
Y386687D01*
X487478Y386559D01*
X485959Y385041D01*
X485793Y384793D01*
X485735Y384500D01*
Y381888D01*
X485608Y381835D01*
X485165Y381392D01*
X484925Y380813D01*
Y380187D01*
X485165Y379608D01*
X485608Y379165D01*
X486187Y378925D01*
X486813D01*
X487392Y379165D01*
X487835Y379608D01*
X488075Y380187D01*
Y380813D01*
X487835Y381392D01*
X487392Y381835D01*
X487265Y381888D01*
Y384183D01*
X488559Y385478D01*
X488687Y385425D01*
X489313D01*
X489892Y385665D01*
X490335Y386108D01*
X490575Y386687D01*
Y387313D01*
X490335Y387892D01*
X489892Y388335D01*
X489313Y388575D01*
D02*
G37*
G36*
X383676Y403150D02*
X382663D01*
X381685Y402887D01*
X380807Y402381D01*
X380091Y401665D01*
X379585Y400788D01*
X379323Y399810D01*
Y398797D01*
X379585Y397818D01*
X380091Y396941D01*
X380807Y396225D01*
X381685Y395719D01*
X382035Y395625D01*
Y395107D01*
X381685Y395013D01*
X380807Y394507D01*
X380091Y393791D01*
X379585Y392914D01*
X379323Y391935D01*
Y390923D01*
X379585Y389945D01*
X380091Y389067D01*
X380807Y388351D01*
X381685Y387845D01*
X382663Y387583D01*
X383676D01*
X384654Y387845D01*
X385531Y388351D01*
X386247Y389067D01*
X386754Y389945D01*
X386947Y390664D01*
X392643D01*
X401113Y382194D01*
Y381694D01*
X400959Y381541D01*
X400794Y381293D01*
X400735Y381000D01*
Y379888D01*
X400608Y379835D01*
X400165Y379392D01*
X399925Y378813D01*
Y378187D01*
X400165Y377608D01*
X400608Y377165D01*
X401187Y376925D01*
X401813D01*
X402392Y377165D01*
X402835Y377608D01*
X403075Y378187D01*
Y378813D01*
X402835Y379392D01*
X402392Y379835D01*
X402299Y379874D01*
Y380350D01*
X402765Y380543D01*
X419113Y364194D01*
X418683Y363765D01*
X417714D01*
X417575Y363904D01*
Y364313D01*
X417335Y364892D01*
X416892Y365335D01*
X416313Y365575D01*
X415687D01*
X415108Y365335D01*
X414665Y364892D01*
X414425Y364313D01*
Y363687D01*
X414665Y363108D01*
X415108Y362665D01*
X415687Y362425D01*
X416313D01*
X416722Y362594D01*
X416857Y362459D01*
X416857Y362459D01*
X417105Y362294D01*
X417397Y362235D01*
X419000D01*
X419293Y362294D01*
X419541Y362459D01*
X420194Y363113D01*
X433081Y350227D01*
X432890Y349765D01*
X389453D01*
Y350455D01*
X389217Y351333D01*
X388763Y352120D01*
X388120Y352763D01*
X387333Y353218D01*
X386455Y353453D01*
X385545D01*
X384667Y353218D01*
X383880Y352763D01*
X383237Y352120D01*
X382783Y351333D01*
X382547Y350455D01*
Y349545D01*
X382783Y348667D01*
X383237Y347880D01*
X383880Y347237D01*
X384667Y346782D01*
X385545Y346547D01*
X386455D01*
X387333Y346782D01*
X388120Y347237D01*
X388763Y347880D01*
X388968Y348235D01*
X447786D01*
X447925Y348096D01*
Y347687D01*
X448165Y347108D01*
X448608Y346665D01*
X449187Y346425D01*
X449813D01*
X450392Y346665D01*
X450639Y346912D01*
X451016Y347022D01*
X451278Y346898D01*
X451565Y346610D01*
X452144Y346370D01*
X452771D01*
X453349Y346610D01*
X453792Y347053D01*
X454032Y347632D01*
Y348258D01*
X453792Y348837D01*
X453349Y349280D01*
X453245Y349323D01*
X453128Y349913D01*
X453335Y350120D01*
X453575Y350699D01*
Y351325D01*
X453335Y351904D01*
X452892Y352347D01*
X452313Y352587D01*
X451687D01*
X451108Y352347D01*
X450665Y351904D01*
X450612Y351777D01*
X435219D01*
X422039Y364957D01*
X423041Y365959D01*
X423207Y366207D01*
X423265Y366500D01*
Y368473D01*
X423207Y368765D01*
X423041Y369014D01*
X423041Y369014D01*
X423014Y369040D01*
X423075Y369187D01*
Y369813D01*
X422835Y370392D01*
X422392Y370835D01*
X421813Y371075D01*
X421187D01*
X420608Y370835D01*
X420165Y370392D01*
X419925Y369813D01*
Y369187D01*
X420165Y368608D01*
X420608Y368165D01*
X421187Y367925D01*
X421735D01*
Y366817D01*
X420957Y366038D01*
X404300Y382696D01*
X404839Y383235D01*
X405612D01*
X405665Y383108D01*
X406108Y382665D01*
X406687Y382425D01*
X407313D01*
X407892Y382665D01*
X408335Y383108D01*
X408575Y383687D01*
Y384313D01*
X408335Y384892D01*
X407892Y385335D01*
X407313Y385575D01*
X406687D01*
X406108Y385335D01*
X405665Y384892D01*
X405612Y384765D01*
X404522D01*
X404230Y384706D01*
X403981Y384541D01*
X403218Y383777D01*
X387514Y399482D01*
X387265Y399648D01*
X387016Y399697D01*
Y399810D01*
X386754Y400788D01*
X386247Y401665D01*
X385531Y402381D01*
X384654Y402887D01*
X383676Y403150D01*
D02*
G37*
G36*
Y385433D02*
X383419D01*
Y381837D01*
X387016D01*
Y382093D01*
X386754Y383071D01*
X386247Y383948D01*
X385531Y384665D01*
X384654Y385171D01*
X383676Y385433D01*
D02*
G37*
G36*
X382919D02*
X382663D01*
X381685Y385171D01*
X380807Y384665D01*
X380091Y383948D01*
X379585Y383071D01*
X379323Y382093D01*
Y381837D01*
X382919D01*
Y385433D01*
D02*
G37*
G36*
X387016Y381337D02*
X383419D01*
Y377740D01*
X383676D01*
X384654Y378002D01*
X385531Y378509D01*
X386247Y379225D01*
X386754Y380102D01*
X387016Y381080D01*
Y381337D01*
D02*
G37*
G36*
X382919D02*
X379323D01*
Y381080D01*
X379585Y380102D01*
X380091Y379225D01*
X380807Y378509D01*
X381685Y378002D01*
X382663Y377740D01*
X382919D01*
Y381337D01*
D02*
G37*
G36*
X373131Y375905D02*
X372750D01*
Y369750D01*
X378906D01*
Y370131D01*
X378659Y371368D01*
X378176Y372534D01*
X377476Y373583D01*
X376583Y374476D01*
X375534Y375177D01*
X374368Y375659D01*
X373131Y375905D01*
D02*
G37*
G36*
X372250D02*
X371869D01*
X370632Y375659D01*
X369466Y375177D01*
X368417Y374476D01*
X367525Y373583D01*
X366824Y372534D01*
X366341Y371368D01*
X366094Y370131D01*
Y369750D01*
X372250D01*
Y375905D01*
D02*
G37*
G36*
X378906Y369250D02*
X372750D01*
Y363094D01*
X373131D01*
X374368Y363341D01*
X375534Y363824D01*
X376583Y364525D01*
X377476Y365417D01*
X378176Y366466D01*
X378659Y367632D01*
X378906Y368869D01*
Y369250D01*
D02*
G37*
G36*
X372250D02*
X366094D01*
Y368869D01*
X366341Y367632D01*
X366824Y366466D01*
X367525Y365417D01*
X368417Y364525D01*
X369466Y363824D01*
X370632Y363341D01*
X371869Y363094D01*
X372250D01*
Y369250D01*
D02*
G37*
G36*
X456113Y365775D02*
X455487D01*
X454908Y365535D01*
X454465Y365092D01*
X454225Y364513D01*
Y363887D01*
X454465Y363308D01*
X454908Y362865D01*
X455035Y362812D01*
Y335217D01*
X452483Y332665D01*
X448388D01*
X448335Y332792D01*
X447892Y333235D01*
X447313Y333475D01*
X446687D01*
X446108Y333235D01*
X445665Y332792D01*
X445425Y332213D01*
Y331587D01*
X445665Y331008D01*
X446108Y330565D01*
X446687Y330325D01*
X447313D01*
X447892Y330565D01*
X448335Y331008D01*
X448388Y331135D01*
X452800D01*
X453093Y331193D01*
X453341Y331359D01*
X456341Y334359D01*
X456506Y334607D01*
X456565Y334900D01*
Y354217D01*
X457065Y354317D01*
X457151Y354108D01*
X457594Y353665D01*
X458173Y353425D01*
X458800D01*
X459378Y353665D01*
X459821Y354108D01*
X460061Y354687D01*
Y355313D01*
X459821Y355892D01*
X459378Y356335D01*
X459258Y356385D01*
Y360109D01*
X459392Y360165D01*
X459835Y360608D01*
X460075Y361187D01*
Y361813D01*
X459835Y362392D01*
X459392Y362835D01*
X458813Y363075D01*
X458187D01*
X457608Y362835D01*
X457165Y362392D01*
X457065Y362150D01*
X456565Y362249D01*
Y362812D01*
X456692Y362865D01*
X457135Y363308D01*
X457375Y363887D01*
Y364513D01*
X457135Y365092D01*
X456692Y365535D01*
X456113Y365775D01*
D02*
G37*
G36*
X356455Y353453D02*
X356250D01*
Y350250D01*
X359453D01*
Y350455D01*
X359218Y351333D01*
X358763Y352120D01*
X358120Y352763D01*
X357333Y353218D01*
X356455Y353453D01*
D02*
G37*
G36*
X355750D02*
X355545D01*
X354667Y353218D01*
X353880Y352763D01*
X353237Y352120D01*
X352783Y351333D01*
X352547Y350455D01*
Y350250D01*
X355750D01*
Y353453D01*
D02*
G37*
G36*
X359453Y349750D02*
X356250D01*
Y346547D01*
X356455D01*
X357333Y346782D01*
X358120Y347237D01*
X358763Y347880D01*
X359218Y348667D01*
X359453Y349545D01*
Y349750D01*
D02*
G37*
G36*
X355750D02*
X352547D01*
Y349545D01*
X352783Y348667D01*
X353237Y347880D01*
X353880Y347237D01*
X354667Y346782D01*
X355545Y346547D01*
X355750D01*
Y349750D01*
D02*
G37*
G36*
X537968Y348357D02*
X534031D01*
X533130Y348238D01*
X532290Y347890D01*
X531569Y347337D01*
X531015Y346615D01*
X530668Y345775D01*
X530374Y345639D01*
X530081Y345581D01*
X529833Y345415D01*
X529833Y345415D01*
X522941Y338522D01*
X522813Y338575D01*
X522187D01*
X521608Y338335D01*
X521165Y337892D01*
X520925Y337313D01*
Y336687D01*
X521165Y336108D01*
X521608Y335665D01*
X522187Y335425D01*
X522813D01*
X523392Y335665D01*
X523835Y336108D01*
X524075Y336687D01*
Y337313D01*
X524022Y337441D01*
X530252Y343670D01*
X530841Y343553D01*
X531015Y343133D01*
X531569Y342411D01*
X532290Y341858D01*
X533130Y341510D01*
X534031Y341391D01*
X537968D01*
X538870Y341510D01*
X539710Y341858D01*
X540431Y342411D01*
X540984Y343133D01*
X541332Y343973D01*
X541451Y344874D01*
X541332Y345775D01*
X540984Y346615D01*
X540431Y347337D01*
X539710Y347890D01*
X538870Y348238D01*
X537968Y348357D01*
D02*
G37*
G36*
X439813Y343275D02*
X439187D01*
X438608Y343035D01*
X438191Y342618D01*
X433100D01*
X432749Y342548D01*
X432451Y342349D01*
X430276Y340174D01*
X423272D01*
Y341331D01*
X418728D01*
Y340174D01*
X417272D01*
Y341331D01*
X412728D01*
Y340174D01*
X411272D01*
Y341331D01*
X406728D01*
Y337181D01*
X411272D01*
Y338338D01*
X412728D01*
Y337181D01*
X417272D01*
Y338338D01*
X418728D01*
Y337181D01*
X423272D01*
Y338338D01*
X430656D01*
X431007Y338408D01*
X431305Y338607D01*
X433480Y340782D01*
X438191D01*
X438608Y340365D01*
X439187Y340125D01*
X439813D01*
X440392Y340365D01*
X440835Y340808D01*
X441075Y341387D01*
Y342013D01*
X440835Y342592D01*
X440392Y343035D01*
X439813Y343275D01*
D02*
G37*
G36*
X537968Y340482D02*
X534031D01*
X533130Y340364D01*
X532290Y340016D01*
X531569Y339462D01*
X531015Y338741D01*
X530668Y337901D01*
X530599Y337382D01*
X530329Y337328D01*
X530081Y337162D01*
X524441Y331522D01*
X524313Y331575D01*
X523687D01*
X523108Y331335D01*
X522665Y330892D01*
X522425Y330313D01*
Y329687D01*
X522665Y329108D01*
X523108Y328665D01*
X523687Y328425D01*
X524313D01*
X524892Y328665D01*
X525335Y329108D01*
X525575Y329687D01*
Y330313D01*
X525522Y330441D01*
X530459Y335378D01*
X530956Y335314D01*
X531029Y335241D01*
X531569Y334538D01*
X532290Y333984D01*
X533130Y333636D01*
X534031Y333518D01*
X537968D01*
X538870Y333636D01*
X539710Y333984D01*
X540431Y334538D01*
X540984Y335259D01*
X541332Y336099D01*
X541451Y337000D01*
X541332Y337901D01*
X540984Y338741D01*
X540431Y339462D01*
X539710Y340016D01*
X538870Y340364D01*
X537968Y340482D01*
D02*
G37*
G36*
X376455Y353453D02*
X375545D01*
X374667Y353218D01*
X373880Y352763D01*
X373237Y352120D01*
X372782Y351333D01*
X372547Y350455D01*
Y349545D01*
X372782Y348667D01*
X373237Y347880D01*
X373880Y347237D01*
X374667Y346782D01*
X375545Y346547D01*
X376455D01*
X377333Y346782D01*
X377842Y347077D01*
X391459Y333459D01*
X391707Y333294D01*
X392000Y333235D01*
X392000Y333235D01*
X398112D01*
X398165Y333108D01*
X398608Y332665D01*
X399187Y332425D01*
X399813D01*
X400392Y332665D01*
X400835Y333108D01*
X401075Y333687D01*
Y334313D01*
X400835Y334892D01*
X400392Y335335D01*
X399813Y335575D01*
X399187D01*
X398608Y335335D01*
X398165Y334892D01*
X398112Y334765D01*
X392317D01*
X378923Y348158D01*
X379218Y348667D01*
X379453Y349545D01*
Y350455D01*
X379218Y351333D01*
X378763Y352120D01*
X378120Y352763D01*
X377333Y353218D01*
X376455Y353453D01*
D02*
G37*
G36*
X411272Y335819D02*
X406728D01*
Y331669D01*
X407735D01*
X407942Y331169D01*
X407665Y330892D01*
X407425Y330313D01*
Y329687D01*
X407665Y329108D01*
X408108Y328665D01*
X408687Y328425D01*
X409313D01*
X409892Y328665D01*
X410335Y329108D01*
X410575Y329687D01*
Y330313D01*
X410335Y330892D01*
X410058Y331169D01*
X410265Y331669D01*
X411272D01*
Y335819D01*
D02*
G37*
G36*
X417272D02*
X412728D01*
Y331669D01*
X414235D01*
Y329388D01*
X414108Y329335D01*
X413665Y328892D01*
X413425Y328313D01*
Y327687D01*
X413665Y327108D01*
X414108Y326665D01*
X414687Y326425D01*
X415313D01*
X415892Y326665D01*
X416335Y327108D01*
X416575Y327687D01*
Y328313D01*
X416335Y328892D01*
X415892Y329335D01*
X415765Y329388D01*
Y331669D01*
X417272D01*
Y335819D01*
D02*
G37*
G36*
X423272D02*
X418728D01*
Y331669D01*
X420235D01*
Y325388D01*
X420108Y325335D01*
X419665Y324892D01*
X419425Y324313D01*
Y323687D01*
X419665Y323108D01*
X420108Y322665D01*
X420687Y322425D01*
X421313D01*
X421892Y322665D01*
X422335Y323108D01*
X422575Y323687D01*
Y324313D01*
X422335Y324892D01*
X421892Y325335D01*
X421765Y325388D01*
Y331669D01*
X423272D01*
Y335819D01*
D02*
G37*
G36*
X366455Y353453D02*
X365545D01*
X364667Y353218D01*
X363880Y352763D01*
X363237Y352120D01*
X362783Y351333D01*
X362547Y350455D01*
Y349545D01*
X362783Y348667D01*
X363237Y347880D01*
X363880Y347237D01*
X364667Y346782D01*
X365545Y346547D01*
X366455D01*
X367333Y346782D01*
X367842Y347077D01*
X393459Y321459D01*
X393707Y321293D01*
X394000Y321235D01*
X411112D01*
X411165Y321108D01*
X411608Y320665D01*
X412187Y320425D01*
X412813D01*
X413392Y320665D01*
X413835Y321108D01*
X414075Y321687D01*
Y322313D01*
X413835Y322892D01*
X413392Y323335D01*
X412813Y323575D01*
X412187D01*
X411608Y323335D01*
X411165Y322892D01*
X411112Y322765D01*
X394317D01*
X368923Y348158D01*
X369217Y348667D01*
X369453Y349545D01*
Y350455D01*
X369217Y351333D01*
X368763Y352120D01*
X368120Y352763D01*
X367333Y353218D01*
X366455Y353453D01*
D02*
G37*
G36*
X397813Y310575D02*
X397187D01*
X396608Y310335D01*
X396165Y309892D01*
X396112Y309765D01*
X393888D01*
X393835Y309892D01*
X393392Y310335D01*
X392813Y310575D01*
X392187D01*
X391608Y310335D01*
X391165Y309892D01*
X390925Y309313D01*
Y308687D01*
X391165Y308108D01*
X391608Y307665D01*
X392187Y307425D01*
X392813D01*
X393392Y307665D01*
X393835Y308108D01*
X393888Y308235D01*
X396112D01*
X396165Y308108D01*
X396608Y307665D01*
X397187Y307425D01*
X397813D01*
X398392Y307665D01*
X398835Y308108D01*
X399075Y308687D01*
Y309313D01*
X398835Y309892D01*
X398392Y310335D01*
X397813Y310575D01*
D02*
G37*
G36*
X404955Y284453D02*
X404750D01*
Y281250D01*
X407953D01*
Y281455D01*
X407718Y282333D01*
X407263Y283120D01*
X406620Y283763D01*
X405833Y284218D01*
X404955Y284453D01*
D02*
G37*
G36*
X404250D02*
X404045D01*
X403167Y284218D01*
X402380Y283763D01*
X401737Y283120D01*
X401283Y282333D01*
X401047Y281455D01*
Y281250D01*
X404250D01*
Y284453D01*
D02*
G37*
G36*
X531500Y284951D02*
X530599Y284832D01*
X529759Y284485D01*
X529038Y283931D01*
X528484Y283210D01*
X528136Y282370D01*
X528018Y281469D01*
Y280265D01*
X527000D01*
X527000Y280265D01*
X526707Y280206D01*
X526459Y280041D01*
X522441Y276022D01*
X522313Y276075D01*
X521687D01*
X521108Y275835D01*
X520665Y275392D01*
X520425Y274813D01*
Y274187D01*
X520665Y273608D01*
X521108Y273165D01*
X521687Y272925D01*
X522313D01*
X522892Y273165D01*
X523335Y273608D01*
X523575Y274187D01*
Y274813D01*
X523522Y274941D01*
X527317Y278735D01*
X528018D01*
Y277532D01*
X528136Y276630D01*
X528484Y275790D01*
X529038Y275069D01*
X529759Y274516D01*
X530599Y274168D01*
X531500Y274049D01*
X532401Y274168D01*
X533241Y274516D01*
X533962Y275069D01*
X534516Y275790D01*
X534864Y276630D01*
X534982Y277532D01*
Y281469D01*
X534864Y282370D01*
X534516Y283210D01*
X533962Y283931D01*
X533241Y284485D01*
X532401Y284832D01*
X531500Y284951D01*
D02*
G37*
G36*
X539624Y284918D02*
Y279750D01*
X542857D01*
Y281469D01*
X542738Y282370D01*
X542390Y283210D01*
X541837Y283931D01*
X541115Y284485D01*
X540275Y284832D01*
X539624Y284918D01*
D02*
G37*
G36*
X539124D02*
X538473Y284832D01*
X537633Y284485D01*
X536911Y283931D01*
X536358Y283210D01*
X536010Y282370D01*
X535891Y281469D01*
Y279750D01*
X539124D01*
Y284918D01*
D02*
G37*
G36*
X542857Y279250D02*
X539624D01*
Y274082D01*
X540275Y274168D01*
X541115Y274516D01*
X541837Y275069D01*
X542390Y275790D01*
X542738Y276630D01*
X542857Y277532D01*
Y279250D01*
D02*
G37*
G36*
X539124D02*
X535891D01*
Y277532D01*
X536010Y276630D01*
X536358Y275790D01*
X536911Y275069D01*
X537633Y274516D01*
X538473Y274168D01*
X539124Y274082D01*
Y279250D01*
D02*
G37*
G36*
X495613Y286375D02*
X494987D01*
X494408Y286135D01*
X493965Y285692D01*
X493725Y285113D01*
Y284487D01*
X493965Y283908D01*
X494180Y283693D01*
Y261490D01*
Y239620D01*
X486807D01*
X486492Y239935D01*
X485913Y240175D01*
X485287D01*
X484708Y239935D01*
X484265Y239492D01*
X484025Y238913D01*
Y238287D01*
X484265Y237708D01*
X484708Y237265D01*
X485287Y237025D01*
X485913D01*
X486492Y237265D01*
X486807Y237580D01*
X500693D01*
X501008Y237265D01*
X501587Y237025D01*
X502213D01*
X502792Y237265D01*
X503235Y237708D01*
X503475Y238287D01*
Y238913D01*
X503235Y239492D01*
X502792Y239935D01*
X502213Y240175D01*
X501587D01*
X501008Y239935D01*
X500693Y239620D01*
X496220D01*
Y260471D01*
X500732D01*
X501047Y260155D01*
X501626Y259915D01*
X502253D01*
X502831Y260155D01*
X503274Y260598D01*
X503514Y261177D01*
Y261803D01*
X503274Y262382D01*
X502831Y262825D01*
X502253Y263065D01*
X501626D01*
X501047Y262825D01*
X500732Y262510D01*
X496220D01*
Y283492D01*
X496635Y283908D01*
X496875Y284487D01*
Y285113D01*
X496635Y285692D01*
X496192Y286135D01*
X495613Y286375D01*
D02*
G37*
G36*
X412955Y271953D02*
X412045D01*
X411167Y271718D01*
X410380Y271263D01*
X409737Y270620D01*
X409282Y269833D01*
X409047Y268955D01*
Y268045D01*
X409282Y267167D01*
X409737Y266380D01*
X410380Y265737D01*
X411167Y265283D01*
X411735Y265130D01*
Y259888D01*
X411608Y259835D01*
X411165Y259392D01*
X410925Y258813D01*
Y258187D01*
X411165Y257608D01*
X411608Y257165D01*
X412187Y256925D01*
X412813D01*
X413392Y257165D01*
X413835Y257608D01*
X414075Y258187D01*
Y258813D01*
X413835Y259392D01*
X413392Y259835D01*
X413265Y259888D01*
Y265130D01*
X413833Y265283D01*
X414620Y265737D01*
X415263Y266380D01*
X415718Y267167D01*
X415953Y268045D01*
Y268955D01*
X415718Y269833D01*
X415263Y270620D01*
X414620Y271263D01*
X413833Y271718D01*
X412955Y271953D01*
D02*
G37*
G36*
X539687Y261918D02*
Y256750D01*
X542919D01*
Y258469D01*
X542801Y259370D01*
X542453Y260210D01*
X541899Y260931D01*
X541178Y261485D01*
X540338Y261832D01*
X539687Y261918D01*
D02*
G37*
G36*
X539187D02*
X538536Y261832D01*
X537696Y261485D01*
X536974Y260931D01*
X536421Y260210D01*
X536073Y259370D01*
X535955Y258469D01*
Y256750D01*
X539187D01*
Y261918D01*
D02*
G37*
G36*
X542919Y256250D02*
X539687D01*
Y251082D01*
X540338Y251168D01*
X541178Y251516D01*
X541899Y252069D01*
X542453Y252790D01*
X542801Y253630D01*
X542919Y254532D01*
Y256250D01*
D02*
G37*
G36*
X539187D02*
X535955D01*
Y254532D01*
X536073Y253630D01*
X536421Y252790D01*
X536974Y252069D01*
X537696Y251516D01*
X538536Y251168D01*
X539187Y251082D01*
Y256250D01*
D02*
G37*
G36*
X531563Y261951D02*
X530662Y261832D01*
X529822Y261485D01*
X529101Y260931D01*
X528547Y260210D01*
X528199Y259370D01*
X528081Y258469D01*
Y257265D01*
X527000D01*
X526707Y257207D01*
X526459Y257041D01*
X521441Y252022D01*
X521313Y252075D01*
X520687D01*
X520108Y251835D01*
X519665Y251392D01*
X519425Y250813D01*
Y250187D01*
X519665Y249608D01*
X520108Y249165D01*
X520687Y248925D01*
X521313D01*
X521892Y249165D01*
X522335Y249608D01*
X522575Y250187D01*
Y250813D01*
X522522Y250941D01*
X527317Y255735D01*
X528081D01*
Y254532D01*
X528199Y253630D01*
X528547Y252790D01*
X529101Y252069D01*
X529822Y251516D01*
X530662Y251168D01*
X531563Y251049D01*
X532464Y251168D01*
X533304Y251516D01*
X534025Y252069D01*
X534579Y252790D01*
X534927Y253630D01*
X535045Y254532D01*
Y258469D01*
X534927Y259370D01*
X534579Y260210D01*
X534025Y260931D01*
X533304Y261485D01*
X532464Y261832D01*
X531563Y261951D01*
D02*
G37*
G36*
X464750Y243918D02*
Y238750D01*
X467982D01*
Y240469D01*
X467864Y241370D01*
X467516Y242210D01*
X466962Y242931D01*
X466241Y243484D01*
X465401Y243832D01*
X464750Y243918D01*
D02*
G37*
G36*
X464250D02*
X463599Y243832D01*
X462759Y243484D01*
X462038Y242931D01*
X461484Y242210D01*
X461136Y241370D01*
X461018Y240469D01*
Y238750D01*
X464250D01*
Y243918D01*
D02*
G37*
G36*
X441128D02*
Y238750D01*
X444360D01*
Y240469D01*
X444242Y241370D01*
X443894Y242210D01*
X443340Y242931D01*
X442619Y243484D01*
X441779Y243832D01*
X441128Y243918D01*
D02*
G37*
G36*
X440628D02*
X439977Y243832D01*
X439137Y243484D01*
X438415Y242931D01*
X437862Y242210D01*
X437514Y241370D01*
X437395Y240469D01*
Y238750D01*
X440628D01*
Y243918D01*
D02*
G37*
G36*
X539624Y238918D02*
Y233750D01*
X542857D01*
Y235469D01*
X542738Y236370D01*
X542390Y237210D01*
X541837Y237931D01*
X541115Y238485D01*
X540275Y238832D01*
X539624Y238918D01*
D02*
G37*
G36*
X539124D02*
X538473Y238832D01*
X537633Y238485D01*
X536911Y237931D01*
X536358Y237210D01*
X536010Y236370D01*
X535891Y235469D01*
Y233750D01*
X539124D01*
Y238918D01*
D02*
G37*
G36*
X467982Y238250D02*
X464750D01*
Y233082D01*
X465401Y233168D01*
X466241Y233516D01*
X466962Y234069D01*
X467516Y234790D01*
X467864Y235630D01*
X467982Y236531D01*
Y238250D01*
D02*
G37*
G36*
X464250D02*
X461018D01*
Y236531D01*
X461136Y235630D01*
X461484Y234790D01*
X462038Y234069D01*
X462759Y233516D01*
X463599Y233168D01*
X464250Y233082D01*
Y238250D01*
D02*
G37*
G36*
X444360D02*
X441128D01*
Y233082D01*
X441779Y233168D01*
X442619Y233516D01*
X443340Y234069D01*
X443894Y234790D01*
X444242Y235630D01*
X444360Y236531D01*
Y238250D01*
D02*
G37*
G36*
X440628D02*
X437395D01*
Y236531D01*
X437514Y235630D01*
X437862Y234790D01*
X438415Y234069D01*
X439137Y233516D01*
X439977Y233168D01*
X440628Y233082D01*
Y238250D01*
D02*
G37*
G36*
X462413Y268875D02*
X461787D01*
X461208Y268635D01*
X460765Y268192D01*
X460525Y267613D01*
Y266987D01*
X460765Y266408D01*
X461208Y265965D01*
X461787Y265725D01*
X462413D01*
X462541Y265778D01*
X471609Y256709D01*
Y243850D01*
X471473Y243832D01*
X470633Y243484D01*
X469911Y242931D01*
X469358Y242210D01*
X469010Y241370D01*
X468891Y240469D01*
Y236531D01*
X469010Y235630D01*
X469358Y234790D01*
X469911Y234069D01*
X470633Y233516D01*
X471473Y233168D01*
X472374Y233049D01*
X473275Y233168D01*
X474115Y233516D01*
X474836Y234069D01*
X475390Y234790D01*
X475738Y235630D01*
X475857Y236531D01*
Y240469D01*
X475738Y241370D01*
X475390Y242210D01*
X474836Y242931D01*
X474115Y243484D01*
X473275Y243832D01*
X473139Y243850D01*
Y257026D01*
X473080Y257319D01*
X472915Y257567D01*
X463622Y266859D01*
X463675Y266987D01*
Y267613D01*
X463435Y268192D01*
X462992Y268635D01*
X462413Y268875D01*
D02*
G37*
G36*
X542857Y233250D02*
X539624D01*
Y228082D01*
X540275Y228168D01*
X541115Y228516D01*
X541837Y229069D01*
X542390Y229790D01*
X542738Y230630D01*
X542857Y231532D01*
Y233250D01*
D02*
G37*
G36*
X539124D02*
X535891D01*
Y231532D01*
X536010Y230630D01*
X536358Y229790D01*
X536911Y229069D01*
X537633Y228516D01*
X538473Y228168D01*
X539124Y228082D01*
Y233250D01*
D02*
G37*
G36*
X531500Y238951D02*
X530599Y238832D01*
X529759Y238485D01*
X529038Y237931D01*
X528484Y237210D01*
X528136Y236370D01*
X528018Y235469D01*
Y234265D01*
X527000D01*
X526707Y234207D01*
X526459Y234041D01*
X520941Y228522D01*
X520813Y228575D01*
X520187D01*
X519608Y228335D01*
X519165Y227892D01*
X518925Y227313D01*
Y226687D01*
X519165Y226108D01*
X519608Y225665D01*
X520187Y225425D01*
X520813D01*
X521392Y225665D01*
X521835Y226108D01*
X522075Y226687D01*
Y227313D01*
X522022Y227441D01*
X527317Y232735D01*
X528018D01*
Y231532D01*
X528136Y230630D01*
X528484Y229790D01*
X529038Y229069D01*
X529759Y228516D01*
X530599Y228168D01*
X531500Y228049D01*
X532401Y228168D01*
X533241Y228516D01*
X533962Y229069D01*
X534516Y229790D01*
X534864Y230630D01*
X534982Y231532D01*
Y235469D01*
X534864Y236370D01*
X534516Y237210D01*
X533962Y237931D01*
X533241Y238485D01*
X532401Y238832D01*
X531500Y238951D01*
D02*
G37*
G36*
X385363Y229256D02*
X384637D01*
X383936Y229068D01*
X383308Y228705D01*
X382795Y228192D01*
X382432Y227564D01*
X382244Y226863D01*
Y226137D01*
X382432Y225436D01*
X382795Y224808D01*
X383308Y224295D01*
X383936Y223932D01*
X384637Y223744D01*
X385363D01*
X386064Y223932D01*
X386692Y224295D01*
X387205Y224808D01*
X387568Y225436D01*
X387756Y226137D01*
Y226863D01*
X387568Y227564D01*
X387205Y228192D01*
X386692Y228705D01*
X386064Y229068D01*
X385363Y229256D01*
D02*
G37*
G36*
X356887Y229768D02*
X356027D01*
X355195Y229545D01*
X354450Y229115D01*
X353842Y228506D01*
X353412Y227761D01*
X353189Y226930D01*
Y226070D01*
X353412Y225239D01*
X353842Y224494D01*
X354450Y223885D01*
X355195Y223455D01*
X356027Y223232D01*
X356887D01*
X357718Y223455D01*
X358463Y223885D01*
X359071Y224494D01*
X359502Y225239D01*
X359724Y226070D01*
Y226930D01*
X359502Y227761D01*
X359071Y228506D01*
X358463Y229115D01*
X357718Y229545D01*
X356887Y229768D01*
D02*
G37*
G36*
X439250Y213922D02*
Y208750D01*
X442979D01*
Y209976D01*
X442843Y211006D01*
X442446Y211966D01*
X441814Y212790D01*
X440989Y213422D01*
X440030Y213820D01*
X439250Y213922D01*
D02*
G37*
G36*
X469750D02*
Y208750D01*
X473479D01*
Y209976D01*
X473343Y211006D01*
X472946Y211966D01*
X472313Y212790D01*
X471489Y213422D01*
X470530Y213820D01*
X469750Y213922D01*
D02*
G37*
G36*
X438750D02*
X437970Y213820D01*
X437010Y213422D01*
X436187Y212790D01*
X435554Y211966D01*
X435157Y211006D01*
X435021Y209976D01*
Y208750D01*
X438750D01*
Y213922D01*
D02*
G37*
G36*
X469250D02*
X468470Y213820D01*
X467511Y213422D01*
X466686Y212790D01*
X466054Y211966D01*
X465657Y211006D01*
X465521Y209976D01*
Y208750D01*
X469250D01*
Y213922D01*
D02*
G37*
G36*
X473479Y208250D02*
X469750D01*
Y203078D01*
X470530Y203180D01*
X471489Y203578D01*
X472313Y204210D01*
X472946Y205034D01*
X473343Y205994D01*
X473479Y207024D01*
Y208250D01*
D02*
G37*
G36*
X442979D02*
X439250D01*
Y203078D01*
X440030Y203180D01*
X440989Y203578D01*
X441814Y204210D01*
X442446Y205034D01*
X442843Y205994D01*
X442979Y207024D01*
Y208250D01*
D02*
G37*
G36*
X469250D02*
X465521D01*
Y207024D01*
X465657Y205994D01*
X466054Y205034D01*
X466686Y204210D01*
X467511Y203578D01*
X468470Y203180D01*
X469250Y203078D01*
Y208250D01*
D02*
G37*
G36*
X438750D02*
X435021D01*
Y207024D01*
X435157Y205994D01*
X435554Y205034D01*
X436187Y204210D01*
X437010Y203578D01*
X437970Y203180D01*
X438750Y203078D01*
Y208250D01*
D02*
G37*
G36*
X447720Y249890D02*
X447093D01*
X446515Y249650D01*
X446072Y249207D01*
X445832Y248629D01*
Y248002D01*
X446072Y247423D01*
X446515Y246980D01*
X447093Y246741D01*
X447540D01*
X447732Y246548D01*
Y243783D01*
X447011Y243484D01*
X446289Y242931D01*
X445736Y242210D01*
X445388Y241370D01*
X445269Y240469D01*
Y236531D01*
X445388Y235630D01*
X445736Y234790D01*
X446289Y234069D01*
X447011Y233516D01*
X447851Y233168D01*
X447856Y233167D01*
Y213773D01*
X447011Y213422D01*
X446186Y212790D01*
X445554Y211966D01*
X445157Y211006D01*
X445021Y209976D01*
Y207024D01*
X445157Y205994D01*
X445554Y205034D01*
X446186Y204210D01*
X447011Y203578D01*
X447970Y203180D01*
X449000Y203045D01*
X450030Y203180D01*
X450989Y203578D01*
X451814Y204210D01*
X452446Y205034D01*
X452843Y205994D01*
X452979Y207024D01*
Y209976D01*
X452843Y211006D01*
X452446Y211966D01*
X451814Y212790D01*
X450989Y213422D01*
X450030Y213820D01*
X449896Y213837D01*
Y233268D01*
X450493Y233516D01*
X451215Y234069D01*
X451768Y234790D01*
X452116Y235630D01*
X452235Y236531D01*
Y240469D01*
X452116Y241370D01*
X451768Y242210D01*
X451215Y242931D01*
X450493Y243484D01*
X449772Y243783D01*
Y246970D01*
X449694Y247360D01*
X449473Y247691D01*
X448982Y248183D01*
Y248629D01*
X448742Y249207D01*
X448299Y249650D01*
X447720Y249890D01*
D02*
G37*
G36*
X479500Y213955D02*
X478470Y213820D01*
X477510Y213422D01*
X476686Y212790D01*
X476054Y211966D01*
X475657Y211006D01*
X475521Y209976D01*
Y207024D01*
X475657Y205994D01*
X476054Y205034D01*
X476686Y204210D01*
X477510Y203578D01*
X478470Y203180D01*
X479500Y203045D01*
X480530Y203180D01*
X481490Y203578D01*
X482313Y204210D01*
X482946Y205034D01*
X483343Y205994D01*
X483403Y206448D01*
X483931Y206627D01*
X488579Y201979D01*
X488910Y201758D01*
X489300Y201680D01*
X491493D01*
X491808Y201365D01*
X492387Y201125D01*
X493013D01*
X493592Y201365D01*
X494035Y201808D01*
X494275Y202387D01*
Y203013D01*
X494035Y203592D01*
X493592Y204035D01*
X493013Y204275D01*
X492387D01*
X491808Y204035D01*
X491493Y203720D01*
X489722D01*
X484580Y208862D01*
X484249Y209083D01*
X483859Y209160D01*
X483479D01*
Y209976D01*
X483343Y211006D01*
X482946Y211966D01*
X482313Y212790D01*
X481490Y213422D01*
X480530Y213820D01*
X479500Y213955D01*
D02*
G37*
%LPD*%
D22*
X479856Y360300D02*
D03*
X474344D02*
D03*
X479912Y370300D02*
D03*
X474400D02*
D03*
D23*
X409000Y333744D02*
D03*
Y339256D02*
D03*
X415000Y333744D02*
D03*
Y339256D02*
D03*
X421000Y333744D02*
D03*
Y339256D02*
D03*
D79*
X447407Y248315D02*
X448752Y246970D01*
Y238500D02*
Y246970D01*
Y238500D02*
X448876Y238376D01*
X474344Y356456D02*
Y360300D01*
Y356456D02*
X479800Y351000D01*
X474400Y370300D02*
Y396900D01*
Y420100D02*
X481700Y427400D01*
X474400Y396900D02*
Y420100D01*
Y360356D02*
Y370300D01*
X469000Y452685D02*
X498500D01*
X481700Y427400D02*
Y452100D01*
X409579Y452764D02*
X439421D01*
X495200Y261490D02*
Y284700D01*
X495300Y284800D01*
X495200Y238600D02*
Y261490D01*
X495200Y261490D02*
X501939D01*
X495200Y261490D02*
X495200Y261490D01*
X452200Y276200D02*
X452300Y276100D01*
X381900Y283100D02*
X388800Y276200D01*
X424482D02*
X452200D01*
X388800D02*
X424482D01*
Y280982D01*
X424525Y281025D01*
X456626Y238374D02*
X457000Y238000D01*
X456626Y238374D02*
Y238500D01*
X439500Y452843D02*
X439579Y452764D01*
X468921D01*
X469000Y452685D01*
X439421Y452764D02*
X439500Y452843D01*
X409500Y452685D02*
X409579Y452764D01*
X336000Y424900D02*
X363785Y452685D01*
X409500D01*
X336000Y350000D02*
Y424900D01*
X369500Y304400D02*
X381900D01*
X336000Y337900D02*
X369500Y304400D01*
X336000Y337900D02*
Y350000D01*
X392500Y268500D02*
Y275600D01*
X381900Y283100D02*
Y304400D01*
X424525Y281025D02*
Y290002D01*
X495200Y238600D02*
X501900D01*
X485600D02*
X495200D01*
X479859Y208141D02*
X483859D01*
X489300Y202700D02*
X492700D01*
X479500Y208500D02*
X479859Y208141D01*
X483859D02*
X489300Y202700D01*
X448876Y208624D02*
X449000Y208500D01*
X448876Y208624D02*
Y238376D01*
D80*
X433100Y341700D02*
X439500D01*
X430656Y339256D02*
X433100Y341700D01*
X421000Y339256D02*
X430656D01*
X474344Y360300D02*
X474400Y360356D01*
X415000Y339256D02*
X421000D01*
X409000D02*
X415000D01*
D81*
X489033Y442842D02*
X498500D01*
X488978Y442788D02*
X489033Y442842D01*
X439500Y388500D02*
Y433157D01*
Y388500D02*
X468200Y359800D01*
X409500Y416500D02*
Y433000D01*
Y416500D02*
X466217Y359783D01*
Y353283D02*
Y359783D01*
X443000Y288500D02*
X456626Y274874D01*
Y238748D02*
X457000Y238374D01*
X456626Y238748D02*
Y274874D01*
X408000Y274000D02*
X411500D01*
X414500Y281000D02*
Y299300D01*
X472374Y238500D02*
Y257026D01*
X462100Y267300D02*
X472374Y257026D01*
X510000Y422400D02*
X512200D01*
X493000Y357071D02*
Y405400D01*
X510000Y422400D01*
X510547Y420400D02*
X514200D01*
X494000Y403853D02*
X510547Y420400D01*
X445324Y320064D02*
X455993D01*
X493000Y357071D01*
X454272Y314100D02*
X496000Y355828D01*
X455443Y318100D02*
X494000Y356657D01*
X462280Y310051D02*
X503000Y350772D01*
X453108Y310108D02*
X498000Y355000D01*
X502000Y351186D02*
Y393743D01*
X460358Y309544D02*
X502000Y351186D01*
X453786Y312200D02*
X497000Y355414D01*
X464374Y304874D02*
Y310731D01*
X495000Y356243D02*
Y403439D01*
X506000Y349529D02*
Y390500D01*
X454857Y316100D02*
X495000Y356243D01*
X496000Y355828D02*
Y403000D01*
X452200Y305300D02*
X500000Y353100D01*
X476000Y313000D02*
Y319529D01*
X494000Y356657D02*
Y403853D01*
X452697Y308283D02*
X499000Y354586D01*
X501000Y351600D02*
Y394157D01*
X503000Y350772D02*
Y393328D01*
X476000Y319529D02*
X506000Y349529D01*
X500000Y353100D02*
Y395184D01*
X455240Y305840D02*
X501000Y351600D01*
X499000Y354586D02*
Y396100D01*
X464374Y310731D02*
X504000Y350357D01*
X474500Y319443D02*
X505000Y349943D01*
X497000Y355414D02*
Y402586D01*
X505000Y349943D02*
Y392500D01*
X460358Y304653D02*
Y309544D01*
X474500Y307000D02*
Y319443D01*
X462280Y302221D02*
Y310051D01*
X504000Y350357D02*
Y392914D01*
X455240Y305760D02*
Y305840D01*
X498000Y355000D02*
Y397400D01*
X510061Y418500D02*
X511700D01*
X496000Y403000D02*
X509500Y416500D01*
X513700D01*
X495000Y403439D02*
X510061Y418500D01*
X447400Y318100D02*
X455443D01*
X445300Y312200D02*
X453786D01*
X447100Y310100D02*
X451839D01*
X447500Y314100D02*
X454272D01*
X497000Y402586D02*
X508914Y414500D01*
X511100D01*
X486500Y380500D02*
Y384500D01*
X489000Y387000D01*
X445200Y316100D02*
X454857D01*
X501000Y394157D02*
X509382Y402539D01*
X498000Y397400D02*
X509019Y408419D01*
X499000Y396100D02*
X509600Y406700D01*
X504000Y392914D02*
X508086Y397000D01*
X501000Y326000D02*
X507500Y332500D01*
X503000Y393328D02*
X508496Y398825D01*
X506000Y390500D02*
X508500Y393000D01*
X507500Y388000D02*
X510500Y391000D01*
X507500Y332500D02*
Y388000D01*
X500000Y395184D02*
X509516Y404700D01*
X508500Y393000D02*
X510000D01*
X502000Y393743D02*
X508766Y400508D01*
X505000Y392500D02*
X507500Y395000D01*
X509019Y408419D02*
X510619D01*
X510900Y408700D01*
X507500Y395000D02*
X513000D01*
X509516Y404700D02*
X511000D01*
X509600Y406700D02*
X513400D01*
X471200Y377200D02*
X471300Y377300D01*
X471200Y356800D02*
Y377200D01*
Y356800D02*
X476000Y352000D01*
Y348500D02*
Y352000D01*
X468200Y350700D02*
Y359800D01*
X455800Y334900D02*
Y364200D01*
X447000Y331900D02*
X452800D01*
X455800Y334900D01*
X458493Y361493D02*
X458500Y361500D01*
X458493Y355007D02*
Y361493D01*
X458486Y355000D02*
X458493Y355007D01*
X480006Y360150D02*
X480156Y360300D01*
X479900Y355200D02*
Y360256D01*
X479856Y360300D02*
X479900Y360256D01*
X479912Y370300D02*
X480000Y370212D01*
Y365200D02*
Y370212D01*
X479912Y370300D02*
X489100D01*
X480156Y360300D02*
X489100D01*
X451839Y310100D02*
X451846Y310108D01*
X453108D01*
X452602Y308283D02*
X452697D01*
X393500Y302500D02*
X455500D01*
X346000Y350000D02*
X393500Y302500D01*
X510359Y400508D02*
X510500Y400650D01*
X508496Y398825D02*
X512921D01*
X508766Y400508D02*
X510359D01*
X508086Y397000D02*
X510500D01*
X509382Y402539D02*
X513000D01*
X512921Y398825D02*
X513000Y398746D01*
X510500Y391000D02*
X512500D01*
X476000Y313000D02*
X477500Y311500D01*
X474500Y307000D02*
X476500Y305000D01*
X491500Y326000D02*
X501000D01*
X402500Y268500D02*
X408000Y274000D01*
X412500Y258500D02*
Y268500D01*
X394000Y322000D02*
X412500D01*
X366000Y350000D02*
X394000Y322000D01*
X392000Y334000D02*
X399500D01*
X376000Y350000D02*
X392000Y334000D01*
X386000Y350000D02*
X387000Y349000D01*
X448103D01*
X449103Y348000D01*
X449500D01*
X383169Y409146D02*
X392815Y399500D01*
X395500D01*
X459079Y442921D02*
X468921D01*
X469000Y442842D01*
X459000Y443000D02*
X459079Y442921D01*
X421000Y333744D02*
X421000Y333744D01*
Y324000D02*
Y333744D01*
X415000Y328000D02*
X415000Y328000D01*
X415000Y328000D02*
Y333744D01*
X409000Y330000D02*
X409000Y330000D01*
X409000Y330000D02*
Y333744D01*
X392500Y309000D02*
X397500D01*
X450369Y350000D02*
X452424Y347945D01*
X420194Y364194D02*
X434389Y350000D01*
X450369D01*
X420957Y364957D02*
X434902Y351012D01*
X452424Y347945D02*
X452457D01*
X434902Y351012D02*
X451967D01*
X419000Y363000D02*
X420194Y364194D01*
X401500Y381000D02*
X402444Y381944D01*
X420194Y364194D01*
X392960Y391429D02*
X402444Y381944D01*
X383169Y391429D02*
X392960D01*
X403218Y382696D02*
X420957Y364957D01*
X422500Y366500D01*
Y368473D01*
X417397Y363000D02*
X419000D01*
X416397Y364000D02*
X417397Y363000D01*
X416000Y364000D02*
X416397D01*
X401500Y378500D02*
Y381000D01*
X421500Y369473D02*
Y369500D01*
Y369473D02*
X422500Y368473D01*
X403218Y382696D02*
X404522Y384000D01*
X407000D01*
X383169Y399303D02*
X383531Y398941D01*
X386973D02*
X403218Y382696D01*
X383531Y398941D02*
X386973D01*
X520500Y227000D02*
X527000Y233500D01*
X531500D01*
X521000Y250500D02*
X527000Y256500D01*
X531563D01*
X522000Y274500D02*
X527000Y279500D01*
X531500D01*
X522500Y337000D02*
X530374Y344874D01*
X536000D01*
X524000Y330000D02*
X530622Y336622D01*
X535622D02*
X536000Y337000D01*
X530622Y336622D02*
X535622D01*
D82*
X489100Y370300D02*
D03*
D83*
Y360300D02*
D03*
X404500Y281000D02*
D03*
X414500D02*
D03*
X346000Y350000D02*
D03*
X356000D02*
D03*
X366000D02*
D03*
X376000D02*
D03*
X386000D02*
D03*
X402500Y268500D02*
D03*
X412500D02*
D03*
D84*
X424500Y281000D02*
D03*
X336000Y350000D02*
D03*
X392500Y268500D02*
D03*
D85*
X448752Y238500D02*
D03*
X456626D02*
D03*
X464500D02*
D03*
X440878D02*
D03*
X472374D02*
D03*
X539374Y279500D02*
D03*
X531500D02*
D03*
X539374Y233500D02*
D03*
X531500D02*
D03*
X539437Y256500D02*
D03*
X531563D02*
D03*
D86*
X372500Y369500D02*
D03*
Y421232D02*
D03*
D87*
X383169Y381587D02*
D03*
Y399303D02*
D03*
Y391429D02*
D03*
Y409146D02*
D03*
D88*
X498500Y433000D02*
D03*
Y452685D02*
D03*
Y442842D02*
D03*
X469000Y433000D02*
D03*
Y452685D02*
D03*
Y442842D02*
D03*
X409500Y433000D02*
D03*
Y452685D02*
D03*
Y442842D02*
D03*
X439500Y433157D02*
D03*
Y452843D02*
D03*
Y443000D02*
D03*
D89*
X536000Y344874D02*
D03*
Y337000D02*
D03*
D90*
X439000Y208500D02*
D03*
X449000D02*
D03*
X469500D02*
D03*
X479500D02*
D03*
D91*
X385000Y226500D02*
D03*
D92*
X356457D02*
D03*
D93*
X447407Y248315D02*
D03*
X479800Y351000D02*
D03*
X439500Y341700D02*
D03*
X474400Y396900D02*
D03*
X488978Y442788D02*
D03*
X422528Y452562D02*
D03*
X495300Y284800D02*
D03*
X452300Y276100D02*
D03*
X381900Y304400D02*
D03*
X411500Y274000D02*
D03*
X424525Y290002D02*
D03*
X414500Y299300D02*
D03*
X462100Y267300D02*
D03*
X501939Y261490D02*
D03*
X485600Y238600D02*
D03*
X501900D02*
D03*
X492700Y202700D02*
D03*
X512200Y422400D02*
D03*
X445324Y320064D02*
D03*
X447400Y318100D02*
D03*
X447100Y310100D02*
D03*
X447500Y314100D02*
D03*
X514200Y420400D02*
D03*
X511700Y418500D02*
D03*
X489000Y387000D02*
D03*
X445200Y316100D02*
D03*
X511100Y414500D02*
D03*
X513700Y416500D02*
D03*
X445300Y312200D02*
D03*
X471300Y377300D02*
D03*
X476000Y348500D02*
D03*
X455800Y364200D02*
D03*
X447000Y331900D02*
D03*
X458500Y361500D02*
D03*
X479900Y355200D02*
D03*
X480000Y365200D02*
D03*
X452602Y308283D02*
D03*
X455240Y305760D02*
D03*
X452200Y305300D02*
D03*
X510900Y408700D02*
D03*
X511000Y404700D02*
D03*
X513400Y406700D02*
D03*
X510500Y400650D02*
D03*
Y397000D02*
D03*
X513000Y402539D02*
D03*
X460358Y304653D02*
D03*
X513000Y398746D02*
D03*
X462280Y302221D02*
D03*
X455500Y302500D02*
D03*
X464374Y304874D02*
D03*
X510000Y393000D02*
D03*
X513000Y395000D02*
D03*
X477500Y311500D02*
D03*
X476500Y305000D02*
D03*
X491500Y326000D02*
D03*
X512500Y391000D02*
D03*
X458486Y355000D02*
D03*
X468200Y350700D02*
D03*
X466217Y353283D02*
D03*
X486500Y380500D02*
D03*
X443000Y288500D02*
D03*
X412500Y258500D02*
D03*
Y322000D02*
D03*
X399500Y334000D02*
D03*
X449500Y348000D02*
D03*
X395500Y399500D02*
D03*
X459000Y443000D02*
D03*
X421000Y324000D02*
D03*
X415000Y328000D02*
D03*
X409000Y330000D02*
D03*
X397500Y309000D02*
D03*
X392500D02*
D03*
X452000Y351012D02*
D03*
X452457Y347945D02*
D03*
X416000Y364000D02*
D03*
X401500Y378500D02*
D03*
X421500Y369500D02*
D03*
X407000Y384000D02*
D03*
X520500Y227000D02*
D03*
X521000Y250500D02*
D03*
X522000Y274500D02*
D03*
X524000Y330000D02*
D03*
X522500Y337000D02*
D03*
M02*
