%TF.GenerationSoftware,Altium Limited,Altium Designer,23.3.1 (30)*%
G04 Layer_Color=65535*
%FSLAX25Y25*%
%MOIN*%
%TF.SameCoordinates,70BEFA69-D3B7-480D-BB84-950A8577B244*%
%TF.FilePolarity,Positive*%
%TF.FileFunction,Legend,Top*%
%TF.Part,Single*%
G01*
G75*
%TA.AperFunction,NonConductor*%
%ADD51C,0.00394*%
%ADD52C,0.00787*%
%ADD53C,0.00984*%
%ADD54C,0.00591*%
%ADD55C,0.00600*%
D51*
X516653Y375189D02*
G03*
X516260Y375189I-197J0D01*
G01*
D02*
G03*
X516653Y375189I197J0D01*
G01*
X522559Y368102D02*
X526496D01*
X522559D02*
Y371287D01*
Y428382D02*
X522590Y431488D01*
X526496D01*
X538307D02*
X544606D01*
Y368102D02*
Y431488D01*
X538307Y368102D02*
X544606D01*
X534551Y300095D02*
Y304425D01*
Y300095D02*
X537701D01*
X534551Y315449D02*
Y319779D01*
X537701D01*
X544394Y303638D02*
Y316236D01*
D52*
X413346Y226500D02*
G03*
X412953Y226500I-197J0D01*
G01*
D02*
G03*
X413346Y226500I197J0D01*
G01*
D02*
G03*
X412953Y226500I-197J0D01*
G01*
X507831Y199370D02*
X514130D01*
Y215512D01*
X509406Y220236D02*
X514130Y215512D01*
X507831Y220236D02*
X509406D01*
X492870Y199370D02*
X499169D01*
X492870D02*
Y215512D01*
X497594Y220236D01*
X499169D01*
X414735Y378905D02*
X416405Y377235D01*
X408265Y369095D02*
X416405Y377235D01*
X406595Y370765D02*
X408265Y369095D01*
X406595Y370765D02*
X414735Y378905D01*
X410804Y383604D02*
X414145Y380264D01*
X331200Y345000D02*
X391200D01*
X331200Y355000D02*
X391200D01*
X331200Y345000D02*
Y355000D01*
X391200Y345000D02*
Y355000D01*
X332815Y288772D02*
Y333653D01*
X341870Y283260D02*
X396201D01*
Y290347D01*
Y336409D02*
Y337591D01*
X382815D02*
X396201D01*
X357618D02*
X374941D01*
X345413D02*
X351319D01*
X412016Y401291D02*
X415756D01*
Y404244D01*
Y409756D02*
Y412709D01*
X412016D02*
X415756D01*
X410244Y405819D02*
Y408181D01*
X332579Y369776D02*
X364075D01*
X332579D02*
Y420957D01*
X379823Y368595D02*
X388090D01*
X332579Y420957D02*
X364075D01*
X379823Y422138D02*
X388090D01*
X388090Y368595D01*
X494100Y355300D02*
Y375300D01*
X484100D02*
X494100D01*
X484100Y355300D02*
Y375300D01*
Y355300D02*
X494100D01*
X529307Y329323D02*
X547024D01*
Y352551D01*
X529307D02*
X547024D01*
X529307Y329323D02*
Y352551D01*
X482350Y263000D02*
X488650D01*
X486681Y257095D02*
X488650Y257095D01*
Y268905D01*
X486681Y268905D02*
X488650Y268905D01*
X482350Y257095D02*
X484319Y257095D01*
X482350Y257095D02*
Y268905D01*
X484319Y268905D01*
X410000Y262000D02*
Y272000D01*
X440000D01*
Y262000D02*
Y272000D01*
X410000Y262000D02*
X440000D01*
X523823Y222476D02*
Y240193D01*
Y222476D02*
X547051D01*
Y240193D01*
X523823D02*
X547051D01*
X523823Y268476D02*
Y286193D01*
Y268476D02*
X547051D01*
Y286193D01*
X523823D02*
X547051D01*
X523886Y245476D02*
Y263193D01*
Y245476D02*
X547114D01*
Y263193D01*
X523886D02*
X547114D01*
X459307Y204130D02*
Y251374D01*
X477024D01*
Y204130D02*
Y251374D01*
X459307Y204130D02*
X477024D01*
X521902Y216736D02*
Y217130D01*
X547098D01*
Y195870D02*
Y217130D01*
X521902Y195870D02*
X547098D01*
X521902D02*
Y216736D01*
X546000Y209000D02*
Y214000D01*
Y209000D02*
X547098Y208000D01*
X546000Y214000D02*
X547098Y215000D01*
X546000Y204000D02*
X547098Y205000D01*
X546000Y199000D02*
X547098Y198000D01*
X546000Y199000D02*
Y204000D01*
X396212Y462331D02*
X418851D01*
X396212Y423354D02*
Y462331D01*
Y423354D02*
X418851D01*
Y462331D01*
X426212Y462488D02*
X448850D01*
X426212Y423512D02*
Y462488D01*
Y423512D02*
X448850D01*
Y462488D01*
X455712Y462331D02*
X478350D01*
X455712Y423354D02*
Y462331D01*
Y423354D02*
X478350D01*
Y462331D01*
X485212D02*
X507851D01*
X485212Y423354D02*
Y462331D01*
Y423354D02*
X507851D01*
Y462331D01*
X442988Y300783D02*
Y337398D01*
X479602D01*
Y300783D02*
Y337398D01*
X442988Y300783D02*
X479602D01*
D53*
X444071Y294583D02*
G03*
X444071Y294583I-492J0D01*
G01*
D54*
X511000Y253941D02*
X511756D01*
Y263941D01*
X511000D02*
X511756D01*
X506244D02*
X507000D01*
X506244Y253941D02*
Y263941D01*
Y253941D02*
X507000D01*
X506244Y258941D02*
X511756D01*
X511000Y277059D02*
X511756D01*
Y287059D01*
X511000D02*
X511756D01*
X506244D02*
X507000D01*
X506244Y277059D02*
Y287059D01*
Y277059D02*
X507000D01*
X506244Y282059D02*
X511756D01*
X424342Y301244D02*
Y306756D01*
X418831Y305575D02*
Y306756D01*
X429854D01*
Y305575D02*
Y306756D01*
Y301244D02*
Y302425D01*
X418831Y301244D02*
X429854D01*
X418831D02*
Y302425D01*
X424342Y294744D02*
Y300256D01*
X418831Y299075D02*
Y300256D01*
X429854D01*
Y299075D02*
Y300256D01*
Y294744D02*
Y295925D01*
X418831Y294744D02*
X429854D01*
X418831D02*
Y295925D01*
X443744Y357157D02*
X449256D01*
X448075Y362669D02*
X449256D01*
Y351646D02*
Y362669D01*
X448075Y351646D02*
X449256D01*
X443744D02*
X444925D01*
X443744D02*
Y362669D01*
X444925D01*
X490744Y344512D02*
X491925D01*
X490744Y333488D02*
Y344512D01*
Y333488D02*
X491925D01*
X495075D02*
X496256D01*
Y344512D01*
X495075D02*
X496256D01*
X490744Y339000D02*
X496256D01*
X498158Y305244D02*
Y310756D01*
X503669Y305244D02*
Y306425D01*
X492646Y305244D02*
X503669D01*
X492646D02*
Y306425D01*
Y309575D02*
Y310756D01*
X503669D01*
Y309575D02*
Y310756D01*
X460500Y277000D02*
X461256D01*
Y287000D01*
X460500D02*
X461256D01*
X455744D02*
X456500D01*
X455744Y277000D02*
Y287000D01*
Y277000D02*
X456500D01*
X455744Y282000D02*
X461256D01*
X462744Y281842D02*
X468256D01*
X462744Y276331D02*
X463925D01*
X462744D02*
Y287354D01*
X463925D01*
X467075D02*
X468256D01*
Y276331D02*
Y287354D01*
X467075Y276331D02*
X468256D01*
X474843Y270244D02*
Y275756D01*
X469331Y274575D02*
Y275756D01*
X480354D01*
Y274575D02*
Y275756D01*
Y270244D02*
Y271425D01*
X469331Y270244D02*
X480354D01*
X469331D02*
Y271425D01*
X474843Y263744D02*
Y269256D01*
X469331Y268075D02*
Y269256D01*
X480354D01*
Y268075D02*
Y269256D01*
Y263744D02*
Y264925D01*
X469331Y263744D02*
X480354D01*
X469331D02*
Y264925D01*
X511000Y231000D02*
X511756D01*
Y241000D01*
X511000D02*
X511756D01*
X506244D02*
X507000D01*
X506244Y231000D02*
Y241000D01*
Y231000D02*
X507000D01*
X506244Y236000D02*
X511756D01*
X443051Y373051D02*
X446949Y376949D01*
X446587Y369516D02*
X447121Y370050D01*
X439516Y376587D02*
X446587Y369516D01*
X439516Y376587D02*
X440050Y377121D01*
X442879Y379950D02*
X443413Y380484D01*
X450484Y373413D01*
X449950Y372879D02*
X450484Y373413D01*
X449861Y380242D02*
X453758Y384139D01*
X453396Y376706D02*
X453931Y377241D01*
X446325Y383777D02*
X453396Y376706D01*
X446325Y383777D02*
X446860Y384312D01*
X449688Y387140D02*
X450223Y387675D01*
X457294Y380604D01*
X456759Y380069D02*
X457294Y380604D01*
X455000Y255744D02*
Y261256D01*
X460000Y255744D02*
Y256500D01*
X450000Y255744D02*
X460000D01*
X450000D02*
Y256500D01*
Y260500D02*
Y261256D01*
X460000D01*
Y260500D02*
Y261256D01*
X513244Y241669D02*
X514425D01*
X513244Y230646D02*
Y241669D01*
Y230646D02*
X514425D01*
X517575D02*
X518756D01*
Y241669D01*
X517575D02*
X518756D01*
X513244Y236157D02*
X518756D01*
X513244Y264354D02*
X514425D01*
X513244Y253331D02*
Y264354D01*
Y253331D02*
X514425D01*
X517575D02*
X518756D01*
Y264354D01*
X517575D02*
X518756D01*
X513244Y258842D02*
X518756D01*
X513244Y287512D02*
X514425D01*
X513244Y276488D02*
Y287512D01*
Y276488D02*
X514425D01*
X517575D02*
X518756D01*
Y287512D01*
X517575D02*
X518756D01*
X513244Y282000D02*
X518756D01*
X451957Y404134D02*
X459043D01*
X456500Y411634D02*
X459043D01*
Y396134D02*
Y411634D01*
X458256Y396134D02*
X459043D01*
X451957Y411634D02*
X454500D01*
X451957Y396134D02*
Y411634D01*
Y396134D02*
X452744D01*
X456500Y411634D02*
Y412134D01*
X459043D01*
Y411634D02*
Y412134D01*
X451957Y411634D02*
Y412134D01*
X454500D01*
Y411634D02*
Y412134D01*
X455500Y404134D02*
Y405134D01*
X454500Y403134D02*
X456500D01*
X454500D02*
X455500Y404134D01*
X456500Y403134D01*
X481957Y404000D02*
X489043D01*
X486500Y411500D02*
X489043D01*
Y396000D02*
Y411500D01*
X488256Y396000D02*
X489043D01*
X481957Y411500D02*
X484500D01*
X481957Y396000D02*
Y411500D01*
Y396000D02*
X482744D01*
X486500Y411500D02*
Y412000D01*
X489043D01*
Y411500D02*
Y412000D01*
X481957Y411500D02*
Y412000D01*
X484500D01*
Y411500D02*
Y412000D01*
X485500Y404000D02*
Y405000D01*
X484500Y403000D02*
X486500D01*
X484500D02*
X485500Y404000D01*
X486500Y403000D01*
D55*
X524734Y299899D02*
X523401D01*
X524067D01*
Y296567D01*
X523401Y295901D01*
X522734D01*
X522068Y296567D01*
X528732Y299899D02*
X526066D01*
Y297900D01*
X527399Y298566D01*
X528066D01*
X528732Y297900D01*
Y296567D01*
X528066Y295901D01*
X526733D01*
X526066Y296567D01*
X540334Y445199D02*
X539001D01*
X539667D01*
Y441867D01*
X539001Y441201D01*
X538334D01*
X537668Y441867D01*
X543666Y441201D02*
Y445199D01*
X541667Y443200D01*
X544332D01*
X435934Y203999D02*
X434601D01*
X435267D01*
Y200667D01*
X434601Y200001D01*
X433934D01*
X433268Y200667D01*
X437266Y203333D02*
X437933Y203999D01*
X439266D01*
X439932Y203333D01*
Y202666D01*
X439266Y202000D01*
X438599D01*
X439266D01*
X439932Y201333D01*
Y200667D01*
X439266Y200001D01*
X437933D01*
X437266Y200667D01*
X372034Y259999D02*
X370701D01*
X371367D01*
Y256667D01*
X370701Y256001D01*
X370034D01*
X369368Y256667D01*
X376032Y256001D02*
X373366D01*
X376032Y258666D01*
Y259333D01*
X375366Y259999D01*
X374033D01*
X373366Y259333D01*
X353500Y450099D02*
X352167D01*
X352834D01*
Y446767D01*
X352167Y446101D01*
X351501D01*
X350834Y446767D01*
X354833Y446101D02*
X356166D01*
X355499D01*
Y450099D01*
X354833Y449433D01*
X450200Y264200D02*
Y268199D01*
X452199D01*
X452866Y267532D01*
Y266199D01*
X452199Y265533D01*
X450200D01*
X451533D02*
X452866Y264200D01*
X456865D02*
X454199D01*
X456865Y266866D01*
Y267532D01*
X456198Y268199D01*
X454865D01*
X454199Y267532D01*
X458197Y264200D02*
X459530D01*
X458864D01*
Y268199D01*
X458197Y267532D01*
X453416Y386156D02*
X456244Y388984D01*
X457657Y387570D01*
Y386628D01*
X456715Y385685D01*
X455772D01*
X454359Y387099D01*
X455301Y386156D02*
Y384271D01*
X458129Y381444D02*
X456244Y383329D01*
X460014D01*
X460485Y383800D01*
Y384742D01*
X459543Y385685D01*
X458600D01*
X461427Y382857D02*
X462370D01*
X463312Y381915D01*
Y380973D01*
X461427Y379087D01*
X460485D01*
X459543Y380030D01*
Y380973D01*
X461427Y382857D01*
X435252Y372221D02*
X438079Y375048D01*
X439493Y373634D01*
Y372692D01*
X438551Y371749D01*
X437608D01*
X436194Y373163D01*
X437137Y372221D02*
Y370336D01*
X438079Y369393D02*
X439022Y368451D01*
X438551Y368922D01*
X441378Y371749D01*
X440436D01*
X440907Y367508D02*
Y366566D01*
X441849Y365623D01*
X442792D01*
X444677Y367508D01*
Y368451D01*
X443734Y369393D01*
X442792D01*
X442321Y368922D01*
Y367979D01*
X443734Y366566D01*
X434668Y291999D02*
X436001D01*
X435334D01*
Y288001D01*
X434668D01*
X436001D01*
X440666Y291333D02*
X440000Y291999D01*
X438667D01*
X438000Y291333D01*
Y288667D01*
X438667Y288001D01*
X440000D01*
X440666Y288667D01*
X441999Y288001D02*
X443332D01*
X442665D01*
Y291999D01*
X441999Y291333D01*
X526268Y325533D02*
X525602Y326199D01*
X524269D01*
X523602Y325533D01*
Y322867D01*
X524269Y322201D01*
X525602D01*
X526268Y322867D01*
X527601Y322201D02*
Y326199D01*
X530267Y322201D01*
Y326199D01*
X531600Y322201D02*
X532933D01*
X532266D01*
Y326199D01*
X531600Y325533D01*
X534932Y326199D02*
X537598D01*
Y325533D01*
X534932Y322867D01*
Y322201D01*
X398302Y395801D02*
Y399799D01*
X400301D01*
X400967Y399133D01*
Y397800D01*
X400301Y397134D01*
X398302D01*
X399635D02*
X400967Y395801D01*
X402300D02*
X403633D01*
X402967D01*
Y399799D01*
X402300Y399133D01*
X408298Y399799D02*
X406965Y399133D01*
X405633Y397800D01*
Y396467D01*
X406299Y395801D01*
X407632D01*
X408298Y396467D01*
Y397134D01*
X407632Y397800D01*
X405633D01*
X390102Y412801D02*
Y416799D01*
X392101D01*
X392767Y416133D01*
Y414800D01*
X392101Y414134D01*
X390102D01*
X391435D02*
X392767Y412801D01*
X394100D02*
X395433D01*
X394767D01*
Y416799D01*
X394100Y416133D01*
X400098Y416799D02*
X397433D01*
Y414800D01*
X398765Y415466D01*
X399432D01*
X400098Y414800D01*
Y413467D01*
X399432Y412801D01*
X398099D01*
X397433Y413467D01*
X423102Y393701D02*
Y397699D01*
X425101D01*
X425767Y397033D01*
Y395700D01*
X425101Y395034D01*
X423102D01*
X424435D02*
X425767Y393701D01*
X427100D02*
X428433D01*
X427767D01*
Y397699D01*
X427100Y397033D01*
X432432Y393701D02*
Y397699D01*
X430433Y395700D01*
X433098D01*
X412999Y287402D02*
X409001D01*
Y289401D01*
X409667Y290067D01*
X411000D01*
X411666Y289401D01*
Y287402D01*
Y288735D02*
X412999Y290067D01*
Y291400D02*
Y292733D01*
Y292067D01*
X409001D01*
X409667Y291400D01*
Y294733D02*
X409001Y295399D01*
Y296732D01*
X409667Y297398D01*
X412333D01*
X412999Y296732D01*
Y295399D01*
X412333Y294733D01*
X409667D01*
X407768Y306301D02*
Y310299D01*
X409767D01*
X410434Y309633D01*
Y308300D01*
X409767Y307634D01*
X407768D01*
X409101D02*
X410434Y306301D01*
X411767D02*
X413100D01*
X412433D01*
Y310299D01*
X411767Y309633D01*
X415099Y306301D02*
X416432D01*
X415765D01*
Y310299D01*
X415099Y309633D01*
X410502Y334001D02*
Y337999D01*
X412501D01*
X413167Y337333D01*
Y336000D01*
X412501Y335334D01*
X410502D01*
X411834D02*
X413167Y334001D01*
X414500D02*
X415833D01*
X415167D01*
Y337999D01*
X414500Y337333D01*
X417833D02*
X418499Y337999D01*
X419832D01*
X420498Y337333D01*
Y336666D01*
X419832Y336000D01*
X419166D01*
X419832D01*
X420498Y335334D01*
Y334667D01*
X419832Y334001D01*
X418499D01*
X417833Y334667D01*
X413902Y321901D02*
Y325899D01*
X415901D01*
X416567Y325233D01*
Y323900D01*
X415901Y323234D01*
X413902D01*
X415235D02*
X416567Y321901D01*
X417900D02*
X419233D01*
X418567D01*
Y325899D01*
X417900Y325233D01*
X423898Y321901D02*
X421233D01*
X423898Y324566D01*
Y325233D01*
X423232Y325899D01*
X421899D01*
X421233Y325233D01*
X419968Y344901D02*
Y348899D01*
X421967D01*
X422634Y348233D01*
Y346900D01*
X421967Y346234D01*
X419968D01*
X421301D02*
X422634Y344901D01*
X423967Y345567D02*
X424633Y344901D01*
X425966D01*
X426632Y345567D01*
Y348233D01*
X425966Y348899D01*
X424633D01*
X423967Y348233D01*
Y347566D01*
X424633Y346900D01*
X426632D01*
X504899Y276568D02*
X500901D01*
Y278567D01*
X501567Y279234D01*
X502900D01*
X503566Y278567D01*
Y276568D01*
Y277901D02*
X504899Y279234D01*
X501567Y280567D02*
X500901Y281233D01*
Y282566D01*
X501567Y283232D01*
X502234D01*
X502900Y282566D01*
X503566Y283232D01*
X504233D01*
X504899Y282566D01*
Y281233D01*
X504233Y280567D01*
X503566D01*
X502900Y281233D01*
X502234Y280567D01*
X501567D01*
X502900Y281233D02*
Y282566D01*
X504599Y229368D02*
X500601D01*
Y231367D01*
X501267Y232034D01*
X502600D01*
X503266Y231367D01*
Y229368D01*
Y230701D02*
X504599Y232034D01*
X500601Y233366D02*
Y236032D01*
X501267D01*
X503933Y233366D01*
X504599D01*
X504899Y251768D02*
X500901D01*
Y253767D01*
X501567Y254434D01*
X502900D01*
X503566Y253767D01*
Y251768D01*
Y253101D02*
X504899Y254434D01*
X500901Y258432D02*
X501567Y257099D01*
X502900Y255767D01*
X504233D01*
X504899Y256433D01*
Y257766D01*
X504233Y258432D01*
X503566D01*
X502900Y257766D01*
Y255767D01*
X454499Y280268D02*
X450501D01*
Y282267D01*
X451167Y282934D01*
X452500D01*
X453166Y282267D01*
Y280268D01*
Y281601D02*
X454499Y282934D01*
X450501Y286932D02*
Y284266D01*
X452500D01*
X451834Y285599D01*
Y286266D01*
X452500Y286932D01*
X453833D01*
X454499Y286266D01*
Y284933D01*
X453833Y284266D01*
X472968Y409901D02*
Y413899D01*
X474967D01*
X475634Y413233D01*
Y411900D01*
X474967Y411234D01*
X472968D01*
X474301D02*
X475634Y409901D01*
X478966D02*
Y413899D01*
X476966Y411900D01*
X479632D01*
X474068Y384701D02*
Y388699D01*
X476067D01*
X476734Y388033D01*
Y386700D01*
X476067Y386034D01*
X474068D01*
X475401D02*
X476734Y384701D01*
X478066Y388033D02*
X478733Y388699D01*
X480066D01*
X480732Y388033D01*
Y387366D01*
X480066Y386700D01*
X479399D01*
X480066D01*
X480732Y386034D01*
Y385367D01*
X480066Y384701D01*
X478733D01*
X478066Y385367D01*
X442468Y410301D02*
Y414299D01*
X444467D01*
X445134Y413633D01*
Y412300D01*
X444467Y411634D01*
X442468D01*
X443801D02*
X445134Y410301D01*
X449132D02*
X446466D01*
X449132Y412966D01*
Y413633D01*
X448466Y414299D01*
X447133D01*
X446466Y413633D01*
X444234Y394701D02*
Y398699D01*
X446234D01*
X446900Y398033D01*
Y396700D01*
X446234Y396034D01*
X444234D01*
X445567D02*
X446900Y394701D01*
X448233D02*
X449566D01*
X448899D01*
Y398699D01*
X448233Y398033D01*
X415100Y415067D02*
Y417733D01*
X414434Y418399D01*
X413101D01*
X412434Y417733D01*
Y415067D01*
X413101Y414401D01*
X414434D01*
X413767Y415734D02*
X415100Y414401D01*
X414434D02*
X415100Y415067D01*
X416433Y414401D02*
X417766D01*
X417099D01*
Y418399D01*
X416433Y417733D01*
X482734Y274599D02*
Y270601D01*
X485400D01*
X486733D02*
X488066D01*
X487399D01*
Y274599D01*
X486733Y273933D01*
X402179Y372848D02*
X403122Y371906D01*
X402651Y372377D01*
X399823Y369549D01*
X399352Y370021D01*
X400294Y369078D01*
X405949Y368136D02*
Y369078D01*
X405007Y370021D01*
X404064D01*
X402179Y368136D01*
Y367193D01*
X403122Y366251D01*
X404064D01*
X406892Y367193D02*
X407834D01*
X408777Y366251D01*
Y365308D01*
X408306Y364837D01*
X407363D01*
X406892Y365308D01*
X407363Y364837D01*
Y363894D01*
X406892Y363423D01*
X405949D01*
X405007Y364366D01*
Y365308D01*
X335502Y265299D02*
X336835D01*
X336168D01*
Y261301D01*
X335502D01*
X336835D01*
X341500Y264633D02*
X340833Y265299D01*
X339500D01*
X338834Y264633D01*
Y261967D01*
X339500Y261301D01*
X340833D01*
X341500Y261967D01*
X345498Y261301D02*
X342833D01*
X345498Y263966D01*
Y264633D01*
X344832Y265299D01*
X343499D01*
X342833Y264633D01*
X424668Y414599D02*
Y410601D01*
X426667D01*
X427334Y411267D01*
Y413933D01*
X426667Y414599D01*
X424668D01*
X428666Y413933D02*
X429333Y414599D01*
X430666D01*
X431332Y413933D01*
Y413266D01*
X430666Y412600D01*
X429999D01*
X430666D01*
X431332Y411934D01*
Y411267D01*
X430666Y410601D01*
X429333D01*
X428666Y411267D01*
X482300Y418899D02*
Y414900D01*
X484299D01*
X484966Y415566D01*
Y418232D01*
X484299Y418899D01*
X482300D01*
X488965Y414900D02*
X486299D01*
X488965Y417566D01*
Y418232D01*
X488298Y418899D01*
X486965D01*
X486299Y418232D01*
X452300Y418999D02*
Y415000D01*
X454299D01*
X454966Y415666D01*
Y418332D01*
X454299Y418999D01*
X452300D01*
X456299Y415000D02*
X457632D01*
X456965D01*
Y418999D01*
X456299Y418332D01*
X496467Y364768D02*
X495801Y364102D01*
Y362769D01*
X496467Y362102D01*
X499133D01*
X499799Y362769D01*
Y364102D01*
X499133Y364768D01*
X499799Y366101D02*
X495801D01*
X499799Y368767D01*
X495801D01*
X499799Y370100D02*
Y371433D01*
Y370766D01*
X495801D01*
X496467Y370100D01*
X499133Y373432D02*
X499799Y374098D01*
Y375431D01*
X499133Y376098D01*
X496467D01*
X495801Y375431D01*
Y374098D01*
X496467Y373432D01*
X497134D01*
X497800Y374098D01*
Y376098D01*
X527668Y357833D02*
X527002Y358499D01*
X525669D01*
X525002Y357833D01*
Y355167D01*
X525669Y354501D01*
X527002D01*
X527668Y355167D01*
X529001Y354501D02*
Y358499D01*
X531667Y354501D01*
Y358499D01*
X533000Y354501D02*
X534333D01*
X533666D01*
Y358499D01*
X533000Y357833D01*
X536332D02*
X536998Y358499D01*
X538331D01*
X538998Y357833D01*
Y357166D01*
X538331Y356500D01*
X538998Y355834D01*
Y355167D01*
X538331Y354501D01*
X536998D01*
X536332Y355167D01*
Y355834D01*
X536998Y356500D01*
X536332Y357166D01*
Y357833D01*
X536998Y356500D02*
X538331D01*
X339668Y431833D02*
X339002Y432499D01*
X337669D01*
X337002Y431833D01*
Y429167D01*
X337669Y428501D01*
X339002D01*
X339668Y429167D01*
X341001Y428501D02*
Y432499D01*
X343667Y428501D01*
Y432499D01*
X345000Y428501D02*
X346333D01*
X345666D01*
Y432499D01*
X345000Y431833D01*
X350998Y432499D02*
X349665Y431833D01*
X348332Y430500D01*
Y429167D01*
X348998Y428501D01*
X350331D01*
X350998Y429167D01*
Y429834D01*
X350331Y430500D01*
X348332D01*
X388568Y342633D02*
X387902Y343299D01*
X386569D01*
X385902Y342633D01*
Y339967D01*
X386569Y339301D01*
X387902D01*
X388568Y339967D01*
X389901Y339301D02*
Y343299D01*
X392567Y339301D01*
Y343299D01*
X393900Y339301D02*
X395233D01*
X394566D01*
Y343299D01*
X393900Y342633D01*
X399898Y343299D02*
X397232D01*
Y341300D01*
X398565Y341966D01*
X399231D01*
X399898Y341300D01*
Y339967D01*
X399231Y339301D01*
X397898D01*
X397232Y339967D01*
X420168Y259833D02*
X419502Y260499D01*
X418169D01*
X417502Y259833D01*
Y257167D01*
X418169Y256501D01*
X419502D01*
X420168Y257167D01*
X421501Y256501D02*
Y260499D01*
X424167Y256501D01*
Y260499D01*
X425500Y256501D02*
X426833D01*
X426166D01*
Y260499D01*
X425500Y259833D01*
X430831Y256501D02*
Y260499D01*
X428832Y258500D01*
X431498D01*
X527668Y291233D02*
X527002Y291899D01*
X525669D01*
X525002Y291233D01*
Y288567D01*
X525669Y287901D01*
X527002D01*
X527668Y288567D01*
X529001Y287901D02*
Y291899D01*
X531667Y287901D01*
Y291899D01*
X533000Y287901D02*
X534333D01*
X533666D01*
Y291899D01*
X533000Y291233D01*
X536332D02*
X536998Y291899D01*
X538331D01*
X538998Y291233D01*
Y290566D01*
X538331Y289900D01*
X537665D01*
X538331D01*
X538998Y289234D01*
Y288567D01*
X538331Y287901D01*
X536998D01*
X536332Y288567D01*
X530468Y227133D02*
X529802Y227799D01*
X528469D01*
X527802Y227133D01*
Y224467D01*
X528469Y223801D01*
X529802D01*
X530468Y224467D01*
X531801Y223801D02*
Y227799D01*
X534467Y223801D01*
Y227799D01*
X535800Y223801D02*
X537133D01*
X536466D01*
Y227799D01*
X535800Y227133D01*
X541798Y223801D02*
X539132D01*
X541798Y226466D01*
Y227133D01*
X541131Y227799D01*
X539798D01*
X539132Y227133D01*
X516667Y199035D02*
X516001Y198368D01*
Y197035D01*
X516667Y196369D01*
X519333D01*
X519999Y197035D01*
Y198368D01*
X519333Y199035D01*
X519999Y200367D02*
X516001D01*
X519999Y203033D01*
X516001D01*
X519999Y204366D02*
Y205699D01*
Y205033D01*
X516001D01*
X516667Y204366D01*
X519999Y207698D02*
Y209031D01*
Y208365D01*
X516001D01*
X516667Y207698D01*
X383034Y360033D02*
X382368Y360699D01*
X381035D01*
X380368Y360033D01*
Y357367D01*
X381035Y356701D01*
X382368D01*
X383034Y357367D01*
X384367Y356701D02*
Y360699D01*
X387033Y356701D01*
Y360699D01*
X388366Y357367D02*
X389032Y356701D01*
X390365D01*
X391032Y357367D01*
Y360033D01*
X390365Y360699D01*
X389032D01*
X388366Y360033D01*
Y359366D01*
X389032Y358700D01*
X391032D01*
X454767Y206934D02*
X454101Y206268D01*
Y204935D01*
X454767Y204268D01*
X457433D01*
X458099Y204935D01*
Y206268D01*
X457433Y206934D01*
X458099Y208267D02*
X454101D01*
X458099Y210933D01*
X454101D01*
Y212266D02*
Y214932D01*
X454767D01*
X457433Y212266D01*
X458099D01*
X532734Y249733D02*
X532068Y250399D01*
X530735D01*
X530068Y249733D01*
Y247067D01*
X530735Y246401D01*
X532068D01*
X532734Y247067D01*
X534067Y246401D02*
Y250399D01*
X536733Y246401D01*
Y250399D01*
X540732D02*
X539399Y249733D01*
X538066Y248400D01*
Y247067D01*
X538732Y246401D01*
X540065D01*
X540732Y247067D01*
Y247734D01*
X540065Y248400D01*
X538066D01*
X390367Y452334D02*
X389701Y451668D01*
Y450335D01*
X390367Y449668D01*
X393033D01*
X393699Y450335D01*
Y451668D01*
X393033Y452334D01*
X393699Y453667D02*
X389701D01*
X393699Y456333D01*
X389701D01*
Y460332D02*
Y457666D01*
X391700D01*
X391034Y458999D01*
Y459665D01*
X391700Y460332D01*
X393033D01*
X393699Y459665D01*
Y458332D01*
X393033Y457666D01*
X440834Y420333D02*
X440168Y420999D01*
X438835D01*
X438168Y420333D01*
Y417667D01*
X438835Y417001D01*
X440168D01*
X440834Y417667D01*
X442167Y417001D02*
Y420999D01*
X444833Y417001D01*
Y420999D01*
X448165Y417001D02*
Y420999D01*
X446166Y419000D01*
X448832D01*
X494834Y420333D02*
X494168Y420999D01*
X492835D01*
X492168Y420333D01*
Y417667D01*
X492835Y417001D01*
X494168D01*
X494834Y417667D01*
X496167Y417001D02*
Y420999D01*
X498833Y417001D01*
Y420999D01*
X500166Y420333D02*
X500832Y420999D01*
X502165D01*
X502832Y420333D01*
Y419666D01*
X502165Y419000D01*
X501499D01*
X502165D01*
X502832Y418334D01*
Y417667D01*
X502165Y417001D01*
X500832D01*
X500166Y417667D01*
X466934Y421133D02*
X466268Y421799D01*
X464935D01*
X464268Y421133D01*
Y418467D01*
X464935Y417801D01*
X466268D01*
X466934Y418467D01*
X468267Y417801D02*
Y421799D01*
X470933Y417801D01*
Y421799D01*
X474932Y417801D02*
X472266D01*
X474932Y420466D01*
Y421133D01*
X474265Y421799D01*
X472932D01*
X472266Y421133D01*
X518501Y438233D02*
X517834Y438899D01*
X516501D01*
X515835Y438233D01*
Y435567D01*
X516501Y434901D01*
X517834D01*
X518501Y435567D01*
X519834Y434901D02*
Y438899D01*
X522499Y434901D01*
Y438899D01*
X523832Y434901D02*
X525165D01*
X524499D01*
Y438899D01*
X523832Y438233D01*
X420345Y389978D02*
X420327Y390921D01*
X419367Y391845D01*
X418425Y391828D01*
X416575Y389908D01*
X416593Y388965D01*
X417553Y388041D01*
X418495Y388058D01*
X418993Y386653D02*
X419953Y385729D01*
X419473Y386191D01*
X422247Y389071D01*
X421305Y389054D01*
X421855Y384822D02*
X421873Y383879D01*
X422833Y382955D01*
X423775Y382972D01*
X425625Y384892D01*
X425607Y385835D01*
X424647Y386759D01*
X423705Y386742D01*
X423242Y386262D01*
X423260Y385319D01*
X424700Y383932D01*
X421667Y292633D02*
X421001Y293299D01*
X419668D01*
X419002Y292633D01*
Y289967D01*
X419668Y289301D01*
X421001D01*
X421667Y289967D01*
X423000Y289301D02*
X424333D01*
X423667D01*
Y293299D01*
X423000Y292633D01*
X428998Y293299D02*
X427666Y292633D01*
X426333Y291300D01*
Y289967D01*
X426999Y289301D01*
X428332D01*
X428998Y289967D01*
Y290634D01*
X428332Y291300D01*
X426333D01*
X423567Y311033D02*
X422901Y311699D01*
X421568D01*
X420902Y311033D01*
Y308367D01*
X421568Y307701D01*
X422901D01*
X423567Y308367D01*
X424900Y307701D02*
X426233D01*
X425567D01*
Y311699D01*
X424900Y311033D01*
X430898Y311699D02*
X428233D01*
Y309700D01*
X429565Y310366D01*
X430232D01*
X430898Y309700D01*
Y308367D01*
X430232Y307701D01*
X428899D01*
X428233Y308367D01*
X438667Y354167D02*
X438001Y353501D01*
Y352168D01*
X438667Y351502D01*
X441333D01*
X441999Y352168D01*
Y353501D01*
X441333Y354167D01*
X441999Y355500D02*
Y356833D01*
Y356167D01*
X438001D01*
X438667Y355500D01*
X441999Y360832D02*
X438001D01*
X440000Y358833D01*
Y361498D01*
X498467Y336567D02*
X497801Y335901D01*
Y334568D01*
X498467Y333902D01*
X501133D01*
X501799Y334568D01*
Y335901D01*
X501133Y336567D01*
X501799Y337900D02*
Y339233D01*
Y338567D01*
X497801D01*
X498467Y337900D01*
Y341233D02*
X497801Y341899D01*
Y343232D01*
X498467Y343898D01*
X499134D01*
X499800Y343232D01*
Y342565D01*
Y343232D01*
X500466Y343898D01*
X501133D01*
X501799Y343232D01*
Y341899D01*
X501133Y341233D01*
X492467Y303233D02*
X491801Y303899D01*
X490468D01*
X489802Y303233D01*
Y300567D01*
X490468Y299901D01*
X491801D01*
X492467Y300567D01*
X493800Y299901D02*
X495133D01*
X494467D01*
Y303899D01*
X493800Y303233D01*
X499798Y299901D02*
X497133D01*
X499798Y302566D01*
Y303233D01*
X499132Y303899D01*
X497799D01*
X497133Y303233D01*
X514934Y291833D02*
X514267Y292499D01*
X512934D01*
X512268Y291833D01*
Y289167D01*
X512934Y288501D01*
X514267D01*
X514934Y289167D01*
X516267Y288501D02*
X517600D01*
X516933D01*
Y292499D01*
X516267Y291833D01*
X519599Y288501D02*
X520932D01*
X520265D01*
Y292499D01*
X519599Y291833D01*
X513867Y246333D02*
X513201Y246999D01*
X511868D01*
X511202Y246333D01*
Y243667D01*
X511868Y243001D01*
X513201D01*
X513867Y243667D01*
X515200Y243001D02*
X516533D01*
X515867D01*
Y246999D01*
X515200Y246333D01*
X518533D02*
X519199Y246999D01*
X520532D01*
X521198Y246333D01*
Y243667D01*
X520532Y243001D01*
X519199D01*
X518533Y243667D01*
Y246333D01*
X482334Y206833D02*
X481667Y207499D01*
X480334D01*
X479668Y206833D01*
Y204167D01*
X480334Y203501D01*
X481667D01*
X482334Y204167D01*
X483667D02*
X484333Y203501D01*
X485666D01*
X486332Y204167D01*
Y206833D01*
X485666Y207499D01*
X484333D01*
X483667Y206833D01*
Y206166D01*
X484333Y205500D01*
X486332D01*
X493734Y226033D02*
X493067Y226699D01*
X491734D01*
X491068Y226033D01*
Y223367D01*
X491734Y222701D01*
X493067D01*
X493734Y223367D01*
X495066Y226033D02*
X495733Y226699D01*
X497066D01*
X497732Y226033D01*
Y225366D01*
X497066Y224700D01*
X497732Y224034D01*
Y223367D01*
X497066Y222701D01*
X495733D01*
X495066Y223367D01*
Y224034D01*
X495733Y224700D01*
X495066Y225366D01*
Y226033D01*
X495733Y224700D02*
X497066D01*
X477934Y280433D02*
X477267Y281099D01*
X475934D01*
X475268Y280433D01*
Y277767D01*
X475934Y277101D01*
X477267D01*
X477934Y277767D01*
X479267Y281099D02*
X481932D01*
Y280433D01*
X479267Y277767D01*
Y277101D01*
X471934Y261433D02*
X471267Y262099D01*
X469934D01*
X469268Y261433D01*
Y258767D01*
X469934Y258101D01*
X471267D01*
X471934Y258767D01*
X475932Y262099D02*
X474599Y261433D01*
X473267Y260100D01*
Y258767D01*
X473933Y258101D01*
X475266D01*
X475932Y258767D01*
Y259434D01*
X475266Y260100D01*
X473267D01*
X464034Y273833D02*
X463367Y274499D01*
X462034D01*
X461368Y273833D01*
Y271167D01*
X462034Y270501D01*
X463367D01*
X464034Y271167D01*
X468032Y274499D02*
X465367D01*
Y272500D01*
X466699Y273166D01*
X467366D01*
X468032Y272500D01*
Y271167D01*
X467366Y270501D01*
X466033D01*
X465367Y271167D01*
X477734Y286833D02*
X477067Y287499D01*
X475734D01*
X475068Y286833D01*
Y284167D01*
X475734Y283501D01*
X477067D01*
X477734Y284167D01*
X481066Y283501D02*
Y287499D01*
X479067Y285500D01*
X481732D01*
X513634Y269033D02*
X512967Y269699D01*
X511634D01*
X510968Y269033D01*
Y266367D01*
X511634Y265701D01*
X512967D01*
X513634Y266367D01*
X514966Y269033D02*
X515633Y269699D01*
X516966D01*
X517632Y269033D01*
Y268366D01*
X516966Y267700D01*
X516299D01*
X516966D01*
X517632Y267034D01*
Y266367D01*
X516966Y265701D01*
X515633D01*
X514966Y266367D01*
X494366Y414832D02*
X493699Y415499D01*
X492366D01*
X491700Y414832D01*
Y412166D01*
X492366Y411500D01*
X493699D01*
X494366Y412166D01*
X498364Y411500D02*
X495699D01*
X498364Y414166D01*
Y414832D01*
X497698Y415499D01*
X496365D01*
X495699Y414832D01*
X464366D02*
X463699Y415499D01*
X462366D01*
X461700Y414832D01*
Y412166D01*
X462366Y411500D01*
X463699D01*
X464366Y412166D01*
X465699Y411500D02*
X467032D01*
X466365D01*
Y415499D01*
X465699Y414832D01*
%TF.MD5,42f6bf63e43b74d658ec3d8200d7cae1*%
M02*
