M48
;Layer_Color=9474304
;FILE_FORMAT=2:4
INCH,TZ
;TYPE=PLATED
T1F00S00C0.0118
T2F00S00C0.0276
T3F00S00C0.0354
T4F00S00C0.0362
T5F00S00C0.0433
T6F00S00C0.0906
T7F00S00C0.1200
;TYPE=NON_PLATED
T8F00S00C0.0354
T9F00S00C0.0457
%
T01
X47500Y22000
X48560Y23860
X50190
X50194Y26149
X49530Y28480
X52200Y27450
X52100Y25050
X52050Y22700
X51768Y21268
X47650Y30500
X47750Y31150
X46437Y30487
X46228Y30222
X46040Y30570
X45580Y30620
X45550Y30250
X45200Y30510
X45260Y30828
X44790Y31010
X44530Y31220
X44650Y29050
X44100Y28300
X45230Y27610
X42700Y27650
X40550Y27620
X40850Y30500
X40400Y30750
X46611Y29161
X46300Y25850
X43500Y25750
X45700Y23350
X44850Y31410
X44800Y31810
X44532Y32006
X44520Y31610
X44700Y33190
X43200Y33000
X42700Y33100
X42400Y33400
X42700Y31850
Y31300
X41050Y32200
X40400Y32000
X37900Y31250
X41600Y36400
X42150Y36950
X40150Y37850
X40700Y38400
X39550Y39950
X42253Y45256
X45900Y44300
X45650Y37650
X45150Y37050
X45580Y36420
X45850Y36150
X45849Y35500
X46622Y35328
X46820Y35070
X45160Y35171
X45226Y34812
X44910Y34740
X43950Y34170
X47600Y34850
X47980Y35100
X47990Y35520
X48000Y36520
X47130Y37730
X48650Y38050
X48900Y38700
X47440Y39690
X51050Y39700
Y40065
X51100Y40470
X51090Y40870
X51410Y40670
Y40260
X51400Y39870
X51300Y39500
X51250Y39100
X51000Y39300
X51110Y41450
X51170Y41850
X51220Y42240
X51500Y42050
X51480Y41650
X48898Y44279
X49150Y32600
X52400Y33000
X52250Y33700
T02
X53150Y23350
X53937
X53944Y25650
X53156
X53150Y27950
X53937
X46600Y24350
Y23563
Y22775
Y21988
Y21200
X53600Y33700
Y34487
T03
X41500Y26700
X42500
X43500
X38620Y35000
X37620
X36620
X35620
X34620
X33620
X40950Y43300
Y44284
Y45269
X43950Y45284
Y44300
Y43316
X46900Y43300
Y44284
Y45269
X49850
Y44284
Y43300
X48910Y37030
Y36030
T04
X38317Y38159
Y39143
Y39930
Y40915
T05
X53450Y20150
Y21150
T06
X37250Y36950
Y42123
T07
X51400Y30050
X43750Y21360
X37300Y27000
X36450Y44160
X53300Y45210
T08
X38500Y22650
T09
X35646Y22650
M30
