G04*
G04 #@! TF.GenerationSoftware,Altium Limited,Altium Designer,23.3.1 (30)*
G04*
G04 Layer_Color=16711935*
%FSLAX25Y25*%
%MOIN*%
G70*
G04*
G04 #@! TF.SameCoordinates,6E427E01-6470-4732-AD83-5CA9447D70B9*
G04*
G04*
G04 #@! TF.FilePolarity,Positive*
G04*
G01*
G75*
%ADD11C,0.00394*%
%ADD12C,0.00787*%
D11*
X410870Y333055D02*
Y339945D01*
X407130Y333055D02*
Y339945D01*
Y333055D02*
X410870D01*
X407130Y339945D02*
X410870D01*
X416870Y333055D02*
Y339945D01*
X413130Y333055D02*
Y339945D01*
Y333055D02*
X416870D01*
X413130Y339945D02*
X416870D01*
X422870Y333055D02*
Y339945D01*
X419130Y333055D02*
Y339945D01*
Y333055D02*
X422870D01*
X419130Y339945D02*
X422870D01*
X410665Y377686D02*
X415954D01*
X405169Y372190D02*
X413309Y380331D01*
X405169Y372190D02*
X409691Y367669D01*
X417831Y375810D01*
X413309Y380331D02*
X417831Y375810D01*
X412793Y385062D02*
X417665Y380190D01*
X415438Y387707D02*
X420309Y382835D01*
X417665Y380190D02*
X420309Y382835D01*
X412793Y385062D02*
X415438Y387707D01*
X491630Y335555D02*
Y342445D01*
X495370Y335555D02*
Y342445D01*
X491630Y335555D02*
X495370D01*
X491630Y342445D02*
X495370D01*
X473655Y362170D02*
X480545D01*
X473655Y358430D02*
X480545D01*
Y362170D01*
X473655Y358430D02*
Y362170D01*
X473711Y372170D02*
X480601D01*
X473711Y368430D02*
X480601D01*
Y372170D01*
X473711Y368430D02*
Y372170D01*
X514130Y239602D02*
X517870D01*
X514130Y232713D02*
X517870D01*
Y239602D01*
X514130Y232713D02*
Y239602D01*
Y262287D02*
X517870D01*
X514130Y255398D02*
X517870D01*
Y262287D01*
X514130Y255398D02*
Y262287D01*
Y285445D02*
X517870D01*
X514130Y278555D02*
X517870D01*
Y285445D01*
X514130Y278555D02*
Y285445D01*
X441610Y299406D02*
Y338776D01*
X480980D01*
Y299406D02*
Y338776D01*
X441610Y299406D02*
X480980D01*
X441610Y301374D02*
X443579Y299406D01*
X431445Y399630D02*
Y403370D01*
X424555Y399630D02*
Y403370D01*
Y399630D02*
X431445D01*
X424555Y403370D02*
X431445D01*
X387894Y364264D02*
Y426469D01*
X332382Y364264D02*
X387894D01*
X332382D02*
Y426469D01*
X387894D01*
X431445Y405130D02*
Y408870D01*
X424555Y405130D02*
Y408870D01*
Y405130D02*
X431445D01*
X424555Y408870D02*
X431445D01*
X393630Y409945D02*
X397370D01*
X393630Y403055D02*
X397370D01*
Y409945D01*
X393630Y403055D02*
Y409945D01*
X410244Y401291D02*
X415756D01*
X410244Y412709D02*
X415756D01*
Y401291D02*
Y412709D01*
X410244Y401291D02*
Y412709D01*
X399630Y403055D02*
X403370D01*
X399630Y409945D02*
X403370D01*
X399630Y403055D02*
Y409945D01*
X403370Y403055D02*
Y409945D01*
X456630Y278555D02*
X460370D01*
X456630Y285445D02*
X460370D01*
X456630Y278555D02*
Y285445D01*
X460370Y278555D02*
Y285445D01*
X476130Y400555D02*
X479870D01*
X476130Y407445D02*
X479870D01*
X476130Y400555D02*
Y407445D01*
X479870Y400555D02*
Y407445D01*
X477555Y390130D02*
Y393870D01*
X484445Y390130D02*
Y393870D01*
X477555D02*
X484445D01*
X477555Y390130D02*
X484445D01*
X446130Y400799D02*
X449870D01*
X446130Y407689D02*
X449870D01*
X446130Y400799D02*
Y407689D01*
X449870Y400799D02*
Y407689D01*
X447799Y390130D02*
Y393870D01*
X454689Y390130D02*
Y393870D01*
X447799D02*
X454689D01*
X447799Y390130D02*
X454689D01*
X458157Y399803D02*
Y408465D01*
X452843Y399803D02*
Y408465D01*
X458157D01*
X452843Y399803D02*
X458157D01*
X488158Y399669D02*
Y408331D01*
X482842Y399669D02*
Y408331D01*
X488158D01*
X482842Y399669D02*
X488158D01*
X491630Y407445D02*
X495370D01*
X491630Y400555D02*
X495370D01*
Y407445D01*
X491630Y400555D02*
Y407445D01*
X461630D02*
X465370D01*
X461630Y400555D02*
X465370D01*
Y407445D01*
X461630Y400555D02*
Y407445D01*
X446945Y251630D02*
Y255370D01*
X440055Y251630D02*
Y255370D01*
Y251630D02*
X446945D01*
X440055Y255370D02*
X446945D01*
X496067Y202693D02*
X500693Y198067D01*
X496067Y202693D02*
Y218933D01*
X516933D01*
Y202594D02*
Y218933D01*
X500693Y198067D02*
X512405D01*
X516933Y202594D01*
X407445Y288130D02*
Y291870D01*
X400555Y288130D02*
Y291870D01*
Y288130D02*
X407445D01*
X400555Y291870D02*
X407445D01*
X431764Y259807D02*
X452236D01*
X431764Y273193D02*
X452236D01*
Y259807D02*
Y273193D01*
X431764Y259807D02*
Y273193D01*
X407445Y293630D02*
Y297370D01*
X400555Y293630D02*
Y297370D01*
Y293630D02*
X407445D01*
X400555Y297370D02*
X407445D01*
X507130Y278614D02*
X510870D01*
X507130Y285504D02*
X510870D01*
X507130Y278614D02*
Y285504D01*
X510870Y278614D02*
Y285504D01*
X507130Y232555D02*
X510870D01*
X507130Y239445D02*
X510870D01*
X507130Y232555D02*
Y239445D01*
X510870Y232555D02*
Y239445D01*
X507130Y255496D02*
X510870D01*
X507130Y262386D02*
X510870D01*
X507130Y255496D02*
Y262386D01*
X510870Y255496D02*
Y262386D01*
X336276Y282405D02*
Y333823D01*
Y282405D02*
X391512D01*
Y333823D01*
X336276D02*
X391512D01*
X451555Y251630D02*
Y255370D01*
X458445Y251630D02*
Y255370D01*
X451555D02*
X458445D01*
X451555Y251630D02*
X458445D01*
X435689Y251630D02*
Y255370D01*
X428799Y251630D02*
Y255370D01*
Y251630D02*
X435689D01*
X428799Y255370D02*
X435689D01*
X469630Y278799D02*
X473370D01*
X469630Y285689D02*
X473370D01*
X469630Y278799D02*
Y285689D01*
X473370D02*
X473370Y278799D01*
X420898Y295630D02*
Y299370D01*
X427787Y295630D02*
Y299370D01*
X420898D02*
X427787D01*
X420898Y295630D02*
X427787D01*
X463630Y278398D02*
X467370D01*
X463630Y285287D02*
X467370D01*
X463630Y278398D02*
Y285287D01*
X467370Y278398D02*
Y285287D01*
X420898Y302130D02*
Y305870D01*
X427787Y302130D02*
Y305870D01*
X420898D02*
X427787D01*
X420898Y302130D02*
X427787D01*
X442530Y357945D02*
X446270D01*
X442530Y351055D02*
X446270D01*
Y357945D01*
X442530Y351055D02*
Y357945D01*
X501602Y306130D02*
Y309870D01*
X494713Y306130D02*
Y309870D01*
Y306130D02*
X501602D01*
X494713Y309870D02*
X501602D01*
X471398Y271130D02*
Y274870D01*
X478287Y271130D02*
Y274870D01*
X471398D02*
X478287D01*
X471398Y271130D02*
X478287D01*
X471398Y264630D02*
Y268370D01*
X478287Y264630D02*
Y268370D01*
X471398D02*
X478287D01*
X471398Y264630D02*
X478287D01*
X483551Y259752D02*
Y266248D01*
X487449Y259752D02*
Y266248D01*
X483551Y259752D02*
X487449D01*
X483551Y266248D02*
X487449D01*
D12*
X400315Y226500D02*
X400298Y227504D01*
X400246Y228507D01*
X400159Y229508D01*
X400038Y230505D01*
X399883Y231497D01*
X399693Y232484D01*
X399469Y233463D01*
X399212Y234434D01*
X398922Y235395D01*
X398598Y236346D01*
X398242Y237285D01*
X397854Y238211D01*
X397434Y239124D01*
X396982Y240021D01*
X396500Y240902D01*
X395988Y241766D01*
X395446Y242612D01*
X394876Y243438D01*
X394277Y244245D01*
X393651Y245030D01*
X392998Y245793D01*
X392319Y246533D01*
X391615Y247250D01*
X390887Y247941D01*
X390135Y248607D01*
X389361Y249247D01*
X388565Y249860D01*
X387748Y250444D01*
X386912Y251000D01*
X386057Y251528D01*
X385184Y252025D01*
X384295Y252491D01*
X383390Y252927D01*
X382470Y253331D01*
X381538Y253704D01*
X380592Y254044D01*
X379636Y254351D01*
X378670Y254625D01*
X377695Y254865D01*
X376712Y255072D01*
X375722Y255244D01*
X374727Y255382D01*
X373728Y255486D01*
X372726Y255556D01*
X371723Y255590D01*
X370718D01*
X369714Y255556D01*
X368712Y255486D01*
X367713Y255382D01*
X366719Y255244D01*
X365729Y255072D01*
X364746Y254865D01*
X363771Y254625D01*
X362805Y254351D01*
X361849Y254044D01*
X360903Y253704D01*
X359971Y253331D01*
X359051Y252927D01*
X358146Y252491D01*
X357257Y252025D01*
X356384Y251528D01*
X355529Y251000D01*
X354693Y250444D01*
X353876Y249860D01*
X353080Y249247D01*
X352306Y248607D01*
X351554Y247941D01*
X350826Y247250D01*
X350122Y246533D01*
X349443Y245793D01*
X348790Y245030D01*
X348164Y244245D01*
X347565Y243438D01*
X346994Y242612D01*
X346453Y241766D01*
X345941Y240902D01*
X345459Y240021D01*
X345007Y239124D01*
X344587Y238211D01*
X344199Y237285D01*
X343843Y236346D01*
X343519Y235395D01*
X343229Y234434D01*
X342971Y233463D01*
X342748Y232484D01*
X342558Y231497D01*
X342403Y230505D01*
X342282Y229508D01*
X342195Y228507D01*
X342143Y227504D01*
X342126Y226500D01*
X342143Y225496D01*
X342195Y224493D01*
X342282Y223492D01*
X342403Y222495D01*
X342558Y221503D01*
X342748Y220516D01*
X342971Y219537D01*
X343229Y218566D01*
X343519Y217605D01*
X343843Y216654D01*
X344199Y215715D01*
X344587Y214789D01*
X345007Y213876D01*
X345459Y212979D01*
X345941Y212098D01*
X346453Y211234D01*
X346994Y210388D01*
X347565Y209562D01*
X348164Y208755D01*
X348790Y207970D01*
X349443Y207207D01*
X350122Y206467D01*
X350826Y205750D01*
X351554Y205059D01*
X352306Y204393D01*
X353080Y203753D01*
X353876Y203140D01*
X354693Y202556D01*
X355529Y201999D01*
X356384Y201472D01*
X357257Y200975D01*
X358146Y200508D01*
X359051Y200073D01*
X359971Y199669D01*
X360904Y199296D01*
X361849Y198956D01*
X362805Y198649D01*
X363771Y198375D01*
X364746Y198135D01*
X365729Y197928D01*
X366719Y197756D01*
X367714Y197618D01*
X368713Y197514D01*
X369715Y197444D01*
X370718Y197410D01*
X371723Y197410D01*
X372727Y197444D01*
X373729Y197514D01*
X374728Y197618D01*
X375722Y197756D01*
X376712Y197928D01*
X377695Y198135D01*
X378670Y198375D01*
X379636Y198649D01*
X380592Y198956D01*
X381538Y199296D01*
X382470Y199669D01*
X383390Y200073D01*
X384295Y200509D01*
X385184Y200975D01*
X386057Y201473D01*
X386912Y202000D01*
X387748Y202556D01*
X388565Y203140D01*
X389361Y203753D01*
X390135Y204393D01*
X390887Y205059D01*
X391615Y205750D01*
X392319Y206467D01*
X392998Y207207D01*
X393651Y207970D01*
X394277Y208755D01*
X394876Y209562D01*
X395447Y210388D01*
X395988Y211234D01*
X396500Y212098D01*
X396983Y212979D01*
X397434Y213877D01*
X397854Y214789D01*
X398242Y215715D01*
X398598Y216654D01*
X398922Y217605D01*
X399212Y218567D01*
X399470Y219537D01*
X399693Y220517D01*
X399883Y221503D01*
X400038Y222495D01*
X400159Y223492D01*
X400246Y224493D01*
X400298Y225496D01*
X400315Y226500D01*
X534551Y300095D02*
Y319779D01*
X544394D01*
Y300095D02*
Y319779D01*
X534551Y300095D02*
X544394D01*
X433004Y245193D02*
X480248D01*
Y227476D02*
Y245193D01*
X433004Y227476D02*
X480248D01*
X433004D02*
Y245193D01*
X529307Y329323D02*
X547024D01*
Y352551D01*
X529307D02*
X547024D01*
X529307Y329323D02*
Y352551D01*
X433095Y221295D02*
X454906D01*
X433095Y195705D02*
Y221295D01*
Y195705D02*
X454906D01*
Y221295D01*
X463595D02*
X485406D01*
X463595Y195705D02*
Y221295D01*
Y195705D02*
X485406D01*
Y221295D01*
X522559Y368102D02*
Y431488D01*
X544606D01*
Y368102D02*
Y431488D01*
X522559Y368102D02*
X544606D01*
X523823Y268476D02*
Y286193D01*
Y268476D02*
X547051D01*
Y286193D01*
X523823D02*
X547051D01*
X523823Y222476D02*
Y240193D01*
Y222476D02*
X547051D01*
Y240193D01*
X523823D02*
X547051D01*
X523886Y245476D02*
Y263193D01*
Y245476D02*
X547114D01*
Y263193D01*
X523886D02*
X547114D01*
M02*
