M48
;Layer_Color=9474304
;FILE_FORMAT=2:4
INCH,LZ
;TYPE=PLATED
T1F00S00C0.0079
T2F00S00C0.0130
T4F00S00C0.0280
T5F00S00C0.0354
T6F00S00C0.0362
T7F00S00C0.0433
T8F00S00C0.0906
T9F00S00C0.1260
;TYPE=NON_PLATED
T10F00S00C0.1311
%
T01
X03542Y01481
X03581Y02006
X03485Y02008
X03337Y02023
X03261Y0202
X0349Y02185
X0365Y02228
X03684Y02441
X03701Y0246
X03683Y0248
X038052Y024849
X03739Y02625
X03756Y0268
X03708Y02762
X03659Y02753
X03637Y02842
X03809Y02774
X03818Y02906
X04113Y02992
X04152Y02658
X04231Y0267
X04233Y02613
X04425Y02654
X04286Y01958
X04117Y01977
X040979Y01934
X0408Y01887
X04005Y02
X03885Y02003
X03786Y02004
X03818Y01885
X03718Y019029
X03872Y02182
X03983Y02233
X04092Y02151
X04091Y02107
X04117Y02049
X04561Y01635
X03634Y02581
X032735Y0255
X03198Y0251
X032481Y02451
X03251Y024211
X0313Y02343
X029628Y023102
X029329Y020072
X029486Y019907
X02965Y01975
X030217Y019823
X02995Y01893
X03003Y01861
X03106Y01865
Y01841
X02944Y01695
X029165Y020229
X029Y02039
X02883Y02054
X02866Y0207
X0284Y02097
X02824Y02114
X02668Y01904
X02649Y01884
X02628Y01895
X02609Y0191
X025893Y018913
X025698Y019108
X0255Y01933
X02491Y01914
X02441Y01924
X0253Y0187
X02688Y01884
X02471Y02098
X02482Y02594
X026279Y02697
X0272Y02818
X029644Y027787
X02829Y02567
X02775Y02563
X02939Y03425
X03095Y03426
X03036Y03686
X030545Y03862
X03073Y03848
X030966Y038455
X02992Y03851
X02901Y03882
X02846Y03811
X02895Y03744
Y04039
X02923Y04011
X03074Y04091
X030551Y04112
X03022Y04386
X03003Y04438
X02746Y0395
X02648Y039921
X02647Y03802
X0313Y03707
X03233Y03945
X032273Y039953
X032003Y039957
X03258Y04067
X03303Y04068
X03336Y04087
X03361Y03954
X03338Y04285
X03335Y04334
Y04379
X03288Y04364
X03243Y04328
X03187Y04273
X03223Y04204
X03141Y04095
X03751Y03888
X03974Y03852
X04003Y04132
X03905Y04326
X03595Y03665
X03929Y03296
X03932Y03221
X03911Y03167
X04172Y03224
X04171Y03304
T02
X030686Y039574
Y040046
T04
X02663Y04061
T05
X03251Y019466
X03351
X03485Y01942
X03585
X03685
X03785
X03885
X03985
X03871Y02774
Y02874
Y02974
Y03074
X02392Y02704
Y02604
Y02504
Y02404
Y02304
Y02204
Y02104
Y02004
T06
X042557Y031262
Y032246
Y033034
Y034018
T07
X03306Y01652
X03406
T08
X043624Y030053
Y035227
T09
X04708Y01423
X02809Y02291
X0247Y04006
X03659Y0346
T10
X045147Y03903
Y04403
M30
