G04*
G04 #@! TF.GenerationSoftware,Altium Limited,Altium Designer,20.1.11 (218)*
G04*
G04 Layer_Color=16711935*
%FSLAX24Y24*%
%MOIN*%
G70*
G04*
G04 #@! TF.SameCoordinates,FE305F3D-5073-4B85-8CB4-D00664FC1F7A*
G04*
G04*
G04 #@! TF.FilePolarity,Positive*
G04*
G01*
G75*
%ADD10C,0.0079*%
%ADD12C,0.0039*%
%ADD109C,0.0050*%
D10*
X28377Y41743D02*
Y42727D01*
Y41743D02*
X29637D01*
Y42727D01*
X28377D02*
X29637D01*
X32469Y17800D02*
X34651D01*
X32469Y15240D02*
Y17800D01*
Y15240D02*
X34651D01*
Y17800D01*
X41076Y37829D02*
X47225D01*
Y45231D01*
X41076D02*
X47225D01*
X41076Y37829D02*
Y45231D01*
X24876Y29150D02*
Y35450D01*
Y29150D02*
X34324D01*
Y35450D01*
X24876D02*
X34324D01*
X24004Y15809D02*
X31130D01*
X24004D02*
Y17620D01*
X31130D01*
Y15809D02*
Y17620D01*
X24004Y15415D02*
X31130D01*
X24004D02*
Y15809D01*
X31130D01*
Y15415D02*
Y15809D01*
D12*
X31080Y40243D02*
G03*
X31080Y40243I-197J0D01*
G01*
X30173Y41521D02*
Y42210D01*
X30547Y41521D02*
Y42210D01*
X30173Y41521D02*
X30547D01*
X30173Y42210D02*
X30547D01*
X30983Y41311D02*
X31357D01*
X30983Y42000D02*
X31357D01*
X30983Y41311D02*
Y42000D01*
X31357Y41311D02*
Y42000D01*
X31553Y42004D02*
X31927D01*
X31553Y41316D02*
X31927D01*
Y42004D01*
X31553Y41316D02*
Y42004D01*
X30830Y43204D02*
X31470D01*
X30830D02*
Y44356D01*
X31470D01*
Y43204D02*
Y44356D01*
X31096Y43204D02*
X31470Y43578D01*
X28946Y44143D02*
X29635D01*
X28946Y44517D02*
X29635D01*
Y44143D02*
Y44517D01*
X28946Y44143D02*
Y44517D01*
X27433Y41900D02*
Y42589D01*
X27807Y41900D02*
Y42589D01*
X27433Y41900D02*
X27807D01*
X27433Y42589D02*
X27807D01*
X26361Y44263D02*
X26823Y43801D01*
Y42177D02*
Y43801D01*
X24737Y42177D02*
X26823D01*
X24737D02*
Y43811D01*
X25189Y44263D02*
X26361D01*
X24737Y43811D02*
X25189Y44263D01*
X27150Y41620D02*
X27839D01*
X27150Y41246D02*
X27839D01*
X27150D02*
Y41620D01*
X27839Y41246D02*
Y41620D01*
X27278Y39780D02*
Y40469D01*
X27652Y39780D02*
Y40469D01*
X27278Y39780D02*
X27652D01*
X27278Y40469D02*
X27652D01*
X27800Y39790D02*
Y40479D01*
X28174Y39790D02*
Y40479D01*
X27800Y39790D02*
X28174D01*
X27800Y40479D02*
X28174D01*
X28697Y39780D02*
Y40469D01*
X28323Y39780D02*
Y40469D01*
X28697D01*
X28323Y39780D02*
X28697D01*
X28420Y38477D02*
Y39166D01*
X28794Y38477D02*
Y39166D01*
X28420Y38477D02*
X28794D01*
X28420Y39166D02*
X28794D01*
X27898Y38517D02*
Y39206D01*
X28272Y38517D02*
Y39206D01*
X27898Y38517D02*
X28272D01*
X27898Y39206D02*
X28272D01*
X27325Y38510D02*
Y39199D01*
X27699Y38510D02*
Y39199D01*
X27325Y38510D02*
X27699D01*
X27325Y39199D02*
X27699D01*
X26803Y38511D02*
Y39200D01*
X27177Y38511D02*
Y39200D01*
X26803Y38511D02*
X27177D01*
X26803Y39200D02*
X27177D01*
X26280Y38510D02*
Y39199D01*
X26654Y38510D02*
Y39199D01*
X26280Y38510D02*
X26654D01*
X26280Y39199D02*
X26654D01*
X26164Y37143D02*
Y37517D01*
X25476Y37143D02*
Y37517D01*
Y37143D02*
X26164D01*
X25476Y37517D02*
X26164D01*
X29133Y37373D02*
Y38062D01*
X29507Y37373D02*
Y38062D01*
X29133Y37373D02*
X29507D01*
X29133Y38062D02*
X29507D01*
X29656Y37373D02*
Y38062D01*
X30030Y37373D02*
Y38062D01*
X29656Y37373D02*
X30030D01*
X29656Y38062D02*
X30030D01*
X30203Y37373D02*
Y38062D01*
X30577Y37373D02*
Y38062D01*
X30203Y37373D02*
X30577D01*
X30203Y38062D02*
X30577D01*
X30726Y37373D02*
Y38062D01*
X31100Y37373D02*
Y38062D01*
X30726Y37373D02*
X31100D01*
X30726Y38062D02*
X31100D01*
X32010Y37570D02*
Y38259D01*
X32384Y37570D02*
Y38259D01*
X32010Y37570D02*
X32384D01*
X32010Y38259D02*
X32384D01*
X32523Y38264D02*
X32897D01*
X32523Y37576D02*
X32897D01*
Y38264D01*
X32523Y37576D02*
Y38264D01*
X33053Y37580D02*
Y38269D01*
X33427Y37580D02*
Y38269D01*
X33053Y37580D02*
X33427D01*
X33053Y38269D02*
X33427D01*
X33573Y37576D02*
Y38264D01*
X33947Y37576D02*
Y38264D01*
X33573Y37576D02*
X33947D01*
X33573Y38264D02*
X33947D01*
X34093Y37576D02*
Y38264D01*
X34467Y37576D02*
Y38264D01*
X34093Y37576D02*
X34467D01*
X34093Y38264D02*
X34467D01*
X36527Y37356D02*
Y38044D01*
X36153Y37356D02*
Y38044D01*
X36527D01*
X36153Y37356D02*
X36527D01*
X37110D02*
Y38044D01*
X36736Y37356D02*
Y38044D01*
X37110D01*
X36736Y37356D02*
X37110D01*
X37682Y37366D02*
Y38054D01*
X37308Y37366D02*
Y38054D01*
X37682D01*
X37308Y37366D02*
X37682D01*
X38255Y37356D02*
Y38044D01*
X37881Y37356D02*
Y38044D01*
X38255D01*
X37881Y37356D02*
X38255D01*
X39557Y37261D02*
Y37950D01*
X39183Y37261D02*
Y37950D01*
X39557D01*
X39183Y37261D02*
X39557D01*
X38766Y43543D02*
Y43917D01*
X39454Y43543D02*
Y43917D01*
X38766D02*
X39454D01*
X38766Y43543D02*
X39454D01*
X38769Y44066D02*
X39458D01*
X38769Y44440D02*
X39458D01*
Y44066D02*
Y44440D01*
X38769Y44066D02*
Y44440D01*
X42084Y29530D02*
X47636D01*
Y35750D01*
X42084D02*
X47636D01*
X42084Y29530D02*
Y35750D01*
X39800Y34470D02*
X40174D01*
X39800Y35159D02*
X40174D01*
X39800Y34470D02*
Y35159D01*
X40174Y34470D02*
Y35159D01*
X40353Y34476D02*
X40727D01*
X40353Y35164D02*
X40727D01*
X40353Y34476D02*
Y35164D01*
X40727Y34476D02*
Y35164D01*
X38339Y34364D02*
X39481D01*
X38339Y34916D02*
X39481D01*
X38339Y34364D02*
Y34916D01*
X39481Y34364D02*
Y34916D01*
X42397Y26971D02*
Y27660D01*
X42023Y26971D02*
Y27660D01*
X42397D01*
X42023Y26971D02*
X42397D01*
X43010Y25924D02*
X43650D01*
X43010D02*
Y27076D01*
X43650D01*
Y25924D02*
Y27076D01*
X43276Y25924D02*
X43650Y26298D01*
X41516Y25060D02*
Y25434D01*
X42204Y25060D02*
Y25434D01*
X41516D02*
X42204D01*
X41516Y25060D02*
X42204D01*
X42666Y25499D02*
X43354D01*
X42666Y25125D02*
X43354D01*
X42666D02*
Y25499D01*
X43354Y25125D02*
Y25499D01*
X43799Y24507D02*
Y25373D01*
X44370Y24507D02*
Y25373D01*
X43799Y24507D02*
X44370D01*
X43799Y25373D02*
X44370D01*
X42508Y23685D02*
X43138D01*
X42508D02*
Y24846D01*
X43138D01*
Y23685D02*
Y24846D01*
X42764Y23685D02*
X43138Y24059D01*
X41500Y24511D02*
X41874D01*
X41500Y23822D02*
X41874D01*
Y24511D01*
X41500Y23822D02*
Y24511D01*
X41640Y23053D02*
Y23427D01*
X42329Y23053D02*
Y23427D01*
X41640D02*
X42329D01*
X41640Y23053D02*
X42329D01*
X37196Y28893D02*
X37884D01*
X37196Y29267D02*
X37884D01*
Y28893D02*
Y29267D01*
X37196Y28893D02*
Y29267D01*
X37201Y28353D02*
X37890D01*
X37201Y28727D02*
X37890D01*
Y28353D02*
Y28727D01*
X37201Y28353D02*
Y28727D01*
X38600Y23884D02*
X38974D01*
X38600Y23196D02*
X38974D01*
Y23884D01*
X38600Y23196D02*
Y23884D01*
X39173Y23196D02*
X39547D01*
X39173Y23884D02*
X39547D01*
X39173Y23196D02*
Y23884D01*
X39547Y23196D02*
Y23884D01*
X27927Y26850D02*
Y27539D01*
X27553Y26850D02*
Y27539D01*
X27927D01*
X27553Y26850D02*
X27927D01*
X28477Y26836D02*
Y27524D01*
X28103Y26836D02*
Y27524D01*
X28477D01*
X28103Y26836D02*
X28477D01*
X27013Y26836D02*
Y27524D01*
X27387Y26836D02*
Y27524D01*
X27013Y26836D02*
X27387D01*
X27013Y27524D02*
X27387D01*
X26423Y26856D02*
Y27544D01*
X26797Y26856D02*
Y27544D01*
X26423Y26856D02*
X26797D01*
X26423Y27544D02*
X26797D01*
X25210Y27707D02*
X25899D01*
X25210Y27333D02*
X25899D01*
X25210D02*
Y27707D01*
X25899Y27333D02*
Y27707D01*
X30925Y20902D02*
Y21768D01*
X31495Y20902D02*
Y21768D01*
X30925Y20902D02*
X31495D01*
X30925Y21768D02*
X31495D01*
X31723Y21659D02*
X32097D01*
X31723Y20970D02*
X32097D01*
Y21659D01*
X31723Y20970D02*
Y21659D01*
X34673Y20371D02*
Y21060D01*
X35047Y20371D02*
Y21060D01*
X34673Y20371D02*
X35047D01*
X34673Y21060D02*
X35047D01*
X35623D02*
X35997D01*
X35623Y20371D02*
X35997D01*
Y21060D01*
X35623Y20371D02*
Y21060D01*
X37693Y20360D02*
Y21049D01*
X38067Y20360D02*
Y21049D01*
X37693Y20360D02*
X38067D01*
X37693Y21049D02*
X38067D01*
X38663Y20386D02*
Y21074D01*
X39037Y20386D02*
Y21074D01*
X38663Y20386D02*
X39037D01*
X38663Y21074D02*
X39037D01*
X39446Y20223D02*
X40134D01*
X39446Y20597D02*
X40134D01*
Y20223D02*
Y20597D01*
X39446Y20223D02*
Y20597D01*
X35203Y17174D02*
X35577D01*
X35203Y16486D02*
X35577D01*
Y17174D01*
X35203Y16486D02*
Y17174D01*
X36989Y15649D02*
X39351D01*
Y18011D01*
X36989Y15649D02*
Y18011D01*
X39351D01*
X27986Y37657D02*
X28674D01*
X27986Y37283D02*
X28674D01*
X27986D02*
Y37657D01*
X28674Y37283D02*
Y37657D01*
X32270Y44147D02*
X32959D01*
X32270Y43773D02*
X32959D01*
X32270D02*
Y44147D01*
X32959Y43773D02*
Y44147D01*
X32260Y44737D02*
X32949D01*
X32260Y44363D02*
X32949D01*
X32260D02*
Y44737D01*
X32949Y44363D02*
Y44737D01*
X28936Y43503D02*
X29624D01*
X28936Y43877D02*
X29624D01*
Y43503D02*
Y43877D01*
X28936Y43503D02*
Y43877D01*
X36143Y27457D02*
Y28028D01*
X35277Y27457D02*
Y28028D01*
Y27457D02*
X36143D01*
X35277Y28028D02*
X36143D01*
X36119Y26471D02*
Y27160D01*
X35745Y26471D02*
Y27160D01*
X36119D01*
X35745Y26471D02*
X36119D01*
X35172Y26446D02*
Y27134D01*
X35546Y26446D02*
Y27134D01*
X35172Y26446D02*
X35546D01*
X35172Y27134D02*
X35546D01*
X31666Y23523D02*
Y23897D01*
X32354Y23523D02*
Y23897D01*
X31666D02*
X32354D01*
X31666Y23523D02*
X32354D01*
Y22429D02*
Y22803D01*
X31666Y22429D02*
Y22803D01*
Y22429D02*
X32354D01*
X31666Y22803D02*
X32354D01*
X32023Y25897D02*
X32397D01*
X32023Y26586D02*
X32397D01*
X32023Y25897D02*
Y26586D01*
X32397Y25897D02*
Y26586D01*
X32354Y23001D02*
Y23375D01*
X31666Y23001D02*
Y23375D01*
Y23001D02*
X32354D01*
X31666Y23375D02*
X32354D01*
X33730Y26329D02*
Y26703D01*
X33041Y26329D02*
Y26703D01*
Y26329D02*
X33730D01*
X33041Y26703D02*
X33730D01*
X34599Y26446D02*
X34973D01*
X34599Y27134D02*
X34973D01*
X34599Y26446D02*
Y27134D01*
X34973Y26446D02*
Y27134D01*
X36416Y26727D02*
X37104D01*
X36416Y26353D02*
X37104D01*
X36416D02*
Y26727D01*
X37104Y26353D02*
Y26727D01*
X34027Y26446D02*
X34401D01*
X34027Y27134D02*
X34401D01*
X34027Y26446D02*
Y27134D01*
X34401Y26446D02*
Y27134D01*
X31423Y26592D02*
X31797D01*
X31423Y25903D02*
X31797D01*
Y26592D01*
X31423Y25903D02*
Y26592D01*
X30166Y23207D02*
Y23581D01*
X30854Y23207D02*
Y23581D01*
X30166D02*
X30854D01*
X30166Y23207D02*
X30854D01*
X31423Y24818D02*
X31797D01*
X31423Y25507D02*
X31797D01*
X31423Y24818D02*
Y25507D01*
X31797Y24818D02*
Y25507D01*
X30456Y24064D02*
Y26899D01*
X28764Y24064D02*
Y26899D01*
X30456D01*
X28764Y24064D02*
X30456D01*
X30386Y27313D02*
Y27687D01*
X31074Y27313D02*
Y27687D01*
X30386D02*
X31074D01*
X30386Y27313D02*
X31074D01*
X30823Y24818D02*
Y25507D01*
X31197Y24818D02*
Y25507D01*
X30823Y24818D02*
X31197D01*
X30823Y25507D02*
X31197D01*
X33319Y25490D02*
X36075D01*
Y22734D02*
Y25490D01*
X33319Y22734D02*
X36075D01*
X33319D02*
Y25490D01*
Y25293D02*
X33516Y25490D01*
X47222Y16819D02*
Y21961D01*
X41698D02*
X47222D01*
X41698Y16819D02*
Y21961D01*
Y16819D02*
X47222D01*
X35426Y35843D02*
Y36217D01*
X36114Y35843D02*
Y36217D01*
X35426D02*
X36114D01*
X35426Y35843D02*
X36114D01*
X26164Y37656D02*
Y38030D01*
X25476Y37656D02*
Y38030D01*
Y37656D02*
X26164D01*
X25476Y38030D02*
X26164D01*
X37287Y25286D02*
Y25974D01*
X36913Y25286D02*
Y25974D01*
X37287D01*
X36913Y25286D02*
X37287D01*
X36992Y23150D02*
Y23839D01*
X37366Y23150D02*
Y23839D01*
X36992Y23150D02*
X37366D01*
X36992Y23839D02*
X37366D01*
X37591Y24577D02*
X38280D01*
X37591Y24203D02*
X38280D01*
X37591D02*
Y24577D01*
X38280Y24203D02*
Y24577D01*
X37615Y24004D02*
X38303D01*
X37615Y23630D02*
X38303D01*
X37615D02*
Y24004D01*
X38303Y23630D02*
Y24004D01*
X29643Y39003D02*
Y40617D01*
X31257Y39003D02*
Y40617D01*
X29643Y39003D02*
X31257D01*
X29643Y40617D02*
X31257D01*
X27859Y40723D02*
Y41097D01*
X27170Y40723D02*
Y41097D01*
Y40723D02*
X27859D01*
X27170Y41097D02*
X27859D01*
X42724Y23053D02*
X43413D01*
X42724Y23427D02*
X43413D01*
Y23053D02*
Y23427D01*
X42724Y23053D02*
Y23427D01*
X41516Y25573D02*
X42204D01*
X41516Y25947D02*
X42204D01*
Y25573D02*
Y25947D01*
X41516Y25573D02*
Y25947D01*
X39943Y26970D02*
Y27659D01*
X40317Y26970D02*
Y27659D01*
X39943Y26970D02*
X40317D01*
X39943Y27659D02*
X40317D01*
X35591Y21522D02*
X36280D01*
X35591Y21896D02*
X36280D01*
Y21522D02*
Y21896D01*
X35591Y21522D02*
Y21896D01*
X38149Y36663D02*
Y37037D01*
X37460Y36663D02*
Y37037D01*
Y36663D02*
X38149D01*
X37460Y37037D02*
X38149D01*
X44023Y28134D02*
X44397D01*
X44023Y27446D02*
X44397D01*
Y28134D01*
X44023Y27446D02*
Y28134D01*
X40251Y32014D02*
X40625Y32388D01*
Y32014D02*
Y33166D01*
X39986D02*
X40625D01*
X39986Y32014D02*
Y33166D01*
Y32014D02*
X40625D01*
X38516Y33812D02*
X39204D01*
X38516Y33438D02*
X39204D01*
X38516D02*
Y33812D01*
X39204Y33438D02*
Y33812D01*
X38190Y32456D02*
Y33144D01*
X38564Y32456D02*
Y33144D01*
X38190Y32456D02*
X38564D01*
X38190Y33144D02*
X38564D01*
X38723Y32456D02*
Y33144D01*
X39097Y32456D02*
Y33144D01*
X38723Y32456D02*
X39097D01*
X38723Y33144D02*
X39097D01*
X43583Y15216D02*
X43957D01*
X43583Y15904D02*
X43957D01*
X43583Y15216D02*
Y15904D01*
X43957Y15216D02*
Y15904D01*
X44103Y15216D02*
X44477D01*
X44103Y15904D02*
X44477D01*
X44103Y15216D02*
Y15904D01*
X44477Y15216D02*
Y15904D01*
X45693Y15904D02*
X46067D01*
X45693Y15216D02*
X46067D01*
Y15904D01*
X45693Y15216D02*
Y15904D01*
X44623Y15216D02*
X44997D01*
X44623Y15904D02*
X44997D01*
X44623Y15216D02*
Y15904D01*
X44997Y15216D02*
Y15904D01*
X45136Y15220D02*
X45510D01*
X45136Y15909D02*
X45510D01*
X45136Y15220D02*
Y15909D01*
X45510Y15220D02*
Y15909D01*
X43063Y15216D02*
X43437D01*
X43063Y15904D02*
X43437D01*
X43063Y15216D02*
Y15904D01*
X43437Y15216D02*
Y15904D01*
X41707Y27218D02*
Y27769D01*
X40565Y27218D02*
Y27769D01*
X41707D01*
X40565Y27218D02*
X41707D01*
D109*
X36951Y39580D02*
Y44620D01*
X34589Y39580D02*
X36951D01*
X34589D02*
Y44620D01*
X36951D01*
M02*
