G04*
G04 #@! TF.GenerationSoftware,Altium Limited,Altium Designer,20.1.11 (218)*
G04*
G04 Layer_Physical_Order=1*
G04 Layer_Color=255*
%FSLAX24Y24*%
%MOIN*%
G70*
G04*
G04 #@! TF.SameCoordinates,FE305F3D-5073-4B85-8CB4-D00664FC1F7A*
G04*
G04*
G04 #@! TF.FilePolarity,Positive*
G04*
G01*
G75*
%ADD14R,0.0354X0.0315*%
%ADD15R,0.0472X0.0236*%
%ADD16R,0.0300X0.0300*%
%ADD17R,0.0512X0.0512*%
%ADD18R,0.0630X0.1102*%
%ADD19R,0.0315X0.0354*%
%ADD20R,0.0400X0.0320*%
%ADD21R,0.0320X0.0400*%
%ADD22R,0.0315X0.0354*%
%ADD23R,0.0551X0.0433*%
%ADD24R,0.0453X0.0236*%
%ADD25R,0.0906X0.0709*%
%ADD26R,0.1535X0.0984*%
%ADD27R,0.1201X0.0240*%
%ADD28R,0.0433X0.1024*%
%ADD29R,0.0551X0.0252*%
%ADD30R,0.0433X0.0551*%
%ADD31R,0.0472X0.1378*%
%ADD32R,0.0581X0.0118*%
%ADD33R,0.0118X0.0581*%
%ADD34R,0.0433X0.0276*%
%ADD35R,0.0720X0.0449*%
%ADD36R,0.1102X0.0339*%
%ADD37R,0.1311X0.0276*%
%ADD38R,0.0366X0.0354*%
%ADD39R,0.0307X0.0413*%
%ADD40R,0.0118X0.0512*%
%ADD41R,0.0709X0.0866*%
%ADD42R,0.0272X0.0110*%
%ADD43R,0.0984X0.0984*%
%ADD44R,0.0110X0.0272*%
%ADD45O,0.0531X0.0157*%
%ADD46R,0.0709X0.0748*%
G04:AMPARAMS|DCode=47|XSize=63mil|YSize=55.1mil|CornerRadius=13.8mil|HoleSize=0mil|Usage=FLASHONLY|Rotation=270.000|XOffset=0mil|YOffset=0mil|HoleType=Round|Shape=RoundedRectangle|*
%AMROUNDEDRECTD47*
21,1,0.0630,0.0276,0,0,270.0*
21,1,0.0354,0.0551,0,0,270.0*
1,1,0.0276,-0.0138,-0.0177*
1,1,0.0276,-0.0138,0.0177*
1,1,0.0276,0.0138,0.0177*
1,1,0.0276,0.0138,-0.0177*
%
%ADD47ROUNDEDRECTD47*%
%ADD94C,0.0100*%
%ADD95C,0.0150*%
%ADD96C,0.0060*%
%ADD97C,0.0669*%
%ADD98C,0.1181*%
%ADD99C,0.0591*%
%ADD100R,0.0591X0.0591*%
%ADD101R,0.0591X0.0591*%
%ADD102O,0.0689X0.0984*%
%ADD103C,0.0656*%
%ADD104C,0.1575*%
%ADD105O,0.0630X0.0354*%
%ADD106C,0.0177*%
%ADD107C,0.0500*%
%ADD108C,0.0260*%
G36*
X48160Y46163D02*
Y45640D01*
X48160Y13280D01*
X22710D01*
X22710Y46210D01*
X48113Y46210D01*
X48160Y46163D01*
D02*
G37*
%LPC*%
G36*
X38455Y44985D02*
X38450Y44980D01*
X38455D01*
Y44985D01*
D02*
G37*
G36*
Y45200D02*
X38275D01*
Y44980D01*
X38330D01*
Y45160D01*
X38455D01*
Y45200D01*
D02*
G37*
G36*
X39130D02*
X38950D01*
Y44980D01*
X39130D01*
Y45200D01*
D02*
G37*
G36*
X38910D02*
X38730D01*
Y45160D01*
X38830D01*
Y44980D01*
X38910D01*
Y45200D01*
D02*
G37*
G36*
X38235D02*
X38055D01*
Y44980D01*
X38235D01*
Y45200D01*
D02*
G37*
G36*
X45954Y45476D02*
X45167D01*
Y44963D01*
X45954D01*
Y45476D01*
D02*
G37*
G36*
X45127D02*
X44339D01*
Y44963D01*
X45127D01*
Y45476D01*
D02*
G37*
G36*
X38455Y44940D02*
X38450D01*
X38455Y44935D01*
Y44940D01*
D02*
G37*
G36*
X39130D02*
X38950D01*
Y44720D01*
X39130D01*
Y44940D01*
D02*
G37*
G36*
X38910D02*
X38830D01*
Y44760D01*
X38730D01*
Y44720D01*
X38910D01*
Y44940D01*
D02*
G37*
G36*
X38330D02*
X38275D01*
Y44720D01*
X38455D01*
Y44760D01*
X38330D01*
Y44940D01*
D02*
G37*
G36*
X38235D02*
X38055D01*
Y44720D01*
X38235D01*
Y44940D01*
D02*
G37*
G36*
X32526Y44530D02*
X32349D01*
Y44333D01*
X32526D01*
Y44530D01*
D02*
G37*
G36*
X32309D02*
X32131D01*
Y44333D01*
X32309D01*
Y44530D01*
D02*
G37*
G36*
X39035Y44470D02*
X38858D01*
Y44273D01*
X39035D01*
Y44470D01*
D02*
G37*
G36*
X38818D02*
X38640D01*
Y44273D01*
X38818D01*
Y44470D01*
D02*
G37*
G36*
X39586D02*
X39191D01*
Y44035D01*
X39586D01*
Y44135D01*
X40254D01*
Y44067D01*
X41535D01*
Y44387D01*
X40254D01*
Y44319D01*
X39586D01*
Y44470D01*
D02*
G37*
G36*
X39035Y44233D02*
X38858D01*
Y44035D01*
X39035D01*
Y44233D01*
D02*
G37*
G36*
X38818D02*
X38640D01*
Y44035D01*
X38818D01*
Y44233D01*
D02*
G37*
G36*
X32536Y44177D02*
X32359D01*
Y43980D01*
X32536D01*
Y44177D01*
D02*
G37*
G36*
X34310Y44016D02*
X33679D01*
Y43942D01*
X33431D01*
X33396Y43935D01*
X33381Y43925D01*
X33350Y43931D01*
X33296Y43921D01*
X33250Y43890D01*
X33219Y43844D01*
X33209Y43790D01*
X33219Y43736D01*
X33250Y43690D01*
X33296Y43659D01*
X33350Y43649D01*
X33404Y43659D01*
X33450Y43690D01*
X33481Y43736D01*
X33485Y43758D01*
X33679D01*
Y43684D01*
X34310D01*
Y44016D01*
D02*
G37*
G36*
X31622Y43938D02*
X31366D01*
Y43800D01*
X31622D01*
Y43938D01*
D02*
G37*
G36*
X39032Y43947D02*
X38854D01*
Y43750D01*
X39032D01*
Y43947D01*
D02*
G37*
G36*
X38814D02*
X38637D01*
Y43750D01*
X38814D01*
Y43947D01*
D02*
G37*
G36*
X32536Y43940D02*
X32359D01*
Y43743D01*
X32536D01*
Y43940D01*
D02*
G37*
G36*
X29202Y43907D02*
X29024D01*
Y43710D01*
X29202D01*
Y43907D01*
D02*
G37*
G36*
X28984D02*
X28807D01*
Y43710D01*
X28984D01*
Y43907D01*
D02*
G37*
G36*
X31622Y43760D02*
X31366D01*
Y43622D01*
X31622D01*
Y43760D01*
D02*
G37*
G36*
X37861Y44016D02*
X37230D01*
Y43684D01*
X37861D01*
Y43758D01*
X38072D01*
X38965Y42865D01*
X38995Y42845D01*
X39030Y42838D01*
X40569D01*
Y42770D01*
X41850D01*
Y43090D01*
X40569D01*
Y43022D01*
X39068D01*
X39015Y43075D01*
X39040Y43121D01*
X39050Y43119D01*
X39104Y43129D01*
X39147Y43158D01*
X39327D01*
X39362Y43165D01*
X39392Y43185D01*
X39450Y43244D01*
X39470Y43273D01*
X39477Y43309D01*
Y43513D01*
X39583D01*
Y43635D01*
X40254D01*
Y43567D01*
X41535D01*
Y43887D01*
X40254D01*
Y43819D01*
X39583D01*
Y43947D01*
X39188D01*
Y43513D01*
X39294D01*
Y43347D01*
X39289Y43342D01*
X39162D01*
X39150Y43360D01*
X39104Y43391D01*
X39050Y43401D01*
X38996Y43391D01*
X38950Y43360D01*
X38919Y43314D01*
X38909Y43260D01*
X38911Y43250D01*
X38865Y43225D01*
X38620Y43470D01*
X38648Y43513D01*
X38682Y43513D01*
X38814D01*
Y43710D01*
X38637D01*
Y43562D01*
X38637Y43524D01*
X38594Y43496D01*
X38175Y43915D01*
X38145Y43935D01*
X38110Y43942D01*
X37861D01*
Y44016D01*
D02*
G37*
G36*
X39032Y43710D02*
X38854D01*
Y43513D01*
X39032D01*
Y43710D01*
D02*
G37*
G36*
X29320Y44922D02*
X25860D01*
X25825Y44915D01*
X25795Y44895D01*
X25715Y44815D01*
X25695Y44785D01*
X25688Y44750D01*
Y44658D01*
X25425D01*
Y43475D01*
X26135D01*
Y44658D01*
X25872D01*
Y44712D01*
X25898Y44738D01*
X29282D01*
X29450Y44570D01*
X29430Y44520D01*
X29375D01*
Y44140D01*
X29473D01*
Y43907D01*
X29358D01*
Y43473D01*
X29753D01*
Y43907D01*
X29657D01*
Y44140D01*
X29755D01*
Y44288D01*
X29905D01*
X29938Y44244D01*
X29935Y44216D01*
X29885Y44166D01*
X29865Y44137D01*
X29858Y44101D01*
Y43230D01*
X29865Y43195D01*
X29885Y43165D01*
X30615Y42435D01*
X30645Y42415D01*
X30680Y42408D01*
X31732D01*
X31957Y42183D01*
X31936Y42133D01*
X31916Y42133D01*
X31760D01*
Y41956D01*
X31957D01*
Y42088D01*
X31957Y42112D01*
X32007Y42133D01*
X32091Y42050D01*
X32089Y42040D01*
X32099Y41986D01*
X32130Y41940D01*
X32176Y41909D01*
X32230Y41899D01*
X32284Y41909D01*
X32330Y41940D01*
X32361Y41986D01*
X32371Y42040D01*
X32361Y42094D01*
X32330Y42140D01*
X32284Y42171D01*
X32230Y42181D01*
X32220Y42179D01*
X31860Y42540D01*
X31865Y42562D01*
X31880Y42591D01*
X31924Y42599D01*
X31970Y42630D01*
X32001Y42676D01*
X32011Y42730D01*
X32001Y42784D01*
X31970Y42830D01*
X31924Y42861D01*
X31870Y42871D01*
X31816Y42861D01*
X31770Y42830D01*
X31765Y42822D01*
X31098D01*
X30750Y43170D01*
Y43248D01*
X30934D01*
Y43564D01*
X30382D01*
Y43248D01*
X30566D01*
Y43132D01*
X30573Y43097D01*
X30593Y43067D01*
X30995Y42665D01*
X31025Y42645D01*
X31042Y42642D01*
X31037Y42592D01*
X30718D01*
X30042Y43268D01*
Y43773D01*
X30088Y43803D01*
X30092Y43802D01*
X30120Y43760D01*
X30166Y43729D01*
X30220Y43719D01*
X30230Y43721D01*
X30230Y43720D01*
X30260Y43700D01*
X30295Y43693D01*
X30382D01*
Y43622D01*
X30934D01*
Y43938D01*
X30382D01*
X30382Y43938D01*
Y43938D01*
X30333Y43941D01*
X30320Y43960D01*
X30274Y43991D01*
X30220Y44001D01*
X30166Y43991D01*
X30120Y43960D01*
X30092Y43918D01*
X30088Y43917D01*
X30042Y43947D01*
Y44063D01*
X30047Y44068D01*
X30382D01*
Y43996D01*
X30934D01*
Y44312D01*
X30382D01*
Y44252D01*
X30171D01*
X30144Y44302D01*
X30161Y44326D01*
X30171Y44380D01*
X30161Y44434D01*
X30130Y44480D01*
X30084Y44511D01*
X30030Y44521D01*
X29976Y44511D01*
X29930Y44480D01*
X29925Y44472D01*
X29755D01*
Y44520D01*
X29657D01*
Y44585D01*
X29650Y44620D01*
X29630Y44650D01*
X29601Y44679D01*
X29620Y44725D01*
X32131D01*
Y44570D01*
X32329D01*
X32526D01*
Y44725D01*
X32631D01*
X32681Y44676D01*
Y44657D01*
X32683Y44649D01*
Y44333D01*
X32788D01*
Y44177D01*
X32693D01*
Y43743D01*
X32722D01*
X32749Y43694D01*
X32749Y43693D01*
X32739Y43640D01*
X32749Y43586D01*
X32780Y43540D01*
X32826Y43509D01*
X32880Y43499D01*
X32934Y43509D01*
X32980Y43540D01*
X33011Y43586D01*
X33021Y43640D01*
X33011Y43693D01*
X33011Y43694D01*
X33038Y43743D01*
X33087D01*
Y44177D01*
X32972D01*
Y44333D01*
X33077D01*
Y44767D01*
X32845D01*
X32837Y44779D01*
X32734Y44882D01*
X32704Y44902D01*
X32669Y44909D01*
X29364D01*
X29355Y44915D01*
X29320Y44922D01*
D02*
G37*
G36*
X29202Y43670D02*
X29024D01*
Y43473D01*
X29202D01*
Y43670D01*
D02*
G37*
G36*
X28984D02*
X28807D01*
Y43473D01*
X28984D01*
Y43670D01*
D02*
G37*
G36*
X34310Y43516D02*
X33679D01*
Y43437D01*
X33452D01*
X33450Y43440D01*
X33404Y43471D01*
X33350Y43481D01*
X33296Y43471D01*
X33250Y43440D01*
X33219Y43394D01*
X33209Y43340D01*
X33219Y43286D01*
X33250Y43240D01*
X33296Y43209D01*
X33350Y43199D01*
X33404Y43209D01*
X33450Y43240D01*
X33459Y43253D01*
X33679D01*
Y43184D01*
X34310D01*
Y43516D01*
D02*
G37*
G36*
X45954Y44923D02*
X45147D01*
X44339D01*
Y44411D01*
X44447D01*
X44473Y44368D01*
X44447Y44320D01*
X44404Y44178D01*
X44389Y44030D01*
X44404Y43882D01*
X44447Y43740D01*
X44517Y43609D01*
X44611Y43494D01*
X44726Y43400D01*
X44857Y43330D01*
X44999Y43287D01*
X45147Y43272D01*
X45294Y43287D01*
X45437Y43330D01*
X45568Y43400D01*
X45682Y43494D01*
X45777Y43609D01*
X45847Y43740D01*
X45890Y43882D01*
X45904Y44030D01*
X45890Y44178D01*
X45847Y44320D01*
X45821Y44368D01*
X45846Y44411D01*
X45954D01*
Y44923D01*
D02*
G37*
G36*
X37861Y43516D02*
X37230D01*
Y43442D01*
X36980D01*
X36945Y43435D01*
X36915Y43415D01*
X36275Y42775D01*
X36255Y42745D01*
X36248Y42710D01*
Y38173D01*
X36123D01*
Y37778D01*
X36557D01*
Y38173D01*
X36432D01*
Y42672D01*
X37018Y43258D01*
X37230D01*
Y43184D01*
X37861D01*
Y43516D01*
D02*
G37*
G36*
X34310Y43016D02*
X33679D01*
Y42942D01*
X33485D01*
X33480Y42950D01*
X33434Y42981D01*
X33380Y42991D01*
X33326Y42981D01*
X33280Y42950D01*
X33249Y42904D01*
X33239Y42850D01*
X33249Y42796D01*
X33280Y42750D01*
X33326Y42719D01*
X33380Y42709D01*
X33434Y42719D01*
X33480Y42750D01*
X33485Y42758D01*
X33679D01*
Y42684D01*
X34310D01*
Y43016D01*
D02*
G37*
G36*
X28889Y42866D02*
X28613D01*
Y42590D01*
X28889D01*
Y42866D01*
D02*
G37*
G36*
X28573D02*
X28297D01*
Y42590D01*
X28573D01*
Y42866D01*
D02*
G37*
G36*
X27837Y42717D02*
X27640D01*
Y42540D01*
X27837D01*
Y42717D01*
D02*
G37*
G36*
X26135Y42965D02*
X25800D01*
Y42394D01*
X26135D01*
Y42965D01*
D02*
G37*
G36*
X25760D02*
X25425D01*
Y42394D01*
X25760D01*
Y42965D01*
D02*
G37*
G36*
X37861Y43016D02*
X37230D01*
Y42684D01*
X37861D01*
Y42748D01*
X38472D01*
X38755Y42465D01*
X38785Y42445D01*
X38820Y42438D01*
X40569D01*
Y42370D01*
X41850D01*
Y42690D01*
X40569D01*
Y42622D01*
X38858D01*
X38575Y42905D01*
X38545Y42925D01*
X38510Y42932D01*
X37861D01*
Y43016D01*
D02*
G37*
G36*
X27837Y42500D02*
X27640D01*
Y42323D01*
X27837D01*
Y42500D01*
D02*
G37*
G36*
X27600D02*
X27403D01*
Y42323D01*
X27600D01*
Y42500D01*
D02*
G37*
G36*
X28889Y42550D02*
X28613D01*
Y42274D01*
X28889D01*
Y42550D01*
D02*
G37*
G36*
X28573D02*
X28297D01*
Y42274D01*
X28573D01*
Y42550D01*
D02*
G37*
G36*
X37861Y42516D02*
X37230D01*
Y42184D01*
X37861D01*
Y42516D01*
D02*
G37*
G36*
X34310D02*
X33679D01*
Y42184D01*
X34310D01*
Y42516D01*
D02*
G37*
G36*
X30577Y42339D02*
X30380D01*
Y42161D01*
X30577D01*
Y42339D01*
D02*
G37*
G36*
X30340D02*
X30143D01*
Y42161D01*
X30340D01*
Y42339D01*
D02*
G37*
G36*
X41850Y42290D02*
X40569D01*
Y42222D01*
X38860D01*
X38825Y42215D01*
X38795Y42195D01*
X38042Y41442D01*
X37861D01*
Y41516D01*
X37230D01*
Y41184D01*
X37861D01*
Y41258D01*
X38080D01*
X38115Y41265D01*
X38145Y41285D01*
X38898Y42038D01*
X40569D01*
Y41970D01*
X41850D01*
Y42290D01*
D02*
G37*
G36*
X31720Y42133D02*
X31523D01*
Y41956D01*
X31720D01*
Y42133D01*
D02*
G37*
G36*
X31387Y42129D02*
X31190D01*
Y41951D01*
X31387D01*
Y42129D01*
D02*
G37*
G36*
X31150D02*
X30953D01*
Y41951D01*
X31150D01*
Y42129D01*
D02*
G37*
G36*
X30577Y42121D02*
X30380D01*
Y41944D01*
X30577D01*
Y42121D01*
D02*
G37*
G36*
X30340D02*
X30143D01*
Y41944D01*
X30340D01*
Y42121D01*
D02*
G37*
G36*
X29716Y42197D02*
X29440D01*
Y41921D01*
X29716D01*
Y42197D01*
D02*
G37*
G36*
X29400D02*
X29124D01*
Y41921D01*
X29400D01*
Y42197D01*
D02*
G37*
G36*
X26135Y42354D02*
X25800D01*
Y41782D01*
X26135D01*
Y42354D01*
D02*
G37*
G36*
X25760D02*
X25425D01*
Y41782D01*
X25760D01*
Y42354D01*
D02*
G37*
G36*
X31957Y41916D02*
X31760D01*
Y41738D01*
X31957D01*
Y41916D01*
D02*
G37*
G36*
X31720D02*
X31523D01*
Y41738D01*
X31720D01*
Y41916D01*
D02*
G37*
G36*
X31387Y41911D02*
X31190D01*
Y41734D01*
X31387D01*
Y41911D01*
D02*
G37*
G36*
X31150D02*
X30953D01*
Y41734D01*
X31150D01*
Y41911D01*
D02*
G37*
G36*
X37861Y42016D02*
X37230D01*
Y41684D01*
X37861D01*
Y42016D01*
D02*
G37*
G36*
X34310D02*
X33679D01*
Y41684D01*
X34310D01*
Y42016D01*
D02*
G37*
G36*
X29716Y41881D02*
X29440D01*
Y41605D01*
X29716D01*
Y41881D01*
D02*
G37*
G36*
X29400D02*
X29124D01*
Y41605D01*
X29400D01*
Y41881D01*
D02*
G37*
G36*
X41850Y41890D02*
X40569D01*
Y41822D01*
X40440D01*
X40405Y41815D01*
X40375Y41795D01*
X40040Y41459D01*
X40030Y41461D01*
X39976Y41451D01*
X39930Y41420D01*
X39899Y41374D01*
X39889Y41320D01*
X39899Y41266D01*
X39930Y41220D01*
X39976Y41189D01*
X40030Y41179D01*
X40084Y41189D01*
X40130Y41220D01*
X40139Y41233D01*
X40569D01*
Y41170D01*
X41850D01*
Y41490D01*
X40569D01*
Y41417D01*
X40322D01*
X40303Y41463D01*
X40478Y41638D01*
X40569D01*
Y41570D01*
X41850D01*
Y41890D01*
D02*
G37*
G36*
X27416Y41650D02*
X27239D01*
Y41453D01*
X27416D01*
Y41650D01*
D02*
G37*
G36*
X27199D02*
X27021D01*
Y41453D01*
X27199D01*
Y41650D01*
D02*
G37*
G36*
X27416Y41413D02*
X27239D01*
Y41215D01*
X27416D01*
Y41413D01*
D02*
G37*
G36*
X27199D02*
X27021D01*
Y41215D01*
X27199D01*
Y41413D01*
D02*
G37*
G36*
X29205Y44520D02*
X28825D01*
Y44309D01*
X28803Y44295D01*
X26031Y41522D01*
X26011Y41493D01*
X26004Y41458D01*
Y39916D01*
Y38060D01*
X25898D01*
Y37625D01*
X26004D01*
Y37547D01*
X25898D01*
Y37113D01*
X25978D01*
Y37028D01*
X25401Y36451D01*
X24345Y35395D01*
X24325Y35365D01*
X24318Y35330D01*
Y22980D01*
X24302Y22955D01*
X24293Y22910D01*
Y22147D01*
X24243Y22137D01*
X24213Y22209D01*
X24159Y22279D01*
X24089Y22333D01*
X24008Y22367D01*
X23920Y22378D01*
X23832Y22367D01*
X23751Y22333D01*
X23681Y22279D01*
X23627Y22209D01*
X23593Y22128D01*
X23582Y22040D01*
X23593Y21952D01*
X23627Y21871D01*
X23681Y21801D01*
X23751Y21747D01*
X23832Y21713D01*
X23920Y21702D01*
X24008Y21713D01*
X24089Y21747D01*
X24159Y21801D01*
X24213Y21871D01*
X24243Y21943D01*
X24293Y21933D01*
Y21147D01*
X24243Y21137D01*
X24213Y21209D01*
X24159Y21279D01*
X24089Y21333D01*
X24008Y21367D01*
X23920Y21378D01*
X23832Y21367D01*
X23751Y21333D01*
X23681Y21279D01*
X23627Y21209D01*
X23593Y21128D01*
X23582Y21040D01*
X23593Y20952D01*
X23627Y20871D01*
X23681Y20801D01*
X23751Y20747D01*
X23832Y20713D01*
X23920Y20702D01*
X24008Y20713D01*
X24089Y20747D01*
X24159Y20801D01*
X24213Y20871D01*
X24243Y20943D01*
X24293Y20933D01*
Y20406D01*
X24255Y20375D01*
X24243Y20375D01*
X23585D01*
Y19705D01*
X24243D01*
X24255Y19705D01*
X24293Y19674D01*
Y19314D01*
X24279Y19294D01*
X24269Y19240D01*
X24279Y19186D01*
X24310Y19140D01*
X24356Y19109D01*
X24410Y19099D01*
X24464Y19109D01*
X24510Y19140D01*
X24541Y19186D01*
X24551Y19240D01*
X24541Y19294D01*
X24527Y19314D01*
Y20932D01*
X24577Y20937D01*
X24579Y20926D01*
X24610Y20880D01*
X24618Y20875D01*
Y18290D01*
X24614D01*
Y17698D01*
X25087D01*
Y17994D01*
Y18290D01*
X25002D01*
Y19035D01*
X25010Y19040D01*
X25041Y19086D01*
X25051Y19140D01*
X25041Y19194D01*
X25010Y19240D01*
X24964Y19271D01*
X24910Y19281D01*
X24856Y19271D01*
X24852Y19268D01*
X24802Y19294D01*
Y20875D01*
X24810Y20880D01*
X24841Y20926D01*
X24851Y20980D01*
X24841Y21034D01*
X24810Y21080D01*
X24764Y21111D01*
X24710Y21121D01*
X24656Y21111D01*
X24610Y21080D01*
X24579Y21034D01*
X24577Y21023D01*
X24527Y21028D01*
Y22861D01*
X26693Y25027D01*
X26718Y25065D01*
X26727Y25110D01*
Y26727D01*
X26827D01*
Y27122D01*
X26437D01*
X26416Y27172D01*
X26523Y27278D01*
X26827D01*
Y27673D01*
X26702D01*
Y27912D01*
X27017Y28227D01*
X27063Y28203D01*
X27059Y28180D01*
X27069Y28126D01*
X27100Y28080D01*
X27146Y28049D01*
X27200Y28039D01*
X27254Y28049D01*
X27300Y28080D01*
X27331Y28126D01*
X27341Y28180D01*
X27339Y28190D01*
X27446Y28297D01*
X27541D01*
X27561Y28250D01*
X27135Y27825D01*
X27115Y27795D01*
X27108Y27760D01*
Y27653D01*
X26983D01*
Y27258D01*
X27417D01*
Y27653D01*
X27292D01*
Y27722D01*
X27893Y28323D01*
X27913Y28353D01*
X27920Y28388D01*
Y28599D01*
X28085D01*
Y29702D01*
X27572D01*
Y28599D01*
X27737D01*
Y28480D01*
X27408D01*
X27373Y28473D01*
X27343Y28453D01*
X27210Y28319D01*
X27200Y28321D01*
X27165Y28314D01*
X27148Y28328D01*
X27128Y28353D01*
X27127Y28354D01*
X27133Y28381D01*
Y28599D01*
X27297D01*
Y29702D01*
X26784D01*
Y28599D01*
X26949D01*
Y28419D01*
X26545Y28015D01*
X26525Y27985D01*
X26518Y27950D01*
Y27673D01*
X26395D01*
X26393Y27673D01*
X26345Y27679D01*
Y28599D01*
X26510D01*
Y29702D01*
X25997D01*
Y28599D01*
X26162D01*
Y27622D01*
X26122Y27582D01*
X26027D01*
Y27737D01*
X25633D01*
Y27303D01*
X26027D01*
Y27398D01*
X26160D01*
X26195Y27405D01*
X26225Y27425D01*
X26318Y27519D01*
X26338Y27548D01*
X26343Y27571D01*
X26393Y27566D01*
Y27408D01*
X26228Y27244D01*
X26209Y27214D01*
X26202Y27179D01*
Y27085D01*
X26179Y27070D01*
X26148Y27024D01*
X26137Y26970D01*
X26148Y26916D01*
X26179Y26870D01*
X26225Y26839D01*
X26279Y26829D01*
X26333Y26839D01*
X26343Y26846D01*
X26393Y26820D01*
Y26727D01*
X26493D01*
Y25159D01*
X24548Y23214D01*
X24502Y23233D01*
Y35292D01*
X25163Y35954D01*
X25210Y35935D01*
Y34898D01*
X25723D01*
Y36001D01*
X25558D01*
Y36348D01*
X26135Y36925D01*
X26155Y36955D01*
X26162Y36990D01*
Y37113D01*
X26293D01*
Y37495D01*
X26506D01*
X26541Y37501D01*
X26571Y37521D01*
X27018Y37968D01*
X27950D01*
Y37687D01*
X27857D01*
Y37253D01*
X28252D01*
Y37687D01*
X28134D01*
Y37936D01*
X28184Y37957D01*
X28375Y37765D01*
X28405Y37745D01*
X28440Y37738D01*
X28878D01*
X28962Y37655D01*
X28991Y37635D01*
X29026Y37628D01*
X29103D01*
Y37532D01*
X29055D01*
X29050Y37540D01*
X29004Y37571D01*
X28950Y37581D01*
X28896Y37571D01*
X28853Y37542D01*
X28837Y37545D01*
X28803Y37560D01*
Y37687D01*
X28408D01*
Y37253D01*
X28514D01*
Y37034D01*
X28521Y36999D01*
X28541Y36970D01*
X29311Y36199D01*
Y36001D01*
X29147D01*
Y34898D01*
X29298D01*
Y34355D01*
X29290Y34350D01*
X29259Y34304D01*
X29249Y34250D01*
X29259Y34196D01*
X29290Y34150D01*
X29336Y34119D01*
X29390Y34109D01*
X29444Y34119D01*
X29490Y34150D01*
X29521Y34196D01*
X29531Y34250D01*
X29521Y34304D01*
X29490Y34350D01*
X29482Y34355D01*
Y34898D01*
X29660D01*
Y36001D01*
X29495D01*
Y36237D01*
X29488Y36272D01*
X29468Y36302D01*
X28697Y37072D01*
Y37253D01*
X28803D01*
Y37320D01*
X28837Y37335D01*
X28853Y37338D01*
X28896Y37309D01*
X28950Y37299D01*
X29004Y37309D01*
X29050Y37340D01*
X29055Y37348D01*
X29103D01*
Y37244D01*
X29537D01*
Y37628D01*
X29625D01*
Y37244D01*
X30060D01*
Y37628D01*
X30173D01*
Y37244D01*
X30298D01*
Y36985D01*
X30260Y36960D01*
X30229Y36914D01*
X30219Y36860D01*
X30229Y36806D01*
X30260Y36760D01*
X30306Y36729D01*
X30360Y36719D01*
X30414Y36729D01*
X30460Y36760D01*
X30491Y36806D01*
X30501Y36860D01*
X30491Y36914D01*
X30482Y36927D01*
Y37244D01*
X30607D01*
Y37532D01*
X30653Y37551D01*
X30695Y37509D01*
Y37244D01*
X31000D01*
X31161Y37083D01*
X31159Y37070D01*
X31169Y37016D01*
X31200Y36970D01*
X31246Y36939D01*
X31300Y36929D01*
X31354Y36939D01*
X31400Y36970D01*
X31431Y37016D01*
X31436Y37044D01*
X31487Y37042D01*
X31488Y37040D01*
Y36725D01*
X31303D01*
X31268Y36718D01*
X31239Y36698D01*
X30913Y36373D01*
X30893Y36343D01*
X30886Y36308D01*
Y36001D01*
X30721D01*
Y34898D01*
X30858D01*
Y34365D01*
X30850Y34360D01*
X30819Y34314D01*
X30809Y34260D01*
X30819Y34206D01*
X30850Y34160D01*
X30896Y34129D01*
X30950Y34119D01*
X31004Y34129D01*
X31050Y34160D01*
X31081Y34206D01*
X31091Y34260D01*
X31081Y34314D01*
X31050Y34360D01*
X31042Y34365D01*
Y34898D01*
X31234D01*
Y36001D01*
X31070D01*
Y36270D01*
X31342Y36542D01*
X31558D01*
X32135Y35965D01*
X32165Y35945D01*
X32200Y35938D01*
X35297D01*
Y35813D01*
X35692D01*
Y36247D01*
X35297D01*
Y36122D01*
X32238D01*
X31672Y36688D01*
Y37380D01*
X31820D01*
Y37672D01*
X31823Y37680D01*
Y37780D01*
X31816Y37798D01*
X31811Y37849D01*
X31823Y37880D01*
Y38180D01*
X31820Y38188D01*
Y38455D01*
X31340D01*
Y38347D01*
X31120D01*
X31093Y38397D01*
X31096Y38401D01*
X31107Y38455D01*
X31096Y38509D01*
X31066Y38555D01*
X31039Y38573D01*
Y39057D01*
X31037Y39066D01*
Y39194D01*
X31037Y39223D01*
X31066Y39223D01*
X31374D01*
Y39226D01*
X31824D01*
X32106Y38945D01*
Y38387D01*
X31980D01*
Y37993D01*
X32098D01*
Y37969D01*
X32105Y37933D01*
X32125Y37904D01*
X32143Y37886D01*
X32122Y37836D01*
X31980D01*
Y37659D01*
X32415D01*
Y37818D01*
X32493D01*
Y37447D01*
X32927D01*
Y37818D01*
X33023D01*
Y37451D01*
X33457D01*
Y37818D01*
X33543D01*
Y37447D01*
X33977D01*
Y37818D01*
X34063D01*
Y37447D01*
X34497D01*
Y37818D01*
X34590D01*
X34625Y37825D01*
X34655Y37845D01*
X34795Y37985D01*
X34815Y38015D01*
X34822Y38050D01*
Y40530D01*
X34815Y40565D01*
X34795Y40595D01*
X34475Y40915D01*
X34445Y40935D01*
X34410Y40942D01*
X34310D01*
Y41016D01*
X33679D01*
Y40952D01*
X33472D01*
X33460Y40970D01*
X33414Y41001D01*
X33360Y41011D01*
X33306Y41001D01*
X33260Y40970D01*
X33229Y40924D01*
X33219Y40870D01*
X33229Y40816D01*
X33260Y40770D01*
X33306Y40739D01*
X33360Y40729D01*
X33414Y40739D01*
X33457Y40768D01*
X33679D01*
Y40684D01*
X34310D01*
Y40758D01*
X34372D01*
X34638Y40492D01*
Y38088D01*
X34552Y38002D01*
X34497D01*
Y38393D01*
X34372D01*
Y39380D01*
X34365Y39415D01*
X34345Y39445D01*
X34062Y39728D01*
Y40184D01*
X34310D01*
Y40516D01*
X33679D01*
Y40442D01*
X32672D01*
Y40565D01*
X32680Y40570D01*
X32711Y40616D01*
X32721Y40670D01*
X32711Y40724D01*
X32680Y40770D01*
X32634Y40801D01*
X32580Y40811D01*
X32526Y40801D01*
X32480Y40770D01*
X32449Y40724D01*
X32439Y40670D01*
X32449Y40616D01*
X32480Y40570D01*
X32488Y40565D01*
Y40442D01*
X32149D01*
X32127Y40491D01*
X32889Y41252D01*
X32948D01*
Y40792D01*
X32930Y40780D01*
X32899Y40734D01*
X32889Y40680D01*
X32899Y40626D01*
X32930Y40580D01*
X32976Y40549D01*
X33030Y40539D01*
X33084Y40549D01*
X33130Y40580D01*
X33161Y40626D01*
X33171Y40680D01*
X33161Y40734D01*
X33132Y40777D01*
Y41252D01*
X33502D01*
X33517Y41255D01*
X33679D01*
Y41184D01*
X34310D01*
Y41516D01*
X33679D01*
Y41439D01*
X33505D01*
X33490Y41436D01*
X32942D01*
Y42549D01*
X32935Y42585D01*
X32915Y42614D01*
X32440Y43090D01*
X32457Y43144D01*
X32484Y43149D01*
X32530Y43180D01*
X32561Y43226D01*
X32571Y43280D01*
X32561Y43334D01*
X32530Y43380D01*
X32484Y43411D01*
X32430Y43421D01*
X32420Y43419D01*
X32147Y43693D01*
X32154Y43743D01*
X32319D01*
Y43960D01*
Y44177D01*
X32141D01*
X32141Y44177D01*
Y44177D01*
X32093Y44182D01*
X32056Y44219D01*
X32027Y44239D01*
X31991Y44246D01*
X31918D01*
Y44312D01*
X31366D01*
Y43996D01*
X31918D01*
Y43984D01*
X31868Y43938D01*
X31662D01*
Y43780D01*
Y43622D01*
X31915D01*
X31918Y43622D01*
X31934Y43623D01*
X31968Y43621D01*
X31985Y43595D01*
X32044Y43537D01*
X32016Y43493D01*
X31994Y43498D01*
X31918D01*
Y43564D01*
X31366D01*
Y43248D01*
X31918D01*
Y43284D01*
X31968Y43302D01*
X32759Y42511D01*
Y41382D01*
X31882Y40505D01*
X31832Y40526D01*
Y41187D01*
X31957D01*
Y41582D01*
X31523D01*
Y41187D01*
X31648D01*
Y40538D01*
X31504Y40394D01*
X31374D01*
Y40397D01*
X31066D01*
X31037Y40397D01*
X31037Y40426D01*
Y40734D01*
X31034D01*
Y40820D01*
X31355D01*
X31356Y40819D01*
X31410Y40809D01*
X31464Y40819D01*
X31510Y40850D01*
X31541Y40896D01*
X31551Y40950D01*
X31541Y41004D01*
X31510Y41050D01*
X31464Y41081D01*
X31410Y41091D01*
X31356Y41081D01*
X31310Y41050D01*
X31279Y41004D01*
X31279Y41004D01*
X31229D01*
X31210Y41050D01*
X31245Y41085D01*
X31265Y41115D01*
X31272Y41150D01*
Y41183D01*
X31387D01*
Y41577D01*
X30953D01*
Y41183D01*
X31017D01*
X31037Y41136D01*
X30904Y41004D01*
X30840Y41009D01*
X30840Y41010D01*
X30794Y41041D01*
X30740Y41051D01*
X30726Y41048D01*
X30687Y41092D01*
X30693Y41120D01*
X30682Y41174D01*
X30651Y41220D01*
X30605Y41251D01*
X30551Y41261D01*
X30497Y41251D01*
X30493Y41248D01*
X30443Y41275D01*
Y41393D01*
X30577D01*
Y41787D01*
X30143D01*
Y41682D01*
X30037D01*
X30032Y41687D01*
Y42470D01*
X30025Y42505D01*
X30005Y42535D01*
X29905Y42635D01*
X29875Y42655D01*
X29840Y42662D01*
X29716D01*
Y42866D01*
X29124D01*
Y42274D01*
X29716D01*
Y42478D01*
X29802D01*
X29848Y42432D01*
Y41649D01*
X29855Y41613D01*
X29875Y41584D01*
X29934Y41525D01*
X29963Y41505D01*
X29999Y41498D01*
X30143D01*
Y41393D01*
X30260D01*
Y40959D01*
X30248Y40951D01*
X30210Y40940D01*
X29895Y41255D01*
X29865Y41275D01*
X29830Y41282D01*
X28788D01*
X28685Y41385D01*
Y41605D01*
X28889D01*
Y42197D01*
X28297D01*
Y41992D01*
X27837D01*
Y42166D01*
X27403D01*
Y41771D01*
X27837D01*
Y41809D01*
X28297D01*
Y41605D01*
X28501D01*
Y41347D01*
X28508Y41312D01*
X28528Y41282D01*
X28685Y41125D01*
X28715Y41105D01*
X28750Y41098D01*
X29792D01*
X29838Y41052D01*
X29818Y41002D01*
X28362D01*
Y41310D01*
X28355Y41345D01*
X28335Y41375D01*
X28212Y41497D01*
X28183Y41517D01*
X28147Y41524D01*
X27967D01*
Y41650D01*
X27573D01*
Y41215D01*
X27967D01*
Y41341D01*
X28109D01*
X28178Y41272D01*
Y41002D01*
X27987D01*
Y41127D01*
X27593D01*
Y40693D01*
X27987D01*
Y40818D01*
X28222D01*
X28237Y40768D01*
X28232Y40765D01*
X28075Y40607D01*
X27770D01*
Y40492D01*
X27682D01*
Y40597D01*
X27248D01*
X27248Y40203D01*
X27198Y40202D01*
X26290D01*
X26255Y40195D01*
X26237Y40183D01*
X26187Y40202D01*
Y41420D01*
X27357Y42589D01*
X27403Y42570D01*
Y42540D01*
X27600D01*
Y42717D01*
X27551D01*
X27532Y42764D01*
X28906Y44138D01*
X28915D01*
X28924Y44140D01*
X29205D01*
Y44520D01*
D02*
G37*
G36*
X27436Y41127D02*
X27259D01*
Y40930D01*
X27436D01*
Y41127D01*
D02*
G37*
G36*
X27219D02*
X27041D01*
Y40930D01*
X27219D01*
Y41127D01*
D02*
G37*
G36*
X41850Y41090D02*
X40569D01*
Y41022D01*
X38960D01*
X38925Y41015D01*
X38895Y40995D01*
X38342Y40442D01*
X37861D01*
Y40516D01*
X37230D01*
Y40184D01*
X37861D01*
Y40258D01*
X38380D01*
X38415Y40265D01*
X38445Y40285D01*
X38998Y40838D01*
X40569D01*
Y40770D01*
X41850D01*
Y41090D01*
D02*
G37*
G36*
X27436Y40890D02*
X27259D01*
Y40693D01*
X27436D01*
Y40890D01*
D02*
G37*
G36*
X27219D02*
X27041D01*
Y40693D01*
X27219D01*
Y40890D01*
D02*
G37*
G36*
X37861Y41016D02*
X37230D01*
Y40942D01*
X37070D01*
X37035Y40935D01*
X37005Y40915D01*
X36858Y40767D01*
X36838Y40738D01*
X36831Y40703D01*
Y38173D01*
X36705D01*
Y37778D01*
X37140D01*
Y38173D01*
X37014D01*
Y40665D01*
X37108Y40758D01*
X37230D01*
Y40684D01*
X37861D01*
Y41016D01*
D02*
G37*
G36*
X41850Y40690D02*
X40569D01*
Y40622D01*
X39900D01*
X39865Y40615D01*
X39835Y40595D01*
X39435Y40195D01*
X39435Y40195D01*
X38003Y38763D01*
X37983Y38733D01*
X37976Y38698D01*
Y38173D01*
X37850D01*
Y37778D01*
X38285D01*
Y38173D01*
X38159D01*
Y38660D01*
X39538Y40038D01*
X40569D01*
Y39970D01*
X41850D01*
Y40290D01*
X40569D01*
Y40222D01*
X39787D01*
X39768Y40268D01*
X39938Y40438D01*
X40569D01*
Y40370D01*
X41850D01*
Y40690D01*
D02*
G37*
G36*
X24720Y40889D02*
Y40080D01*
X25529D01*
X25515Y40222D01*
X25468Y40378D01*
X25391Y40522D01*
X25288Y40648D01*
X25162Y40751D01*
X25018Y40828D01*
X24862Y40875D01*
X24720Y40889D01*
D02*
G37*
G36*
X24680D02*
X24538Y40875D01*
X24382Y40828D01*
X24238Y40751D01*
X24112Y40648D01*
X24009Y40522D01*
X23932Y40378D01*
X23885Y40222D01*
X23871Y40080D01*
X24680D01*
Y40889D01*
D02*
G37*
G36*
X25529Y40040D02*
X24720D01*
Y39231D01*
X24862Y39245D01*
X25018Y39292D01*
X25162Y39369D01*
X25288Y39472D01*
X25391Y39598D01*
X25468Y39742D01*
X25515Y39898D01*
X25529Y40040D01*
D02*
G37*
G36*
X24680D02*
X23871D01*
X23885Y39898D01*
X23932Y39742D01*
X24009Y39598D01*
X24112Y39472D01*
X24238Y39369D01*
X24382Y39292D01*
X24538Y39245D01*
X24680Y39231D01*
Y40040D01*
D02*
G37*
G36*
X41535Y39493D02*
X40254D01*
Y39425D01*
X39878D01*
X39843Y39418D01*
X39814Y39398D01*
X39309Y38893D01*
X39289Y38863D01*
X39282Y38828D01*
Y38079D01*
X39153D01*
Y37684D01*
X39587D01*
Y38079D01*
X39465D01*
Y38790D01*
X39916Y39241D01*
X40254D01*
Y39173D01*
X41535D01*
Y39493D01*
D02*
G37*
G36*
Y38993D02*
X40254D01*
Y38925D01*
X40053D01*
X40018Y38918D01*
X39988Y38898D01*
X39750Y38659D01*
X39740Y38661D01*
X39686Y38651D01*
X39640Y38620D01*
X39609Y38574D01*
X39599Y38520D01*
X39609Y38466D01*
X39640Y38420D01*
X39686Y38389D01*
X39740Y38379D01*
X39794Y38389D01*
X39840Y38420D01*
X39871Y38466D01*
X39881Y38520D01*
X39879Y38530D01*
X40091Y38741D01*
X40254D01*
Y38673D01*
X41535D01*
Y38993D01*
D02*
G37*
G36*
X45147Y39788D02*
X44999Y39773D01*
X44857Y39730D01*
X44726Y39660D01*
X44611Y39566D01*
X44517Y39451D01*
X44447Y39320D01*
X44404Y39178D01*
X44389Y39030D01*
X44404Y38882D01*
X44447Y38740D01*
X44473Y38692D01*
X44447Y38649D01*
X44339D01*
Y38137D01*
X45147D01*
X45954D01*
Y38649D01*
X45846D01*
X45821Y38692D01*
X45847Y38740D01*
X45890Y38882D01*
X45904Y39030D01*
X45890Y39178D01*
X45847Y39320D01*
X45777Y39451D01*
X45682Y39566D01*
X45568Y39660D01*
X45437Y39730D01*
X45294Y39773D01*
X45147Y39788D01*
D02*
G37*
G36*
X38949Y38125D02*
X38729D01*
Y37945D01*
X38949D01*
Y38125D01*
D02*
G37*
G36*
X38689D02*
X38469D01*
Y37945D01*
X38689D01*
Y38125D01*
D02*
G37*
G36*
X25742Y38060D02*
X25564D01*
Y37863D01*
X25742D01*
Y38060D01*
D02*
G37*
G36*
X25524D02*
X25347D01*
Y37863D01*
X25524D01*
Y38060D01*
D02*
G37*
G36*
X37510Y39021D02*
X37456Y39011D01*
X37410Y38980D01*
X37379Y38934D01*
X37369Y38880D01*
X37379Y38826D01*
X37403Y38790D01*
Y38183D01*
X37278D01*
Y37788D01*
X37712D01*
Y38183D01*
X37587D01*
Y38765D01*
X37610Y38780D01*
X37641Y38826D01*
X37651Y38880D01*
X37641Y38934D01*
X37610Y38980D01*
X37564Y39011D01*
X37510Y39021D01*
D02*
G37*
G36*
X38949Y37905D02*
X38729D01*
Y37825D01*
X38909D01*
Y37725D01*
X38949D01*
Y37905D01*
D02*
G37*
G36*
X38689D02*
X38469D01*
Y37725D01*
X38509D01*
Y37825D01*
X38689D01*
Y37905D01*
D02*
G37*
G36*
X25742Y37823D02*
X25564D01*
Y37625D01*
X25742D01*
Y37823D01*
D02*
G37*
G36*
X25524D02*
X25347D01*
Y37625D01*
X25524D01*
Y37823D01*
D02*
G37*
G36*
X45954Y38097D02*
X45167D01*
Y37584D01*
X45954D01*
Y38097D01*
D02*
G37*
G36*
X45127D02*
X44339D01*
Y37584D01*
X45127D01*
Y38097D01*
D02*
G37*
G36*
X38689Y37450D02*
X38684D01*
X38689Y37445D01*
Y37450D01*
D02*
G37*
G36*
X38734D02*
X38729D01*
Y37445D01*
X38734Y37450D01*
D02*
G37*
G36*
X32415Y37619D02*
X32217D01*
Y37441D01*
X32415D01*
Y37619D01*
D02*
G37*
G36*
X32177D02*
X31980D01*
Y37441D01*
X32177D01*
Y37619D01*
D02*
G37*
G36*
X39587Y37527D02*
X39390D01*
Y37350D01*
X39587D01*
Y37527D01*
D02*
G37*
G36*
X39350D02*
X39153D01*
Y37350D01*
X39350D01*
Y37527D01*
D02*
G37*
G36*
X25742Y37547D02*
X25564D01*
Y37350D01*
X25742D01*
Y37547D01*
D02*
G37*
G36*
X25524D02*
X25347D01*
Y37350D01*
X25524D01*
Y37547D01*
D02*
G37*
G36*
X38949Y37450D02*
X38909D01*
Y37325D01*
X38729D01*
Y37270D01*
X38949D01*
Y37450D01*
D02*
G37*
G36*
X38509D02*
X38469D01*
Y37270D01*
X38689D01*
Y37325D01*
X38509D01*
Y37450D01*
D02*
G37*
G36*
X39587Y37310D02*
X39390D01*
Y37133D01*
X39587D01*
Y37310D01*
D02*
G37*
G36*
X39350D02*
X39153D01*
Y37133D01*
X39350D01*
Y37310D01*
D02*
G37*
G36*
X25742Y37310D02*
X25564D01*
Y37113D01*
X25742D01*
Y37310D01*
D02*
G37*
G36*
X25524D02*
X25347D01*
Y37113D01*
X25524D01*
Y37310D01*
D02*
G37*
G36*
X38949Y37230D02*
X38729D01*
Y37050D01*
X38949D01*
Y37230D01*
D02*
G37*
G36*
X38689D02*
X38469D01*
Y37050D01*
X38689D01*
Y37230D01*
D02*
G37*
G36*
X37712Y37632D02*
X37278D01*
Y37237D01*
X37403D01*
Y37067D01*
X37331D01*
Y36942D01*
X37048D01*
X37012Y36978D01*
Y37227D01*
X37140D01*
Y37622D01*
X36705D01*
Y37227D01*
X36828D01*
Y36942D01*
X36448D01*
X36432Y36958D01*
Y37227D01*
X36557D01*
Y37622D01*
X36123D01*
Y37227D01*
X36248D01*
Y36920D01*
X36255Y36885D01*
X36275Y36855D01*
X36345Y36785D01*
X36375Y36765D01*
X36410Y36758D01*
X37331D01*
Y36633D01*
X37726D01*
Y37067D01*
X37776Y37067D01*
X37783D01*
X37818Y37074D01*
X37842Y37091D01*
X37842Y37091D01*
X37827Y37081D01*
X37847Y37087D01*
X37868Y37073D01*
X37880Y37061D01*
X37883Y37051D01*
X37883Y37021D01*
Y36870D01*
X38060D01*
Y37067D01*
X37929Y37067D01*
X37914D01*
X37889Y37071D01*
X37876Y37089D01*
X37872Y37104D01*
X37874Y37121D01*
X37980Y37227D01*
X38285D01*
Y37622D01*
X37850D01*
Y37357D01*
X37762Y37268D01*
X37712Y37289D01*
Y37632D01*
D02*
G37*
G36*
X38100Y37067D02*
Y36870D01*
X38277D01*
Y37067D01*
X38100D01*
D02*
G37*
G36*
X38277Y36830D02*
X38100D01*
Y36633D01*
X38277D01*
Y36830D01*
D02*
G37*
G36*
X38060D02*
X37883D01*
Y36633D01*
X38060D01*
Y36830D01*
D02*
G37*
G36*
X43644Y35858D02*
Y35247D01*
X44255D01*
X44245Y35350D01*
X44209Y35469D01*
X44151Y35579D01*
X44072Y35675D01*
X43976Y35753D01*
X43866Y35812D01*
X43747Y35848D01*
X43644Y35858D01*
D02*
G37*
G36*
X43604Y35858D02*
X43500Y35848D01*
X43381Y35812D01*
X43272Y35753D01*
X43176Y35675D01*
X43097Y35579D01*
X43038Y35469D01*
X43002Y35350D01*
X42992Y35247D01*
X43604D01*
Y35858D01*
D02*
G37*
G36*
X35950Y36791D02*
X35896Y36781D01*
X35850Y36750D01*
X35819Y36704D01*
X35809Y36650D01*
X35819Y36596D01*
X35850Y36550D01*
X35896Y36519D01*
X35938Y36511D01*
X35954Y36496D01*
Y36247D01*
X35848D01*
Y35813D01*
X36243D01*
Y35913D01*
X39941D01*
X40423Y35431D01*
Y35293D01*
X40323D01*
Y34898D01*
X40757D01*
Y35293D01*
X40657D01*
Y35480D01*
X40648Y35525D01*
X40623Y35563D01*
X40073Y36113D01*
X40035Y36138D01*
X39990Y36147D01*
X36243D01*
Y36247D01*
X36137D01*
Y36534D01*
X36130Y36569D01*
X36110Y36598D01*
X36086Y36623D01*
X36091Y36650D01*
X36081Y36704D01*
X36050Y36750D01*
X36004Y36781D01*
X35950Y36791D01*
D02*
G37*
G36*
X30447Y36001D02*
X29934D01*
Y34898D01*
X30447D01*
Y36001D01*
D02*
G37*
G36*
X28872D02*
X28359D01*
Y34898D01*
X28872D01*
Y36001D01*
D02*
G37*
G36*
X28085D02*
X27572D01*
Y34898D01*
X28085D01*
Y36001D01*
D02*
G37*
G36*
X27297D02*
X26784D01*
Y34898D01*
X27297D01*
Y36001D01*
D02*
G37*
G36*
X26510D02*
X25997D01*
Y34898D01*
X26510D01*
Y36001D01*
D02*
G37*
G36*
X39780Y35692D02*
X38980D01*
X38945Y35685D01*
X38915Y35665D01*
X38845Y35595D01*
X38825Y35565D01*
X38818Y35530D01*
Y35251D01*
X38713D01*
Y34817D01*
X39107D01*
Y35251D01*
X39002D01*
Y35492D01*
X39018Y35508D01*
X39742D01*
X39896Y35355D01*
Y35287D01*
X39770D01*
Y34893D01*
X40205D01*
Y35287D01*
X40079D01*
Y35393D01*
X40072Y35428D01*
X40052Y35457D01*
X39845Y35665D01*
X39815Y35685D01*
X39780Y35692D01*
D02*
G37*
G36*
X40757Y34742D02*
X40323D01*
Y34636D01*
X40205D01*
Y34736D01*
X39770D01*
Y34341D01*
X40205D01*
Y34453D01*
X40323D01*
Y34347D01*
X40757D01*
Y34742D01*
D02*
G37*
G36*
X36610Y35429D02*
Y34620D01*
X37419D01*
X37405Y34762D01*
X37358Y34918D01*
X37281Y35062D01*
X37178Y35188D01*
X37052Y35291D01*
X36908Y35368D01*
X36752Y35415D01*
X36610Y35429D01*
D02*
G37*
G36*
X36570D02*
X36428Y35415D01*
X36272Y35368D01*
X36128Y35291D01*
X36002Y35188D01*
X35899Y35062D01*
X35822Y34918D01*
X35775Y34762D01*
X35761Y34620D01*
X36570D01*
Y35429D01*
D02*
G37*
G36*
X44255Y35207D02*
X43644D01*
Y34595D01*
X43747Y34605D01*
X43866Y34641D01*
X43976Y34700D01*
X44072Y34779D01*
X44151Y34875D01*
X44209Y34984D01*
X44245Y35103D01*
X44255Y35207D01*
D02*
G37*
G36*
X43604D02*
X42992D01*
X43002Y35103D01*
X43038Y34984D01*
X43097Y34875D01*
X43176Y34779D01*
X43272Y34700D01*
X43381Y34641D01*
X43500Y34605D01*
X43604Y34595D01*
Y35207D01*
D02*
G37*
G36*
X39481Y34463D02*
X39304D01*
Y34266D01*
X39481D01*
Y34463D01*
D02*
G37*
G36*
X39264D02*
X39087D01*
Y34266D01*
X39264D01*
Y34463D01*
D02*
G37*
G36*
X42577Y34393D02*
Y34038D01*
X42932D01*
X42922Y34116D01*
X42884Y34207D01*
X42824Y34285D01*
X42746Y34345D01*
X42655Y34383D01*
X42577Y34393D01*
D02*
G37*
G36*
X42537D02*
X42459Y34383D01*
X42368Y34345D01*
X42290Y34285D01*
X42230Y34207D01*
X42192Y34116D01*
X42182Y34038D01*
X42537D01*
Y34393D01*
D02*
G37*
G36*
X39481Y34226D02*
X39304D01*
Y34029D01*
X39481D01*
Y34226D01*
D02*
G37*
G36*
X39264D02*
X39087D01*
Y34029D01*
X39264D01*
Y34226D01*
D02*
G37*
G36*
X37419Y34580D02*
X36610D01*
Y33771D01*
X36752Y33785D01*
X36908Y33832D01*
X37052Y33909D01*
X37178Y34012D01*
X37281Y34138D01*
X37358Y34282D01*
X37405Y34438D01*
X37419Y34580D01*
D02*
G37*
G36*
X36570D02*
X35761D01*
X35775Y34438D01*
X35822Y34282D01*
X35899Y34138D01*
X36002Y34012D01*
X36128Y33909D01*
X36272Y33832D01*
X36428Y33785D01*
X36570Y33771D01*
Y34580D01*
D02*
G37*
G36*
X39333Y33842D02*
X39156D01*
Y33645D01*
X39333D01*
Y33842D01*
D02*
G37*
G36*
X39116D02*
X38938D01*
Y33645D01*
X39116D01*
Y33842D01*
D02*
G37*
G36*
X42537Y33998D02*
X42182D01*
X42192Y33920D01*
X42230Y33829D01*
X42290Y33751D01*
X42368Y33691D01*
X42459Y33653D01*
X42537Y33643D01*
Y33998D01*
D02*
G37*
G36*
X42932D02*
X42577D01*
Y33643D01*
X42655Y33653D01*
X42746Y33691D01*
X42824Y33751D01*
X42884Y33829D01*
X42922Y33920D01*
X42932Y33998D01*
D02*
G37*
G36*
X39333Y33605D02*
X39156D01*
Y33407D01*
X39333D01*
Y33605D01*
D02*
G37*
G36*
X39116D02*
X38938D01*
Y33407D01*
X39116D01*
Y33605D01*
D02*
G37*
G36*
X39127Y33273D02*
X38930D01*
Y33096D01*
X39127D01*
Y33273D01*
D02*
G37*
G36*
X38890D02*
X38693D01*
Y33096D01*
X38890D01*
Y33273D01*
D02*
G37*
G36*
X41710Y33181D02*
X41656Y33171D01*
X41610Y33140D01*
X41605Y33132D01*
X41320D01*
X41285Y33125D01*
X41255Y33105D01*
X41206Y33056D01*
X41074D01*
Y33122D01*
X40521D01*
Y33056D01*
X40090D01*
Y33122D01*
X39537D01*
Y33054D01*
X39394D01*
X39390Y33060D01*
X39344Y33091D01*
X39290Y33101D01*
X39236Y33091D01*
X39190Y33060D01*
X39177Y33041D01*
X39128Y33056D01*
X38930D01*
Y32878D01*
X39118D01*
X39127Y32878D01*
X39177Y32879D01*
X39190Y32860D01*
X39236Y32829D01*
X39290Y32819D01*
X39344Y32829D01*
X39390Y32860D01*
X39397Y32870D01*
X39537D01*
Y32806D01*
X40090D01*
Y32872D01*
X40521D01*
Y32806D01*
X41074D01*
Y32872D01*
X41244D01*
X41279Y32879D01*
X41309Y32899D01*
X41358Y32948D01*
X41605D01*
X41610Y32940D01*
X41656Y32909D01*
X41710Y32899D01*
X41764Y32909D01*
X41810Y32940D01*
X41841Y32986D01*
X41851Y33040D01*
X41841Y33094D01*
X41810Y33140D01*
X41764Y33171D01*
X41710Y33181D01*
D02*
G37*
G36*
X38733Y34463D02*
X38338D01*
Y34029D01*
X38493D01*
Y33842D01*
X38387D01*
Y33537D01*
X38313Y33463D01*
X38293Y33433D01*
X38286Y33398D01*
Y33273D01*
X38160D01*
Y32878D01*
X38595D01*
Y33273D01*
X38469D01*
Y33360D01*
X38517Y33407D01*
X38782D01*
Y33842D01*
X38676D01*
Y34029D01*
X38733D01*
Y34463D01*
D02*
G37*
G36*
X38890Y33056D02*
X38693D01*
Y32878D01*
X38890D01*
Y33056D01*
D02*
G37*
G36*
X40090Y32748D02*
X39537D01*
Y32682D01*
X39127D01*
Y32722D01*
X38693D01*
Y32616D01*
X38595D01*
Y32722D01*
X38160D01*
Y32327D01*
X38595D01*
Y32433D01*
X38693D01*
Y32327D01*
X38818D01*
Y31870D01*
X38825Y31835D01*
X38845Y31805D01*
X38971Y31680D01*
X38969Y31670D01*
X38979Y31616D01*
X39010Y31570D01*
X39056Y31539D01*
X39110Y31529D01*
X39164Y31539D01*
X39210Y31570D01*
X39241Y31616D01*
X39251Y31670D01*
X39241Y31724D01*
X39210Y31770D01*
X39164Y31801D01*
X39110Y31811D01*
X39100Y31809D01*
X39002Y31908D01*
Y32327D01*
X39127D01*
Y32498D01*
X39537D01*
Y32432D01*
X40090D01*
Y32748D01*
D02*
G37*
G36*
X41074D02*
X40818D01*
Y32610D01*
X41074D01*
Y32748D01*
D02*
G37*
G36*
X40778D02*
X40521D01*
Y32610D01*
X40778D01*
Y32748D01*
D02*
G37*
G36*
X41074Y32570D02*
X40818D01*
Y32432D01*
X41074D01*
Y32570D01*
D02*
G37*
G36*
X40778D02*
X40521D01*
Y32432D01*
X40778D01*
Y32570D01*
D02*
G37*
G36*
X41720Y32381D02*
X41666Y32371D01*
X41620Y32340D01*
X41599Y32308D01*
X41074D01*
Y32374D01*
X40521D01*
Y32308D01*
X40090D01*
Y32374D01*
X39537D01*
Y32305D01*
X39423D01*
X39420Y32310D01*
X39374Y32341D01*
X39320Y32351D01*
X39266Y32341D01*
X39220Y32310D01*
X39189Y32264D01*
X39179Y32210D01*
X39189Y32156D01*
X39220Y32110D01*
X39266Y32079D01*
X39320Y32069D01*
X39374Y32079D01*
X39420Y32110D01*
X39427Y32121D01*
X39537D01*
Y32058D01*
X40090D01*
Y32124D01*
X40521D01*
Y32058D01*
X41074D01*
Y32124D01*
X41644D01*
X41666Y32109D01*
X41720Y32099D01*
X41774Y32109D01*
X41820Y32140D01*
X41851Y32186D01*
X41861Y32240D01*
X41851Y32294D01*
X41820Y32340D01*
X41774Y32371D01*
X41720Y32381D01*
D02*
G37*
G36*
X42557Y33412D02*
X42459Y33399D01*
X42368Y33361D01*
X42290Y33301D01*
X42230Y33223D01*
X42192Y33131D01*
X42179Y33034D01*
X42192Y32936D01*
X42230Y32845D01*
X42290Y32766D01*
X42368Y32706D01*
X42459Y32669D01*
X42486Y32665D01*
Y32615D01*
X42459Y32611D01*
X42368Y32574D01*
X42290Y32513D01*
X42230Y32435D01*
X42192Y32344D01*
X42179Y32246D01*
X42192Y32148D01*
X42230Y32057D01*
X42290Y31979D01*
X42368Y31919D01*
X42459Y31881D01*
X42557Y31868D01*
X42655Y31881D01*
X42746Y31919D01*
X42824Y31979D01*
X42884Y32057D01*
X42922Y32148D01*
X42935Y32246D01*
X42922Y32344D01*
X42884Y32435D01*
X42824Y32513D01*
X42746Y32574D01*
X42655Y32611D01*
X42628Y32615D01*
Y32665D01*
X42655Y32669D01*
X42746Y32706D01*
X42824Y32766D01*
X42884Y32845D01*
X42922Y32936D01*
X42935Y33034D01*
X42922Y33131D01*
X42884Y33223D01*
X42824Y33301D01*
X42746Y33361D01*
X42655Y33399D01*
X42557Y33412D01*
D02*
G37*
G36*
Y31640D02*
X42459Y31627D01*
X42368Y31589D01*
X42290Y31529D01*
X42230Y31451D01*
X42192Y31360D01*
X42179Y31262D01*
X42192Y31164D01*
X42230Y31073D01*
X42290Y30995D01*
X42368Y30935D01*
X42459Y30897D01*
X42557Y30884D01*
X42655Y30897D01*
X42746Y30935D01*
X42824Y30995D01*
X42884Y31073D01*
X42922Y31164D01*
X42935Y31262D01*
X42922Y31360D01*
X42884Y31451D01*
X42824Y31529D01*
X42746Y31589D01*
X42655Y31627D01*
X42557Y31640D01*
D02*
G37*
G36*
X39045Y31075D02*
X38375D01*
Y30405D01*
X39045D01*
Y31075D01*
D02*
G37*
G36*
X43644Y30685D02*
Y30073D01*
X44255D01*
X44245Y30177D01*
X44209Y30296D01*
X44151Y30405D01*
X44072Y30501D01*
X43976Y30580D01*
X43866Y30639D01*
X43747Y30675D01*
X43644Y30685D01*
D02*
G37*
G36*
X43604D02*
X43500Y30675D01*
X43381Y30639D01*
X43272Y30580D01*
X43176Y30501D01*
X43097Y30405D01*
X43038Y30296D01*
X43002Y30177D01*
X42992Y30073D01*
X43604D01*
Y30685D01*
D02*
G37*
G36*
X38730Y30076D02*
Y29760D01*
X39046D01*
X39037Y29828D01*
X39003Y29909D01*
X38949Y29979D01*
X38879Y30033D01*
X38798Y30067D01*
X38730Y30076D01*
D02*
G37*
G36*
X38690D02*
X38622Y30067D01*
X38541Y30033D01*
X38471Y29979D01*
X38417Y29909D01*
X38383Y29828D01*
X38374Y29760D01*
X38690D01*
Y30076D01*
D02*
G37*
G36*
X44255Y30033D02*
X43644D01*
Y29422D01*
X43747Y29432D01*
X43866Y29468D01*
X43976Y29527D01*
X44072Y29605D01*
X44151Y29701D01*
X44209Y29811D01*
X44245Y29930D01*
X44255Y30033D01*
D02*
G37*
G36*
X43604D02*
X42992D01*
X43002Y29930D01*
X43038Y29811D01*
X43097Y29701D01*
X43176Y29605D01*
X43272Y29527D01*
X43381Y29468D01*
X43500Y29432D01*
X43604Y29422D01*
Y30033D01*
D02*
G37*
G36*
X39046Y29720D02*
X38730D01*
Y29404D01*
X38798Y29413D01*
X38879Y29447D01*
X38949Y29501D01*
X39003Y29571D01*
X39037Y29652D01*
X39046Y29720D01*
D02*
G37*
G36*
X38690D02*
X38374D01*
X38383Y29652D01*
X38417Y29571D01*
X38471Y29501D01*
X38541Y29447D01*
X38622Y29413D01*
X38690Y29404D01*
Y29720D01*
D02*
G37*
G36*
X25723Y29702D02*
X25486D01*
Y29170D01*
X25723D01*
Y29702D01*
D02*
G37*
G36*
X25446D02*
X25210D01*
Y29170D01*
X25446D01*
Y29702D01*
D02*
G37*
G36*
X38013Y29297D02*
X37618D01*
Y28863D01*
X38013D01*
Y28968D01*
X38075D01*
X38080Y28960D01*
X38126Y28929D01*
X38180Y28919D01*
X38234Y28929D01*
X38280Y28960D01*
X38311Y29006D01*
X38321Y29060D01*
X38311Y29114D01*
X38280Y29160D01*
X38234Y29191D01*
X38180Y29201D01*
X38126Y29191D01*
X38080Y29160D01*
X38075Y29152D01*
X38013D01*
Y29297D01*
D02*
G37*
G36*
X29660Y29702D02*
X29147D01*
Y28599D01*
X29660D01*
Y29702D01*
D02*
G37*
G36*
X28872D02*
X28359D01*
Y28599D01*
X28872D01*
Y29702D01*
D02*
G37*
G36*
X25723Y29130D02*
X25486D01*
Y28599D01*
X25723D01*
Y29130D01*
D02*
G37*
G36*
X25446D02*
X25210D01*
Y28599D01*
X25446D01*
Y29130D01*
D02*
G37*
G36*
X38710Y29078D02*
X38622Y29067D01*
X38541Y29033D01*
X38471Y28979D01*
X38417Y28909D01*
X38383Y28828D01*
X38372Y28740D01*
X38383Y28652D01*
X38417Y28571D01*
X38471Y28501D01*
X38541Y28447D01*
X38622Y28413D01*
X38710Y28402D01*
X38798Y28413D01*
X38879Y28447D01*
X38949Y28501D01*
X39003Y28571D01*
X39037Y28652D01*
X39048Y28740D01*
X39037Y28828D01*
X39003Y28909D01*
X38949Y28979D01*
X38879Y29033D01*
X38798Y29067D01*
X38710Y29078D01*
D02*
G37*
G36*
X31234Y29702D02*
X30721D01*
Y28599D01*
X30886D01*
Y28486D01*
X30672Y28272D01*
X30237D01*
X30218Y28318D01*
X30255Y28356D01*
X30275Y28385D01*
X30282Y28421D01*
Y28599D01*
X30447D01*
Y29702D01*
X29934D01*
Y28599D01*
X30099D01*
Y28459D01*
X30052Y28412D01*
X28190D01*
X28155Y28405D01*
X28125Y28385D01*
X27675Y27935D01*
X27655Y27905D01*
X27648Y27870D01*
Y27667D01*
X27523D01*
Y27273D01*
X27957D01*
Y27667D01*
X27832D01*
Y27832D01*
X28228Y28228D01*
X28413D01*
X28432Y28182D01*
X28225Y27975D01*
X28205Y27945D01*
X28198Y27910D01*
Y27653D01*
X28073D01*
Y27258D01*
X28507D01*
Y27653D01*
X28382D01*
Y27872D01*
X28598Y28088D01*
X30710D01*
X30745Y28095D01*
X30775Y28115D01*
X31043Y28383D01*
X31063Y28413D01*
X31070Y28448D01*
Y28599D01*
X31234D01*
Y29702D01*
D02*
G37*
G36*
X44427Y28263D02*
X44230D01*
Y28086D01*
X44427D01*
Y28263D01*
D02*
G37*
G36*
X44190D02*
X43993D01*
Y28086D01*
X44190D01*
Y28263D01*
D02*
G37*
G36*
X46598Y28183D02*
X46480D01*
Y27982D01*
X46815D01*
X46802Y28046D01*
X46754Y28118D01*
X46683Y28166D01*
X46598Y28183D01*
D02*
G37*
G36*
X46440D02*
X46322D01*
X46237Y28166D01*
X46166Y28118D01*
X46118Y28046D01*
X46105Y27982D01*
X46440D01*
Y28183D01*
D02*
G37*
G36*
X45633Y28281D02*
X45515D01*
Y27942D01*
X45815D01*
Y28099D01*
X45801Y28169D01*
X45761Y28228D01*
X45703Y28267D01*
X45633Y28281D01*
D02*
G37*
G36*
X45475D02*
X45358D01*
X45288Y28267D01*
X45229Y28228D01*
X45190Y28169D01*
X45176Y28099D01*
Y27942D01*
X45475D01*
Y28281D01*
D02*
G37*
G36*
X44427Y28046D02*
X44230D01*
Y27868D01*
X44427D01*
Y28046D01*
D02*
G37*
G36*
X44190D02*
X43993D01*
Y27868D01*
X44190D01*
Y28046D01*
D02*
G37*
G36*
X37462Y29297D02*
X37067D01*
Y29012D01*
X36545Y28490D01*
X36544Y28490D01*
X36488Y28496D01*
X36484Y28499D01*
X36470Y28520D01*
X36424Y28551D01*
X36370Y28561D01*
X36316Y28551D01*
X36270Y28520D01*
X36255Y28497D01*
X36145D01*
X36110Y28490D01*
X36080Y28470D01*
X35955Y28345D01*
X35935Y28315D01*
X35928Y28280D01*
Y28058D01*
X35749D01*
Y27427D01*
X35851D01*
Y27289D01*
X35714D01*
Y26894D01*
X36149D01*
Y27289D01*
X36086D01*
Y27427D01*
X36262D01*
Y28058D01*
X36112D01*
Y28242D01*
X36183Y28313D01*
X36280D01*
X36316Y28289D01*
X36370Y28279D01*
X36424Y28289D01*
X36448Y28306D01*
X36498Y28279D01*
Y27635D01*
X36490Y27630D01*
X36459Y27584D01*
X36449Y27530D01*
X36459Y27476D01*
X36490Y27430D01*
X36536Y27399D01*
X36590Y27389D01*
X36644Y27399D01*
X36690Y27430D01*
X36721Y27476D01*
X36731Y27530D01*
X36721Y27584D01*
X36690Y27630D01*
X36682Y27635D01*
Y28368D01*
X37023Y28708D01*
X37073Y28688D01*
Y28323D01*
X37168D01*
Y27838D01*
X37090Y27759D01*
X37080Y27761D01*
X37026Y27751D01*
X36980Y27720D01*
X36949Y27674D01*
X36939Y27620D01*
X36949Y27566D01*
X36980Y27520D01*
X37026Y27489D01*
X37080Y27479D01*
X37134Y27489D01*
X37180Y27520D01*
X37211Y27566D01*
X37221Y27620D01*
X37219Y27630D01*
X37325Y27735D01*
X37345Y27765D01*
X37352Y27800D01*
Y28323D01*
X37467D01*
Y28757D01*
X37142D01*
X37121Y28807D01*
X37177Y28863D01*
X37462D01*
Y29297D01*
D02*
G37*
G36*
X46815Y27942D02*
X46480D01*
Y27740D01*
X46598D01*
X46683Y27757D01*
X46754Y27805D01*
X46802Y27877D01*
X46815Y27942D01*
D02*
G37*
G36*
X46440D02*
X46105D01*
X46118Y27877D01*
X46166Y27805D01*
X46237Y27757D01*
X46322Y27740D01*
X46440D01*
Y27942D01*
D02*
G37*
G36*
X40347Y27787D02*
X40150D01*
Y27610D01*
X40347D01*
Y27787D01*
D02*
G37*
G36*
X40110D02*
X39913D01*
Y27610D01*
X40110D01*
Y27787D01*
D02*
G37*
G36*
X38019Y28757D02*
X37624D01*
Y28323D01*
X37729D01*
Y28009D01*
X37736Y27974D01*
X37756Y27944D01*
X37951Y27750D01*
X37949Y27740D01*
X37959Y27686D01*
X37990Y27640D01*
X38036Y27609D01*
X38090Y27599D01*
X38144Y27609D01*
X38190Y27640D01*
X38221Y27686D01*
X38231Y27740D01*
X38221Y27794D01*
X38190Y27840D01*
X38144Y27871D01*
X38090Y27881D01*
X38080Y27879D01*
X37913Y28047D01*
Y28323D01*
X38019D01*
Y28757D01*
D02*
G37*
G36*
X45815Y27902D02*
X45515D01*
Y27564D01*
X45633D01*
X45703Y27578D01*
X45761Y27617D01*
X45801Y27676D01*
X45815Y27745D01*
Y27902D01*
D02*
G37*
G36*
X45475D02*
X45176D01*
Y27745D01*
X45190Y27676D01*
X45229Y27617D01*
X45288Y27578D01*
X45358Y27564D01*
X45475D01*
Y27902D01*
D02*
G37*
G36*
X25476Y27737D02*
X25299D01*
Y27540D01*
X25476D01*
Y27737D01*
D02*
G37*
G36*
X25259D02*
X25081D01*
Y27540D01*
X25259D01*
Y27737D01*
D02*
G37*
G36*
X31203Y27717D02*
X31026D01*
Y27520D01*
X31203D01*
Y27717D01*
D02*
G37*
G36*
X30986D02*
X30808D01*
Y27520D01*
X30986D01*
Y27717D01*
D02*
G37*
G36*
X38710Y28078D02*
X38622Y28067D01*
X38541Y28033D01*
X38471Y27979D01*
X38417Y27909D01*
X38383Y27828D01*
X38372Y27740D01*
X38383Y27652D01*
X38417Y27571D01*
X38471Y27501D01*
X38541Y27447D01*
X38622Y27413D01*
X38710Y27402D01*
X38798Y27413D01*
X38879Y27447D01*
X38949Y27501D01*
X39003Y27571D01*
X39037Y27652D01*
X39048Y27740D01*
X39037Y27828D01*
X39003Y27909D01*
X38949Y27979D01*
X38879Y28033D01*
X38798Y28067D01*
X38710Y28078D01*
D02*
G37*
G36*
X40347Y27570D02*
X40150D01*
Y27393D01*
X40347D01*
Y27570D01*
D02*
G37*
G36*
X40110D02*
X39913D01*
Y27393D01*
X40110D01*
Y27570D01*
D02*
G37*
G36*
X25476Y27500D02*
X25299D01*
Y27303D01*
X25476D01*
Y27500D01*
D02*
G37*
G36*
X25259D02*
X25081D01*
Y27303D01*
X25259D01*
Y27500D01*
D02*
G37*
G36*
X31203Y27480D02*
X31026D01*
Y27283D01*
X31203D01*
Y27480D01*
D02*
G37*
G36*
X30986D02*
X30808D01*
Y27283D01*
X30986D01*
Y27480D01*
D02*
G37*
G36*
X29644Y27928D02*
X29590Y27918D01*
X29544Y27887D01*
X29513Y27841D01*
X29502Y27787D01*
X29513Y27733D01*
X29522Y27719D01*
X29518Y27699D01*
Y27293D01*
X29334D01*
Y25835D01*
X29886D01*
Y27293D01*
X29702D01*
Y27408D01*
X30257D01*
Y27283D01*
X30652D01*
Y27717D01*
X30257D01*
Y27592D01*
X29702D01*
Y27659D01*
X29744Y27687D01*
X29774Y27733D01*
X29785Y27787D01*
X29774Y27841D01*
X29744Y27887D01*
X29698Y27918D01*
X29644Y27928D01*
D02*
G37*
G36*
X45594Y27295D02*
X45427D01*
Y27194D01*
X45711D01*
X45706Y27221D01*
X45679Y27260D01*
X45640Y27286D01*
X45594Y27295D01*
D02*
G37*
G36*
X45387D02*
X45220D01*
X45174Y27286D01*
X45134Y27260D01*
X45108Y27221D01*
X45103Y27194D01*
X45387D01*
Y27295D01*
D02*
G37*
G36*
X40959Y27317D02*
X40564D01*
Y27192D01*
X40347D01*
Y27236D01*
X39913D01*
Y27122D01*
X36543D01*
X36508Y27115D01*
X36478Y27095D01*
X36420Y27036D01*
X36400Y27007D01*
X36393Y26971D01*
Y26757D01*
X36287D01*
Y26632D01*
X36149D01*
Y26737D01*
X35714D01*
Y26343D01*
X35677Y26312D01*
X35640D01*
X35623Y26308D01*
X35583Y26337D01*
X35576Y26346D01*
Y26712D01*
X35142D01*
Y26317D01*
X35094Y26312D01*
X35052D01*
X35004Y26317D01*
Y26712D01*
X34569D01*
Y26317D01*
X34668D01*
Y26290D01*
X34675Y26255D01*
X34695Y26225D01*
X34759Y26161D01*
X34755Y26136D01*
X34741Y26111D01*
X34493D01*
Y26171D01*
X34486Y26207D01*
X34466Y26236D01*
X34434Y26268D01*
X34431Y26317D01*
X34431Y26317D01*
Y26712D01*
X33997D01*
Y26317D01*
X34118D01*
Y26289D01*
X34125Y26253D01*
X34145Y26224D01*
X34204Y26165D01*
X34210Y26161D01*
X34194Y26111D01*
X33831D01*
Y25781D01*
Y25450D01*
X35878D01*
Y25689D01*
X36272D01*
X36286Y25679D01*
X36340Y25669D01*
X36394Y25679D01*
X36440Y25710D01*
X36471Y25756D01*
X36481Y25810D01*
X36471Y25864D01*
X36440Y25910D01*
X36394Y25941D01*
X36340Y25951D01*
X36286Y25941D01*
X36240Y25910D01*
X36215Y25873D01*
X35878D01*
Y26111D01*
X35921Y26128D01*
X36843D01*
X36883Y26103D01*
Y25997D01*
X36799D01*
X36763Y25990D01*
X36734Y25970D01*
X36675Y25912D01*
X36655Y25882D01*
X36648Y25847D01*
Y25294D01*
X36035D01*
Y25018D01*
X36696D01*
Y25102D01*
X36728D01*
X36763Y25109D01*
X36793Y25129D01*
X36805Y25141D01*
X36825Y25171D01*
X36832Y25206D01*
Y25760D01*
X36833Y25761D01*
X36883Y25739D01*
Y25708D01*
X37317D01*
Y25973D01*
X37440Y26096D01*
X37460Y26126D01*
X37461Y26131D01*
X37490Y26150D01*
X37490Y26150D01*
X37557Y26161D01*
X37567Y26153D01*
Y25903D01*
X37579Y25872D01*
X37586Y25840D01*
X37579Y25833D01*
X37567Y25803D01*
Y25703D01*
X37570Y25695D01*
Y25403D01*
X37718D01*
Y25121D01*
X37199Y24602D01*
X37147Y24621D01*
X37141Y24654D01*
X37110Y24700D01*
X37064Y24731D01*
X37010Y24741D01*
X36968Y24784D01*
X36971Y24800D01*
X36961Y24854D01*
X36930Y24900D01*
X36884Y24931D01*
X36830Y24941D01*
X36776Y24931D01*
X36746Y24910D01*
X36697Y24931D01*
X36696Y24932D01*
Y24978D01*
X36035D01*
Y24899D01*
Y24505D01*
Y24112D01*
Y23718D01*
Y23318D01*
X34337D01*
X34301Y23311D01*
X34272Y23291D01*
X33943Y22963D01*
X33923Y22933D01*
X33916Y22898D01*
Y22774D01*
X33515D01*
Y22113D01*
X33478Y22082D01*
X33419D01*
X33383Y22075D01*
X33354Y22055D01*
X33295Y21996D01*
X33275Y21967D01*
X33268Y21931D01*
Y21853D01*
X33120D01*
Y21586D01*
X33117Y21578D01*
Y21278D01*
X33129Y21247D01*
X33124Y21196D01*
X33117Y21178D01*
Y21078D01*
X33120Y21070D01*
Y20778D01*
X33278D01*
Y20335D01*
X33270Y20330D01*
X33239Y20284D01*
X33229Y20230D01*
X33239Y20176D01*
X33262Y20142D01*
X33248Y20102D01*
X33240Y20092D01*
X32764D01*
X32738Y20142D01*
X32741Y20146D01*
X32751Y20200D01*
X32741Y20254D01*
X32710Y20300D01*
X32702Y20305D01*
Y20766D01*
X32850D01*
Y21058D01*
X32853Y21066D01*
Y21166D01*
X32846Y21183D01*
X32841Y21235D01*
X32853Y21266D01*
Y21566D01*
X32850Y21574D01*
Y21841D01*
X32702D01*
Y22931D01*
X33359D01*
Y23324D01*
Y23718D01*
Y23797D01*
X33028D01*
Y23837D01*
X33359D01*
Y24112D01*
Y24505D01*
Y24899D01*
Y25294D01*
X33112D01*
Y25467D01*
X33333Y25689D01*
X33515D01*
Y25450D01*
X33791D01*
Y25781D01*
Y26111D01*
X33515D01*
Y25873D01*
X33387D01*
Y25982D01*
X33380Y26017D01*
X33360Y26047D01*
X33202Y26206D01*
Y26298D01*
X33307D01*
Y26733D01*
X32912D01*
Y26298D01*
X33018D01*
Y26168D01*
X33025Y26132D01*
X33045Y26103D01*
X33204Y25944D01*
Y25819D01*
X32982Y25597D01*
X32837D01*
X32835Y25600D01*
X32789Y25631D01*
X32735Y25641D01*
X32681Y25631D01*
X32635Y25600D01*
X32604Y25554D01*
X32594Y25500D01*
X32604Y25446D01*
X32635Y25400D01*
X32681Y25369D01*
X32735Y25359D01*
X32789Y25369D01*
X32835Y25400D01*
X32844Y25414D01*
X32928D01*
Y25294D01*
X32698D01*
Y25090D01*
X32638D01*
X32352Y25376D01*
Y25573D01*
X32345Y25608D01*
X32325Y25638D01*
X32302Y25661D01*
Y25768D01*
X32427D01*
Y26163D01*
X31993D01*
Y25809D01*
X31943Y25788D01*
X31827Y25904D01*
Y26169D01*
X31393D01*
Y25774D01*
X31697D01*
X31786Y25686D01*
X31765Y25636D01*
X31393D01*
Y25241D01*
X31827D01*
Y25241D01*
X31877Y25251D01*
X31878Y25250D01*
X31880Y25200D01*
X31849Y25154D01*
X31844Y25128D01*
X31832Y25098D01*
X31791Y25085D01*
X31393D01*
Y24979D01*
X31227D01*
Y25085D01*
X30793D01*
Y24690D01*
X31227D01*
Y24796D01*
X31393D01*
Y24690D01*
X31827D01*
Y24796D01*
X31913D01*
X31918Y24791D01*
Y24362D01*
X31811D01*
Y24531D01*
X31544D01*
X31536Y24535D01*
X31236D01*
X31205Y24522D01*
X31192Y24491D01*
X31205Y24461D01*
X31375Y24291D01*
X31205Y24122D01*
X31192Y24091D01*
X31205Y24061D01*
X31236Y24048D01*
X31536D01*
X31544Y24051D01*
X31811D01*
Y24178D01*
X31972D01*
X32173Y23977D01*
X32152Y23927D01*
X32088D01*
Y23623D01*
X31982Y23516D01*
X31932Y23537D01*
Y23690D01*
X31754D01*
Y23493D01*
X31888D01*
X31908Y23443D01*
X31873Y23407D01*
X31842D01*
X31833Y23405D01*
X31537D01*
Y23280D01*
X31405D01*
X31400Y23285D01*
Y23331D01*
X31431Y23376D01*
X31441Y23430D01*
X31431Y23484D01*
X31400Y23530D01*
X31354Y23561D01*
X31300Y23571D01*
X31246Y23561D01*
X31200Y23530D01*
X31169Y23484D01*
X31159Y23430D01*
X31169Y23376D01*
X31200Y23330D01*
X31217Y23319D01*
Y23247D01*
X31224Y23212D01*
X31244Y23182D01*
X31302Y23123D01*
X31332Y23103D01*
X31367Y23096D01*
X31537D01*
Y22971D01*
X31932D01*
Y23228D01*
X31946Y23231D01*
X31975Y23250D01*
X32042Y23317D01*
X32088Y23298D01*
Y22971D01*
X32194D01*
Y22833D01*
X32088D01*
Y22398D01*
X32194D01*
Y22314D01*
X31845Y21965D01*
X31825Y21935D01*
X31818Y21900D01*
Y21787D01*
X31693D01*
Y21393D01*
X32127D01*
Y21787D01*
X32002D01*
Y21862D01*
X32350Y22211D01*
X32370Y22240D01*
X32377Y22276D01*
Y22398D01*
X32483D01*
X32518Y22363D01*
Y21841D01*
X32370D01*
Y21574D01*
X32367Y21566D01*
Y21266D01*
X32379Y21235D01*
X32374Y21183D01*
X32367Y21166D01*
Y21066D01*
X32370Y21058D01*
Y20766D01*
X32518D01*
Y20305D01*
X32510Y20300D01*
X32479Y20254D01*
X32469Y20200D01*
X32479Y20146D01*
X32482Y20142D01*
X32456Y20092D01*
X30660D01*
X30625Y20085D01*
X30595Y20065D01*
X30394Y19863D01*
X30385Y19866D01*
X30343Y19884D01*
X30317Y19923D01*
X30271Y19954D01*
X30217Y19965D01*
X30163Y19954D01*
X30117Y19923D01*
X30086Y19877D01*
X30075Y19823D01*
X30077Y19814D01*
X29373Y19109D01*
X29353Y19079D01*
X29346Y19044D01*
Y18290D01*
X29261D01*
Y17994D01*
Y17698D01*
X29542D01*
Y17182D01*
X29450Y17089D01*
X29440Y17091D01*
X29386Y17081D01*
X29340Y17050D01*
X29309Y17004D01*
X29299Y16950D01*
X29309Y16896D01*
X29340Y16850D01*
X29386Y16819D01*
X29440Y16809D01*
X29494Y16819D01*
X29540Y16850D01*
X29571Y16896D01*
X29581Y16950D01*
X29579Y16960D01*
X29699Y17079D01*
X29719Y17109D01*
X29726Y17144D01*
Y17698D01*
X30521D01*
Y18290D01*
X30559Y18318D01*
X30955D01*
X30960Y18310D01*
X31006Y18279D01*
X31060Y18269D01*
X31114Y18279D01*
X31160Y18310D01*
X31191Y18356D01*
X31201Y18410D01*
X31191Y18464D01*
X31169Y18496D01*
X31163Y18530D01*
X31169Y18564D01*
X31191Y18596D01*
X31201Y18650D01*
X31191Y18704D01*
X31160Y18750D01*
X31114Y18781D01*
X31060Y18791D01*
X31006Y18781D01*
X30960Y18750D01*
X30955Y18742D01*
X30310D01*
X30275Y18735D01*
X30245Y18715D01*
X30205Y18675D01*
X30146Y18686D01*
X30130Y18710D01*
X30084Y18741D01*
X30035Y18750D01*
X30028Y18754D01*
X30007Y18774D01*
X29999Y18796D01*
X30002Y18799D01*
X30004Y18799D01*
X30050Y18830D01*
X30081Y18876D01*
X30091Y18930D01*
X30081Y18984D01*
X30050Y19030D01*
X30004Y19061D01*
X29950Y19071D01*
X29927Y19067D01*
X29903Y19113D01*
X30698Y19908D01*
X34018D01*
Y19020D01*
X34025Y18985D01*
X34045Y18955D01*
X35298Y17702D01*
Y17303D01*
X35173D01*
Y16908D01*
X35607D01*
Y17303D01*
X35482D01*
Y17624D01*
X35974D01*
Y17321D01*
X36960D01*
Y17624D01*
X39380D01*
Y17321D01*
X40366D01*
Y18110D01*
X39380D01*
Y17808D01*
X36960D01*
Y18110D01*
X35974D01*
Y17808D01*
X35452D01*
X34202Y19058D01*
Y20000D01*
Y20752D01*
X34350D01*
Y21020D01*
X34353Y21028D01*
Y21328D01*
X34341Y21358D01*
X34334Y21390D01*
X34341Y21397D01*
X34353Y21428D01*
Y21528D01*
X34350Y21535D01*
Y21827D01*
X34260D01*
X34241Y21871D01*
X34272Y21908D01*
X34691D01*
X34761Y21838D01*
X34769Y21796D01*
X34800Y21750D01*
X34846Y21719D01*
X34900Y21709D01*
X34954Y21719D01*
X35000Y21750D01*
X35031Y21796D01*
X35041Y21850D01*
X35031Y21904D01*
X35000Y21950D01*
X34954Y21981D01*
X34900Y21991D01*
X34873Y21986D01*
X34795Y22063D01*
X34796Y22070D01*
X34811Y22113D01*
X34972D01*
Y22444D01*
Y22774D01*
X34100D01*
Y22860D01*
X34375Y23135D01*
X35873D01*
Y22905D01*
X35880Y22870D01*
X35900Y22840D01*
X36115Y22625D01*
X36145Y22605D01*
X36180Y22598D01*
X36598D01*
Y22434D01*
X36566Y22417D01*
X36548Y22412D01*
X36500Y22421D01*
X36446Y22411D01*
X36400Y22380D01*
X36369Y22334D01*
X36359Y22280D01*
X36361Y22270D01*
X36202Y22112D01*
X35928D01*
X35878Y22113D01*
Y22774D01*
X35603D01*
Y22444D01*
Y22113D01*
X35688D01*
Y22079D01*
X35695Y22043D01*
X35715Y22014D01*
X35752Y21976D01*
X35731Y21926D01*
X35680D01*
Y21709D01*
Y21492D01*
X35813D01*
X35813Y21492D01*
X35813Y21492D01*
X35820Y21492D01*
X35831Y21458D01*
Y21458D01*
X35831Y21458D01*
X35807Y21417D01*
X35745Y21355D01*
X35725Y21325D01*
X35718Y21290D01*
Y21189D01*
X35593D01*
Y20794D01*
X36027D01*
Y21189D01*
X35926D01*
X35917Y21190D01*
X35902D01*
Y21252D01*
X35928Y21278D01*
X36580D01*
X36615Y21285D01*
X36645Y21305D01*
X36755Y21415D01*
X36775Y21445D01*
X36782Y21480D01*
Y22598D01*
X36951D01*
X36997Y22578D01*
Y22478D01*
X37004Y22460D01*
X37009Y22408D01*
X36997Y22378D01*
Y22078D01*
X37000Y22070D01*
Y21802D01*
X37168D01*
Y19638D01*
X37118Y19621D01*
X37089Y19659D01*
X37019Y19713D01*
X36938Y19747D01*
X36870Y19756D01*
Y19420D01*
Y19084D01*
X36938Y19093D01*
X37019Y19127D01*
X37056Y19092D01*
X37049Y19083D01*
X37039Y19029D01*
X37049Y18975D01*
X37080Y18929D01*
X37126Y18898D01*
X37180Y18887D01*
X37234Y18898D01*
X37280Y18929D01*
X37311Y18975D01*
X37321Y19029D01*
X37316Y19056D01*
X37325Y19065D01*
X37345Y19094D01*
X37352Y19129D01*
Y21802D01*
X37478D01*
Y21270D01*
X37485Y21235D01*
X37505Y21205D01*
X37663Y21048D01*
Y20783D01*
X38097D01*
Y21177D01*
X37793D01*
X37662Y21308D01*
Y21756D01*
X37670Y21802D01*
X37985D01*
X37995Y21788D01*
X38308Y21474D01*
Y19108D01*
X38190Y18989D01*
X38180Y18991D01*
X38126Y18981D01*
X38080Y18950D01*
X38049Y18904D01*
X38039Y18850D01*
X38049Y18796D01*
X38080Y18750D01*
X38126Y18719D01*
X38180Y18709D01*
X38234Y18719D01*
X38280Y18750D01*
X38311Y18796D01*
X38321Y18850D01*
X38319Y18860D01*
X38465Y19005D01*
X38485Y19035D01*
X38492Y19070D01*
Y19278D01*
X38542Y19288D01*
X38557Y19251D01*
X38611Y19181D01*
X38681Y19127D01*
X38762Y19093D01*
X38850Y19082D01*
X38938Y19093D01*
X39019Y19127D01*
X39089Y19181D01*
X39143Y19251D01*
X39177Y19332D01*
X39188Y19420D01*
X39177Y19508D01*
X39143Y19589D01*
X39089Y19659D01*
X39019Y19713D01*
X38938Y19747D01*
X38850Y19758D01*
X38762Y19747D01*
X38681Y19713D01*
X38611Y19659D01*
X38557Y19589D01*
X38542Y19552D01*
X38492Y19562D01*
Y21512D01*
X38485Y21548D01*
X38465Y21577D01*
X38152Y21891D01*
Y21892D01*
X38150Y21901D01*
Y22070D01*
X38153Y22078D01*
Y22378D01*
X38141Y22408D01*
X38146Y22460D01*
X38153Y22478D01*
Y22578D01*
X38150Y22585D01*
Y22878D01*
X38002D01*
Y22950D01*
X37995Y22985D01*
X37975Y23015D01*
X37635Y23355D01*
X37443Y23547D01*
X37413Y23567D01*
X37396Y23573D01*
Y23968D01*
X37087D01*
X37068Y24014D01*
X37353Y24298D01*
X37463D01*
Y24173D01*
X37568D01*
Y24035D01*
X37486D01*
Y23600D01*
X37881D01*
Y24035D01*
X37752D01*
Y24173D01*
X37857D01*
Y24607D01*
X37529D01*
X37510Y24653D01*
X37814Y24957D01*
X37913Y24859D01*
X37911Y24849D01*
X37921Y24795D01*
X37952Y24749D01*
X37998Y24719D01*
X38052Y24708D01*
X38106Y24719D01*
X38152Y24749D01*
X38182Y24795D01*
X38193Y24849D01*
X38182Y24903D01*
X38152Y24949D01*
X38106Y24980D01*
X38052Y24991D01*
X38042Y24989D01*
X37902Y25129D01*
Y25403D01*
X38050D01*
Y25695D01*
X38053Y25703D01*
Y25803D01*
X38046Y25820D01*
X38041Y25872D01*
X38053Y25903D01*
Y26202D01*
X38050Y26210D01*
Y26477D01*
X37902D01*
Y26550D01*
X37895Y26585D01*
X37875Y26615D01*
X37699Y26790D01*
X37701Y26800D01*
X37691Y26854D01*
X37668Y26888D01*
X37682Y26928D01*
X37690Y26938D01*
X39913D01*
Y26841D01*
X40347D01*
Y27008D01*
X40564D01*
Y26883D01*
X40959D01*
Y27317D01*
D02*
G37*
G36*
X46854Y27549D02*
X46480D01*
Y27155D01*
X46854D01*
Y27549D01*
D02*
G37*
G36*
X46440D02*
X46066D01*
Y27155D01*
X46440D01*
Y27549D01*
D02*
G37*
G36*
X35004Y27263D02*
X34806D01*
Y27086D01*
X35004D01*
Y27263D01*
D02*
G37*
G36*
X34431D02*
X34234D01*
Y27086D01*
X34431D01*
Y27263D01*
D02*
G37*
G36*
X34194D02*
X33997D01*
Y27086D01*
X34194D01*
Y27263D01*
D02*
G37*
G36*
X34766D02*
X34569D01*
Y27086D01*
X34766D01*
Y27263D01*
D02*
G37*
G36*
X23940Y27376D02*
Y27060D01*
X24256D01*
X24247Y27128D01*
X24213Y27209D01*
X24159Y27279D01*
X24089Y27333D01*
X24008Y27367D01*
X23940Y27376D01*
D02*
G37*
G36*
X23900D02*
X23832Y27367D01*
X23751Y27333D01*
X23681Y27279D01*
X23627Y27209D01*
X23593Y27128D01*
X23584Y27060D01*
X23900D01*
Y27376D01*
D02*
G37*
G36*
X42427Y27789D02*
X41993D01*
Y27394D01*
X42427D01*
Y27499D01*
X42971D01*
X43238Y27232D01*
Y26966D01*
X43114D01*
Y27032D01*
X42562D01*
Y26966D01*
X42506D01*
X42477Y26960D01*
X42462Y26965D01*
X42427Y26990D01*
Y27237D01*
X41993D01*
Y27132D01*
X41707D01*
Y27317D01*
X41313D01*
Y26883D01*
X41707D01*
Y26948D01*
X41993D01*
Y26843D01*
X42184D01*
X42197Y26822D01*
X42205Y26793D01*
X42179Y26754D01*
X42169Y26700D01*
X42179Y26646D01*
X42210Y26600D01*
X42216Y26596D01*
X42222Y26532D01*
X42136Y26445D01*
X41936Y26645D01*
X41906Y26665D01*
X41871Y26672D01*
X41625D01*
X41620Y26680D01*
X41574Y26711D01*
X41520Y26721D01*
X41466Y26711D01*
X41420Y26680D01*
X41389Y26634D01*
X41379Y26580D01*
X41389Y26526D01*
X41420Y26480D01*
X41466Y26449D01*
X41520Y26439D01*
X41574Y26449D01*
X41620Y26480D01*
X41625Y26488D01*
X41833D01*
X42044Y26278D01*
Y25977D01*
X41938D01*
Y25543D01*
X42333D01*
Y25668D01*
X43989D01*
Y25492D01*
X43769D01*
Y24979D01*
X44400D01*
Y25492D01*
X44173D01*
Y25722D01*
X44509Y26059D01*
X45143D01*
X45174Y26039D01*
X45220Y26030D01*
X45594D01*
X45640Y26039D01*
X45679Y26065D01*
X45706Y26104D01*
X45715Y26151D01*
X45706Y26197D01*
X45679Y26236D01*
X45658Y26251D01*
X45657Y26252D01*
Y26306D01*
X45658Y26306D01*
X45679Y26321D01*
X45706Y26360D01*
X45715Y26407D01*
X45706Y26453D01*
X45679Y26492D01*
X45658Y26507D01*
X45657Y26507D01*
Y26562D01*
X45658Y26562D01*
X45679Y26577D01*
X45706Y26616D01*
X45715Y26662D01*
X45706Y26709D01*
X45679Y26748D01*
X45658Y26763D01*
X45657Y26763D01*
Y26817D01*
X45658Y26818D01*
X45679Y26833D01*
X45706Y26872D01*
X45715Y26918D01*
X45706Y26965D01*
X45679Y27004D01*
X45658Y27019D01*
X45657Y27019D01*
Y27073D01*
X45658Y27074D01*
X45679Y27089D01*
X45706Y27128D01*
X45711Y27154D01*
X45407D01*
X45103D01*
X45108Y27128D01*
X45134Y27089D01*
X45132Y27032D01*
X45110Y27010D01*
X44530D01*
X44302Y27238D01*
Y27317D01*
X44427D01*
Y27712D01*
X43993D01*
Y27317D01*
X44118D01*
Y27200D01*
X44125Y27165D01*
X44145Y27135D01*
X44278Y27002D01*
X44258Y26952D01*
X44098D01*
Y27032D01*
X43546D01*
Y26966D01*
X43422D01*
Y27270D01*
X43415Y27305D01*
X43395Y27335D01*
X43074Y27656D01*
X43044Y27676D01*
X43009Y27683D01*
X42427D01*
Y27789D01*
D02*
G37*
G36*
X27417Y27102D02*
X27220D01*
Y26924D01*
X27417D01*
Y27102D01*
D02*
G37*
G36*
X27180D02*
X26983D01*
Y26924D01*
X27180D01*
Y27102D01*
D02*
G37*
G36*
X35004Y27046D02*
X34806D01*
Y26868D01*
X35004D01*
Y27046D01*
D02*
G37*
G36*
X34766D02*
X34569D01*
Y26868D01*
X34766D01*
Y27046D01*
D02*
G37*
G36*
X34431D02*
X34234D01*
Y26868D01*
X34431D01*
Y27046D01*
D02*
G37*
G36*
X34194D02*
X33997D01*
Y26868D01*
X34194D01*
Y27046D01*
D02*
G37*
G36*
X35671Y28058D02*
X35158D01*
Y27427D01*
X35270D01*
Y27263D01*
X35142D01*
Y26868D01*
X35576D01*
Y27263D01*
X35504D01*
Y27427D01*
X35671D01*
Y28058D01*
D02*
G37*
G36*
X46854Y27115D02*
X46480D01*
Y26721D01*
X46854D01*
Y27115D01*
D02*
G37*
G36*
X46440D02*
X46066D01*
Y26721D01*
X46440D01*
Y27115D01*
D02*
G37*
G36*
X27417Y26884D02*
X27220D01*
Y26707D01*
X27417D01*
Y26884D01*
D02*
G37*
G36*
X27180D02*
X26983D01*
Y26707D01*
X27180D01*
Y26884D01*
D02*
G37*
G36*
X24256Y27020D02*
X23940D01*
Y26704D01*
X24008Y26713D01*
X24089Y26747D01*
X24159Y26801D01*
X24213Y26871D01*
X24247Y26952D01*
X24256Y27020D01*
D02*
G37*
G36*
X23900D02*
X23584D01*
X23593Y26952D01*
X23627Y26871D01*
X23681Y26801D01*
X23751Y26747D01*
X23832Y26713D01*
X23900Y26704D01*
Y27020D01*
D02*
G37*
G36*
X31827Y26720D02*
X31630D01*
Y26543D01*
X31827D01*
Y26720D01*
D02*
G37*
G36*
X31590D02*
X31393D01*
Y26543D01*
X31590D01*
Y26720D01*
D02*
G37*
G36*
X32427Y26714D02*
X32230D01*
Y26537D01*
X32427D01*
Y26714D01*
D02*
G37*
G36*
X32190D02*
X31993D01*
Y26537D01*
X32190D01*
Y26714D01*
D02*
G37*
G36*
X33859Y26733D02*
X33681D01*
Y26536D01*
X33859D01*
Y26733D01*
D02*
G37*
G36*
X33641D02*
X33464D01*
Y26536D01*
X33641D01*
Y26733D01*
D02*
G37*
G36*
X31827Y26503D02*
X31630D01*
Y26325D01*
X31827D01*
Y26503D01*
D02*
G37*
G36*
X31590D02*
X31393D01*
Y26325D01*
X31590D01*
Y26503D01*
D02*
G37*
G36*
X32427Y26497D02*
X32230D01*
Y26319D01*
X32427D01*
Y26497D01*
D02*
G37*
G36*
X32190D02*
X31993D01*
Y26319D01*
X32190D01*
Y26497D01*
D02*
G37*
G36*
X33859Y26496D02*
X33681D01*
Y26298D01*
X33859D01*
Y26496D01*
D02*
G37*
G36*
X33641D02*
X33464D01*
Y26298D01*
X33641D01*
Y26496D01*
D02*
G37*
G36*
X46854Y26604D02*
X46480D01*
Y26210D01*
X46854D01*
Y26604D01*
D02*
G37*
G36*
X46440D02*
X46066D01*
Y26210D01*
X46440D01*
Y26604D01*
D02*
G37*
G36*
X24820Y26081D02*
X24766Y26071D01*
X24720Y26040D01*
X24689Y25994D01*
X24679Y25940D01*
X24689Y25886D01*
X24720Y25840D01*
X24766Y25809D01*
X24820Y25799D01*
X24874Y25809D01*
X24920Y25840D01*
X24951Y25886D01*
X24961Y25940D01*
X24951Y25994D01*
X24920Y26040D01*
X24874Y26071D01*
X24820Y26081D01*
D02*
G37*
G36*
X41782Y25977D02*
X41604D01*
Y25780D01*
X41782D01*
Y25977D01*
D02*
G37*
G36*
X41564D02*
X41387D01*
Y25780D01*
X41564D01*
Y25977D01*
D02*
G37*
G36*
X46854Y26170D02*
X46480D01*
Y25776D01*
X46854D01*
Y26170D01*
D02*
G37*
G36*
X46440D02*
X46066D01*
Y25776D01*
X46440D01*
Y26170D01*
D02*
G37*
G36*
X23920Y26378D02*
X23832Y26367D01*
X23751Y26333D01*
X23681Y26279D01*
X23627Y26209D01*
X23593Y26128D01*
X23582Y26040D01*
X23593Y25952D01*
X23627Y25871D01*
X23681Y25801D01*
X23751Y25747D01*
X23832Y25713D01*
X23920Y25702D01*
X24008Y25713D01*
X24089Y25747D01*
X24159Y25801D01*
X24213Y25871D01*
X24247Y25952D01*
X24258Y26040D01*
X24247Y26128D01*
X24213Y26209D01*
X24159Y26279D01*
X24089Y26333D01*
X24008Y26367D01*
X23920Y26378D01*
D02*
G37*
G36*
X41782Y25740D02*
X41604D01*
Y25543D01*
X41782D01*
Y25740D01*
D02*
G37*
G36*
X41564D02*
X41387D01*
Y25543D01*
X41564D01*
Y25740D01*
D02*
G37*
G36*
X28507Y27102D02*
X28073D01*
Y26707D01*
X28198D01*
Y25775D01*
X28190Y25770D01*
X28159Y25724D01*
X28149Y25670D01*
X28159Y25616D01*
X28190Y25570D01*
X28236Y25539D01*
X28290Y25529D01*
X28344Y25539D01*
X28390Y25570D01*
X28421Y25616D01*
X28431Y25670D01*
X28421Y25724D01*
X28390Y25770D01*
X28382Y25775D01*
Y26707D01*
X28507D01*
Y27102D01*
D02*
G37*
G36*
X27957Y27116D02*
X27523D01*
Y26721D01*
X27658D01*
Y25735D01*
X27650Y25730D01*
X27619Y25684D01*
X27609Y25630D01*
X27619Y25576D01*
X27650Y25530D01*
X27696Y25499D01*
X27750Y25489D01*
X27804Y25499D01*
X27850Y25530D01*
X27881Y25576D01*
X27891Y25630D01*
X27881Y25684D01*
X27850Y25730D01*
X27842Y25735D01*
Y26721D01*
X27957D01*
Y27116D01*
D02*
G37*
G36*
X31227Y25636D02*
X31030D01*
Y25459D01*
X31227D01*
Y25636D01*
D02*
G37*
G36*
X30990D02*
X30793D01*
Y25459D01*
X30990D01*
Y25636D01*
D02*
G37*
G36*
X45633Y25761D02*
X45515D01*
Y25423D01*
X45815D01*
Y25580D01*
X45801Y25649D01*
X45761Y25708D01*
X45703Y25747D01*
X45633Y25761D01*
D02*
G37*
G36*
X45475D02*
X45358D01*
X45288Y25747D01*
X45229Y25708D01*
X45190Y25649D01*
X45176Y25580D01*
Y25423D01*
X45475D01*
Y25761D01*
D02*
G37*
G36*
X46598Y25585D02*
X46480D01*
Y25383D01*
X46815D01*
X46802Y25448D01*
X46754Y25520D01*
X46683Y25568D01*
X46598Y25585D01*
D02*
G37*
G36*
X46440D02*
X46322D01*
X46237Y25568D01*
X46166Y25520D01*
X46118Y25448D01*
X46105Y25383D01*
X46440D01*
Y25585D01*
D02*
G37*
G36*
X37317Y25552D02*
X37120D01*
Y25374D01*
X37317D01*
Y25552D01*
D02*
G37*
G36*
X37080D02*
X36883D01*
Y25374D01*
X37080D01*
Y25552D01*
D02*
G37*
G36*
X42932Y25529D02*
X42754D01*
Y25332D01*
X42932D01*
Y25529D01*
D02*
G37*
G36*
X42714D02*
X42537D01*
Y25332D01*
X42714D01*
Y25529D01*
D02*
G37*
G36*
X41782Y25465D02*
X41604D01*
Y25267D01*
X41782D01*
Y25465D01*
D02*
G37*
G36*
X41564D02*
X41387D01*
Y25267D01*
X41564D01*
Y25465D01*
D02*
G37*
G36*
X31227Y25419D02*
X31030D01*
Y25241D01*
X31227D01*
Y25419D01*
D02*
G37*
G36*
X30990D02*
X30793D01*
Y25241D01*
X30990D01*
Y25419D01*
D02*
G37*
G36*
X37317Y25334D02*
X37120D01*
Y25157D01*
X37317D01*
Y25334D01*
D02*
G37*
G36*
X37080D02*
X36883D01*
Y25157D01*
X37080D01*
Y25334D01*
D02*
G37*
G36*
X46815Y25343D02*
X46480D01*
Y25142D01*
X46598D01*
X46683Y25159D01*
X46754Y25207D01*
X46802Y25278D01*
X46815Y25343D01*
D02*
G37*
G36*
X46440D02*
X46105D01*
X46118Y25278D01*
X46166Y25207D01*
X46237Y25159D01*
X46322Y25142D01*
X46440D01*
Y25343D01*
D02*
G37*
G36*
X42932Y25292D02*
X42754D01*
Y25094D01*
X42932D01*
Y25292D01*
D02*
G37*
G36*
X42714D02*
X42537D01*
Y25094D01*
X42714D01*
Y25292D01*
D02*
G37*
G36*
X45815Y25383D02*
X45515D01*
Y25044D01*
X45633D01*
X45703Y25058D01*
X45761Y25097D01*
X45801Y25156D01*
X45815Y25225D01*
Y25383D01*
D02*
G37*
G36*
X45475D02*
X45176D01*
Y25225D01*
X45190Y25156D01*
X45229Y25097D01*
X45288Y25058D01*
X45358Y25044D01*
X45475D01*
Y25383D01*
D02*
G37*
G36*
X41782Y25227D02*
X41604D01*
Y25030D01*
X41782D01*
Y25227D01*
D02*
G37*
G36*
X41564D02*
X41387D01*
Y25030D01*
X41564D01*
Y25227D01*
D02*
G37*
G36*
X23920Y25378D02*
X23832Y25367D01*
X23751Y25333D01*
X23681Y25279D01*
X23627Y25209D01*
X23593Y25128D01*
X23582Y25040D01*
X23593Y24952D01*
X23627Y24871D01*
X23681Y24801D01*
X23751Y24747D01*
X23832Y24713D01*
X23920Y24702D01*
X24008Y24713D01*
X24089Y24747D01*
X24159Y24801D01*
X24213Y24871D01*
X24247Y24952D01*
X24258Y25040D01*
X24247Y25128D01*
X24213Y25209D01*
X24159Y25279D01*
X24089Y25333D01*
X24008Y25367D01*
X23920Y25378D01*
D02*
G37*
G36*
X43483Y25529D02*
X43088D01*
Y25094D01*
X43223D01*
Y24797D01*
X43049D01*
Y24481D01*
X43582D01*
Y24797D01*
X43407D01*
Y25094D01*
X43483D01*
Y25529D01*
D02*
G37*
G36*
X42333Y25465D02*
X41938D01*
Y25030D01*
X42044D01*
Y24974D01*
X42051Y24939D01*
X42071Y24910D01*
X42137Y24844D01*
X42117Y24797D01*
X42065D01*
Y24481D01*
X42597D01*
Y24797D01*
X42382D01*
Y24820D01*
X42375Y24855D01*
X42355Y24885D01*
X42259Y24980D01*
X42280Y25030D01*
X42333D01*
Y25465D01*
D02*
G37*
G36*
X41904Y24640D02*
X41707D01*
Y24462D01*
X41904D01*
Y24640D01*
D02*
G37*
G36*
X41667D02*
X41470D01*
Y24462D01*
X41667D01*
Y24640D01*
D02*
G37*
G36*
X31136Y24531D02*
X30956D01*
Y24311D01*
X31036D01*
Y24491D01*
X31136D01*
Y24531D01*
D02*
G37*
G36*
X30916D02*
X30736D01*
Y24311D01*
X30916D01*
Y24531D01*
D02*
G37*
G36*
X43582Y24423D02*
X43335D01*
Y24285D01*
X43582D01*
Y24423D01*
D02*
G37*
G36*
X43295D02*
X43049D01*
Y24285D01*
X43295D01*
Y24423D01*
D02*
G37*
G36*
X41904Y24422D02*
X41707D01*
Y24245D01*
X41904D01*
Y24422D01*
D02*
G37*
G36*
X41667D02*
X41470D01*
Y24245D01*
X41667D01*
Y24422D01*
D02*
G37*
G36*
X43582Y24245D02*
X43335D01*
Y24107D01*
X43582D01*
Y24245D01*
D02*
G37*
G36*
X43295D02*
X43049D01*
Y24107D01*
X43295D01*
Y24245D01*
D02*
G37*
G36*
X31036Y24271D02*
X30956D01*
Y24051D01*
X31136D01*
Y24091D01*
X31036D01*
Y24271D01*
D02*
G37*
G36*
X30916D02*
X30736D01*
Y24051D01*
X30916D01*
Y24271D01*
D02*
G37*
G36*
X44400Y24901D02*
X43769D01*
Y24388D01*
X43993D01*
Y24193D01*
X43772Y23972D01*
X43582D01*
Y24049D01*
X43049D01*
Y23733D01*
X43582D01*
Y23788D01*
X43810D01*
X43845Y23795D01*
X43875Y23815D01*
X43947Y23887D01*
X43993Y23868D01*
Y23533D01*
X43792Y23332D01*
X43542D01*
Y23457D01*
X43147D01*
Y23023D01*
X43542D01*
Y23148D01*
X43830D01*
X43865Y23155D01*
X43895Y23175D01*
X44149Y23430D01*
X44169Y23459D01*
X44176Y23495D01*
Y24155D01*
Y24388D01*
X44400D01*
Y24901D01*
D02*
G37*
G36*
X41130Y30061D02*
X41076Y30051D01*
X41030Y30020D01*
X40999Y29974D01*
X40989Y29920D01*
X40999Y29866D01*
X41030Y29820D01*
X41044Y29811D01*
Y28105D01*
X40939D01*
Y27670D01*
X41044D01*
Y24020D01*
X40780D01*
Y23753D01*
X40777Y23745D01*
Y23445D01*
X40789Y23414D01*
X40784Y23363D01*
X40777Y23345D01*
Y23245D01*
X40780Y23237D01*
Y22945D01*
X40928D01*
Y22858D01*
X40902Y22832D01*
X39638D01*
X39453Y23017D01*
X39454Y23067D01*
X39577D01*
Y23462D01*
X39143D01*
Y23067D01*
X39268D01*
Y22980D01*
X39275Y22945D01*
X39295Y22915D01*
X39535Y22675D01*
X39565Y22655D01*
X39600Y22648D01*
X40940D01*
X40975Y22655D01*
X41005Y22675D01*
X41085Y22755D01*
X41105Y22785D01*
X41112Y22820D01*
Y22945D01*
X41260D01*
Y23237D01*
X41263Y23245D01*
Y23345D01*
X41251Y23376D01*
X41244Y23382D01*
X41251Y23414D01*
X41263Y23445D01*
Y23745D01*
X41306Y23773D01*
X41470D01*
Y23694D01*
X41617D01*
Y23457D01*
X41511D01*
Y23023D01*
X41906D01*
Y23457D01*
X41801D01*
Y23694D01*
X41904D01*
Y23800D01*
X42065D01*
Y23733D01*
X42597D01*
Y24049D01*
X42065D01*
Y23983D01*
X41904D01*
Y24089D01*
X41470D01*
Y23956D01*
X41260D01*
Y24020D01*
X41228D01*
Y27670D01*
X41333D01*
Y28105D01*
X41228D01*
Y29819D01*
X41230Y29820D01*
X41261Y29866D01*
X41271Y29920D01*
X41261Y29974D01*
X41230Y30020D01*
X41184Y30051D01*
X41130Y30061D01*
D02*
G37*
G36*
X31932Y23927D02*
X31754D01*
Y23730D01*
X31932D01*
Y23927D01*
D02*
G37*
G36*
X31714D02*
X31537D01*
Y23730D01*
X31714D01*
Y23927D01*
D02*
G37*
G36*
X23920Y24378D02*
X23832Y24367D01*
X23751Y24333D01*
X23681Y24279D01*
X23627Y24209D01*
X23593Y24128D01*
X23582Y24040D01*
X23593Y23952D01*
X23627Y23871D01*
X23681Y23801D01*
X23751Y23747D01*
X23832Y23713D01*
X23920Y23702D01*
X24008Y23713D01*
X24089Y23747D01*
X24159Y23801D01*
X24213Y23871D01*
X24247Y23952D01*
X24258Y24040D01*
X24247Y24128D01*
X24213Y24209D01*
X24159Y24279D01*
X24089Y24333D01*
X24008Y24367D01*
X23920Y24378D01*
D02*
G37*
G36*
X38409Y24607D02*
X38014D01*
Y24173D01*
X38409D01*
Y24298D01*
X39082D01*
X39268Y24112D01*
Y24013D01*
X39143D01*
Y23618D01*
X39577D01*
Y24013D01*
X39452D01*
Y24150D01*
X39445Y24185D01*
X39425Y24215D01*
X39185Y24455D01*
X39155Y24475D01*
X39120Y24482D01*
X38409D01*
Y24607D01*
D02*
G37*
G36*
X38432Y24035D02*
X38037D01*
Y23600D01*
X38432D01*
Y23724D01*
X38570D01*
Y23618D01*
X39005D01*
Y24013D01*
X38570D01*
Y23907D01*
X38432D01*
Y24035D01*
D02*
G37*
G36*
X31714Y23690D02*
X31537D01*
Y23493D01*
X31714D01*
Y23690D01*
D02*
G37*
G36*
X30983Y23611D02*
X30806D01*
Y23414D01*
X30983D01*
Y23611D01*
D02*
G37*
G36*
X30766D02*
X30588D01*
Y23414D01*
X30766D01*
Y23611D01*
D02*
G37*
G36*
X39005Y23462D02*
X38807D01*
Y23284D01*
X39005D01*
Y23462D01*
D02*
G37*
G36*
X38767D02*
X38570D01*
Y23284D01*
X38767D01*
Y23462D01*
D02*
G37*
G36*
X42991Y23457D02*
X42813D01*
Y23260D01*
X42991D01*
Y23457D01*
D02*
G37*
G36*
X42773D02*
X42596D01*
Y23260D01*
X42773D01*
Y23457D01*
D02*
G37*
G36*
X42457D02*
X42280D01*
Y23260D01*
X42457D01*
Y23457D01*
D02*
G37*
G36*
X42240D02*
X42063D01*
Y23260D01*
X42240D01*
Y23457D01*
D02*
G37*
G36*
X30983Y23374D02*
X30806D01*
Y23177D01*
X30983D01*
Y23374D01*
D02*
G37*
G36*
X30766D02*
X30588D01*
Y23177D01*
X30766D01*
Y23374D01*
D02*
G37*
G36*
X29886Y25128D02*
X29334D01*
Y23670D01*
X29508D01*
Y23171D01*
X29498Y23156D01*
X29487Y23102D01*
X29498Y23048D01*
X29528Y23002D01*
X29574Y22971D01*
X29628Y22960D01*
X29682Y22971D01*
X29728Y23002D01*
X29759Y23048D01*
X29770Y23102D01*
X29759Y23156D01*
X29728Y23202D01*
X29692Y23226D01*
Y23302D01*
X30037D01*
Y23177D01*
X30432D01*
Y23611D01*
X30037D01*
Y23486D01*
X29692D01*
Y23670D01*
X29886D01*
Y25128D01*
D02*
G37*
G36*
X39005Y23244D02*
X38807D01*
Y23067D01*
X39005D01*
Y23244D01*
D02*
G37*
G36*
X38767D02*
X38570D01*
Y23067D01*
X38767D01*
Y23244D01*
D02*
G37*
G36*
X42991Y23220D02*
X42813D01*
Y23023D01*
X42991D01*
Y23220D01*
D02*
G37*
G36*
X42773D02*
X42596D01*
Y23023D01*
X42773D01*
Y23220D01*
D02*
G37*
G36*
X42457Y23220D02*
X42280D01*
Y23023D01*
X42457D01*
Y23220D01*
D02*
G37*
G36*
X42240D02*
X42063D01*
Y23023D01*
X42240D01*
Y23220D01*
D02*
G37*
G36*
X28110Y23739D02*
Y22930D01*
X28919D01*
X28905Y23072D01*
X28858Y23228D01*
X28781Y23372D01*
X28678Y23498D01*
X28552Y23601D01*
X28408Y23678D01*
X28252Y23725D01*
X28110Y23739D01*
D02*
G37*
G36*
X28070D02*
X27928Y23725D01*
X27772Y23678D01*
X27628Y23601D01*
X27502Y23498D01*
X27399Y23372D01*
X27322Y23228D01*
X27275Y23072D01*
X27261Y22930D01*
X28070D01*
Y23739D01*
D02*
G37*
G36*
X23920Y23378D02*
X23832Y23367D01*
X23751Y23333D01*
X23681Y23279D01*
X23627Y23209D01*
X23593Y23128D01*
X23582Y23040D01*
X23593Y22952D01*
X23627Y22871D01*
X23681Y22801D01*
X23751Y22747D01*
X23832Y22713D01*
X23920Y22702D01*
X24008Y22713D01*
X24089Y22747D01*
X24159Y22801D01*
X24213Y22871D01*
X24247Y22952D01*
X24258Y23040D01*
X24247Y23128D01*
X24213Y23209D01*
X24159Y23279D01*
X24089Y23333D01*
X24008Y23367D01*
X23920Y23378D01*
D02*
G37*
G36*
X31932Y22833D02*
X31754D01*
Y22636D01*
X31932D01*
Y22833D01*
D02*
G37*
G36*
X31714D02*
X31537D01*
Y22636D01*
X31714D01*
Y22833D01*
D02*
G37*
G36*
X31932Y22596D02*
X31754D01*
Y22398D01*
X31932D01*
Y22596D01*
D02*
G37*
G36*
X31714D02*
X31537D01*
Y22398D01*
X31714D01*
Y22596D01*
D02*
G37*
G36*
X35563Y22774D02*
X35012D01*
Y22444D01*
Y22113D01*
X35563D01*
Y22444D01*
Y22774D01*
D02*
G37*
G36*
X28919Y22890D02*
X28110D01*
Y22081D01*
X28252Y22095D01*
X28408Y22142D01*
X28552Y22219D01*
X28678Y22322D01*
X28781Y22448D01*
X28858Y22592D01*
X28905Y22748D01*
X28919Y22890D01*
D02*
G37*
G36*
X28070D02*
X27261D01*
X27275Y22748D01*
X27322Y22592D01*
X27399Y22448D01*
X27502Y22322D01*
X27628Y22219D01*
X27772Y22142D01*
X27928Y22095D01*
X28070Y22081D01*
Y22890D01*
D02*
G37*
G36*
X47380Y22119D02*
X46704D01*
Y21961D01*
X47380D01*
Y22119D01*
D02*
G37*
G36*
X46664D02*
X45989D01*
Y21961D01*
X46664D01*
Y22119D01*
D02*
G37*
G36*
X43037D02*
X42466D01*
Y21930D01*
X43037D01*
Y22119D01*
D02*
G37*
G36*
X42426D02*
X41855D01*
Y21930D01*
X42426D01*
Y22119D01*
D02*
G37*
G36*
X47380Y21921D02*
X46704D01*
Y21763D01*
X47380D01*
Y21921D01*
D02*
G37*
G36*
X46664D02*
X45989D01*
Y21763D01*
X46664D01*
Y21921D01*
D02*
G37*
G36*
X35640Y21926D02*
X35463D01*
Y21729D01*
X35640D01*
Y21926D01*
D02*
G37*
G36*
X31526Y21887D02*
X31230D01*
Y21651D01*
X31526D01*
Y21887D01*
D02*
G37*
G36*
X31190D02*
X30894D01*
Y21651D01*
X31190D01*
Y21887D01*
D02*
G37*
G36*
X43037Y21890D02*
X42446D01*
X41855D01*
Y21700D01*
X41964D01*
X41993Y21662D01*
X41993Y21650D01*
Y21589D01*
X41034D01*
X41020Y21610D01*
X40974Y21641D01*
X40920Y21651D01*
X40866Y21641D01*
X40820Y21610D01*
X40789Y21564D01*
X40779Y21510D01*
X40789Y21456D01*
X40820Y21410D01*
X40866Y21379D01*
X40920Y21369D01*
X40974Y21379D01*
X41013Y21405D01*
X41993D01*
Y21307D01*
X42506D01*
Y21393D01*
X43618D01*
X45231Y19779D01*
Y16037D01*
X45105D01*
Y15643D01*
X45540D01*
Y16037D01*
X45414D01*
Y19817D01*
X45407Y19853D01*
X45387Y19882D01*
X43720Y21549D01*
X43691Y21569D01*
X43656Y21576D01*
X42506D01*
Y21650D01*
X42506Y21662D01*
X42535Y21700D01*
X43037D01*
Y21890D01*
D02*
G37*
G36*
X35640Y21689D02*
X35463D01*
Y21492D01*
X35640D01*
Y21689D01*
D02*
G37*
G36*
X31526Y21611D02*
X31230D01*
Y21374D01*
X31526D01*
Y21611D01*
D02*
G37*
G36*
X31190D02*
X30894D01*
Y21374D01*
X31190D01*
Y21611D01*
D02*
G37*
G36*
X42506Y21229D02*
X41993D01*
Y21142D01*
X41029D01*
X41010Y21170D01*
X40964Y21201D01*
X40910Y21211D01*
X40856Y21201D01*
X40810Y21170D01*
X40779Y21124D01*
X40769Y21070D01*
X40779Y21016D01*
X40810Y20970D01*
X40856Y20939D01*
X40910Y20929D01*
X40964Y20939D01*
X40992Y20958D01*
X41993D01*
Y20874D01*
X42506D01*
Y20960D01*
X43491D01*
X44718Y19732D01*
Y16033D01*
X44593D01*
Y15638D01*
X45027D01*
Y16033D01*
X44902D01*
Y19770D01*
X44895Y19805D01*
X44875Y19835D01*
X43593Y21116D01*
X43564Y21136D01*
X43529Y21143D01*
X42506D01*
Y21229D01*
D02*
G37*
G36*
X35077Y21189D02*
X34880D01*
Y21011D01*
X35077D01*
Y21189D01*
D02*
G37*
G36*
X34840D02*
X34643D01*
Y21011D01*
X34840D01*
Y21189D01*
D02*
G37*
G36*
X31526Y21297D02*
X30894D01*
Y20783D01*
X31526D01*
Y20922D01*
X31693D01*
Y20841D01*
X32127D01*
Y21236D01*
X31693D01*
Y21157D01*
X31526D01*
Y21297D01*
D02*
G37*
G36*
X28240Y21281D02*
X28186Y21271D01*
X28140Y21240D01*
X28109Y21194D01*
X28099Y21140D01*
X28101Y21130D01*
X27207Y20237D01*
X27187Y20207D01*
X27180Y20172D01*
Y18290D01*
X27095D01*
Y17994D01*
Y17698D01*
X27646D01*
Y17994D01*
Y18290D01*
X27561D01*
Y20001D01*
X28390Y20831D01*
X28400Y20829D01*
X28454Y20839D01*
X28500Y20870D01*
X28531Y20916D01*
X28541Y20970D01*
X28531Y21024D01*
X28500Y21070D01*
X28454Y21101D01*
X28400Y21111D01*
X28380Y21132D01*
X28381Y21140D01*
X28371Y21194D01*
X28340Y21240D01*
X28294Y21271D01*
X28240Y21281D01*
D02*
G37*
G36*
X38720Y21961D02*
X38666Y21951D01*
X38620Y21920D01*
X38589Y21874D01*
X38579Y21820D01*
X38589Y21766D01*
X38620Y21720D01*
X38666Y21689D01*
X38720Y21679D01*
X38758Y21644D01*
Y21203D01*
X38633D01*
Y20808D01*
X39067D01*
Y21203D01*
X38942D01*
Y21690D01*
X38935Y21725D01*
X38915Y21755D01*
X38859Y21810D01*
X38861Y21820D01*
X38851Y21874D01*
X38820Y21920D01*
X38774Y21951D01*
X38720Y21961D01*
D02*
G37*
G36*
X35077Y20971D02*
X34880D01*
Y20794D01*
X35077D01*
Y20971D01*
D02*
G37*
G36*
X34840D02*
X34643D01*
Y20794D01*
X34840D01*
Y20971D01*
D02*
G37*
G36*
X42506Y20796D02*
X42269D01*
Y20638D01*
X42506D01*
Y20796D01*
D02*
G37*
G36*
X42229D02*
X41993D01*
Y20638D01*
X42229D01*
Y20796D01*
D02*
G37*
G36*
X42506Y20598D02*
X42269D01*
Y20441D01*
X42506D01*
Y20598D01*
D02*
G37*
G36*
X42229D02*
X41993D01*
Y20441D01*
X42229D01*
Y20598D01*
D02*
G37*
G36*
X39830Y22471D02*
X39776Y22461D01*
X39730Y22430D01*
X39699Y22384D01*
X39689Y22330D01*
X39699Y22276D01*
X39730Y22230D01*
X39738Y22225D01*
Y21408D01*
X39450Y21119D01*
X39430Y21090D01*
X39423Y21054D01*
Y20627D01*
X39317D01*
Y20193D01*
X39712D01*
Y20627D01*
X39606D01*
Y21016D01*
X39895Y21305D01*
X39915Y21335D01*
X39922Y21370D01*
Y22225D01*
X39930Y22230D01*
X39961Y22276D01*
X39971Y22330D01*
X39961Y22384D01*
X39930Y22430D01*
X39884Y22461D01*
X39830Y22471D01*
D02*
G37*
G36*
X41170Y20631D02*
X41116Y20621D01*
X41070Y20590D01*
X41039Y20544D01*
X41029Y20490D01*
X41039Y20436D01*
X41070Y20390D01*
X41116Y20359D01*
X41170Y20349D01*
X41180Y20351D01*
X41410Y20120D01*
X41440Y20101D01*
X41475Y20094D01*
X41993D01*
Y20007D01*
X42506D01*
Y20363D01*
X41993D01*
Y20277D01*
X41513D01*
X41309Y20480D01*
X41311Y20490D01*
X41301Y20544D01*
X41270Y20590D01*
X41224Y20621D01*
X41170Y20631D01*
D02*
G37*
G36*
X35077Y20637D02*
X34643D01*
Y20243D01*
X34758D01*
Y20185D01*
X34750Y20180D01*
X34719Y20134D01*
X34709Y20080D01*
X34719Y20026D01*
X34750Y19980D01*
X34796Y19949D01*
X34850Y19939D01*
X34904Y19949D01*
X34950Y19980D01*
X34981Y20026D01*
X34991Y20080D01*
X34981Y20134D01*
X34950Y20180D01*
X34942Y20185D01*
Y20243D01*
X35077D01*
Y20637D01*
D02*
G37*
G36*
X36027D02*
X35593D01*
Y20243D01*
X35718D01*
Y20165D01*
X35710Y20160D01*
X35679Y20114D01*
X35669Y20060D01*
X35679Y20006D01*
X35710Y19960D01*
X35756Y19929D01*
X35810Y19919D01*
X35864Y19929D01*
X35910Y19960D01*
X35941Y20006D01*
X35951Y20060D01*
X35941Y20114D01*
X35910Y20160D01*
X35902Y20165D01*
Y20243D01*
X36027D01*
Y20637D01*
D02*
G37*
G36*
X38097Y20626D02*
X37663D01*
Y20231D01*
X37768D01*
Y20145D01*
X37760Y20140D01*
X37729Y20094D01*
X37719Y20040D01*
X37729Y19986D01*
X37760Y19940D01*
X37806Y19909D01*
X37860Y19899D01*
X37914Y19909D01*
X37960Y19940D01*
X37991Y19986D01*
X38001Y20040D01*
X37991Y20094D01*
X37960Y20140D01*
X37952Y20145D01*
Y20231D01*
X38097D01*
Y20626D01*
D02*
G37*
G36*
X39067Y20652D02*
X38633D01*
Y20257D01*
X38758D01*
Y20135D01*
X38750Y20130D01*
X38719Y20084D01*
X38709Y20030D01*
X38719Y19976D01*
X38750Y19930D01*
X38796Y19899D01*
X38850Y19889D01*
X38904Y19899D01*
X38950Y19930D01*
X38981Y19976D01*
X38991Y20030D01*
X38981Y20084D01*
X38950Y20130D01*
X38942Y20135D01*
Y20257D01*
X39067D01*
Y20652D01*
D02*
G37*
G36*
X40263Y20627D02*
X39868D01*
Y20193D01*
X39958D01*
Y20105D01*
X39950Y20100D01*
X39919Y20054D01*
X39909Y20000D01*
X39919Y19946D01*
X39950Y19900D01*
X39996Y19869D01*
X40050Y19859D01*
X40104Y19869D01*
X40150Y19900D01*
X40181Y19946D01*
X40191Y20000D01*
X40181Y20054D01*
X40150Y20100D01*
X40142Y20105D01*
Y20193D01*
X40263D01*
Y20627D01*
D02*
G37*
G36*
X28660Y20841D02*
X28606Y20831D01*
X28560Y20800D01*
X28529Y20754D01*
X28519Y20700D01*
X28521Y20690D01*
X27798Y19967D01*
X27778Y19938D01*
X27771Y19903D01*
Y18290D01*
X27686D01*
Y17994D01*
Y17698D01*
X29221D01*
Y17994D01*
Y18290D01*
X29135D01*
Y19106D01*
X29640Y19611D01*
X29650Y19609D01*
X29704Y19619D01*
X29750Y19650D01*
X29781Y19696D01*
X29791Y19750D01*
X29781Y19804D01*
X29750Y19850D01*
X29704Y19881D01*
X29650Y19891D01*
X29621Y19937D01*
X29616Y19961D01*
X29586Y20007D01*
X29540Y20037D01*
X29511Y20043D01*
X29471Y20072D01*
X29460Y20126D01*
X29429Y20172D01*
X29383Y20202D01*
X29329Y20213D01*
X29324Y20212D01*
X29307Y20229D01*
X29296Y20283D01*
X29265Y20329D01*
X29219Y20359D01*
X29187Y20366D01*
X29141Y20390D01*
X29131Y20444D01*
X29100Y20490D01*
X29054Y20521D01*
X29000Y20531D01*
X28965Y20571D01*
X28960Y20594D01*
X28930Y20640D01*
X28884Y20671D01*
X28848Y20678D01*
X28801Y20700D01*
X28791Y20754D01*
X28760Y20800D01*
X28714Y20831D01*
X28660Y20841D01*
D02*
G37*
G36*
X47380Y19674D02*
X47206D01*
Y19447D01*
X47380D01*
Y19674D01*
D02*
G37*
G36*
X47166D02*
X46993D01*
Y19447D01*
X47166D01*
Y19674D01*
D02*
G37*
G36*
X36830Y19756D02*
X36762Y19747D01*
X36681Y19713D01*
X36611Y19659D01*
X36557Y19589D01*
X36523Y19508D01*
X36514Y19440D01*
X36830D01*
Y19756D01*
D02*
G37*
G36*
X42506Y19930D02*
X41993D01*
Y19574D01*
X42506D01*
Y19635D01*
X42639D01*
X42725Y19549D01*
X42729Y19526D01*
X42760Y19480D01*
X42789Y19461D01*
X42774Y19411D01*
X42506D01*
Y19497D01*
X41993D01*
Y19411D01*
X41659D01*
X41309Y19760D01*
X41311Y19770D01*
X41301Y19824D01*
X41270Y19870D01*
X41224Y19901D01*
X41170Y19911D01*
X41116Y19901D01*
X41070Y19870D01*
X41039Y19824D01*
X41029Y19770D01*
X41039Y19716D01*
X41070Y19670D01*
X41116Y19639D01*
X41170Y19629D01*
X41180Y19631D01*
X41556Y19254D01*
X41586Y19234D01*
X41621Y19227D01*
X41993D01*
Y19141D01*
X42506D01*
Y19227D01*
X43673D01*
X44198Y18702D01*
Y16033D01*
X44073D01*
Y15638D01*
X44507D01*
Y16033D01*
X44382D01*
Y18740D01*
X44375Y18775D01*
X44355Y18805D01*
X43776Y19384D01*
X43746Y19404D01*
X43711Y19411D01*
X42946D01*
X42931Y19461D01*
X42960Y19480D01*
X42991Y19526D01*
X43001Y19580D01*
X42991Y19634D01*
X42960Y19680D01*
X42914Y19711D01*
X42891Y19715D01*
X42771Y19835D01*
X42733Y19861D01*
X42688Y19869D01*
X42506D01*
Y19930D01*
D02*
G37*
G36*
X47380Y19407D02*
X47206D01*
Y19181D01*
X47380D01*
Y19407D01*
D02*
G37*
G36*
X47166D02*
X46993D01*
Y19181D01*
X47166D01*
Y19407D01*
D02*
G37*
G36*
X33845Y19801D02*
X33175D01*
Y19130D01*
X33845D01*
Y19801D01*
D02*
G37*
G36*
X32510Y19804D02*
X32422Y19792D01*
X32341Y19758D01*
X32271Y19705D01*
X32217Y19635D01*
X32183Y19553D01*
X32172Y19466D01*
X32183Y19378D01*
X32217Y19297D01*
X32271Y19226D01*
X32341Y19173D01*
X32422Y19139D01*
X32510Y19127D01*
X32598Y19139D01*
X32679Y19173D01*
X32749Y19226D01*
X32803Y19297D01*
X32837Y19378D01*
X32848Y19466D01*
X32837Y19553D01*
X32803Y19635D01*
X32749Y19705D01*
X32679Y19758D01*
X32598Y19792D01*
X32510Y19804D01*
D02*
G37*
G36*
X35185Y19755D02*
X34515D01*
Y19085D01*
X35185D01*
Y19755D01*
D02*
G37*
G36*
X36830Y19400D02*
X36514D01*
X36523Y19332D01*
X36557Y19251D01*
X36611Y19181D01*
X36681Y19127D01*
X36762Y19093D01*
X36830Y19084D01*
Y19400D01*
D02*
G37*
G36*
X39850Y19758D02*
X39762Y19747D01*
X39681Y19713D01*
X39611Y19659D01*
X39557Y19589D01*
X39523Y19508D01*
X39512Y19420D01*
X39523Y19332D01*
X39557Y19251D01*
X39611Y19181D01*
X39681Y19127D01*
X39762Y19093D01*
X39850Y19082D01*
X39938Y19093D01*
X40019Y19127D01*
X40089Y19181D01*
X40143Y19251D01*
X40177Y19332D01*
X40188Y19420D01*
X40177Y19508D01*
X40143Y19589D01*
X40089Y19659D01*
X40019Y19713D01*
X39938Y19747D01*
X39850Y19758D01*
D02*
G37*
G36*
X37850D02*
X37762Y19747D01*
X37681Y19713D01*
X37611Y19659D01*
X37557Y19589D01*
X37523Y19508D01*
X37512Y19420D01*
X37523Y19332D01*
X37557Y19251D01*
X37611Y19181D01*
X37681Y19127D01*
X37762Y19093D01*
X37850Y19082D01*
X37938Y19093D01*
X38019Y19127D01*
X38089Y19181D01*
X38143Y19251D01*
X38177Y19332D01*
X38188Y19420D01*
X38177Y19508D01*
X38143Y19589D01*
X38089Y19659D01*
X38019Y19713D01*
X37938Y19747D01*
X37850Y19758D01*
D02*
G37*
G36*
X35850D02*
X35762Y19747D01*
X35681Y19713D01*
X35611Y19659D01*
X35557Y19589D01*
X35523Y19508D01*
X35512Y19420D01*
X35523Y19332D01*
X35557Y19251D01*
X35611Y19181D01*
X35681Y19127D01*
X35762Y19093D01*
X35850Y19082D01*
X35938Y19093D01*
X36019Y19127D01*
X36089Y19181D01*
X36143Y19251D01*
X36177Y19332D01*
X36188Y19420D01*
X36177Y19508D01*
X36143Y19589D01*
X36089Y19659D01*
X36019Y19713D01*
X35938Y19747D01*
X35850Y19758D01*
D02*
G37*
G36*
X25500Y19471D02*
X25446Y19461D01*
X25400Y19430D01*
X25369Y19384D01*
X25359Y19330D01*
X25369Y19276D01*
X25400Y19230D01*
X25408Y19225D01*
Y18854D01*
X25358Y18828D01*
X25354Y18831D01*
X25300Y18841D01*
X25246Y18831D01*
X25200Y18800D01*
X25169Y18754D01*
X25159Y18700D01*
X25169Y18646D01*
X25200Y18600D01*
X25212Y18592D01*
Y18290D01*
X25127D01*
Y17994D01*
Y17698D01*
X27055D01*
Y17994D01*
Y18290D01*
X26971D01*
Y18734D01*
X26980Y18740D01*
X27011Y18786D01*
X27021Y18840D01*
X27011Y18894D01*
X26980Y18940D01*
X26934Y18971D01*
X26880Y18981D01*
X26860Y18977D01*
X26817Y19020D01*
X26821Y19040D01*
X26811Y19094D01*
X26780Y19140D01*
X26734Y19171D01*
X26680Y19181D01*
X26626Y19171D01*
X26580Y19140D01*
X26549Y19094D01*
X26539Y19040D01*
X26542Y19022D01*
X26500Y18979D01*
X26490Y18981D01*
X26436Y18971D01*
X26406Y19011D01*
X26380Y19050D01*
X26334Y19081D01*
X26280Y19091D01*
X26247Y19085D01*
X26231Y19100D01*
X26221Y19154D01*
X26190Y19200D01*
X26144Y19231D01*
X26090Y19241D01*
X26036Y19231D01*
X25990Y19200D01*
X25959Y19154D01*
X25949Y19100D01*
X25912Y19067D01*
X25874D01*
X25839Y19107D01*
X25840Y19108D01*
X25829Y19162D01*
X25798Y19208D01*
X25752Y19239D01*
X25698Y19250D01*
X25669Y19244D01*
X25655Y19256D01*
X25633Y19287D01*
X25641Y19330D01*
X25631Y19384D01*
X25600Y19430D01*
X25554Y19461D01*
X25500Y19471D01*
D02*
G37*
G36*
X42656Y17190D02*
X42275D01*
Y16945D01*
X42656D01*
Y17190D01*
D02*
G37*
G36*
X42235D02*
X41855D01*
Y16945D01*
X42235D01*
Y17190D01*
D02*
G37*
G36*
X47380Y17017D02*
X46704D01*
Y16859D01*
X47380D01*
Y17017D01*
D02*
G37*
G36*
X46664D02*
X45989D01*
Y16859D01*
X46664D01*
Y17017D01*
D02*
G37*
G36*
X31564Y17188D02*
X31190D01*
Y16734D01*
X31564D01*
Y17188D01*
D02*
G37*
G36*
X24359D02*
X23985D01*
Y16734D01*
X24359D01*
Y17188D01*
D02*
G37*
G36*
X31150D02*
X30775D01*
Y16734D01*
X31150D01*
Y17188D01*
D02*
G37*
G36*
X23945D02*
X23571D01*
Y16734D01*
X23945D01*
Y17188D01*
D02*
G37*
G36*
X47380Y16819D02*
X46704D01*
Y16661D01*
X47380D01*
Y16819D01*
D02*
G37*
G36*
X46664D02*
X45989D01*
Y16661D01*
X46664D01*
Y16819D01*
D02*
G37*
G36*
X42656Y16905D02*
X42275D01*
Y16661D01*
X42656D01*
Y16905D01*
D02*
G37*
G36*
X42235D02*
X41855D01*
Y16661D01*
X42235D01*
Y16905D01*
D02*
G37*
G36*
X35607Y16752D02*
X35410D01*
Y16574D01*
X35607D01*
Y16752D01*
D02*
G37*
G36*
X35370D02*
X35173D01*
Y16574D01*
X35370D01*
Y16752D01*
D02*
G37*
G36*
X33080Y17053D02*
Y16540D01*
X33448D01*
Y16668D01*
X33435Y16768D01*
X33396Y16862D01*
X33334Y16942D01*
X33254Y17003D01*
X33160Y17042D01*
X33080Y17053D01*
D02*
G37*
G36*
X33040D02*
X32960Y17042D01*
X32866Y17003D01*
X32786Y16942D01*
X32724Y16862D01*
X32685Y16768D01*
X32672Y16668D01*
Y16540D01*
X33040D01*
Y17053D01*
D02*
G37*
G36*
X35607Y16534D02*
X35410D01*
Y16357D01*
X35607D01*
Y16534D01*
D02*
G37*
G36*
X35370D02*
X35173D01*
Y16357D01*
X35370D01*
Y16534D01*
D02*
G37*
G36*
X31564Y16694D02*
X31190D01*
Y16241D01*
X31564D01*
Y16694D01*
D02*
G37*
G36*
X31150D02*
X30775D01*
Y16241D01*
X31150D01*
Y16694D01*
D02*
G37*
G36*
X24359D02*
X23985D01*
Y16241D01*
X24359D01*
Y16694D01*
D02*
G37*
G36*
X23945D02*
X23571D01*
Y16241D01*
X23945D01*
Y16694D01*
D02*
G37*
G36*
X33448Y16500D02*
X33080D01*
Y15987D01*
X33160Y15998D01*
X33254Y16037D01*
X33334Y16098D01*
X33396Y16178D01*
X33435Y16272D01*
X33448Y16372D01*
Y16500D01*
D02*
G37*
G36*
X33040D02*
X32672D01*
Y16372D01*
X32685Y16272D01*
X32724Y16178D01*
X32786Y16098D01*
X32866Y16037D01*
X32960Y15998D01*
X33040Y15987D01*
Y16500D01*
D02*
G37*
G36*
X34060Y17055D02*
X33960Y17042D01*
X33866Y17003D01*
X33786Y16942D01*
X33724Y16862D01*
X33685Y16768D01*
X33672Y16668D01*
Y16372D01*
X33685Y16272D01*
X33724Y16178D01*
X33786Y16098D01*
X33866Y16037D01*
X33960Y15998D01*
X34060Y15985D01*
X34160Y15998D01*
X34254Y16037D01*
X34334Y16098D01*
X34396Y16178D01*
X34435Y16272D01*
X34448Y16372D01*
Y16668D01*
X34435Y16768D01*
X34396Y16862D01*
X34334Y16942D01*
X34254Y17003D01*
X34160Y17042D01*
X34060Y17055D01*
D02*
G37*
G36*
X40366Y16338D02*
X39893D01*
Y15964D01*
X40366D01*
Y16338D01*
D02*
G37*
G36*
X36960D02*
X36487D01*
Y15964D01*
X36960D01*
Y16338D01*
D02*
G37*
G36*
X39853D02*
X39380D01*
Y15964D01*
X39853D01*
Y16338D01*
D02*
G37*
G36*
X36447D02*
X35974D01*
Y15964D01*
X36447D01*
Y16338D01*
D02*
G37*
G36*
X47380Y17965D02*
X46934D01*
Y17531D01*
X47380D01*
Y17648D01*
X47532D01*
X47588Y17592D01*
Y15928D01*
X47512Y15852D01*
X47378D01*
Y16000D01*
X47085D01*
X47077Y16003D01*
X46978D01*
X46960Y15996D01*
X46908Y15991D01*
X46877Y16003D01*
X46578D01*
X46570Y16000D01*
X46302D01*
Y15927D01*
X46097D01*
Y16033D01*
X45972D01*
Y16230D01*
X45965Y16265D01*
X45945Y16295D01*
X45840Y16400D01*
X45810Y16420D01*
X45775Y16427D01*
X45725D01*
X45710Y16450D01*
X45664Y16481D01*
X45610Y16491D01*
X45556Y16481D01*
X45510Y16450D01*
X45479Y16404D01*
X45469Y16350D01*
X45479Y16296D01*
X45510Y16250D01*
X45556Y16219D01*
X45610Y16209D01*
X45664Y16219D01*
X45700Y16243D01*
X45737D01*
X45788Y16192D01*
Y16033D01*
X45663D01*
Y15638D01*
X46097D01*
Y15744D01*
X46302D01*
Y15520D01*
X46570D01*
X46578Y15517D01*
X46877D01*
X46908Y15529D01*
X46960Y15524D01*
X46978Y15517D01*
X47077D01*
X47085Y15520D01*
X47378D01*
Y15668D01*
X47550D01*
X47585Y15675D01*
X47615Y15695D01*
X47745Y15825D01*
X47765Y15855D01*
X47772Y15890D01*
Y17630D01*
X47765Y17665D01*
X47745Y17695D01*
X47635Y17805D01*
X47605Y17825D01*
X47570Y17832D01*
X47380D01*
Y17965D01*
D02*
G37*
G36*
X40979Y19481D02*
X40925Y19471D01*
X40879Y19440D01*
X40848Y19394D01*
X40837Y19340D01*
X40848Y19286D01*
X40879Y19240D01*
X40925Y19209D01*
X40979Y19199D01*
X40988Y19201D01*
X41371Y18818D01*
X41400Y18798D01*
X41436Y18791D01*
X41993D01*
Y18708D01*
X42506D01*
Y18794D01*
X43196D01*
X43678Y18312D01*
Y16033D01*
X43553D01*
Y15638D01*
X43987D01*
Y16033D01*
X43862D01*
Y18350D01*
X43855Y18385D01*
X43835Y18415D01*
X43299Y18951D01*
X43269Y18971D01*
X43234Y18978D01*
X42506D01*
Y19064D01*
X41993D01*
Y18975D01*
X41474D01*
X41118Y19330D01*
X41120Y19340D01*
X41109Y19394D01*
X41079Y19440D01*
X41033Y19471D01*
X40979Y19481D01*
D02*
G37*
G36*
X40800Y19011D02*
X40746Y19001D01*
X40700Y18970D01*
X40669Y18924D01*
X40659Y18870D01*
X40669Y18816D01*
X40700Y18770D01*
X40746Y18739D01*
X40800Y18729D01*
X40810Y18731D01*
X41152Y18388D01*
X41182Y18368D01*
X41217Y18361D01*
X41993D01*
Y18275D01*
X42506D01*
Y18361D01*
X42899D01*
X43158Y18102D01*
Y16033D01*
X43033D01*
Y15638D01*
X43467D01*
Y16033D01*
X43342D01*
Y18140D01*
X43335Y18175D01*
X43315Y18205D01*
X43002Y18518D01*
X42972Y18538D01*
X42937Y18545D01*
X42506D01*
Y18631D01*
X41993D01*
Y18545D01*
X41255D01*
X40939Y18860D01*
X40941Y18870D01*
X40931Y18924D01*
X40900Y18970D01*
X40854Y19001D01*
X40800Y19011D01*
D02*
G37*
G36*
X40366Y15924D02*
X39893D01*
Y15550D01*
X40366D01*
Y15924D01*
D02*
G37*
G36*
X39853D02*
X39380D01*
Y15550D01*
X39853D01*
Y15924D01*
D02*
G37*
G36*
X36960D02*
X36487D01*
Y15550D01*
X36960D01*
Y15924D01*
D02*
G37*
G36*
X36447D02*
X35974D01*
Y15550D01*
X36447D01*
Y15924D01*
D02*
G37*
G36*
X45540Y15486D02*
X45105D01*
Y15091D01*
X45205D01*
Y15011D01*
X45121Y14927D01*
X44946D01*
X44927Y14950D01*
Y15087D01*
X45027D01*
Y15482D01*
X44593D01*
Y15087D01*
X44693D01*
Y14999D01*
X44621Y14927D01*
X44407D01*
Y15087D01*
X44507D01*
Y15482D01*
X44073D01*
Y15087D01*
X44173D01*
Y14969D01*
X44131Y14927D01*
X43887D01*
Y15087D01*
X43987D01*
Y15482D01*
X43553D01*
Y15087D01*
X43653D01*
Y14969D01*
X43611Y14927D01*
X43367D01*
Y15087D01*
X43467D01*
Y15482D01*
X43033D01*
Y15087D01*
X43133D01*
Y14969D01*
X43091Y14927D01*
X35494D01*
X35474Y14941D01*
X35420Y14951D01*
X35366Y14941D01*
X35320Y14910D01*
X35289Y14864D01*
X35279Y14810D01*
X35289Y14756D01*
X35320Y14710D01*
X35366Y14679D01*
X35420Y14669D01*
X35474Y14679D01*
X35494Y14693D01*
X45690D01*
X45735Y14702D01*
X45773Y14727D01*
X45953Y14907D01*
X45978Y14945D01*
X45987Y14990D01*
Y15087D01*
X46097D01*
Y15482D01*
X45663D01*
Y15087D01*
X45749D01*
X45751Y15037D01*
X45641Y14927D01*
X45469D01*
X45440Y14963D01*
Y15091D01*
X45540D01*
Y15486D01*
D02*
G37*
G36*
X47100Y15059D02*
Y14250D01*
X47909D01*
X47895Y14392D01*
X47848Y14548D01*
X47771Y14692D01*
X47668Y14818D01*
X47542Y14921D01*
X47398Y14998D01*
X47242Y15045D01*
X47100Y15059D01*
D02*
G37*
G36*
X47060D02*
X46918Y15045D01*
X46762Y14998D01*
X46618Y14921D01*
X46492Y14818D01*
X46389Y14692D01*
X46312Y14548D01*
X46265Y14392D01*
X46251Y14250D01*
X47060D01*
Y15059D01*
D02*
G37*
G36*
X47909Y14210D02*
X47100D01*
Y13401D01*
X47242Y13415D01*
X47398Y13462D01*
X47542Y13539D01*
X47668Y13642D01*
X47771Y13768D01*
X47848Y13912D01*
X47895Y14068D01*
X47909Y14210D01*
D02*
G37*
G36*
X47060D02*
X46251D01*
X46265Y14068D01*
X46312Y13912D01*
X46389Y13768D01*
X46492Y13642D01*
X46618Y13539D01*
X46762Y13462D01*
X46918Y13415D01*
X47060Y13401D01*
Y14210D01*
D02*
G37*
%LPD*%
G36*
X29277Y40293D02*
X29253Y40247D01*
X29230Y40251D01*
X29176Y40241D01*
X29130Y40210D01*
X29099Y40164D01*
X29089Y40110D01*
X29099Y40056D01*
X29107Y40045D01*
X29107Y40033D01*
X29089Y39982D01*
X29076Y39973D01*
X29043Y39941D01*
X28727D01*
Y40046D01*
X28293D01*
Y39941D01*
X28205D01*
Y40056D01*
X27900D01*
X27794Y40163D01*
X27811Y40211D01*
X27812Y40213D01*
X28205D01*
Y40478D01*
X28247Y40520D01*
X28293Y40501D01*
Y40420D01*
X28510D01*
X28727D01*
Y40597D01*
X28773Y40608D01*
X28962D01*
X29277Y40293D01*
D02*
G37*
G36*
X27248Y39651D02*
X27327D01*
X27335Y39643D01*
X27360Y39600D01*
X27329Y39554D01*
X27319Y39500D01*
X27329Y39446D01*
X27360Y39400D01*
X27394Y39377D01*
X27380Y39327D01*
X27295D01*
Y38933D01*
X27730D01*
Y39198D01*
X27818Y39286D01*
X27868Y39265D01*
Y38939D01*
X28302D01*
Y39005D01*
X28390D01*
Y38899D01*
X28825D01*
Y39005D01*
X28931D01*
X28967Y39012D01*
X28996Y39032D01*
X29055Y39091D01*
X29075Y39120D01*
X29082Y39156D01*
Y39272D01*
X29233Y39423D01*
X29305D01*
X29307Y39420D01*
X29323Y39373D01*
X29255Y39305D01*
X29235Y39275D01*
X29228Y39240D01*
Y38190D01*
X29103D01*
Y37840D01*
X29053Y37823D01*
X28981Y37895D01*
X28952Y37915D01*
X28916Y37922D01*
X28520D01*
X28515Y37929D01*
X28515Y37939D01*
X28531Y37991D01*
X28560Y38010D01*
X28591Y38056D01*
X28601Y38110D01*
X28599Y38120D01*
X28672Y38193D01*
X28692Y38222D01*
X28699Y38257D01*
Y38348D01*
X28825D01*
Y38743D01*
X28390D01*
Y38348D01*
X28516D01*
Y38295D01*
X28470Y38249D01*
X28460Y38251D01*
X28406Y38241D01*
X28360Y38210D01*
X28329Y38164D01*
X28326Y38145D01*
X28271Y38128D01*
X28244Y38155D01*
X28215Y38175D01*
X28179Y38182D01*
X28164D01*
Y38388D01*
X28302D01*
Y38783D01*
X27868D01*
Y38388D01*
X27981D01*
Y38152D01*
X27082D01*
Y38383D01*
X27207D01*
Y38777D01*
X26773D01*
Y38383D01*
X26898D01*
Y38108D01*
X26468Y37678D01*
X26293D01*
Y37924D01*
X26302Y37932D01*
X26370Y37921D01*
X26370Y37920D01*
X26416Y37889D01*
X26470Y37879D01*
X26524Y37889D01*
X26570Y37920D01*
X26601Y37966D01*
X26611Y38020D01*
X26601Y38074D01*
X26570Y38120D01*
X26562Y38125D01*
Y38381D01*
X26684D01*
Y38776D01*
X26250D01*
Y38381D01*
X26378D01*
Y38125D01*
X26370Y38120D01*
X26339Y38074D01*
X26339Y38070D01*
X26293Y38060D01*
X26286Y38060D01*
X26187D01*
Y39878D01*
X26307Y39997D01*
X26327Y39986D01*
X26348Y39967D01*
X26339Y39921D01*
X26349Y39867D01*
X26380Y39822D01*
X26388Y39816D01*
Y39327D01*
X26250D01*
Y38933D01*
X26684D01*
Y39327D01*
X26572D01*
Y39518D01*
X26842D01*
X26898Y39462D01*
Y39329D01*
X26773D01*
Y38934D01*
X27207D01*
Y39329D01*
X27082D01*
Y39500D01*
X27075Y39535D01*
X27055Y39565D01*
X26945Y39675D01*
X26915Y39695D01*
X26880Y39702D01*
X26572D01*
Y39816D01*
X26580Y39822D01*
X26611Y39867D01*
X26621Y39921D01*
X26612Y39968D01*
X26629Y40010D01*
X26633Y40018D01*
X27248D01*
Y39651D01*
D02*
G37*
G36*
X31780Y37880D02*
X31580Y38080D01*
X31380Y37880D01*
Y38180D01*
X31780D01*
Y37880D01*
D02*
G37*
G36*
Y37780D02*
Y37680D01*
X31380D01*
Y37780D01*
X31580Y37980D01*
X31780Y37780D01*
D02*
G37*
%LPC*%
G36*
X28727Y40380D02*
X28530D01*
Y40203D01*
X28727D01*
Y40380D01*
D02*
G37*
G36*
X28490D02*
X28293D01*
Y40203D01*
X28490D01*
Y40380D01*
D02*
G37*
G36*
X27730Y38776D02*
X27532D01*
Y38599D01*
X27730D01*
Y38776D01*
D02*
G37*
G36*
X27492D02*
X27295D01*
Y38599D01*
X27492D01*
Y38776D01*
D02*
G37*
G36*
X27730Y38559D02*
X27532D01*
Y38381D01*
X27730D01*
Y38559D01*
D02*
G37*
G36*
X27492D02*
X27295D01*
Y38381D01*
X27492D01*
Y38559D01*
D02*
G37*
%LPD*%
G36*
X38010Y25903D02*
X37810Y26102D01*
X37610Y25903D01*
Y26202D01*
X38010D01*
Y25903D01*
D02*
G37*
G36*
Y25803D02*
Y25703D01*
X37610D01*
Y25803D01*
X37810Y26003D01*
X38010Y25803D01*
D02*
G37*
G36*
X31536Y24291D02*
Y24091D01*
X31236D01*
X31436Y24291D01*
X31236Y24491D01*
X31536D01*
Y24291D01*
D02*
G37*
G36*
X38110Y22478D02*
X37910Y22278D01*
X37710Y22478D01*
Y22578D01*
X38110D01*
Y22478D01*
D02*
G37*
G36*
X37440D02*
X37240Y22278D01*
X37040Y22478D01*
Y22578D01*
X37440D01*
Y22478D01*
D02*
G37*
G36*
X38110Y22078D02*
X37710D01*
Y22378D01*
X37910Y22178D01*
X38110Y22378D01*
Y22078D01*
D02*
G37*
G36*
X37440D02*
X37040D01*
Y22378D01*
X37240Y22178D01*
X37440Y22378D01*
Y22078D01*
D02*
G37*
G36*
X33560Y21278D02*
X33360Y21478D01*
X33160Y21278D01*
Y21578D01*
X33560D01*
Y21278D01*
D02*
G37*
G36*
X32810Y21266D02*
X32610Y21466D01*
X32410Y21266D01*
Y21566D01*
X32810D01*
Y21266D01*
D02*
G37*
G36*
X34310Y21428D02*
X34110Y21228D01*
X33910Y21428D01*
Y21528D01*
X34310D01*
Y21428D01*
D02*
G37*
G36*
Y21028D02*
X33910D01*
Y21328D01*
X34110Y21128D01*
X34310Y21328D01*
Y21028D01*
D02*
G37*
G36*
X33560Y21178D02*
Y21078D01*
X33160D01*
Y21178D01*
X33360Y21378D01*
X33560Y21178D01*
D02*
G37*
G36*
X32810Y21166D02*
Y21066D01*
X32410D01*
Y21166D01*
X32610Y21366D01*
X32810Y21166D01*
D02*
G37*
G36*
X43546Y26716D02*
X44098D01*
Y26768D01*
X44250D01*
X44434Y26585D01*
X44463Y26565D01*
X44498Y26558D01*
X45092D01*
X45117Y26508D01*
X45109Y26498D01*
X44487D01*
X44451Y26491D01*
X44422Y26471D01*
X44168Y26218D01*
X44098D01*
Y26284D01*
X43546D01*
Y26218D01*
X43114D01*
Y26284D01*
X42562D01*
Y26215D01*
X42440D01*
X42430Y26230D01*
X42384Y26261D01*
X42330Y26271D01*
X42329Y26271D01*
X42274Y26311D01*
X42272Y26323D01*
X42358Y26408D01*
X42562D01*
Y26342D01*
X43114D01*
Y26658D01*
X42562D01*
Y26592D01*
X42464D01*
X42438Y26642D01*
X42441Y26646D01*
X42449Y26687D01*
X42512Y26750D01*
X42562Y26729D01*
Y26716D01*
X43114D01*
Y26782D01*
X43546D01*
Y26716D01*
D02*
G37*
%LPC*%
G36*
X44098Y26658D02*
X43842D01*
Y26520D01*
X44098D01*
Y26658D01*
D02*
G37*
G36*
X43802D02*
X43546D01*
Y26520D01*
X43802D01*
Y26658D01*
D02*
G37*
G36*
X44098Y26480D02*
X43842D01*
Y26342D01*
X44098D01*
Y26480D01*
D02*
G37*
G36*
X43802D02*
X43546D01*
Y26342D01*
X43802D01*
Y26480D01*
D02*
G37*
%LPD*%
G36*
X41220Y23445D02*
X41020Y23645D01*
X40820Y23445D01*
Y23745D01*
X41220D01*
Y23445D01*
D02*
G37*
G36*
Y23345D02*
Y23245D01*
X40820D01*
Y23345D01*
X41020Y23545D01*
X41220Y23345D01*
D02*
G37*
G36*
X47077Y15560D02*
X46978D01*
X46778Y15760D01*
X46978Y15960D01*
X47077D01*
Y15560D01*
D02*
G37*
G36*
X46677Y15760D02*
X46877Y15560D01*
X46578D01*
Y15760D01*
Y15960D01*
X46877D01*
X46677Y15760D01*
D02*
G37*
D14*
X30360Y41590D02*
D03*
Y42141D02*
D03*
X31170Y41380D02*
D03*
Y41931D02*
D03*
X31740Y41936D02*
D03*
Y41384D02*
D03*
X27620Y41969D02*
D03*
Y42520D02*
D03*
X27465Y39849D02*
D03*
Y40400D02*
D03*
X27987Y39859D02*
D03*
Y40410D02*
D03*
X28510Y40400D02*
D03*
Y39849D02*
D03*
X28607Y38546D02*
D03*
Y39097D02*
D03*
X28085Y38586D02*
D03*
Y39137D02*
D03*
X27512Y38579D02*
D03*
Y39130D02*
D03*
X26990Y38580D02*
D03*
Y39131D02*
D03*
X26467Y38579D02*
D03*
Y39130D02*
D03*
X29320Y37441D02*
D03*
Y37993D02*
D03*
X29843Y37441D02*
D03*
Y37993D02*
D03*
X30390Y37441D02*
D03*
Y37993D02*
D03*
X30913Y37441D02*
D03*
Y37993D02*
D03*
X32197Y37639D02*
D03*
Y38190D02*
D03*
X32710Y38196D02*
D03*
Y37644D02*
D03*
X33240Y37649D02*
D03*
Y38200D02*
D03*
X33760Y37644D02*
D03*
Y38196D02*
D03*
X34280Y37644D02*
D03*
Y38196D02*
D03*
X36340Y37976D02*
D03*
Y37424D02*
D03*
X36923Y37976D02*
D03*
Y37424D02*
D03*
X37495Y37986D02*
D03*
Y37434D02*
D03*
X38068Y37976D02*
D03*
Y37424D02*
D03*
X39370Y37881D02*
D03*
Y37330D02*
D03*
X39987Y34539D02*
D03*
Y35090D02*
D03*
X40540Y34544D02*
D03*
Y35096D02*
D03*
X42210Y27591D02*
D03*
Y27040D02*
D03*
X41687Y24442D02*
D03*
Y23891D02*
D03*
X38787Y23816D02*
D03*
Y23264D02*
D03*
X39360Y23264D02*
D03*
Y23816D02*
D03*
X27740Y27470D02*
D03*
Y26919D02*
D03*
X28290Y27456D02*
D03*
Y26904D02*
D03*
X27200Y26904D02*
D03*
Y27456D02*
D03*
X26610Y26924D02*
D03*
Y27476D02*
D03*
X31910Y21590D02*
D03*
Y21039D02*
D03*
X34860Y20440D02*
D03*
Y20991D02*
D03*
X35810D02*
D03*
Y20440D02*
D03*
X37880Y20429D02*
D03*
Y20980D02*
D03*
X38850Y20454D02*
D03*
Y21006D02*
D03*
X35390Y17106D02*
D03*
Y16554D02*
D03*
X35932Y27091D02*
D03*
Y26540D02*
D03*
X35359Y26514D02*
D03*
Y27066D02*
D03*
X32210Y25966D02*
D03*
Y26517D02*
D03*
X34786Y26514D02*
D03*
Y27066D02*
D03*
X34214Y26514D02*
D03*
Y27066D02*
D03*
X31610Y26523D02*
D03*
Y25972D02*
D03*
X31610Y24887D02*
D03*
Y25439D02*
D03*
X31010Y24887D02*
D03*
Y25439D02*
D03*
X37100Y25906D02*
D03*
Y25354D02*
D03*
X37179Y23219D02*
D03*
Y23770D02*
D03*
X40130Y27039D02*
D03*
Y27590D02*
D03*
X44210Y28066D02*
D03*
Y27514D02*
D03*
X38377Y32524D02*
D03*
Y33076D02*
D03*
X38910Y32524D02*
D03*
Y33076D02*
D03*
X43770Y15284D02*
D03*
Y15836D02*
D03*
X44290Y15284D02*
D03*
Y15836D02*
D03*
X45880Y15836D02*
D03*
Y15284D02*
D03*
X44810Y15284D02*
D03*
Y15836D02*
D03*
X45323Y15289D02*
D03*
Y15840D02*
D03*
X43250Y15284D02*
D03*
Y15836D02*
D03*
D15*
X31642Y43406D02*
D03*
Y43780D02*
D03*
Y44154D02*
D03*
X30658D02*
D03*
Y43780D02*
D03*
Y43406D02*
D03*
X43822Y26126D02*
D03*
Y26500D02*
D03*
Y26874D02*
D03*
X42838D02*
D03*
Y26500D02*
D03*
Y26126D02*
D03*
X39813Y32216D02*
D03*
Y32590D02*
D03*
Y32964D02*
D03*
X40798D02*
D03*
Y32590D02*
D03*
Y32216D02*
D03*
D16*
X29565Y44330D02*
D03*
X29015D02*
D03*
D17*
X28593Y41901D02*
D03*
X29420D02*
D03*
Y42570D02*
D03*
X28593D02*
D03*
D18*
X25780Y44066D02*
D03*
Y42374D02*
D03*
D19*
X27219Y41433D02*
D03*
X27770D02*
D03*
X26096Y37330D02*
D03*
X25544D02*
D03*
X38834Y43730D02*
D03*
X39386D02*
D03*
X39389Y44253D02*
D03*
X38838D02*
D03*
X41584Y25247D02*
D03*
X42136D02*
D03*
X42734Y25312D02*
D03*
X43286D02*
D03*
X41709Y23240D02*
D03*
X42260D02*
D03*
X37816Y29080D02*
D03*
X37264D02*
D03*
X37821Y28540D02*
D03*
X37270D02*
D03*
X25279Y27520D02*
D03*
X25830D02*
D03*
X40066Y20410D02*
D03*
X39514D02*
D03*
X28054Y37470D02*
D03*
X28606D02*
D03*
X32339Y43960D02*
D03*
X32890D02*
D03*
X32329Y44550D02*
D03*
X32880D02*
D03*
X29556Y43690D02*
D03*
X29004D02*
D03*
X31734Y23710D02*
D03*
X32286D02*
D03*
Y22616D02*
D03*
X31734D02*
D03*
X32286Y23188D02*
D03*
X31734D02*
D03*
X33661Y26516D02*
D03*
X33110D02*
D03*
X36484Y26540D02*
D03*
X37036D02*
D03*
X30234Y23394D02*
D03*
X30786D02*
D03*
X30454Y27500D02*
D03*
X31006D02*
D03*
X35494Y36030D02*
D03*
X36046D02*
D03*
X26096Y37843D02*
D03*
X25544D02*
D03*
X37660Y24390D02*
D03*
X38211D02*
D03*
X37683Y23817D02*
D03*
X38235D02*
D03*
X27790Y40910D02*
D03*
X27239D02*
D03*
X43344Y23240D02*
D03*
X42793D02*
D03*
X42136Y25760D02*
D03*
X41584D02*
D03*
X36211Y21709D02*
D03*
X35660D02*
D03*
X38080Y36850D02*
D03*
X37529D02*
D03*
X38584Y33625D02*
D03*
X39136D02*
D03*
D20*
X31580Y37580D02*
D03*
Y38255D02*
D03*
X38709Y37925D02*
D03*
Y37250D02*
D03*
X37240Y22678D02*
D03*
Y22002D02*
D03*
X37910Y22678D02*
D03*
Y22002D02*
D03*
X37810Y25603D02*
D03*
Y26277D02*
D03*
X41020Y23145D02*
D03*
Y23820D02*
D03*
X33360Y20978D02*
D03*
Y21653D02*
D03*
X32610Y20966D02*
D03*
Y21641D02*
D03*
X34110Y21628D02*
D03*
Y20952D02*
D03*
D21*
X38255Y44960D02*
D03*
X38930D02*
D03*
X31611Y24291D02*
D03*
X30936D02*
D03*
X46502Y15760D02*
D03*
X47178D02*
D03*
D22*
X38536Y34246D02*
D03*
X39284D02*
D03*
X38910Y35034D02*
D03*
X41136Y27887D02*
D03*
X41510Y27100D02*
D03*
X40762D02*
D03*
D23*
X44085Y24645D02*
D03*
Y25235D02*
D03*
X31210Y21040D02*
D03*
Y21631D02*
D03*
D24*
X43315Y23891D02*
D03*
Y24265D02*
D03*
Y24639D02*
D03*
X42331D02*
D03*
Y23891D02*
D03*
D25*
X39873Y17716D02*
D03*
X36467D02*
D03*
Y15944D02*
D03*
X39873D02*
D03*
D26*
X45147Y44943D02*
D03*
Y38117D02*
D03*
D27*
X40895Y43727D02*
D03*
Y44227D02*
D03*
Y38833D02*
D03*
Y39333D02*
D03*
X41210Y40130D02*
D03*
Y40530D02*
D03*
Y40930D02*
D03*
Y41330D02*
D03*
Y41730D02*
D03*
Y42130D02*
D03*
Y42530D02*
D03*
Y42930D02*
D03*
D28*
X30978Y35450D02*
D03*
X30191D02*
D03*
X29403D02*
D03*
X28616D02*
D03*
X27828D02*
D03*
X27041D02*
D03*
X26254D02*
D03*
X25466D02*
D03*
Y29150D02*
D03*
X26254D02*
D03*
X27041D02*
D03*
X27828D02*
D03*
X28616D02*
D03*
X29403D02*
D03*
X30191D02*
D03*
X30978D02*
D03*
D29*
X37546Y40350D02*
D03*
Y40850D02*
D03*
Y41350D02*
D03*
Y41850D02*
D03*
Y42350D02*
D03*
Y42850D02*
D03*
Y43350D02*
D03*
Y43850D02*
D03*
X33994Y40350D02*
D03*
Y40850D02*
D03*
Y41350D02*
D03*
Y41850D02*
D03*
Y42350D02*
D03*
Y42850D02*
D03*
Y43350D02*
D03*
Y43850D02*
D03*
D30*
X36005Y27742D02*
D03*
X35415D02*
D03*
D31*
X29610Y24399D02*
D03*
Y26564D02*
D03*
D32*
X33028Y25195D02*
D03*
Y24998D02*
D03*
Y24801D02*
D03*
Y24604D02*
D03*
Y24408D02*
D03*
Y24211D02*
D03*
Y24014D02*
D03*
Y23817D02*
D03*
Y23620D02*
D03*
Y23423D02*
D03*
Y23227D02*
D03*
Y23030D02*
D03*
X36365D02*
D03*
Y23227D02*
D03*
Y23423D02*
D03*
Y23620D02*
D03*
Y23817D02*
D03*
Y24014D02*
D03*
Y24211D02*
D03*
Y24408D02*
D03*
Y24604D02*
D03*
Y24801D02*
D03*
Y24998D02*
D03*
Y25195D02*
D03*
D33*
X33614Y22444D02*
D03*
X33811D02*
D03*
X34008D02*
D03*
X34205D02*
D03*
X34401D02*
D03*
X34598D02*
D03*
X34795D02*
D03*
X34992D02*
D03*
X35189D02*
D03*
X35386D02*
D03*
X35583D02*
D03*
X35779D02*
D03*
Y25781D02*
D03*
X35583D02*
D03*
X35386D02*
D03*
X35189D02*
D03*
X34992D02*
D03*
X34795D02*
D03*
X34598D02*
D03*
X34401D02*
D03*
X34205D02*
D03*
X34008D02*
D03*
X33811D02*
D03*
X33614D02*
D03*
D34*
X42249Y18453D02*
D03*
Y18886D02*
D03*
Y19319D02*
D03*
Y19752D02*
D03*
Y20185D02*
D03*
Y20618D02*
D03*
Y21051D02*
D03*
Y21484D02*
D03*
D35*
X42255Y16925D02*
D03*
D36*
X42446Y21910D02*
D03*
D37*
X46684Y21941D02*
D03*
Y16839D02*
D03*
D38*
X47157Y17748D02*
D03*
D39*
X47186Y19427D02*
D03*
D40*
X30422Y17994D02*
D03*
X30225D02*
D03*
X30028D02*
D03*
X29831D02*
D03*
X29634D02*
D03*
X29437D02*
D03*
X29241D02*
D03*
X29044D02*
D03*
X28847D02*
D03*
X28650D02*
D03*
X28453D02*
D03*
X28256D02*
D03*
X28059D02*
D03*
X27863D02*
D03*
X27666D02*
D03*
X27469D02*
D03*
X27272D02*
D03*
X27075D02*
D03*
X26878D02*
D03*
X26681D02*
D03*
X26485D02*
D03*
X26288D02*
D03*
X26091D02*
D03*
X25894D02*
D03*
X25697D02*
D03*
X25500D02*
D03*
X25304D02*
D03*
X25107D02*
D03*
X24910D02*
D03*
X24713D02*
D03*
D41*
X31170Y16714D02*
D03*
X23965D02*
D03*
D42*
X31198Y39515D02*
D03*
Y39712D02*
D03*
Y40302D02*
D03*
Y40105D02*
D03*
Y39908D02*
D03*
Y39318D02*
D03*
X29702D02*
D03*
Y39515D02*
D03*
Y39712D02*
D03*
Y39908D02*
D03*
Y40105D02*
D03*
Y40302D02*
D03*
D43*
X30450Y39810D02*
D03*
D44*
X30942Y39062D02*
D03*
X30745D02*
D03*
X30548D02*
D03*
X30352D02*
D03*
X30155D02*
D03*
X29958D02*
D03*
Y40558D02*
D03*
X30155D02*
D03*
X30352D02*
D03*
X30548D02*
D03*
X30745D02*
D03*
X30942D02*
D03*
D45*
X45407Y26918D02*
D03*
Y27174D02*
D03*
Y26151D02*
D03*
Y26407D02*
D03*
Y26662D02*
D03*
D46*
X46460Y26190D02*
D03*
Y27135D02*
D03*
D47*
X45495Y25403D02*
D03*
Y27922D02*
D03*
D94*
X42330Y26130D02*
X42346D01*
X42366Y26150D01*
X42393Y26123D01*
X42835D02*
X42838Y26126D01*
X42325Y26715D02*
X42347D01*
X42506Y26874D02*
X42838D01*
X43330D01*
X42838Y26126D02*
X43822D01*
X42393Y26123D02*
X42835D01*
X42347Y26715D02*
X42506Y26874D01*
X43330D02*
X43822D01*
X42310Y26700D02*
X42325Y26715D01*
X34590Y37910D02*
X34730Y38050D01*
X34221Y37910D02*
X34590D01*
X34730Y38050D02*
Y40530D01*
X34410Y40850D02*
X34730Y40530D01*
X33994Y40850D02*
X34410D01*
X34879Y21850D02*
X34900D01*
X34729Y22000D02*
X34879Y21850D01*
X34541Y22000D02*
X34729D01*
X38720Y21820D02*
X38850Y21690D01*
Y21006D02*
Y21690D01*
X37260Y19129D02*
Y21983D01*
X37180Y19049D02*
X37260Y19129D01*
X29565Y44330D02*
Y44585D01*
X32669Y44817D02*
X32773Y44714D01*
X29333Y44817D02*
X32669D01*
X32773Y44657D02*
X32880Y44550D01*
X32773Y44657D02*
Y44714D01*
X29320Y44830D02*
X29565Y44585D01*
X31372Y40912D02*
X31410Y40950D01*
X30942Y40912D02*
X31372D01*
X31198Y40105D02*
X31612D01*
X32851Y41344D01*
X33360Y40870D02*
X33370Y40860D01*
X31688Y39908D02*
X32130Y40350D01*
X33040Y41344D02*
X33502D01*
X32851D02*
Y42549D01*
X33370Y40860D02*
X33984D01*
X32851Y41344D02*
X33040D01*
X32130Y40350D02*
X32600D01*
X33040Y40690D02*
Y41344D01*
X31198Y39908D02*
X31688D01*
X31994Y43406D02*
X32851Y42549D01*
X36005Y27742D02*
X36020Y27757D01*
X35968Y27706D02*
X36005Y27742D01*
X36020Y27757D02*
Y28280D01*
X36355Y28405D02*
X36370Y28420D01*
X36145Y28405D02*
X36355D01*
X36020Y28280D02*
X36145Y28405D01*
X37821Y28009D02*
X38090Y27740D01*
X37080Y27620D02*
X37260Y27800D01*
X37560Y26800D02*
X37810Y26550D01*
X36590Y27530D02*
Y28406D01*
X41520Y26580D02*
X41871D01*
X42136Y26316D01*
X41136Y27887D02*
Y29914D01*
X41070Y23864D02*
X41136Y23930D01*
Y27887D01*
X41026Y23820D02*
X41070Y23864D01*
X41020Y23820D02*
X41026D01*
X36590Y28406D02*
X37264Y29080D01*
X36543Y27030D02*
X40121D01*
X36484Y26540D02*
Y26971D01*
X36543Y27030D01*
X40130Y27039D02*
X40191Y27100D01*
X40121Y27030D02*
X40130Y27039D01*
X38400Y19070D02*
Y21512D01*
X37180Y19029D02*
Y19049D01*
X38180Y18850D02*
X38400Y19070D01*
X37570Y21270D02*
Y23290D01*
X37860Y20980D02*
X37880D01*
X37570Y21270D02*
X37860Y20980D01*
X35810Y21099D02*
Y21290D01*
X35890Y21370D02*
X36580D01*
X35810Y21290D02*
X35890Y21370D01*
X36580D02*
X36690Y21480D01*
X35810Y21099D02*
X35917D01*
X36690Y21480D02*
Y22690D01*
X38060Y21853D02*
X38400Y21512D01*
X37910Y22002D02*
X37950D01*
X38060Y21853D02*
Y21892D01*
X37950Y22002D02*
X38060Y21892D01*
X37240Y22002D02*
X37260Y21983D01*
X37570Y23290D02*
X37910Y22950D01*
X37378Y23482D02*
X37570Y23290D01*
X32286Y22276D02*
Y22616D01*
X31910Y21900D02*
X32286Y22276D01*
X31910Y21590D02*
Y21900D01*
X42249Y19319D02*
X43711D01*
X42249Y18886D02*
X43234D01*
X43770Y18350D01*
Y15836D02*
Y18350D01*
X43711Y19319D02*
X44290Y18740D01*
Y15836D02*
Y18740D01*
X40050Y20000D02*
Y20394D01*
X40066Y20410D01*
X38850Y20030D02*
Y20454D01*
X41621Y19319D02*
X42249D01*
X41170Y19770D02*
X41621Y19319D01*
X40800Y18870D02*
X41217Y18453D01*
X40979Y19340D02*
X41436Y18883D01*
X41217Y18453D02*
X42249D01*
X42937D01*
X41436Y18883D02*
X42246D01*
X42937Y18453D02*
X43250Y18140D01*
Y15836D02*
Y18140D01*
X38910Y31870D02*
Y32524D01*
Y31870D02*
X39110Y31670D01*
X30390Y36911D02*
Y37441D01*
X30360Y36881D02*
X30390Y36911D01*
X30360Y36860D02*
Y36881D01*
X26280Y18950D02*
X26288Y18942D01*
Y17994D02*
Y18942D01*
X28290Y27456D02*
Y27910D01*
X29390Y35436D02*
X29403Y35450D01*
X30950Y34260D02*
Y35422D01*
X30978Y35450D01*
X29390Y34250D02*
Y35436D01*
X27408Y28388D02*
X27828D01*
X27200Y28180D02*
X27408Y28388D01*
X26293Y26985D02*
Y27179D01*
X26279Y26970D02*
X26293Y26985D01*
Y27179D02*
X26590Y27476D01*
X29958Y38569D02*
Y39062D01*
X29920Y38531D02*
X29958Y38569D01*
X29920Y38510D02*
Y38531D01*
X28607Y38257D02*
Y38546D01*
X28460Y38110D02*
X28607Y38257D01*
X26090Y19100D02*
X26091Y19099D01*
Y17994D02*
Y19099D01*
X29319Y37440D02*
X29320Y37441D01*
X28950Y37440D02*
X29319D01*
X25894Y17994D02*
X25894Y17994D01*
X25894Y17994D02*
Y18913D01*
X25893Y18913D02*
X25894Y18913D01*
X25698Y17995D02*
Y19108D01*
X25698Y19108D01*
X25697Y17994D02*
X25698Y17995D01*
X25500Y17994D02*
Y19330D01*
X28072Y38091D02*
X28179D01*
X28916Y37830D02*
X29026Y37720D01*
X28179Y38091D02*
X28440Y37830D01*
X28916D01*
X27460Y39844D02*
X27465Y39849D01*
X27460Y39500D02*
Y39844D01*
X25500Y17994D02*
X25500Y17994D01*
X25500Y19330D02*
X25500Y19330D01*
X26467Y38579D02*
X26470Y38576D01*
Y38020D02*
Y38576D01*
X25300Y18700D02*
X25304Y18696D01*
Y17994D02*
Y18696D01*
X32286Y23690D02*
Y23710D01*
X31911Y23315D02*
X32286Y23690D01*
X31842Y23315D02*
X31911D01*
X31734Y23208D02*
X31842Y23315D01*
X31734Y23188D02*
Y23208D01*
X31309Y23247D02*
Y23421D01*
X31367Y23188D02*
X31734D01*
X31309Y23247D02*
X31367Y23188D01*
X31300Y23430D02*
X31309Y23421D01*
X36240Y22020D02*
X36500Y22280D01*
X35779Y22079D02*
Y22444D01*
Y22079D02*
X35838Y22020D01*
X36240D01*
X36204Y21717D02*
Y22020D01*
Y21717D02*
X36211Y21709D01*
X37100Y25906D02*
X37120D01*
X37375Y26161D01*
Y26235D01*
X37390Y26250D01*
X36319Y25810D02*
X36340D01*
X35779Y25781D02*
X36290D01*
X36319Y25810D01*
X41070Y23864D02*
X41660D01*
X41064D02*
X41070D01*
X31840Y39515D02*
X32162Y39837D01*
Y39840D02*
X32177Y39855D01*
X32180D02*
X32273Y39949D01*
X32162Y39837D02*
Y39840D01*
X31198Y39515D02*
X31840D01*
X31198Y39712D02*
X31758D01*
X32177Y39855D02*
X32180D01*
X32273Y39949D02*
Y39953D01*
X32710Y38196D02*
Y39070D01*
X32330Y39450D02*
X32710Y39070D01*
X31758Y39712D02*
X32003Y39957D01*
X33240Y38200D02*
Y38960D01*
X32260Y39940D02*
X33240Y38960D01*
X33030Y40680D02*
X33040Y40690D01*
X33760Y38196D02*
Y39369D01*
X33610Y39519D02*
X33760Y39369D01*
X33610Y39519D02*
Y39540D01*
X34280Y37644D02*
X34280Y37644D01*
X34221Y37910D02*
X34280Y37851D01*
X33701Y37910D02*
X34221D01*
X34280Y37644D02*
Y37851D01*
X32600Y40350D02*
X33986D01*
X33990Y40346D02*
X33994Y40350D01*
X33986D02*
X33990Y40346D01*
X33970Y40326D02*
X33990Y40346D01*
X33970Y39690D02*
Y40326D01*
X34280Y38196D02*
Y39380D01*
X33970Y39690D02*
X34280Y39380D01*
X24410Y35330D02*
X25466Y36386D01*
X24410Y22910D02*
Y35330D01*
X36046Y36030D02*
Y36534D01*
X35950Y36629D02*
X36046Y36534D01*
X35950Y36629D02*
Y36650D01*
X31300Y37070D02*
Y37074D01*
X30932Y37441D02*
X31300Y37074D01*
X30913Y37441D02*
X30932D01*
X26070Y37304D02*
X26096Y37330D01*
X26070Y36990D02*
Y37304D01*
X25466Y36386D02*
X26070Y36990D01*
X25466Y35450D02*
Y36386D01*
X28915Y44230D02*
X29015Y44330D01*
X26096Y41458D02*
X28868Y44230D01*
X28915D01*
X26096Y39916D02*
Y41458D01*
X26290Y40110D02*
X27717D01*
X26480Y39640D02*
Y39921D01*
X27717Y40110D02*
X27968Y39859D01*
X26096Y39916D02*
X26290Y40110D01*
X27968Y39859D02*
X27987D01*
X26096Y37843D02*
Y39916D01*
X29820Y37720D02*
X30614D01*
X29026D02*
X29820D01*
X29843Y37441D02*
Y37698D01*
X29820Y37720D02*
X29843Y37698D01*
X30893Y37441D02*
X30913D01*
X30614Y37720D02*
X30893Y37441D01*
X31580Y36650D02*
Y37580D01*
X30978Y35450D02*
Y36308D01*
X31303Y36633D01*
X31563D01*
X26160Y27490D02*
X26254Y27584D01*
X25860Y27490D02*
X26160D01*
X26254Y27584D02*
Y29150D01*
X26590Y27476D02*
X26610D01*
X24710Y17997D02*
Y20980D01*
Y17997D02*
X24713Y17994D01*
X24910Y19140D02*
X24910Y19140D01*
X29634Y17144D02*
Y17994D01*
X29440Y16950D02*
X29634Y17144D01*
X26485Y17994D02*
X26487Y17997D01*
Y18837D01*
X26490Y18840D01*
X24910Y17994D02*
Y19140D01*
X27740Y26919D02*
X27750Y26909D01*
Y25630D02*
Y26909D01*
X24910Y17994D02*
X24910Y17994D01*
X28290Y26904D02*
X28290Y26904D01*
Y25670D02*
Y26904D01*
X28606Y37034D02*
X29403Y36237D01*
X28606Y37034D02*
Y37470D01*
X29403Y35450D02*
Y36237D01*
X30155Y38228D02*
Y39062D01*
Y38228D02*
X30263Y38120D01*
Y38100D02*
Y38120D01*
Y38100D02*
X30370Y37993D01*
X25830Y27520D02*
X25860Y27490D01*
X30547Y39060D02*
X30548Y39062D01*
X30547Y38622D02*
Y39060D01*
X30545Y38620D02*
X30547Y38622D01*
X30653Y43785D02*
X30658Y43780D01*
X30295Y43785D02*
X30653D01*
X30220Y43860D02*
X30295Y43785D01*
X29700Y40108D02*
X29702Y40105D01*
X29230Y40110D02*
X29232Y40108D01*
X29700D01*
X30745Y38516D02*
Y39062D01*
X30730Y38501D02*
X30745Y38516D01*
X30730Y38480D02*
Y38501D01*
X30947Y38473D02*
Y39057D01*
Y38473D02*
X30966Y38455D01*
X30942Y39062D02*
X30947Y39057D01*
X26681Y17995D02*
X26681Y17994D01*
X26681Y17995D02*
Y19039D01*
X26680Y19040D02*
X26681Y19039D01*
X26879Y17995D02*
Y18839D01*
X26880Y18840D01*
X26878Y17994D02*
X26879Y17995D01*
X28190Y28320D02*
X30090D01*
X27740Y27470D02*
Y27870D01*
X28190Y28320D01*
X28290Y27910D02*
X28560Y28180D01*
X30710D01*
X28290Y27456D02*
X28330Y27496D01*
X28072Y38573D02*
X28085Y38586D01*
X28042Y37482D02*
X28054Y37470D01*
X28042Y38060D02*
X28072Y38091D01*
Y38573D01*
X28042Y37482D02*
Y38060D01*
X26980D02*
X28042D01*
X26506Y37586D02*
X26990Y38070D01*
Y38580D01*
X26096Y37586D02*
Y37843D01*
Y37330D02*
Y37586D01*
X26506D01*
X26480Y39143D02*
Y39640D01*
X26510Y39610D02*
X26880D01*
X26480Y39640D02*
X26510Y39610D01*
X26880D02*
X26990Y39500D01*
Y39131D02*
Y39500D01*
X26467Y39130D02*
X26480Y39143D01*
X29398Y40302D02*
X29702D01*
X29000Y40700D02*
X29398Y40302D01*
X28297Y40700D02*
X29000D01*
X27987Y40410D02*
X28007D01*
X28297Y40700D01*
X27465Y40400D02*
X27977D01*
X27987Y40410D01*
X27997Y39849D02*
X28510D01*
X27987Y39859D02*
X27997Y39849D01*
X28510D02*
X29081D01*
X29140Y39908D01*
X29702D01*
X28890Y39460D02*
X29142Y39712D01*
X29702D01*
X27862Y39460D02*
X28890D01*
X27512Y39130D02*
X27532D01*
X27862Y39460D01*
X28125Y39097D02*
X28607D01*
X28085Y39137D02*
X28125Y39097D01*
X28990Y39156D02*
Y39310D01*
X28607Y39097D02*
X28931D01*
X28990Y39156D01*
X29195Y39515D02*
X29702D01*
X28990Y39310D02*
X29195Y39515D01*
X29700Y39320D02*
X29702Y39318D01*
X29320Y39240D02*
X29400Y39320D01*
X29320Y37993D02*
Y39240D01*
X29400Y39320D02*
X29700D01*
X30357Y38314D02*
X30415Y38255D01*
X30357Y38314D02*
Y39057D01*
X30415Y38255D02*
X31580D01*
X30352Y39062D02*
X30357Y39057D01*
X29320Y37993D02*
X29843D01*
X30370D02*
X30390D01*
X30913D01*
X25860Y44830D02*
X29320D01*
X25780Y44066D02*
Y44750D01*
X25860Y44830D01*
X29565Y43699D02*
Y44330D01*
X29556Y43690D02*
X29565Y43699D01*
Y44330D02*
X29615Y44380D01*
X30030D01*
X29950Y43230D02*
X30680Y42500D01*
X29950Y43230D02*
Y44101D01*
X30009Y44160D01*
X30652D01*
X30658Y44154D01*
X31770Y42500D02*
X32230Y42040D01*
X30680Y42500D02*
X31770D01*
X32580Y40370D02*
Y40670D01*
Y40370D02*
X32600Y40350D01*
X31060Y42730D02*
X31870D01*
X30658Y43132D02*
X31060Y42730D01*
X30658Y43132D02*
Y43406D01*
X31642D02*
X31994D01*
X31642Y44154D02*
X31991D01*
X32050Y43660D02*
X32430Y43280D01*
X31991Y44154D02*
X32050Y44095D01*
Y43660D02*
Y44095D01*
X28270Y40910D02*
X29860D01*
X29958Y40558D02*
Y40812D01*
X29860Y40910D02*
X29958Y40812D01*
X29830Y41190D02*
X30155Y40865D01*
X27790Y40910D02*
X28270D01*
Y41310D01*
X27770Y41433D02*
X28147D01*
X28270Y41310D01*
X27688Y41901D02*
X28593D01*
X27620Y41969D02*
X27688Y41901D01*
X28593Y41347D02*
Y41901D01*
X28750Y41190D02*
X29830D01*
X28593Y41347D02*
X28750Y41190D01*
X30155Y40558D02*
Y40865D01*
X29940Y41649D02*
Y42470D01*
X29999Y41590D02*
X30360D01*
X29940Y41649D02*
X29999Y41590D01*
X29840Y42570D02*
X29940Y42470D01*
X29420Y42570D02*
X29840D01*
X30352Y40558D02*
Y41582D01*
X30360Y41590D01*
X40053Y38833D02*
X40895D01*
X39740Y38520D02*
X40053Y38833D01*
X37495Y38865D02*
X37510Y38880D01*
X37495Y37986D02*
Y38865D01*
X30548Y40558D02*
X30550Y40560D01*
Y41118D01*
X30551Y41120D01*
X30942Y40558D02*
Y40912D01*
X31180Y41150D02*
Y41370D01*
X31170Y41380D02*
X31180Y41370D01*
X30942Y40912D02*
X31180Y41150D01*
X30740Y40910D02*
X30745Y40905D01*
X39060Y43250D02*
X39327D01*
X39386Y43309D02*
Y43730D01*
X39327Y43250D02*
X39386Y43309D01*
X39050Y43260D02*
X39060Y43250D01*
X30745Y40558D02*
Y40905D01*
X33380Y42850D02*
X33994D01*
X32880Y43640D02*
X32890Y43650D01*
Y43960D01*
X33350Y43790D02*
X33371D01*
X33355Y43345D02*
X33989D01*
X33350Y43340D02*
X33355Y43345D01*
X33431Y43850D02*
X33994D01*
X33371Y43790D02*
X33431Y43850D01*
X32880Y43970D02*
X32890Y43960D01*
X33989Y43345D02*
X33994Y43350D01*
X36340Y37976D02*
Y42710D01*
X36980Y43350D01*
X31740Y40500D02*
Y41384D01*
X31198Y40302D02*
X31542D01*
X31740Y40500D01*
X33991Y41347D02*
X33994Y41350D01*
X33505Y41347D02*
X33991D01*
X33502Y41344D02*
X33505Y41347D01*
X33984Y40860D02*
X33994Y40850D01*
X32197Y38190D02*
Y38983D01*
X31862Y39318D02*
X32197Y38983D01*
X31198Y39318D02*
X31862D01*
X33760Y37644D02*
Y37851D01*
X33701Y37910D02*
X33760Y37851D01*
X33171Y37910D02*
X33701D01*
X33760Y37644D02*
X33760Y37644D01*
X33230Y37659D02*
Y37851D01*
X33171Y37910D02*
X33230Y37851D01*
X32651Y37910D02*
X33171D01*
X33230Y37659D02*
X33240Y37649D01*
X32249Y37910D02*
X32651D01*
X32668Y37686D02*
X32710Y37644D01*
X32668Y37686D02*
Y37893D01*
X32651Y37910D02*
X32668Y37893D01*
X32190Y37969D02*
X32249Y37910D01*
X32190Y38183D02*
X32197Y38190D01*
X32190Y37969D02*
Y38183D01*
X32880Y43970D02*
Y44550D01*
X37546Y43850D02*
X38110D01*
X39030Y42930D01*
X41210D01*
X36980Y43350D02*
X37546D01*
X36923Y37976D02*
Y40703D01*
X37070Y40850D01*
X37546D01*
X40035Y41325D02*
X40440Y41730D01*
X40030Y41320D02*
X40035Y41325D01*
X40440Y41730D02*
X41210D01*
X41205Y41325D02*
X41210Y41330D01*
X40035Y41325D02*
X41205D01*
X38960Y40930D02*
X41210D01*
X38380Y40350D02*
X38960Y40930D01*
X39500Y40130D02*
X39900Y40530D01*
X39500Y40130D02*
X41210D01*
X38068Y38698D02*
X39500Y40130D01*
X39900Y40530D02*
X41210D01*
X38068Y37976D02*
Y38698D01*
X37495Y37159D02*
Y37434D01*
Y36884D02*
Y37159D01*
X38048Y37424D02*
X38068D01*
X37783Y37159D02*
X38048Y37424D01*
X37495Y37159D02*
X37783D01*
X37495Y36884D02*
X37529Y36850D01*
X36410D02*
X37010D01*
X36340Y36920D02*
X36410Y36850D01*
X36340Y36920D02*
Y37424D01*
X36920Y37422D02*
X36923Y37424D01*
X36920Y36940D02*
Y37422D01*
X37010Y36850D02*
X37529D01*
X36920Y36940D02*
X37010Y36850D01*
X31563Y36633D02*
X31580Y36650D01*
X32200Y36030D02*
X35494D01*
X31580Y36650D02*
X32200Y36030D01*
X38976Y32590D02*
X39813D01*
X38910Y32524D02*
X38976Y32590D01*
X38377Y32524D02*
X38910D01*
X38377Y33076D02*
Y33398D01*
X38584Y33605D01*
Y33625D01*
X38536Y34246D02*
X38584Y34198D01*
Y33625D02*
Y34198D01*
X38910Y35034D02*
Y35530D01*
X38980Y35600D01*
X39780D01*
X39987Y35393D01*
Y35090D02*
Y35393D01*
X39993Y34544D02*
X40540D01*
X39987Y34539D02*
X39993Y34544D01*
X39370Y37881D02*
X39374Y37885D01*
Y38828D01*
X39878Y39333D02*
X40895D01*
X39374Y38828D02*
X39878Y39333D01*
X37546Y40350D02*
X38380D01*
X37546Y41350D02*
X38080D01*
X38860Y42130D02*
X41210D01*
X38080Y41350D02*
X38860Y42130D01*
X37546Y42850D02*
X37556Y42840D01*
X38510D01*
X38820Y42530D02*
X41210D01*
X38510Y42840D02*
X38820Y42530D01*
X39389Y43727D02*
X40895D01*
X39386Y43730D02*
X39389Y43727D01*
X39415Y44227D02*
X40895D01*
X39389Y44253D02*
X39415Y44227D01*
X26610Y27476D02*
Y27950D01*
X27041Y28381D02*
Y29150D01*
X26610Y27950D02*
X27041Y28381D01*
X27200Y27456D02*
Y27760D01*
X27828Y28388D02*
Y29150D01*
X27200Y27760D02*
X27828Y28388D01*
X30191Y28421D02*
Y29150D01*
X30090Y28320D02*
X30191Y28421D01*
X30978Y28448D02*
Y29150D01*
X30710Y28180D02*
X30978Y28448D01*
X29629Y27718D02*
Y27772D01*
X29644Y27787D01*
X29610Y26564D02*
Y27699D01*
X29629Y27718D01*
X37810Y26277D02*
Y26550D01*
X37821Y28009D02*
Y28540D01*
X37816Y29080D02*
X37836Y29060D01*
X38180D01*
X41130Y29920D02*
X41136Y29914D01*
X39810Y32213D02*
X39813Y32216D01*
X39323Y32213D02*
X39810D01*
X39320Y32210D02*
X39323Y32213D01*
X27469Y17994D02*
Y20039D01*
X28400Y20970D01*
X27272Y20172D02*
X28240Y21140D01*
X27272Y17994D02*
Y20172D01*
X27863Y19903D02*
X28660Y20700D01*
X27863Y17994D02*
Y19903D01*
X39811Y32962D02*
X39813Y32964D01*
X39292Y32962D02*
X39811D01*
X39290Y32960D02*
X39292Y32962D01*
X29600Y23130D02*
X29628Y23102D01*
X29600Y23130D02*
Y23400D01*
X31980Y25100D02*
Y25320D01*
X42237Y21497D02*
X42249Y21484D01*
X40933Y21497D02*
X42237D01*
X40920Y21510D02*
X40933Y21497D01*
X42248Y21050D02*
X42249Y21051D01*
X40951Y21050D02*
X42248D01*
X40931Y21070D02*
X40951Y21050D01*
X40910Y21070D02*
X40931D01*
X28059Y17994D02*
Y19770D01*
X28830Y20540D01*
X29165Y20229D02*
X29177Y20217D01*
X29489Y19904D02*
X29489D01*
X28453Y19517D02*
X29165Y20229D01*
X28256Y19646D02*
X29000Y20390D01*
X29044Y19144D02*
X29650Y19750D01*
X29486Y19907D02*
X29489Y19904D01*
X29177Y20217D02*
X29177D01*
X28847Y19268D02*
X29486Y19907D01*
X28453Y17994D02*
Y19517D01*
X28650Y19392D02*
X29329Y20072D01*
X39514Y21054D02*
X39830Y21370D01*
Y22330D01*
X39514Y20410D02*
Y21054D01*
X41475Y20185D02*
X42249D01*
X41170Y20490D02*
X41475Y20185D01*
X28256Y17994D02*
Y19646D01*
X28650Y17994D02*
Y19392D01*
X28847Y17994D02*
Y19268D01*
X29044Y17994D02*
Y19144D01*
X45880Y15836D02*
Y16230D01*
X45610Y16350D02*
X45625Y16335D01*
X45775D01*
X45880Y16230D01*
X29437Y19044D02*
X30217Y19823D01*
X29437Y17994D02*
Y19044D01*
X35932Y26540D02*
X36484D01*
X32735Y25500D02*
X32780D01*
X32785Y25505D01*
X32583Y24408D02*
X33028D01*
X32481Y24510D02*
X32583Y24408D01*
X31879Y25421D02*
X31980Y25320D01*
X32785Y25505D02*
X33020D01*
X32510Y24211D02*
X33028D01*
X30660Y20000D02*
X34110D01*
Y19020D02*
Y20000D01*
Y20952D01*
X35414Y17716D02*
X36467D01*
X35390Y17740D02*
X35414Y17716D01*
X35390Y17106D02*
Y17740D01*
X34110Y19020D02*
X35390Y17740D01*
X29634Y18974D02*
X30660Y20000D01*
X29634Y17994D02*
Y18974D01*
X29950Y18909D02*
Y18930D01*
X29831Y18790D02*
X29950Y18909D01*
X30028Y17994D02*
X30030Y17996D01*
Y18610D01*
X29831Y17994D02*
Y18790D01*
X30310Y18650D02*
X31060D01*
X30225Y17994D02*
Y18565D01*
X30310Y18650D01*
X30480Y18410D02*
X31060D01*
X30422Y17994D02*
Y18351D01*
Y17994D02*
X30428Y18000D01*
X30422Y18351D02*
X30480Y18410D01*
X37860Y20040D02*
Y20409D01*
X37880Y20429D01*
X34850Y20080D02*
Y20430D01*
X34860Y20440D01*
X35810D02*
X35840Y20410D01*
X35810Y20060D02*
Y20440D01*
X32610Y20966D02*
X32610Y20966D01*
X32610Y20200D02*
Y20966D01*
X33370Y20230D02*
Y20968D01*
X40798Y32216D02*
X41675D01*
X39813D02*
X40798D01*
Y32964D02*
X41244D01*
X39813D02*
X40798D01*
X37260Y28530D02*
X37270Y28540D01*
X37260Y27800D02*
Y28530D01*
X29621Y27500D02*
X30454D01*
X43656Y21484D02*
X45323Y19817D01*
Y15840D02*
Y19817D01*
X38850Y20454D02*
X38850Y20454D01*
X33360Y20978D02*
X33370Y20968D01*
X42246Y18883D02*
X42249Y18886D01*
X36467Y17716D02*
X39873D01*
X36365Y24801D02*
X36597D01*
X34008Y22444D02*
Y22898D01*
X36366Y24409D02*
X36839D01*
X33020Y25505D02*
X33295Y25781D01*
X36366Y24801D02*
X36829D01*
X34337Y23227D02*
X36023D01*
X34008Y22898D02*
X34337Y23227D01*
X36367Y24602D02*
X37008D01*
X36829Y24801D02*
X36830Y24800D01*
X36839Y24409D02*
X36840Y24410D01*
X36365Y24408D02*
X36366Y24409D01*
X33020Y25203D02*
Y25505D01*
X36365Y24604D02*
X36367Y24602D01*
X36023Y23227D02*
X36365D01*
X37008Y24602D02*
X37010Y24600D01*
X36365Y24801D02*
X36366Y24801D01*
X33020Y25203D02*
X33028Y25195D01*
X33295Y25781D02*
X33614D01*
X41244Y32964D02*
X41320Y33040D01*
X41675Y32216D02*
X41699Y32240D01*
X41720D01*
X41320Y33040D02*
X41710D01*
X35580Y26160D02*
X35640Y26220D01*
X36960D01*
X35580Y25783D02*
X35583Y25781D01*
X35580Y25783D02*
Y26160D01*
X36960Y26220D02*
X37030Y26290D01*
Y26534D02*
X37036Y26540D01*
X37030Y26290D02*
Y26534D01*
X35359Y26211D02*
X35386Y26184D01*
X35350Y26220D02*
X35359Y26211D01*
X34830Y26220D02*
X35350D01*
X34760Y26290D02*
X34830Y26220D01*
X34760Y26488D02*
X34786Y26514D01*
X34760Y26290D02*
Y26488D01*
X35359Y26211D02*
Y26514D01*
X35386Y25781D02*
Y26184D01*
X34210Y26510D02*
X34214Y26514D01*
X34269Y26230D02*
X34343D01*
X34210Y26289D02*
X34269Y26230D01*
X34210Y26289D02*
Y26510D01*
X34401Y25781D02*
Y26171D01*
X34343Y26230D02*
X34401Y26171D01*
X33110Y26168D02*
Y26516D01*
X33295Y25781D02*
Y25982D01*
X33110Y26168D02*
X33295Y25982D01*
X41660Y23864D02*
X41709Y23816D01*
X32260Y25338D02*
Y25573D01*
Y25338D02*
X32600Y24998D01*
X31627Y25421D02*
X31879D01*
X31610Y25439D02*
X31627Y25421D01*
X32210Y25623D02*
Y25966D01*
X32120Y25280D02*
Y25481D01*
X32210Y25623D02*
X32260Y25573D01*
X32120Y25280D02*
X32599Y24801D01*
X31630Y25972D02*
X32120Y25481D01*
X32599Y24801D02*
X33028D01*
X32600Y24998D02*
X33028D01*
X32010Y24270D02*
Y24829D01*
X31610Y24887D02*
X31951D01*
X31010D02*
X31610D01*
X31951D02*
X32010Y24829D01*
X31610Y25972D02*
X31630D01*
X29600Y23400D02*
Y24389D01*
X29606Y23394D02*
X30234D01*
X29600Y23400D02*
X29606Y23394D01*
X29600Y24389D02*
X29610Y24399D01*
X32266Y24014D02*
X33028D01*
X32010Y24270D02*
X32266Y24014D01*
X31632Y24270D02*
X32010D01*
X31611Y24291D02*
X31632Y24270D01*
X32286Y23710D02*
X32296Y23700D01*
X32570D01*
X33019Y23629D02*
X33028Y23620D01*
X32641Y23629D02*
X33019D01*
X32570Y23700D02*
X32641Y23629D01*
X32633Y23423D02*
X33028D01*
X32590Y23380D02*
X32633Y23423D01*
X32590Y23247D02*
Y23380D01*
X32286Y23188D02*
X32531D01*
X32590Y23247D01*
X32286Y22616D02*
Y23188D01*
X32610Y22969D02*
X32669Y23028D01*
X32610Y21641D02*
Y22969D01*
X32669Y23028D02*
X33026D01*
X33028Y23030D01*
X33360Y21653D02*
Y21931D01*
X33419Y21990D01*
X33530D01*
X33610Y22070D01*
Y22440D01*
X33614Y22444D01*
X35965Y23168D02*
X36023Y23227D01*
X34110Y21628D02*
Y21880D01*
X34600Y22059D02*
Y22211D01*
X34541Y22000D02*
X34600Y22059D01*
X34230Y22000D02*
X34541D01*
X34110Y21880D02*
X34230Y22000D01*
X34598Y22213D02*
X34600Y22211D01*
X34598Y22213D02*
Y22444D01*
X37818Y25083D02*
X38052Y24849D01*
X37810Y25083D02*
X37818D01*
X37910Y22678D02*
Y22950D01*
X36760Y23482D02*
X37378D01*
X36690Y22690D02*
X37200D01*
X36180D02*
X36690D01*
X35810Y20991D02*
X35917Y21099D01*
X36728Y25194D02*
X36740Y25206D01*
X36366Y25194D02*
X36728D01*
X36365Y25195D02*
X36366Y25194D01*
X36740Y25206D02*
Y25847D01*
X36799Y25906D01*
X37100D01*
X37810Y25083D02*
Y25603D01*
X36937Y24211D02*
X37810Y25083D01*
X36365Y24211D02*
X36937D01*
X36939Y24014D02*
X37315Y24390D01*
X36365Y24014D02*
X36939D01*
X37315Y24390D02*
X37660D01*
X36890Y23770D02*
X37179D01*
X36760Y23640D02*
X36890Y23770D01*
X36365Y23423D02*
X36701D01*
X36760Y23482D01*
Y23640D01*
X36911Y23141D02*
X37101D01*
X36800Y23030D02*
X36911Y23141D01*
X37101D02*
X37179Y23219D01*
X36365Y23030D02*
X36800D01*
X39360Y22980D02*
X39600Y22740D01*
X40940D02*
X41020Y22820D01*
Y23145D01*
X39600Y22740D02*
X40940D01*
X35965Y22905D02*
X36180Y22690D01*
X35965Y22905D02*
Y23168D01*
X37660Y23841D02*
Y24390D01*
Y23841D02*
X37683Y23817D01*
X38236Y23816D02*
X38787D01*
X38235Y23817D02*
X38236Y23816D01*
X38211Y24390D02*
X39120D01*
X39360Y24150D01*
Y23816D02*
Y24150D01*
X40191Y27100D02*
X40762D01*
X41570Y27040D02*
X42210D01*
X41510Y27100D02*
X41570Y27040D01*
X43330Y26874D02*
Y27270D01*
X42210Y27591D02*
X43009D01*
X43330Y27270D01*
X44492Y26918D02*
X45407D01*
X44210Y27200D02*
X44492Y26918D01*
X44210Y27200D02*
Y27514D01*
X39360Y22980D02*
Y23264D01*
X43836Y26860D02*
X44288D01*
X45168Y26651D02*
X45396D01*
X44288Y26860D02*
X44498Y26650D01*
X45396Y26651D02*
X45407Y26662D01*
X45167Y26650D02*
X45168Y26651D01*
X44498Y26650D02*
X45167D01*
X44206Y26126D02*
X44487Y26407D01*
X45407D01*
X43822Y26126D02*
X44206D01*
X42136Y26316D02*
X42320Y26500D01*
X42136Y25760D02*
Y26316D01*
X42320Y26500D02*
X42838D01*
X43822Y26874D02*
X43836Y26860D01*
X44081Y25760D02*
X44471Y26151D01*
X45407D01*
X44081Y25239D02*
Y25760D01*
Y25239D02*
X44085Y25235D01*
X42136Y25760D02*
X44081D01*
X42290Y24680D02*
X42331Y24639D01*
X42290Y24680D02*
Y24820D01*
X42136Y24974D02*
X42290Y24820D01*
X42136Y24974D02*
Y25247D01*
X43315Y24639D02*
Y25282D01*
X43286Y25312D02*
X43315Y25282D01*
X41020Y23820D02*
X41064Y23864D01*
X41687Y23891D02*
X42331D01*
X41660Y23864D02*
X41687Y23891D01*
X41709Y23240D02*
Y23816D01*
X43830Y23240D02*
X44085Y23495D01*
Y24155D01*
X43344Y23240D02*
X43830D01*
X43315Y23891D02*
X43327Y23880D01*
X43810D01*
X44085Y24155D02*
Y24645D01*
X43810Y23880D02*
X44085Y24155D01*
X42249Y21051D02*
X43529D01*
X44810Y15836D02*
Y19770D01*
X43529Y21051D02*
X44810Y19770D01*
X42249Y21484D02*
X43656D01*
X46427Y15836D02*
X46502Y15760D01*
X45880Y15836D02*
X46427D01*
X47157Y17748D02*
X47165Y17740D01*
X47570D01*
X47680Y17630D01*
Y15890D02*
Y17630D01*
X47178Y15760D02*
X47550D01*
X47680Y15890D01*
X47620Y48320D02*
X48220Y48520D01*
X47620Y48720D02*
X48220Y48520D01*
X22640D02*
X23240Y48720D01*
X22640Y48520D02*
X23240Y48320D01*
X36780Y48520D02*
X48220D01*
X22640D02*
X33760D01*
X48220Y46270D02*
Y48620D01*
X22640Y46270D02*
Y48620D01*
X51910Y13810D02*
X52110Y13210D01*
X52310Y13810D01*
X52110Y46270D02*
X52310Y45670D01*
X51910D02*
X52110Y46270D01*
Y13210D02*
Y28070D01*
Y31090D02*
Y46270D01*
X48240Y13210D02*
X52210D01*
X48220Y46270D02*
X52210D01*
D95*
X31210Y21040D02*
X31211Y21039D01*
X31909D01*
X31910Y21039D01*
X35359Y27066D02*
X35387Y27093D01*
Y27715D01*
X35415Y27742D01*
X35932Y27091D02*
X35968Y27128D01*
Y27706D01*
X42688Y19752D02*
X42860Y19580D01*
X42249Y19752D02*
X42688D01*
X24410Y22910D02*
X26610Y25110D01*
Y26924D01*
X24410Y19240D02*
Y22910D01*
X36046Y36030D02*
X39990D01*
X40540Y35480D01*
Y35096D02*
Y35480D01*
X43140Y14810D02*
X43660D01*
X35420D02*
X43140D01*
X43250Y14920D02*
Y15284D01*
X43140Y14810D02*
X43250Y14920D01*
X43660Y14810D02*
X44180D01*
X43770Y14920D02*
Y15284D01*
X43660Y14810D02*
X43770Y14920D01*
X44180Y14810D02*
X44670D01*
X44290Y14920D02*
Y15284D01*
X44180Y14810D02*
X44290Y14920D01*
X44670Y14810D02*
X45170D01*
X44810Y14950D02*
Y15284D01*
X44670Y14810D02*
X44810Y14950D01*
X45170Y14810D02*
X45690D01*
X45323Y14963D02*
Y15289D01*
X45170Y14810D02*
X45323Y14963D01*
X45870Y15274D02*
X45880Y15284D01*
X45870Y14990D02*
Y15274D01*
X45690Y14810D02*
X45870Y14990D01*
D96*
X34320Y48760D02*
X34120Y48660D01*
X33920Y48460D01*
Y48260D01*
X34020Y48160D01*
X34220D01*
X34320Y48260D01*
Y48360D01*
X34220Y48460D01*
X33920D01*
X34820Y48160D02*
Y48760D01*
X34520Y48460D01*
X34920D01*
X35120Y48160D02*
Y48260D01*
X35220D01*
Y48160D01*
X35120D01*
X35620Y48260D02*
X35720Y48160D01*
X35920D01*
X36020Y48260D01*
Y48660D01*
X35920Y48760D01*
X35720D01*
X35620Y48660D01*
Y48560D01*
X35720Y48460D01*
X36020D01*
X36220Y48760D02*
X36620D01*
Y48660D01*
X36220Y48260D01*
Y48160D01*
X51970Y28230D02*
X51870Y28330D01*
Y28530D01*
X51970Y28630D01*
X52070D01*
X52170Y28530D01*
X52270Y28630D01*
X52370D01*
X52470Y28530D01*
Y28330D01*
X52370Y28230D01*
X52270D01*
X52170Y28330D01*
X52070Y28230D01*
X51970D01*
X52170Y28330D02*
Y28530D01*
X51970Y28830D02*
X51870Y28930D01*
Y29130D01*
X51970Y29230D01*
X52070D01*
X52170Y29130D01*
Y29030D01*
Y29130D01*
X52270Y29230D01*
X52370D01*
X52470Y29130D01*
Y28930D01*
X52370Y28830D01*
X52470Y29430D02*
X52370D01*
Y29530D01*
X52470D01*
Y29430D01*
X52370Y29930D02*
X52470Y30030D01*
Y30230D01*
X52370Y30330D01*
X51970D01*
X51870Y30230D01*
Y30030D01*
X51970Y29930D01*
X52070D01*
X52170Y30030D01*
Y30330D01*
X51870Y30530D02*
Y30930D01*
X51970D01*
X52370Y30530D01*
X52470D01*
D97*
X42557Y31262D02*
D03*
Y33034D02*
D03*
Y32246D02*
D03*
Y34018D02*
D03*
D98*
X43624Y30053D02*
D03*
Y35227D02*
D03*
D99*
X38710Y27740D02*
D03*
Y28740D02*
D03*
Y29740D02*
D03*
X23920Y27040D02*
D03*
Y26040D02*
D03*
Y25040D02*
D03*
Y24040D02*
D03*
Y23040D02*
D03*
Y22040D02*
D03*
Y21040D02*
D03*
X39850Y19420D02*
D03*
X38850D02*
D03*
X37850D02*
D03*
X36850D02*
D03*
X35850D02*
D03*
X32510Y19466D02*
D03*
D100*
X38710Y30740D02*
D03*
X23920Y20040D02*
D03*
D101*
X34850Y19420D02*
D03*
X33510Y19466D02*
D03*
D102*
X33060Y16520D02*
D03*
X34060D02*
D03*
D103*
X45147Y44030D02*
D03*
Y39030D02*
D03*
D104*
X28090Y22910D02*
D03*
X36590Y34600D02*
D03*
X24700Y40060D02*
D03*
X47080Y14230D02*
D03*
D105*
X46460Y25363D02*
D03*
Y27962D02*
D03*
D106*
X42330Y26130D02*
D03*
X42310Y26700D02*
D03*
X34900Y21850D02*
D03*
X38720Y21820D02*
D03*
X31410Y40950D02*
D03*
X33360Y40870D02*
D03*
X36370Y28420D02*
D03*
X38090Y27740D02*
D03*
X37080Y27620D02*
D03*
X37560Y26800D02*
D03*
X36590Y27530D02*
D03*
X41520Y26580D02*
D03*
X37180Y19029D02*
D03*
X44250Y26540D02*
D03*
X28950Y40390D02*
D03*
X29010Y38820D02*
D03*
X42860Y19580D02*
D03*
X40050Y20000D02*
D03*
X38850Y20030D02*
D03*
X41170Y19770D02*
D03*
X40800Y18870D02*
D03*
X39110Y31670D02*
D03*
X30360Y36860D02*
D03*
X26280Y18950D02*
D03*
X30950Y34260D02*
D03*
X29390Y34250D02*
D03*
X27200Y28180D02*
D03*
X26279Y26970D02*
D03*
X27750Y25630D02*
D03*
X28950Y37440D02*
D03*
X29920Y38510D02*
D03*
X28460Y38110D02*
D03*
X26090Y19100D02*
D03*
X25893Y18913D02*
D03*
X25698Y19108D02*
D03*
X27460Y39500D02*
D03*
X25500Y19330D02*
D03*
X26470Y38020D02*
D03*
X25300Y18700D02*
D03*
X31300Y23430D02*
D03*
X36500Y22280D02*
D03*
X37390Y26250D02*
D03*
X36340Y25810D02*
D03*
X32273Y39953D02*
D03*
X32330Y39450D02*
D03*
X32003Y39957D02*
D03*
X33030Y40680D02*
D03*
X33610Y39540D02*
D03*
X35950Y36650D02*
D03*
X31300Y37070D02*
D03*
X26480Y39921D02*
D03*
X24410Y19240D02*
D03*
X24710Y20980D02*
D03*
X24820Y25940D02*
D03*
X24910Y19140D02*
D03*
X29440Y16950D02*
D03*
X26490Y18840D02*
D03*
X28290Y25670D02*
D03*
X30545Y38620D02*
D03*
X30220Y43860D02*
D03*
X29230Y40110D02*
D03*
X30966Y38455D02*
D03*
X30730Y38480D02*
D03*
X26680Y19040D02*
D03*
X26880Y18840D02*
D03*
X30030Y44380D02*
D03*
X32230Y42040D02*
D03*
X32580Y40670D02*
D03*
X31870Y42730D02*
D03*
X32430Y43280D02*
D03*
X39740Y38520D02*
D03*
X37510Y38880D02*
D03*
X30551Y41120D02*
D03*
X30740Y40910D02*
D03*
X39050Y43260D02*
D03*
X33380Y42850D02*
D03*
X33350Y43790D02*
D03*
Y43340D02*
D03*
X32880Y43640D02*
D03*
X40030Y41320D02*
D03*
X38180Y29060D02*
D03*
X41130Y29920D02*
D03*
X39320Y32210D02*
D03*
X28400Y20970D02*
D03*
X28240Y21140D02*
D03*
X39290Y32960D02*
D03*
X29628Y23102D02*
D03*
X31980Y25100D02*
D03*
X40920Y21510D02*
D03*
X28660Y20700D02*
D03*
X40910Y21070D02*
D03*
X28830Y20540D02*
D03*
X29486Y19907D02*
D03*
X29000Y20390D02*
D03*
X29650Y19750D02*
D03*
X29165Y20229D02*
D03*
X29329Y20072D02*
D03*
X39830Y22330D02*
D03*
X41170Y20490D02*
D03*
X40979Y19340D02*
D03*
X45610Y16350D02*
D03*
X30217Y19823D02*
D03*
X32735Y25500D02*
D03*
X32481Y24510D02*
D03*
X32510Y24211D02*
D03*
X29950Y18930D02*
D03*
X30030Y18610D02*
D03*
X38180Y18850D02*
D03*
X31060Y18650D02*
D03*
X37860Y20040D02*
D03*
X34850Y20080D02*
D03*
X35810Y20060D02*
D03*
X31060Y18410D02*
D03*
X32610Y20200D02*
D03*
X33370Y20230D02*
D03*
X29644Y27787D02*
D03*
X36830Y24800D02*
D03*
X36840Y24410D02*
D03*
X37010Y24600D02*
D03*
X41710Y33040D02*
D03*
X41720Y32240D02*
D03*
X38052Y24849D02*
D03*
X35420Y14810D02*
D03*
D107*
X26630Y40610D02*
D03*
D108*
X30686Y39574D02*
D03*
Y40046D02*
D03*
M02*
