G04*
G04 #@! TF.GenerationSoftware,Altium Limited,Altium Designer,20.1.11 (218)*
G04*
G04 Layer_Physical_Order=4*
G04 Layer_Color=16711680*
%FSLAX24Y24*%
%MOIN*%
G70*
G04*
G04 #@! TF.SameCoordinates,FE305F3D-5073-4B85-8CB4-D00664FC1F7A*
G04*
G04*
G04 #@! TF.FilePolarity,Positive*
G04*
G01*
G75*
%ADD94C,0.0100*%
%ADD95C,0.0150*%
%ADD97C,0.0669*%
%ADD98C,0.1181*%
%ADD99C,0.0591*%
%ADD100R,0.0591X0.0591*%
%ADD101R,0.0591X0.0591*%
%ADD102O,0.0689X0.0984*%
%ADD103C,0.0656*%
%ADD104C,0.1575*%
%ADD105O,0.0630X0.0354*%
%ADD106C,0.0177*%
%ADD107C,0.0500*%
%ADD108C,0.0260*%
G36*
X48160Y45640D02*
X48160Y13280D01*
X22710D01*
X22710Y46210D01*
X48160Y46210D01*
Y45640D01*
D02*
G37*
%LPC*%
G36*
X30030Y44521D02*
X29976Y44511D01*
X29930Y44480D01*
X29899Y44434D01*
X29889Y44380D01*
X29899Y44326D01*
X29930Y44280D01*
X29976Y44249D01*
X30030Y44239D01*
X30084Y44249D01*
X30130Y44280D01*
X30161Y44326D01*
X30171Y44380D01*
X30161Y44434D01*
X30130Y44480D01*
X30084Y44511D01*
X30030Y44521D01*
D02*
G37*
G36*
X30220Y44001D02*
X30166Y43991D01*
X30120Y43960D01*
X30089Y43914D01*
X30079Y43860D01*
X30089Y43806D01*
X30120Y43760D01*
X30166Y43729D01*
X30220Y43719D01*
X30274Y43729D01*
X30320Y43760D01*
X30351Y43806D01*
X30361Y43860D01*
X30351Y43914D01*
X30320Y43960D01*
X30274Y43991D01*
X30220Y44001D01*
D02*
G37*
G36*
X33350Y43931D02*
X33296Y43921D01*
X33250Y43890D01*
X33219Y43844D01*
X33209Y43790D01*
X33219Y43736D01*
X33250Y43690D01*
X33296Y43659D01*
X33350Y43649D01*
X33404Y43659D01*
X33450Y43690D01*
X33481Y43736D01*
X33491Y43790D01*
X33481Y43844D01*
X33450Y43890D01*
X33404Y43921D01*
X33350Y43931D01*
D02*
G37*
G36*
X32880Y43781D02*
X32826Y43771D01*
X32780Y43740D01*
X32749Y43694D01*
X32739Y43640D01*
X32749Y43586D01*
X32780Y43540D01*
X32826Y43509D01*
X32880Y43499D01*
X32934Y43509D01*
X32980Y43540D01*
X33011Y43586D01*
X33021Y43640D01*
X33011Y43694D01*
X32980Y43740D01*
X32934Y43771D01*
X32880Y43781D01*
D02*
G37*
G36*
X45147Y44788D02*
X44999Y44773D01*
X44857Y44730D01*
X44726Y44660D01*
X44611Y44566D01*
X44517Y44451D01*
X44447Y44320D01*
X44404Y44178D01*
X44389Y44030D01*
X44404Y43882D01*
X44447Y43740D01*
X44517Y43609D01*
X44611Y43494D01*
X44726Y43400D01*
X44857Y43330D01*
X44999Y43287D01*
X45147Y43272D01*
X45294Y43287D01*
X45437Y43330D01*
X45568Y43400D01*
X45682Y43494D01*
X45777Y43609D01*
X45847Y43740D01*
X45890Y43882D01*
X45904Y44030D01*
X45890Y44178D01*
X45847Y44320D01*
X45777Y44451D01*
X45682Y44566D01*
X45568Y44660D01*
X45437Y44730D01*
X45294Y44773D01*
X45147Y44788D01*
D02*
G37*
G36*
X33350Y43481D02*
X33296Y43471D01*
X33250Y43440D01*
X33219Y43394D01*
X33209Y43340D01*
X33219Y43286D01*
X33250Y43240D01*
X33296Y43209D01*
X33350Y43199D01*
X33404Y43209D01*
X33450Y43240D01*
X33481Y43286D01*
X33491Y43340D01*
X33481Y43394D01*
X33450Y43440D01*
X33404Y43471D01*
X33350Y43481D01*
D02*
G37*
G36*
X32430Y43421D02*
X32376Y43411D01*
X32330Y43380D01*
X32299Y43334D01*
X32289Y43280D01*
X32299Y43226D01*
X32330Y43180D01*
X32376Y43149D01*
X32430Y43139D01*
X32484Y43149D01*
X32530Y43180D01*
X32561Y43226D01*
X32571Y43280D01*
X32561Y43334D01*
X32530Y43380D01*
X32484Y43411D01*
X32430Y43421D01*
D02*
G37*
G36*
X39050Y43401D02*
X38996Y43391D01*
X38950Y43360D01*
X38919Y43314D01*
X38909Y43260D01*
X38919Y43206D01*
X38950Y43160D01*
X38996Y43129D01*
X39050Y43119D01*
X39104Y43129D01*
X39150Y43160D01*
X39181Y43206D01*
X39191Y43260D01*
X39181Y43314D01*
X39150Y43360D01*
X39104Y43391D01*
X39050Y43401D01*
D02*
G37*
G36*
X33380Y42991D02*
X33326Y42981D01*
X33280Y42950D01*
X33249Y42904D01*
X33239Y42850D01*
X33249Y42796D01*
X33280Y42750D01*
X33326Y42719D01*
X33380Y42709D01*
X33434Y42719D01*
X33480Y42750D01*
X33511Y42796D01*
X33521Y42850D01*
X33511Y42904D01*
X33480Y42950D01*
X33434Y42981D01*
X33380Y42991D01*
D02*
G37*
G36*
X31870Y42871D02*
X31816Y42861D01*
X31770Y42830D01*
X31739Y42784D01*
X31729Y42730D01*
X31739Y42676D01*
X31770Y42630D01*
X31816Y42599D01*
X31870Y42589D01*
X31924Y42599D01*
X31970Y42630D01*
X32001Y42676D01*
X32011Y42730D01*
X32001Y42784D01*
X31970Y42830D01*
X31924Y42861D01*
X31870Y42871D01*
D02*
G37*
G36*
X32230Y42181D02*
X32176Y42171D01*
X32130Y42140D01*
X32099Y42094D01*
X32089Y42040D01*
X32099Y41986D01*
X32130Y41940D01*
X32176Y41909D01*
X32230Y41899D01*
X32284Y41909D01*
X32330Y41940D01*
X32361Y41986D01*
X32371Y42040D01*
X32361Y42094D01*
X32330Y42140D01*
X32284Y42171D01*
X32230Y42181D01*
D02*
G37*
G36*
X40030Y41461D02*
X39976Y41451D01*
X39930Y41420D01*
X39899Y41374D01*
X39889Y41320D01*
X39899Y41266D01*
X39930Y41220D01*
X39976Y41189D01*
X40030Y41179D01*
X40084Y41189D01*
X40130Y41220D01*
X40161Y41266D01*
X40171Y41320D01*
X40161Y41374D01*
X40130Y41420D01*
X40084Y41451D01*
X40030Y41461D01*
D02*
G37*
G36*
X30551Y41261D02*
X30497Y41251D01*
X30452Y41220D01*
X30421Y41174D01*
X30410Y41120D01*
X30421Y41066D01*
X30452Y41020D01*
X30497Y40989D01*
X30551Y40979D01*
X30566Y40982D01*
X30604Y40938D01*
X30599Y40910D01*
X30609Y40856D01*
X30640Y40810D01*
X30686Y40779D01*
X30740Y40769D01*
X30794Y40779D01*
X30840Y40810D01*
X30871Y40856D01*
X30881Y40910D01*
X30871Y40964D01*
X30840Y41010D01*
X30794Y41041D01*
X30740Y41051D01*
X30726Y41048D01*
X30687Y41092D01*
X30693Y41120D01*
X30682Y41174D01*
X30651Y41220D01*
X30605Y41251D01*
X30551Y41261D01*
D02*
G37*
G36*
X31410Y41091D02*
X31356Y41081D01*
X31310Y41050D01*
X31279Y41004D01*
X31269Y40950D01*
X31279Y40896D01*
X31310Y40850D01*
X31356Y40819D01*
X31410Y40809D01*
X31464Y40819D01*
X31510Y40850D01*
X31515Y40858D01*
X32560D01*
X32565Y40808D01*
X32548Y40805D01*
X32526Y40801D01*
X32480Y40770D01*
X32449Y40724D01*
X32439Y40670D01*
X32449Y40616D01*
X32480Y40570D01*
X32526Y40539D01*
X32580Y40529D01*
X32634Y40539D01*
X32680Y40570D01*
X32711Y40616D01*
X32721Y40670D01*
X32711Y40724D01*
X32680Y40770D01*
X32634Y40801D01*
X32595Y40808D01*
X32600Y40858D01*
X32943D01*
X32973Y40812D01*
X32972Y40808D01*
X32930Y40780D01*
X32899Y40734D01*
X32889Y40680D01*
X32899Y40626D01*
X32930Y40580D01*
X32976Y40549D01*
X33030Y40539D01*
X33084Y40549D01*
X33130Y40580D01*
X33161Y40626D01*
X33171Y40680D01*
X33161Y40734D01*
X33130Y40780D01*
X33088Y40808D01*
X33087Y40812D01*
X33117Y40858D01*
X33221D01*
X33229Y40816D01*
X33260Y40770D01*
X33306Y40739D01*
X33360Y40729D01*
X33414Y40739D01*
X33460Y40770D01*
X33491Y40816D01*
X33501Y40870D01*
X33491Y40924D01*
X33460Y40970D01*
X33414Y41001D01*
X33360Y41011D01*
X33333Y41006D01*
X33324Y41015D01*
X33294Y41035D01*
X33259Y41042D01*
X31515D01*
X31510Y41050D01*
X31464Y41081D01*
X31410Y41091D01*
D02*
G37*
G36*
X24720Y40889D02*
Y40080D01*
X25529D01*
X25515Y40222D01*
X25468Y40378D01*
X25391Y40522D01*
X25288Y40648D01*
X25162Y40751D01*
X25018Y40828D01*
X24862Y40875D01*
X24720Y40889D01*
D02*
G37*
G36*
X24680D02*
X24538Y40875D01*
X24382Y40828D01*
X24238Y40751D01*
X24112Y40648D01*
X24009Y40522D01*
X23932Y40378D01*
X23885Y40222D01*
X23871Y40080D01*
X24680D01*
Y40889D01*
D02*
G37*
G36*
X29230Y40251D02*
X29176Y40241D01*
X29130Y40210D01*
X29099Y40164D01*
X29089Y40110D01*
X29099Y40056D01*
X29130Y40010D01*
X29176Y39979D01*
X29230Y39969D01*
X29284Y39979D01*
X29330Y40010D01*
X29361Y40056D01*
X29371Y40110D01*
X29361Y40164D01*
X29330Y40210D01*
X29284Y40241D01*
X29230Y40251D01*
D02*
G37*
G36*
X32003Y40098D02*
X31949Y40087D01*
X31903Y40057D01*
X31873Y40011D01*
X31862Y39957D01*
X31873Y39903D01*
X31903Y39857D01*
X31949Y39826D01*
X32003Y39815D01*
X32057Y39826D01*
X32103Y39857D01*
X32107Y39863D01*
X32167D01*
X32173Y39853D01*
X32219Y39823D01*
X32273Y39812D01*
X32327Y39823D01*
X32373Y39853D01*
X32404Y39899D01*
X32415Y39953D01*
X32404Y40007D01*
X32373Y40053D01*
X32327Y40084D01*
X32273Y40095D01*
X32219Y40084D01*
X32173Y40053D01*
X32170Y40047D01*
X32109D01*
X32103Y40057D01*
X32057Y40087D01*
X32003Y40098D01*
D02*
G37*
G36*
X26480Y40063D02*
X26426Y40052D01*
X26380Y40021D01*
X26349Y39975D01*
X26339Y39921D01*
X26349Y39867D01*
X26380Y39822D01*
X26426Y39791D01*
X26480Y39780D01*
X26534Y39791D01*
X26580Y39822D01*
X26611Y39867D01*
X26621Y39921D01*
X26611Y39975D01*
X26580Y40021D01*
X26534Y40052D01*
X26480Y40063D01*
D02*
G37*
G36*
X33610Y39681D02*
X33556Y39671D01*
X33510Y39640D01*
X33479Y39594D01*
X33469Y39540D01*
X33479Y39486D01*
X33510Y39440D01*
X33556Y39409D01*
X33610Y39399D01*
X33664Y39409D01*
X33710Y39440D01*
X33741Y39486D01*
X33751Y39540D01*
X33741Y39594D01*
X33710Y39640D01*
X33664Y39671D01*
X33610Y39681D01*
D02*
G37*
G36*
X27460Y39641D02*
X27406Y39631D01*
X27360Y39600D01*
X27329Y39554D01*
X27319Y39500D01*
X27329Y39446D01*
X27360Y39400D01*
X27406Y39369D01*
X27460Y39359D01*
X27514Y39369D01*
X27560Y39400D01*
X27591Y39446D01*
X27601Y39500D01*
X27591Y39554D01*
X27560Y39600D01*
X27514Y39631D01*
X27460Y39641D01*
D02*
G37*
G36*
X32330Y39591D02*
X32276Y39581D01*
X32230Y39550D01*
X32199Y39504D01*
X32189Y39450D01*
X32199Y39396D01*
X32230Y39350D01*
X32276Y39319D01*
X32330Y39309D01*
X32384Y39319D01*
X32430Y39350D01*
X32461Y39396D01*
X32471Y39450D01*
X32461Y39504D01*
X32430Y39550D01*
X32384Y39581D01*
X32330Y39591D01*
D02*
G37*
G36*
X25529Y40040D02*
X24720D01*
Y39231D01*
X24862Y39245D01*
X25018Y39292D01*
X25162Y39369D01*
X25288Y39472D01*
X25391Y39598D01*
X25468Y39742D01*
X25515Y39898D01*
X25529Y40040D01*
D02*
G37*
G36*
X24680D02*
X23871D01*
X23885Y39898D01*
X23932Y39742D01*
X24009Y39598D01*
X24112Y39472D01*
X24238Y39369D01*
X24382Y39292D01*
X24538Y39245D01*
X24680Y39231D01*
Y40040D01*
D02*
G37*
G36*
X37510Y39021D02*
X37456Y39011D01*
X37410Y38980D01*
X37379Y38934D01*
X37369Y38880D01*
X37379Y38826D01*
X37410Y38780D01*
X37456Y38749D01*
X37510Y38739D01*
X37564Y38749D01*
X37610Y38780D01*
X37641Y38826D01*
X37651Y38880D01*
X37641Y38934D01*
X37610Y38980D01*
X37564Y39011D01*
X37510Y39021D01*
D02*
G37*
G36*
X39740Y38661D02*
X39686Y38651D01*
X39640Y38620D01*
X39609Y38574D01*
X39599Y38520D01*
X39609Y38466D01*
X39640Y38420D01*
X39686Y38389D01*
X39740Y38379D01*
X39794Y38389D01*
X39840Y38420D01*
X39871Y38466D01*
X39881Y38520D01*
X39871Y38574D01*
X39840Y38620D01*
X39794Y38651D01*
X39740Y38661D01*
D02*
G37*
G36*
X29920Y38651D02*
X29866Y38641D01*
X29820Y38610D01*
X29789Y38564D01*
X29779Y38510D01*
X29789Y38456D01*
X29820Y38410D01*
X29866Y38379D01*
X29920Y38369D01*
X29974Y38379D01*
X30020Y38410D01*
X30051Y38456D01*
X30061Y38510D01*
X30051Y38564D01*
X30020Y38610D01*
X29974Y38641D01*
X29920Y38651D01*
D02*
G37*
G36*
X30545Y38761D02*
X30491Y38751D01*
X30445Y38720D01*
X30415Y38674D01*
X30404Y38620D01*
X30415Y38566D01*
X30445Y38520D01*
X30491Y38489D01*
X30545Y38479D01*
X30549Y38479D01*
X30589Y38480D01*
X30599Y38426D01*
X30630Y38380D01*
X30676Y38349D01*
X30730Y38339D01*
X30784Y38349D01*
X30802Y38361D01*
X30866Y38355D01*
X30912Y38324D01*
X30966Y38314D01*
X31020Y38324D01*
X31066Y38355D01*
X31096Y38401D01*
X31107Y38455D01*
X31096Y38509D01*
X31066Y38555D01*
X31020Y38585D01*
X30966Y38596D01*
X30912Y38585D01*
X30894Y38574D01*
X30830Y38580D01*
X30784Y38611D01*
X30730Y38621D01*
X30726Y38621D01*
X30687Y38620D01*
X30676Y38674D01*
X30645Y38720D01*
X30599Y38751D01*
X30545Y38761D01*
D02*
G37*
G36*
X45147Y39788D02*
X44999Y39773D01*
X44857Y39730D01*
X44726Y39660D01*
X44611Y39566D01*
X44517Y39451D01*
X44447Y39320D01*
X44404Y39178D01*
X44389Y39030D01*
X44404Y38882D01*
X44447Y38740D01*
X44517Y38609D01*
X44611Y38494D01*
X44726Y38400D01*
X44857Y38330D01*
X44999Y38287D01*
X45147Y38272D01*
X45294Y38287D01*
X45437Y38330D01*
X45568Y38400D01*
X45682Y38494D01*
X45777Y38609D01*
X45847Y38740D01*
X45890Y38882D01*
X45904Y39030D01*
X45890Y39178D01*
X45847Y39320D01*
X45777Y39451D01*
X45682Y39566D01*
X45568Y39660D01*
X45437Y39730D01*
X45294Y39773D01*
X45147Y39788D01*
D02*
G37*
G36*
X28460Y38251D02*
X28406Y38241D01*
X28360Y38210D01*
X28329Y38164D01*
X28319Y38110D01*
X28329Y38056D01*
X28360Y38010D01*
X28406Y37979D01*
X28460Y37969D01*
X28514Y37979D01*
X28560Y38010D01*
X28591Y38056D01*
X28601Y38110D01*
X28591Y38164D01*
X28560Y38210D01*
X28514Y38241D01*
X28460Y38251D01*
D02*
G37*
G36*
X26470Y38161D02*
X26416Y38151D01*
X26370Y38120D01*
X26339Y38074D01*
X26329Y38020D01*
X26339Y37966D01*
X26370Y37920D01*
X26416Y37889D01*
X26470Y37879D01*
X26524Y37889D01*
X26570Y37920D01*
X26601Y37966D01*
X26611Y38020D01*
X26601Y38074D01*
X26570Y38120D01*
X26524Y38151D01*
X26470Y38161D01*
D02*
G37*
G36*
X28950Y37581D02*
X28896Y37571D01*
X28850Y37540D01*
X28819Y37494D01*
X28809Y37440D01*
X28819Y37386D01*
X28850Y37340D01*
X28896Y37309D01*
X28950Y37299D01*
X29004Y37309D01*
X29050Y37340D01*
X29081Y37386D01*
X29091Y37440D01*
X29081Y37494D01*
X29050Y37540D01*
X29004Y37571D01*
X28950Y37581D01*
D02*
G37*
G36*
X30360Y37001D02*
X30306Y36991D01*
X30260Y36960D01*
X30229Y36914D01*
X30219Y36860D01*
X30229Y36806D01*
X30260Y36760D01*
X30306Y36729D01*
X30360Y36719D01*
X30414Y36729D01*
X30460Y36760D01*
X30491Y36806D01*
X30501Y36860D01*
X30491Y36914D01*
X30460Y36960D01*
X30414Y36991D01*
X30360Y37001D01*
D02*
G37*
G36*
X31300Y37211D02*
X31246Y37201D01*
X31200Y37170D01*
X31169Y37124D01*
X31159Y37070D01*
X31169Y37016D01*
X31200Y36970D01*
X31246Y36939D01*
X31300Y36929D01*
X31354Y36939D01*
X31400Y36970D01*
X31405Y36978D01*
X35492D01*
X35811Y36660D01*
X35809Y36650D01*
X35819Y36596D01*
X35850Y36550D01*
X35896Y36519D01*
X35950Y36509D01*
X36004Y36519D01*
X36050Y36550D01*
X36081Y36596D01*
X36091Y36650D01*
X36081Y36704D01*
X36050Y36750D01*
X36004Y36781D01*
X35950Y36791D01*
X35940Y36789D01*
X35595Y37135D01*
X35565Y37155D01*
X35530Y37162D01*
X31405D01*
X31400Y37170D01*
X31354Y37201D01*
X31300Y37211D01*
D02*
G37*
G36*
X43644Y35858D02*
Y35247D01*
X44255D01*
X44245Y35350D01*
X44209Y35469D01*
X44151Y35579D01*
X44072Y35675D01*
X43976Y35753D01*
X43866Y35812D01*
X43747Y35848D01*
X43644Y35858D01*
D02*
G37*
G36*
X43604Y35858D02*
X43500Y35848D01*
X43381Y35812D01*
X43272Y35753D01*
X43176Y35675D01*
X43097Y35579D01*
X43038Y35469D01*
X43002Y35350D01*
X42992Y35247D01*
X43604D01*
Y35858D01*
D02*
G37*
G36*
X36610Y35429D02*
Y34620D01*
X37419D01*
X37405Y34762D01*
X37358Y34918D01*
X37281Y35062D01*
X37178Y35188D01*
X37052Y35291D01*
X36908Y35368D01*
X36752Y35415D01*
X36610Y35429D01*
D02*
G37*
G36*
X36570D02*
X36428Y35415D01*
X36272Y35368D01*
X36128Y35291D01*
X36002Y35188D01*
X35899Y35062D01*
X35822Y34918D01*
X35775Y34762D01*
X35761Y34620D01*
X36570D01*
Y35429D01*
D02*
G37*
G36*
X44255Y35207D02*
X43644D01*
Y34595D01*
X43747Y34605D01*
X43866Y34641D01*
X43976Y34700D01*
X44072Y34779D01*
X44151Y34875D01*
X44209Y34984D01*
X44245Y35103D01*
X44255Y35207D01*
D02*
G37*
G36*
X43604D02*
X42992D01*
X43002Y35103D01*
X43038Y34984D01*
X43097Y34875D01*
X43176Y34779D01*
X43272Y34700D01*
X43381Y34641D01*
X43500Y34605D01*
X43604Y34595D01*
Y35207D01*
D02*
G37*
G36*
X30950Y34401D02*
X30896Y34391D01*
X30850Y34360D01*
X30819Y34314D01*
X30809Y34260D01*
X30811Y34250D01*
X30032Y33472D01*
X28805D01*
X28790Y33522D01*
X28795Y33525D01*
X29380Y34111D01*
X29390Y34109D01*
X29444Y34119D01*
X29490Y34150D01*
X29521Y34196D01*
X29531Y34250D01*
X29521Y34304D01*
X29490Y34350D01*
X29444Y34381D01*
X29390Y34391D01*
X29336Y34381D01*
X29290Y34350D01*
X29259Y34304D01*
X29249Y34250D01*
X29251Y34240D01*
X28692Y33682D01*
X27270D01*
X27235Y33675D01*
X27205Y33655D01*
X24545Y30995D01*
X24525Y30965D01*
X24518Y30930D01*
Y26768D01*
X24085Y26335D01*
X24008Y26367D01*
X23920Y26378D01*
X23832Y26367D01*
X23751Y26333D01*
X23681Y26279D01*
X23627Y26209D01*
X23593Y26128D01*
X23582Y26040D01*
X23593Y25952D01*
X23627Y25871D01*
X23681Y25801D01*
X23751Y25747D01*
X23832Y25713D01*
X23920Y25702D01*
X24008Y25713D01*
X24089Y25747D01*
X24159Y25801D01*
X24213Y25871D01*
X24247Y25952D01*
X24258Y26040D01*
X24247Y26128D01*
X24215Y26205D01*
X24675Y26665D01*
X24678Y26670D01*
X24728Y26655D01*
Y26045D01*
X24720Y26040D01*
X24689Y25994D01*
X24679Y25940D01*
X24681Y25930D01*
X24085Y25335D01*
X24008Y25367D01*
X23920Y25378D01*
X23832Y25367D01*
X23751Y25333D01*
X23681Y25279D01*
X23627Y25209D01*
X23593Y25128D01*
X23582Y25040D01*
X23593Y24952D01*
X23627Y24871D01*
X23681Y24801D01*
X23751Y24747D01*
X23832Y24713D01*
X23920Y24702D01*
X24008Y24713D01*
X24089Y24747D01*
X24159Y24801D01*
X24213Y24871D01*
X24247Y24952D01*
X24258Y25040D01*
X24247Y25128D01*
X24215Y25205D01*
X24810Y25801D01*
X24820Y25799D01*
X24874Y25809D01*
X24920Y25840D01*
X24951Y25886D01*
X24961Y25940D01*
X24951Y25994D01*
X24920Y26040D01*
X24912Y26045D01*
Y30832D01*
X27368Y33288D01*
X30070D01*
X30105Y33295D01*
X30135Y33315D01*
X30940Y34121D01*
X30950Y34119D01*
X31004Y34129D01*
X31050Y34160D01*
X31081Y34206D01*
X31091Y34260D01*
X31081Y34314D01*
X31050Y34360D01*
X31004Y34391D01*
X30950Y34401D01*
D02*
G37*
G36*
X42577Y34393D02*
Y34038D01*
X42932D01*
X42922Y34116D01*
X42884Y34207D01*
X42824Y34285D01*
X42746Y34345D01*
X42655Y34383D01*
X42577Y34393D01*
D02*
G37*
G36*
X42537D02*
X42459Y34383D01*
X42368Y34345D01*
X42290Y34285D01*
X42230Y34207D01*
X42192Y34116D01*
X42182Y34038D01*
X42537D01*
Y34393D01*
D02*
G37*
G36*
X37419Y34580D02*
X36610D01*
Y33771D01*
X36752Y33785D01*
X36908Y33832D01*
X37052Y33909D01*
X37178Y34012D01*
X37281Y34138D01*
X37358Y34282D01*
X37405Y34438D01*
X37419Y34580D01*
D02*
G37*
G36*
X36570D02*
X35761D01*
X35775Y34438D01*
X35822Y34282D01*
X35899Y34138D01*
X36002Y34012D01*
X36128Y33909D01*
X36272Y33832D01*
X36428Y33785D01*
X36570Y33771D01*
Y34580D01*
D02*
G37*
G36*
X42537Y33998D02*
X42182D01*
X42192Y33920D01*
X42230Y33829D01*
X42290Y33751D01*
X42368Y33691D01*
X42459Y33653D01*
X42537Y33643D01*
Y33998D01*
D02*
G37*
G36*
X42932D02*
X42577D01*
Y33643D01*
X42655Y33653D01*
X42746Y33691D01*
X42824Y33751D01*
X42884Y33829D01*
X42922Y33920D01*
X42932Y33998D01*
D02*
G37*
G36*
X42557Y33412D02*
X42459Y33399D01*
X42368Y33361D01*
X42290Y33301D01*
X42230Y33223D01*
X42192Y33131D01*
X42191Y33129D01*
X41817D01*
X41810Y33140D01*
X41764Y33171D01*
X41710Y33181D01*
X41656Y33171D01*
X41610Y33140D01*
X41579Y33094D01*
X41569Y33040D01*
X41579Y32986D01*
X41610Y32940D01*
X41656Y32909D01*
X41710Y32899D01*
X41764Y32909D01*
X41810Y32940D01*
X41813Y32945D01*
X42191D01*
X42192Y32936D01*
X42230Y32845D01*
X42290Y32766D01*
X42368Y32706D01*
X42459Y32669D01*
X42486Y32665D01*
Y32615D01*
X42459Y32611D01*
X42368Y32574D01*
X42290Y32513D01*
X42230Y32435D01*
X42192Y32344D01*
X42191Y32335D01*
X41823D01*
X41820Y32340D01*
X41774Y32371D01*
X41720Y32381D01*
X41666Y32371D01*
X41620Y32340D01*
X41589Y32294D01*
X41579Y32240D01*
X41589Y32186D01*
X41620Y32140D01*
X41666Y32109D01*
X41720Y32099D01*
X41774Y32109D01*
X41820Y32140D01*
X41827Y32151D01*
X42191D01*
X42192Y32148D01*
X42230Y32057D01*
X42290Y31979D01*
X42368Y31919D01*
X42459Y31881D01*
X42557Y31868D01*
X42655Y31881D01*
X42746Y31919D01*
X42824Y31979D01*
X42884Y32057D01*
X42922Y32148D01*
X42935Y32246D01*
X42922Y32344D01*
X42884Y32435D01*
X42824Y32513D01*
X42746Y32574D01*
X42655Y32611D01*
X42628Y32615D01*
Y32665D01*
X42655Y32669D01*
X42746Y32706D01*
X42824Y32766D01*
X42884Y32845D01*
X42922Y32936D01*
X42935Y33034D01*
X42922Y33131D01*
X42884Y33223D01*
X42824Y33301D01*
X42746Y33361D01*
X42655Y33399D01*
X42557Y33412D01*
D02*
G37*
G36*
X39290Y33101D02*
X39236Y33091D01*
X39190Y33060D01*
X39159Y33014D01*
X39149Y32960D01*
X39159Y32906D01*
X39190Y32860D01*
X39236Y32829D01*
X39290Y32819D01*
X39344Y32829D01*
X39390Y32860D01*
X39421Y32906D01*
X39431Y32960D01*
X39421Y33014D01*
X39390Y33060D01*
X39344Y33091D01*
X39290Y33101D01*
D02*
G37*
G36*
X39320Y32351D02*
X39266Y32341D01*
X39220Y32310D01*
X39189Y32264D01*
X39179Y32210D01*
X39189Y32156D01*
X39220Y32110D01*
X39266Y32079D01*
X39320Y32069D01*
X39374Y32079D01*
X39420Y32110D01*
X39451Y32156D01*
X39461Y32210D01*
X39451Y32264D01*
X39420Y32310D01*
X39374Y32341D01*
X39320Y32351D01*
D02*
G37*
G36*
X39110Y31811D02*
X39056Y31801D01*
X39010Y31770D01*
X38979Y31724D01*
X38969Y31670D01*
X38979Y31616D01*
X39010Y31570D01*
X39056Y31539D01*
X39110Y31529D01*
X39120Y31531D01*
X39453Y31197D01*
X39483Y31177D01*
X39518Y31170D01*
X42191D01*
X42192Y31164D01*
X42230Y31073D01*
X42290Y30995D01*
X42368Y30935D01*
X42459Y30897D01*
X42557Y30884D01*
X42655Y30897D01*
X42746Y30935D01*
X42824Y30995D01*
X42884Y31073D01*
X42922Y31164D01*
X42935Y31262D01*
X42922Y31360D01*
X42884Y31451D01*
X42824Y31529D01*
X42746Y31589D01*
X42655Y31627D01*
X42557Y31640D01*
X42459Y31627D01*
X42368Y31589D01*
X42290Y31529D01*
X42230Y31451D01*
X42192Y31360D01*
X42191Y31354D01*
X39556D01*
X39249Y31660D01*
X39251Y31670D01*
X39241Y31724D01*
X39210Y31770D01*
X39164Y31801D01*
X39110Y31811D01*
D02*
G37*
G36*
X43644Y30685D02*
Y30073D01*
X44255D01*
X44245Y30177D01*
X44209Y30296D01*
X44151Y30405D01*
X44072Y30501D01*
X43976Y30580D01*
X43866Y30639D01*
X43747Y30675D01*
X43644Y30685D01*
D02*
G37*
G36*
X43604D02*
X43500Y30675D01*
X43381Y30639D01*
X43272Y30580D01*
X43176Y30501D01*
X43097Y30405D01*
X43038Y30296D01*
X43002Y30177D01*
X42992Y30073D01*
X43604D01*
Y30685D01*
D02*
G37*
G36*
X38730Y30076D02*
Y29760D01*
X39046D01*
X39037Y29828D01*
X39003Y29909D01*
X38949Y29979D01*
X38879Y30033D01*
X38798Y30067D01*
X38730Y30076D01*
D02*
G37*
G36*
X38690D02*
X38622Y30067D01*
X38541Y30033D01*
X38471Y29979D01*
X38417Y29909D01*
X38383Y29828D01*
X38374Y29760D01*
X38690D01*
Y30076D01*
D02*
G37*
G36*
X44255Y30033D02*
X43644D01*
Y29422D01*
X43747Y29432D01*
X43866Y29468D01*
X43976Y29527D01*
X44072Y29605D01*
X44151Y29701D01*
X44209Y29811D01*
X44245Y29930D01*
X44255Y30033D01*
D02*
G37*
G36*
X43604D02*
X42992D01*
X43002Y29930D01*
X43038Y29811D01*
X43097Y29701D01*
X43176Y29605D01*
X43272Y29527D01*
X43381Y29468D01*
X43500Y29432D01*
X43604Y29422D01*
Y30033D01*
D02*
G37*
G36*
X39046Y29720D02*
X38730D01*
Y29404D01*
X38798Y29413D01*
X38879Y29447D01*
X38949Y29501D01*
X39003Y29571D01*
X39037Y29652D01*
X39046Y29720D01*
D02*
G37*
G36*
X38690D02*
X38374D01*
X38383Y29652D01*
X38417Y29571D01*
X38471Y29501D01*
X38541Y29447D01*
X38622Y29413D01*
X38690Y29404D01*
Y29720D01*
D02*
G37*
G36*
X38180Y29201D02*
X38126Y29191D01*
X38080Y29160D01*
X38049Y29114D01*
X38039Y29060D01*
X38049Y29006D01*
X38080Y28960D01*
X38126Y28929D01*
X38180Y28919D01*
X38234Y28929D01*
X38280Y28960D01*
X38283Y28965D01*
X38332Y28968D01*
X38410Y28891D01*
X38383Y28828D01*
X38372Y28740D01*
X38383Y28652D01*
X38417Y28571D01*
X38471Y28501D01*
X38541Y28447D01*
X38622Y28413D01*
X38710Y28402D01*
X38798Y28413D01*
X38879Y28447D01*
X38949Y28501D01*
X39003Y28571D01*
X39037Y28652D01*
X39048Y28740D01*
X39037Y28828D01*
X39003Y28909D01*
X38949Y28979D01*
X38879Y29033D01*
X38798Y29067D01*
X38710Y29078D01*
X38622Y29067D01*
X38541Y29033D01*
X38533Y29027D01*
X38435Y29125D01*
X38405Y29145D01*
X38370Y29152D01*
X38285D01*
X38280Y29160D01*
X38234Y29191D01*
X38180Y29201D01*
D02*
G37*
G36*
X36370Y28561D02*
X36316Y28551D01*
X36270Y28520D01*
X36239Y28474D01*
X36229Y28420D01*
X36239Y28366D01*
X36270Y28320D01*
X36316Y28289D01*
X36370Y28279D01*
X36424Y28289D01*
X36470Y28320D01*
X36501Y28366D01*
X36511Y28420D01*
X36501Y28474D01*
X36470Y28520D01*
X36424Y28551D01*
X36370Y28561D01*
D02*
G37*
G36*
X46598Y28183D02*
X46480D01*
Y27982D01*
X46815D01*
X46802Y28046D01*
X46754Y28118D01*
X46683Y28166D01*
X46598Y28183D01*
D02*
G37*
G36*
X46440D02*
X46322D01*
X46237Y28166D01*
X46166Y28118D01*
X46118Y28046D01*
X46105Y27982D01*
X46440D01*
Y28183D01*
D02*
G37*
G36*
X38710Y28078D02*
X38622Y28067D01*
X38541Y28033D01*
X38471Y27979D01*
X38417Y27909D01*
X38385Y27832D01*
X38195D01*
X38190Y27840D01*
X38144Y27871D01*
X38090Y27881D01*
X38036Y27871D01*
X37990Y27840D01*
X37959Y27794D01*
X37949Y27740D01*
X37959Y27686D01*
X37990Y27640D01*
X38036Y27609D01*
X38090Y27599D01*
X38144Y27609D01*
X38190Y27640D01*
X38195Y27648D01*
X38385D01*
X38417Y27571D01*
X38471Y27501D01*
X38541Y27447D01*
X38622Y27413D01*
X38710Y27402D01*
X38798Y27413D01*
X38879Y27447D01*
X38949Y27501D01*
X39003Y27571D01*
X39037Y27652D01*
X39048Y27740D01*
X39037Y27828D01*
X39003Y27909D01*
X38949Y27979D01*
X38879Y28033D01*
X38798Y28067D01*
X38710Y28078D01*
D02*
G37*
G36*
X46815Y27942D02*
X46480D01*
Y27740D01*
X46598D01*
X46683Y27757D01*
X46754Y27805D01*
X46802Y27877D01*
X46815Y27942D01*
D02*
G37*
G36*
X46440D02*
X46105D01*
X46118Y27877D01*
X46166Y27805D01*
X46237Y27757D01*
X46322Y27740D01*
X46440D01*
Y27942D01*
D02*
G37*
G36*
X29644Y27928D02*
X29590Y27918D01*
X29544Y27887D01*
X29513Y27841D01*
X29502Y27787D01*
X29513Y27733D01*
X29544Y27687D01*
X29590Y27657D01*
X29644Y27646D01*
X29698Y27657D01*
X29744Y27687D01*
X29774Y27733D01*
X29785Y27787D01*
X29774Y27841D01*
X29744Y27887D01*
X29698Y27918D01*
X29644Y27928D01*
D02*
G37*
G36*
X37080Y27761D02*
X37026Y27751D01*
X36980Y27720D01*
X36949Y27674D01*
X36939Y27620D01*
X36949Y27566D01*
X36980Y27520D01*
X37026Y27489D01*
X37080Y27479D01*
X37134Y27489D01*
X37180Y27520D01*
X37211Y27566D01*
X37221Y27620D01*
X37211Y27674D01*
X37180Y27720D01*
X37134Y27751D01*
X37080Y27761D01*
D02*
G37*
G36*
X36590Y27671D02*
X36536Y27661D01*
X36490Y27630D01*
X36459Y27584D01*
X36449Y27530D01*
X36459Y27476D01*
X36490Y27430D01*
X36536Y27399D01*
X36590Y27389D01*
X36644Y27399D01*
X36690Y27430D01*
X36721Y27476D01*
X36731Y27530D01*
X36721Y27584D01*
X36690Y27630D01*
X36644Y27661D01*
X36590Y27671D01*
D02*
G37*
G36*
X23940Y27376D02*
Y27060D01*
X24256D01*
X24247Y27128D01*
X24213Y27209D01*
X24159Y27279D01*
X24089Y27333D01*
X24008Y27367D01*
X23940Y27376D01*
D02*
G37*
G36*
X23900D02*
X23832Y27367D01*
X23751Y27333D01*
X23681Y27279D01*
X23627Y27209D01*
X23593Y27128D01*
X23584Y27060D01*
X23900D01*
Y27376D01*
D02*
G37*
G36*
X24256Y27020D02*
X23940D01*
Y26704D01*
X24008Y26713D01*
X24089Y26747D01*
X24159Y26801D01*
X24213Y26871D01*
X24247Y26952D01*
X24256Y27020D01*
D02*
G37*
G36*
X23900D02*
X23584D01*
X23593Y26952D01*
X23627Y26871D01*
X23681Y26801D01*
X23751Y26747D01*
X23832Y26713D01*
X23900Y26704D01*
Y27020D01*
D02*
G37*
G36*
X39045Y31075D02*
X38375D01*
Y30405D01*
X39045D01*
Y30648D01*
X40272D01*
X40991Y29930D01*
X40989Y29920D01*
X40999Y29866D01*
X41030Y29820D01*
X41038Y29815D01*
Y28688D01*
X39002Y26652D01*
X37678D01*
X37663Y26692D01*
X37661Y26702D01*
X37691Y26746D01*
X37701Y26800D01*
X37691Y26854D01*
X37660Y26900D01*
X37614Y26931D01*
X37560Y26941D01*
X37506Y26931D01*
X37460Y26900D01*
X37455Y26892D01*
X33360D01*
X33325Y26885D01*
X33295Y26865D01*
X30152Y23722D01*
X30132Y23692D01*
X30125Y23657D01*
Y19929D01*
X30117Y19923D01*
X30086Y19877D01*
X30075Y19823D01*
X30086Y19769D01*
X30117Y19723D01*
X30163Y19693D01*
X30217Y19682D01*
X30271Y19693D01*
X30317Y19723D01*
X30347Y19769D01*
X30358Y19823D01*
X30347Y19877D01*
X30317Y19923D01*
X30308Y19929D01*
Y23619D01*
X31791Y25102D01*
X31794Y25101D01*
X31842Y25082D01*
X31849Y25046D01*
X31880Y25000D01*
X31926Y24969D01*
X31980Y24959D01*
X32034Y24969D01*
X32080Y25000D01*
X32111Y25046D01*
X32121Y25100D01*
X32111Y25154D01*
X32080Y25200D01*
X32034Y25231D01*
X31998Y25238D01*
X31979Y25286D01*
X31978Y25289D01*
X33398Y26708D01*
X37409D01*
X37410Y26708D01*
X37414Y26702D01*
X37388Y26652D01*
X33795D01*
X33760Y26645D01*
X33730Y26625D01*
X32745Y25639D01*
X32735Y25641D01*
X32681Y25631D01*
X32635Y25600D01*
X32604Y25554D01*
X32594Y25500D01*
X32604Y25446D01*
X32635Y25400D01*
X32681Y25369D01*
X32735Y25359D01*
X32789Y25369D01*
X32835Y25400D01*
X32866Y25446D01*
X32876Y25500D01*
X32874Y25510D01*
X33833Y26468D01*
X37298D01*
Y26355D01*
X37290Y26350D01*
X37259Y26304D01*
X37249Y26250D01*
X37259Y26196D01*
X37290Y26150D01*
X37298Y26145D01*
Y23208D01*
X36510Y22419D01*
X36500Y22421D01*
X36446Y22411D01*
X36400Y22380D01*
X36369Y22334D01*
X36359Y22280D01*
X36369Y22226D01*
X36400Y22180D01*
X36446Y22149D01*
X36500Y22139D01*
X36554Y22149D01*
X36600Y22180D01*
X36631Y22226D01*
X36641Y22280D01*
X36639Y22290D01*
X37455Y23105D01*
X37475Y23135D01*
X37482Y23170D01*
Y26145D01*
X37490Y26150D01*
X37521Y26196D01*
X37531Y26250D01*
X37521Y26304D01*
X37490Y26350D01*
X37482Y26355D01*
Y26468D01*
X39040D01*
X39075Y26475D01*
X39105Y26495D01*
X41195Y28585D01*
X41215Y28615D01*
X41222Y28650D01*
Y29815D01*
X41230Y29820D01*
X41261Y29866D01*
X41271Y29920D01*
X41261Y29974D01*
X41230Y30020D01*
X41184Y30051D01*
X41130Y30061D01*
X41120Y30059D01*
X40375Y30805D01*
X40345Y30825D01*
X40310Y30832D01*
X39045D01*
Y31075D01*
D02*
G37*
G36*
X42310Y26841D02*
X42256Y26831D01*
X42210Y26800D01*
X42179Y26754D01*
X42169Y26700D01*
X42179Y26646D01*
X42210Y26600D01*
X42256Y26569D01*
X42310Y26559D01*
X42364Y26569D01*
X42410Y26600D01*
X42441Y26646D01*
X42451Y26700D01*
X42441Y26754D01*
X42410Y26800D01*
X42364Y26831D01*
X42310Y26841D01*
D02*
G37*
G36*
X41520Y26721D02*
X41466Y26711D01*
X41420Y26680D01*
X41389Y26634D01*
X41379Y26580D01*
X41389Y26526D01*
X41420Y26480D01*
X41466Y26449D01*
X41520Y26439D01*
X41574Y26449D01*
X41620Y26480D01*
X41651Y26526D01*
X41661Y26580D01*
X41651Y26634D01*
X41620Y26680D01*
X41574Y26711D01*
X41520Y26721D01*
D02*
G37*
G36*
X42330Y26271D02*
X42276Y26261D01*
X42230Y26230D01*
X42199Y26184D01*
X42189Y26130D01*
X42199Y26076D01*
X42230Y26030D01*
X42276Y25999D01*
X42330Y25989D01*
X42384Y25999D01*
X42430Y26030D01*
X42461Y26076D01*
X42471Y26130D01*
X42461Y26184D01*
X42430Y26230D01*
X42384Y26261D01*
X42330Y26271D01*
D02*
G37*
G36*
X36340Y25951D02*
X36286Y25941D01*
X36240Y25910D01*
X36209Y25864D01*
X36199Y25810D01*
X36209Y25756D01*
X36240Y25710D01*
X36286Y25679D01*
X36340Y25669D01*
X36394Y25679D01*
X36440Y25710D01*
X36471Y25756D01*
X36481Y25810D01*
X36471Y25864D01*
X36440Y25910D01*
X36394Y25941D01*
X36340Y25951D01*
D02*
G37*
G36*
X28290Y25811D02*
X28236Y25801D01*
X28190Y25770D01*
X28159Y25724D01*
X28149Y25670D01*
X28151Y25660D01*
X24852Y22362D01*
X24825Y22367D01*
X24802Y22380D01*
Y22552D01*
X27740Y25491D01*
X27750Y25489D01*
X27804Y25499D01*
X27850Y25530D01*
X27881Y25576D01*
X27891Y25630D01*
X27881Y25684D01*
X27850Y25730D01*
X27804Y25761D01*
X27750Y25771D01*
X27696Y25761D01*
X27650Y25730D01*
X27619Y25684D01*
X27609Y25630D01*
X27611Y25620D01*
X24645Y22655D01*
X24625Y22625D01*
X24618Y22590D01*
Y21537D01*
X24572Y21518D01*
X24215Y21875D01*
X24247Y21952D01*
X24258Y22040D01*
X24247Y22128D01*
X24213Y22209D01*
X24159Y22279D01*
X24089Y22333D01*
X24008Y22367D01*
X23920Y22378D01*
X23832Y22367D01*
X23751Y22333D01*
X23681Y22279D01*
X23627Y22209D01*
X23593Y22128D01*
X23582Y22040D01*
X23593Y21952D01*
X23627Y21871D01*
X23681Y21801D01*
X23751Y21747D01*
X23832Y21713D01*
X23920Y21702D01*
X24008Y21713D01*
X24085Y21745D01*
X24618Y21212D01*
Y21085D01*
X24610Y21080D01*
X24579Y21034D01*
X24569Y20980D01*
X24579Y20926D01*
X24610Y20880D01*
X24656Y20849D01*
X24710Y20839D01*
X24764Y20849D01*
X24768Y20852D01*
X24818Y20826D01*
Y20337D01*
X24772Y20318D01*
X24215Y20875D01*
X24247Y20952D01*
X24258Y21040D01*
X24247Y21128D01*
X24213Y21209D01*
X24159Y21279D01*
X24089Y21333D01*
X24008Y21367D01*
X23920Y21378D01*
X23832Y21367D01*
X23751Y21333D01*
X23681Y21279D01*
X23627Y21209D01*
X23593Y21128D01*
X23582Y21040D01*
X23593Y20952D01*
X23627Y20871D01*
X23681Y20801D01*
X23751Y20747D01*
X23832Y20713D01*
X23920Y20702D01*
X24008Y20713D01*
X24085Y20745D01*
X24818Y20012D01*
Y19245D01*
X24810Y19240D01*
X24779Y19194D01*
X24769Y19140D01*
X24779Y19086D01*
X24810Y19040D01*
X24856Y19009D01*
X24910Y18999D01*
X24964Y19009D01*
X25010Y19040D01*
X25041Y19086D01*
X25051Y19140D01*
X25041Y19194D01*
X25010Y19240D01*
X25002Y19245D01*
Y20050D01*
Y22252D01*
X28280Y25531D01*
X28290Y25529D01*
X28344Y25539D01*
X28390Y25570D01*
X28421Y25616D01*
X28431Y25670D01*
X28421Y25724D01*
X28390Y25770D01*
X28344Y25801D01*
X28290Y25811D01*
D02*
G37*
G36*
X46598Y25585D02*
X46480D01*
Y25383D01*
X46815D01*
X46802Y25448D01*
X46754Y25520D01*
X46683Y25568D01*
X46598Y25585D01*
D02*
G37*
G36*
X46440D02*
X46322D01*
X46237Y25568D01*
X46166Y25520D01*
X46118Y25448D01*
X46105Y25383D01*
X46440D01*
Y25585D01*
D02*
G37*
G36*
X46815Y25343D02*
X46480D01*
Y25142D01*
X46598D01*
X46683Y25159D01*
X46754Y25207D01*
X46802Y25278D01*
X46815Y25343D01*
D02*
G37*
G36*
X46440D02*
X46105D01*
X46118Y25278D01*
X46166Y25207D01*
X46237Y25159D01*
X46322Y25142D01*
X46440D01*
Y25343D01*
D02*
G37*
G36*
X38052Y24991D02*
X37998Y24980D01*
X37952Y24949D01*
X37921Y24903D01*
X37911Y24849D01*
X37921Y24795D01*
X37952Y24749D01*
X37998Y24719D01*
X38052Y24708D01*
X38106Y24719D01*
X38152Y24749D01*
X38182Y24795D01*
X38193Y24849D01*
X38182Y24903D01*
X38152Y24949D01*
X38106Y24980D01*
X38052Y24991D01*
D02*
G37*
G36*
X26279Y27111D02*
X26225Y27101D01*
X26179Y27070D01*
X26148Y27024D01*
X26137Y26970D01*
X26148Y26916D01*
X26179Y26870D01*
X26187Y26865D01*
Y26437D01*
X24085Y24335D01*
X24008Y24367D01*
X23920Y24378D01*
X23832Y24367D01*
X23751Y24333D01*
X23681Y24279D01*
X23627Y24209D01*
X23593Y24128D01*
X23582Y24040D01*
X23593Y23952D01*
X23627Y23871D01*
X23681Y23801D01*
X23751Y23747D01*
X23832Y23713D01*
X23920Y23702D01*
X24008Y23713D01*
X24089Y23747D01*
X24159Y23801D01*
X24213Y23871D01*
X24247Y23952D01*
X24258Y24040D01*
X24247Y24128D01*
X24215Y24205D01*
X26343Y26334D01*
X26363Y26363D01*
X26370Y26399D01*
Y26865D01*
X26378Y26870D01*
X26409Y26916D01*
X26420Y26970D01*
X26409Y27024D01*
X26378Y27070D01*
X26333Y27101D01*
X26279Y27111D01*
D02*
G37*
G36*
X36830Y24941D02*
X36776Y24931D01*
X36730Y24900D01*
X36699Y24854D01*
X36689Y24800D01*
X36699Y24746D01*
X36730Y24700D01*
X36776Y24669D01*
X36830Y24659D01*
X36872Y24616D01*
X36869Y24600D01*
X36869Y24596D01*
X36840Y24551D01*
X36832Y24550D01*
X36786Y24541D01*
X36740Y24510D01*
X36709Y24464D01*
X36699Y24410D01*
X36709Y24356D01*
X36740Y24310D01*
X36786Y24279D01*
X36840Y24269D01*
X36894Y24279D01*
X36940Y24310D01*
X36971Y24356D01*
X36981Y24410D01*
X36981Y24414D01*
X37010Y24459D01*
X37018Y24460D01*
X37064Y24469D01*
X37110Y24500D01*
X37141Y24546D01*
X37151Y24600D01*
X37141Y24654D01*
X37110Y24700D01*
X37064Y24731D01*
X37010Y24741D01*
X36968Y24784D01*
X36971Y24800D01*
X36961Y24854D01*
X36930Y24900D01*
X36884Y24931D01*
X36830Y24941D01*
D02*
G37*
G36*
X32481Y24651D02*
X32427Y24641D01*
X32381Y24610D01*
X32350Y24564D01*
X32340Y24510D01*
X32350Y24456D01*
X32381Y24410D01*
X32427Y24379D01*
X32435Y24327D01*
X32410Y24311D01*
X32380Y24265D01*
X32369Y24211D01*
X32380Y24157D01*
X32410Y24111D01*
X32456Y24080D01*
X32510Y24069D01*
X32564Y24080D01*
X32610Y24111D01*
X32641Y24157D01*
X32651Y24211D01*
X32641Y24265D01*
X32610Y24311D01*
X32564Y24341D01*
X32556Y24394D01*
X32581Y24410D01*
X32611Y24456D01*
X32622Y24510D01*
X32611Y24564D01*
X32581Y24610D01*
X32535Y24641D01*
X32481Y24651D01*
D02*
G37*
G36*
X27200Y28321D02*
X27146Y28311D01*
X27100Y28280D01*
X27069Y28234D01*
X27059Y28180D01*
X27069Y28126D01*
X27100Y28080D01*
X27108Y28075D01*
Y26358D01*
X24085Y23335D01*
X24008Y23367D01*
X23920Y23378D01*
X23832Y23367D01*
X23751Y23333D01*
X23681Y23279D01*
X23627Y23209D01*
X23593Y23128D01*
X23582Y23040D01*
X23593Y22952D01*
X23627Y22871D01*
X23681Y22801D01*
X23751Y22747D01*
X23832Y22713D01*
X23920Y22702D01*
X24008Y22713D01*
X24089Y22747D01*
X24159Y22801D01*
X24213Y22871D01*
X24247Y22952D01*
X24258Y23040D01*
X24247Y23128D01*
X24215Y23205D01*
X27265Y26255D01*
X27285Y26285D01*
X27292Y26320D01*
Y28075D01*
X27300Y28080D01*
X27331Y28126D01*
X27341Y28180D01*
X27331Y28234D01*
X27300Y28280D01*
X27254Y28311D01*
X27200Y28321D01*
D02*
G37*
G36*
X31300Y23571D02*
X31246Y23561D01*
X31200Y23530D01*
X31169Y23484D01*
X31159Y23430D01*
X31169Y23376D01*
X31200Y23330D01*
X31246Y23299D01*
X31300Y23289D01*
X31354Y23299D01*
X31400Y23330D01*
X31431Y23376D01*
X31441Y23430D01*
X31431Y23484D01*
X31400Y23530D01*
X31354Y23561D01*
X31300Y23571D01*
D02*
G37*
G36*
X29628Y23243D02*
X29574Y23232D01*
X29528Y23202D01*
X29498Y23156D01*
X29487Y23102D01*
X29498Y23048D01*
X29528Y23002D01*
X29574Y22971D01*
X29628Y22960D01*
X29682Y22971D01*
X29728Y23002D01*
X29759Y23048D01*
X29770Y23102D01*
X29759Y23156D01*
X29728Y23202D01*
X29682Y23232D01*
X29628Y23243D01*
D02*
G37*
G36*
X28110Y23739D02*
Y22930D01*
X28919D01*
X28905Y23072D01*
X28858Y23228D01*
X28781Y23372D01*
X28678Y23498D01*
X28552Y23601D01*
X28408Y23678D01*
X28252Y23725D01*
X28110Y23739D01*
D02*
G37*
G36*
X28070D02*
X27928Y23725D01*
X27772Y23678D01*
X27628Y23601D01*
X27502Y23498D01*
X27399Y23372D01*
X27322Y23228D01*
X27275Y23072D01*
X27261Y22930D01*
X28070D01*
Y23739D01*
D02*
G37*
G36*
X39830Y22471D02*
X39776Y22461D01*
X39730Y22430D01*
X39699Y22384D01*
X39689Y22330D01*
X39699Y22276D01*
X39730Y22230D01*
X39776Y22199D01*
X39830Y22189D01*
X39884Y22199D01*
X39930Y22230D01*
X39961Y22276D01*
X39971Y22330D01*
X39961Y22384D01*
X39930Y22430D01*
X39884Y22461D01*
X39830Y22471D01*
D02*
G37*
G36*
X28919Y22890D02*
X28110D01*
Y22081D01*
X28252Y22095D01*
X28408Y22142D01*
X28552Y22219D01*
X28678Y22322D01*
X28781Y22448D01*
X28858Y22592D01*
X28905Y22748D01*
X28919Y22890D01*
D02*
G37*
G36*
X28070D02*
X27261D01*
X27275Y22748D01*
X27322Y22592D01*
X27399Y22448D01*
X27502Y22322D01*
X27628Y22219D01*
X27772Y22142D01*
X27928Y22095D01*
X28070Y22081D01*
Y22890D01*
D02*
G37*
G36*
X34900Y21991D02*
X34846Y21981D01*
X34800Y21950D01*
X34769Y21904D01*
X34759Y21850D01*
X34769Y21796D01*
X34800Y21750D01*
X34846Y21719D01*
X34900Y21709D01*
X34954Y21719D01*
X35000Y21750D01*
X35031Y21796D01*
X35041Y21850D01*
X35031Y21904D01*
X35000Y21950D01*
X34954Y21981D01*
X34900Y21991D01*
D02*
G37*
G36*
X38720Y21961D02*
X38666Y21951D01*
X38620Y21920D01*
X38589Y21874D01*
X38579Y21820D01*
X38589Y21766D01*
X38620Y21720D01*
X38666Y21689D01*
X38720Y21679D01*
X38774Y21689D01*
X38820Y21720D01*
X38851Y21766D01*
X38861Y21820D01*
X38851Y21874D01*
X38820Y21920D01*
X38774Y21951D01*
X38720Y21961D01*
D02*
G37*
G36*
X40920Y21651D02*
X40866Y21641D01*
X40820Y21610D01*
X40789Y21564D01*
X40779Y21510D01*
X40789Y21456D01*
X40820Y21410D01*
X40866Y21379D01*
X40920Y21369D01*
X40974Y21379D01*
X41020Y21410D01*
X41051Y21456D01*
X41061Y21510D01*
X41051Y21564D01*
X41020Y21610D01*
X40974Y21641D01*
X40920Y21651D01*
D02*
G37*
G36*
X40910Y21211D02*
X40856Y21201D01*
X40810Y21170D01*
X40779Y21124D01*
X40769Y21070D01*
X40779Y21016D01*
X40810Y20970D01*
X40856Y20939D01*
X40910Y20929D01*
X40964Y20939D01*
X41010Y20970D01*
X41041Y21016D01*
X41051Y21070D01*
X41041Y21124D01*
X41010Y21170D01*
X40964Y21201D01*
X40910Y21211D01*
D02*
G37*
G36*
X28240Y21281D02*
X28186Y21271D01*
X28140Y21240D01*
X28109Y21194D01*
X28099Y21140D01*
X28109Y21086D01*
X28140Y21040D01*
X28186Y21009D01*
X28240Y20999D01*
X28260Y20978D01*
X28259Y20970D01*
X28269Y20916D01*
X28300Y20870D01*
X28346Y20839D01*
X28400Y20829D01*
X28454Y20839D01*
X28500Y20870D01*
X28531Y20916D01*
X28541Y20970D01*
X28531Y21024D01*
X28500Y21070D01*
X28454Y21101D01*
X28400Y21111D01*
X28380Y21132D01*
X28381Y21140D01*
X28371Y21194D01*
X28340Y21240D01*
X28294Y21271D01*
X28240Y21281D01*
D02*
G37*
G36*
X41170Y20631D02*
X41116Y20621D01*
X41070Y20590D01*
X41039Y20544D01*
X41029Y20490D01*
X41039Y20436D01*
X41070Y20390D01*
X41116Y20359D01*
X41170Y20349D01*
X41224Y20359D01*
X41270Y20390D01*
X41301Y20436D01*
X41311Y20490D01*
X41301Y20544D01*
X41270Y20590D01*
X41224Y20621D01*
X41170Y20631D01*
D02*
G37*
G36*
X40050Y20141D02*
X39996Y20131D01*
X39950Y20100D01*
X39919Y20054D01*
X39909Y20000D01*
X39911Y19990D01*
X39792Y19872D01*
X39772Y19842D01*
X39765Y19807D01*
Y19747D01*
X39762Y19747D01*
X39681Y19713D01*
X39611Y19659D01*
X39557Y19589D01*
X39523Y19508D01*
X39512Y19420D01*
X39523Y19332D01*
X39557Y19251D01*
X39611Y19181D01*
X39681Y19127D01*
X39762Y19093D01*
X39850Y19082D01*
X39938Y19093D01*
X40019Y19127D01*
X40089Y19181D01*
X40143Y19251D01*
X40177Y19332D01*
X40188Y19420D01*
X40177Y19508D01*
X40143Y19589D01*
X40089Y19659D01*
X40019Y19713D01*
X39977Y19730D01*
X39968Y19788D01*
X40040Y19861D01*
X40050Y19859D01*
X40104Y19869D01*
X40150Y19900D01*
X40181Y19946D01*
X40191Y20000D01*
X40181Y20054D01*
X40150Y20100D01*
X40104Y20131D01*
X40050Y20141D01*
D02*
G37*
G36*
X41170Y19911D02*
X41116Y19901D01*
X41070Y19870D01*
X41039Y19824D01*
X41029Y19770D01*
X41039Y19716D01*
X41070Y19670D01*
X41116Y19639D01*
X41170Y19629D01*
X41224Y19639D01*
X41270Y19670D01*
X41301Y19716D01*
X41311Y19770D01*
X41301Y19824D01*
X41270Y19870D01*
X41224Y19901D01*
X41170Y19911D01*
D02*
G37*
G36*
X28660Y20841D02*
X28606Y20831D01*
X28560Y20800D01*
X28529Y20754D01*
X28519Y20700D01*
X28529Y20646D01*
X28560Y20600D01*
X28606Y20569D01*
X28642Y20562D01*
X28688Y20540D01*
X28699Y20486D01*
X28730Y20440D01*
X28776Y20410D01*
X28830Y20399D01*
X28865Y20359D01*
X28869Y20336D01*
X28900Y20290D01*
X28946Y20259D01*
X28978Y20253D01*
X29024Y20229D01*
X29035Y20175D01*
X29065Y20129D01*
X29111Y20098D01*
X29165Y20088D01*
X29171Y20089D01*
X29188Y20072D01*
X29199Y20018D01*
X29230Y19972D01*
X29275Y19941D01*
X29304Y19935D01*
X29344Y19907D01*
X29355Y19853D01*
X29386Y19807D01*
X29432Y19776D01*
X29486Y19766D01*
X29515Y19720D01*
X29519Y19696D01*
X29550Y19650D01*
X29596Y19619D01*
X29650Y19609D01*
X29704Y19619D01*
X29750Y19650D01*
X29781Y19696D01*
X29791Y19750D01*
X29781Y19804D01*
X29750Y19850D01*
X29704Y19881D01*
X29650Y19891D01*
X29621Y19937D01*
X29616Y19961D01*
X29586Y20007D01*
X29540Y20037D01*
X29511Y20043D01*
X29471Y20072D01*
X29460Y20126D01*
X29429Y20172D01*
X29383Y20202D01*
X29329Y20213D01*
X29324Y20212D01*
X29307Y20229D01*
X29296Y20283D01*
X29265Y20329D01*
X29219Y20359D01*
X29187Y20366D01*
X29141Y20390D01*
X29131Y20444D01*
X29100Y20490D01*
X29054Y20521D01*
X29000Y20531D01*
X28965Y20571D01*
X28960Y20594D01*
X28930Y20640D01*
X28884Y20671D01*
X28848Y20678D01*
X28801Y20700D01*
X28791Y20754D01*
X28760Y20800D01*
X28714Y20831D01*
X28660Y20841D01*
D02*
G37*
G36*
X36870Y19756D02*
Y19440D01*
X37186D01*
X37177Y19508D01*
X37143Y19589D01*
X37089Y19659D01*
X37019Y19713D01*
X36938Y19747D01*
X36870Y19756D01*
D02*
G37*
G36*
X36830D02*
X36762Y19747D01*
X36681Y19713D01*
X36611Y19659D01*
X36557Y19589D01*
X36523Y19508D01*
X36514Y19440D01*
X36830D01*
Y19756D01*
D02*
G37*
G36*
X40979Y19481D02*
X40925Y19471D01*
X40879Y19440D01*
X40848Y19394D01*
X40837Y19340D01*
X40848Y19286D01*
X40879Y19240D01*
X40925Y19209D01*
X40979Y19199D01*
X41033Y19209D01*
X41079Y19240D01*
X41109Y19286D01*
X41120Y19340D01*
X41109Y19394D01*
X41079Y19440D01*
X41033Y19471D01*
X40979Y19481D01*
D02*
G37*
G36*
X33370Y20371D02*
X33316Y20361D01*
X33270Y20330D01*
X33239Y20284D01*
X33229Y20230D01*
X33239Y20176D01*
X33270Y20130D01*
X33316Y20099D01*
X33358Y20091D01*
X33418Y20031D01*
Y19801D01*
X33175D01*
Y19260D01*
X32416Y18502D01*
X31225D01*
X31209Y18530D01*
X31225Y18558D01*
X31694D01*
X31730Y18565D01*
X31759Y18585D01*
X32345Y19171D01*
X32422Y19139D01*
X32510Y19127D01*
X32598Y19139D01*
X32679Y19173D01*
X32749Y19226D01*
X32803Y19297D01*
X32837Y19378D01*
X32848Y19466D01*
X32837Y19553D01*
X32803Y19635D01*
X32749Y19705D01*
X32687Y19752D01*
Y20085D01*
X32710Y20100D01*
X32741Y20146D01*
X32751Y20200D01*
X32741Y20254D01*
X32710Y20300D01*
X32664Y20331D01*
X32610Y20341D01*
X32556Y20331D01*
X32510Y20300D01*
X32479Y20254D01*
X32469Y20200D01*
X32479Y20146D01*
X32503Y20110D01*
Y19803D01*
X32422Y19792D01*
X32341Y19758D01*
X32271Y19705D01*
X32217Y19635D01*
X32183Y19553D01*
X32172Y19466D01*
X32183Y19378D01*
X32215Y19301D01*
X31656Y18742D01*
X31165D01*
X31160Y18750D01*
X31114Y18781D01*
X31060Y18791D01*
X31006Y18781D01*
X30960Y18750D01*
X30929Y18704D01*
X30919Y18650D01*
X30929Y18596D01*
X30951Y18564D01*
X30957Y18530D01*
X30951Y18496D01*
X30929Y18464D01*
X30919Y18410D01*
X30929Y18356D01*
X30960Y18310D01*
X31006Y18279D01*
X31060Y18269D01*
X31114Y18279D01*
X31160Y18310D01*
X31165Y18318D01*
X32454D01*
X32490Y18325D01*
X32519Y18345D01*
X33305Y19130D01*
X33845D01*
Y19801D01*
X33602D01*
Y20069D01*
X33595Y20104D01*
X33575Y20134D01*
X33506Y20203D01*
X33511Y20230D01*
X33501Y20284D01*
X33470Y20330D01*
X33424Y20361D01*
X33370Y20371D01*
D02*
G37*
G36*
X34850Y20221D02*
X34796Y20211D01*
X34750Y20180D01*
X34719Y20134D01*
X34709Y20080D01*
X34719Y20026D01*
X34750Y19980D01*
X34758Y19975D01*
Y19755D01*
X34515D01*
Y19085D01*
X35185D01*
Y19755D01*
X34942D01*
Y19975D01*
X34950Y19980D01*
X34981Y20026D01*
X34991Y20080D01*
X34981Y20134D01*
X34950Y20180D01*
X34904Y20211D01*
X34850Y20221D01*
D02*
G37*
G36*
X36830Y19400D02*
X36514D01*
X36523Y19332D01*
X36557Y19251D01*
X36611Y19181D01*
X36681Y19127D01*
X36762Y19093D01*
X36830Y19084D01*
Y19400D01*
D02*
G37*
G36*
X38850Y20171D02*
X38796Y20161D01*
X38750Y20130D01*
X38719Y20084D01*
X38709Y20030D01*
X38719Y19976D01*
X38750Y19930D01*
X38758Y19925D01*
Y19745D01*
X38681Y19713D01*
X38611Y19659D01*
X38557Y19589D01*
X38523Y19508D01*
X38512Y19420D01*
X38523Y19332D01*
X38557Y19251D01*
X38611Y19181D01*
X38681Y19127D01*
X38762Y19093D01*
X38850Y19082D01*
X38938Y19093D01*
X39019Y19127D01*
X39089Y19181D01*
X39143Y19251D01*
X39177Y19332D01*
X39188Y19420D01*
X39177Y19508D01*
X39143Y19589D01*
X39089Y19659D01*
X39019Y19713D01*
X38942Y19745D01*
Y19925D01*
X38950Y19930D01*
X38981Y19976D01*
X38991Y20030D01*
X38981Y20084D01*
X38950Y20130D01*
X38904Y20161D01*
X38850Y20171D01*
D02*
G37*
G36*
X37860Y20181D02*
X37806Y20171D01*
X37760Y20140D01*
X37729Y20094D01*
X37719Y20040D01*
X37729Y19986D01*
X37760Y19940D01*
X37763Y19938D01*
Y19747D01*
X37762Y19747D01*
X37681Y19713D01*
X37611Y19659D01*
X37557Y19589D01*
X37523Y19508D01*
X37512Y19420D01*
X37523Y19332D01*
X37557Y19251D01*
X37611Y19181D01*
X37681Y19127D01*
X37762Y19093D01*
X37850Y19082D01*
X37938Y19093D01*
X38019Y19127D01*
X38089Y19181D01*
X38143Y19251D01*
X38177Y19332D01*
X38188Y19420D01*
X38177Y19508D01*
X38143Y19589D01*
X38089Y19659D01*
X38019Y19713D01*
X37947Y19743D01*
Y19931D01*
X37960Y19940D01*
X37991Y19986D01*
X38001Y20040D01*
X37991Y20094D01*
X37960Y20140D01*
X37914Y20171D01*
X37860Y20181D01*
D02*
G37*
G36*
X35810Y20201D02*
X35756Y20191D01*
X35710Y20160D01*
X35679Y20114D01*
X35669Y20060D01*
X35679Y20006D01*
X35710Y19960D01*
X35733Y19945D01*
Y19734D01*
X35681Y19713D01*
X35611Y19659D01*
X35557Y19589D01*
X35523Y19508D01*
X35512Y19420D01*
X35523Y19332D01*
X35557Y19251D01*
X35611Y19181D01*
X35681Y19127D01*
X35762Y19093D01*
X35850Y19082D01*
X35938Y19093D01*
X36019Y19127D01*
X36089Y19181D01*
X36143Y19251D01*
X36177Y19332D01*
X36188Y19420D01*
X36177Y19508D01*
X36143Y19589D01*
X36089Y19659D01*
X36019Y19713D01*
X35938Y19747D01*
X35917Y19749D01*
Y19970D01*
X35941Y20006D01*
X35951Y20060D01*
X35941Y20114D01*
X35910Y20160D01*
X35864Y20191D01*
X35810Y20201D01*
D02*
G37*
G36*
X37186Y19400D02*
X36870D01*
Y19084D01*
X36938Y19093D01*
X37019Y19127D01*
X37056Y19092D01*
X37049Y19083D01*
X37039Y19029D01*
X37049Y18975D01*
X37080Y18929D01*
X37126Y18898D01*
X37180Y18887D01*
X37234Y18898D01*
X37280Y18929D01*
X37311Y18975D01*
X37321Y19029D01*
X37311Y19083D01*
X37280Y19129D01*
X37234Y19159D01*
X37180Y19170D01*
X37137Y19161D01*
X37110Y19192D01*
X37105Y19202D01*
X37143Y19251D01*
X37177Y19332D01*
X37186Y19400D01*
D02*
G37*
G36*
X29950Y19071D02*
X29896Y19061D01*
X29850Y19030D01*
X29819Y18984D01*
X29809Y18930D01*
X29819Y18876D01*
X29850Y18830D01*
X29896Y18799D01*
X29950Y18789D01*
X30004Y18799D01*
X30050Y18830D01*
X30081Y18876D01*
X30091Y18930D01*
X30081Y18984D01*
X30050Y19030D01*
X30004Y19061D01*
X29950Y19071D01*
D02*
G37*
G36*
X40800Y19011D02*
X40746Y19001D01*
X40700Y18970D01*
X40669Y18924D01*
X40659Y18870D01*
X40669Y18816D01*
X40700Y18770D01*
X40746Y18739D01*
X40800Y18729D01*
X40854Y18739D01*
X40900Y18770D01*
X40931Y18816D01*
X40941Y18870D01*
X40931Y18924D01*
X40900Y18970D01*
X40854Y19001D01*
X40800Y19011D01*
D02*
G37*
G36*
X38180Y18991D02*
X38126Y18981D01*
X38080Y18950D01*
X38049Y18904D01*
X38039Y18850D01*
X38049Y18796D01*
X38080Y18750D01*
X38126Y18719D01*
X38180Y18709D01*
X38234Y18719D01*
X38280Y18750D01*
X38311Y18796D01*
X38321Y18850D01*
X38311Y18904D01*
X38280Y18950D01*
X38234Y18981D01*
X38180Y18991D01*
D02*
G37*
G36*
X25500Y19471D02*
X25446Y19461D01*
X25400Y19430D01*
X25369Y19384D01*
X25359Y19330D01*
X25369Y19276D01*
X25400Y19230D01*
X25446Y19199D01*
X25500Y19189D01*
X25529Y19194D01*
X25544Y19182D01*
X25566Y19152D01*
X25557Y19108D01*
X25568Y19054D01*
X25598Y19008D01*
X25644Y18978D01*
X25698Y18967D01*
X25712Y18970D01*
X25755Y18927D01*
X25752Y18913D01*
X25763Y18859D01*
X25793Y18813D01*
X25839Y18783D01*
X25893Y18772D01*
X25947Y18783D01*
X25993Y18813D01*
X26024Y18859D01*
X26035Y18913D01*
X26034Y18919D01*
X26076Y18961D01*
X26090Y18959D01*
X26123Y18965D01*
X26139Y18950D01*
X26149Y18896D01*
X26180Y18850D01*
X26226Y18819D01*
X26280Y18809D01*
X26303Y18813D01*
X26359Y18786D01*
X26390Y18740D01*
X26436Y18709D01*
X26490Y18699D01*
X26544Y18709D01*
X26590Y18740D01*
X26621Y18786D01*
X26631Y18840D01*
X26628Y18858D01*
X26670Y18901D01*
X26680Y18899D01*
X26700Y18903D01*
X26743Y18860D01*
X26739Y18840D01*
X26749Y18786D01*
X26780Y18740D01*
X26826Y18709D01*
X26880Y18699D01*
X26934Y18709D01*
X26980Y18740D01*
X27011Y18786D01*
X27021Y18840D01*
X27011Y18894D01*
X26980Y18940D01*
X26934Y18971D01*
X26880Y18981D01*
X26860Y18977D01*
X26817Y19020D01*
X26821Y19040D01*
X26811Y19094D01*
X26780Y19140D01*
X26734Y19171D01*
X26680Y19181D01*
X26626Y19171D01*
X26580Y19140D01*
X26549Y19094D01*
X26539Y19040D01*
X26542Y19022D01*
X26500Y18979D01*
X26490Y18981D01*
X26467Y18977D01*
X26411Y19004D01*
X26380Y19050D01*
X26334Y19081D01*
X26280Y19091D01*
X26247Y19085D01*
X26231Y19100D01*
X26221Y19154D01*
X26190Y19200D01*
X26144Y19231D01*
X26090Y19241D01*
X26036Y19231D01*
X25990Y19200D01*
X25959Y19154D01*
X25949Y19100D01*
X25912Y19067D01*
X25874D01*
X25839Y19107D01*
X25840Y19108D01*
X25829Y19162D01*
X25798Y19208D01*
X25752Y19239D01*
X25698Y19250D01*
X25669Y19244D01*
X25655Y19256D01*
X25633Y19287D01*
X25641Y19330D01*
X25631Y19384D01*
X25600Y19430D01*
X25554Y19461D01*
X25500Y19471D01*
D02*
G37*
G36*
X25300Y18841D02*
X25246Y18831D01*
X25200Y18800D01*
X25169Y18754D01*
X25159Y18700D01*
X25169Y18646D01*
X25200Y18600D01*
X25246Y18569D01*
X25300Y18559D01*
X25354Y18569D01*
X25400Y18600D01*
X25431Y18646D01*
X25441Y18700D01*
X25431Y18754D01*
X25400Y18800D01*
X25354Y18831D01*
X25300Y18841D01*
D02*
G37*
G36*
X30030Y18751D02*
X29976Y18741D01*
X29930Y18710D01*
X29899Y18664D01*
X29889Y18610D01*
X29899Y18556D01*
X29930Y18510D01*
X29976Y18479D01*
X30030Y18469D01*
X30084Y18479D01*
X30130Y18510D01*
X30161Y18556D01*
X30171Y18610D01*
X30161Y18664D01*
X30130Y18710D01*
X30084Y18741D01*
X30030Y18751D01*
D02*
G37*
G36*
X29440Y17091D02*
X29386Y17081D01*
X29340Y17050D01*
X29309Y17004D01*
X29299Y16950D01*
X29309Y16896D01*
X29340Y16850D01*
X29386Y16819D01*
X29440Y16809D01*
X29494Y16819D01*
X29540Y16850D01*
X29571Y16896D01*
X29581Y16950D01*
X29571Y17004D01*
X29540Y17050D01*
X29494Y17081D01*
X29440Y17091D01*
D02*
G37*
G36*
X33080Y17053D02*
Y16540D01*
X33448D01*
Y16668D01*
X33435Y16768D01*
X33396Y16862D01*
X33334Y16942D01*
X33254Y17003D01*
X33160Y17042D01*
X33080Y17053D01*
D02*
G37*
G36*
X33040D02*
X32960Y17042D01*
X32866Y17003D01*
X32786Y16942D01*
X32724Y16862D01*
X32685Y16768D01*
X32672Y16668D01*
Y16540D01*
X33040D01*
Y17053D01*
D02*
G37*
G36*
X45610Y16491D02*
X45556Y16481D01*
X45510Y16450D01*
X45479Y16404D01*
X45469Y16350D01*
X45479Y16296D01*
X45510Y16250D01*
X45556Y16219D01*
X45610Y16209D01*
X45664Y16219D01*
X45710Y16250D01*
X45741Y16296D01*
X45751Y16350D01*
X45741Y16404D01*
X45710Y16450D01*
X45664Y16481D01*
X45610Y16491D01*
D02*
G37*
G36*
X33448Y16500D02*
X33080D01*
Y15987D01*
X33160Y15998D01*
X33254Y16037D01*
X33334Y16098D01*
X33396Y16178D01*
X33435Y16272D01*
X33448Y16372D01*
Y16500D01*
D02*
G37*
G36*
X33040D02*
X32672D01*
Y16372D01*
X32685Y16272D01*
X32724Y16178D01*
X32786Y16098D01*
X32866Y16037D01*
X32960Y15998D01*
X33040Y15987D01*
Y16500D01*
D02*
G37*
G36*
X24255Y20375D02*
X23585D01*
Y19705D01*
X23803D01*
Y19040D01*
Y18040D01*
X23812Y17995D01*
X23837Y17957D01*
X27047Y14747D01*
X27085Y14722D01*
X27130Y14713D01*
X35318D01*
X35320Y14710D01*
X35366Y14679D01*
X35420Y14669D01*
X35474Y14679D01*
X35494Y14693D01*
X38606D01*
X38651Y14702D01*
X38689Y14727D01*
X42943Y18981D01*
X42968Y19019D01*
X42977Y19064D01*
Y19506D01*
X42991Y19526D01*
X43001Y19580D01*
X42991Y19634D01*
X42960Y19680D01*
X42914Y19711D01*
X42860Y19721D01*
X42806Y19711D01*
X42760Y19680D01*
X42729Y19634D01*
X42719Y19580D01*
X42729Y19526D01*
X42743Y19506D01*
Y19113D01*
X38557Y14927D01*
X35494D01*
X35474Y14941D01*
X35420Y14951D01*
X35400Y14947D01*
X34739D01*
X34177Y15509D01*
Y16005D01*
X34254Y16037D01*
X34334Y16098D01*
X34396Y16178D01*
X34435Y16272D01*
X34448Y16372D01*
Y16668D01*
X34435Y16768D01*
X34396Y16862D01*
X34334Y16942D01*
X34254Y17003D01*
X34160Y17042D01*
X34060Y17055D01*
X33960Y17042D01*
X33866Y17003D01*
X33786Y16942D01*
X33724Y16862D01*
X33685Y16768D01*
X33672Y16668D01*
Y16372D01*
X33685Y16272D01*
X33724Y16178D01*
X33786Y16098D01*
X33866Y16037D01*
X33943Y16005D01*
Y15460D01*
X33952Y15415D01*
X33977Y15377D01*
X34361Y14993D01*
X34342Y14947D01*
X27179D01*
X24037Y18089D01*
Y18955D01*
X24242D01*
X24287Y18963D01*
X24325Y18989D01*
X24441Y19105D01*
X24464Y19109D01*
X24510Y19140D01*
X24541Y19186D01*
X24551Y19240D01*
X24541Y19294D01*
X24510Y19340D01*
X24464Y19371D01*
X24410Y19381D01*
X24356Y19371D01*
X24310Y19340D01*
X24279Y19294D01*
X24275Y19271D01*
X24193Y19189D01*
X24037D01*
Y19705D01*
X24255D01*
Y20375D01*
D02*
G37*
G36*
X47100Y15059D02*
Y14250D01*
X47909D01*
X47895Y14392D01*
X47848Y14548D01*
X47771Y14692D01*
X47668Y14818D01*
X47542Y14921D01*
X47398Y14998D01*
X47242Y15045D01*
X47100Y15059D01*
D02*
G37*
G36*
X47060D02*
X46918Y15045D01*
X46762Y14998D01*
X46618Y14921D01*
X46492Y14818D01*
X46389Y14692D01*
X46312Y14548D01*
X46265Y14392D01*
X46251Y14250D01*
X47060D01*
Y15059D01*
D02*
G37*
G36*
X47909Y14210D02*
X47100D01*
Y13401D01*
X47242Y13415D01*
X47398Y13462D01*
X47542Y13539D01*
X47668Y13642D01*
X47771Y13768D01*
X47848Y13912D01*
X47895Y14068D01*
X47909Y14210D01*
D02*
G37*
G36*
X47060D02*
X46251D01*
X46265Y14068D01*
X46312Y13912D01*
X46389Y13768D01*
X46492Y13642D01*
X46618Y13539D01*
X46762Y13462D01*
X46918Y13415D01*
X47060Y13401D01*
Y14210D01*
D02*
G37*
%LPD*%
D94*
X31410Y40950D02*
X33259D01*
X33339Y40870D01*
X33360D01*
X38090Y27740D02*
X38710D01*
X33360Y26800D02*
X37560D01*
X37390Y26560D02*
X39040D01*
X41130Y28650D01*
X39857Y19807D02*
X40050Y20000D01*
X39850Y19420D02*
X39857Y19427D01*
Y19807D01*
X38850Y19420D02*
Y20030D01*
X39110Y31670D02*
X39518Y31262D01*
X42557D01*
X23920Y23040D02*
X27200Y26320D01*
Y28180D01*
X26279Y26399D02*
Y26970D01*
X24710Y22590D02*
X27750Y25630D01*
X23920Y24040D02*
X26279Y26399D01*
X37390Y23170D02*
Y26250D01*
X36500Y22280D02*
X37390Y23170D01*
X33795Y26560D02*
X37390D01*
Y26250D02*
Y26560D01*
X41130Y28650D02*
Y29920D01*
X32735Y25500D02*
X33795Y26560D01*
X31300Y37070D02*
X35530D01*
X35950Y36650D01*
X24710Y20980D02*
Y21250D01*
X24910Y20050D02*
Y22290D01*
X28290Y25670D01*
X23920Y21040D02*
X24910Y20050D01*
X24710Y21250D02*
Y22590D01*
X24820Y25940D02*
Y30870D01*
X23920Y25040D02*
X24820Y25940D01*
X24910Y19140D02*
Y20050D01*
X23920Y22040D02*
X24710Y21250D01*
X30070Y33380D02*
X30950Y34260D01*
X27330Y33380D02*
X30070D01*
X24820Y30870D02*
X27330Y33380D01*
X28730Y33590D02*
X29390Y34250D01*
X24610Y30930D02*
X27270Y33590D01*
X28730D01*
X24610Y26730D02*
Y30930D01*
X23920Y26040D02*
X24610Y26730D01*
X38370Y29060D02*
X38700Y28730D01*
X38180Y29060D02*
X38370D01*
X38700Y28730D02*
X38710Y28740D01*
Y30740D02*
X40310D01*
X41130Y29920D01*
X30217Y23657D02*
X33360Y26800D01*
X30217Y19823D02*
Y23657D01*
X31060Y18650D02*
X31694D01*
X37855Y19425D02*
Y20035D01*
X37850Y19420D02*
X37855Y19425D01*
Y20035D02*
X37860Y20040D01*
X34860Y19490D02*
X34870Y19480D01*
X34850Y19420D02*
Y19490D01*
Y20080D01*
X35810Y20060D02*
X35825Y20045D01*
Y19490D02*
Y20045D01*
X35860Y19490D02*
X35870Y19480D01*
X35825Y19445D02*
X35850Y19420D01*
X35825Y19445D02*
Y19490D01*
X31694Y18650D02*
X32510Y19466D01*
X32454Y18410D02*
X33510Y19466D01*
X31060Y18410D02*
X32454D01*
X32510Y19466D02*
X32595Y19551D01*
Y20185D01*
X32610Y20200D01*
X33370Y20209D02*
Y20230D01*
Y20209D02*
X33510Y20069D01*
Y19466D02*
Y20069D01*
X41710Y33040D02*
X41713Y33037D01*
X42554D01*
X42557Y33034D01*
X41720Y32240D02*
X41723Y32243D01*
X42554D01*
X42557Y32246D01*
D95*
X42860Y19064D02*
Y19580D01*
X38606Y14810D02*
X42860Y19064D01*
X35420Y14810D02*
X38606D01*
X23920Y19040D02*
X23952Y19072D01*
X24242D01*
X24410Y19240D01*
X23920Y19040D02*
Y20040D01*
Y18040D02*
Y19040D01*
X27130Y14830D02*
X34690D01*
X23920Y18040D02*
X27130Y14830D01*
X35400D02*
X35420Y14810D01*
X34690Y14830D02*
X35400D01*
X34060Y15460D02*
X34690Y14830D01*
X34060Y15460D02*
Y16520D01*
D97*
X42557Y31262D02*
D03*
Y33034D02*
D03*
Y32246D02*
D03*
Y34018D02*
D03*
D98*
X43624Y30053D02*
D03*
Y35227D02*
D03*
D99*
X38710Y27740D02*
D03*
Y28740D02*
D03*
Y29740D02*
D03*
X23920Y27040D02*
D03*
Y26040D02*
D03*
Y25040D02*
D03*
Y24040D02*
D03*
Y23040D02*
D03*
Y22040D02*
D03*
Y21040D02*
D03*
X39850Y19420D02*
D03*
X38850D02*
D03*
X37850D02*
D03*
X36850D02*
D03*
X35850D02*
D03*
X32510Y19466D02*
D03*
D100*
X38710Y30740D02*
D03*
X23920Y20040D02*
D03*
D101*
X34850Y19420D02*
D03*
X33510Y19466D02*
D03*
D102*
X33060Y16520D02*
D03*
X34060D02*
D03*
D103*
X45147Y44030D02*
D03*
Y39030D02*
D03*
D104*
X28090Y22910D02*
D03*
X36590Y34600D02*
D03*
X24700Y40060D02*
D03*
X47080Y14230D02*
D03*
D105*
X46460Y25363D02*
D03*
Y27962D02*
D03*
D106*
X42330Y26130D02*
D03*
X42310Y26700D02*
D03*
X34900Y21850D02*
D03*
X38720Y21820D02*
D03*
X31410Y40950D02*
D03*
X33360Y40870D02*
D03*
X36370Y28420D02*
D03*
X38090Y27740D02*
D03*
X37080Y27620D02*
D03*
X37560Y26800D02*
D03*
X36590Y27530D02*
D03*
X41520Y26580D02*
D03*
X37180Y19029D02*
D03*
X44250Y26540D02*
D03*
X28950Y40390D02*
D03*
X29010Y38820D02*
D03*
X42860Y19580D02*
D03*
X40050Y20000D02*
D03*
X38850Y20030D02*
D03*
X41170Y19770D02*
D03*
X40800Y18870D02*
D03*
X39110Y31670D02*
D03*
X30360Y36860D02*
D03*
X26280Y18950D02*
D03*
X30950Y34260D02*
D03*
X29390Y34250D02*
D03*
X27200Y28180D02*
D03*
X26279Y26970D02*
D03*
X27750Y25630D02*
D03*
X28950Y37440D02*
D03*
X29920Y38510D02*
D03*
X28460Y38110D02*
D03*
X26090Y19100D02*
D03*
X25893Y18913D02*
D03*
X25698Y19108D02*
D03*
X27460Y39500D02*
D03*
X25500Y19330D02*
D03*
X26470Y38020D02*
D03*
X25300Y18700D02*
D03*
X31300Y23430D02*
D03*
X36500Y22280D02*
D03*
X37390Y26250D02*
D03*
X36340Y25810D02*
D03*
X32273Y39953D02*
D03*
X32330Y39450D02*
D03*
X32003Y39957D02*
D03*
X33030Y40680D02*
D03*
X33610Y39540D02*
D03*
X35950Y36650D02*
D03*
X31300Y37070D02*
D03*
X26480Y39921D02*
D03*
X24410Y19240D02*
D03*
X24710Y20980D02*
D03*
X24820Y25940D02*
D03*
X24910Y19140D02*
D03*
X29440Y16950D02*
D03*
X26490Y18840D02*
D03*
X28290Y25670D02*
D03*
X30545Y38620D02*
D03*
X30220Y43860D02*
D03*
X29230Y40110D02*
D03*
X30966Y38455D02*
D03*
X30730Y38480D02*
D03*
X26680Y19040D02*
D03*
X26880Y18840D02*
D03*
X30030Y44380D02*
D03*
X32230Y42040D02*
D03*
X32580Y40670D02*
D03*
X31870Y42730D02*
D03*
X32430Y43280D02*
D03*
X39740Y38520D02*
D03*
X37510Y38880D02*
D03*
X30551Y41120D02*
D03*
X30740Y40910D02*
D03*
X39050Y43260D02*
D03*
X33380Y42850D02*
D03*
X33350Y43790D02*
D03*
Y43340D02*
D03*
X32880Y43640D02*
D03*
X40030Y41320D02*
D03*
X38180Y29060D02*
D03*
X41130Y29920D02*
D03*
X39320Y32210D02*
D03*
X28400Y20970D02*
D03*
X28240Y21140D02*
D03*
X39290Y32960D02*
D03*
X29628Y23102D02*
D03*
X31980Y25100D02*
D03*
X40920Y21510D02*
D03*
X28660Y20700D02*
D03*
X40910Y21070D02*
D03*
X28830Y20540D02*
D03*
X29486Y19907D02*
D03*
X29000Y20390D02*
D03*
X29650Y19750D02*
D03*
X29165Y20229D02*
D03*
X29329Y20072D02*
D03*
X39830Y22330D02*
D03*
X41170Y20490D02*
D03*
X40979Y19340D02*
D03*
X45610Y16350D02*
D03*
X30217Y19823D02*
D03*
X32735Y25500D02*
D03*
X32481Y24510D02*
D03*
X32510Y24211D02*
D03*
X29950Y18930D02*
D03*
X30030Y18610D02*
D03*
X38180Y18850D02*
D03*
X31060Y18650D02*
D03*
X37860Y20040D02*
D03*
X34850Y20080D02*
D03*
X35810Y20060D02*
D03*
X31060Y18410D02*
D03*
X32610Y20200D02*
D03*
X33370Y20230D02*
D03*
X29644Y27787D02*
D03*
X36830Y24800D02*
D03*
X36840Y24410D02*
D03*
X37010Y24600D02*
D03*
X41710Y33040D02*
D03*
X41720Y32240D02*
D03*
X38052Y24849D02*
D03*
X35420Y14810D02*
D03*
D107*
X26630Y40610D02*
D03*
D108*
X30686Y39574D02*
D03*
Y40046D02*
D03*
M02*
