G04*
G04 #@! TF.GenerationSoftware,Altium Limited,Altium Designer,20.1.11 (218)*
G04*
G04 Layer_Color=255*
%FSLAX24Y24*%
%MOIN*%
G70*
G04*
G04 #@! TF.SameCoordinates,FE305F3D-5073-4B85-8CB4-D00664FC1F7A*
G04*
G04*
G04 #@! TF.FilePolarity,Positive*
G04*
G01*
G75*
%ADD97C,0.0669*%
%ADD98C,0.1181*%
%ADD99C,0.0591*%
%ADD100R,0.0591X0.0591*%
%ADD101R,0.0591X0.0591*%
%ADD102O,0.0689X0.0984*%
%ADD103C,0.0656*%
%ADD104C,0.1575*%
%ADD105O,0.0630X0.0354*%
D97*
X42557Y31262D02*
D03*
Y33034D02*
D03*
Y32246D02*
D03*
Y34018D02*
D03*
D98*
X43624Y30053D02*
D03*
Y35227D02*
D03*
D99*
X38710Y27740D02*
D03*
Y28740D02*
D03*
Y29740D02*
D03*
X23920Y27040D02*
D03*
Y26040D02*
D03*
Y25040D02*
D03*
Y24040D02*
D03*
Y23040D02*
D03*
Y22040D02*
D03*
Y21040D02*
D03*
X39850Y19420D02*
D03*
X38850D02*
D03*
X37850D02*
D03*
X36850D02*
D03*
X35850D02*
D03*
X32510Y19466D02*
D03*
D100*
X38710Y30740D02*
D03*
X23920Y20040D02*
D03*
D101*
X34850Y19420D02*
D03*
X33510Y19466D02*
D03*
D102*
X33060Y16520D02*
D03*
X34060D02*
D03*
D103*
X45147Y44030D02*
D03*
Y39030D02*
D03*
D104*
X28090Y22910D02*
D03*
X36590Y34600D02*
D03*
X24700Y40060D02*
D03*
X47080Y14230D02*
D03*
D105*
X46460Y25363D02*
D03*
Y27962D02*
D03*
M02*
