G04*
G04 #@! TF.GenerationSoftware,Altium Limited,Altium Designer,20.1.11 (218)*
G04*
G04 Layer_Color=255*
%FSLAX24Y24*%
%MOIN*%
G70*
G04*
G04 #@! TF.SameCoordinates,FE305F3D-5073-4B85-8CB4-D00664FC1F7A*
G04*
G04*
G04 #@! TF.FilePolarity,Positive*
G04*
G01*
G75*
%ADD14R,0.0354X0.0315*%
%ADD15R,0.0472X0.0236*%
%ADD16R,0.0300X0.0300*%
%ADD17R,0.0512X0.0512*%
%ADD18R,0.0630X0.1102*%
%ADD19R,0.0315X0.0354*%
%ADD20R,0.0400X0.0320*%
%ADD21R,0.0320X0.0400*%
%ADD22R,0.0315X0.0354*%
%ADD23R,0.0551X0.0433*%
%ADD24R,0.0453X0.0236*%
%ADD25R,0.0906X0.0709*%
%ADD26R,0.1535X0.0984*%
%ADD27R,0.1201X0.0240*%
%ADD28R,0.0433X0.1024*%
%ADD29R,0.0551X0.0252*%
%ADD30R,0.0433X0.0551*%
%ADD31R,0.0472X0.1378*%
%ADD32R,0.0581X0.0118*%
%ADD33R,0.0118X0.0581*%
%ADD34R,0.0433X0.0276*%
%ADD35R,0.0720X0.0449*%
%ADD36R,0.1102X0.0339*%
%ADD37R,0.1311X0.0276*%
%ADD38R,0.0366X0.0354*%
%ADD39R,0.0307X0.0413*%
%ADD40R,0.0118X0.0512*%
%ADD41R,0.0709X0.0866*%
%ADD42R,0.0272X0.0110*%
%ADD43R,0.0984X0.0984*%
%ADD44R,0.0110X0.0272*%
%ADD45O,0.0531X0.0157*%
%ADD46R,0.0709X0.0748*%
G04:AMPARAMS|DCode=47|XSize=63mil|YSize=55.1mil|CornerRadius=13.8mil|HoleSize=0mil|Usage=FLASHONLY|Rotation=270.000|XOffset=0mil|YOffset=0mil|HoleType=Round|Shape=RoundedRectangle|*
%AMROUNDEDRECTD47*
21,1,0.0630,0.0276,0,0,270.0*
21,1,0.0354,0.0551,0,0,270.0*
1,1,0.0276,-0.0138,-0.0177*
1,1,0.0276,-0.0138,0.0177*
1,1,0.0276,0.0138,0.0177*
1,1,0.0276,0.0138,-0.0177*
%
%ADD47ROUNDEDRECTD47*%
%ADD97C,0.0669*%
%ADD98C,0.1181*%
%ADD99C,0.0591*%
%ADD100R,0.0591X0.0591*%
%ADD101R,0.0591X0.0591*%
%ADD102O,0.0689X0.0984*%
%ADD103C,0.0656*%
%ADD104C,0.1575*%
%ADD105O,0.0630X0.0354*%
D14*
X30360Y41590D02*
D03*
Y42141D02*
D03*
X31170Y41380D02*
D03*
Y41931D02*
D03*
X31740Y41936D02*
D03*
Y41384D02*
D03*
X27620Y41969D02*
D03*
Y42520D02*
D03*
X27465Y39849D02*
D03*
Y40400D02*
D03*
X27987Y39859D02*
D03*
Y40410D02*
D03*
X28510Y40400D02*
D03*
Y39849D02*
D03*
X28607Y38546D02*
D03*
Y39097D02*
D03*
X28085Y38586D02*
D03*
Y39137D02*
D03*
X27512Y38579D02*
D03*
Y39130D02*
D03*
X26990Y38580D02*
D03*
Y39131D02*
D03*
X26467Y38579D02*
D03*
Y39130D02*
D03*
X29320Y37441D02*
D03*
Y37993D02*
D03*
X29843Y37441D02*
D03*
Y37993D02*
D03*
X30390Y37441D02*
D03*
Y37993D02*
D03*
X30913Y37441D02*
D03*
Y37993D02*
D03*
X32197Y37639D02*
D03*
Y38190D02*
D03*
X32710Y38196D02*
D03*
Y37644D02*
D03*
X33240Y37649D02*
D03*
Y38200D02*
D03*
X33760Y37644D02*
D03*
Y38196D02*
D03*
X34280Y37644D02*
D03*
Y38196D02*
D03*
X36340Y37976D02*
D03*
Y37424D02*
D03*
X36923Y37976D02*
D03*
Y37424D02*
D03*
X37495Y37986D02*
D03*
Y37434D02*
D03*
X38068Y37976D02*
D03*
Y37424D02*
D03*
X39370Y37881D02*
D03*
Y37330D02*
D03*
X39987Y34539D02*
D03*
Y35090D02*
D03*
X40540Y34544D02*
D03*
Y35096D02*
D03*
X42210Y27591D02*
D03*
Y27040D02*
D03*
X41687Y24442D02*
D03*
Y23891D02*
D03*
X38787Y23816D02*
D03*
Y23264D02*
D03*
X39360Y23264D02*
D03*
Y23816D02*
D03*
X27740Y27470D02*
D03*
Y26919D02*
D03*
X28290Y27456D02*
D03*
Y26904D02*
D03*
X27200Y26904D02*
D03*
Y27456D02*
D03*
X26610Y26924D02*
D03*
Y27476D02*
D03*
X31910Y21590D02*
D03*
Y21039D02*
D03*
X34860Y20440D02*
D03*
Y20991D02*
D03*
X35810D02*
D03*
Y20440D02*
D03*
X37880Y20429D02*
D03*
Y20980D02*
D03*
X38850Y20454D02*
D03*
Y21006D02*
D03*
X35390Y17106D02*
D03*
Y16554D02*
D03*
X35932Y27091D02*
D03*
Y26540D02*
D03*
X35359Y26514D02*
D03*
Y27066D02*
D03*
X32210Y25966D02*
D03*
Y26517D02*
D03*
X34786Y26514D02*
D03*
Y27066D02*
D03*
X34214Y26514D02*
D03*
Y27066D02*
D03*
X31610Y26523D02*
D03*
Y25972D02*
D03*
X31610Y24887D02*
D03*
Y25439D02*
D03*
X31010Y24887D02*
D03*
Y25439D02*
D03*
X37100Y25906D02*
D03*
Y25354D02*
D03*
X37179Y23219D02*
D03*
Y23770D02*
D03*
X40130Y27039D02*
D03*
Y27590D02*
D03*
X44210Y28066D02*
D03*
Y27514D02*
D03*
X38377Y32524D02*
D03*
Y33076D02*
D03*
X38910Y32524D02*
D03*
Y33076D02*
D03*
X43770Y15284D02*
D03*
Y15836D02*
D03*
X44290Y15284D02*
D03*
Y15836D02*
D03*
X45880Y15836D02*
D03*
Y15284D02*
D03*
X44810Y15284D02*
D03*
Y15836D02*
D03*
X45323Y15289D02*
D03*
Y15840D02*
D03*
X43250Y15284D02*
D03*
Y15836D02*
D03*
D15*
X31642Y43406D02*
D03*
Y43780D02*
D03*
Y44154D02*
D03*
X30658D02*
D03*
Y43780D02*
D03*
Y43406D02*
D03*
X43822Y26126D02*
D03*
Y26500D02*
D03*
Y26874D02*
D03*
X42838D02*
D03*
Y26500D02*
D03*
Y26126D02*
D03*
X39813Y32216D02*
D03*
Y32590D02*
D03*
Y32964D02*
D03*
X40798D02*
D03*
Y32590D02*
D03*
Y32216D02*
D03*
D16*
X29565Y44330D02*
D03*
X29015D02*
D03*
D17*
X28593Y41901D02*
D03*
X29420D02*
D03*
Y42570D02*
D03*
X28593D02*
D03*
D18*
X25780Y44066D02*
D03*
Y42374D02*
D03*
D19*
X27219Y41433D02*
D03*
X27770D02*
D03*
X26096Y37330D02*
D03*
X25544D02*
D03*
X38834Y43730D02*
D03*
X39386D02*
D03*
X39389Y44253D02*
D03*
X38838D02*
D03*
X41584Y25247D02*
D03*
X42136D02*
D03*
X42734Y25312D02*
D03*
X43286D02*
D03*
X41709Y23240D02*
D03*
X42260D02*
D03*
X37816Y29080D02*
D03*
X37264D02*
D03*
X37821Y28540D02*
D03*
X37270D02*
D03*
X25279Y27520D02*
D03*
X25830D02*
D03*
X40066Y20410D02*
D03*
X39514D02*
D03*
X28054Y37470D02*
D03*
X28606D02*
D03*
X32339Y43960D02*
D03*
X32890D02*
D03*
X32329Y44550D02*
D03*
X32880D02*
D03*
X29556Y43690D02*
D03*
X29004D02*
D03*
X31734Y23710D02*
D03*
X32286D02*
D03*
Y22616D02*
D03*
X31734D02*
D03*
X32286Y23188D02*
D03*
X31734D02*
D03*
X33661Y26516D02*
D03*
X33110D02*
D03*
X36484Y26540D02*
D03*
X37036D02*
D03*
X30234Y23394D02*
D03*
X30786D02*
D03*
X30454Y27500D02*
D03*
X31006D02*
D03*
X35494Y36030D02*
D03*
X36046D02*
D03*
X26096Y37843D02*
D03*
X25544D02*
D03*
X37660Y24390D02*
D03*
X38211D02*
D03*
X37683Y23817D02*
D03*
X38235D02*
D03*
X27790Y40910D02*
D03*
X27239D02*
D03*
X43344Y23240D02*
D03*
X42793D02*
D03*
X42136Y25760D02*
D03*
X41584D02*
D03*
X36211Y21709D02*
D03*
X35660D02*
D03*
X38080Y36850D02*
D03*
X37529D02*
D03*
X38584Y33625D02*
D03*
X39136D02*
D03*
D20*
X31580Y37580D02*
D03*
Y38255D02*
D03*
X38709Y37925D02*
D03*
Y37250D02*
D03*
X37240Y22678D02*
D03*
Y22002D02*
D03*
X37910Y22678D02*
D03*
Y22002D02*
D03*
X37810Y25603D02*
D03*
Y26277D02*
D03*
X41020Y23145D02*
D03*
Y23820D02*
D03*
X33360Y20978D02*
D03*
Y21653D02*
D03*
X32610Y20966D02*
D03*
Y21641D02*
D03*
X34110Y21628D02*
D03*
Y20952D02*
D03*
D21*
X38255Y44960D02*
D03*
X38930D02*
D03*
X31611Y24291D02*
D03*
X30936D02*
D03*
X46502Y15760D02*
D03*
X47178D02*
D03*
D22*
X38536Y34246D02*
D03*
X39284D02*
D03*
X38910Y35034D02*
D03*
X41136Y27887D02*
D03*
X41510Y27100D02*
D03*
X40762D02*
D03*
D23*
X44085Y24645D02*
D03*
Y25235D02*
D03*
X31210Y21040D02*
D03*
Y21631D02*
D03*
D24*
X43315Y23891D02*
D03*
Y24265D02*
D03*
Y24639D02*
D03*
X42331D02*
D03*
Y23891D02*
D03*
D25*
X39873Y17716D02*
D03*
X36467D02*
D03*
Y15944D02*
D03*
X39873D02*
D03*
D26*
X45147Y44943D02*
D03*
Y38117D02*
D03*
D27*
X40895Y43727D02*
D03*
Y44227D02*
D03*
Y38833D02*
D03*
Y39333D02*
D03*
X41210Y40130D02*
D03*
Y40530D02*
D03*
Y40930D02*
D03*
Y41330D02*
D03*
Y41730D02*
D03*
Y42130D02*
D03*
Y42530D02*
D03*
Y42930D02*
D03*
D28*
X30978Y35450D02*
D03*
X30191D02*
D03*
X29403D02*
D03*
X28616D02*
D03*
X27828D02*
D03*
X27041D02*
D03*
X26254D02*
D03*
X25466D02*
D03*
Y29150D02*
D03*
X26254D02*
D03*
X27041D02*
D03*
X27828D02*
D03*
X28616D02*
D03*
X29403D02*
D03*
X30191D02*
D03*
X30978D02*
D03*
D29*
X37546Y40350D02*
D03*
Y40850D02*
D03*
Y41350D02*
D03*
Y41850D02*
D03*
Y42350D02*
D03*
Y42850D02*
D03*
Y43350D02*
D03*
Y43850D02*
D03*
X33994Y40350D02*
D03*
Y40850D02*
D03*
Y41350D02*
D03*
Y41850D02*
D03*
Y42350D02*
D03*
Y42850D02*
D03*
Y43350D02*
D03*
Y43850D02*
D03*
D30*
X36005Y27742D02*
D03*
X35415D02*
D03*
D31*
X29610Y24399D02*
D03*
Y26564D02*
D03*
D32*
X33028Y25195D02*
D03*
Y24998D02*
D03*
Y24801D02*
D03*
Y24604D02*
D03*
Y24408D02*
D03*
Y24211D02*
D03*
Y24014D02*
D03*
Y23817D02*
D03*
Y23620D02*
D03*
Y23423D02*
D03*
Y23227D02*
D03*
Y23030D02*
D03*
X36365D02*
D03*
Y23227D02*
D03*
Y23423D02*
D03*
Y23620D02*
D03*
Y23817D02*
D03*
Y24014D02*
D03*
Y24211D02*
D03*
Y24408D02*
D03*
Y24604D02*
D03*
Y24801D02*
D03*
Y24998D02*
D03*
Y25195D02*
D03*
D33*
X33614Y22444D02*
D03*
X33811D02*
D03*
X34008D02*
D03*
X34205D02*
D03*
X34401D02*
D03*
X34598D02*
D03*
X34795D02*
D03*
X34992D02*
D03*
X35189D02*
D03*
X35386D02*
D03*
X35583D02*
D03*
X35779D02*
D03*
Y25781D02*
D03*
X35583D02*
D03*
X35386D02*
D03*
X35189D02*
D03*
X34992D02*
D03*
X34795D02*
D03*
X34598D02*
D03*
X34401D02*
D03*
X34205D02*
D03*
X34008D02*
D03*
X33811D02*
D03*
X33614D02*
D03*
D34*
X42249Y18453D02*
D03*
Y18886D02*
D03*
Y19319D02*
D03*
Y19752D02*
D03*
Y20185D02*
D03*
Y20618D02*
D03*
Y21051D02*
D03*
Y21484D02*
D03*
D35*
X42255Y16925D02*
D03*
D36*
X42446Y21910D02*
D03*
D37*
X46684Y21941D02*
D03*
Y16839D02*
D03*
D38*
X47157Y17748D02*
D03*
D39*
X47186Y19427D02*
D03*
D40*
X30422Y17994D02*
D03*
X30225D02*
D03*
X30028D02*
D03*
X29831D02*
D03*
X29634D02*
D03*
X29437D02*
D03*
X29241D02*
D03*
X29044D02*
D03*
X28847D02*
D03*
X28650D02*
D03*
X28453D02*
D03*
X28256D02*
D03*
X28059D02*
D03*
X27863D02*
D03*
X27666D02*
D03*
X27469D02*
D03*
X27272D02*
D03*
X27075D02*
D03*
X26878D02*
D03*
X26681D02*
D03*
X26485D02*
D03*
X26288D02*
D03*
X26091D02*
D03*
X25894D02*
D03*
X25697D02*
D03*
X25500D02*
D03*
X25304D02*
D03*
X25107D02*
D03*
X24910D02*
D03*
X24713D02*
D03*
D41*
X31170Y16714D02*
D03*
X23965D02*
D03*
D42*
X31198Y39515D02*
D03*
Y39712D02*
D03*
Y40302D02*
D03*
Y40105D02*
D03*
Y39908D02*
D03*
Y39318D02*
D03*
X29702D02*
D03*
Y39515D02*
D03*
Y39712D02*
D03*
Y39908D02*
D03*
Y40105D02*
D03*
Y40302D02*
D03*
D43*
X30450Y39810D02*
D03*
D44*
X30942Y39062D02*
D03*
X30745D02*
D03*
X30548D02*
D03*
X30352D02*
D03*
X30155D02*
D03*
X29958D02*
D03*
Y40558D02*
D03*
X30155D02*
D03*
X30352D02*
D03*
X30548D02*
D03*
X30745D02*
D03*
X30942D02*
D03*
D45*
X45407Y26918D02*
D03*
Y27174D02*
D03*
Y26151D02*
D03*
Y26407D02*
D03*
Y26662D02*
D03*
D46*
X46460Y26190D02*
D03*
Y27135D02*
D03*
D47*
X45495Y25403D02*
D03*
Y27922D02*
D03*
D97*
X42557Y31262D02*
D03*
Y33034D02*
D03*
Y32246D02*
D03*
Y34018D02*
D03*
D98*
X43624Y30053D02*
D03*
Y35227D02*
D03*
D99*
X38710Y27740D02*
D03*
Y28740D02*
D03*
Y29740D02*
D03*
X23920Y27040D02*
D03*
Y26040D02*
D03*
Y25040D02*
D03*
Y24040D02*
D03*
Y23040D02*
D03*
Y22040D02*
D03*
Y21040D02*
D03*
X39850Y19420D02*
D03*
X38850D02*
D03*
X37850D02*
D03*
X36850D02*
D03*
X35850D02*
D03*
X32510Y19466D02*
D03*
D100*
X38710Y30740D02*
D03*
X23920Y20040D02*
D03*
D101*
X34850Y19420D02*
D03*
X33510Y19466D02*
D03*
D102*
X33060Y16520D02*
D03*
X34060D02*
D03*
D103*
X45147Y44030D02*
D03*
Y39030D02*
D03*
D104*
X28090Y22910D02*
D03*
X36590Y34600D02*
D03*
X24700Y40060D02*
D03*
X47080Y14230D02*
D03*
D105*
X46460Y25363D02*
D03*
Y27962D02*
D03*
M02*
