M48
;Layer_Color=9474304
;FILE_FORMAT=2:5
INCH,TZ
;TYPE=PLATED
T1F00S00C0.02756
T2F00S00C0.03543
%
T01
X384626Y310000
X392500
T02
X470000Y165000
Y175000
X471500Y214000
X481500
X491500
X501500
X511500
X521500
X531500
X488500Y241000
Y251000
Y261000
X461500Y214000
X451500
X441500
X431500
X421500
X411500
X401500
X391500
X381500
X371500
X361500
X351500
X341500
X331500
X321500
X349500Y244500
Y254500
Y264500
Y274500
Y284500
Y294500
Y304500
X382500Y277000
X392500
X311500Y214000
X301500
X291500
X349500Y314500
M30
