G04*
G04 #@! TF.GenerationSoftware,Altium Limited,Altium Designer,23.3.1 (30)*
G04*
G04 Layer_Physical_Order=2*
G04 Layer_Color=16711680*
%FSLAX25Y25*%
%MOIN*%
G70*
G04*
G04 #@! TF.SameCoordinates,C9CCD98B-DB78-4EC8-A63A-9DC0D68B0965*
G04*
G04*
G04 #@! TF.FilePolarity,Positive*
G04*
G01*
G75*
%ADD31R,0.05906X0.05906*%
%ADD32C,0.05906*%
%ADD33R,0.05906X0.05906*%
%ADD34O,0.05906X0.09843*%
D31*
X470000Y165000D02*
D03*
X488500Y241000D02*
D03*
X349500Y314500D02*
D03*
D32*
X470000Y175000D02*
D03*
X488500Y251000D02*
D03*
Y261000D02*
D03*
X301500Y214000D02*
D03*
X311500D02*
D03*
X321500D02*
D03*
X331500D02*
D03*
X341500D02*
D03*
X351500D02*
D03*
X361500D02*
D03*
X371500D02*
D03*
X381500D02*
D03*
X391500D02*
D03*
X401500D02*
D03*
X411500D02*
D03*
X421500D02*
D03*
X431500D02*
D03*
X441500D02*
D03*
X451500D02*
D03*
X461500D02*
D03*
X471500D02*
D03*
X481500D02*
D03*
X491500D02*
D03*
X501500D02*
D03*
X511500D02*
D03*
X521500D02*
D03*
X531500D02*
D03*
X392500Y277000D02*
D03*
X349500Y304500D02*
D03*
Y294500D02*
D03*
Y284500D02*
D03*
Y274500D02*
D03*
Y264500D02*
D03*
Y254500D02*
D03*
Y244500D02*
D03*
D33*
X291500Y214000D02*
D03*
X382500Y277000D02*
D03*
D34*
X392500Y310000D02*
D03*
X384626D02*
D03*
M02*
