G04*
G04 #@! TF.GenerationSoftware,Altium Limited,Altium Designer,23.3.1 (30)*
G04*
G04 Layer_Physical_Order=1*
G04 Layer_Color=255*
%FSLAX25Y25*%
%MOIN*%
G70*
G04*
G04 #@! TF.SameCoordinates,C9CCD98B-DB78-4EC8-A63A-9DC0D68B0965*
G04*
G04*
G04 #@! TF.FilePolarity,Positive*
G04*
G01*
G75*
%ADD14R,0.01181X0.05118*%
%ADD15R,0.07087X0.08661*%
%ADD16R,0.06102X0.02362*%
%ADD17R,0.07087X0.04724*%
%ADD18R,0.21654X0.03937*%
%ADD19R,0.12205X0.06693*%
%ADD30C,0.00800*%
%ADD31R,0.05906X0.05906*%
%ADD32C,0.05906*%
%ADD33R,0.05906X0.05906*%
%ADD34O,0.05906X0.09843*%
G36*
X539197Y150803D02*
X284803D01*
Y331197D01*
X539197D01*
Y150803D01*
D02*
G37*
%LPC*%
G36*
X305441Y320862D02*
X292236D01*
Y313169D01*
X305441D01*
Y320862D01*
D02*
G37*
G36*
X352953Y317953D02*
X346047D01*
Y315418D01*
X337500D01*
X337149Y315348D01*
X336851Y315149D01*
X329990Y308288D01*
X318827D01*
Y309839D01*
X296173D01*
Y304902D01*
X318827D01*
Y306452D01*
X330370D01*
X330721Y306522D01*
X331019Y306721D01*
X337880Y313582D01*
X346047D01*
Y311047D01*
X352953D01*
Y317953D01*
D02*
G37*
G36*
X349955Y307953D02*
X349045D01*
X348167Y307717D01*
X347380Y307263D01*
X346737Y306620D01*
X346283Y305833D01*
X346171Y305418D01*
X337000D01*
X336649Y305348D01*
X336351Y305149D01*
X331616Y300414D01*
X318827D01*
Y301965D01*
X296173D01*
Y297028D01*
X318827D01*
Y298578D01*
X331996D01*
X332347Y298648D01*
X332645Y298847D01*
X337380Y303582D01*
X346171D01*
X346283Y303167D01*
X346737Y302380D01*
X347380Y301737D01*
X348167Y301283D01*
X349045Y301047D01*
X349955D01*
X350833Y301283D01*
X351620Y301737D01*
X352263Y302380D01*
X352717Y303167D01*
X352953Y304045D01*
Y304955D01*
X352717Y305833D01*
X352263Y306620D01*
X351620Y307263D01*
X350833Y307717D01*
X349955Y307953D01*
D02*
G37*
G36*
Y297953D02*
X349045D01*
X348167Y297717D01*
X347380Y297263D01*
X346737Y296620D01*
X346283Y295833D01*
X346171Y295418D01*
X335500D01*
X335149Y295348D01*
X334851Y295149D01*
X332242Y292540D01*
X318827D01*
Y294091D01*
X296173D01*
Y289154D01*
X318827D01*
Y290704D01*
X332622D01*
X332973Y290774D01*
X333271Y290973D01*
X335880Y293582D01*
X346171D01*
X346283Y293167D01*
X346737Y292380D01*
X347380Y291737D01*
X348167Y291283D01*
X349045Y291047D01*
X349955D01*
X350833Y291283D01*
X351620Y291737D01*
X352263Y292380D01*
X352717Y293167D01*
X352953Y294045D01*
Y294955D01*
X352717Y295833D01*
X352263Y296620D01*
X351620Y297263D01*
X350833Y297717D01*
X349955Y297953D01*
D02*
G37*
G36*
Y287953D02*
X349045D01*
X348167Y287718D01*
X347380Y287263D01*
X346737Y286620D01*
X346283Y285833D01*
X346171Y285418D01*
X335000D01*
X334649Y285348D01*
X334351Y285149D01*
X333620Y284418D01*
X318827D01*
Y286216D01*
X296173D01*
Y281279D01*
X318827D01*
Y282582D01*
X334000D01*
X334351Y282652D01*
X334649Y282851D01*
X335380Y283582D01*
X346171D01*
X346283Y283167D01*
X346737Y282380D01*
X347380Y281737D01*
X348167Y281282D01*
X349045Y281047D01*
X349955D01*
X350833Y281282D01*
X351620Y281737D01*
X352263Y282380D01*
X352717Y283167D01*
X352953Y284045D01*
Y284955D01*
X352717Y285833D01*
X352263Y286620D01*
X351620Y287263D01*
X350833Y287718D01*
X349955Y287953D01*
D02*
G37*
G36*
X392500Y315451D02*
X391599Y315332D01*
X390759Y314984D01*
X390037Y314431D01*
X389484Y313710D01*
X389136Y312870D01*
X389018Y311968D01*
Y308032D01*
X389136Y307130D01*
X389484Y306290D01*
X390037Y305569D01*
X390759Y305015D01*
X391582Y304674D01*
Y280329D01*
X391167Y280218D01*
X390380Y279763D01*
X389737Y279120D01*
X389282Y278333D01*
X389047Y277455D01*
Y276545D01*
X389282Y275667D01*
X389737Y274880D01*
X390380Y274237D01*
X391167Y273782D01*
X392045Y273547D01*
X392955D01*
X393833Y273782D01*
X394620Y274237D01*
X395263Y274880D01*
X395718Y275667D01*
X395953Y276545D01*
Y277455D01*
X395718Y278333D01*
X395263Y279120D01*
X394620Y279763D01*
X393833Y280218D01*
X393418Y280329D01*
Y304674D01*
X394241Y305015D01*
X394963Y305569D01*
X395516Y306290D01*
X395864Y307130D01*
X395983Y308032D01*
Y311968D01*
X395864Y312870D01*
X395516Y313710D01*
X394963Y314431D01*
X394241Y314984D01*
X393401Y315332D01*
X392500Y315451D01*
D02*
G37*
G36*
X384626D02*
X383725Y315332D01*
X382885Y314984D01*
X382164Y314431D01*
X381610Y313710D01*
X381262Y312870D01*
X381143Y311968D01*
Y308032D01*
X381262Y307130D01*
X381610Y306290D01*
X382164Y305569D01*
X382885Y305015D01*
X383708Y304674D01*
Y295006D01*
X381851Y293149D01*
X381652Y292851D01*
X381582Y292500D01*
Y280453D01*
X379047D01*
Y273547D01*
X385953D01*
Y280453D01*
X383418D01*
Y292120D01*
X385275Y293977D01*
X385474Y294275D01*
X385544Y294626D01*
Y304674D01*
X386367Y305015D01*
X387088Y305569D01*
X387642Y306290D01*
X387990Y307130D01*
X388108Y308032D01*
Y311968D01*
X387990Y312870D01*
X387642Y313710D01*
X387088Y314431D01*
X386367Y314984D01*
X385527Y315332D01*
X384626Y315451D01*
D02*
G37*
G36*
X318827Y278343D02*
X296173D01*
Y273406D01*
X318827D01*
Y275082D01*
X332120D01*
X333351Y273851D01*
X333649Y273652D01*
X334000Y273582D01*
X346171D01*
X346283Y273167D01*
X346737Y272380D01*
X347380Y271737D01*
X348167Y271283D01*
X349045Y271047D01*
X349955D01*
X350833Y271283D01*
X351620Y271737D01*
X352263Y272380D01*
X352717Y273167D01*
X352953Y274045D01*
Y274955D01*
X352717Y275833D01*
X352263Y276620D01*
X351620Y277263D01*
X350833Y277717D01*
X349955Y277953D01*
X349045D01*
X348167Y277717D01*
X347380Y277263D01*
X346737Y276620D01*
X346283Y275833D01*
X346171Y275418D01*
X334380D01*
X333149Y276649D01*
X332851Y276848D01*
X332500Y276918D01*
X318827D01*
Y278343D01*
D02*
G37*
G36*
Y270468D02*
X296173D01*
Y265531D01*
X318827D01*
Y267082D01*
X332620D01*
X335851Y263851D01*
X336149Y263652D01*
X336500Y263582D01*
X346171D01*
X346283Y263167D01*
X346737Y262380D01*
X347380Y261737D01*
X348167Y261282D01*
X349045Y261047D01*
X349955D01*
X350833Y261282D01*
X351620Y261737D01*
X352263Y262380D01*
X352717Y263167D01*
X352953Y264045D01*
Y264955D01*
X352717Y265833D01*
X352263Y266620D01*
X351620Y267263D01*
X350833Y267718D01*
X349955Y267953D01*
X349045D01*
X348167Y267718D01*
X347380Y267263D01*
X346737Y266620D01*
X346283Y265833D01*
X346171Y265418D01*
X336880D01*
X333649Y268649D01*
X333351Y268848D01*
X333000Y268918D01*
X318827D01*
Y270468D01*
D02*
G37*
G36*
X533484Y261480D02*
X529691D01*
Y258868D01*
X533484D01*
Y261480D01*
D02*
G37*
G36*
X529191D02*
X525398D01*
Y258868D01*
X529191D01*
Y261480D01*
D02*
G37*
G36*
X533484Y258368D02*
X529691D01*
Y255756D01*
X533484D01*
Y258368D01*
D02*
G37*
G36*
X529191D02*
X525398D01*
Y255756D01*
X529191D01*
Y258368D01*
D02*
G37*
G36*
X488955Y264453D02*
X488045D01*
X487167Y264217D01*
X486380Y263763D01*
X485737Y263120D01*
X485283Y262333D01*
X485047Y261455D01*
Y260545D01*
X485283Y259667D01*
X485737Y258880D01*
X486380Y258237D01*
X487167Y257783D01*
X488045Y257547D01*
X488955D01*
X489833Y257783D01*
X490620Y258237D01*
X491263Y258880D01*
X491717Y259667D01*
X491829Y260082D01*
X501620D01*
X508851Y252851D01*
X509149Y252652D01*
X509500Y252582D01*
X515949D01*
Y251819D01*
X523051D01*
Y255181D01*
X515949D01*
Y254418D01*
X509880D01*
X502649Y261649D01*
X502351Y261848D01*
X502000Y261918D01*
X491829D01*
X491717Y262333D01*
X491263Y263120D01*
X490620Y263763D01*
X489833Y264217D01*
X488955Y264453D01*
D02*
G37*
G36*
X318827Y262595D02*
X296173D01*
Y257658D01*
X318827D01*
Y259208D01*
X329994D01*
X335351Y253851D01*
X335649Y253652D01*
X336000Y253582D01*
X346171D01*
X346283Y253167D01*
X346737Y252380D01*
X347380Y251737D01*
X348167Y251283D01*
X349045Y251047D01*
X349955D01*
X350833Y251283D01*
X351620Y251737D01*
X352263Y252380D01*
X352717Y253167D01*
X352953Y254045D01*
Y254955D01*
X352717Y255833D01*
X352263Y256620D01*
X351620Y257263D01*
X350833Y257717D01*
X349955Y257953D01*
X349045D01*
X348167Y257717D01*
X347380Y257263D01*
X346737Y256620D01*
X346283Y255833D01*
X346171Y255418D01*
X336380D01*
X331023Y260775D01*
X330725Y260974D01*
X330374Y261044D01*
X318827D01*
Y262595D01*
D02*
G37*
G36*
X488955Y254453D02*
X488045D01*
X487167Y254218D01*
X486380Y253763D01*
X485737Y253120D01*
X485283Y252333D01*
X485047Y251455D01*
Y250545D01*
X485283Y249667D01*
X485737Y248880D01*
X486380Y248237D01*
X487167Y247782D01*
X488045Y247547D01*
X488955D01*
X489833Y247782D01*
X490620Y248237D01*
X491076Y248693D01*
X491319Y248645D01*
X515949D01*
Y247882D01*
X523051D01*
Y251244D01*
X515949D01*
Y250481D01*
X492002D01*
X491953Y250545D01*
Y251455D01*
X491717Y252333D01*
X491263Y253120D01*
X490620Y253763D01*
X489833Y254218D01*
X488955Y254453D01*
D02*
G37*
G36*
X523051Y247307D02*
X515949D01*
Y246544D01*
X511626D01*
X511275Y246474D01*
X510977Y246275D01*
X506620Y241918D01*
X491953D01*
Y244453D01*
X485047D01*
Y237547D01*
X491953D01*
Y240082D01*
X507000D01*
X507351Y240152D01*
X507649Y240351D01*
X512006Y244708D01*
X515949D01*
Y243945D01*
X523051D01*
Y247307D01*
D02*
G37*
G36*
X318827Y254720D02*
X296173D01*
Y249783D01*
X318827D01*
Y251334D01*
X324868D01*
X332351Y243851D01*
X332649Y243652D01*
X333000Y243582D01*
X346171D01*
X346283Y243167D01*
X346737Y242380D01*
X347380Y241737D01*
X348167Y241283D01*
X349045Y241047D01*
X349955D01*
X350833Y241283D01*
X351620Y241737D01*
X352263Y242380D01*
X352717Y243167D01*
X352953Y244045D01*
Y244955D01*
X352717Y245833D01*
X352263Y246620D01*
X351620Y247263D01*
X350833Y247717D01*
X349955Y247953D01*
X349045D01*
X348167Y247717D01*
X347380Y247263D01*
X346737Y246620D01*
X346283Y245833D01*
X346171Y245418D01*
X333380D01*
X325897Y252901D01*
X325599Y253100D01*
X325248Y253170D01*
X318827D01*
Y254720D01*
D02*
G37*
G36*
X533484Y243370D02*
X529691D01*
Y240758D01*
X533484D01*
Y243370D01*
D02*
G37*
G36*
X529191D02*
X525398D01*
Y240758D01*
X529191D01*
Y243370D01*
D02*
G37*
G36*
X305441Y246453D02*
X292236D01*
Y238760D01*
X305441D01*
Y246453D01*
D02*
G37*
G36*
X533484Y240258D02*
X529691D01*
Y237646D01*
X533484D01*
Y240258D01*
D02*
G37*
G36*
X529191D02*
X525398D01*
Y237646D01*
X529191D01*
Y240258D01*
D02*
G37*
G36*
X531955Y217453D02*
X531045D01*
X530167Y217217D01*
X529380Y216763D01*
X528737Y216120D01*
X528282Y215333D01*
X528047Y214455D01*
Y213545D01*
X528282Y212667D01*
X528737Y211880D01*
X529380Y211237D01*
X530167Y210783D01*
X530582Y210671D01*
Y201380D01*
X517320Y188118D01*
X508069D01*
X507877Y188580D01*
X522149Y202851D01*
X522348Y203149D01*
X522418Y203500D01*
Y210671D01*
X522833Y210783D01*
X523620Y211237D01*
X524263Y211880D01*
X524718Y212667D01*
X524953Y213545D01*
Y214455D01*
X524718Y215333D01*
X524263Y216120D01*
X523620Y216763D01*
X522833Y217217D01*
X521955Y217453D01*
X521045D01*
X520167Y217217D01*
X519380Y216763D01*
X518737Y216120D01*
X518283Y215333D01*
X518047Y214455D01*
Y213545D01*
X518283Y212667D01*
X518737Y211880D01*
X519380Y211237D01*
X520167Y210783D01*
X520582Y210671D01*
Y203880D01*
X506120Y189418D01*
X497923D01*
X497715Y189918D01*
X512149Y204351D01*
X512348Y204649D01*
X512418Y205000D01*
Y210671D01*
X512833Y210783D01*
X513620Y211237D01*
X514263Y211880D01*
X514717Y212667D01*
X514953Y213545D01*
Y214455D01*
X514717Y215333D01*
X514263Y216120D01*
X513620Y216763D01*
X512833Y217217D01*
X511955Y217453D01*
X511045D01*
X510167Y217217D01*
X509380Y216763D01*
X508737Y216120D01*
X508283Y215333D01*
X508047Y214455D01*
Y213545D01*
X508283Y212667D01*
X508737Y211880D01*
X509380Y211237D01*
X510167Y210783D01*
X510582Y210671D01*
Y205380D01*
X496320Y191118D01*
X488569D01*
X488377Y191580D01*
X502149Y205351D01*
X502348Y205649D01*
X502418Y206000D01*
Y210671D01*
X502833Y210783D01*
X503620Y211237D01*
X504263Y211880D01*
X504717Y212667D01*
X504953Y213545D01*
Y214455D01*
X504717Y215333D01*
X504263Y216120D01*
X503620Y216763D01*
X502833Y217217D01*
X501955Y217453D01*
X501045D01*
X500167Y217217D01*
X499380Y216763D01*
X498737Y216120D01*
X498282Y215333D01*
X498047Y214455D01*
Y213545D01*
X498282Y212667D01*
X498737Y211880D01*
X499380Y211237D01*
X500167Y210783D01*
X500582Y210671D01*
Y206380D01*
X486620Y192418D01*
X480369D01*
X480177Y192880D01*
X492149Y204851D01*
X492348Y205149D01*
X492418Y205500D01*
Y210671D01*
X492833Y210783D01*
X493620Y211237D01*
X494263Y211880D01*
X494718Y212667D01*
X494953Y213545D01*
Y214455D01*
X494718Y215333D01*
X494263Y216120D01*
X493620Y216763D01*
X492833Y217217D01*
X491955Y217453D01*
X491045D01*
X490167Y217217D01*
X489380Y216763D01*
X488737Y216120D01*
X488282Y215333D01*
X488047Y214455D01*
Y213545D01*
X488282Y212667D01*
X488737Y211880D01*
X489380Y211237D01*
X490167Y210783D01*
X490582Y210671D01*
Y205880D01*
X478420Y193718D01*
X469669D01*
X469477Y194180D01*
X482149Y206851D01*
X482348Y207149D01*
X482418Y207500D01*
Y210671D01*
X482833Y210783D01*
X483620Y211237D01*
X484263Y211880D01*
X484718Y212667D01*
X484953Y213545D01*
Y214455D01*
X484718Y215333D01*
X484263Y216120D01*
X483620Y216763D01*
X482833Y217217D01*
X481955Y217453D01*
X481045D01*
X480167Y217217D01*
X479380Y216763D01*
X478737Y216120D01*
X478282Y215333D01*
X478047Y214455D01*
Y213545D01*
X478282Y212667D01*
X478737Y211880D01*
X479380Y211237D01*
X480167Y210783D01*
X480582Y210671D01*
Y207880D01*
X467720Y195018D01*
X463969D01*
X463777Y195480D01*
X472149Y203851D01*
X472348Y204149D01*
X472418Y204500D01*
Y210671D01*
X472833Y210783D01*
X473620Y211237D01*
X474263Y211880D01*
X474718Y212667D01*
X474953Y213545D01*
Y214455D01*
X474718Y215333D01*
X474263Y216120D01*
X473620Y216763D01*
X472833Y217217D01*
X471955Y217453D01*
X471045D01*
X470167Y217217D01*
X469380Y216763D01*
X468737Y216120D01*
X468283Y215333D01*
X468047Y214455D01*
Y213545D01*
X468283Y212667D01*
X468737Y211880D01*
X469380Y211237D01*
X470167Y210783D01*
X470582Y210671D01*
Y204880D01*
X462020Y196318D01*
X455769D01*
X455577Y196780D01*
X462149Y203351D01*
X462348Y203649D01*
X462418Y204000D01*
Y210671D01*
X462833Y210783D01*
X463620Y211237D01*
X464263Y211880D01*
X464717Y212667D01*
X464953Y213545D01*
Y214455D01*
X464717Y215333D01*
X464263Y216120D01*
X463620Y216763D01*
X462833Y217217D01*
X461955Y217453D01*
X461045D01*
X460167Y217217D01*
X459380Y216763D01*
X458737Y216120D01*
X458283Y215333D01*
X458047Y214455D01*
Y213545D01*
X458283Y212667D01*
X458737Y211880D01*
X459380Y211237D01*
X460167Y210783D01*
X460582Y210671D01*
Y204380D01*
X453820Y197618D01*
X444069D01*
X443877Y198080D01*
X452149Y206351D01*
X452348Y206649D01*
X452418Y207000D01*
Y210671D01*
X452833Y210783D01*
X453620Y211237D01*
X454263Y211880D01*
X454717Y212667D01*
X454953Y213545D01*
Y214455D01*
X454717Y215333D01*
X454263Y216120D01*
X453620Y216763D01*
X452833Y217217D01*
X451955Y217453D01*
X451045D01*
X450167Y217217D01*
X449380Y216763D01*
X448737Y216120D01*
X448282Y215333D01*
X448047Y214455D01*
Y213545D01*
X448282Y212667D01*
X448737Y211880D01*
X449380Y211237D01*
X450167Y210783D01*
X450582Y210671D01*
Y207380D01*
X442120Y198918D01*
X434369D01*
X434177Y199380D01*
X442149Y207351D01*
X442348Y207649D01*
X442418Y208000D01*
Y210671D01*
X442833Y210783D01*
X443620Y211237D01*
X444263Y211880D01*
X444718Y212667D01*
X444953Y213545D01*
Y214455D01*
X444718Y215333D01*
X444263Y216120D01*
X443620Y216763D01*
X442833Y217217D01*
X441955Y217453D01*
X441045D01*
X440167Y217217D01*
X439380Y216763D01*
X438737Y216120D01*
X438282Y215333D01*
X438047Y214455D01*
Y213545D01*
X438282Y212667D01*
X438737Y211880D01*
X439380Y211237D01*
X440167Y210783D01*
X440582Y210671D01*
Y208380D01*
X432620Y200418D01*
X426869D01*
X426677Y200880D01*
X432149Y206351D01*
X432348Y206649D01*
X432418Y207000D01*
Y210671D01*
X432833Y210783D01*
X433620Y211237D01*
X434263Y211880D01*
X434718Y212667D01*
X434953Y213545D01*
Y214455D01*
X434718Y215333D01*
X434263Y216120D01*
X433620Y216763D01*
X432833Y217217D01*
X431955Y217453D01*
X431045D01*
X430167Y217217D01*
X429380Y216763D01*
X428737Y216120D01*
X428282Y215333D01*
X428047Y214455D01*
Y213545D01*
X428282Y212667D01*
X428737Y211880D01*
X429380Y211237D01*
X430167Y210783D01*
X430582Y210671D01*
Y207380D01*
X425120Y201918D01*
X421000D01*
X420649Y201848D01*
X420351Y201649D01*
X406402Y187700D01*
X406017Y187806D01*
X405902Y187889D01*
Y188604D01*
X422149Y204851D01*
X422348Y205149D01*
X422418Y205500D01*
Y210671D01*
X422833Y210783D01*
X423620Y211237D01*
X424263Y211880D01*
X424718Y212667D01*
X424953Y213545D01*
Y214455D01*
X424718Y215333D01*
X424263Y216120D01*
X423620Y216763D01*
X422833Y217217D01*
X421955Y217453D01*
X421045D01*
X420167Y217217D01*
X419380Y216763D01*
X418737Y216120D01*
X418283Y215333D01*
X418047Y214455D01*
Y213545D01*
X418283Y212667D01*
X418737Y211880D01*
X419380Y211237D01*
X420167Y210783D01*
X420582Y210671D01*
Y205880D01*
X404433Y189731D01*
X404049Y189838D01*
X403933Y189920D01*
Y194136D01*
X412149Y202351D01*
X412348Y202649D01*
X412418Y203000D01*
Y210671D01*
X412833Y210783D01*
X413620Y211237D01*
X414263Y211880D01*
X414717Y212667D01*
X414953Y213545D01*
Y214455D01*
X414717Y215333D01*
X414263Y216120D01*
X413620Y216763D01*
X412833Y217217D01*
X411955Y217453D01*
X411045D01*
X410167Y217217D01*
X409380Y216763D01*
X408737Y216120D01*
X408283Y215333D01*
X408047Y214455D01*
Y213545D01*
X408283Y212667D01*
X408737Y211880D01*
X409380Y211237D01*
X410167Y210783D01*
X410582Y210671D01*
Y203380D01*
X402880Y195677D01*
X402418Y195869D01*
Y210671D01*
X402833Y210783D01*
X403620Y211237D01*
X404263Y211880D01*
X404717Y212667D01*
X404953Y213545D01*
Y214455D01*
X404717Y215333D01*
X404263Y216120D01*
X403620Y216763D01*
X402833Y217217D01*
X401955Y217453D01*
X401045D01*
X400167Y217217D01*
X399380Y216763D01*
X398737Y216120D01*
X398283Y215333D01*
X398047Y214455D01*
Y213545D01*
X398283Y212667D01*
X398737Y211880D01*
X399380Y211237D01*
X400167Y210783D01*
X400582Y210671D01*
Y194880D01*
X400398Y194696D01*
X400338Y194606D01*
X399768Y194568D01*
X399760Y194572D01*
X399728Y194620D01*
X392418Y201929D01*
Y210671D01*
X392833Y210783D01*
X393620Y211237D01*
X394263Y211880D01*
X394718Y212667D01*
X394953Y213545D01*
Y214455D01*
X394718Y215333D01*
X394263Y216120D01*
X393620Y216763D01*
X392833Y217217D01*
X391955Y217453D01*
X391045D01*
X390167Y217217D01*
X389380Y216763D01*
X388737Y216120D01*
X388282Y215333D01*
X388047Y214455D01*
Y213545D01*
X388282Y212667D01*
X388737Y211880D01*
X389380Y211237D01*
X390167Y210783D01*
X390582Y210671D01*
Y201549D01*
X390652Y201198D01*
X390851Y200901D01*
X398161Y193591D01*
Y185254D01*
X398046Y185171D01*
X397661Y185065D01*
X382418Y200308D01*
Y210671D01*
X382833Y210783D01*
X383620Y211237D01*
X384263Y211880D01*
X384717Y212667D01*
X384953Y213545D01*
Y214455D01*
X384717Y215333D01*
X384263Y216120D01*
X383620Y216763D01*
X382833Y217217D01*
X381955Y217453D01*
X381045D01*
X380167Y217217D01*
X379380Y216763D01*
X378737Y216120D01*
X378282Y215333D01*
X378047Y214455D01*
Y213545D01*
X378282Y212667D01*
X378737Y211880D01*
X379380Y211237D01*
X380167Y210783D01*
X380582Y210671D01*
Y199928D01*
X380652Y199577D01*
X380851Y199279D01*
X381251Y198880D01*
X381060Y198418D01*
X376380D01*
X372418Y202380D01*
Y210671D01*
X372833Y210783D01*
X373620Y211237D01*
X374263Y211880D01*
X374717Y212667D01*
X374953Y213545D01*
Y214455D01*
X374717Y215333D01*
X374263Y216120D01*
X373620Y216763D01*
X372833Y217217D01*
X371955Y217453D01*
X371045D01*
X370167Y217217D01*
X369380Y216763D01*
X368737Y216120D01*
X368283Y215333D01*
X368047Y214455D01*
Y213545D01*
X368283Y212667D01*
X368737Y211880D01*
X369380Y211237D01*
X370167Y210783D01*
X370582Y210671D01*
Y202000D01*
X370652Y201649D01*
X370851Y201351D01*
X374623Y197580D01*
X374431Y197118D01*
X365380D01*
X362418Y200080D01*
Y210671D01*
X362833Y210783D01*
X363620Y211237D01*
X364263Y211880D01*
X364718Y212667D01*
X364953Y213545D01*
Y214455D01*
X364718Y215333D01*
X364263Y216120D01*
X363620Y216763D01*
X362833Y217217D01*
X361955Y217453D01*
X361045D01*
X360167Y217217D01*
X359380Y216763D01*
X358737Y216120D01*
X358282Y215333D01*
X358047Y214455D01*
Y213545D01*
X358282Y212667D01*
X358737Y211880D01*
X359380Y211237D01*
X360167Y210783D01*
X360582Y210671D01*
Y199700D01*
X360652Y199349D01*
X360851Y199051D01*
X363623Y196280D01*
X363431Y195818D01*
X355880D01*
X352418Y199280D01*
Y210671D01*
X352833Y210783D01*
X353620Y211237D01*
X354263Y211880D01*
X354717Y212667D01*
X354953Y213545D01*
Y214455D01*
X354717Y215333D01*
X354263Y216120D01*
X353620Y216763D01*
X352833Y217217D01*
X351955Y217453D01*
X351045D01*
X350167Y217217D01*
X349380Y216763D01*
X348737Y216120D01*
X348283Y215333D01*
X348047Y214455D01*
Y213545D01*
X348283Y212667D01*
X348737Y211880D01*
X349380Y211237D01*
X350167Y210783D01*
X350582Y210671D01*
Y198900D01*
X350652Y198549D01*
X350851Y198251D01*
X354123Y194980D01*
X353931Y194518D01*
X347880D01*
X342418Y199980D01*
Y210671D01*
X342833Y210783D01*
X343620Y211237D01*
X344263Y211880D01*
X344718Y212667D01*
X344953Y213545D01*
Y214455D01*
X344718Y215333D01*
X344263Y216120D01*
X343620Y216763D01*
X342833Y217217D01*
X341955Y217453D01*
X341045D01*
X340167Y217217D01*
X339380Y216763D01*
X338737Y216120D01*
X338282Y215333D01*
X338047Y214455D01*
Y213545D01*
X338282Y212667D01*
X338737Y211880D01*
X339380Y211237D01*
X340167Y210783D01*
X340582Y210671D01*
Y199600D01*
X340652Y199249D01*
X340851Y198951D01*
X346123Y193680D01*
X345931Y193218D01*
X337380D01*
X332418Y198180D01*
Y210671D01*
X332833Y210783D01*
X333620Y211237D01*
X334263Y211880D01*
X334717Y212667D01*
X334953Y213545D01*
Y214455D01*
X334717Y215333D01*
X334263Y216120D01*
X333620Y216763D01*
X332833Y217217D01*
X331955Y217453D01*
X331045D01*
X330167Y217217D01*
X329380Y216763D01*
X328737Y216120D01*
X328282Y215333D01*
X328047Y214455D01*
Y213545D01*
X328282Y212667D01*
X328737Y211880D01*
X329380Y211237D01*
X330167Y210783D01*
X330582Y210671D01*
Y197800D01*
X330652Y197449D01*
X330851Y197151D01*
X335623Y192380D01*
X335431Y191918D01*
X328380D01*
X322418Y197880D01*
Y210671D01*
X322833Y210783D01*
X323620Y211237D01*
X324263Y211880D01*
X324717Y212667D01*
X324953Y213545D01*
Y214455D01*
X324717Y215333D01*
X324263Y216120D01*
X323620Y216763D01*
X322833Y217217D01*
X321955Y217453D01*
X321045D01*
X320167Y217217D01*
X319380Y216763D01*
X318737Y216120D01*
X318283Y215333D01*
X318047Y214455D01*
Y213545D01*
X318283Y212667D01*
X318737Y211880D01*
X319380Y211237D01*
X320167Y210783D01*
X320582Y210671D01*
Y197500D01*
X320652Y197149D01*
X320851Y196851D01*
X326723Y190980D01*
X326531Y190518D01*
X318880D01*
X312418Y196980D01*
Y210671D01*
X312833Y210783D01*
X313620Y211237D01*
X314263Y211880D01*
X314718Y212667D01*
X314953Y213545D01*
Y214455D01*
X314718Y215333D01*
X314263Y216120D01*
X313620Y216763D01*
X312833Y217217D01*
X311955Y217453D01*
X311045D01*
X310167Y217217D01*
X309380Y216763D01*
X308737Y216120D01*
X308282Y215333D01*
X308047Y214455D01*
Y213545D01*
X308282Y212667D01*
X308737Y211880D01*
X309380Y211237D01*
X310167Y210783D01*
X310582Y210671D01*
Y196600D01*
X310652Y196249D01*
X310851Y195951D01*
X317123Y189680D01*
X316931Y189218D01*
X308919D01*
X302418Y195719D01*
Y210671D01*
X302833Y210783D01*
X303620Y211237D01*
X304263Y211880D01*
X304717Y212667D01*
X304953Y213545D01*
Y214455D01*
X304717Y215333D01*
X304263Y216120D01*
X303620Y216763D01*
X302833Y217217D01*
X301955Y217453D01*
X301045D01*
X300167Y217217D01*
X299380Y216763D01*
X298737Y216120D01*
X298283Y215333D01*
X298047Y214455D01*
Y213545D01*
X298283Y212667D01*
X298737Y211880D01*
X299380Y211237D01*
X300167Y210783D01*
X300582Y210671D01*
Y196369D01*
X300120Y196177D01*
X292418Y203880D01*
Y210547D01*
X294953D01*
Y217453D01*
X288047D01*
Y210547D01*
X290582D01*
Y203500D01*
X290652Y203149D01*
X290851Y202851D01*
X307351Y186351D01*
X307649Y186152D01*
X308000Y186082D01*
X377443D01*
X378476Y185049D01*
Y183992D01*
X378303D01*
Y177874D01*
X429697D01*
Y180015D01*
X463687D01*
X466997Y176705D01*
X466783Y176333D01*
X466547Y175455D01*
Y174545D01*
X466783Y173667D01*
X467237Y172880D01*
X467880Y172237D01*
X468667Y171783D01*
X469082Y171671D01*
Y168453D01*
X466547D01*
Y161547D01*
X473453D01*
Y168453D01*
X470918D01*
Y171671D01*
X471333Y171783D01*
X472120Y172237D01*
X472763Y172880D01*
X473217Y173667D01*
X473453Y174545D01*
Y175455D01*
X473217Y176333D01*
X472763Y177120D01*
X472120Y177763D01*
X471333Y178217D01*
X470455Y178453D01*
X469545D01*
X468667Y178217D01*
X468295Y178003D01*
X464716Y181582D01*
X464418Y181781D01*
X464067Y181851D01*
X429697D01*
Y183992D01*
X427555D01*
Y185104D01*
X428880Y186428D01*
X491996D01*
X492110Y186352D01*
X492461Y186282D01*
X517700D01*
X518051Y186352D01*
X518349Y186551D01*
X532149Y200351D01*
X532348Y200649D01*
X532418Y201000D01*
Y210671D01*
X532833Y210783D01*
X533620Y211237D01*
X534263Y211880D01*
X534718Y212667D01*
X534953Y213545D01*
Y214455D01*
X534718Y215333D01*
X534263Y216120D01*
X533620Y216763D01*
X532833Y217217D01*
X531955Y217453D01*
D02*
G37*
G36*
X440130Y172968D02*
X436337D01*
Y168388D01*
X440130D01*
Y172968D01*
D02*
G37*
G36*
X435837D02*
X432043D01*
Y168388D01*
X435837D01*
Y172968D01*
D02*
G37*
G36*
X375957D02*
X372163D01*
Y168388D01*
X375957D01*
Y172968D01*
D02*
G37*
G36*
X371663D02*
X367870D01*
Y168388D01*
X371663D01*
Y172968D01*
D02*
G37*
G36*
X440130Y167888D02*
X436337D01*
Y163307D01*
X440130D01*
Y167888D01*
D02*
G37*
G36*
X435837D02*
X432043D01*
Y163307D01*
X435837D01*
Y167888D01*
D02*
G37*
G36*
X375957Y167888D02*
X372163D01*
Y163307D01*
X375957D01*
Y167888D01*
D02*
G37*
G36*
X371663D02*
X367870D01*
Y163307D01*
X371663D01*
Y167888D01*
D02*
G37*
%LPD*%
D14*
X379394Y180933D02*
D03*
X381362D02*
D03*
X383331D02*
D03*
X385299D02*
D03*
X387268D02*
D03*
X389236D02*
D03*
X391205D02*
D03*
X393173D02*
D03*
X395142D02*
D03*
X397110D02*
D03*
X399079D02*
D03*
X401047D02*
D03*
X403016D02*
D03*
X404984D02*
D03*
X406953D02*
D03*
X408921D02*
D03*
X410890D02*
D03*
X412858D02*
D03*
X414827D02*
D03*
X416795D02*
D03*
X418764D02*
D03*
X420732D02*
D03*
X422701D02*
D03*
X424669D02*
D03*
X426638D02*
D03*
X428606D02*
D03*
D15*
X371913Y168138D02*
D03*
X436087D02*
D03*
D16*
X519500Y245626D02*
D03*
Y249563D02*
D03*
Y253500D02*
D03*
D17*
X529441Y240508D02*
D03*
Y258618D02*
D03*
D18*
X307500Y307370D02*
D03*
Y299496D02*
D03*
Y291622D02*
D03*
Y283748D02*
D03*
Y275874D02*
D03*
Y268000D02*
D03*
Y260126D02*
D03*
Y252252D02*
D03*
D19*
X298839Y242606D02*
D03*
Y317016D02*
D03*
D30*
X392500Y277000D02*
Y310000D01*
X382500Y277000D02*
Y292500D01*
X384626Y294626D02*
Y310000D01*
X382500Y292500D02*
X384626Y294626D01*
X307500Y307370D02*
X330370D01*
X337500Y314500D02*
X349500D01*
X330370Y307370D02*
X337500Y314500D01*
X349500Y304500D02*
X350500D01*
X337000D02*
X349500D01*
X307500Y299496D02*
X331996D01*
X337000Y304500D01*
X335500Y294500D02*
X349500D01*
X332622Y291622D02*
X335500Y294500D01*
X307500Y291622D02*
X332622D01*
X307500Y283748D02*
X307748Y283500D01*
X334000D01*
X335000Y284500D01*
X349500D01*
X307626Y276000D02*
X332500D01*
X307500Y275874D02*
X307626Y276000D01*
X332500D02*
X334000Y274500D01*
X349500D01*
X307500Y268000D02*
X333000D01*
X336500Y264500D01*
X349500D01*
X307500Y260126D02*
X330374D01*
X336000Y254500D02*
X349500D01*
X330374Y260126D02*
X336000Y254500D01*
X325248Y252252D02*
X333000Y244500D01*
X349500D01*
X307500Y252252D02*
X325248D01*
X488500Y251000D02*
X489882D01*
X491319Y249563D01*
X519500D01*
X488500Y261000D02*
X502000D01*
X509500Y253500D01*
X519500D01*
X507000Y241000D02*
X511626Y245626D01*
X519500D01*
X488500Y241000D02*
X507000D01*
X470000Y165000D02*
Y175000D01*
X464067Y180933D02*
X470000Y175000D01*
X428606Y180933D02*
X464067D01*
X517700Y187200D02*
X531500Y201000D01*
Y214000D01*
X492315Y187346D02*
X492461Y187200D01*
X517700D01*
X428500Y187346D02*
X492315D01*
X493000Y188500D02*
X506500D01*
X492854Y188646D02*
X493000Y188500D01*
X506500D02*
X521500Y203500D01*
X426354Y188646D02*
X492854D01*
X496700Y190200D02*
X511500Y205000D01*
X424669Y186961D02*
X426354Y188646D01*
X426069Y190200D02*
X496700D01*
X426638Y180933D02*
Y185484D01*
X428500Y187346D01*
X521500Y203500D02*
Y214000D01*
X424669Y180933D02*
Y186961D01*
X511500Y205000D02*
Y214000D01*
X422701Y186831D02*
X426069Y190200D01*
X404984Y180933D02*
Y188984D01*
X454200Y196700D02*
X461500Y204000D01*
X410890Y180933D02*
Y186051D01*
X416795Y186441D02*
X424454Y194100D01*
X424992Y192800D02*
X478800D01*
X422838Y198000D02*
X442500D01*
X412858Y181642D02*
Y186181D01*
X420732Y186702D02*
X425531Y191500D01*
X423915Y195400D02*
X462400D01*
X414827Y180933D02*
Y186311D01*
X422500Y199500D02*
X433000D01*
X418764Y186571D02*
X424992Y192800D01*
X418764Y180933D02*
Y186571D01*
X462400Y195400D02*
X471500Y204500D01*
X408921Y180933D02*
Y185921D01*
X424454Y194100D02*
X468100D01*
X404984Y188984D02*
X421500Y205500D01*
X408921Y185921D02*
X422500Y199500D01*
X478800Y192800D02*
X491500Y205500D01*
X468100Y194100D02*
X481500Y207500D01*
X416795Y180933D02*
Y186441D01*
X406953Y186953D02*
X421000Y201000D01*
X414827Y186311D02*
X423915Y195400D01*
X410890Y186051D02*
X422838Y198000D01*
X421000Y201000D02*
X425500D01*
X423377Y196700D02*
X454200D01*
X412858Y186181D02*
X423377Y196700D01*
X421500Y213500D02*
X422000Y214000D01*
X421500Y205500D02*
Y213500D01*
X420732Y180933D02*
Y186702D01*
X442500Y198000D02*
X451500Y207000D01*
X433000Y199500D02*
X441500Y208000D01*
X406953Y180933D02*
Y186953D01*
X425500Y201000D02*
X431500Y207000D01*
Y214000D01*
X425531Y191500D02*
X487000D01*
X422701Y180933D02*
Y186831D01*
X487000Y191500D02*
X501500Y206000D01*
Y214000D01*
X491500Y205500D02*
Y214000D01*
X481500Y207500D02*
Y214000D01*
X471500Y204500D02*
Y214000D01*
X441500Y208000D02*
Y214000D01*
X461500Y204000D02*
Y214000D01*
X451500Y207000D02*
Y214000D01*
X421500D02*
X422000D01*
X412858Y181642D02*
X413000Y181500D01*
X412858Y181358D02*
X413000Y181500D01*
X412858Y180933D02*
Y181358D01*
X403016Y180933D02*
Y194516D01*
X411500Y203000D01*
Y214000D01*
X401047Y180933D02*
Y194047D01*
X401500Y194500D01*
Y214000D01*
X391500Y201549D02*
Y214000D01*
Y201549D02*
X399079Y193971D01*
Y180933D02*
Y193971D01*
X397110Y180933D02*
Y184318D01*
X381500Y199928D02*
X397110Y184318D01*
X381500Y199928D02*
Y214000D01*
X376000Y197500D02*
X382090D01*
X395142Y180933D02*
Y184448D01*
X365000Y196200D02*
X381551D01*
X382090Y197500D02*
X395142Y184448D01*
X381551Y196200D02*
X393173Y184578D01*
Y180933D02*
Y184578D01*
X391162Y180976D02*
X391205Y180933D01*
X379394D02*
Y185429D01*
X308539Y188300D02*
X378362D01*
X328000Y191000D02*
X379339D01*
X385299Y185039D01*
X377823Y187000D02*
X379394Y185429D01*
X387268Y180933D02*
Y184909D01*
X379877Y192300D02*
X387268Y184909D01*
X337000Y192300D02*
X379877D01*
X347500Y193600D02*
X380415D01*
X318500Y189600D02*
X378900D01*
X389236Y180933D02*
Y184779D01*
X378900Y189600D02*
X383331Y185169D01*
X385299Y180933D02*
Y185039D01*
X381362Y180933D02*
Y185299D01*
X380954Y194900D02*
X391162Y184692D01*
X355500Y194900D02*
X380954D01*
X378362Y188300D02*
X381362Y185299D01*
X391162Y180976D02*
Y184692D01*
X383331Y180933D02*
Y185169D01*
X380415Y193600D02*
X389236Y184779D01*
X308000Y187000D02*
X377823D01*
X371500Y202000D02*
Y214000D01*
Y202000D02*
X376000Y197500D01*
X360500Y213000D02*
X361500Y212000D01*
Y199700D02*
Y212000D01*
Y199700D02*
X365000Y196200D01*
X360500Y213000D02*
X361500Y214000D01*
X351500Y198900D02*
Y214000D01*
Y198900D02*
X355500Y194900D01*
X341500Y199600D02*
X347500Y193600D01*
X341500Y199600D02*
Y214000D01*
X311500Y196600D02*
X318500Y189600D01*
X301500Y195338D02*
X308539Y188300D01*
X291500Y203500D02*
X308000Y187000D01*
X321500Y197500D02*
X328000Y191000D01*
X331500Y197800D02*
X337000Y192300D01*
X331500Y197800D02*
Y214000D01*
X321500Y197500D02*
Y214000D01*
X311500Y196600D02*
Y214000D01*
X301500Y195338D02*
Y214000D01*
X291500Y203500D02*
Y214000D01*
D31*
X470000Y165000D02*
D03*
X488500Y241000D02*
D03*
X349500Y314500D02*
D03*
D32*
X470000Y175000D02*
D03*
X488500Y251000D02*
D03*
Y261000D02*
D03*
X301500Y214000D02*
D03*
X311500D02*
D03*
X321500D02*
D03*
X331500D02*
D03*
X341500D02*
D03*
X351500D02*
D03*
X361500D02*
D03*
X371500D02*
D03*
X381500D02*
D03*
X391500D02*
D03*
X401500D02*
D03*
X411500D02*
D03*
X421500D02*
D03*
X431500D02*
D03*
X441500D02*
D03*
X451500D02*
D03*
X461500D02*
D03*
X471500D02*
D03*
X481500D02*
D03*
X491500D02*
D03*
X501500D02*
D03*
X511500D02*
D03*
X521500D02*
D03*
X531500D02*
D03*
X392500Y277000D02*
D03*
X349500Y304500D02*
D03*
Y294500D02*
D03*
Y284500D02*
D03*
Y274500D02*
D03*
Y264500D02*
D03*
Y254500D02*
D03*
Y244500D02*
D03*
D33*
X291500Y214000D02*
D03*
X382500Y277000D02*
D03*
D34*
X392500Y310000D02*
D03*
X384626D02*
D03*
M02*
