G04*
G04 #@! TF.GenerationSoftware,Altium Limited,Altium Designer,23.3.1 (30)*
G04*
G04 Layer_Color=8421504*
%FSLAX25Y25*%
%MOIN*%
G70*
G04*
G04 #@! TF.SameCoordinates,C9CCD98B-DB78-4EC8-A63A-9DC0D68B0965*
G04*
G04*
G04 #@! TF.FilePolarity,Positive*
G04*
G01*
G75*
%ADD14R,0.01181X0.05118*%
%ADD15R,0.07087X0.08661*%
%ADD16R,0.06102X0.02362*%
%ADD17R,0.07087X0.04724*%
%ADD18R,0.21654X0.03937*%
%ADD19R,0.12205X0.06693*%
D14*
X379394Y180933D02*
D03*
X381362D02*
D03*
X383331D02*
D03*
X385299D02*
D03*
X387268D02*
D03*
X389236D02*
D03*
X391205D02*
D03*
X393173D02*
D03*
X395142D02*
D03*
X397110D02*
D03*
X399079D02*
D03*
X401047D02*
D03*
X403016D02*
D03*
X404984D02*
D03*
X406953D02*
D03*
X408921D02*
D03*
X410890D02*
D03*
X412858D02*
D03*
X414827D02*
D03*
X416795D02*
D03*
X418764D02*
D03*
X420732D02*
D03*
X422701D02*
D03*
X424669D02*
D03*
X426638D02*
D03*
X428606D02*
D03*
D15*
X371913Y168138D02*
D03*
X436087D02*
D03*
D16*
X519500Y245626D02*
D03*
Y249563D02*
D03*
Y253500D02*
D03*
D17*
X529441Y240508D02*
D03*
Y258618D02*
D03*
D18*
X307500Y307370D02*
D03*
Y299496D02*
D03*
Y291622D02*
D03*
Y283748D02*
D03*
Y275874D02*
D03*
Y268000D02*
D03*
Y260126D02*
D03*
Y252252D02*
D03*
D19*
X298839Y242606D02*
D03*
Y317016D02*
D03*
M02*
