G04*
G04 #@! TF.GenerationSoftware,Altium Limited,Altium Designer,23.3.1 (30)*
G04*
G04 Layer_Color=65535*
%FSLAX25Y25*%
%MOIN*%
G70*
G04*
G04 #@! TF.SameCoordinates,C9CCD98B-DB78-4EC8-A63A-9DC0D68B0965*
G04*
G04*
G04 #@! TF.FilePolarity,Positive*
G04*
G01*
G75*
%ADD10C,0.00394*%
%ADD11C,0.01575*%
%ADD12C,0.00787*%
%ADD13C,0.01000*%
D10*
X379394Y184673D02*
G03*
X379394Y184280I0J-197D01*
G01*
D02*
G03*
X379394Y184673I0J197D01*
G01*
X372307Y156327D02*
Y162626D01*
Y156327D02*
X435693D01*
Y162626D01*
Y174437D02*
Y178342D01*
X432587Y178374D02*
X435693Y178342D01*
X372307Y178374D02*
X375492D01*
X372307Y174437D02*
Y178374D01*
X522551Y239721D02*
Y244051D01*
Y239721D02*
X525701D01*
X522551Y255075D02*
Y259405D01*
X525701D01*
X532394Y243264D02*
Y255862D01*
D11*
X320384Y312075D02*
G03*
X320384Y312075I-810J0D01*
G01*
D12*
X465000Y180000D02*
X475000D01*
Y160000D02*
Y180000D01*
X465000Y160000D02*
X475000D01*
X465000D02*
Y180000D01*
X493500Y236000D02*
Y266000D01*
X483500D02*
X493500D01*
X483500Y236000D02*
Y266000D01*
Y236000D02*
X493500D01*
X536500Y209000D02*
Y219000D01*
X286500Y209000D02*
X536500D01*
X286500D02*
Y219000D01*
X294000D01*
X536500D01*
X397500Y272000D02*
Y282000D01*
X377500Y272000D02*
X397500D01*
X377500D02*
Y282000D01*
X397500D01*
X376949Y316693D02*
X400177D01*
Y298976D02*
Y316693D01*
X376949Y298976D02*
X400177D01*
X376949D02*
Y316693D01*
X308583Y310449D02*
Y319181D01*
X288898Y240441D02*
Y319181D01*
X308583Y240441D02*
Y248677D01*
X344500Y239500D02*
X354500D01*
X344500D02*
Y319500D01*
X354500D01*
Y239500D02*
Y319500D01*
D13*
X353001Y177999D02*
X352001Y178999D01*
X350002D01*
X349002Y177999D01*
Y174001D01*
X350002Y173001D01*
X352001D01*
X353001Y174001D01*
X355000Y173001D02*
Y178999D01*
X358999Y173001D01*
Y178999D01*
X360998Y173001D02*
X362998D01*
X361998D01*
Y178999D01*
X360998Y177999D01*
X481501Y174499D02*
X480502Y175499D01*
X478502D01*
X477503Y174499D01*
Y170501D01*
X478502Y169501D01*
X480502D01*
X481501Y170501D01*
X483501Y169501D02*
Y175499D01*
X487499Y169501D01*
Y175499D01*
X489499Y174499D02*
X490498Y175499D01*
X492498D01*
X493497Y174499D01*
Y173500D01*
X492498Y172500D01*
X493497Y171500D01*
Y170501D01*
X492498Y169501D01*
X490498D01*
X489499Y170501D01*
Y171500D01*
X490498Y172500D01*
X489499Y173500D01*
Y174499D01*
X490498Y172500D02*
X492498D01*
X488099Y274398D02*
X487099Y275398D01*
X485100D01*
X484100Y274398D01*
Y270400D01*
X485100Y269400D01*
X487099D01*
X488099Y270400D01*
X490098Y269400D02*
Y275398D01*
X494097Y269400D01*
Y275398D01*
X499095Y269400D02*
Y275398D01*
X496096Y272399D01*
X500095D01*
X517299Y273098D02*
X516299Y274098D01*
X514300D01*
X513300Y273098D01*
Y269100D01*
X514300Y268100D01*
X516299D01*
X517299Y269100D01*
X519298Y268100D02*
Y274098D01*
X523297Y268100D01*
Y274098D01*
X525296Y273098D02*
X526296Y274098D01*
X528295D01*
X529295Y273098D01*
Y272099D01*
X528295Y271099D01*
X527295D01*
X528295D01*
X529295Y270099D01*
Y269100D01*
X528295Y268100D01*
X526296D01*
X525296Y269100D01*
X291099Y227398D02*
X290099Y228398D01*
X288100D01*
X287100Y227398D01*
Y223400D01*
X288100Y222400D01*
X290099D01*
X291099Y223400D01*
X293098Y222400D02*
Y228398D01*
X297097Y222400D01*
Y228398D01*
X303095Y222400D02*
X299096D01*
X303095Y226399D01*
Y227398D01*
X302095Y228398D01*
X300096D01*
X299096Y227398D01*
X382099Y290398D02*
X381099Y291398D01*
X379100D01*
X378100Y290398D01*
Y286400D01*
X379100Y285400D01*
X381099D01*
X382099Y286400D01*
X384098Y285400D02*
Y291398D01*
X388097Y285400D01*
Y291398D01*
X394095D02*
X392095Y290398D01*
X390096Y288399D01*
Y286400D01*
X391096Y285400D01*
X393095D01*
X394095Y286400D01*
Y287399D01*
X393095Y288399D01*
X390096D01*
X379799Y326698D02*
X378799Y327698D01*
X376800D01*
X375800Y326698D01*
Y322700D01*
X376800Y321700D01*
X378799D01*
X379799Y322700D01*
X381798Y321700D02*
Y327698D01*
X385797Y321700D01*
Y327698D01*
X391795D02*
X387796D01*
Y324699D01*
X389795Y325699D01*
X390795D01*
X391795Y324699D01*
Y322700D01*
X390795Y321700D01*
X388796D01*
X387796Y322700D01*
X293499Y328698D02*
X292499Y329698D01*
X290500D01*
X289500Y328698D01*
Y324700D01*
X290500Y323700D01*
X292499D01*
X293499Y324700D01*
X295498Y323700D02*
Y329698D01*
X299497Y323700D01*
Y329698D01*
X301496D02*
X305495D01*
Y328698D01*
X301496Y324700D01*
Y323700D01*
X349099Y327898D02*
X348099Y328898D01*
X346100D01*
X345100Y327898D01*
Y323900D01*
X346100Y322900D01*
X348099D01*
X349099Y323900D01*
X351098Y322900D02*
Y328898D01*
X355097Y322900D01*
Y328898D01*
X357096Y323900D02*
X358096Y322900D01*
X360095D01*
X361095Y323900D01*
Y327898D01*
X360095Y328898D01*
X358096D01*
X357096Y327898D01*
Y326899D01*
X358096Y325899D01*
X361095D01*
M02*
