G04*
G04 #@! TF.GenerationSoftware,Altium Limited,Altium Designer,23.3.1 (30)*
G04*
G04 Layer_Color=8388736*
%FSLAX25Y25*%
%MOIN*%
G70*
G04*
G04 #@! TF.SameCoordinates,C9CCD98B-DB78-4EC8-A63A-9DC0D68B0965*
G04*
G04*
G04 #@! TF.FilePolarity,Negative*
G04*
G01*
G75*
%ADD20R,0.01772X0.05709*%
%ADD21R,0.07677X0.09252*%
%ADD22R,0.06693X0.02953*%
%ADD23R,0.07677X0.05315*%
%ADD24R,0.22244X0.04528*%
%ADD25R,0.12795X0.07284*%
%ADD26R,0.06496X0.06496*%
%ADD27C,0.06496*%
%ADD28R,0.06496X0.06496*%
%ADD29O,0.06496X0.10433*%
D20*
X379394Y180933D02*
D03*
X381362D02*
D03*
X383331D02*
D03*
X385299D02*
D03*
X387268D02*
D03*
X389236D02*
D03*
X391205D02*
D03*
X393173D02*
D03*
X395142D02*
D03*
X397110D02*
D03*
X399079D02*
D03*
X401047D02*
D03*
X403016D02*
D03*
X404984D02*
D03*
X406953D02*
D03*
X408921D02*
D03*
X410890D02*
D03*
X412858D02*
D03*
X414827D02*
D03*
X416795D02*
D03*
X418764D02*
D03*
X420732D02*
D03*
X422701D02*
D03*
X424669D02*
D03*
X426638D02*
D03*
X428606D02*
D03*
D21*
X371913Y168138D02*
D03*
X436087D02*
D03*
D22*
X519500Y245626D02*
D03*
Y249563D02*
D03*
Y253500D02*
D03*
D23*
X529441Y240508D02*
D03*
Y258618D02*
D03*
D24*
X307500Y307370D02*
D03*
Y299496D02*
D03*
Y291622D02*
D03*
Y283748D02*
D03*
Y275874D02*
D03*
Y268000D02*
D03*
Y260126D02*
D03*
Y252252D02*
D03*
D25*
X298839Y242606D02*
D03*
Y317016D02*
D03*
D26*
X470000Y165000D02*
D03*
X488500Y241000D02*
D03*
X349500Y314500D02*
D03*
D27*
X470000Y175000D02*
D03*
X488500Y251000D02*
D03*
Y261000D02*
D03*
X301500Y214000D02*
D03*
X311500D02*
D03*
X321500D02*
D03*
X331500D02*
D03*
X341500D02*
D03*
X351500D02*
D03*
X361500D02*
D03*
X371500D02*
D03*
X381500D02*
D03*
X391500D02*
D03*
X401500D02*
D03*
X411500D02*
D03*
X421500D02*
D03*
X431500D02*
D03*
X441500D02*
D03*
X451500D02*
D03*
X461500D02*
D03*
X471500D02*
D03*
X481500D02*
D03*
X491500D02*
D03*
X501500D02*
D03*
X511500D02*
D03*
X521500D02*
D03*
X531500D02*
D03*
X392500Y277000D02*
D03*
X349500Y304500D02*
D03*
Y294500D02*
D03*
Y284500D02*
D03*
Y274500D02*
D03*
Y264500D02*
D03*
Y254500D02*
D03*
Y244500D02*
D03*
D28*
X291500Y214000D02*
D03*
X382500Y277000D02*
D03*
D29*
X392500Y310000D02*
D03*
X384626D02*
D03*
M02*
