G04*
G04 #@! TF.GenerationSoftware,Altium Limited,Altium Designer,23.3.1 (30)*
G04*
G04 Layer_Physical_Order=3*
G04 Layer_Color=16440176*
%FSLAX44Y44*%
%MOMM*%
G71*
G04*
G04 #@! TF.SameCoordinates,1E3CE245-77AB-4D3B-BECC-05931035AD6D*
G04*
G04*
G04 #@! TF.FilePolarity,Positive*
G04*
G01*
G75*
%ADD52C,0.1270*%
%ADD56C,4.2000*%
%ADD57R,1.5000X1.5000*%
%ADD58C,1.5000*%
%ADD59O,1.7500X2.5000*%
%ADD60C,0.4000*%
G36*
X691381Y2039D02*
X2039D01*
Y683761D01*
X691381D01*
Y2039D01*
D02*
G37*
%LPC*%
G36*
X402168Y662016D02*
X400508D01*
Y640508D01*
X422016D01*
Y642168D01*
X421170Y646422D01*
X419510Y650428D01*
X417101Y654034D01*
X414034Y657101D01*
X410429Y659510D01*
X406422Y661170D01*
X402168Y662016D01*
D02*
G37*
G36*
X399492D02*
X397832D01*
X393578Y661170D01*
X389571Y659510D01*
X385966Y657101D01*
X382899Y654034D01*
X380490Y650428D01*
X378830Y646422D01*
X377984Y642168D01*
Y640508D01*
X399492D01*
Y662016D01*
D02*
G37*
G36*
X584896Y647390D02*
X583504D01*
X582217Y646857D01*
X581233Y645873D01*
X580700Y644586D01*
Y643194D01*
X581233Y641907D01*
X582217Y640923D01*
X583504Y640390D01*
X584896D01*
X586183Y640923D01*
X587167Y641907D01*
X587700Y643194D01*
Y644586D01*
X587167Y645873D01*
X586183Y646857D01*
X584896Y647390D01*
D02*
G37*
G36*
X63042Y637514D02*
X61649D01*
X60363Y636981D01*
X59378Y635996D01*
X58845Y634710D01*
Y633317D01*
X59037Y632854D01*
X54808Y628625D01*
X53538Y629151D01*
Y629854D01*
X53005Y631141D01*
X52021Y632125D01*
X50734Y632658D01*
X49342D01*
X48055Y632125D01*
X47071Y631141D01*
X46538Y629854D01*
Y628462D01*
X46662Y628162D01*
X34878Y616378D01*
X34513Y615832D01*
X34385Y615188D01*
Y391324D01*
X33115Y390722D01*
X32192Y391104D01*
X30800D01*
X29513Y390571D01*
X28529Y389587D01*
X27996Y388300D01*
Y386908D01*
X28529Y385621D01*
X29513Y384637D01*
X30800Y384104D01*
X32192D01*
X33115Y384486D01*
X34385Y383884D01*
Y356108D01*
X34513Y355464D01*
X34878Y354918D01*
X176102Y213694D01*
X176648Y213329D01*
X177292Y213201D01*
X258021D01*
X258145Y212901D01*
X259129Y211917D01*
X260416Y211384D01*
X261808D01*
X263095Y211917D01*
X264079Y212901D01*
X264612Y214188D01*
Y215580D01*
X264079Y216867D01*
X263095Y217851D01*
X261808Y218384D01*
X260416D01*
X259129Y217851D01*
X258361Y217083D01*
X257340Y217765D01*
X257299Y217837D01*
X257500Y218323D01*
Y219715D01*
X256967Y221002D01*
X255983Y221986D01*
X254696Y222519D01*
X253304D01*
X252017Y221986D01*
X251033Y221002D01*
X250909Y220702D01*
X177664D01*
X40037Y358329D01*
Y410335D01*
X41211Y410821D01*
X120142Y331889D01*
X120688Y331524D01*
X121332Y331396D01*
X166101D01*
X223097Y274400D01*
X223644Y274035D01*
X224288Y273907D01*
X240241D01*
X240365Y273607D01*
X241349Y272623D01*
X242636Y272090D01*
X244028D01*
X245315Y272623D01*
X246299Y273607D01*
X246832Y274894D01*
Y276286D01*
X246299Y277573D01*
X245315Y278557D01*
X244028Y279090D01*
X242636D01*
X241349Y278557D01*
X240365Y277573D01*
X240241Y277273D01*
X224985D01*
X169750Y332509D01*
X170236Y333682D01*
X237072D01*
X237196Y333383D01*
X238181Y332398D01*
X239467Y331865D01*
X240859D01*
X242146Y332398D01*
X243130Y333383D01*
X243663Y334669D01*
Y336062D01*
X243130Y337348D01*
X242146Y338332D01*
X240859Y338865D01*
X239467D01*
X238181Y338332D01*
X237196Y337348D01*
X237072Y337049D01*
X122977D01*
X46387Y413638D01*
Y588947D01*
X47657Y589626D01*
X48101Y589330D01*
Y451358D01*
X48229Y450714D01*
X48594Y450168D01*
X83900Y414862D01*
X84446Y414497D01*
X85090Y414369D01*
X222969D01*
X223093Y414069D01*
X224077Y413085D01*
X225364Y412552D01*
X226756D01*
X228043Y413085D01*
X229027Y414069D01*
X229560Y415356D01*
Y416018D01*
X230580Y416930D01*
X230733Y416957D01*
X232003D01*
X233289Y417490D01*
X234274Y418475D01*
X234806Y419761D01*
Y421154D01*
X234274Y422440D01*
X233289Y423424D01*
X232003Y423957D01*
X230610D01*
X229324Y423424D01*
X228339Y422440D01*
X228215Y422141D01*
X84938D01*
X63031Y444048D01*
X63087Y444529D01*
X63446Y445428D01*
X64467Y445851D01*
X65451Y446835D01*
X65984Y448122D01*
Y449514D01*
X65451Y450801D01*
X64467Y451785D01*
X63180Y452318D01*
X61788D01*
X60501Y451785D01*
X59517Y450801D01*
X59094Y449780D01*
X58195Y449421D01*
X57714Y449365D01*
X56547Y450531D01*
Y603823D01*
X58186Y605462D01*
X58486Y605338D01*
X59878D01*
X61165Y605871D01*
X62149Y606855D01*
X62682Y608142D01*
Y609534D01*
X62149Y610821D01*
X61165Y611805D01*
X59878Y612338D01*
X58486D01*
X57199Y611805D01*
X56215Y610821D01*
X55682Y609534D01*
Y608142D01*
X55806Y607842D01*
X53674Y605710D01*
X53309Y605164D01*
X53181Y604520D01*
Y596693D01*
X51911Y596167D01*
X51767Y596311D01*
X50480Y596844D01*
X49088D01*
X47801Y596311D01*
X47657Y596167D01*
X46387Y596693D01*
Y606363D01*
X50567Y610542D01*
X50866Y610418D01*
X52258D01*
X53545Y610951D01*
X54529Y611935D01*
X55062Y613222D01*
Y614384D01*
X55320Y614840D01*
X56071Y615498D01*
X57084D01*
X58371Y616031D01*
X59355Y617015D01*
X59888Y618302D01*
Y619694D01*
X59355Y620981D01*
X58371Y621965D01*
X57084Y622498D01*
X55692D01*
X54917Y622177D01*
X54198Y623254D01*
X61514Y630570D01*
X61649Y630514D01*
X63042D01*
X64328Y631046D01*
X65313Y632031D01*
X65845Y633317D01*
Y634710D01*
X65313Y635996D01*
X64328Y636981D01*
X63042Y637514D01*
D02*
G37*
G36*
X584896Y627070D02*
X583504D01*
X582217Y626537D01*
X581233Y625553D01*
X580700Y624266D01*
Y622874D01*
X581233Y621587D01*
X582217Y620603D01*
X583504Y620070D01*
X584896D01*
X586183Y620603D01*
X587167Y621587D01*
X587700Y622874D01*
Y624266D01*
X587167Y625553D01*
X586183Y626537D01*
X584896Y627070D01*
D02*
G37*
G36*
X422016Y639492D02*
X400508D01*
Y617984D01*
X402168D01*
X406422Y618830D01*
X410429Y620490D01*
X414034Y622899D01*
X417101Y625966D01*
X419510Y629571D01*
X421170Y633578D01*
X422016Y637832D01*
Y639492D01*
D02*
G37*
G36*
X399492D02*
X377984D01*
Y637832D01*
X378830Y633578D01*
X380490Y629571D01*
X382899Y625966D01*
X385966Y622899D01*
X389571Y620490D01*
X393578Y618830D01*
X397832Y617984D01*
X399492D01*
Y639492D01*
D02*
G37*
G36*
X584896Y608020D02*
X583504D01*
X582217Y607487D01*
X581233Y606503D01*
X580700Y605216D01*
Y603824D01*
X581233Y602537D01*
X582217Y601553D01*
X583504Y601020D01*
X584896D01*
X586183Y601553D01*
X587167Y602537D01*
X587700Y603824D01*
Y605216D01*
X587167Y606503D01*
X586183Y607487D01*
X584896Y608020D01*
D02*
G37*
G36*
X260241Y602125D02*
X258849D01*
X257563Y601592D01*
X256578Y600607D01*
X256045Y599321D01*
Y597929D01*
X256578Y596642D01*
X257563Y595658D01*
X258849Y595125D01*
X260241D01*
X261528Y595658D01*
X262512Y596642D01*
X263045Y597929D01*
Y599321D01*
X262512Y600607D01*
X261528Y601592D01*
X260241Y602125D01*
D02*
G37*
G36*
X584896Y587700D02*
X583504D01*
X582217Y587167D01*
X581233Y586183D01*
X580700Y584896D01*
Y583504D01*
X581233Y582217D01*
X582217Y581233D01*
X583504Y580700D01*
X584896D01*
X586183Y581233D01*
X587167Y582217D01*
X587700Y583504D01*
Y584896D01*
X587167Y586183D01*
X586183Y587167D01*
X584896Y587700D01*
D02*
G37*
G36*
X452054Y579572D02*
X450662D01*
X449375Y579039D01*
X448391Y578055D01*
X447858Y576768D01*
Y575376D01*
X448391Y574089D01*
X449375Y573105D01*
X450662Y572572D01*
X452054D01*
X453341Y573105D01*
X454325Y574089D01*
X454858Y575376D01*
Y576768D01*
X454325Y578055D01*
X453341Y579039D01*
X452054Y579572D01*
D02*
G37*
G36*
X259522Y577286D02*
X258130D01*
X256843Y576753D01*
X255859Y575769D01*
X255326Y574482D01*
Y573090D01*
X255859Y571803D01*
X256843Y570819D01*
X258130Y570286D01*
X259522D01*
X260809Y570819D01*
X261793Y571803D01*
X262326Y573090D01*
Y574482D01*
X261793Y575769D01*
X260809Y576753D01*
X259522Y577286D01*
D02*
G37*
G36*
X355788Y571190D02*
X354396D01*
X353109Y570657D01*
X352125Y569673D01*
X351592Y568386D01*
Y566994D01*
X352125Y565707D01*
X353109Y564723D01*
X354396Y564190D01*
X355788D01*
X357075Y564723D01*
X358059Y565707D01*
X358592Y566994D01*
Y568386D01*
X358059Y569673D01*
X357075Y570657D01*
X355788Y571190D01*
D02*
G37*
G36*
X470596Y567380D02*
X469204D01*
X467917Y566847D01*
X466933Y565863D01*
X466400Y564576D01*
Y563184D01*
X466933Y561897D01*
X467917Y560913D01*
X469204Y560380D01*
X470596D01*
X471883Y560913D01*
X472867Y561897D01*
X473400Y563184D01*
Y564576D01*
X472867Y565863D01*
X471883Y566847D01*
X470596Y567380D01*
D02*
G37*
G36*
X380934Y562046D02*
X379542D01*
X378255Y561513D01*
X377271Y560529D01*
X376738Y559242D01*
Y557850D01*
X377271Y556563D01*
X378255Y555579D01*
X379542Y555046D01*
X380934D01*
X382221Y555579D01*
X383205Y556563D01*
X383738Y557850D01*
Y559242D01*
X383205Y560529D01*
X382221Y561513D01*
X380934Y562046D01*
D02*
G37*
G36*
X154112Y552140D02*
X152720D01*
X151433Y551607D01*
X150449Y550623D01*
X149916Y549336D01*
Y547944D01*
X150449Y546657D01*
X151433Y545673D01*
X152720Y545140D01*
X154112D01*
X155399Y545673D01*
X156383Y546657D01*
X156916Y547944D01*
Y549336D01*
X156383Y550623D01*
X155399Y551607D01*
X154112Y552140D01*
D02*
G37*
G36*
X606994Y547822D02*
X605602D01*
X604315Y547289D01*
X603331Y546305D01*
X602798Y545018D01*
Y543626D01*
X603331Y542339D01*
X604315Y541355D01*
X605602Y540822D01*
X606994D01*
X608281Y541355D01*
X609265Y542339D01*
X609798Y543626D01*
Y545018D01*
X609265Y546305D01*
X608281Y547289D01*
X606994Y547822D01*
D02*
G37*
G36*
X304734Y542234D02*
X303342D01*
X302055Y541701D01*
X301071Y540717D01*
X300538Y539430D01*
Y538038D01*
X301071Y536751D01*
X302055Y535767D01*
X303342Y535234D01*
X304734D01*
X306021Y535767D01*
X307005Y536751D01*
X307538Y538038D01*
Y539430D01*
X307005Y540717D01*
X306021Y541701D01*
X304734Y542234D01*
D02*
G37*
G36*
X171449Y517248D02*
X170057D01*
X168770Y516715D01*
X167786Y515731D01*
X167253Y514444D01*
Y513052D01*
X167786Y511766D01*
X168770Y510781D01*
X170057Y510248D01*
X171449D01*
X172736Y510781D01*
X173720Y511766D01*
X174253Y513052D01*
Y514444D01*
X173720Y515731D01*
X172736Y516715D01*
X171449Y517248D01*
D02*
G37*
G36*
X429736Y516443D02*
X428344D01*
X427057Y515910D01*
X426073Y514926D01*
X425540Y513639D01*
Y512247D01*
X426073Y510961D01*
X427057Y509976D01*
X428344Y509443D01*
X429736D01*
X431022Y509976D01*
X432007Y510961D01*
X432540Y512247D01*
Y513639D01*
X432007Y514926D01*
X431022Y515910D01*
X429736Y516443D01*
D02*
G37*
G36*
X184084Y512516D02*
X182692D01*
X181405Y511983D01*
X180421Y510999D01*
X179888Y509712D01*
Y508320D01*
X180421Y507033D01*
X181405Y506049D01*
X182692Y505516D01*
X184084D01*
X185371Y506049D01*
X186355Y507033D01*
X186888Y508320D01*
Y509712D01*
X186355Y510999D01*
X185371Y511983D01*
X184084Y512516D01*
D02*
G37*
G36*
X476692Y507944D02*
X475300D01*
X474013Y507411D01*
X473029Y506427D01*
X472496Y505140D01*
Y503748D01*
X473029Y502461D01*
X474013Y501477D01*
X475300Y500944D01*
X476692D01*
X477979Y501477D01*
X478963Y502461D01*
X479496Y503748D01*
Y505140D01*
X478963Y506427D01*
X477979Y507411D01*
X476692Y507944D01*
D02*
G37*
G36*
X293558Y507690D02*
X292166D01*
X290879Y507157D01*
X289895Y506173D01*
X289362Y504886D01*
Y503494D01*
X289895Y502207D01*
X290879Y501223D01*
X292166Y500690D01*
X293558D01*
X294845Y501223D01*
X295829Y502207D01*
X296362Y503494D01*
Y504886D01*
X295829Y506173D01*
X294845Y507157D01*
X293558Y507690D01*
D02*
G37*
G36*
X361736Y507435D02*
X360344D01*
X359058Y506902D01*
X358073Y505918D01*
X357540Y504631D01*
Y503239D01*
X358073Y501952D01*
X359058Y500968D01*
X360344Y500435D01*
X361736D01*
X363023Y500968D01*
X364007Y501952D01*
X364540Y503239D01*
Y504631D01*
X364007Y505918D01*
X363023Y506902D01*
X361736Y507435D01*
D02*
G37*
G36*
X411922Y505912D02*
X410530D01*
X409243Y505379D01*
X408259Y504395D01*
X407726Y503108D01*
Y501716D01*
X408259Y500429D01*
X409243Y499445D01*
X410530Y498912D01*
X411922D01*
X413209Y499445D01*
X414193Y500429D01*
X414726Y501716D01*
Y503108D01*
X414193Y504395D01*
X413209Y505379D01*
X411922Y505912D01*
D02*
G37*
G36*
X546034Y501848D02*
X544642D01*
X543355Y501315D01*
X542371Y500331D01*
X541838Y499044D01*
Y497652D01*
X542371Y496365D01*
X543355Y495381D01*
X544642Y494848D01*
X546034D01*
X547321Y495381D01*
X548305Y496365D01*
X548838Y497652D01*
Y499044D01*
X548305Y500331D01*
X547321Y501315D01*
X546034Y501848D01*
D02*
G37*
G36*
X591754Y483814D02*
X590362D01*
X589075Y483281D01*
X588091Y482297D01*
X587558Y481010D01*
Y479618D01*
X588091Y478331D01*
X589075Y477347D01*
X590362Y476814D01*
X591754D01*
X593041Y477347D01*
X594025Y478331D01*
X594558Y479618D01*
Y481010D01*
X594025Y482297D01*
X593041Y483281D01*
X591754Y483814D01*
D02*
G37*
G36*
X459674Y472384D02*
X458282D01*
X456995Y471851D01*
X456011Y470867D01*
X455478Y469580D01*
Y468188D01*
X456011Y466901D01*
X456995Y465917D01*
X458282Y465384D01*
X459674D01*
X460961Y465917D01*
X461945Y466901D01*
X462478Y468188D01*
Y469580D01*
X461945Y470867D01*
X460961Y471851D01*
X459674Y472384D01*
D02*
G37*
G36*
X524698Y469844D02*
X523306D01*
X522019Y469311D01*
X521035Y468327D01*
X520502Y467040D01*
Y465648D01*
X521035Y464361D01*
X522019Y463377D01*
X523306Y462844D01*
X524698D01*
X525985Y463377D01*
X526969Y464361D01*
X527502Y465648D01*
Y467040D01*
X526969Y468327D01*
X525985Y469311D01*
X524698Y469844D01*
D02*
G37*
G36*
X62164Y467558D02*
X60772D01*
X59485Y467025D01*
X58501Y466041D01*
X57968Y464754D01*
Y463362D01*
X58501Y462075D01*
X59485Y461091D01*
X60772Y460558D01*
X62164D01*
X63451Y461091D01*
X64435Y462075D01*
X64968Y463362D01*
Y464754D01*
X64435Y466041D01*
X63451Y467025D01*
X62164Y467558D01*
D02*
G37*
G36*
X351978Y463240D02*
X350586D01*
X349299Y462707D01*
X348315Y461723D01*
X347782Y460436D01*
Y459044D01*
X348315Y457757D01*
X349299Y456773D01*
X350586Y456240D01*
X351978D01*
X353265Y456773D01*
X354249Y457757D01*
X354782Y459044D01*
Y460436D01*
X354249Y461723D01*
X353265Y462707D01*
X351978Y463240D01*
D02*
G37*
G36*
X245298Y448254D02*
X243906D01*
X242619Y447721D01*
X241635Y446737D01*
X241102Y445450D01*
Y444058D01*
X241635Y442771D01*
X242619Y441787D01*
X243906Y441254D01*
X245298D01*
X246585Y441787D01*
X247569Y442771D01*
X248102Y444058D01*
Y445450D01*
X247569Y446737D01*
X246585Y447721D01*
X245298Y448254D01*
D02*
G37*
G36*
X296423Y444646D02*
X295031D01*
X293744Y444114D01*
X292760Y443129D01*
X292227Y441843D01*
Y440450D01*
X292760Y439164D01*
X293744Y438179D01*
X295031Y437646D01*
X296423D01*
X297709Y438179D01*
X298694Y439164D01*
X299227Y440450D01*
Y441843D01*
X298694Y443129D01*
X297709Y444114D01*
X296423Y444646D01*
D02*
G37*
G36*
X451451Y434379D02*
X450059D01*
X448772Y433846D01*
X447788Y432862D01*
X447255Y431575D01*
Y430183D01*
X447788Y428896D01*
X448772Y427912D01*
X450059Y427379D01*
X451451D01*
X452738Y427912D01*
X453722Y428896D01*
X454255Y430183D01*
Y431575D01*
X453722Y432862D01*
X452738Y433846D01*
X451451Y434379D01*
D02*
G37*
G36*
X490720Y429787D02*
X489328D01*
X488042Y429254D01*
X487057Y428269D01*
X486524Y426983D01*
Y425590D01*
X487057Y424304D01*
X488042Y423319D01*
X489328Y422787D01*
X490720D01*
X492007Y423319D01*
X492991Y424304D01*
X493524Y425590D01*
Y426983D01*
X492991Y428269D01*
X492007Y429254D01*
X490720Y429787D01*
D02*
G37*
G36*
X467802Y428696D02*
X466410D01*
X465123Y428163D01*
X464139Y427179D01*
X463606Y425892D01*
Y424500D01*
X464139Y423213D01*
X465123Y422229D01*
X466410Y421696D01*
X467802D01*
X469089Y422229D01*
X470073Y423213D01*
X470606Y424500D01*
Y425892D01*
X470073Y427179D01*
X469089Y428163D01*
X467802Y428696D01*
D02*
G37*
G36*
X281620Y616402D02*
X280228D01*
X278941Y615869D01*
X277957Y614885D01*
X277424Y613598D01*
Y612206D01*
X277957Y610919D01*
X278941Y609935D01*
X280228Y609402D01*
X281541D01*
X308427Y582516D01*
X308129Y581018D01*
X307643Y580817D01*
X306659Y579833D01*
X306126Y578546D01*
Y577154D01*
X306659Y575867D01*
X307643Y574883D01*
X308930Y574350D01*
X310322D01*
X311609Y574883D01*
X312593Y575867D01*
X312794Y576353D01*
X314292Y576651D01*
X320064Y570880D01*
Y480385D01*
X320192Y479741D01*
X320557Y479195D01*
X324781Y474971D01*
Y420711D01*
X323511Y419862D01*
X323025Y420063D01*
X321633D01*
X320346Y419530D01*
X319362Y418546D01*
X318829Y417259D01*
Y415867D01*
X318953Y415568D01*
X312485Y409099D01*
X138755D01*
X138111Y408971D01*
X137565Y408606D01*
X108438Y379479D01*
X108138Y379603D01*
X106746D01*
X105459Y379070D01*
X104475Y378086D01*
X103942Y376799D01*
Y375407D01*
X104475Y374120D01*
X105459Y373136D01*
X106746Y372603D01*
X108138D01*
X109425Y373136D01*
X110409Y374120D01*
X110942Y375407D01*
Y376799D01*
X110818Y377099D01*
X139452Y405733D01*
X313182D01*
X313826Y405861D01*
X314372Y406226D01*
X318453Y410307D01*
X319600Y409710D01*
X319627Y409684D01*
Y348027D01*
X318911Y347635D01*
X318357Y347437D01*
X317180Y347924D01*
X315788D01*
X314501Y347391D01*
X313517Y346407D01*
X312984Y345120D01*
Y343728D01*
X313517Y342441D01*
X314501Y341457D01*
X315788Y340924D01*
X317180D01*
X318357Y341411D01*
X318911Y341213D01*
X319627Y340821D01*
Y270807D01*
X319327Y270683D01*
X318343Y269699D01*
X317810Y268412D01*
Y267020D01*
X318343Y265733D01*
X319327Y264749D01*
X320614Y264216D01*
X322006D01*
X323293Y264749D01*
X323735Y265191D01*
X325005Y264665D01*
Y104292D01*
X325133Y103648D01*
X325498Y103102D01*
X330188Y98412D01*
X329469Y97335D01*
X329118Y97480D01*
X327726D01*
X326439Y96947D01*
X325455Y95963D01*
X324922Y94676D01*
Y93284D01*
X325455Y91997D01*
X326439Y91013D01*
X327726Y90480D01*
X329118D01*
X330405Y91013D01*
X331389Y91997D01*
X331637Y92597D01*
X332997Y93011D01*
X333071Y92993D01*
X334300Y92484D01*
X335693D01*
X335710Y92491D01*
X336429Y91414D01*
X319512Y74496D01*
X319212Y74620D01*
X317820D01*
X316533Y74087D01*
X315549Y73103D01*
X315016Y71816D01*
Y70424D01*
X315549Y69137D01*
X316533Y68153D01*
X317820Y67620D01*
X319212D01*
X320499Y68153D01*
X321483Y69137D01*
X321892Y70125D01*
X322734Y70155D01*
X323189Y70060D01*
X323677Y68883D01*
X324661Y67899D01*
X325948Y67366D01*
X327340D01*
X328627Y67899D01*
X329611Y68883D01*
X329714Y69132D01*
X331089D01*
X331297Y68629D01*
X332281Y67645D01*
X333568Y67112D01*
X334960D01*
X336247Y67645D01*
X337231Y68629D01*
X337764Y69916D01*
Y71308D01*
X337640Y71607D01*
X387239Y121206D01*
X388736Y120908D01*
X388938Y120422D01*
X389922Y119438D01*
X391208Y118905D01*
X392601D01*
X393887Y119438D01*
X394872Y120422D01*
X395405Y121709D01*
Y123101D01*
X394872Y124388D01*
X393887Y125372D01*
X393402Y125573D01*
X393104Y127071D01*
X404034Y138002D01*
X404399Y138548D01*
X404527Y139192D01*
Y182542D01*
X405797Y183391D01*
X406283Y183190D01*
X407675D01*
X408962Y183723D01*
X409946Y184707D01*
X410479Y185994D01*
Y187386D01*
X409946Y188673D01*
X408962Y189657D01*
X407675Y190190D01*
X406283D01*
X405797Y189989D01*
X404527Y190837D01*
Y253090D01*
X405081Y253319D01*
X406065Y254303D01*
X406598Y255590D01*
Y256982D01*
X406065Y258269D01*
X405081Y259253D01*
X403794Y259786D01*
X402402D01*
X401115Y259253D01*
X400131Y258269D01*
X399598Y256982D01*
Y256223D01*
X398827Y255343D01*
X398425Y255214D01*
X397322D01*
X396035Y254681D01*
X395051Y253697D01*
X394518Y252410D01*
Y251018D01*
X395051Y249731D01*
X396035Y248747D01*
X396081Y248728D01*
Y142683D01*
X327640Y74242D01*
X327340Y74366D01*
X325948D01*
X325932Y74359D01*
X325213Y75436D01*
X382119Y132343D01*
X382484Y132889D01*
X382612Y133533D01*
Y220175D01*
X382911Y220299D01*
X383896Y221283D01*
X384429Y222570D01*
Y223962D01*
X383896Y225249D01*
X382911Y226233D01*
X381625Y226766D01*
X380233D01*
X378946Y226233D01*
X377962Y225249D01*
X377429Y223962D01*
Y222570D01*
X377962Y221283D01*
X378946Y220299D01*
X379245Y220175D01*
Y134230D01*
X347093Y102077D01*
X346978Y102104D01*
X345919Y102700D01*
Y103738D01*
X345387Y105024D01*
X344402Y106009D01*
X344103Y106133D01*
Y348580D01*
X347900Y352378D01*
X348265Y352924D01*
X348393Y353568D01*
Y364701D01*
X348693Y364825D01*
X349677Y365809D01*
X350210Y367096D01*
Y368488D01*
X349677Y369775D01*
X348693Y370759D01*
X347406Y371292D01*
X346014D01*
X344727Y370759D01*
X343743Y369775D01*
X343210Y368488D01*
Y367096D01*
X343743Y365809D01*
X344727Y364825D01*
X345027Y364701D01*
Y361098D01*
X343757Y360347D01*
X343088Y360624D01*
X341696D01*
X340409Y360091D01*
X339425Y359107D01*
X338892Y357820D01*
Y356428D01*
X339016Y356129D01*
X325498Y342611D01*
X325133Y342064D01*
X325005Y341420D01*
Y271136D01*
X323811Y270584D01*
X322993Y271159D01*
Y353803D01*
X324263Y354435D01*
X325136Y354073D01*
X326529D01*
X327815Y354606D01*
X328800Y355590D01*
X329333Y356877D01*
Y358269D01*
X328800Y359556D01*
X327815Y360540D01*
X327516Y360664D01*
Y403436D01*
X331481Y407402D01*
X331846Y407948D01*
X331974Y408592D01*
Y571409D01*
X331846Y572053D01*
X331481Y572599D01*
X295730Y608350D01*
X295854Y608650D01*
Y610042D01*
X295321Y611329D01*
X294337Y612313D01*
X293050Y612846D01*
X291658D01*
X290371Y612313D01*
X289387Y611329D01*
X288854Y610042D01*
Y608650D01*
X288856Y608644D01*
X287780Y607925D01*
X284153Y611551D01*
X284424Y612206D01*
Y613598D01*
X283891Y614885D01*
X282907Y615869D01*
X281620Y616402D01*
D02*
G37*
G36*
X492284Y419142D02*
X490892D01*
X489606Y418609D01*
X488621Y417625D01*
X488088Y416338D01*
Y414946D01*
X488621Y413660D01*
X489606Y412675D01*
X490892Y412142D01*
X492284D01*
X493571Y412675D01*
X494555Y413660D01*
X495088Y414946D01*
Y416338D01*
X494555Y417625D01*
X493571Y418609D01*
X492284Y419142D01*
D02*
G37*
G36*
X524444Y404058D02*
X523052D01*
X521765Y403525D01*
X520781Y402541D01*
X520248Y401254D01*
Y399862D01*
X520781Y398575D01*
X521765Y397591D01*
X523052Y397058D01*
X524444D01*
X525731Y397591D01*
X526715Y398575D01*
X527248Y399862D01*
Y401254D01*
X526715Y402541D01*
X525731Y403525D01*
X524444Y404058D01*
D02*
G37*
G36*
X243774D02*
X242382D01*
X241095Y403525D01*
X240111Y402541D01*
X239578Y401254D01*
Y399862D01*
X240111Y398575D01*
X241095Y397591D01*
X242382Y397058D01*
X243774D01*
X245061Y397591D01*
X246045Y398575D01*
X246578Y399862D01*
Y401254D01*
X246045Y402541D01*
X245061Y403525D01*
X243774Y404058D01*
D02*
G37*
G36*
X643570Y396184D02*
X642178D01*
X640891Y395651D01*
X639907Y394667D01*
X639374Y393380D01*
Y391988D01*
X639907Y390701D01*
X640891Y389717D01*
X642178Y389184D01*
X643570D01*
X644857Y389717D01*
X645841Y390701D01*
X646374Y391988D01*
Y393380D01*
X645841Y394667D01*
X644857Y395651D01*
X643570Y396184D01*
D02*
G37*
G36*
X605216Y394660D02*
X603824D01*
X602537Y394127D01*
X601553Y393143D01*
X601020Y391856D01*
Y390464D01*
X601553Y389177D01*
X602537Y388193D01*
X603824Y387660D01*
X605216D01*
X606503Y388193D01*
X607487Y389177D01*
X608020Y390464D01*
Y391856D01*
X607487Y393143D01*
X606503Y394127D01*
X605216Y394660D01*
D02*
G37*
G36*
X394904Y596844D02*
X393512D01*
X392225Y596311D01*
X391241Y595327D01*
X390708Y594040D01*
Y592648D01*
X391241Y591361D01*
X392225Y590377D01*
X393512Y589844D01*
X394904D01*
X395204Y589968D01*
X446881Y538291D01*
Y455676D01*
X447009Y455032D01*
X447374Y454486D01*
X473551Y428309D01*
Y406908D01*
X473679Y406264D01*
X474044Y405718D01*
X493194Y386567D01*
X493070Y386268D01*
Y384876D01*
X493603Y383589D01*
X494587Y382605D01*
X495874Y382072D01*
X497266D01*
X498553Y382605D01*
X499537Y383589D01*
X500070Y384876D01*
Y386268D01*
X499537Y387555D01*
X498553Y388539D01*
X497266Y389072D01*
X495874D01*
X495574Y388948D01*
X476917Y407605D01*
Y429006D01*
X476789Y429650D01*
X476424Y430196D01*
X450247Y456373D01*
Y538988D01*
X450119Y539632D01*
X449754Y540178D01*
X397584Y592349D01*
X397708Y592648D01*
Y594040D01*
X397175Y595327D01*
X396191Y596311D01*
X394904Y596844D01*
D02*
G37*
G36*
X647126Y386024D02*
X645734D01*
X644447Y385491D01*
X643463Y384507D01*
X642930Y383220D01*
Y381828D01*
X643463Y380541D01*
X644447Y379557D01*
X645734Y379024D01*
X647126D01*
X648413Y379557D01*
X649397Y380541D01*
X649930Y381828D01*
Y383220D01*
X649397Y384507D01*
X648413Y385491D01*
X647126Y386024D01*
D02*
G37*
G36*
X605216Y384500D02*
X603824D01*
X602537Y383967D01*
X601553Y382983D01*
X601020Y381696D01*
Y380304D01*
X601553Y379017D01*
X602537Y378033D01*
X603824Y377500D01*
X605216D01*
X606503Y378033D01*
X607487Y379017D01*
X608020Y380304D01*
Y381696D01*
X607487Y382983D01*
X606503Y383967D01*
X605216Y384500D01*
D02*
G37*
G36*
X484820Y384246D02*
X483428D01*
X482141Y383713D01*
X481157Y382729D01*
X480624Y381442D01*
Y380050D01*
X481157Y378763D01*
X482141Y377779D01*
X483428Y377246D01*
X484820D01*
X486107Y377779D01*
X487091Y378763D01*
X487624Y380050D01*
Y381442D01*
X487091Y382729D01*
X486107Y383713D01*
X484820Y384246D01*
D02*
G37*
G36*
X197390Y366871D02*
X195998D01*
X194711Y366339D01*
X193727Y365354D01*
X193194Y364068D01*
Y362675D01*
X193727Y361389D01*
X194711Y360404D01*
X195998Y359871D01*
X197390D01*
X198677Y360404D01*
X199661Y361389D01*
X200194Y362675D01*
Y364068D01*
X199661Y365354D01*
X198677Y366339D01*
X197390Y366871D01*
D02*
G37*
G36*
X243774Y366720D02*
X242382D01*
X241095Y366187D01*
X240111Y365203D01*
X239578Y363916D01*
Y362524D01*
X240111Y361237D01*
X241095Y360253D01*
X242382Y359720D01*
X243774D01*
X245061Y360253D01*
X246045Y361237D01*
X246578Y362524D01*
Y363916D01*
X246045Y365203D01*
X245061Y366187D01*
X243774Y366720D01*
D02*
G37*
G36*
X605216Y364180D02*
X603824D01*
X602537Y363647D01*
X601553Y362663D01*
X601020Y361376D01*
Y359984D01*
X601553Y358697D01*
X602537Y357713D01*
X603824Y357180D01*
X605216D01*
X606503Y357713D01*
X607487Y358697D01*
X608020Y359984D01*
Y361376D01*
X607487Y362663D01*
X606503Y363647D01*
X605216Y364180D01*
D02*
G37*
G36*
X471866Y363926D02*
X470474D01*
X469187Y363393D01*
X468203Y362409D01*
X467670Y361122D01*
Y359730D01*
X468203Y358443D01*
X469187Y357459D01*
X470474Y356926D01*
X471866D01*
X473153Y357459D01*
X474137Y358443D01*
X474670Y359730D01*
Y361122D01*
X474137Y362409D01*
X473153Y363393D01*
X471866Y363926D01*
D02*
G37*
G36*
X472374Y349956D02*
X470982D01*
X469695Y349423D01*
X468711Y348439D01*
X468704Y348422D01*
X468354Y348280D01*
X467248Y348225D01*
X466542Y348931D01*
X465255Y349463D01*
X463863D01*
X462576Y348931D01*
X461592Y347946D01*
X461059Y346660D01*
Y345267D01*
X461592Y343981D01*
X462576Y342996D01*
X463863Y342463D01*
X465255D01*
X466542Y342996D01*
X467526Y343981D01*
X467533Y343998D01*
X467883Y344139D01*
X468989Y344195D01*
X469695Y343489D01*
X470982Y342956D01*
X472374D01*
X473661Y343489D01*
X474645Y344473D01*
X475178Y345760D01*
Y347152D01*
X474645Y348439D01*
X473661Y349423D01*
X472374Y349956D01*
D02*
G37*
G36*
X605216Y354528D02*
X603824D01*
X602537Y353995D01*
X601553Y353011D01*
X601020Y351724D01*
Y350332D01*
X601553Y349045D01*
X602537Y348061D01*
X603824Y347528D01*
X605216D01*
X606503Y348061D01*
X607487Y349045D01*
X608020Y350332D01*
Y351724D01*
X607487Y353011D01*
X606503Y353995D01*
X605216Y354528D01*
D02*
G37*
G36*
X223587Y349049D02*
X222195D01*
X220909Y348516D01*
X219924Y347532D01*
X219391Y346245D01*
Y344853D01*
X219924Y343567D01*
X220909Y342582D01*
X222195Y342049D01*
X223587D01*
X224874Y342582D01*
X225858Y343567D01*
X226391Y344853D01*
Y346245D01*
X225858Y347532D01*
X224874Y348516D01*
X223587Y349049D01*
D02*
G37*
G36*
X524952Y344114D02*
X523560D01*
X522273Y343581D01*
X521289Y342597D01*
X520756Y341310D01*
Y339918D01*
X521289Y338631D01*
X522273Y337647D01*
X523560Y337114D01*
X524952D01*
X526239Y337647D01*
X527223Y338631D01*
X527756Y339918D01*
Y341310D01*
X527223Y342597D01*
X526239Y343581D01*
X524952Y344114D01*
D02*
G37*
G36*
X604962Y334208D02*
X603570D01*
X602283Y333675D01*
X601299Y332691D01*
X600766Y331404D01*
Y330012D01*
X601299Y328725D01*
X602283Y327741D01*
X603570Y327208D01*
X604962D01*
X606249Y327741D01*
X607233Y328725D01*
X607766Y330012D01*
Y331404D01*
X607233Y332691D01*
X606249Y333675D01*
X604962Y334208D01*
D02*
G37*
G36*
X195260Y325064D02*
X193868D01*
X192581Y324531D01*
X191597Y323547D01*
X191064Y322260D01*
Y320868D01*
X191597Y319581D01*
X192581Y318597D01*
X193868Y318064D01*
X195260D01*
X196547Y318597D01*
X197531Y319581D01*
X198064Y320868D01*
Y322260D01*
X197531Y323547D01*
X196547Y324531D01*
X195260Y325064D01*
D02*
G37*
G36*
X297746Y324377D02*
X296353D01*
X295067Y323844D01*
X294082Y322860D01*
X293549Y321573D01*
Y320181D01*
X294082Y318895D01*
X295067Y317910D01*
X296353Y317377D01*
X297746D01*
X299032Y317910D01*
X300017Y318895D01*
X300549Y320181D01*
Y321573D01*
X300017Y322860D01*
X299032Y323844D01*
X297746Y324377D01*
D02*
G37*
G36*
X605216Y324048D02*
X603824D01*
X602537Y323515D01*
X601553Y322531D01*
X601020Y321244D01*
Y319852D01*
X601553Y318565D01*
X602537Y317581D01*
X603824Y317048D01*
X605216D01*
X606503Y317581D01*
X607487Y318565D01*
X608020Y319852D01*
Y321244D01*
X607487Y322531D01*
X606503Y323515D01*
X605216Y324048D01*
D02*
G37*
G36*
X239584Y319348D02*
X238192D01*
X236905Y318815D01*
X235921Y317831D01*
X235388Y316544D01*
Y315152D01*
X235921Y313865D01*
X236905Y312881D01*
X238192Y312348D01*
X239584D01*
X240871Y312881D01*
X241855Y313865D01*
X242388Y315152D01*
Y316544D01*
X241855Y317831D01*
X240871Y318815D01*
X239584Y319348D01*
D02*
G37*
G36*
X530540Y314396D02*
X529148D01*
X527861Y313863D01*
X526877Y312879D01*
X526344Y311592D01*
Y310200D01*
X525500Y308919D01*
X524559Y308529D01*
X523575Y307545D01*
X523042Y306258D01*
Y304866D01*
X523575Y303579D01*
X524559Y302595D01*
X525846Y302062D01*
X527238D01*
X528525Y302595D01*
X529509Y303579D01*
X530042Y304866D01*
Y306258D01*
X530886Y307539D01*
X531827Y307929D01*
X532811Y308913D01*
X533344Y310200D01*
Y311592D01*
X532811Y312879D01*
X531827Y313863D01*
X530540Y314396D01*
D02*
G37*
G36*
X390332Y308046D02*
X388940D01*
X387653Y307513D01*
X386669Y306529D01*
X386136Y305242D01*
Y303850D01*
X386669Y302563D01*
X387653Y301579D01*
X388940Y301046D01*
X390332D01*
X391619Y301579D01*
X392603Y302563D01*
X393136Y303850D01*
Y305242D01*
X392603Y306529D01*
X391619Y307513D01*
X390332Y308046D01*
D02*
G37*
G36*
X245552Y304744D02*
X244160D01*
X242873Y304211D01*
X241889Y303227D01*
X241356Y301940D01*
Y300548D01*
X240497Y299304D01*
X240079Y299131D01*
X239095Y298147D01*
X238562Y296860D01*
Y295468D01*
X239095Y294181D01*
X240079Y293197D01*
X241366Y292664D01*
X242758D01*
X244045Y293197D01*
X245029Y294181D01*
X245562Y295468D01*
Y296860D01*
X246421Y298104D01*
X246839Y298277D01*
X247823Y299261D01*
X248356Y300548D01*
Y301940D01*
X247823Y303227D01*
X246839Y304211D01*
X245552Y304744D01*
D02*
G37*
G36*
X455009Y369443D02*
X453617D01*
X452330Y368910D01*
X451346Y367925D01*
X450813Y366639D01*
Y365247D01*
X451346Y363960D01*
X452330Y362976D01*
X452469Y362919D01*
Y71925D01*
X452169Y71801D01*
X451185Y70817D01*
X450652Y69530D01*
Y68138D01*
X451185Y66851D01*
X452169Y65867D01*
X453456Y65334D01*
X454848D01*
X456135Y65867D01*
X457119Y66851D01*
X457528Y67839D01*
X458370Y67869D01*
X458825Y67774D01*
X459313Y66597D01*
X460297Y65613D01*
X461584Y65080D01*
X462976D01*
X464263Y65613D01*
X465247Y66597D01*
X465780Y67884D01*
Y69276D01*
X465247Y70563D01*
X464263Y71547D01*
X463963Y71671D01*
Y217848D01*
X465233Y218697D01*
X465719Y218496D01*
X467111D01*
X468398Y219029D01*
X469382Y220013D01*
X469915Y221300D01*
Y222692D01*
X469382Y223979D01*
X468398Y224963D01*
X467111Y225496D01*
X465719D01*
X465233Y225295D01*
X463963Y226143D01*
Y270208D01*
X475972Y282217D01*
X476959Y281407D01*
X476727Y281060D01*
X476599Y280416D01*
Y71925D01*
X476299Y71801D01*
X475315Y70817D01*
X474782Y69530D01*
Y68138D01*
X475315Y66851D01*
X476299Y65867D01*
X477586Y65334D01*
X478978D01*
X480265Y65867D01*
X481249Y66851D01*
X481782Y68138D01*
Y69530D01*
X481249Y70817D01*
X480265Y71801D01*
X479965Y71925D01*
Y279719D01*
X490241Y289994D01*
X490540Y289870D01*
X491932D01*
X493219Y290403D01*
X494203Y291387D01*
X494736Y292674D01*
Y294066D01*
X494203Y295353D01*
X493258Y296297D01*
X493248Y296358D01*
X493255Y296578D01*
X493413Y297631D01*
X494340Y298016D01*
X495325Y299000D01*
X495858Y300287D01*
Y301679D01*
X495325Y302966D01*
X494340Y303950D01*
X493054Y304483D01*
X491661D01*
X490375Y303950D01*
X489390Y302966D01*
X488858Y301679D01*
Y300287D01*
X488982Y299987D01*
X461090Y272096D01*
X460725Y271549D01*
X460597Y270905D01*
Y71671D01*
X460297Y71547D01*
X459313Y70563D01*
X458904Y69575D01*
X458062Y69545D01*
X457607Y69640D01*
X457119Y70817D01*
X456135Y71801D01*
X455835Y71925D01*
Y362785D01*
X456296Y362976D01*
X457280Y363960D01*
X457813Y365247D01*
Y366639D01*
X457280Y367925D01*
X456296Y368910D01*
X455009Y369443D01*
D02*
G37*
G36*
X604454Y294330D02*
X603062D01*
X601775Y293797D01*
X600791Y292813D01*
X600258Y291526D01*
Y290134D01*
X600791Y288847D01*
X601775Y287863D01*
X603062Y287330D01*
X604454D01*
X605741Y287863D01*
X606725Y288847D01*
X607258Y290134D01*
Y291526D01*
X606725Y292813D01*
X605741Y293797D01*
X604454Y294330D01*
D02*
G37*
G36*
X526222Y293822D02*
X524830D01*
X523543Y293289D01*
X522559Y292305D01*
X522026Y291018D01*
Y289626D01*
X522559Y288339D01*
X523543Y287355D01*
X524830Y286822D01*
X526222D01*
X527509Y287355D01*
X528493Y288339D01*
X529026Y289626D01*
Y291018D01*
X528493Y292305D01*
X527509Y293289D01*
X526222Y293822D01*
D02*
G37*
G36*
X133538Y291282D02*
X132146D01*
X130859Y290749D01*
X129875Y289765D01*
X129342Y288478D01*
Y287086D01*
X129875Y285799D01*
X130859Y284815D01*
X132146Y284282D01*
X133538D01*
X134825Y284815D01*
X135809Y285799D01*
X136342Y287086D01*
Y288478D01*
X135809Y289765D01*
X134825Y290749D01*
X133538Y291282D01*
D02*
G37*
G36*
X242273Y290894D02*
X240881D01*
X239595Y290361D01*
X238610Y289377D01*
X238077Y288090D01*
Y286698D01*
X238610Y285412D01*
X239595Y284427D01*
X240881Y283894D01*
X242273D01*
X243560Y284427D01*
X244544Y285412D01*
X245077Y286698D01*
Y288090D01*
X244544Y289377D01*
X243560Y290361D01*
X242273Y290894D01*
D02*
G37*
G36*
X590992Y287472D02*
X589600D01*
X588313Y286939D01*
X587329Y285955D01*
X586796Y284668D01*
Y283276D01*
X587329Y281989D01*
X588313Y281005D01*
X589600Y280472D01*
X590992D01*
X592279Y281005D01*
X593263Y281989D01*
X593796Y283276D01*
Y284668D01*
X593263Y285955D01*
X592279Y286939D01*
X590992Y287472D01*
D02*
G37*
G36*
X489646Y276296D02*
X488254D01*
X486967Y275763D01*
X485983Y274779D01*
X485450Y273492D01*
Y272100D01*
X485983Y270813D01*
X486967Y269829D01*
X488254Y269296D01*
X489646D01*
X490933Y269829D01*
X491917Y270813D01*
X492450Y272100D01*
Y273492D01*
X491917Y274779D01*
X490933Y275763D01*
X489646Y276296D01*
D02*
G37*
G36*
X603184Y274518D02*
X601792D01*
X600505Y273985D01*
X599521Y273001D01*
X598988Y271714D01*
Y270322D01*
X599521Y269035D01*
X600505Y268051D01*
X601792Y267518D01*
X603184D01*
X604471Y268051D01*
X605455Y269035D01*
X605988Y270322D01*
Y271714D01*
X605455Y273001D01*
X604471Y273985D01*
X603184Y274518D01*
D02*
G37*
G36*
X526222Y269184D02*
X524830D01*
X523543Y268651D01*
X522559Y267667D01*
X522026Y266380D01*
Y264988D01*
X522559Y263701D01*
X523543Y262717D01*
X524830Y262184D01*
X526222D01*
X527509Y262717D01*
X528493Y263701D01*
X529026Y264988D01*
Y266380D01*
X528493Y267667D01*
X527509Y268651D01*
X526222Y269184D01*
D02*
G37*
G36*
X534604Y259786D02*
X533212D01*
X531925Y259253D01*
X530941Y258269D01*
X530680Y257639D01*
X529305D01*
X529255Y257761D01*
X528271Y258745D01*
X526984Y259278D01*
X525592D01*
X524305Y258745D01*
X523321Y257761D01*
X522788Y256474D01*
Y255082D01*
X523321Y253795D01*
X524305Y252811D01*
X525592Y252278D01*
X526984D01*
X528271Y252811D01*
X529255Y253795D01*
X529516Y254425D01*
X530891D01*
X530941Y254303D01*
X531925Y253319D01*
X533212Y252786D01*
X534604D01*
X535891Y253319D01*
X536875Y254303D01*
X537408Y255590D01*
Y256982D01*
X536875Y258269D01*
X535891Y259253D01*
X534604Y259786D01*
D02*
G37*
G36*
X603438Y264612D02*
X602046D01*
X600759Y264079D01*
X599775Y263095D01*
X599242Y261808D01*
Y260416D01*
X599775Y259129D01*
X600759Y258145D01*
X602046Y257612D01*
X603438D01*
X604725Y258145D01*
X605709Y259129D01*
X606242Y260416D01*
Y261808D01*
X605709Y263095D01*
X604725Y264079D01*
X603438Y264612D01*
D02*
G37*
G36*
X200086Y280360D02*
X198694D01*
X197407Y279827D01*
X196423Y278843D01*
X195890Y277556D01*
Y276164D01*
X196423Y274877D01*
X197407Y273893D01*
X198587Y273404D01*
X198757Y273229D01*
X199304Y272090D01*
X198938Y271206D01*
Y269814D01*
X199471Y268527D01*
X200455Y267543D01*
X201742Y267010D01*
X202083D01*
X203170Y266662D01*
X203256Y265837D01*
Y265242D01*
X203789Y263955D01*
X204773Y262971D01*
X204827Y262703D01*
X204605Y262481D01*
X204072Y261195D01*
Y259803D01*
X204605Y258516D01*
X205589Y257532D01*
X206876Y256999D01*
X208268D01*
X209554Y257532D01*
X210539Y258516D01*
X211072Y259803D01*
Y261195D01*
X210539Y262481D01*
X209555Y263466D01*
X209501Y263734D01*
X209723Y263955D01*
X210256Y265242D01*
Y266634D01*
X209723Y267921D01*
X208739Y268905D01*
X207452Y269438D01*
X207111D01*
X206024Y269786D01*
X205938Y270611D01*
Y271206D01*
X205405Y272493D01*
X204421Y273477D01*
X203241Y273966D01*
X203071Y274141D01*
X202524Y275280D01*
X202890Y276164D01*
Y277556D01*
X202357Y278843D01*
X201373Y279827D01*
X200086Y280360D01*
D02*
G37*
G36*
X389895Y255722D02*
X388503D01*
X387216Y255189D01*
X386232Y254205D01*
X385699Y252918D01*
Y251526D01*
X386232Y250239D01*
X387216Y249255D01*
X388503Y248722D01*
X389895D01*
X391182Y249255D01*
X392166Y250239D01*
X392699Y251526D01*
Y252918D01*
X392166Y254205D01*
X391182Y255189D01*
X389895Y255722D01*
D02*
G37*
G36*
X211770Y254198D02*
X210378D01*
X209091Y253665D01*
X208107Y252681D01*
X207574Y251394D01*
Y250002D01*
X208107Y248715D01*
X209091Y247731D01*
X210378Y247198D01*
X211770D01*
X213057Y247731D01*
X214041Y248715D01*
X214574Y250002D01*
Y251394D01*
X214041Y252681D01*
X213057Y253665D01*
X211770Y254198D01*
D02*
G37*
G36*
X358582Y226258D02*
X357190D01*
X355903Y225725D01*
X354919Y224741D01*
X353453Y224521D01*
X353011Y224963D01*
X351724Y225496D01*
X350332D01*
X349045Y224963D01*
X348061Y223979D01*
X347528Y222692D01*
Y221300D01*
X348061Y220013D01*
X349045Y219029D01*
X350332Y218496D01*
X351724D01*
X353011Y219029D01*
X353995Y220013D01*
X355461Y220233D01*
X355903Y219791D01*
X357190Y219258D01*
X358582D01*
X358755Y219142D01*
Y218721D01*
X359288Y217434D01*
X360272Y216450D01*
X361559Y215917D01*
X362951D01*
X364238Y216450D01*
X365222Y217434D01*
X365755Y218721D01*
Y220113D01*
X365222Y221400D01*
X364238Y222384D01*
X362951Y222917D01*
X361559D01*
X361386Y223032D01*
Y223454D01*
X360853Y224741D01*
X359869Y225725D01*
X358582Y226258D01*
D02*
G37*
G36*
X52168Y242016D02*
X50508D01*
Y220508D01*
X72016D01*
Y222168D01*
X71170Y226422D01*
X69510Y230429D01*
X67101Y234034D01*
X64034Y237101D01*
X60429Y239510D01*
X56422Y241170D01*
X52168Y242016D01*
D02*
G37*
G36*
X49492D02*
X47832D01*
X43578Y241170D01*
X39571Y239510D01*
X35966Y237101D01*
X32899Y234034D01*
X30490Y230429D01*
X28830Y226422D01*
X27984Y222168D01*
Y220508D01*
X49492D01*
Y242016D01*
D02*
G37*
G36*
X296860Y227020D02*
X295468D01*
X294181Y226487D01*
X293197Y225503D01*
X292664Y224216D01*
Y222824D01*
X293197Y221537D01*
X294181Y220553D01*
X295468Y220020D01*
X296860D01*
X298147Y220553D01*
X299131Y221537D01*
X299664Y222824D01*
Y224216D01*
X299131Y225503D01*
X298147Y226487D01*
X296860Y227020D01*
D02*
G37*
G36*
X411668Y226258D02*
X410276D01*
X408989Y225725D01*
X408005Y224741D01*
X407472Y223454D01*
Y222062D01*
X408005Y220775D01*
X408989Y219791D01*
X410276Y219258D01*
X411668D01*
X412955Y219791D01*
X413939Y220775D01*
X414472Y222062D01*
Y223454D01*
X413939Y224741D01*
X412955Y225725D01*
X411668Y226258D01*
D02*
G37*
G36*
X426146Y226766D02*
X424754D01*
X423467Y226233D01*
X422483Y225249D01*
X421950Y223962D01*
Y223113D01*
X421737Y222450D01*
X420836Y221940D01*
X420182D01*
X418895Y221407D01*
X417911Y220423D01*
X417378Y219136D01*
Y217744D01*
X417911Y216457D01*
X418895Y215473D01*
X420182Y214940D01*
X421574D01*
X422861Y215473D01*
X423845Y216457D01*
X424378Y217744D01*
Y218593D01*
X424591Y219256D01*
X425492Y219766D01*
X426146D01*
X427433Y220299D01*
X428417Y221283D01*
X428950Y222570D01*
Y223962D01*
X428417Y225249D01*
X427433Y226233D01*
X426146Y226766D01*
D02*
G37*
G36*
X371536Y225496D02*
X370144D01*
X368857Y224963D01*
X367873Y223979D01*
X367340Y222692D01*
Y221300D01*
X367873Y220013D01*
X368857Y219029D01*
X368539Y217786D01*
X368381Y217629D01*
X367848Y216342D01*
Y214950D01*
X368381Y213663D01*
X369365Y212679D01*
X370652Y212146D01*
X372044D01*
X373331Y212679D01*
X374315Y213663D01*
X374848Y214950D01*
Y216342D01*
X374315Y217629D01*
X373331Y218613D01*
X373649Y219856D01*
X373807Y220013D01*
X374340Y221300D01*
Y222692D01*
X373807Y223979D01*
X372823Y224963D01*
X371536Y225496D01*
D02*
G37*
G36*
X431988Y218384D02*
X430596D01*
X429309Y217851D01*
X428325Y216867D01*
X427792Y215580D01*
Y214188D01*
X428325Y212901D01*
X429309Y211917D01*
X430596Y211384D01*
X431988D01*
X433275Y211917D01*
X434259Y212901D01*
X434792Y214188D01*
Y215580D01*
X434259Y216867D01*
X433275Y217851D01*
X431988Y218384D01*
D02*
G37*
G36*
X247330Y206446D02*
X245938D01*
X244651Y205913D01*
X243667Y204929D01*
X243134Y203642D01*
Y202250D01*
X243667Y200963D01*
X244651Y199979D01*
X245938Y199446D01*
X247330D01*
X248617Y199979D01*
X249601Y200963D01*
X250134Y202250D01*
Y203642D01*
X249601Y204929D01*
X248617Y205913D01*
X247330Y206446D01*
D02*
G37*
G36*
X72016Y219492D02*
X50508D01*
Y197984D01*
X52168D01*
X56422Y198830D01*
X60429Y200490D01*
X64034Y202899D01*
X67101Y205966D01*
X69510Y209571D01*
X71170Y213578D01*
X72016Y217832D01*
Y219492D01*
D02*
G37*
G36*
X49492D02*
X27984D01*
Y217832D01*
X28830Y213578D01*
X30490Y209571D01*
X32899Y205966D01*
X35966Y202899D01*
X39571Y200490D01*
X43578Y198830D01*
X47832Y197984D01*
X49492D01*
Y219492D01*
D02*
G37*
G36*
X443418Y357830D02*
X442026D01*
X440739Y357297D01*
X439755Y356313D01*
X439222Y355026D01*
Y353634D01*
X439755Y352347D01*
X440739Y351363D01*
X440785Y351344D01*
Y186773D01*
X439515Y185925D01*
X439029Y186126D01*
X437637D01*
X436350Y185593D01*
X435366Y184609D01*
X434949Y183603D01*
X433660D01*
X433243Y184609D01*
X432259Y185593D01*
X430972Y186126D01*
X429580D01*
X428293Y185593D01*
X427309Y184609D01*
X426776Y183322D01*
Y181930D01*
X427309Y180643D01*
X428293Y179659D01*
X429580Y179126D01*
X430972D01*
X432259Y179659D01*
X433243Y180643D01*
X433660Y181649D01*
X434949D01*
X435366Y180643D01*
X436350Y179659D01*
X437637Y179126D01*
X439029D01*
X439515Y179327D01*
X440785Y178479D01*
Y157923D01*
X437214Y154352D01*
X436849Y153806D01*
X436721Y153162D01*
Y72433D01*
X436421Y72309D01*
X435437Y71325D01*
X434904Y70038D01*
Y68646D01*
X435437Y67359D01*
X436421Y66375D01*
X437708Y65842D01*
X439100D01*
X440387Y66375D01*
X441371Y67359D01*
X441904Y68646D01*
Y70038D01*
X441371Y71325D01*
X440387Y72309D01*
X440087Y72433D01*
Y152465D01*
X443658Y156036D01*
X444023Y156582D01*
X444151Y157226D01*
Y179414D01*
X445421Y180165D01*
X446090Y179888D01*
X447482D01*
X448769Y180421D01*
X449753Y181405D01*
X450286Y182692D01*
Y184084D01*
X449753Y185371D01*
X448769Y186355D01*
X447482Y186888D01*
X446090D01*
X445421Y186611D01*
X444151Y187362D01*
Y351134D01*
X444705Y351363D01*
X445689Y352347D01*
X446222Y353634D01*
Y355026D01*
X445689Y356313D01*
X444705Y357297D01*
X443418Y357830D01*
D02*
G37*
G36*
X225232Y191460D02*
X223840D01*
X222553Y190927D01*
X221569Y189943D01*
X221036Y188656D01*
Y187264D01*
X221569Y185977D01*
X222553Y184993D01*
X223840Y184460D01*
X224435D01*
X225260Y184374D01*
X225608Y183287D01*
Y182946D01*
X226141Y181659D01*
X227125Y180675D01*
X228412Y180142D01*
X229804D01*
X231091Y180675D01*
X232075Y181659D01*
X232608Y182946D01*
Y184338D01*
X232075Y185625D01*
X231091Y186609D01*
X229804Y187142D01*
X229209D01*
X228384Y187228D01*
X228036Y188315D01*
Y188656D01*
X227503Y189943D01*
X226519Y190927D01*
X225232Y191460D01*
D02*
G37*
G36*
X204912Y180030D02*
X203520D01*
X202233Y179497D01*
X201249Y178513D01*
X200716Y177226D01*
Y175834D01*
X201249Y174547D01*
X202233Y173563D01*
X203520Y173030D01*
X204912D01*
X206199Y173563D01*
X207183Y174547D01*
X207716Y175834D01*
Y177226D01*
X207183Y178513D01*
X206199Y179497D01*
X204912Y180030D01*
D02*
G37*
G36*
X665585Y182506D02*
X663343D01*
X661177Y181926D01*
X659235Y180805D01*
X657650Y179219D01*
X656528Y177277D01*
X655948Y175111D01*
Y172869D01*
X656528Y170703D01*
X657650Y168761D01*
X659235Y167176D01*
X661177Y166054D01*
X663343Y165474D01*
X665585D01*
X667751Y166054D01*
X669693Y167176D01*
X671279Y168761D01*
X672400Y170703D01*
X672980Y172869D01*
Y175111D01*
X672400Y177277D01*
X671279Y179219D01*
X669693Y180805D01*
X667751Y181926D01*
X665585Y182506D01*
D02*
G37*
G36*
Y157106D02*
X663343D01*
X661177Y156526D01*
X659235Y155405D01*
X657650Y153819D01*
X656528Y151877D01*
X655948Y149711D01*
Y147469D01*
X656528Y145303D01*
X657650Y143361D01*
X659235Y141776D01*
X661177Y140654D01*
X663343Y140074D01*
X665585D01*
X667751Y140654D01*
X669693Y141776D01*
X671279Y143361D01*
X672400Y145303D01*
X672980Y147469D01*
Y149711D01*
X672400Y151877D01*
X671279Y153819D01*
X669693Y155405D01*
X667751Y156526D01*
X665585Y157106D01*
D02*
G37*
G36*
X602168Y152016D02*
X600508D01*
Y130508D01*
X622016D01*
Y132168D01*
X621170Y136422D01*
X619510Y140428D01*
X617101Y144034D01*
X614034Y147101D01*
X610429Y149510D01*
X606422Y151170D01*
X602168Y152016D01*
D02*
G37*
G36*
X599492D02*
X597832D01*
X593578Y151170D01*
X589571Y149510D01*
X585966Y147101D01*
X582899Y144034D01*
X580490Y140428D01*
X578830Y136422D01*
X577984Y132168D01*
Y130508D01*
X599492D01*
Y152016D01*
D02*
G37*
G36*
X665585Y131706D02*
X663343D01*
X661177Y131126D01*
X659235Y130005D01*
X657650Y128419D01*
X656528Y126477D01*
X655948Y124311D01*
Y122069D01*
X656528Y119903D01*
X657650Y117961D01*
X659235Y116376D01*
X661177Y115254D01*
X663343Y114674D01*
X665585D01*
X667751Y115254D01*
X669693Y116376D01*
X671279Y117961D01*
X672400Y119903D01*
X672980Y122069D01*
Y124311D01*
X672400Y126477D01*
X671279Y128419D01*
X669693Y130005D01*
X667751Y131126D01*
X665585Y131706D01*
D02*
G37*
G36*
X622016Y129492D02*
X600508D01*
Y107984D01*
X602168D01*
X606422Y108830D01*
X610429Y110490D01*
X614034Y112899D01*
X617101Y115966D01*
X619510Y119572D01*
X621170Y123578D01*
X622016Y127832D01*
Y129492D01*
D02*
G37*
G36*
X599492D02*
X577984D01*
Y127832D01*
X578830Y123578D01*
X580490Y119572D01*
X582899Y115966D01*
X585966Y112899D01*
X589571Y110490D01*
X593578Y108830D01*
X597832Y107984D01*
X599492D01*
Y129492D01*
D02*
G37*
G36*
X397444Y114498D02*
X396052D01*
X394765Y113965D01*
X393781Y112981D01*
X393248Y111694D01*
Y110302D01*
X393781Y109015D01*
X394765Y108031D01*
X396052Y107498D01*
X397444D01*
X398731Y108031D01*
X399715Y109015D01*
X400248Y110302D01*
Y111694D01*
X399715Y112981D01*
X398731Y113965D01*
X397444Y114498D01*
D02*
G37*
G36*
X665585Y106306D02*
X664972D01*
Y98298D01*
X672980D01*
Y98911D01*
X672400Y101077D01*
X671279Y103019D01*
X669693Y104605D01*
X667751Y105726D01*
X665585Y106306D01*
D02*
G37*
G36*
X663956D02*
X663343D01*
X661177Y105726D01*
X659235Y104605D01*
X657650Y103019D01*
X656528Y101077D01*
X655948Y98911D01*
Y98298D01*
X663956D01*
Y106306D01*
D02*
G37*
G36*
X402016Y104338D02*
X400624D01*
X399337Y103805D01*
X398353Y102821D01*
X397820Y101534D01*
Y100142D01*
X398353Y98855D01*
X399337Y97871D01*
X400624Y97338D01*
X402016D01*
X403303Y97871D01*
X404287Y98855D01*
X404820Y100142D01*
Y101534D01*
X404287Y102821D01*
X403303Y103805D01*
X402016Y104338D01*
D02*
G37*
G36*
X672980Y97282D02*
X664972D01*
Y89274D01*
X665585D01*
X667751Y89854D01*
X669693Y90976D01*
X671279Y92561D01*
X672400Y94503D01*
X672980Y96669D01*
Y97282D01*
D02*
G37*
G36*
X663956D02*
X655948D01*
Y96669D01*
X656528Y94503D01*
X657650Y92561D01*
X659235Y90976D01*
X661177Y89854D01*
X663343Y89274D01*
X663956D01*
Y97282D01*
D02*
G37*
G36*
X152588Y85796D02*
X151196D01*
X149909Y85263D01*
X148925Y84279D01*
X148392Y82992D01*
Y81600D01*
X148925Y80313D01*
X149909Y79329D01*
X151196Y78796D01*
X152588D01*
X153875Y79329D01*
X154859Y80313D01*
X155392Y81600D01*
Y82992D01*
X154859Y84279D01*
X153875Y85263D01*
X152588Y85796D01*
D02*
G37*
G36*
X67305Y84828D02*
X65912D01*
X64626Y84295D01*
X63641Y83311D01*
X63109Y82024D01*
Y80632D01*
X63641Y79346D01*
X64626Y78361D01*
X65912Y77828D01*
X67305D01*
X68591Y78361D01*
X69576Y79346D01*
X70108Y80632D01*
Y82024D01*
X69576Y83311D01*
X68591Y84295D01*
X67305Y84828D01*
D02*
G37*
G36*
X275778Y399232D02*
X274386D01*
X273099Y398699D01*
X272115Y397715D01*
X271582Y396428D01*
Y395036D01*
X270409Y394567D01*
X270229D01*
X268942Y394034D01*
X267958Y393050D01*
X267425Y391763D01*
Y390371D01*
X267958Y389084D01*
X268942Y388100D01*
X269011Y387753D01*
X268813Y387555D01*
X268280Y386268D01*
Y384876D01*
X268813Y383589D01*
X268472Y382134D01*
X268305Y381967D01*
X267772Y380680D01*
Y379288D01*
X268305Y378001D01*
X268723Y377583D01*
X269008Y376533D01*
X268679Y375968D01*
X268074Y375363D01*
X267541Y374076D01*
Y372684D01*
X267802Y372054D01*
X267028Y370784D01*
X267020D01*
X265733Y370251D01*
X264749Y369267D01*
X264216Y367980D01*
Y366588D01*
X264749Y365301D01*
X265733Y364317D01*
X267020Y363784D01*
X268412D01*
X269699Y364317D01*
X270683Y365301D01*
X271216Y366588D01*
Y367980D01*
X270955Y368610D01*
X271729Y369880D01*
X271738D01*
X272637Y370252D01*
X273907Y369636D01*
Y82042D01*
X274035Y81398D01*
X274400Y80852D01*
X283136Y72116D01*
X283012Y71816D01*
Y70424D01*
X283545Y69137D01*
X284529Y68153D01*
X285816Y67620D01*
X287208D01*
X288495Y68153D01*
X289479Y69137D01*
X289709Y69692D01*
X289742Y69698D01*
X291031Y69566D01*
X291419Y68629D01*
X292403Y67645D01*
X293690Y67112D01*
X295082D01*
X296369Y67645D01*
X297353Y68629D01*
X297868Y69872D01*
X298039Y69936D01*
X299156Y70081D01*
X299547Y69137D01*
X300531Y68153D01*
X301818Y67620D01*
X303210D01*
X304497Y68153D01*
X305481Y69137D01*
X305689Y69640D01*
X307064D01*
X307167Y69391D01*
X308151Y68407D01*
X309438Y67874D01*
X310830D01*
X312117Y68407D01*
X313101Y69391D01*
X313634Y70678D01*
Y72070D01*
X313101Y73357D01*
X312117Y74341D01*
X310830Y74874D01*
X309438D01*
X309139Y74750D01*
X285147Y98741D01*
Y387350D01*
X285019Y387994D01*
X284654Y388540D01*
X278458Y394737D01*
X278582Y395036D01*
Y396428D01*
X278049Y397715D01*
X277065Y398699D01*
X275778Y399232D01*
D02*
G37*
G36*
X391094Y73096D02*
X389702D01*
X388415Y72563D01*
X387431Y71579D01*
X386898Y70292D01*
Y68900D01*
X387431Y67613D01*
X388415Y66629D01*
X389702Y66096D01*
X391094D01*
X392381Y66629D01*
X393365Y67613D01*
X393898Y68900D01*
Y70292D01*
X393365Y71579D01*
X392381Y72563D01*
X391094Y73096D01*
D02*
G37*
G36*
X665585Y80906D02*
X663343D01*
X661177Y80326D01*
X659235Y79205D01*
X657650Y77619D01*
X656528Y75677D01*
X655948Y73511D01*
Y71269D01*
X656528Y69103D01*
X657650Y67161D01*
X659235Y65575D01*
X661177Y64454D01*
X663343Y63874D01*
X665585D01*
X667751Y64454D01*
X669693Y65575D01*
X671279Y67161D01*
X672400Y69103D01*
X672980Y71269D01*
Y73511D01*
X672400Y75677D01*
X671279Y77619D01*
X669693Y79205D01*
X667751Y80326D01*
X665585Y80906D01*
D02*
G37*
G36*
X222168Y62016D02*
X220508D01*
Y40508D01*
X242016D01*
Y42168D01*
X241170Y46422D01*
X239510Y50429D01*
X237101Y54034D01*
X234034Y57101D01*
X230429Y59510D01*
X226422Y61170D01*
X222168Y62016D01*
D02*
G37*
G36*
X219492D02*
X217832D01*
X213578Y61170D01*
X209571Y59510D01*
X205966Y57101D01*
X202899Y54034D01*
X200490Y50429D01*
X198830Y46422D01*
X197984Y42168D01*
Y40508D01*
X219492D01*
Y62016D01*
D02*
G37*
G36*
X278987Y46271D02*
X277595D01*
X276308Y45738D01*
X275324Y44753D01*
X274791Y43467D01*
Y42075D01*
X275324Y40788D01*
X276308Y39804D01*
X277595Y39271D01*
X278987D01*
X280274Y39804D01*
X281258Y40788D01*
X281791Y42075D01*
Y43467D01*
X281258Y44753D01*
X280274Y45738D01*
X278987Y46271D01*
D02*
G37*
G36*
X123444Y52141D02*
Y39116D01*
X132786D01*
Y42358D01*
X132451Y44907D01*
X131467Y47283D01*
X129901Y49323D01*
X127861Y50889D01*
X125485Y51873D01*
X123444Y52141D01*
D02*
G37*
G36*
X122428D02*
X120387Y51873D01*
X118011Y50889D01*
X115971Y49323D01*
X114405Y47283D01*
X113421Y44907D01*
X113086Y42358D01*
Y39116D01*
X122428D01*
Y52141D01*
D02*
G37*
G36*
X41402Y51887D02*
Y38862D01*
X50744D01*
Y42104D01*
X50409Y44654D01*
X49425Y47029D01*
X47859Y49069D01*
X45819Y50635D01*
X43443Y51619D01*
X41402Y51887D01*
D02*
G37*
G36*
X40386D02*
X38345Y51619D01*
X35969Y50635D01*
X33929Y49069D01*
X32363Y47029D01*
X31379Y44654D01*
X31044Y42104D01*
Y38862D01*
X40386D01*
Y51887D01*
D02*
G37*
G36*
X672980Y55506D02*
X655948D01*
Y38474D01*
X672980D01*
Y55506D01*
D02*
G37*
G36*
X486852Y45410D02*
X485460D01*
X484173Y44877D01*
X483189Y43893D01*
X482656Y42606D01*
Y41214D01*
X483189Y39927D01*
X484173Y38943D01*
X485460Y38410D01*
X486852D01*
X488139Y38943D01*
X489123Y39927D01*
X489656Y41214D01*
Y42606D01*
X489123Y43893D01*
X488139Y44877D01*
X486852Y45410D01*
D02*
G37*
G36*
X423098D02*
X421706D01*
X420419Y44877D01*
X419435Y43893D01*
X418902Y42606D01*
Y41214D01*
X419435Y39927D01*
X420419Y38943D01*
X421706Y38410D01*
X423098D01*
X424385Y38943D01*
X425369Y39927D01*
X425902Y41214D01*
Y42606D01*
X425369Y43893D01*
X424385Y44877D01*
X423098Y45410D01*
D02*
G37*
G36*
X343088Y44902D02*
X341696D01*
X340409Y44369D01*
X339425Y43385D01*
X338892Y42098D01*
Y40706D01*
X339425Y39419D01*
X340409Y38435D01*
X341696Y37902D01*
X343088D01*
X344375Y38435D01*
X345359Y39419D01*
X345892Y40706D01*
Y42098D01*
X345359Y43385D01*
X344375Y44369D01*
X343088Y44902D01*
D02*
G37*
G36*
X471104Y44648D02*
X469712D01*
X468425Y44115D01*
X467441Y43131D01*
X466908Y41844D01*
Y40452D01*
X467441Y39165D01*
X468425Y38181D01*
X469712Y37648D01*
X471104D01*
X472391Y38181D01*
X473375Y39165D01*
X473908Y40452D01*
Y41844D01*
X473375Y43131D01*
X472391Y44115D01*
X471104Y44648D01*
D02*
G37*
G36*
X382966Y43632D02*
X381574D01*
X380287Y43099D01*
X379303Y42115D01*
X378770Y40828D01*
Y39436D01*
X379303Y38149D01*
X380287Y37165D01*
X381574Y36632D01*
X382966D01*
X384253Y37165D01*
X385237Y38149D01*
X385770Y39436D01*
Y40828D01*
X385237Y42115D01*
X384253Y43099D01*
X382966Y43632D01*
D02*
G37*
G36*
X132786Y38100D02*
X123444D01*
Y25075D01*
X125485Y25343D01*
X127861Y26327D01*
X129901Y27893D01*
X131467Y29933D01*
X132451Y32308D01*
X132786Y34858D01*
Y38100D01*
D02*
G37*
G36*
X122428D02*
X113086D01*
Y34858D01*
X113421Y32308D01*
X114405Y29933D01*
X115971Y27893D01*
X118011Y26327D01*
X120387Y25343D01*
X122428Y25075D01*
Y38100D01*
D02*
G37*
G36*
X148336Y52208D02*
X145787Y51873D01*
X143411Y50889D01*
X141371Y49323D01*
X139805Y47283D01*
X138821Y44907D01*
X138486Y42358D01*
Y34858D01*
X138821Y32308D01*
X139805Y29933D01*
X141371Y27893D01*
X143411Y26327D01*
X145787Y25343D01*
X148336Y25008D01*
X150885Y25343D01*
X153261Y26327D01*
X155301Y27893D01*
X156867Y29933D01*
X157851Y32308D01*
X158186Y34858D01*
Y42358D01*
X157851Y44907D01*
X156867Y47283D01*
X155301Y49323D01*
X153261Y50889D01*
X150885Y51873D01*
X148336Y52208D01*
D02*
G37*
G36*
X50744Y37846D02*
X41402D01*
Y24821D01*
X43443Y25089D01*
X45819Y26073D01*
X47859Y27639D01*
X49425Y29679D01*
X50409Y32055D01*
X50744Y34604D01*
Y37846D01*
D02*
G37*
G36*
X40386D02*
X31044D01*
Y34604D01*
X31379Y32055D01*
X32363Y29679D01*
X33929Y27639D01*
X35969Y26073D01*
X38345Y25089D01*
X40386Y24821D01*
Y37846D01*
D02*
G37*
G36*
X66294Y51954D02*
X63745Y51619D01*
X61369Y50635D01*
X59329Y49069D01*
X57763Y47029D01*
X56779Y44654D01*
X56444Y42104D01*
Y34604D01*
X56779Y32055D01*
X57763Y29679D01*
X59329Y27639D01*
X61369Y26073D01*
X63745Y25089D01*
X66294Y24754D01*
X68843Y25089D01*
X71219Y26073D01*
X73259Y27639D01*
X74825Y29679D01*
X75809Y32055D01*
X76144Y34604D01*
Y42104D01*
X75809Y44654D01*
X74825Y47029D01*
X73259Y49069D01*
X71219Y50635D01*
X68843Y51619D01*
X66294Y51954D01*
D02*
G37*
G36*
X242016Y39492D02*
X220508D01*
Y17984D01*
X222168D01*
X226422Y18830D01*
X230429Y20490D01*
X234034Y22899D01*
X237101Y25966D01*
X239510Y29571D01*
X241170Y33578D01*
X242016Y37832D01*
Y39492D01*
D02*
G37*
G36*
X219492D02*
X197984D01*
Y37832D01*
X198830Y33578D01*
X200490Y29571D01*
X202899Y25966D01*
X205966Y22899D01*
X209571Y20490D01*
X213578Y18830D01*
X217832Y17984D01*
X219492D01*
Y39492D01*
D02*
G37*
%LPD*%
G36*
X53181Y588947D02*
Y452935D01*
X51911Y452301D01*
X51467Y452635D01*
Y589330D01*
X51911Y589626D01*
X53181Y588947D01*
D02*
G37*
G36*
X328608Y570712D02*
Y509169D01*
X327338Y508320D01*
X326852Y508521D01*
X325460D01*
X324700Y508207D01*
X323430Y508905D01*
Y571577D01*
X323302Y572221D01*
X322937Y572767D01*
X290933Y604772D01*
X291652Y605848D01*
X291658Y605846D01*
X293050D01*
X293349Y605970D01*
X328608Y570712D01*
D02*
G37*
G36*
X341696Y353624D02*
X342589D01*
X343135Y352373D01*
X341229Y350468D01*
X340864Y349922D01*
X340736Y349277D01*
Y253766D01*
X339466Y253240D01*
X339041Y253665D01*
X337754Y254198D01*
X336362D01*
X335075Y253665D01*
X334091Y252681D01*
X333558Y251394D01*
Y250002D01*
X334091Y248715D01*
X335075Y247731D01*
X336362Y247198D01*
X337754D01*
X339041Y247731D01*
X339466Y248156D01*
X340736Y247630D01*
Y106133D01*
X340437Y106009D01*
X339452Y105024D01*
X338919Y103738D01*
Y102346D01*
X339452Y101059D01*
X340437Y100075D01*
X341723Y99542D01*
X342761D01*
X343358Y98483D01*
X343384Y98368D01*
X339566Y94551D01*
X338489Y95270D01*
X338497Y95287D01*
Y96680D01*
X337964Y97966D01*
X336979Y98951D01*
X335693Y99483D01*
X334300D01*
X334001Y99360D01*
X328372Y104989D01*
Y331007D01*
X329642Y331636D01*
X330520Y331272D01*
X331912D01*
X333199Y331805D01*
X334183Y332789D01*
X334716Y334076D01*
Y335468D01*
X334183Y336755D01*
X333199Y337739D01*
X331912Y338272D01*
X330520D01*
X329642Y337908D01*
X328372Y338537D01*
Y340723D01*
X341396Y353748D01*
X341696Y353624D01*
D02*
G37*
G36*
X400262Y247899D02*
X401161Y247164D01*
Y139889D01*
X335260Y73988D01*
X334960Y74112D01*
X334067D01*
X333521Y75363D01*
X398954Y140796D01*
X399319Y141342D01*
X399447Y141986D01*
Y247520D01*
X399891Y247957D01*
X400262Y247899D01*
D02*
G37*
%LPC*%
G36*
X334960Y186634D02*
X333568D01*
X332281Y186101D01*
X331297Y185117D01*
X330764Y183830D01*
Y182438D01*
X331297Y181151D01*
X332281Y180167D01*
X333568Y179634D01*
X334960D01*
X336247Y180167D01*
X337231Y181151D01*
X337764Y182438D01*
Y183830D01*
X337231Y185117D01*
X336247Y186101D01*
X334960Y186634D01*
D02*
G37*
%LPD*%
D52*
X36068Y615188D02*
X50038Y629158D01*
X326688Y104292D02*
Y341420D01*
Y104292D02*
X334996Y95984D01*
X326688Y341420D02*
X342392Y357124D01*
X121332Y333079D02*
X166798D01*
X224288Y275590D01*
X243332D01*
X41148Y413264D02*
X121332Y333079D01*
X44704Y412941D02*
X122279Y335365D01*
X240163D01*
X41148Y413264D02*
Y609352D01*
X44704Y412941D02*
Y607060D01*
X36068Y356108D02*
X177292Y214884D01*
X36068Y356108D02*
Y615188D01*
X38354Y609791D02*
X49849Y621286D01*
X38354Y357632D02*
Y609791D01*
Y357632D02*
X176967Y219019D01*
X321747Y480385D02*
X326464Y475668D01*
X280924Y612400D02*
X321747Y571577D01*
Y480385D02*
Y571577D01*
X330291Y408592D02*
Y571409D01*
X325832Y404134D02*
X330291Y408592D01*
X292354Y609346D02*
X330291Y571409D01*
X380929Y133533D02*
Y223266D01*
X318516Y71120D02*
X380929Y133533D01*
X177292Y214884D02*
X261112D01*
X176967Y219019D02*
X254000D01*
X326464Y414850D02*
Y475668D01*
X321310Y267716D02*
Y409696D01*
X326464Y414850D01*
X462280Y68580D02*
Y270905D01*
X492358Y300983D01*
X66294Y38354D02*
Y38862D01*
X313182Y407416D02*
X322329Y416563D01*
X325832Y357573D02*
Y404134D01*
X280924Y612400D02*
Y612902D01*
X342419Y349277D02*
X346710Y353568D01*
X342419Y103042D02*
Y349277D01*
X346710Y353568D02*
Y367792D01*
X44704Y607060D02*
X51562Y613918D01*
X41148Y609352D02*
X50794Y618998D01*
X56388D01*
X49784Y451358D02*
X85090Y416052D01*
X54864Y449834D02*
X84241Y420457D01*
X54864Y449834D02*
Y604520D01*
X49784Y451358D02*
Y593344D01*
X54864Y604520D02*
X59182Y608838D01*
X49849Y621286D02*
X62345Y633782D01*
Y634014D01*
X49849Y621286D02*
X49849D01*
X85090Y416052D02*
X226060D01*
X84241Y420457D02*
X231306D01*
X107442Y376103D02*
X138755Y407416D01*
X313182D01*
X475234Y406908D02*
Y429006D01*
Y406908D02*
X496570Y385572D01*
X448564Y455676D02*
X475234Y429006D01*
X394208Y593344D02*
X448564Y538988D01*
Y455676D02*
Y538988D01*
X281178Y92456D02*
X302514Y71120D01*
X283464Y98044D02*
X310134Y71374D01*
X271780Y385572D02*
X278384Y378968D01*
X275082Y395732D02*
X283464Y387350D01*
X278384Y86614D02*
X294386Y70612D01*
X274231Y391067D02*
X281178Y384120D01*
X278384Y86614D02*
Y378968D01*
X281178Y92456D02*
Y384120D01*
X283464Y98044D02*
Y387350D01*
X275590Y82042D02*
X286512Y71120D01*
X271272Y379984D02*
X275590Y375666D01*
Y82042D02*
Y375666D01*
X478282Y68834D02*
Y280416D01*
X491236Y293370D01*
X454152Y365781D02*
X454313Y365943D01*
X454152Y68834D02*
Y365781D01*
X442468Y157226D02*
Y354076D01*
X442722Y354330D01*
X438404Y153162D02*
X442468Y157226D01*
X438404Y69342D02*
Y153162D01*
X397764Y141986D02*
Y251460D01*
X326644Y70866D02*
X397764Y141986D01*
X402844Y139192D02*
Y256032D01*
X403098Y256286D01*
X334264Y70612D02*
X402844Y139192D01*
X397764Y251460D02*
X398018Y251714D01*
X270925Y391067D02*
X274231D01*
D56*
X400000Y640000D02*
D03*
X600000Y130000D02*
D03*
X50000Y220000D02*
D03*
X220000Y40000D02*
D03*
D57*
X664464Y46990D02*
D03*
D58*
Y72390D02*
D03*
Y97790D02*
D03*
Y123190D02*
D03*
Y148590D02*
D03*
Y173990D02*
D03*
D59*
X122936Y38608D02*
D03*
X148336D02*
D03*
X40894Y38354D02*
D03*
X66294D02*
D03*
D60*
X355092Y567690D02*
D03*
X62484Y448818D02*
D03*
X50038Y629158D02*
D03*
X222504Y226822D02*
D03*
X258064Y197358D02*
D03*
X295402Y193294D02*
D03*
X408940Y250190D02*
D03*
X356108Y248412D02*
D03*
X330962Y208280D02*
D03*
X409448Y196850D02*
D03*
X468630Y189738D02*
D03*
X522732Y284734D02*
D03*
X525526Y290322D02*
D03*
X564642Y290830D02*
D03*
X566420Y313690D02*
D03*
X523748Y325628D02*
D03*
X523494Y356870D02*
D03*
X525272Y393192D02*
D03*
X560578Y401066D02*
D03*
X522224Y459994D02*
D03*
X549802Y458851D02*
D03*
X483362Y504444D02*
D03*
X475996D02*
D03*
X420116Y502920D02*
D03*
X368554Y503936D02*
D03*
X516890Y529336D02*
D03*
X476250Y539496D02*
D03*
X417576Y541274D02*
D03*
X360172Y538734D02*
D03*
X285496Y538988D02*
D03*
X209042Y443992D02*
D03*
X107950Y328168D02*
D03*
X116840Y429006D02*
D03*
X268732Y402082D02*
D03*
X206756Y401066D02*
D03*
X243586Y369824D02*
D03*
X206502Y369062D02*
D03*
X241577Y287394D02*
D03*
X245872Y290830D02*
D03*
X242062Y296164D02*
D03*
X244856Y301244D02*
D03*
X202184Y304546D02*
D03*
X203962Y289560D02*
D03*
X206248Y276098D02*
D03*
X199390Y256032D02*
D03*
X157988Y256540D02*
D03*
X106934Y341630D02*
D03*
X89916Y330962D02*
D03*
X65024Y359664D02*
D03*
X16510Y352044D02*
D03*
X58420Y429514D02*
D03*
X85344Y459232D02*
D03*
X86106Y588518D02*
D03*
X259545Y598625D02*
D03*
X86868Y623824D02*
D03*
X21590Y663194D02*
D03*
X325882Y538988D02*
D03*
X607568Y564134D02*
D03*
X622046Y431292D02*
D03*
X603758Y401066D02*
D03*
X604266Y370840D02*
D03*
X604012Y340614D02*
D03*
X553466Y351282D02*
D03*
X565150Y326136D02*
D03*
X567182Y306070D02*
D03*
X603504Y310896D02*
D03*
X602234Y280670D02*
D03*
X647192Y208788D02*
D03*
X447294Y222504D02*
D03*
X386842Y203962D02*
D03*
X288036Y181102D02*
D03*
X385572Y153670D02*
D03*
X422402Y155194D02*
D03*
X470408Y157226D02*
D03*
X496570Y170942D02*
D03*
X594868Y23368D02*
D03*
X521208Y23114D02*
D03*
X501142Y15494D02*
D03*
X456946Y15748D02*
D03*
X446532Y41910D02*
D03*
X437642Y15748D02*
D03*
X398272Y69596D02*
D03*
X396748Y16002D02*
D03*
X292608Y15748D02*
D03*
X117094Y83312D02*
D03*
X35052D02*
D03*
X199390Y276860D02*
D03*
X132842Y287782D02*
D03*
X61468Y464058D02*
D03*
X31496Y387604D02*
D03*
X194564Y321564D02*
D03*
X243078Y363220D02*
D03*
Y400558D02*
D03*
X244602Y444754D02*
D03*
X326156Y505022D02*
D03*
X304038Y538734D02*
D03*
X292862Y504190D02*
D03*
X361040Y503935D02*
D03*
X411226Y502412D02*
D03*
X606298Y544322D02*
D03*
X591058Y480314D02*
D03*
X545338Y498348D02*
D03*
X524002Y466344D02*
D03*
X523748Y400558D02*
D03*
X524256Y340614D02*
D03*
X529844Y310896D02*
D03*
X526542Y305562D02*
D03*
X602488Y271018D02*
D03*
X602742Y261112D02*
D03*
X466415Y221996D02*
D03*
X410972Y222758D02*
D03*
X362255Y219417D02*
D03*
X351028Y221996D02*
D03*
X357886Y222758D02*
D03*
X296164Y223520D02*
D03*
X246634Y202946D02*
D03*
X406979Y186690D02*
D03*
X446786Y183388D02*
D03*
X486156Y41910D02*
D03*
X470408Y41148D02*
D03*
X422402Y41910D02*
D03*
X382270Y40132D02*
D03*
X278291Y42771D02*
D03*
X151892Y82296D02*
D03*
X66609Y81328D02*
D03*
X646430Y382524D02*
D03*
X642874Y392684D02*
D03*
X604520Y391160D02*
D03*
Y381000D02*
D03*
Y360680D02*
D03*
Y351028D02*
D03*
X351282Y459740D02*
D03*
X490024Y426287D02*
D03*
X467106Y425196D02*
D03*
X488950Y272796D02*
D03*
X316484Y344424D02*
D03*
X322329Y416563D02*
D03*
X297049Y320877D02*
D03*
X526288Y255778D02*
D03*
X525526Y265684D02*
D03*
X325832Y357573D02*
D03*
X321310Y267716D02*
D03*
X292354Y609346D02*
D03*
X280924Y612902D02*
D03*
X254000Y219019D02*
D03*
X62345Y634014D02*
D03*
X261112Y214884D02*
D03*
X243332Y275590D02*
D03*
X56388Y618998D02*
D03*
X337058Y250698D02*
D03*
X211074D02*
D03*
X240163Y335365D02*
D03*
X51562Y613918D02*
D03*
X231306Y420457D02*
D03*
X226060Y416052D02*
D03*
X59182Y608838D02*
D03*
X49784Y593344D02*
D03*
X429040Y512943D02*
D03*
X450755Y430879D02*
D03*
X458978Y468884D02*
D03*
X394208Y593344D02*
D03*
X380238Y558546D02*
D03*
X309626Y577850D02*
D03*
X258826Y573786D02*
D03*
X496570Y385572D02*
D03*
X484124Y380746D02*
D03*
X204216Y176530D02*
D03*
X469900Y563880D02*
D03*
X451358Y576072D02*
D03*
X153416Y548640D02*
D03*
X491588Y415642D02*
D03*
X471678Y346456D02*
D03*
X464559Y345963D02*
D03*
X471170Y360426D02*
D03*
X295727Y441146D02*
D03*
X183388Y509016D02*
D03*
X331216Y334772D02*
D03*
X224536Y187960D02*
D03*
X229108Y183642D02*
D03*
X170753Y513748D02*
D03*
X206756Y265938D02*
D03*
X207572Y260499D02*
D03*
X202438Y270510D02*
D03*
X107442Y376103D02*
D03*
X346710Y367792D02*
D03*
X342392Y357124D02*
D03*
X271272Y379984D02*
D03*
X222891Y345549D02*
D03*
X196694Y363371D02*
D03*
X491236Y293370D02*
D03*
X478282Y68834D02*
D03*
X492358Y300983D02*
D03*
X462280Y68580D02*
D03*
X454313Y365943D02*
D03*
X454152Y68834D02*
D03*
X442722Y354330D02*
D03*
X438333Y182626D02*
D03*
X430276D02*
D03*
X438404Y69342D02*
D03*
X391905Y122405D02*
D03*
X396748Y110998D02*
D03*
X401320Y100838D02*
D03*
X390398Y69596D02*
D03*
X342419Y103042D02*
D03*
X238888Y315848D02*
D03*
X328422Y93980D02*
D03*
X334264Y183134D02*
D03*
X334996Y95984D02*
D03*
X342392Y41402D02*
D03*
X403098Y256286D02*
D03*
X334264Y70612D02*
D03*
X398018Y251714D02*
D03*
X380929Y223266D02*
D03*
X326644Y70866D02*
D03*
X389199Y252222D02*
D03*
X318516Y71120D02*
D03*
X275082Y395732D02*
D03*
X310134Y71374D02*
D03*
X271780Y385572D02*
D03*
X270925Y391067D02*
D03*
X302514Y71120D02*
D03*
X294386Y70612D02*
D03*
X286512Y71120D02*
D03*
X271041Y373380D02*
D03*
X267716Y367284D02*
D03*
X370840Y221996D02*
D03*
X371348Y215646D02*
D03*
X389636Y304546D02*
D03*
X584200Y584200D02*
D03*
Y604520D02*
D03*
Y623570D02*
D03*
Y643890D02*
D03*
X604520Y320548D02*
D03*
X604266Y330708D02*
D03*
X603758Y290830D02*
D03*
X590296Y283972D02*
D03*
X533908Y256286D02*
D03*
X420878Y218440D02*
D03*
X425450Y223266D02*
D03*
X431292Y214884D02*
D03*
M02*
