G04*
G04 #@! TF.GenerationSoftware,Altium Limited,Altium Designer,23.3.1 (30)*
G04*
G04 Layer_Color=16711935*
%FSLAX44Y44*%
%MOMM*%
G71*
G04*
G04 #@! TF.SameCoordinates,1E3CE245-77AB-4D3B-BECC-05931035AD6D*
G04*
G04*
G04 #@! TF.FilePolarity,Negative*
G04*
G01*
G75*
%ADD31R,1.1500X1.0500*%
%ADD32R,1.0500X1.1500*%
%ADD36R,0.9500X1.0500*%
%ADD37R,1.0500X0.9500*%
%ADD45R,1.1000X1.0000*%
%ADD47C,4.3500*%
%ADD48R,1.6500X1.6500*%
%ADD49C,1.6500*%
%ADD50O,1.9000X2.6500*%
%ADD51C,0.5500*%
%ADD69R,2.1500X0.7600*%
%ADD70R,3.7500X2.8300*%
%ADD71R,0.7500X1.4450*%
%ADD72R,1.4500X0.4500*%
%ADD73R,2.3500X1.9500*%
%ADD74R,3.2500X1.8500*%
%ADD75R,5.6500X1.1500*%
D31*
X447040Y197720D02*
D03*
Y211220D02*
D03*
X400812Y211112D02*
D03*
Y197612D02*
D03*
X487680Y16110D02*
D03*
Y29610D02*
D03*
X469900Y16110D02*
D03*
Y29610D02*
D03*
X422910Y16110D02*
D03*
Y29610D02*
D03*
X382270Y16110D02*
D03*
Y29610D02*
D03*
X278130Y16110D02*
D03*
Y29610D02*
D03*
D32*
X553720Y306070D02*
D03*
X540220D02*
D03*
D36*
X553496Y326390D02*
D03*
X539496D02*
D03*
X539608Y341122D02*
D03*
X553608D02*
D03*
D37*
X591058Y524510D02*
D03*
Y538510D02*
D03*
Y504078D02*
D03*
Y490078D02*
D03*
D45*
X326390Y516740D02*
D03*
Y529740D02*
D03*
D47*
X400000Y640000D02*
D03*
X600000Y130000D02*
D03*
X50000Y220000D02*
D03*
X220000Y40000D02*
D03*
D48*
X664464Y46990D02*
D03*
D49*
Y72390D02*
D03*
Y97790D02*
D03*
Y123190D02*
D03*
Y148590D02*
D03*
Y173990D02*
D03*
D50*
X122936Y38608D02*
D03*
X148336D02*
D03*
X40894Y38354D02*
D03*
X66294D02*
D03*
D51*
X355092Y567690D02*
D03*
X62484Y448818D02*
D03*
X50038Y629158D02*
D03*
X222504Y226822D02*
D03*
X258064Y197358D02*
D03*
X295402Y193294D02*
D03*
X408940Y250190D02*
D03*
X356108Y248412D02*
D03*
X330962Y208280D02*
D03*
X409448Y196850D02*
D03*
X468630Y189738D02*
D03*
X522732Y284734D02*
D03*
X525526Y290322D02*
D03*
X564642Y290830D02*
D03*
X566420Y313690D02*
D03*
X523748Y325628D02*
D03*
X523494Y356870D02*
D03*
X525272Y393192D02*
D03*
X560578Y401066D02*
D03*
X522224Y459994D02*
D03*
X549802Y458851D02*
D03*
X483362Y504444D02*
D03*
X475996D02*
D03*
X420116Y502920D02*
D03*
X368554Y503936D02*
D03*
X516890Y529336D02*
D03*
X476250Y539496D02*
D03*
X417576Y541274D02*
D03*
X360172Y538734D02*
D03*
X285496Y538988D02*
D03*
X209042Y443992D02*
D03*
X107950Y328168D02*
D03*
X116840Y429006D02*
D03*
X268732Y402082D02*
D03*
X206756Y401066D02*
D03*
X243586Y369824D02*
D03*
X206502Y369062D02*
D03*
X241577Y287394D02*
D03*
X245872Y290830D02*
D03*
X242062Y296164D02*
D03*
X244856Y301244D02*
D03*
X202184Y304546D02*
D03*
X203962Y289560D02*
D03*
X206248Y276098D02*
D03*
X199390Y256032D02*
D03*
X157988Y256540D02*
D03*
X106934Y341630D02*
D03*
X89916Y330962D02*
D03*
X65024Y359664D02*
D03*
X16510Y352044D02*
D03*
X58420Y429514D02*
D03*
X85344Y459232D02*
D03*
X86106Y588518D02*
D03*
X259545Y598625D02*
D03*
X86868Y623824D02*
D03*
X21590Y663194D02*
D03*
X325882Y538988D02*
D03*
X607568Y564134D02*
D03*
X622046Y431292D02*
D03*
X603758Y401066D02*
D03*
X604266Y370840D02*
D03*
X604012Y340614D02*
D03*
X553466Y351282D02*
D03*
X565150Y326136D02*
D03*
X567182Y306070D02*
D03*
X603504Y310896D02*
D03*
X602234Y280670D02*
D03*
X647192Y208788D02*
D03*
X447294Y222504D02*
D03*
X386842Y203962D02*
D03*
X288036Y181102D02*
D03*
X385572Y153670D02*
D03*
X422402Y155194D02*
D03*
X470408Y157226D02*
D03*
X496570Y170942D02*
D03*
X594868Y23368D02*
D03*
X521208Y23114D02*
D03*
X501142Y15494D02*
D03*
X456946Y15748D02*
D03*
X446532Y41910D02*
D03*
X437642Y15748D02*
D03*
X398272Y69596D02*
D03*
X396748Y16002D02*
D03*
X292608Y15748D02*
D03*
X117094Y83312D02*
D03*
X35052D02*
D03*
X199390Y276860D02*
D03*
X132842Y287782D02*
D03*
X61468Y464058D02*
D03*
X31496Y387604D02*
D03*
X194564Y321564D02*
D03*
X243078Y363220D02*
D03*
Y400558D02*
D03*
X244602Y444754D02*
D03*
X326156Y505022D02*
D03*
X304038Y538734D02*
D03*
X292862Y504190D02*
D03*
X361040Y503935D02*
D03*
X411226Y502412D02*
D03*
X606298Y544322D02*
D03*
X591058Y480314D02*
D03*
X545338Y498348D02*
D03*
X524002Y466344D02*
D03*
X523748Y400558D02*
D03*
X524256Y340614D02*
D03*
X529844Y310896D02*
D03*
X526542Y305562D02*
D03*
X602488Y271018D02*
D03*
X602742Y261112D02*
D03*
X466415Y221996D02*
D03*
X410972Y222758D02*
D03*
X362255Y219417D02*
D03*
X351028Y221996D02*
D03*
X357886Y222758D02*
D03*
X296164Y223520D02*
D03*
X246634Y202946D02*
D03*
X406979Y186690D02*
D03*
X446786Y183388D02*
D03*
X486156Y41910D02*
D03*
X470408Y41148D02*
D03*
X422402Y41910D02*
D03*
X382270Y40132D02*
D03*
X278291Y42771D02*
D03*
X151892Y82296D02*
D03*
X66609Y81328D02*
D03*
X646430Y382524D02*
D03*
X642874Y392684D02*
D03*
X604520Y391160D02*
D03*
Y381000D02*
D03*
Y360680D02*
D03*
Y351028D02*
D03*
X351282Y459740D02*
D03*
X490024Y426287D02*
D03*
X467106Y425196D02*
D03*
X488950Y272796D02*
D03*
X316484Y344424D02*
D03*
X322329Y416563D02*
D03*
X297049Y320877D02*
D03*
X526288Y255778D02*
D03*
X525526Y265684D02*
D03*
X325832Y357573D02*
D03*
X321310Y267716D02*
D03*
X292354Y609346D02*
D03*
X280924Y612902D02*
D03*
X254000Y219019D02*
D03*
X62345Y634014D02*
D03*
X261112Y214884D02*
D03*
X243332Y275590D02*
D03*
X56388Y618998D02*
D03*
X337058Y250698D02*
D03*
X211074D02*
D03*
X240163Y335365D02*
D03*
X51562Y613918D02*
D03*
X231306Y420457D02*
D03*
X226060Y416052D02*
D03*
X59182Y608838D02*
D03*
X49784Y593344D02*
D03*
X429040Y512943D02*
D03*
X450755Y430879D02*
D03*
X458978Y468884D02*
D03*
X394208Y593344D02*
D03*
X380238Y558546D02*
D03*
X309626Y577850D02*
D03*
X258826Y573786D02*
D03*
X496570Y385572D02*
D03*
X484124Y380746D02*
D03*
X204216Y176530D02*
D03*
X469900Y563880D02*
D03*
X451358Y576072D02*
D03*
X153416Y548640D02*
D03*
X491588Y415642D02*
D03*
X471678Y346456D02*
D03*
X464559Y345963D02*
D03*
X471170Y360426D02*
D03*
X295727Y441146D02*
D03*
X183388Y509016D02*
D03*
X331216Y334772D02*
D03*
X224536Y187960D02*
D03*
X229108Y183642D02*
D03*
X170753Y513748D02*
D03*
X206756Y265938D02*
D03*
X207572Y260499D02*
D03*
X202438Y270510D02*
D03*
X107442Y376103D02*
D03*
X346710Y367792D02*
D03*
X342392Y357124D02*
D03*
X271272Y379984D02*
D03*
X222891Y345549D02*
D03*
X196694Y363371D02*
D03*
X491236Y293370D02*
D03*
X478282Y68834D02*
D03*
X492358Y300983D02*
D03*
X462280Y68580D02*
D03*
X454313Y365943D02*
D03*
X454152Y68834D02*
D03*
X442722Y354330D02*
D03*
X438333Y182626D02*
D03*
X430276D02*
D03*
X438404Y69342D02*
D03*
X391905Y122405D02*
D03*
X396748Y110998D02*
D03*
X401320Y100838D02*
D03*
X390398Y69596D02*
D03*
X342419Y103042D02*
D03*
X238888Y315848D02*
D03*
X328422Y93980D02*
D03*
X334264Y183134D02*
D03*
X334996Y95984D02*
D03*
X342392Y41402D02*
D03*
X403098Y256286D02*
D03*
X334264Y70612D02*
D03*
X398018Y251714D02*
D03*
X380929Y223266D02*
D03*
X326644Y70866D02*
D03*
X389199Y252222D02*
D03*
X318516Y71120D02*
D03*
X275082Y395732D02*
D03*
X310134Y71374D02*
D03*
X271780Y385572D02*
D03*
X270925Y391067D02*
D03*
X302514Y71120D02*
D03*
X294386Y70612D02*
D03*
X286512Y71120D02*
D03*
X271041Y373380D02*
D03*
X267716Y367284D02*
D03*
X370840Y221996D02*
D03*
X371348Y215646D02*
D03*
X389636Y304546D02*
D03*
X584200Y584200D02*
D03*
Y604520D02*
D03*
Y623570D02*
D03*
Y643890D02*
D03*
X604520Y320548D02*
D03*
X604266Y330708D02*
D03*
X603758Y290830D02*
D03*
X590296Y283972D02*
D03*
X533908Y256286D02*
D03*
X420878Y218440D02*
D03*
X425450Y223266D02*
D03*
X431292Y214884D02*
D03*
D69*
X619760Y400990D02*
D03*
Y390990D02*
D03*
Y380990D02*
D03*
Y370990D02*
D03*
Y360990D02*
D03*
Y350990D02*
D03*
Y340990D02*
D03*
Y330990D02*
D03*
Y320990D02*
D03*
Y310990D02*
D03*
Y300990D02*
D03*
Y290990D02*
D03*
Y280990D02*
D03*
Y270990D02*
D03*
Y260990D02*
D03*
D70*
X647760Y430890D02*
D03*
Y231090D02*
D03*
D71*
X486270Y55750D02*
D03*
X478270D02*
D03*
X470270D02*
D03*
X462270D02*
D03*
X454270D02*
D03*
X446270D02*
D03*
X438270D02*
D03*
X430270D02*
D03*
X422270D02*
D03*
X414270D02*
D03*
X406270D02*
D03*
X398270D02*
D03*
X390270D02*
D03*
X382270D02*
D03*
X374270D02*
D03*
X366270D02*
D03*
X358270D02*
D03*
X350270D02*
D03*
X342270D02*
D03*
X334270D02*
D03*
X326270D02*
D03*
X318270D02*
D03*
X310270D02*
D03*
X302270D02*
D03*
X294270D02*
D03*
X286270D02*
D03*
X278270D02*
D03*
Y170310D02*
D03*
X286270D02*
D03*
X294270D02*
D03*
X302270D02*
D03*
X310270D02*
D03*
X318270D02*
D03*
X326270D02*
D03*
X334270D02*
D03*
X342270D02*
D03*
X350270D02*
D03*
X358270D02*
D03*
X366270D02*
D03*
X374270D02*
D03*
X382270D02*
D03*
X390270D02*
D03*
X398270D02*
D03*
X406270D02*
D03*
X414270D02*
D03*
X422270D02*
D03*
X430270D02*
D03*
X438270D02*
D03*
X446270D02*
D03*
X454270D02*
D03*
X462270D02*
D03*
X470270D02*
D03*
X478270D02*
D03*
X486270D02*
D03*
D72*
X73740Y448854D02*
D03*
Y453854D02*
D03*
Y458854D02*
D03*
Y463854D02*
D03*
Y468854D02*
D03*
Y473854D02*
D03*
Y478854D02*
D03*
Y483854D02*
D03*
Y488854D02*
D03*
Y493854D02*
D03*
Y498854D02*
D03*
Y503854D02*
D03*
Y508854D02*
D03*
Y513854D02*
D03*
Y518854D02*
D03*
Y523854D02*
D03*
Y528854D02*
D03*
Y533854D02*
D03*
Y538854D02*
D03*
Y543854D02*
D03*
Y548854D02*
D03*
Y553854D02*
D03*
Y558854D02*
D03*
Y563854D02*
D03*
Y568854D02*
D03*
Y573854D02*
D03*
Y578854D02*
D03*
Y583854D02*
D03*
Y588854D02*
D03*
Y593854D02*
D03*
Y598854D02*
D03*
Y603854D02*
D03*
Y608854D02*
D03*
Y613854D02*
D03*
Y618854D02*
D03*
Y623854D02*
D03*
Y628854D02*
D03*
Y633854D02*
D03*
Y638854D02*
D03*
Y643854D02*
D03*
D73*
X41240Y429854D02*
D03*
Y662854D02*
D03*
D74*
X665890Y668700D02*
D03*
Y479700D02*
D03*
D75*
X643890Y504200D02*
D03*
Y524200D02*
D03*
Y544200D02*
D03*
Y564200D02*
D03*
Y584200D02*
D03*
Y604200D02*
D03*
Y624200D02*
D03*
Y644200D02*
D03*
M02*
