G04*
G04 #@! TF.GenerationSoftware,Altium Limited,Altium Designer,23.3.1 (30)*
G04*
G04 Layer_Color=16711935*
%FSLAX44Y44*%
%MOMM*%
G71*
G04*
G04 #@! TF.SameCoordinates,1E3CE245-77AB-4D3B-BECC-05931035AD6D*
G04*
G04*
G04 #@! TF.FilePolarity,Positive*
G04*
G01*
G75*
%ADD12C,0.1000*%
%ADD13C,0.2000*%
%ADD77C,0.0254*%
D12*
X321640Y514490D02*
X331140D01*
X321640Y531990D02*
X331140D01*
Y514490D02*
Y531990D01*
X321640Y514490D02*
Y531990D01*
X586308Y522760D02*
X595808D01*
X586308Y540260D02*
X595808D01*
Y522760D02*
Y540260D01*
X586308Y522760D02*
Y540260D01*
Y505828D02*
X595808D01*
X586308Y488328D02*
X595808D01*
X586308D02*
Y505828D01*
X595808Y488328D02*
Y505828D01*
X537746Y331140D02*
X555246D01*
X537746Y321640D02*
X555246D01*
Y331140D01*
X537746Y321640D02*
Y331140D01*
X537858Y336372D02*
Y345872D01*
X555358Y336372D02*
Y345872D01*
X537858Y336372D02*
X555358D01*
X537858Y345872D02*
X555358D01*
X555720Y301320D02*
Y310820D01*
X538220Y301320D02*
Y310820D01*
X555720D01*
X538220Y301320D02*
X555720D01*
X451790Y195720D02*
Y213220D01*
X442290Y195720D02*
Y213220D01*
Y195720D02*
X451790D01*
X442290Y213220D02*
X451790D01*
X396062Y213112D02*
X405562D01*
X396062Y195612D02*
X405562D01*
X396062D02*
Y213112D01*
X405562Y195612D02*
Y213112D01*
X493370Y62230D02*
Y163830D01*
X271170D02*
X493370D01*
X271170Y62230D02*
Y163830D01*
Y62230D02*
X493370D01*
X485370D02*
X493370Y70230D01*
X482930Y14110D02*
X492430D01*
X482930Y31610D02*
X492430D01*
Y14110D02*
Y31610D01*
X482930Y14110D02*
Y31610D01*
X465150Y14110D02*
X474650D01*
X465150Y31610D02*
X474650D01*
Y14110D02*
Y31610D01*
X465150Y14110D02*
Y31610D01*
X418160Y14110D02*
X427660D01*
X418160Y31610D02*
X427660D01*
Y14110D02*
Y31610D01*
X418160Y14110D02*
Y31610D01*
X377520Y14110D02*
X387020D01*
X377520Y31610D02*
X387020D01*
Y14110D02*
Y31610D01*
X377520Y14110D02*
Y31610D01*
X273380Y14110D02*
X282880D01*
X273380Y31610D02*
X282880D01*
Y14110D02*
Y31610D01*
X273380Y14110D02*
Y31610D01*
X473380Y195720D02*
Y213220D01*
X463880Y195720D02*
Y213220D01*
X473380D01*
X463880Y195720D02*
X473380D01*
X404444Y195320D02*
X413944D01*
X404444Y212820D02*
X413944D01*
X404444Y195320D02*
Y212820D01*
X413944Y195320D02*
Y212820D01*
X336328Y203784D02*
Y213284D01*
X353828Y203784D02*
Y213284D01*
X336328D02*
X353828D01*
X336328Y203784D02*
X353828D01*
X300406Y197898D02*
Y215398D01*
X290906Y197898D02*
Y215398D01*
X300406D01*
X290906Y197898D02*
X300406D01*
X264658Y202870D02*
X282158D01*
X264658Y193370D02*
X282158D01*
X264658D02*
Y202870D01*
X282158Y193370D02*
Y202870D01*
X538220Y294310D02*
X555720D01*
X538220Y284810D02*
X555720D01*
X538220D02*
Y294310D01*
X555720Y284810D02*
Y294310D01*
X538000Y306146D02*
X555500D01*
X538000Y315646D02*
X555500D01*
Y306146D02*
Y315646D01*
X538000Y306146D02*
Y315646D01*
X471500Y515760D02*
Y533260D01*
X481000Y515760D02*
Y533260D01*
X471500Y515760D02*
X481000D01*
X471500Y533260D02*
X481000D01*
X112090Y433860D02*
Y451360D01*
X121590Y433860D02*
Y451360D01*
X112090Y433860D02*
X121590D01*
X112090Y451360D02*
X121590D01*
Y406540D02*
Y424040D01*
X112090Y406540D02*
Y424040D01*
X121590D01*
X112090Y406540D02*
X121590D01*
X136670Y361280D02*
X170670D01*
X136670Y309280D02*
X170670D01*
Y361280D01*
X136670Y309280D02*
Y361280D01*
X112090Y339850D02*
Y357350D01*
X121590Y339850D02*
Y357350D01*
X112090Y339850D02*
X121590D01*
X112090Y357350D02*
X121590D01*
Y312560D02*
Y330060D01*
X112090Y312560D02*
Y330060D01*
X121590D01*
X112090Y312560D02*
X121590D01*
X203190Y326060D02*
X220690D01*
X203190Y316560D02*
X220690D01*
X203190D02*
Y326060D01*
X220690Y316560D02*
Y326060D01*
X174676Y258458D02*
Y275958D01*
X165176Y258458D02*
Y275958D01*
X174676D01*
X165176Y258458D02*
X174676D01*
X218072Y437972D02*
X235572D01*
X218072Y447472D02*
X235572D01*
Y437972D02*
Y447472D01*
X218072Y437972D02*
Y447472D01*
X281000Y533260D02*
X290500D01*
X281000Y515760D02*
X290500D01*
Y533260D01*
X281000Y515760D02*
Y533260D01*
X212484Y281610D02*
X229984D01*
X212484Y272110D02*
X229984D01*
X212484D02*
Y281610D01*
X229984Y272110D02*
Y281610D01*
X212484Y294818D02*
X229984D01*
X212484Y285318D02*
X229984D01*
X212484D02*
Y294818D01*
X229984Y285318D02*
Y294818D01*
X209944Y300050D02*
X227444D01*
X209944Y309550D02*
X227444D01*
Y300050D02*
Y309550D01*
X209944Y300050D02*
Y309550D01*
X136670Y455260D02*
X170670D01*
X136670Y403260D02*
X170670D01*
Y455260D01*
X136670Y403260D02*
Y455260D01*
X551802Y445846D02*
Y455346D01*
X534302Y445846D02*
Y455346D01*
Y445846D02*
X551802D01*
X534302Y455346D02*
X551802D01*
X456870Y195720D02*
Y213220D01*
X447370Y195720D02*
Y213220D01*
X456870D01*
X447370Y195720D02*
X456870D01*
X39770Y344830D02*
X54770Y329830D01*
X39770D02*
X89770D01*
Y389830D01*
X39770D02*
X89770D01*
X39770Y329830D02*
Y389830D01*
X13030Y361950D02*
X22530D01*
X13030Y379450D02*
X22530D01*
X13030Y361950D02*
Y379450D01*
X22530Y361950D02*
Y379450D01*
X149116Y95928D02*
X160866Y107678D01*
X107866Y95928D02*
X149116D01*
X107866D02*
Y148928D01*
X149366D01*
X160866Y107678D02*
Y137428D01*
X149366Y148928D02*
X160866Y137428D01*
X67074Y95674D02*
X78824Y107424D01*
X25824Y95674D02*
X67074D01*
X25824D02*
Y148674D01*
X67324D01*
X78824Y107424D02*
Y137174D01*
X67324Y148674D02*
X78824Y137174D01*
X263540Y483220D02*
X503540D01*
Y243220D02*
Y483220D01*
X263540Y243220D02*
X503540D01*
X263540D02*
Y483220D01*
Y478220D02*
X268540Y483220D01*
X133114Y278762D02*
X149614D01*
X133114Y268862D02*
X149614D01*
X133114D02*
Y278762D01*
X149614Y268862D02*
Y278762D01*
X298780Y532140D02*
X308280D01*
X298780Y514640D02*
X308280D01*
Y532140D01*
X298780Y514640D02*
Y532140D01*
X551802Y462356D02*
Y471856D01*
X534302Y462356D02*
Y471856D01*
Y462356D02*
X551802D01*
X534302Y471856D02*
X551802D01*
X552310Y396570D02*
Y406070D01*
X534810Y396570D02*
Y406070D01*
Y396570D02*
X552310D01*
X534810Y406070D02*
X552310D01*
X216656Y359994D02*
Y369494D01*
X234156Y359994D02*
Y369494D01*
X216656D02*
X234156D01*
X216656Y359994D02*
X234156D01*
X409270Y531120D02*
X418770D01*
X409270Y513620D02*
X418770D01*
Y531120D01*
X409270Y513620D02*
Y531120D01*
X355930Y533260D02*
X365430D01*
X355930Y515760D02*
X365430D01*
Y533260D01*
X355930Y515760D02*
Y533260D01*
X216040Y396570D02*
Y406070D01*
X233540Y396570D02*
Y406070D01*
X216040D02*
X233540D01*
X216040Y396570D02*
X233540D01*
X182956Y258458D02*
X192456D01*
X182956Y275958D02*
X192456D01*
X182956Y258458D02*
Y275958D01*
X192456Y258458D02*
Y275958D01*
X522584Y514638D02*
X529301Y521356D01*
X534958Y502264D02*
X541676Y508982D01*
X529301Y521356D02*
X541676Y508982D01*
X522584Y514638D02*
X534958Y502264D01*
X225404Y217458D02*
X232122Y224176D01*
X237778Y205084D02*
X244496Y211801D01*
X232122Y224176D02*
X244496Y211801D01*
X225404Y217458D02*
X237778Y205084D01*
D13*
X683760Y216390D02*
Y445590D01*
X629760Y216390D02*
X683760D01*
X629760D02*
Y445590D01*
X683760D01*
X532530Y15640D02*
Y40640D01*
Y15640D02*
X582530D01*
Y40640D01*
X532530D02*
X582530D01*
X67240Y430854D02*
Y661854D01*
X11240D02*
X67240D01*
X11240Y430854D02*
Y661854D01*
Y430854D02*
X67240D01*
X641140Y474200D02*
X691140D01*
X641140D02*
Y674200D01*
X691140D01*
Y474200D02*
Y674200D01*
X107937Y71108D02*
X163338D01*
X107937Y6108D02*
Y71108D01*
Y6108D02*
X163338D01*
Y71108D01*
X25895Y70854D02*
X81296D01*
X25895Y5854D02*
Y70854D01*
Y5854D02*
X81296D01*
Y70854D01*
D77*
X0Y0D02*
Y685800D01*
Y0D02*
X215900D01*
X0Y685800D02*
X693420D01*
Y370840D02*
Y685800D01*
Y71120D02*
Y370840D01*
Y0D02*
Y71120D01*
X215900Y0D02*
X693420D01*
M02*
