G04*
G04 #@! TF.GenerationSoftware,Altium Limited,Altium Designer,23.3.1 (30)*
G04*
G04 Layer_Color=128*
%FSLAX44Y44*%
%MOMM*%
G71*
G04*
G04 #@! TF.SameCoordinates,1E3CE245-77AB-4D3B-BECC-05931035AD6D*
G04*
G04*
G04 #@! TF.FilePolarity,Positive*
G04*
G01*
G75*
%ADD15R,1.0000X0.9000*%
%ADD16R,0.9000X1.0000*%
%ADD20R,0.8000X0.9000*%
%ADD21R,0.9000X0.8000*%
%ADD29R,0.9500X0.8500*%
%ADD61R,2.0000X0.6100*%
%ADD62R,3.6000X2.6800*%
%ADD63R,0.6000X1.2950*%
%ADD64R,1.3000X0.3000*%
%ADD65R,2.2000X1.8000*%
%ADD66R,3.1000X1.7000*%
%ADD67R,5.5000X1.0000*%
D15*
X447040Y197720D02*
D03*
Y211220D02*
D03*
X400812Y211112D02*
D03*
Y197612D02*
D03*
X487680Y16110D02*
D03*
Y29610D02*
D03*
X469900Y16110D02*
D03*
Y29610D02*
D03*
X422910Y16110D02*
D03*
Y29610D02*
D03*
X382270Y16110D02*
D03*
Y29610D02*
D03*
X278130Y16110D02*
D03*
Y29610D02*
D03*
D16*
X553720Y306070D02*
D03*
X540220D02*
D03*
D20*
X553496Y326390D02*
D03*
X539496D02*
D03*
X539608Y341122D02*
D03*
X553608D02*
D03*
D21*
X591058Y524510D02*
D03*
Y538510D02*
D03*
Y504078D02*
D03*
Y490078D02*
D03*
D29*
X326390Y516740D02*
D03*
Y529740D02*
D03*
D61*
X619760Y400990D02*
D03*
Y390990D02*
D03*
Y380990D02*
D03*
Y370990D02*
D03*
Y360990D02*
D03*
Y350990D02*
D03*
Y340990D02*
D03*
Y330990D02*
D03*
Y320990D02*
D03*
Y310990D02*
D03*
Y300990D02*
D03*
Y290990D02*
D03*
Y280990D02*
D03*
Y270990D02*
D03*
Y260990D02*
D03*
D62*
X647760Y430890D02*
D03*
Y231090D02*
D03*
D63*
X486270Y55750D02*
D03*
X478270D02*
D03*
X470270D02*
D03*
X462270D02*
D03*
X454270D02*
D03*
X446270D02*
D03*
X438270D02*
D03*
X430270D02*
D03*
X422270D02*
D03*
X414270D02*
D03*
X406270D02*
D03*
X398270D02*
D03*
X390270D02*
D03*
X382270D02*
D03*
X374270D02*
D03*
X366270D02*
D03*
X358270D02*
D03*
X350270D02*
D03*
X342270D02*
D03*
X334270D02*
D03*
X326270D02*
D03*
X318270D02*
D03*
X310270D02*
D03*
X302270D02*
D03*
X294270D02*
D03*
X286270D02*
D03*
X278270D02*
D03*
Y170310D02*
D03*
X286270D02*
D03*
X294270D02*
D03*
X302270D02*
D03*
X310270D02*
D03*
X318270D02*
D03*
X326270D02*
D03*
X334270D02*
D03*
X342270D02*
D03*
X350270D02*
D03*
X358270D02*
D03*
X366270D02*
D03*
X374270D02*
D03*
X382270D02*
D03*
X390270D02*
D03*
X398270D02*
D03*
X406270D02*
D03*
X414270D02*
D03*
X422270D02*
D03*
X430270D02*
D03*
X438270D02*
D03*
X446270D02*
D03*
X454270D02*
D03*
X462270D02*
D03*
X470270D02*
D03*
X478270D02*
D03*
X486270D02*
D03*
D64*
X73740Y448854D02*
D03*
Y453854D02*
D03*
Y458854D02*
D03*
Y463854D02*
D03*
Y468854D02*
D03*
Y473854D02*
D03*
Y478854D02*
D03*
Y483854D02*
D03*
Y488854D02*
D03*
Y493854D02*
D03*
Y498854D02*
D03*
Y503854D02*
D03*
Y508854D02*
D03*
Y513854D02*
D03*
Y518854D02*
D03*
Y523854D02*
D03*
Y528854D02*
D03*
Y533854D02*
D03*
Y538854D02*
D03*
Y543854D02*
D03*
Y548854D02*
D03*
Y553854D02*
D03*
Y558854D02*
D03*
Y563854D02*
D03*
Y568854D02*
D03*
Y573854D02*
D03*
Y578854D02*
D03*
Y583854D02*
D03*
Y588854D02*
D03*
Y593854D02*
D03*
Y598854D02*
D03*
Y603854D02*
D03*
Y608854D02*
D03*
Y613854D02*
D03*
Y618854D02*
D03*
Y623854D02*
D03*
Y628854D02*
D03*
Y633854D02*
D03*
Y638854D02*
D03*
Y643854D02*
D03*
D65*
X41240Y429854D02*
D03*
Y662854D02*
D03*
D66*
X665890Y668700D02*
D03*
Y479700D02*
D03*
D67*
X643890Y504200D02*
D03*
Y524200D02*
D03*
Y544200D02*
D03*
Y564200D02*
D03*
Y584200D02*
D03*
Y604200D02*
D03*
Y624200D02*
D03*
Y644200D02*
D03*
M02*
