M48
;Layer_Color=9474304
;FILE_FORMAT=2:5
INCH,TZ
;TYPE=PLATED
T1F00S00C0.00787
T2F00S00C0.03543
T3F00S00C0.04331
T4F00S00C0.12598
%
T01
X115200Y6200
X156200Y6300
X172300Y6200
X179900
X197300Y6100
X205200Y9100
X234200Y9200
X191400Y16500
X185200Y16200
X175800Y16500
X166300
X172600Y27300
X178800Y27100
X182000Y27000
X188300Y27100
X185200Y61900
X184500Y74700
X175900Y72200
X172572Y71900
X169400
X160228Y73500
X161200Y77500
X161800Y87700
X165700Y86000
X167500Y87900
X169800Y84600
X176100Y87600
X183628Y87400
X192500Y107400
X193400Y115500
X193842Y118497
X207300Y120300
X208600Y122400
X206200Y128200
X206400Y134100
X206100Y140500
X217900Y138300
X222500Y128400
X223000Y123500
X223300Y120500
X222300Y114500
X232400Y111800
X237100Y110500
X237200Y106700
X237300Y102800
X237700Y114500
X237600Y122400
X238000Y126200
X237900Y130200
X237800Y134100
X238000Y138200
Y142000
X237900Y146000
X238000Y150000
Y154000
X237700Y157900
X220700
X206200Y157700
X206800Y154800
X195500Y151800
X190600Y149900
X185500Y141900
X185700Y136400
X182897Y136206
X174300Y139500
X178863Y144072
X193539Y163639
X206900Y114300
X205800Y112100
X206900Y104600
X207200Y100700
X210200Y100900
X195500Y67300
X166300Y61100
X161000Y98500
X254800Y82200
X254500Y150600
X253100Y154600
X136500Y144800
X134800Y140600
X128280Y140777
X124600Y135600
X130400Y131800
X116949Y126330
X94050Y124350
X96400Y118600
X95300Y116600
X96800Y114500
X95109Y113147
X95800Y108500
X81200Y108700
X78500Y109000
X79700Y106500
X81400Y104700
X81721Y102559
X78500Y100800
X83100Y98700
X87600Y89300
X100000Y86228
X102800Y84600
X101600Y77700
X97100Y79900
X90200Y72300
X88400Y74000
X80400Y69500
X113400Y71300
X116300Y76100
X116600Y88000
X130300Y82000
X131600Y72100
X138200Y87400
X140900Y87700
X142620Y86385
X146000Y87400
X146200Y84900
X149972Y87900
X152300Y80300
X153228Y99300
X156700Y99100
X158700Y100900
X140200Y97800
X132700Y98700
X126500Y105400
X153400Y119900
X151800Y60500
X154293Y48191
X156200Y43700
X158000Y39700
X156800Y27400
X153700
X150500Y15800
X134800Y16300
X131600Y27800
X128600Y27900
X125400Y28000
X122100Y28100
X119100Y28000
X115900Y27800
X112800Y28000
X109563Y16839
X129300Y37000
X131888Y37789
X134811Y40568
X59800Y32400
X46100Y32800
X26224Y32019
X13800Y32800
X6500Y138600
X12400Y152600
X25600Y141600
X35400Y130300
X42500Y129200
X42100Y134500
X42300Y148072
X77439Y143060
X81300Y145300
X81400Y157900
X89000Y163800
X95700Y157700
X105800Y158300
X108300Y155800
X106663Y153963
X107000Y151800
X106800Y149600
X106709Y147000
X105400Y144600
X95900Y145600
X95700Y143000
X94552Y132034
X87752Y136043
X76600Y126600
X79600Y119900
X80300Y114000
X52300Y113300
X62200Y101000
X126901Y164001
X116428Y173680
X96300Y175100
X82300Y174800
X91066Y165534
X46000Y168900
X23000Y169100
X24600Y176700
X24200Y182700
X33600Y180800
X33900Y231700
X34200Y245600
X24545Y249612
X19700Y247700
X22200Y243700
X20300Y241700
X23300Y239700
X19600Y233600
X8500Y261100
X60400Y216000
X67226Y202263
X72200Y200400
X115300Y198500
X128408Y198827
X128300Y212200
X119700Y212100
X112400Y212200
X101900Y225900
X102183Y235679
X110600Y241300
X115100Y239900
X121900Y227500
X139800Y223500
X141800Y212100
X142142Y198400
X145100Y198400
X138300Y181000
X149700Y219900
X155200Y233600
X177700Y226800
X185000Y222000
X187500Y212400
X187400Y198600
X190300
X203500Y208400
X214700Y196200
X216457Y180650
X205600Y181100
X206300Y183600
X180700Y184600
X177463Y169637
X183900Y167400
X192923Y167829
X244900Y169800
X232700Y189100
X238700Y214300
X239200Y222100
X230000Y230000
Y238000
Y245500
Y253500
X164400Y213100
X168913Y201946
X165400Y198000
X161900Y197800
T02
X261600Y18500
Y28500
Y38500
Y48500
Y58500
Y68500
T03
X16100Y15100
X26100
X48400Y15200
X58400
T04
X236221Y51181
X86614Y15748
X19685Y86614
X157480Y251969
M30
