G04*
G04 #@! TF.GenerationSoftware,Altium Limited,Altium Designer,23.3.1 (30)*
G04*
G04 Layer_Color=8421504*
%FSLAX44Y44*%
%MOMM*%
G71*
G04*
G04 #@! TF.SameCoordinates,1E3CE245-77AB-4D3B-BECC-05931035AD6D*
G04*
G04*
G04 #@! TF.FilePolarity,Positive*
G04*
G01*
G75*
%ADD15R,1.0000X0.9000*%
%ADD16R,0.9000X1.0000*%
%ADD17R,0.8500X0.9500*%
%ADD18R,1.2000X1.8000*%
%ADD19R,0.6000X1.5500*%
%ADD20R,0.8000X0.9000*%
%ADD21R,0.9000X0.8000*%
%ADD22R,2.0000X2.4000*%
%ADD23R,4.0500X3.4500*%
%ADD24R,0.4500X1.0500*%
%ADD25R,2.8000X1.6000*%
%ADD26R,1.4500X0.3000*%
%ADD27R,0.3000X1.4500*%
%ADD28R,0.7600X1.1300*%
%ADD29R,0.9500X0.8500*%
G04:AMPARAMS|DCode=30|XSize=1mm|YSize=0.9mm|CornerRadius=0mm|HoleSize=0mm|Usage=FLASHONLY|Rotation=45.000|XOffset=0mm|YOffset=0mm|HoleType=Round|Shape=Rectangle|*
%AMROTATEDRECTD30*
4,1,4,-0.0354,-0.6718,-0.6718,-0.0354,0.0354,0.6718,0.6718,0.0354,-0.0354,-0.6718,0.0*
%
%ADD30ROTATEDRECTD30*%

D15*
X468630Y211220D02*
D03*
Y197720D02*
D03*
X409194Y197320D02*
D03*
Y210820D02*
D03*
X295656Y213398D02*
D03*
Y199898D02*
D03*
X476250Y517760D02*
D03*
Y531260D02*
D03*
X169926Y273958D02*
D03*
Y260458D02*
D03*
X285750Y531260D02*
D03*
Y517760D02*
D03*
X452120Y211220D02*
D03*
Y197720D02*
D03*
X17780Y363950D02*
D03*
Y377450D02*
D03*
X414020Y529120D02*
D03*
Y515620D02*
D03*
X360680Y531260D02*
D03*
Y517760D02*
D03*
X187706Y260458D02*
D03*
Y273958D02*
D03*
D16*
X338328Y208534D02*
D03*
X351828D02*
D03*
X540220Y289560D02*
D03*
X553720D02*
D03*
X233572Y442722D02*
D03*
X220072D02*
D03*
X225444Y304800D02*
D03*
X211944D02*
D03*
X549802Y450596D02*
D03*
X536302D02*
D03*
X549802Y467106D02*
D03*
X536302D02*
D03*
X550310Y401320D02*
D03*
X536810D02*
D03*
X218656Y364744D02*
D03*
X232156D02*
D03*
X218040Y401320D02*
D03*
X231540D02*
D03*
D17*
X266908Y198120D02*
D03*
X279908D02*
D03*
X205440Y321310D02*
D03*
X218440D02*
D03*
D18*
X580530Y23140D02*
D03*
X534530D02*
D03*
D19*
X567530Y48390D02*
D03*
X557530D02*
D03*
X547530D02*
D03*
D20*
X553750Y310896D02*
D03*
X539750D02*
D03*
X214234Y276860D02*
D03*
X228234D02*
D03*
X214234Y290068D02*
D03*
X228234D02*
D03*
D21*
X116840Y435610D02*
D03*
Y449610D02*
D03*
Y422290D02*
D03*
Y408290D02*
D03*
Y341600D02*
D03*
Y355600D02*
D03*
Y328310D02*
D03*
Y314310D02*
D03*
D22*
X153670Y355280D02*
D03*
Y315280D02*
D03*
Y449260D02*
D03*
Y409260D02*
D03*
D23*
X64770Y359830D02*
D03*
D24*
X45720Y388330D02*
D03*
X58420D02*
D03*
X71120D02*
D03*
X83820D02*
D03*
Y331330D02*
D03*
X71120D02*
D03*
X58420D02*
D03*
X45720D02*
D03*
D25*
X155866Y122428D02*
D03*
X112866D02*
D03*
X73824Y122174D02*
D03*
X30824D02*
D03*
D26*
X256290Y470720D02*
D03*
Y465720D02*
D03*
Y460720D02*
D03*
Y455720D02*
D03*
Y450720D02*
D03*
Y445720D02*
D03*
Y440720D02*
D03*
Y435720D02*
D03*
Y430720D02*
D03*
Y425720D02*
D03*
Y420720D02*
D03*
Y415720D02*
D03*
Y410720D02*
D03*
Y405720D02*
D03*
Y400720D02*
D03*
Y395720D02*
D03*
Y390720D02*
D03*
Y385720D02*
D03*
Y380720D02*
D03*
Y375720D02*
D03*
Y370720D02*
D03*
Y365720D02*
D03*
Y360720D02*
D03*
Y355720D02*
D03*
Y350720D02*
D03*
Y345720D02*
D03*
Y340720D02*
D03*
Y335720D02*
D03*
Y330720D02*
D03*
Y325720D02*
D03*
Y320720D02*
D03*
Y315720D02*
D03*
Y310720D02*
D03*
Y305720D02*
D03*
Y300720D02*
D03*
Y295720D02*
D03*
Y290720D02*
D03*
Y285720D02*
D03*
Y280720D02*
D03*
Y275720D02*
D03*
Y270720D02*
D03*
Y265720D02*
D03*
Y260720D02*
D03*
Y255720D02*
D03*
X510790D02*
D03*
Y260720D02*
D03*
Y265720D02*
D03*
Y270720D02*
D03*
Y275720D02*
D03*
Y280720D02*
D03*
Y285720D02*
D03*
Y290720D02*
D03*
Y295720D02*
D03*
Y300720D02*
D03*
Y305720D02*
D03*
Y310720D02*
D03*
Y315720D02*
D03*
Y320720D02*
D03*
Y325720D02*
D03*
Y330720D02*
D03*
Y335720D02*
D03*
Y340720D02*
D03*
Y345720D02*
D03*
Y350720D02*
D03*
Y355720D02*
D03*
Y360720D02*
D03*
Y365720D02*
D03*
Y370720D02*
D03*
Y375720D02*
D03*
Y380720D02*
D03*
Y385720D02*
D03*
Y390720D02*
D03*
Y395720D02*
D03*
Y400720D02*
D03*
Y405720D02*
D03*
Y410720D02*
D03*
Y415720D02*
D03*
Y420720D02*
D03*
Y425720D02*
D03*
Y430720D02*
D03*
Y435720D02*
D03*
Y440720D02*
D03*
Y445720D02*
D03*
Y450720D02*
D03*
Y455720D02*
D03*
Y460720D02*
D03*
Y465720D02*
D03*
Y470720D02*
D03*
D27*
X276040Y235970D02*
D03*
X281040D02*
D03*
X286040D02*
D03*
X291040D02*
D03*
X296040D02*
D03*
X301040D02*
D03*
X306040D02*
D03*
X311040D02*
D03*
X316040D02*
D03*
X321040D02*
D03*
X326040D02*
D03*
X331040D02*
D03*
X336040D02*
D03*
X341040D02*
D03*
X346040D02*
D03*
X351040D02*
D03*
X356040D02*
D03*
X361040D02*
D03*
X366040D02*
D03*
X371040D02*
D03*
X376040D02*
D03*
X381040D02*
D03*
X386040D02*
D03*
X391040D02*
D03*
X396040D02*
D03*
X401040D02*
D03*
X406040D02*
D03*
X411040D02*
D03*
X416040D02*
D03*
X421040D02*
D03*
X426040D02*
D03*
X431040D02*
D03*
X436040D02*
D03*
X441040D02*
D03*
X446040D02*
D03*
X451040D02*
D03*
X456040D02*
D03*
X461040D02*
D03*
X466040D02*
D03*
X471040D02*
D03*
X476040D02*
D03*
X481040D02*
D03*
X486040D02*
D03*
X491040D02*
D03*
Y490470D02*
D03*
X486040D02*
D03*
X481040D02*
D03*
X476040D02*
D03*
X471040D02*
D03*
X466040D02*
D03*
X461040D02*
D03*
X456040D02*
D03*
X451040D02*
D03*
X446040D02*
D03*
X441040D02*
D03*
X436040D02*
D03*
X431040D02*
D03*
X426040D02*
D03*
X421040D02*
D03*
X416040D02*
D03*
X411040D02*
D03*
X406040D02*
D03*
X401040D02*
D03*
X396040D02*
D03*
X391040D02*
D03*
X386040D02*
D03*
X381040D02*
D03*
X376040D02*
D03*
X371040D02*
D03*
X366040D02*
D03*
X361040D02*
D03*
X356040D02*
D03*
X351040D02*
D03*
X346040D02*
D03*
X341040D02*
D03*
X336040D02*
D03*
X331040D02*
D03*
X326040D02*
D03*
X321040D02*
D03*
X316040D02*
D03*
X311040D02*
D03*
X306040D02*
D03*
X301040D02*
D03*
X296040D02*
D03*
X291040D02*
D03*
X286040D02*
D03*
X281040D02*
D03*
X276040D02*
D03*
D28*
X132614Y273812D02*
D03*
X150114D02*
D03*
D29*
X303530Y529890D02*
D03*
Y516890D02*
D03*
D30*
X527357Y516583D02*
D03*
X536903Y507037D02*
D03*
X230177Y219403D02*
D03*
X239723Y209857D02*
D03*
M02*
