G04*
G04 #@! TF.GenerationSoftware,Altium Limited,Altium Designer,23.3.1 (30)*
G04*
G04 Layer_Color=32896*
%FSLAX44Y44*%
%MOMM*%
G71*
G04*
G04 #@! TF.SameCoordinates,1E3CE245-77AB-4D3B-BECC-05931035AD6D*
G04*
G04*
G04 #@! TF.FilePolarity,Positive*
G04*
G01*
G75*
%ADD11C,0.1500*%
%ADD12C,0.1000*%
%ADD13C,0.2000*%
%ADD14C,0.0508*%
%ADD76C,0.4000*%
D11*
X319390Y523240D02*
X333390D01*
X331470Y510540D02*
X333390D01*
Y535940D01*
X331470D02*
X333390D01*
X319390D02*
X321310D01*
X319390Y510540D02*
Y535940D01*
Y510540D02*
X321310D01*
X560970Y299070D02*
Y302070D01*
X532970Y299070D02*
X560970D01*
X532970D02*
Y302070D01*
Y310070D02*
Y313070D01*
X560970D01*
Y310070D02*
Y313070D01*
X546970Y299070D02*
Y313070D01*
X440040Y204470D02*
X454040D01*
X440040Y218470D02*
X443040D01*
X440040Y190470D02*
Y218470D01*
Y190470D02*
X443040D01*
X451040D02*
X454040D01*
Y218470D01*
X451040D02*
X454040D01*
X404812Y218362D02*
X407812D01*
Y190362D02*
Y218362D01*
X404812Y190362D02*
X407812D01*
X393812D02*
X396812D01*
X393812D02*
Y218362D01*
X396812D01*
X393812Y204362D02*
X407812D01*
X480680Y8860D02*
X483680D01*
X480680D02*
Y36860D01*
X483680D01*
X491680D02*
X494680D01*
Y8860D02*
Y36860D01*
X491680Y8860D02*
X494680D01*
X480680Y22860D02*
X494680D01*
X462900Y8860D02*
X465900D01*
X462900D02*
Y36860D01*
X465900D01*
X473900D02*
X476900D01*
Y8860D02*
Y36860D01*
X473900Y8860D02*
X476900D01*
X462900Y22860D02*
X476900D01*
X415910Y8860D02*
X418910D01*
X415910D02*
Y36860D01*
X418910D01*
X426910D02*
X429910D01*
Y8860D02*
Y36860D01*
X426910Y8860D02*
X429910D01*
X415910Y22860D02*
X429910D01*
X375270Y8860D02*
X378270D01*
X375270D02*
Y36860D01*
X378270D01*
X386270D02*
X389270D01*
Y8860D02*
Y36860D01*
X386270Y8860D02*
X389270D01*
X375270Y22860D02*
X389270D01*
X271130Y8860D02*
X274130D01*
X271130D02*
Y36860D01*
X274130D01*
X282130D02*
X285130D01*
Y8860D02*
Y36860D01*
X282130Y8860D02*
X285130D01*
X271130Y22860D02*
X285130D01*
D12*
X82240Y448354D02*
Y449354D01*
Y448354D01*
X672260Y445590D02*
X683760D01*
X672260D02*
X683760D01*
Y216390D02*
Y445590D01*
Y216390D02*
Y445590D01*
X674760Y216390D02*
X683760D01*
X674760D02*
X683760D01*
X67240Y431354D02*
Y441354D01*
Y430854D02*
Y431354D01*
X57240Y430854D02*
X67240D01*
X11240D02*
X27240D01*
X11240D02*
Y661854D01*
X27240D01*
X67240Y651354D02*
Y661854D01*
X57240D02*
X67240D01*
D13*
X600760Y401990D02*
Y402990D01*
Y401990D01*
Y402990D01*
X493370Y65730D02*
Y160330D01*
X271170D02*
X493370D01*
X271170Y65730D02*
Y160330D01*
Y65730D02*
X493370D01*
X492770Y49280D02*
Y62230D01*
X641140Y474200D02*
Y495120D01*
X691140Y474200D02*
Y674200D01*
X641140Y652020D02*
Y674200D01*
D14*
X340359Y525527D02*
Y528573D01*
X338836D01*
X338328Y528066D01*
Y527050D01*
X338836Y526542D01*
X340359D01*
X339343D02*
X338328Y525527D01*
X335789D02*
Y528573D01*
X337312Y527050D01*
X335281D01*
X592835Y545339D02*
Y548386D01*
X591312D01*
X590804Y547878D01*
Y546862D01*
X591312Y546354D01*
X592835D01*
X591820D02*
X590804Y545339D01*
X589788D02*
X588773D01*
X589281D01*
Y548386D01*
X589788Y547878D01*
X594359Y512065D02*
Y515112D01*
X592836D01*
X592328Y514604D01*
Y513588D01*
X592836Y513080D01*
X594359D01*
X593344D02*
X592328Y512065D01*
X589281D02*
X591312D01*
X589281Y514096D01*
Y514604D01*
X589789Y515112D01*
X590804D01*
X591312Y514604D01*
X679449Y458724D02*
X679957Y459231D01*
X680973D01*
X681481Y458724D01*
Y456692D01*
X680973Y456185D01*
X679957D01*
X679449Y456692D01*
X678434Y456185D02*
Y459231D01*
X676403Y456185D01*
Y459231D01*
X675387Y456185D02*
X674371D01*
X674879D01*
Y459231D01*
X675387Y458724D01*
X539749Y318770D02*
X540257Y319277D01*
X541273D01*
X541781Y318770D01*
Y316738D01*
X541273Y316231D01*
X540257D01*
X539749Y316738D01*
X538734Y318770D02*
X538226Y319277D01*
X537210D01*
X536702Y318770D01*
Y318262D01*
X537210Y317754D01*
X537718D01*
X537210D01*
X536702Y317246D01*
Y316738D01*
X537210Y316231D01*
X538226D01*
X538734Y316738D01*
X533655Y319277D02*
X534671Y318770D01*
X535687Y317754D01*
Y316738D01*
X535179Y316231D01*
X534163D01*
X533655Y316738D01*
Y317246D01*
X534163Y317754D01*
X535687D01*
X564641Y351028D02*
X565149Y351535D01*
X566165D01*
X566673Y351028D01*
Y348996D01*
X566165Y348489D01*
X565149D01*
X564641Y348996D01*
X563626Y351028D02*
X563118Y351535D01*
X562102D01*
X561594Y351028D01*
Y350520D01*
X562102Y350012D01*
X562610D01*
X562102D01*
X561594Y349504D01*
Y348996D01*
X562102Y348489D01*
X563118D01*
X563626Y348996D01*
X558547Y351535D02*
X560579D01*
Y350012D01*
X559563Y350520D01*
X559055D01*
X558547Y350012D01*
Y348996D01*
X559055Y348489D01*
X560071D01*
X560579Y348996D01*
X557021Y318262D02*
X557529Y318769D01*
X558545D01*
X559053Y318262D01*
Y316230D01*
X558545Y315723D01*
X557529D01*
X557021Y316230D01*
X556006Y315723D02*
X554990D01*
X555498D01*
Y318769D01*
X556006Y318262D01*
X553467Y318769D02*
X551435D01*
Y318262D01*
X553467Y316230D01*
Y315723D01*
X435610Y197866D02*
X436118Y198374D01*
X437133D01*
X437641Y197866D01*
Y195834D01*
X437133Y195326D01*
X436118D01*
X435610Y195834D01*
X434594Y197866D02*
X434086Y198374D01*
X433071D01*
X432563Y197866D01*
Y197358D01*
X433071Y196850D01*
X432563Y196342D01*
Y195834D01*
X433071Y195326D01*
X434086D01*
X434594Y195834D01*
Y196342D01*
X434086Y196850D01*
X434594Y197358D01*
Y197866D01*
X434086Y196850D02*
X433071D01*
X405892Y223774D02*
X406400Y224282D01*
X407415D01*
X407923Y223774D01*
Y221742D01*
X407415Y221234D01*
X406400D01*
X405892Y221742D01*
X402845Y224282D02*
X403861Y223774D01*
X404876Y222758D01*
Y221742D01*
X404368Y221234D01*
X403353D01*
X402845Y221742D01*
Y222250D01*
X403353Y222758D01*
X404876D01*
X509523Y175005D02*
X508507D01*
X509015D01*
Y171959D01*
X509523D01*
X508507D01*
X504952Y174498D02*
X505460Y175005D01*
X506476D01*
X506984Y174498D01*
Y172466D01*
X506476Y171959D01*
X505460D01*
X504952Y172466D01*
X503937Y171959D02*
X502921D01*
X503429D01*
Y175005D01*
X503937Y174498D01*
X500634Y35814D02*
X501142Y36321D01*
X502157D01*
X502665Y35814D01*
Y33782D01*
X502157Y33275D01*
X501142D01*
X500634Y33782D01*
X497587Y33275D02*
X499618D01*
X497587Y35306D01*
Y35814D01*
X498095Y36321D01*
X499110D01*
X499618Y35814D01*
X456946Y35306D02*
X457454Y35814D01*
X458469D01*
X458977Y35306D01*
Y33274D01*
X458469Y32766D01*
X457454D01*
X456946Y33274D01*
X455930Y35814D02*
X453899D01*
Y35306D01*
X455930Y33274D01*
Y32766D01*
X410210Y35814D02*
X410718Y36321D01*
X411733D01*
X412241Y35814D01*
Y33782D01*
X411733Y33275D01*
X410718D01*
X410210Y33782D01*
X409194Y35814D02*
X408686Y36321D01*
X407671D01*
X407163Y35814D01*
Y35306D01*
X407671Y34798D01*
X408178D01*
X407671D01*
X407163Y34290D01*
Y33782D01*
X407671Y33275D01*
X408686D01*
X409194Y33782D01*
X369824Y35560D02*
X370332Y36068D01*
X371347D01*
X371855Y35560D01*
Y33528D01*
X371347Y33021D01*
X370332D01*
X369824Y33528D01*
X367285Y33021D02*
Y36068D01*
X368808Y34544D01*
X366777D01*
X266700Y35052D02*
X267208Y35559D01*
X268223D01*
X268731Y35052D01*
Y33020D01*
X268223Y32513D01*
X267208D01*
X266700Y33020D01*
X263653Y35559D02*
X265684D01*
Y34036D01*
X264669Y34544D01*
X264161D01*
X263653Y34036D01*
Y33020D01*
X264161Y32513D01*
X265176D01*
X265684Y33020D01*
X609091Y670560D02*
X609599Y671068D01*
X610615D01*
X611123Y670560D01*
Y668528D01*
X610615Y668020D01*
X609599D01*
X609091Y668528D01*
X608076Y668020D02*
Y671068D01*
X606044Y668020D01*
Y671068D01*
X605029D02*
X602997D01*
Y670560D01*
X605029Y668528D01*
Y668020D01*
X72899Y424942D02*
X72391Y424435D01*
X71375D01*
X70867Y424942D01*
Y426974D01*
X71375Y427481D01*
X72391D01*
X72899Y426974D01*
X73914Y427481D02*
Y424435D01*
X75946Y427481D01*
Y424435D01*
X78993D02*
X77977Y424942D01*
X76961Y425958D01*
Y426974D01*
X77469Y427481D01*
X78485D01*
X78993Y426974D01*
Y426466D01*
X78485Y425958D01*
X76961D01*
D76*
X615276Y656150D02*
X613856Y658106D01*
X611556Y657359D01*
Y654941D01*
X613856Y654194D01*
X615276Y656150D01*
M02*
