G04*
G04 #@! TF.GenerationSoftware,Altium Limited,Altium Designer,23.3.1 (30)*
G04*
G04 Layer_Physical_Order=1*
G04 Layer_Color=255*
%FSLAX44Y44*%
%MOMM*%
G71*
G04*
G04 #@! TF.SameCoordinates,1E3CE245-77AB-4D3B-BECC-05931035AD6D*
G04*
G04*
G04 #@! TF.FilePolarity,Positive*
G04*
G01*
G75*
%ADD15R,1.0000X0.9000*%
%ADD16R,0.9000X1.0000*%
%ADD17R,0.8500X0.9500*%
%ADD18R,1.2000X1.8000*%
%ADD19R,0.6000X1.5500*%
%ADD20R,0.8000X0.9000*%
%ADD21R,0.9000X0.8000*%
%ADD22R,2.0000X2.4000*%
%ADD23R,4.0500X3.4500*%
%ADD24R,0.4500X1.0500*%
%ADD25R,2.8000X1.6000*%
%ADD26R,1.4500X0.3000*%
%ADD27R,0.3000X1.4500*%
%ADD28R,0.7600X1.1300*%
%ADD29R,0.9500X0.8500*%
G04:AMPARAMS|DCode=30|XSize=1mm|YSize=0.9mm|CornerRadius=0mm|HoleSize=0mm|Usage=FLASHONLY|Rotation=45.000|XOffset=0mm|YOffset=0mm|HoleType=Round|Shape=Rectangle|*
%AMROTATEDRECTD30*
4,1,4,-0.0354,-0.6718,-0.6718,-0.0354,0.0354,0.6718,0.6718,0.0354,-0.0354,-0.6718,0.0*
%
%ADD30ROTATEDRECTD30*%

%ADD52C,0.1270*%
%ADD53C,0.3810*%
%ADD54C,0.2540*%
%ADD55C,0.2032*%
%ADD56C,4.2000*%
%ADD57R,1.5000X1.5000*%
%ADD58C,1.5000*%
%ADD59O,1.7500X2.5000*%
%ADD60C,0.4000*%
G36*
X691381Y2039D02*
X2039D01*
Y683761D01*
X691381D01*
Y2039D01*
D02*
G37*
%LPC*%
G36*
X402168Y662016D02*
X400508D01*
Y640508D01*
X422016D01*
Y642168D01*
X421170Y646422D01*
X419510Y650428D01*
X417101Y654034D01*
X414034Y657101D01*
X410429Y659510D01*
X406422Y661170D01*
X402168Y662016D01*
D02*
G37*
G36*
X399492D02*
X397832D01*
X393578Y661170D01*
X389571Y659510D01*
X385966Y657101D01*
X382899Y654034D01*
X380490Y650428D01*
X378830Y646422D01*
X377984Y642168D01*
Y640508D01*
X399492D01*
Y662016D01*
D02*
G37*
G36*
X584896Y647390D02*
X583504D01*
X582217Y646857D01*
X581233Y645873D01*
X581109Y645573D01*
X558800D01*
X558156Y645445D01*
X557610Y645080D01*
X474111Y561582D01*
X473034Y562301D01*
X473400Y563184D01*
Y564576D01*
X472867Y565863D01*
X471883Y566847D01*
X470596Y567380D01*
X469204D01*
X468904Y567256D01*
X463145Y573015D01*
X462599Y573380D01*
X461955Y573508D01*
X455403D01*
X454610Y574778D01*
X454858Y575376D01*
Y576768D01*
X454325Y578055D01*
X453341Y579039D01*
X452054Y579572D01*
X450662D01*
X449375Y579039D01*
X448600Y578263D01*
X353060D01*
X352416Y578135D01*
X351870Y577770D01*
X319850Y545751D01*
X319485Y545204D01*
X319357Y544560D01*
Y498736D01*
X317723D01*
Y571436D01*
X317595Y572080D01*
X317230Y572626D01*
X313002Y576855D01*
X313126Y577154D01*
Y578546D01*
X312593Y579833D01*
X311609Y580817D01*
X310322Y581350D01*
X308930D01*
X307643Y580817D01*
X306659Y579833D01*
X306126Y578546D01*
Y577154D01*
X306659Y575867D01*
X307643Y574883D01*
X308930Y574350D01*
X310322D01*
X310621Y574474D01*
X314357Y570739D01*
Y498736D01*
X302723D01*
Y502527D01*
X304720Y504524D01*
X305085Y505070D01*
X305213Y505714D01*
Y511624D01*
X309296D01*
Y522156D01*
X297764D01*
Y511624D01*
X301847D01*
Y506411D01*
X299849Y504414D01*
X299485Y503868D01*
X299356Y503224D01*
Y502275D01*
X298706Y502067D01*
X298086Y502064D01*
X297688Y502660D01*
X296362Y503986D01*
Y504886D01*
X295829Y506173D01*
X294845Y507157D01*
X293558Y507690D01*
X292404D01*
X289605Y510489D01*
Y512244D01*
X291766D01*
Y523276D01*
X279734D01*
Y513289D01*
X279734Y512859D01*
X278464Y512333D01*
X272955Y517841D01*
Y561340D01*
X272827Y561984D01*
X272462Y562530D01*
X262202Y572790D01*
X262326Y573090D01*
Y574482D01*
X261793Y575769D01*
X260809Y576753D01*
X259522Y577286D01*
X258130D01*
X256843Y576753D01*
X255859Y575769D01*
X255326Y574482D01*
Y573090D01*
X255859Y571803D01*
X256843Y570819D01*
X258130Y570286D01*
X259522D01*
X259821Y570410D01*
X269589Y560643D01*
Y517144D01*
X269717Y516500D01*
X270082Y515954D01*
X279356Y506679D01*
Y498736D01*
X273524D01*
Y482204D01*
X304372D01*
Y387613D01*
X304500Y386969D01*
X304865Y386423D01*
X362181Y329107D01*
X362727Y328742D01*
X363142Y328660D01*
X386260Y305541D01*
X386136Y305242D01*
Y303850D01*
X386669Y302563D01*
X387653Y301579D01*
X388940Y301046D01*
X390332D01*
X391619Y301579D01*
X392603Y302563D01*
X393136Y303850D01*
Y305242D01*
X392603Y306529D01*
X391619Y307513D01*
X390332Y308046D01*
X388940D01*
X388641Y307922D01*
X365075Y331488D01*
X364529Y331853D01*
X364114Y331935D01*
X343591Y352458D01*
X343889Y353956D01*
X344375Y354157D01*
X345359Y355141D01*
X345892Y356428D01*
Y357820D01*
X345842Y357940D01*
X357230Y369328D01*
X357595Y369874D01*
X357723Y370518D01*
Y482204D01*
X365532D01*
Y490470D01*
X366548D01*
Y482204D01*
X415532D01*
Y490470D01*
X416548D01*
Y482204D01*
X439357D01*
Y356751D01*
X439485Y356106D01*
X439599Y355936D01*
X439222Y355026D01*
Y353634D01*
X439755Y352347D01*
X440739Y351363D01*
X442026Y350830D01*
X443418D01*
X444301Y351196D01*
X445020Y350119D01*
X387684Y292782D01*
X387319Y292236D01*
X387191Y291592D01*
Y255163D01*
X386232Y254205D01*
X385699Y252918D01*
Y251526D01*
X386232Y250239D01*
X387216Y249255D01*
X388503Y248722D01*
X389895D01*
X391182Y249255D01*
X392166Y250239D01*
X392699Y251526D01*
Y252918D01*
X392166Y254205D01*
X391182Y255189D01*
X390557Y255448D01*
Y290895D01*
X395161Y295499D01*
X396335Y295013D01*
Y254805D01*
X396035Y254681D01*
X395051Y253697D01*
X394518Y252410D01*
Y251018D01*
X395051Y249731D01*
X396035Y248747D01*
X397322Y248214D01*
X398714D01*
X400001Y248747D01*
X400985Y249731D01*
X401518Y251018D01*
Y251777D01*
X402289Y252657D01*
X402691Y252786D01*
X403794D01*
X405081Y253319D01*
X406065Y254303D01*
X406598Y255590D01*
Y256982D01*
X406065Y258269D01*
X405081Y259253D01*
X404781Y259377D01*
Y298330D01*
X466400Y359949D01*
X466951Y359854D01*
X467760Y359512D01*
X468203Y358443D01*
X469187Y357459D01*
X470474Y356926D01*
X471866D01*
X473153Y357459D01*
X474137Y358443D01*
X474322Y358890D01*
X502524D01*
Y356228D01*
X510790D01*
Y355212D01*
X502524D01*
Y353204D01*
Y343204D01*
Y333204D01*
Y326228D01*
X510790D01*
Y325212D01*
X502524D01*
Y323204D01*
Y313204D01*
Y302535D01*
X495503D01*
X495325Y302966D01*
X494340Y303950D01*
X493054Y304483D01*
X491661D01*
X490375Y303950D01*
X489390Y302966D01*
X488858Y301679D01*
Y300287D01*
X489390Y299000D01*
X490335Y298055D01*
X490346Y297994D01*
X490339Y297775D01*
X490181Y296721D01*
X489253Y296337D01*
X488269Y295353D01*
X487736Y294066D01*
Y292674D01*
X488269Y291387D01*
X489253Y290403D01*
X490540Y289870D01*
X491932D01*
X493219Y290403D01*
X494203Y291387D01*
X494736Y292674D01*
Y293751D01*
X495022Y294037D01*
X502524D01*
Y286228D01*
X510790D01*
Y285212D01*
X502524D01*
Y283204D01*
Y273204D01*
Y263204D01*
Y253204D01*
X519056D01*
Y254066D01*
X523209D01*
X523321Y253795D01*
X524305Y252811D01*
X525592Y252278D01*
X526984D01*
X528271Y252811D01*
X529255Y253795D01*
X529516Y254425D01*
X530891D01*
X530941Y254303D01*
X531925Y253319D01*
X533212Y252786D01*
X534604D01*
X535891Y253319D01*
X536875Y254303D01*
X537408Y255590D01*
Y256982D01*
X536875Y258269D01*
X535891Y259253D01*
X534604Y259786D01*
X533212D01*
X532912Y259662D01*
X530664Y261910D01*
X530118Y262275D01*
X529474Y262403D01*
X528991D01*
X528465Y263673D01*
X528493Y263701D01*
X529026Y264988D01*
Y266380D01*
X528493Y267667D01*
X527509Y268651D01*
X526222Y269184D01*
X524830D01*
X523543Y268651D01*
X522559Y267667D01*
X522443Y267386D01*
X519056D01*
Y274037D01*
X582044D01*
X582688Y274165D01*
X583234Y274530D01*
X589300Y280596D01*
X589600Y280472D01*
X590992D01*
X592279Y281005D01*
X593263Y281989D01*
X593796Y283276D01*
Y284668D01*
X593263Y285955D01*
X592279Y286939D01*
X590992Y287472D01*
X589600D01*
X588313Y286939D01*
X587329Y285955D01*
X586796Y284668D01*
Y283276D01*
X586920Y282976D01*
X581347Y277403D01*
X519056D01*
Y279036D01*
X520412D01*
X521019Y278916D01*
X565079D01*
X565723Y279044D01*
X566269Y279409D01*
X576007Y289147D01*
X600667D01*
X600791Y288847D01*
X601775Y287863D01*
X603062Y287330D01*
X604454D01*
X605741Y287863D01*
X606725Y288847D01*
X607258Y290134D01*
Y291526D01*
X606725Y292813D01*
X605741Y293797D01*
X604454Y294330D01*
X603062D01*
X601775Y293797D01*
X600791Y292813D01*
X600667Y292513D01*
X575310D01*
X574666Y292385D01*
X574120Y292020D01*
X564382Y282282D01*
X559256D01*
X559236Y283544D01*
X559236Y283552D01*
Y287229D01*
X562977D01*
X563869Y287407D01*
X564625Y287912D01*
X565354Y288641D01*
X565534Y288677D01*
X566290Y289182D01*
X566795Y289938D01*
X566973Y290830D01*
X566795Y291722D01*
X566290Y292478D01*
X565534Y292983D01*
X564642Y293161D01*
X564247D01*
X563355Y292983D01*
X562599Y292478D01*
X562011Y291891D01*
X559236D01*
Y295576D01*
X554228D01*
Y289560D01*
X553720D01*
Y289052D01*
X548204D01*
Y283552D01*
X548204Y283544D01*
X548184Y282282D01*
X545756D01*
X545736Y283544D01*
X545736D01*
Y295576D01*
X534704D01*
Y292653D01*
X528145D01*
X527509Y293289D01*
X526222Y293822D01*
X524830D01*
X523543Y293289D01*
X523106Y292852D01*
X519056D01*
Y303310D01*
X523844D01*
X524559Y302595D01*
X525846Y302062D01*
X527238D01*
X528525Y302595D01*
X529509Y303579D01*
X530042Y304866D01*
Y306258D01*
X530886Y307539D01*
X531827Y307929D01*
X532722Y308824D01*
X534734D01*
Y305380D01*
X544766D01*
Y316412D01*
X535981D01*
X535571Y316412D01*
X534573Y317520D01*
X534586Y317829D01*
X535621Y318865D01*
X601429D01*
X601553Y318565D01*
X602537Y317581D01*
X603824Y317048D01*
X605216D01*
X606503Y317581D01*
X607487Y318565D01*
X608020Y319852D01*
Y321244D01*
X607487Y322531D01*
X606503Y323515D01*
X605216Y324048D01*
X603824D01*
X602537Y323515D01*
X601553Y322531D01*
X601429Y322231D01*
X536837D01*
X536351Y323405D01*
X541971Y329025D01*
X601175D01*
X601299Y328725D01*
X602283Y327741D01*
X603570Y327208D01*
X604962D01*
X606249Y327741D01*
X607233Y328725D01*
X607766Y330012D01*
Y331404D01*
X607233Y332691D01*
X606249Y333675D01*
X604962Y334208D01*
X603570D01*
X602283Y333675D01*
X601299Y332691D01*
X601175Y332391D01*
X541274D01*
X540630Y332263D01*
X540084Y331898D01*
X530589Y322403D01*
X525270D01*
X524938Y323674D01*
X525396Y323980D01*
X525901Y324736D01*
X526079Y325628D01*
X525901Y326520D01*
X525396Y327276D01*
X525350Y327322D01*
X524877Y327638D01*
X524892Y328409D01*
X525023Y328881D01*
X525045Y328937D01*
X525546Y329036D01*
X526092Y329401D01*
X535367Y338677D01*
X568742D01*
X569386Y338805D01*
X569932Y339170D01*
X580107Y349345D01*
X601429D01*
X601553Y349045D01*
X602537Y348061D01*
X603824Y347528D01*
X605216D01*
X606503Y348061D01*
X607487Y349045D01*
X608020Y350332D01*
Y351724D01*
X607487Y353011D01*
X606503Y353995D01*
X605216Y354528D01*
X603824D01*
X602537Y353995D01*
X601553Y353011D01*
X601429Y352711D01*
X581541D01*
X581055Y353885D01*
X586167Y358997D01*
X601429D01*
X601553Y358697D01*
X602537Y357713D01*
X603824Y357180D01*
X605216D01*
X606503Y357713D01*
X607487Y358697D01*
X608020Y359984D01*
Y361376D01*
X607487Y362663D01*
X606503Y363647D01*
X605216Y364180D01*
X603824D01*
X602537Y363647D01*
X601553Y362663D01*
X601429Y362363D01*
X585470D01*
X584826Y362235D01*
X584280Y361870D01*
X566993Y344583D01*
X533400D01*
X532756Y344455D01*
X532210Y344090D01*
X529026Y340907D01*
X527756Y341310D01*
X527223Y342597D01*
X526239Y343581D01*
X525768Y343776D01*
X525470Y345274D01*
X559512Y379317D01*
X601429D01*
X601553Y379017D01*
X602537Y378033D01*
X603824Y377500D01*
X605216D01*
X606503Y378033D01*
X607487Y379017D01*
X608020Y380304D01*
Y381696D01*
X607487Y382983D01*
X606503Y383967D01*
X605216Y384500D01*
X603824D01*
X602537Y383967D01*
X601553Y382983D01*
X601429Y382683D01*
X560713D01*
X560227Y383857D01*
X565847Y389477D01*
X601429D01*
X601553Y389177D01*
X602537Y388193D01*
X603824Y387660D01*
X605216D01*
X606503Y388193D01*
X607487Y389177D01*
X608020Y390464D01*
Y391856D01*
X607487Y393143D01*
X606503Y394127D01*
X605216Y394660D01*
X603824D01*
X602537Y394127D01*
X601553Y393143D01*
X601429Y392843D01*
X565150D01*
X564506Y392715D01*
X563960Y392350D01*
X526532Y354923D01*
X526461Y354910D01*
X525562Y355851D01*
X525647Y355978D01*
X525825Y356870D01*
X525647Y357762D01*
X525142Y358518D01*
X524386Y359023D01*
X523494Y359201D01*
X523099D01*
X522207Y359023D01*
X521451Y358518D01*
X520983Y358051D01*
X519056D01*
Y363204D01*
Y373204D01*
Y383204D01*
Y393389D01*
X521384D01*
X523229Y391544D01*
X523985Y391039D01*
X524877Y390861D01*
X525272D01*
X526164Y391039D01*
X526920Y391544D01*
X527425Y392300D01*
X527603Y393192D01*
X527425Y394084D01*
X526920Y394840D01*
X526164Y395345D01*
X525984Y395381D01*
X525319Y396046D01*
X525617Y397544D01*
X525731Y397591D01*
X526367Y398227D01*
X531294D01*
Y395304D01*
X542326D01*
Y407336D01*
X531294D01*
Y402889D01*
X526367D01*
X525731Y403525D01*
X524444Y404058D01*
X523052D01*
X521765Y403525D01*
X521210Y402970D01*
X519056D01*
Y408204D01*
Y418204D01*
Y428204D01*
Y438204D01*
Y448570D01*
X520326Y448843D01*
X534242Y434928D01*
X534788Y434563D01*
X535432Y434435D01*
X592139D01*
X643054Y383520D01*
X642930Y383220D01*
Y381828D01*
X643463Y380541D01*
X644447Y379557D01*
X645734Y379024D01*
X647126D01*
X648413Y379557D01*
X649397Y380541D01*
X649930Y381828D01*
Y383220D01*
X649397Y384507D01*
X648413Y385491D01*
X647126Y386024D01*
X645734D01*
X645434Y385900D01*
X643421Y387914D01*
X643477Y388395D01*
X643836Y389294D01*
X644857Y389717D01*
X645841Y390701D01*
X646374Y391988D01*
Y393380D01*
X645841Y394667D01*
X644857Y395651D01*
X643570Y396184D01*
X642178D01*
X641879Y396060D01*
X559736Y478202D01*
X559190Y478567D01*
X558546Y478695D01*
X474661D01*
X472723Y480633D01*
Y482204D01*
X480532D01*
Y490470D01*
X481548D01*
Y482204D01*
X493556D01*
Y498736D01*
X483371D01*
Y500761D01*
X485010Y502401D01*
X485515Y503157D01*
X485693Y504049D01*
Y504444D01*
X485515Y505336D01*
X485010Y506092D01*
X484254Y506597D01*
X483362Y506775D01*
X482470Y506597D01*
X481714Y506092D01*
X481209Y505336D01*
X480011Y504982D01*
X479496Y505140D01*
X478963Y506427D01*
X478327Y507063D01*
Y512244D01*
X482266D01*
Y523276D01*
X470234D01*
Y512244D01*
X473665D01*
Y507063D01*
X473029Y506427D01*
X472496Y505140D01*
Y503748D01*
X473029Y502461D01*
X473687Y501803D01*
Y498736D01*
X462723D01*
Y534003D01*
X511237Y582517D01*
X581109D01*
X581233Y582217D01*
X582217Y581233D01*
X583504Y580700D01*
X584896D01*
X586183Y581233D01*
X587167Y582217D01*
X587700Y583504D01*
Y584896D01*
X587167Y586183D01*
X586183Y587167D01*
X584896Y587700D01*
X583504D01*
X582217Y587167D01*
X581233Y586183D01*
X581109Y585883D01*
X512453D01*
X511967Y587057D01*
X527747Y602837D01*
X581109D01*
X581233Y602537D01*
X582217Y601553D01*
X583504Y601020D01*
X584896D01*
X586183Y601553D01*
X587167Y602537D01*
X587700Y603824D01*
Y605216D01*
X587167Y606503D01*
X586183Y607487D01*
X584896Y608020D01*
X583504D01*
X582217Y607487D01*
X581233Y606503D01*
X581109Y606203D01*
X529181D01*
X528695Y607377D01*
X543205Y621887D01*
X581109D01*
X581233Y621587D01*
X582217Y620603D01*
X583504Y620070D01*
X584896D01*
X586183Y620603D01*
X587167Y621587D01*
X587700Y622874D01*
Y624266D01*
X587167Y625553D01*
X586183Y626537D01*
X584896Y627070D01*
X583504D01*
X582217Y626537D01*
X581233Y625553D01*
X581109Y625253D01*
X544203D01*
X543717Y626427D01*
X559497Y642207D01*
X581109D01*
X581233Y641907D01*
X582217Y640923D01*
X583504Y640390D01*
X584896D01*
X586183Y640923D01*
X587167Y641907D01*
X587700Y643194D01*
Y644586D01*
X587167Y645873D01*
X586183Y646857D01*
X584896Y647390D01*
D02*
G37*
G36*
X63042Y637514D02*
X61649D01*
X60363Y636981D01*
X59378Y635996D01*
X58845Y634710D01*
Y633317D01*
X59378Y632031D01*
X60363Y631046D01*
X61649Y630514D01*
X63042D01*
X64328Y631046D01*
X65313Y632031D01*
X65845Y633317D01*
Y634710D01*
X65313Y635996D01*
X64328Y636981D01*
X63042Y637514D01*
D02*
G37*
G36*
X50734Y632658D02*
X49342D01*
X48055Y632125D01*
X47071Y631141D01*
X46538Y629854D01*
Y628462D01*
X47071Y627175D01*
X48055Y626191D01*
X49342Y625658D01*
X50734D01*
X52021Y626191D01*
X53005Y627175D01*
X53538Y628462D01*
Y629854D01*
X53005Y631141D01*
X52021Y632125D01*
X50734Y632658D01*
D02*
G37*
G36*
X422016Y639492D02*
X400508D01*
Y617984D01*
X402168D01*
X406422Y618830D01*
X410429Y620490D01*
X414034Y622899D01*
X417101Y625966D01*
X419510Y629571D01*
X421170Y633578D01*
X422016Y637832D01*
Y639492D01*
D02*
G37*
G36*
X399492D02*
X377984D01*
Y637832D01*
X378830Y633578D01*
X380490Y629571D01*
X382899Y625966D01*
X385966Y622899D01*
X389571Y620490D01*
X393578Y618830D01*
X397832Y617984D01*
X399492D01*
Y639492D01*
D02*
G37*
G36*
X57084Y622498D02*
X55692D01*
X54405Y621965D01*
X53421Y620981D01*
X52888Y619694D01*
Y618532D01*
X52630Y618076D01*
X51879Y617418D01*
X50866D01*
X49579Y616885D01*
X48595Y615901D01*
X48062Y614614D01*
Y613222D01*
X48595Y611935D01*
X49579Y610951D01*
X50866Y610418D01*
X52258D01*
X53545Y610951D01*
X54529Y611935D01*
X55062Y613222D01*
Y614384D01*
X55320Y614840D01*
X56071Y615498D01*
X57084D01*
X58371Y616031D01*
X59355Y617015D01*
X59888Y618302D01*
Y619694D01*
X59355Y620981D01*
X58371Y621965D01*
X57084Y622498D01*
D02*
G37*
G36*
X281620Y616402D02*
X280228D01*
X278941Y615869D01*
X277957Y614885D01*
X277424Y613598D01*
Y612206D01*
X277957Y610919D01*
X278941Y609935D01*
X280228Y609402D01*
X281620D01*
X282907Y609935D01*
X283891Y610919D01*
X284424Y612206D01*
Y613598D01*
X283891Y614885D01*
X282907Y615869D01*
X281620Y616402D01*
D02*
G37*
G36*
X293050Y612846D02*
X291658D01*
X290371Y612313D01*
X289387Y611329D01*
X288854Y610042D01*
Y608650D01*
X289387Y607363D01*
X290371Y606379D01*
X291658Y605846D01*
X293050D01*
X294337Y606379D01*
X295321Y607363D01*
X295854Y608650D01*
Y610042D01*
X295321Y611329D01*
X294337Y612313D01*
X293050Y612846D01*
D02*
G37*
G36*
X59878Y612338D02*
X58486D01*
X57199Y611805D01*
X56215Y610821D01*
X55682Y609534D01*
Y608142D01*
X56215Y606855D01*
X57199Y605871D01*
X58486Y605338D01*
X59878D01*
X61165Y605871D01*
X62149Y606855D01*
X62682Y608142D01*
Y609534D01*
X62149Y610821D01*
X61165Y611805D01*
X59878Y612338D01*
D02*
G37*
G36*
X260241Y602125D02*
X258849D01*
X257563Y601592D01*
X256578Y600607D01*
X256045Y599321D01*
Y597929D01*
X256578Y596642D01*
X257563Y595658D01*
X258849Y595125D01*
X260241D01*
X261528Y595658D01*
X262512Y596642D01*
X263045Y597929D01*
Y599321D01*
X262512Y600607D01*
X261528Y601592D01*
X260241Y602125D01*
D02*
G37*
G36*
X394904Y596844D02*
X393512D01*
X392225Y596311D01*
X391241Y595327D01*
X390708Y594040D01*
Y592648D01*
X391241Y591361D01*
X392225Y590377D01*
X393512Y589844D01*
X394904D01*
X396191Y590377D01*
X397175Y591361D01*
X397708Y592648D01*
Y594040D01*
X397175Y595327D01*
X396191Y596311D01*
X394904Y596844D01*
D02*
G37*
G36*
X50480D02*
X49088D01*
X47801Y596311D01*
X46817Y595327D01*
X46284Y594040D01*
Y592648D01*
X46817Y591361D01*
X47801Y590377D01*
X49088Y589844D01*
X50480D01*
X51767Y590377D01*
X52751Y591361D01*
X53284Y592648D01*
Y594040D01*
X52751Y595327D01*
X51767Y596311D01*
X50480Y596844D01*
D02*
G37*
G36*
X606994Y547822D02*
X605602D01*
X604315Y547289D01*
X603331Y546305D01*
X602798Y545018D01*
Y543626D01*
X603331Y542339D01*
X604315Y541355D01*
X605602Y540822D01*
X606994D01*
X608281Y541355D01*
X609265Y542339D01*
X609798Y543626D01*
Y545018D01*
X609265Y546305D01*
X608281Y547289D01*
X606994Y547822D01*
D02*
G37*
G36*
X476250Y541827D02*
X475358Y541649D01*
X474602Y541144D01*
X474097Y540388D01*
X473919Y539496D01*
Y536776D01*
X470234D01*
Y531768D01*
X482266D01*
Y536776D01*
X478581D01*
Y539496D01*
X478403Y540388D01*
X477898Y541144D01*
X477142Y541649D01*
X476250Y541827D01*
D02*
G37*
G36*
X285496Y541319D02*
X284604Y541141D01*
X283848Y540636D01*
X283343Y539880D01*
X283165Y538988D01*
Y536776D01*
X279734D01*
Y531768D01*
X291766D01*
Y536776D01*
X287827D01*
Y538988D01*
X287649Y539880D01*
X287144Y540636D01*
X286388Y541141D01*
X285496Y541319D01*
D02*
G37*
G36*
X482266Y530752D02*
X476758D01*
Y525744D01*
X482266D01*
Y530752D01*
D02*
G37*
G36*
X475742D02*
X470234D01*
Y525744D01*
X475742D01*
Y530752D01*
D02*
G37*
G36*
X291766D02*
X286258D01*
Y525744D01*
X291766D01*
Y530752D01*
D02*
G37*
G36*
X285242D02*
X279734D01*
Y525744D01*
X285242D01*
Y530752D01*
D02*
G37*
G36*
X304734Y542234D02*
X303342D01*
X302055Y541701D01*
X301071Y540717D01*
X300538Y539430D01*
Y538038D01*
X301071Y536751D01*
X301396Y536426D01*
X300956Y535156D01*
X297764D01*
Y524624D01*
X309296D01*
Y535156D01*
X307120D01*
X306680Y536426D01*
X307005Y536751D01*
X307538Y538038D01*
Y539430D01*
X307005Y540717D01*
X306021Y541701D01*
X304734Y542234D01*
D02*
G37*
G36*
X531970Y520478D02*
X528075Y516583D01*
X531616Y513042D01*
X535511Y516937D01*
X531970Y520478D01*
D02*
G37*
G36*
X516890Y531667D02*
X515998Y531489D01*
X515242Y530984D01*
X514737Y530228D01*
X514559Y529336D01*
X514737Y528444D01*
X514839Y528292D01*
Y526771D01*
X515016Y525879D01*
X515521Y525123D01*
X521808Y518835D01*
X519202Y516230D01*
X522744Y512688D01*
X526998Y516942D01*
X531252Y521196D01*
X527710Y524738D01*
X525105Y522132D01*
X519500Y527736D01*
Y529057D01*
X519323Y529949D01*
X518817Y530705D01*
X518538Y530984D01*
X517782Y531489D01*
X516890Y531667D01*
D02*
G37*
G36*
X527357Y515865D02*
X523462Y511970D01*
X527003Y508429D01*
X530898Y512324D01*
X527357Y515865D01*
D02*
G37*
G36*
X537257Y515191D02*
X528749Y506683D01*
X536550Y498882D01*
X539029Y501361D01*
X541838Y498552D01*
Y497652D01*
X542371Y496365D01*
X543355Y495381D01*
X544642Y494848D01*
X546034D01*
X547321Y495381D01*
X548305Y496365D01*
X548838Y497652D01*
Y499044D01*
X548305Y500331D01*
X547321Y501315D01*
X546034Y501848D01*
X545134D01*
X542325Y504658D01*
X545057Y507390D01*
X537257Y515191D01*
D02*
G37*
G36*
X591754Y483814D02*
X590362D01*
X589075Y483281D01*
X588091Y482297D01*
X587558Y481010D01*
Y479618D01*
X588091Y478331D01*
X589075Y477347D01*
X590362Y476814D01*
X591754D01*
X593041Y477347D01*
X594025Y478331D01*
X594558Y479618D01*
Y481010D01*
X594025Y482297D01*
X593041Y483281D01*
X591754Y483814D01*
D02*
G37*
G36*
X62164Y467558D02*
X60772D01*
X59485Y467025D01*
X58501Y466041D01*
X57968Y464754D01*
Y463362D01*
X58501Y462075D01*
X59485Y461091D01*
X60772Y460558D01*
X62164D01*
X63451Y461091D01*
X64435Y462075D01*
X64968Y463362D01*
Y464754D01*
X64435Y466041D01*
X63451Y467025D01*
X62164Y467558D01*
D02*
G37*
G36*
X154112Y552140D02*
X152720D01*
X151433Y551607D01*
X150449Y550623D01*
X149916Y549336D01*
Y547944D01*
X150449Y546657D01*
X151433Y545673D01*
X152720Y545140D01*
X154112D01*
X154411Y545264D01*
X240146Y459530D01*
X240692Y459165D01*
X241336Y459037D01*
X248024D01*
Y457403D01*
X237381D01*
X186764Y508021D01*
X186888Y508320D01*
Y509712D01*
X186355Y510999D01*
X185371Y511983D01*
X184084Y512516D01*
X182692D01*
X181405Y511983D01*
X180421Y510999D01*
X179888Y509712D01*
Y508790D01*
X178658Y508224D01*
X174129Y512753D01*
X174253Y513052D01*
Y514444D01*
X173720Y515731D01*
X172736Y516715D01*
X171449Y517248D01*
X170057D01*
X168770Y516715D01*
X167786Y515731D01*
X167253Y514444D01*
Y513052D01*
X167786Y511766D01*
X168770Y510781D01*
X170057Y510248D01*
X171449D01*
X171748Y510372D01*
X232113Y450008D01*
X231586Y448738D01*
X228056D01*
Y436706D01*
X239088D01*
Y440391D01*
X242175D01*
X243067Y440569D01*
X243823Y441074D01*
X244003Y441254D01*
X245298D01*
X246585Y441787D01*
X246754Y441956D01*
X248024Y441430D01*
Y432403D01*
X215899D01*
X208608Y439695D01*
X208959Y440837D01*
X209272Y440932D01*
X209815Y440569D01*
X210707Y440391D01*
X214556D01*
Y436706D01*
X219564D01*
Y442722D01*
Y448738D01*
X214556D01*
Y445053D01*
X211672D01*
X211085Y445640D01*
X210329Y446145D01*
X209437Y446323D01*
X209042D01*
X208150Y446145D01*
X207394Y445640D01*
X206889Y444884D01*
X206711Y443992D01*
X205625Y442976D01*
X205368Y442934D01*
X197852Y450450D01*
X197306Y450815D01*
X196662Y450943D01*
X164686D01*
Y462276D01*
X142654D01*
Y450943D01*
X122356D01*
Y454626D01*
X111324D01*
Y444594D01*
X122356D01*
Y447577D01*
X142654D01*
Y436244D01*
X164686D01*
Y447577D01*
X195965D01*
X214012Y429530D01*
X214558Y429165D01*
X215202Y429037D01*
X248024D01*
Y427404D01*
X215018D01*
X214373Y427275D01*
X213827Y426911D01*
X197860Y410943D01*
X164686D01*
Y422276D01*
X142654D01*
Y409974D01*
X122356D01*
Y413306D01*
X111324D01*
Y403274D01*
X122356D01*
Y406607D01*
X142654D01*
Y396244D01*
X164686D01*
Y407577D01*
X198557D01*
X199202Y407705D01*
X199748Y408070D01*
X215715Y424037D01*
X228140D01*
X228666Y422767D01*
X228339Y422440D01*
X227806Y421154D01*
Y420492D01*
X226787Y419579D01*
X226633Y419552D01*
X225364D01*
X224077Y419019D01*
X223093Y418035D01*
X222560Y416748D01*
Y415356D01*
X223093Y414069D01*
X224077Y413085D01*
X225364Y412552D01*
X226756D01*
X228043Y413085D01*
X229027Y414069D01*
X229082Y414202D01*
X248024D01*
Y406228D01*
X256290D01*
Y405212D01*
X248024D01*
Y402970D01*
X245616D01*
X245061Y403525D01*
X243774Y404058D01*
X242382D01*
X241095Y403525D01*
X240459Y402889D01*
X237056D01*
Y407336D01*
X226024D01*
Y395304D01*
X237056D01*
Y398227D01*
X240459D01*
X241095Y397591D01*
X242382Y397058D01*
X243774D01*
X245061Y397591D01*
X245778Y398308D01*
X248024D01*
Y393204D01*
Y383204D01*
Y370341D01*
X246851Y369855D01*
X245234Y371472D01*
X244478Y371977D01*
X243586Y372155D01*
X242694Y371977D01*
X241938Y371472D01*
X241433Y370716D01*
X241255Y369824D01*
X241433Y368932D01*
X241908Y368221D01*
X241869Y368062D01*
X241264Y367054D01*
X241159Y367075D01*
X237672D01*
Y370760D01*
X226640D01*
Y358728D01*
X237672D01*
Y362413D01*
X239624D01*
X240111Y361237D01*
X241095Y360253D01*
X242382Y359720D01*
X243282D01*
X243930Y359072D01*
X244527Y358673D01*
X244524Y358058D01*
X244315Y357403D01*
X210890D01*
X176451Y391842D01*
X175905Y392207D01*
X175261Y392335D01*
X110679D01*
X101774Y401240D01*
X101228Y401605D01*
X100584Y401733D01*
X62738D01*
X62094Y401605D01*
X61548Y401240D01*
X57230Y396922D01*
X56865Y396376D01*
X56737Y395732D01*
Y394596D01*
X55154D01*
Y382064D01*
X54153Y381413D01*
X49987D01*
X48986Y382064D01*
X48986Y382683D01*
Y394596D01*
X42454D01*
Y389935D01*
X34115D01*
X33479Y390571D01*
X32192Y391104D01*
X30800D01*
X29513Y390571D01*
X28598Y389655D01*
X28155D01*
X27263Y389478D01*
X26506Y388973D01*
X20500Y382966D01*
X11764D01*
Y371934D01*
X23796D01*
Y379670D01*
X29120Y384994D01*
X29156D01*
X29513Y384637D01*
X30800Y384104D01*
X32192D01*
X33479Y384637D01*
X34115Y385273D01*
X42454D01*
Y382564D01*
X42454Y382064D01*
X42051Y380961D01*
X41990Y380920D01*
X33354Y372284D01*
X32989Y371738D01*
X32861Y371094D01*
Y322072D01*
X32989Y321428D01*
X33354Y320882D01*
X104728Y249508D01*
X105274Y249143D01*
X105918Y249015D01*
X207983D01*
X208107Y248715D01*
X209091Y247731D01*
X210378Y247198D01*
X211017D01*
X211543Y245928D01*
X198891Y233275D01*
X198526Y232729D01*
X198398Y232085D01*
Y115133D01*
X198526Y114489D01*
X198891Y113943D01*
X277194Y35640D01*
X277740Y35275D01*
X278384Y35147D01*
X337820D01*
X338464Y35275D01*
X339010Y35640D01*
X341396Y38026D01*
X341696Y37902D01*
X343088D01*
X344375Y38435D01*
X345359Y39419D01*
X345892Y40706D01*
Y42098D01*
X345359Y43385D01*
X344375Y44369D01*
X343088Y44902D01*
X341696D01*
X340409Y44369D01*
X339425Y43385D01*
X338892Y42098D01*
Y40706D01*
X339016Y40406D01*
X337123Y38513D01*
X280477D01*
X280225Y39783D01*
X280274Y39804D01*
X281258Y40788D01*
X281791Y42075D01*
Y43467D01*
X281258Y44753D01*
X280274Y45738D01*
X278987Y46271D01*
X277595D01*
X276308Y45738D01*
X275324Y44753D01*
X275123Y44268D01*
X273625Y43970D01*
X201764Y115830D01*
Y172383D01*
X203034Y173231D01*
X203520Y173030D01*
X204912D01*
X206199Y173563D01*
X207183Y174547D01*
X207716Y175834D01*
Y177226D01*
X207592Y177526D01*
X219913Y189847D01*
X220127Y189781D01*
X221036Y188656D01*
Y187264D01*
X221569Y185977D01*
X222553Y184993D01*
X223840Y184460D01*
X224435D01*
X225260Y184374D01*
X225608Y183287D01*
Y182946D01*
X226141Y181659D01*
X227125Y180675D01*
X228412Y180142D01*
X229804D01*
X231091Y180675D01*
X232075Y181659D01*
X232199Y181959D01*
X243840D01*
X244484Y182087D01*
X245030Y182452D01*
X246132Y183554D01*
X303855D01*
X304499Y183682D01*
X305045Y184047D01*
X319215Y198217D01*
X320389Y197731D01*
Y100330D01*
X320517Y99686D01*
X320882Y99140D01*
X325046Y94976D01*
X324922Y94676D01*
Y93284D01*
X325455Y91997D01*
X326439Y91013D01*
X327726Y90480D01*
X329118D01*
X330405Y91013D01*
X331389Y91997D01*
X331637Y92597D01*
X332997Y93011D01*
X333071Y92993D01*
X334300Y92484D01*
X335693D01*
X336979Y93016D01*
X337964Y94001D01*
X338497Y95287D01*
Y96680D01*
X337964Y97966D01*
X336979Y98951D01*
X335693Y99483D01*
X334300D01*
X333014Y98951D01*
X332029Y97966D01*
X331781Y97367D01*
X330421Y96952D01*
X330347Y96971D01*
X329118Y97480D01*
X327726D01*
X327426Y97356D01*
X323755Y101027D01*
Y210123D01*
X331405Y217773D01*
X338582D01*
X339226Y217901D01*
X339772Y218266D01*
X347230Y225724D01*
X347595Y226270D01*
X347723Y226914D01*
Y227704D01*
X349351D01*
Y225090D01*
X349045Y224963D01*
X348061Y223979D01*
X347528Y222692D01*
Y221300D01*
X348061Y220013D01*
X349045Y219029D01*
X349518Y218833D01*
X349722Y218484D01*
X349929Y217323D01*
X349675Y216942D01*
X349497Y216050D01*
Y214550D01*
X346312D01*
Y202518D01*
X357344D01*
Y214550D01*
X355420D01*
X354894Y215820D01*
X357576Y218502D01*
X357592Y218505D01*
X359000Y218130D01*
X359288Y217434D01*
X360272Y216450D01*
X361559Y215917D01*
X362951D01*
X364238Y216450D01*
X365222Y217434D01*
X365755Y218721D01*
Y219881D01*
X366388Y220567D01*
X366426Y220595D01*
X367788Y220217D01*
X367873Y220013D01*
X368857Y219029D01*
X368539Y217786D01*
X368381Y217629D01*
X367848Y216342D01*
Y214950D01*
X368381Y213663D01*
X369365Y212679D01*
X370652Y212146D01*
X372044D01*
X373331Y212679D01*
X374315Y213663D01*
X374848Y214950D01*
Y216342D01*
X374724Y216642D01*
X377230Y219148D01*
X377595Y219694D01*
X377622Y219827D01*
X378867Y220301D01*
X378946Y220299D01*
X380233Y219766D01*
X381625D01*
X382911Y220299D01*
X383087Y220474D01*
X384356Y219948D01*
Y218098D01*
X357246Y190987D01*
X340180D01*
X339535Y190859D01*
X338989Y190494D01*
X335080Y186584D01*
X334960Y186634D01*
X333568D01*
X332281Y186101D01*
X331297Y185117D01*
X330764Y183830D01*
Y182438D01*
X331297Y181151D01*
X332281Y180167D01*
X333568Y179634D01*
X334960D01*
X336247Y180167D01*
X337231Y181151D01*
X337764Y182438D01*
Y183830D01*
X337566Y184309D01*
X340877Y187620D01*
X357943D01*
X358587Y187749D01*
X359133Y188113D01*
X387230Y216210D01*
X387595Y216756D01*
X387723Y217401D01*
Y227704D01*
X389789D01*
Y125239D01*
X388938Y124388D01*
X388405Y123101D01*
Y121709D01*
X388938Y120422D01*
X389922Y119438D01*
X391208Y118905D01*
X392601D01*
X393087Y119106D01*
X394356Y118258D01*
Y113556D01*
X393781Y112981D01*
X393248Y111694D01*
Y110302D01*
X393781Y109015D01*
X394765Y108031D01*
X396052Y107498D01*
X397444D01*
X398227Y107822D01*
X399497Y107138D01*
Y103871D01*
X399337Y103805D01*
X398353Y102821D01*
X397820Y101534D01*
Y100142D01*
X398353Y98855D01*
X399337Y97871D01*
X400624Y97338D01*
X401009D01*
X401535Y96068D01*
X389208Y83740D01*
X388843Y83194D01*
X388715Y82550D01*
Y72687D01*
X388415Y72563D01*
X387431Y71579D01*
X386898Y70292D01*
Y68900D01*
X387431Y67613D01*
X388415Y66629D01*
X389702Y66096D01*
X391094D01*
X392381Y66629D01*
X393365Y67613D01*
X393898Y68900D01*
Y70292D01*
X393365Y71579D01*
X392381Y72563D01*
X392081Y72687D01*
Y81853D01*
X417230Y107001D01*
X417595Y107548D01*
X417723Y108192D01*
Y214849D01*
X418481Y215252D01*
X418993Y215432D01*
X420182Y214940D01*
X421574D01*
X422861Y215473D01*
X423845Y216457D01*
X424378Y217744D01*
Y218593D01*
X424591Y219256D01*
X425492Y219766D01*
X426146D01*
X427433Y220299D01*
X428213Y221079D01*
X429179Y220859D01*
X429483Y220690D01*
Y217923D01*
X429309Y217851D01*
X428325Y216867D01*
X427792Y215580D01*
Y214188D01*
X428325Y212901D01*
X429309Y211917D01*
X430596Y211384D01*
X431988D01*
X433086Y211839D01*
X433844Y211541D01*
X434356Y211203D01*
Y189087D01*
X431272Y186002D01*
X430972Y186126D01*
X429580D01*
X428293Y185593D01*
X427309Y184609D01*
X426776Y183322D01*
Y181930D01*
X427309Y180643D01*
X428293Y179659D01*
X429580Y179126D01*
X430972D01*
X432259Y179659D01*
X433243Y180643D01*
X433660Y181649D01*
X434949D01*
X435366Y180643D01*
X436350Y179659D01*
X437637Y179126D01*
X439029D01*
X440316Y179659D01*
X441300Y180643D01*
X441833Y181930D01*
Y183322D01*
X441300Y184609D01*
X440316Y185593D01*
X440087Y185688D01*
Y218251D01*
X442230Y220394D01*
X442595Y220940D01*
X442723Y221584D01*
Y227704D01*
X454357D01*
Y224074D01*
X450930Y220646D01*
X450565Y220100D01*
X450437Y219456D01*
Y216736D01*
X446104D01*
Y205704D01*
X458136D01*
Y216736D01*
X453803D01*
Y218759D01*
X457230Y222186D01*
X457595Y222732D01*
X457724Y223376D01*
Y226742D01*
X458994Y226868D01*
X459117Y226249D01*
X459622Y225493D01*
X462915Y222200D01*
Y221300D01*
X463448Y220013D01*
X464432Y219029D01*
X465719Y218496D01*
X466299D01*
Y216736D01*
X462614D01*
Y205704D01*
X474646D01*
Y216736D01*
X470961D01*
Y219530D01*
X470783Y220422D01*
X470278Y221178D01*
X469915Y221541D01*
Y222692D01*
X469382Y223979D01*
X468398Y224963D01*
X467111Y225496D01*
X466211D01*
X465177Y226531D01*
X465662Y227704D01*
X479357D01*
Y223810D01*
X479485Y223166D01*
X479850Y222620D01*
X545847Y156623D01*
Y57156D01*
X543514D01*
Y39624D01*
X551546D01*
Y57156D01*
X549213D01*
Y155189D01*
X550387Y155675D01*
X555847Y150215D01*
Y57156D01*
X553514D01*
Y39624D01*
X561546D01*
Y57156D01*
X559213D01*
Y149217D01*
X560387Y149703D01*
X565847Y144243D01*
Y57156D01*
X563514D01*
Y39624D01*
X571546D01*
Y57156D01*
X569213D01*
Y144940D01*
X569085Y145584D01*
X568720Y146130D01*
X492723Y222127D01*
Y227704D01*
X493556D01*
Y244236D01*
X452723D01*
Y325121D01*
X470682Y343080D01*
X470982Y342956D01*
X472374D01*
X473661Y343489D01*
X474645Y344473D01*
X475178Y345760D01*
Y347152D01*
X474645Y348439D01*
X473661Y349423D01*
X472374Y349956D01*
X470982D01*
X469695Y349423D01*
X468711Y348439D01*
X468704Y348422D01*
X468354Y348280D01*
X467248Y348225D01*
X466542Y348931D01*
X465255Y349463D01*
X463863D01*
X462576Y348931D01*
X461592Y347946D01*
X461059Y346660D01*
Y345267D01*
X461183Y344968D01*
X444850Y328635D01*
X444485Y328089D01*
X444357Y327445D01*
Y244236D01*
X408371D01*
Y246065D01*
X410588Y248282D01*
X411093Y249038D01*
X411271Y249930D01*
Y250190D01*
X411093Y251082D01*
X410588Y251838D01*
X409832Y252343D01*
X408940Y252521D01*
X408048Y252343D01*
X407292Y251838D01*
X406787Y251082D01*
X406784Y251071D01*
X404392Y248678D01*
X403886Y247922D01*
X403709Y247030D01*
Y244236D01*
X358405D01*
Y248241D01*
X358439Y248412D01*
X358261Y249304D01*
X357756Y250060D01*
X357000Y250565D01*
X356108Y250743D01*
X355216Y250565D01*
X354460Y250060D01*
X354426Y250026D01*
X353921Y249270D01*
X353743Y248378D01*
Y244236D01*
X342724D01*
Y246716D01*
X342595Y247360D01*
X342230Y247906D01*
X340434Y249702D01*
X340558Y250002D01*
Y251394D01*
X340025Y252681D01*
X339041Y253665D01*
X337754Y254198D01*
X336362D01*
X335075Y253665D01*
X334091Y252681D01*
X334081Y252658D01*
X332812Y252910D01*
Y331645D01*
X333199Y331805D01*
X334183Y332789D01*
X334716Y334076D01*
Y335468D01*
X334183Y336755D01*
X333199Y337739D01*
X331912Y338272D01*
X330520D01*
X329233Y337739D01*
X328890Y337395D01*
X327620Y337921D01*
Y354525D01*
X327815Y354606D01*
X328800Y355590D01*
X329333Y356877D01*
Y358269D01*
X328800Y359556D01*
X327815Y360540D01*
X326529Y361073D01*
X325136D01*
X323850Y360540D01*
X322865Y359556D01*
X322332Y358269D01*
Y356877D01*
X322865Y355590D01*
X323850Y354606D01*
X324253Y354439D01*
Y271382D01*
X322983Y270811D01*
X322006Y271216D01*
X320614D01*
X319327Y270683D01*
X319215Y270571D01*
X317945Y271097D01*
Y341241D01*
X318467Y341457D01*
X319451Y342441D01*
X319984Y343728D01*
Y345120D01*
X319451Y346407D01*
X318467Y347391D01*
X317180Y347924D01*
X315788D01*
X314501Y347391D01*
X313517Y346407D01*
X312984Y345120D01*
Y343728D01*
X313517Y342441D01*
X314501Y341457D01*
X314579Y341425D01*
Y244236D01*
X312723D01*
Y333840D01*
X312595Y334484D01*
X312230Y335030D01*
X297410Y349850D01*
Y438055D01*
X297709Y438179D01*
X298694Y439164D01*
X299227Y440450D01*
Y441843D01*
X298694Y443129D01*
X297709Y444114D01*
X296423Y444646D01*
X295031D01*
X293744Y444114D01*
X292760Y443129D01*
X292227Y441843D01*
Y440450D01*
X292760Y439164D01*
X293744Y438179D01*
X294044Y438055D01*
Y349153D01*
X294172Y348509D01*
X294536Y347963D01*
X309356Y333143D01*
Y244236D01*
X273524D01*
Y227704D01*
X274357D01*
Y224159D01*
X270900Y220702D01*
X257091D01*
X256967Y221002D01*
X255983Y221986D01*
X254696Y222519D01*
X253304D01*
X252017Y221986D01*
X251033Y221002D01*
X250500Y219715D01*
Y218323D01*
X251033Y217036D01*
X252017Y216052D01*
X253304Y215519D01*
X254696D01*
X255983Y216052D01*
X256751Y216820D01*
X257772Y216138D01*
X257813Y216066D01*
X257612Y215580D01*
Y214188D01*
X258145Y212901D01*
X258950Y212097D01*
X259021Y211737D01*
X259003Y211257D01*
X258886Y210643D01*
X258652Y210486D01*
X251404Y203239D01*
X250134Y203642D01*
X249601Y204929D01*
X248617Y205913D01*
X247330Y206446D01*
X246430D01*
X245272Y207605D01*
X247878Y210210D01*
X240077Y218011D01*
X231569Y209503D01*
X239370Y201702D01*
X241975Y204308D01*
X243134Y203150D01*
Y202250D01*
X243667Y200963D01*
X244651Y199979D01*
X245938Y199446D01*
X246341Y198176D01*
X242127Y193961D01*
X219964D01*
X219320Y193833D01*
X218774Y193468D01*
X205212Y179906D01*
X204912Y180030D01*
X203520D01*
X203034Y179829D01*
X201764Y180678D01*
Y231388D01*
X224413Y254037D01*
X248024D01*
Y253204D01*
X264556D01*
Y258204D01*
Y268204D01*
Y278204D01*
Y288204D01*
Y290212D01*
X256290D01*
Y291228D01*
X264556D01*
Y298204D01*
Y308204D01*
Y319037D01*
X294023D01*
X294082Y318895D01*
X295067Y317910D01*
X296353Y317377D01*
X297746D01*
X299032Y317910D01*
X300017Y318895D01*
X300549Y320181D01*
Y321573D01*
X300017Y322860D01*
X299032Y323844D01*
X297746Y324377D01*
X296353D01*
X295067Y323844D01*
X294082Y322860D01*
X293893Y322403D01*
X264556D01*
Y333204D01*
Y343204D01*
Y353204D01*
Y363698D01*
X265733Y364317D01*
X267020Y363784D01*
X268412D01*
X269699Y364317D01*
X270683Y365301D01*
X271216Y366588D01*
Y367980D01*
X270955Y368610D01*
X271729Y369880D01*
X271738D01*
X273024Y370413D01*
X274009Y371397D01*
X274541Y372684D01*
Y374076D01*
X274009Y375363D01*
X273590Y375781D01*
X273305Y376831D01*
X273634Y377396D01*
X274239Y378001D01*
X274772Y379288D01*
Y380680D01*
X274239Y381967D01*
X274580Y383422D01*
X274747Y383589D01*
X275280Y384876D01*
Y386268D01*
X274747Y387555D01*
X274453Y387849D01*
X273923Y389017D01*
X274166Y389747D01*
X274425Y390371D01*
Y391763D01*
X275598Y392232D01*
X275778D01*
X277065Y392765D01*
X278049Y393749D01*
X278582Y395036D01*
Y396428D01*
X278049Y397715D01*
X277065Y398699D01*
X275778Y399232D01*
X274386D01*
X273099Y398699D01*
X272115Y397715D01*
X271988Y397409D01*
X264556D01*
Y400907D01*
X265729Y401393D01*
X266689Y400434D01*
X267445Y399929D01*
X268337Y399751D01*
X268732D01*
X269624Y399929D01*
X270380Y400434D01*
X270885Y401190D01*
X271063Y402082D01*
X270885Y402974D01*
X270380Y403730D01*
X269624Y404235D01*
X269444Y404271D01*
X266577Y407138D01*
X265821Y407643D01*
X264929Y407821D01*
X264556D01*
Y413204D01*
Y423204D01*
Y433204D01*
Y443204D01*
Y453204D01*
Y463204D01*
Y473236D01*
X248024D01*
Y462403D01*
X242033D01*
X156792Y547645D01*
X156916Y547944D01*
Y549336D01*
X156383Y550623D01*
X155399Y551607D01*
X154112Y552140D01*
D02*
G37*
G36*
X63180Y452318D02*
X61788D01*
X60528Y451796D01*
X14986D01*
X13846Y451570D01*
X12880Y450924D01*
X4498Y442542D01*
X3853Y441576D01*
X3626Y440436D01*
Y311150D01*
X3853Y310010D01*
X4498Y309044D01*
X70943Y242599D01*
Y230225D01*
X69697Y229977D01*
X69510Y230429D01*
X67101Y234034D01*
X64034Y237101D01*
X60429Y239510D01*
X56422Y241170D01*
X52168Y242016D01*
X50508D01*
Y220000D01*
Y197984D01*
X52168D01*
X56422Y198830D01*
X60429Y200490D01*
X64034Y202899D01*
X67101Y205966D01*
X69510Y209571D01*
X69697Y210023D01*
X70943Y209775D01*
Y179527D01*
X70846Y179040D01*
Y131190D01*
X58808D01*
Y113158D01*
X70846D01*
Y89777D01*
X65886Y84817D01*
X64626Y84295D01*
X63641Y83311D01*
X63109Y82024D01*
Y80632D01*
X63641Y79346D01*
X64626Y78361D01*
X65912Y77828D01*
X67305D01*
X68591Y78361D01*
X69576Y79346D01*
X70097Y80605D01*
X75930Y86438D01*
X76576Y87404D01*
X76802Y88544D01*
Y113158D01*
X88840D01*
Y131190D01*
X76802D01*
Y178650D01*
X76899Y179137D01*
Y243833D01*
X76673Y244973D01*
X76027Y245939D01*
X9582Y312384D01*
Y439202D01*
X16220Y445840D01*
X60528D01*
X61788Y445318D01*
X63180D01*
X64467Y445851D01*
X65451Y446835D01*
X65984Y448122D01*
Y449514D01*
X65451Y450801D01*
X64467Y451785D01*
X63180Y452318D01*
D02*
G37*
G36*
X225588Y448738D02*
X220580D01*
Y443230D01*
X225588D01*
Y448738D01*
D02*
G37*
G36*
Y442214D02*
X220580D01*
Y436706D01*
X225588D01*
Y442214D01*
D02*
G37*
G36*
X122356Y440626D02*
X117348D01*
Y436118D01*
X122356D01*
Y440626D01*
D02*
G37*
G36*
X116332D02*
X111324D01*
Y436118D01*
X116332D01*
Y440626D01*
D02*
G37*
G36*
X122356Y435102D02*
X111324D01*
Y430594D01*
X114509D01*
Y427306D01*
X111324D01*
Y422798D01*
X116840D01*
X122356D01*
Y427306D01*
X119171D01*
Y430594D01*
X122356D01*
Y435102D01*
D02*
G37*
G36*
Y421782D02*
X117348D01*
Y417274D01*
X122356D01*
Y421782D01*
D02*
G37*
G36*
X116332D02*
X111324D01*
Y417274D01*
X116332D01*
Y421782D01*
D02*
G37*
G36*
X223556Y407336D02*
X218548D01*
Y401828D01*
X223556D01*
Y407336D01*
D02*
G37*
G36*
X549802D02*
X544794D01*
Y401828D01*
X549802D01*
Y407336D01*
D02*
G37*
G36*
X555826D02*
X550818D01*
Y401320D01*
Y395304D01*
X555826D01*
Y398735D01*
X560578D01*
X561470Y398913D01*
X562226Y399418D01*
X562731Y400174D01*
X562909Y401066D01*
X562731Y401958D01*
X562226Y402714D01*
X561470Y403219D01*
X560578Y403397D01*
X555826D01*
Y407336D01*
D02*
G37*
G36*
X549802Y400812D02*
X544794D01*
Y395304D01*
X549802D01*
Y400812D01*
D02*
G37*
G36*
X223556D02*
X218548D01*
Y395304D01*
X223556D01*
Y400812D01*
D02*
G37*
G36*
X217532Y407336D02*
X212524D01*
Y403397D01*
X206756D01*
X205864Y403219D01*
X205108Y402714D01*
X204603Y401958D01*
X204425Y401066D01*
X204603Y400174D01*
X205108Y399418D01*
X205864Y398913D01*
X206756Y398735D01*
X212524D01*
Y395304D01*
X217532D01*
Y401320D01*
Y407336D01*
D02*
G37*
G36*
X224172Y370760D02*
X219164D01*
Y365252D01*
X224172D01*
Y370760D01*
D02*
G37*
G36*
X23796Y369466D02*
X18288D01*
Y364458D01*
X23796D01*
Y369466D01*
D02*
G37*
G36*
X17272D02*
X11764D01*
Y364458D01*
X17272D01*
Y369466D01*
D02*
G37*
G36*
X224172Y364236D02*
X219164D01*
Y358728D01*
X224172D01*
Y364236D01*
D02*
G37*
G36*
X206502Y371393D02*
X205610Y371215D01*
X204854Y370710D01*
X204349Y369954D01*
X204171Y369062D01*
X204349Y368170D01*
X204854Y367414D01*
X209172Y363096D01*
X209928Y362591D01*
X210820Y362413D01*
X213140D01*
Y358728D01*
X218148D01*
Y364744D01*
Y370760D01*
X213140D01*
Y367075D01*
X211785D01*
X208150Y370710D01*
X207394Y371215D01*
X206502Y371393D01*
D02*
G37*
G36*
X23796Y363442D02*
X17780D01*
X11764D01*
Y358434D01*
X14179D01*
Y352044D01*
X14357Y351152D01*
X14862Y350396D01*
X15618Y349891D01*
X16510Y349713D01*
X17402Y349891D01*
X18158Y350396D01*
X18663Y351152D01*
X18841Y352044D01*
Y358434D01*
X23796D01*
Y363442D01*
D02*
G37*
G36*
X553242Y316412D02*
X548734D01*
Y311404D01*
X553242D01*
Y316412D01*
D02*
G37*
G36*
X558766Y316412D02*
Y316412D01*
X554258D01*
Y310896D01*
Y305380D01*
X558766D01*
Y309819D01*
X559432Y310264D01*
X560527Y311359D01*
X566420D01*
X567312Y311537D01*
X568068Y312042D01*
X568573Y312798D01*
X568751Y313690D01*
X568573Y314582D01*
X568068Y315338D01*
X567312Y315843D01*
X566420Y316021D01*
X559562D01*
X559305Y315970D01*
X558766Y316412D01*
D02*
G37*
G36*
X553242Y310388D02*
X548734D01*
Y305380D01*
X553242D01*
Y310388D01*
D02*
G37*
G36*
X553212Y295576D02*
X548204D01*
Y290068D01*
X553212D01*
Y295576D01*
D02*
G37*
G36*
X489646Y276296D02*
X488254D01*
X486967Y275763D01*
X485983Y274779D01*
X485450Y273492D01*
Y272100D01*
X485983Y270813D01*
X486967Y269829D01*
X488254Y269296D01*
X489646D01*
X490933Y269829D01*
X491917Y270813D01*
X492450Y272100D01*
Y273492D01*
X491917Y274779D01*
X490933Y275763D01*
X489646Y276296D01*
D02*
G37*
G36*
X603184Y274518D02*
X601792D01*
X600505Y273985D01*
X599521Y273001D01*
X598988Y271714D01*
Y270322D01*
X599521Y269035D01*
X600505Y268051D01*
X601792Y267518D01*
X603184D01*
X604471Y268051D01*
X605455Y269035D01*
X605988Y270322D01*
Y271714D01*
X605455Y273001D01*
X604471Y273985D01*
X603184Y274518D01*
D02*
G37*
G36*
X603438Y264612D02*
X602046D01*
X600759Y264079D01*
X599775Y263095D01*
X599242Y261808D01*
Y260416D01*
X599775Y259129D01*
X600759Y258145D01*
X602046Y257612D01*
X603438D01*
X604725Y258145D01*
X605709Y259129D01*
X606242Y260416D01*
Y261808D01*
X605709Y263095D01*
X604725Y264079D01*
X603438Y264612D01*
D02*
G37*
G36*
X49492Y242016D02*
X47832D01*
X43578Y241170D01*
X39571Y239510D01*
X35966Y237101D01*
X32899Y234034D01*
X30490Y230429D01*
X28830Y226422D01*
X27984Y222168D01*
Y220508D01*
X49492D01*
Y242016D01*
D02*
G37*
G36*
X234790Y223298D02*
X230895Y219403D01*
X234436Y215862D01*
X238331Y219757D01*
X234790Y223298D01*
D02*
G37*
G36*
X222504Y229153D02*
X221612Y228975D01*
X220856Y228470D01*
X220351Y227714D01*
X220173Y226822D01*
X220351Y225930D01*
X220856Y225174D01*
X224501Y221528D01*
X222022Y219050D01*
X225564Y215508D01*
X229818Y219762D01*
X234072Y224016D01*
X230530Y227558D01*
X227798Y224825D01*
X224152Y228470D01*
X223396Y228975D01*
X222504Y229153D01*
D02*
G37*
G36*
X230177Y218685D02*
X226282Y214790D01*
X229823Y211249D01*
X233718Y215144D01*
X230177Y218685D01*
D02*
G37*
G36*
X343844Y214550D02*
X338836D01*
Y209042D01*
X343844D01*
Y214550D01*
D02*
G37*
G36*
Y208026D02*
X338836D01*
Y202518D01*
X343844D01*
Y208026D01*
D02*
G37*
G36*
X337820Y214550D02*
X332812D01*
Y210611D01*
X330962D01*
X330070Y210433D01*
X329314Y209928D01*
X328809Y209172D01*
X328631Y208280D01*
X328809Y207388D01*
X329314Y206632D01*
X330070Y206127D01*
X330962Y205949D01*
X332812D01*
Y202518D01*
X337820D01*
Y208534D01*
Y214550D01*
D02*
G37*
G36*
X468122Y203236D02*
X462614D01*
Y200051D01*
X458136D01*
Y203236D01*
X452628D01*
Y197720D01*
Y192204D01*
X458136D01*
Y195389D01*
X462614D01*
Y192204D01*
X466299D01*
Y189738D01*
X466477Y188846D01*
X466982Y188090D01*
X467738Y187585D01*
X468630Y187407D01*
X469522Y187585D01*
X470278Y188090D01*
X470783Y188846D01*
X470961Y189738D01*
Y192204D01*
X474646D01*
Y197212D01*
X468630D01*
Y197720D01*
X468122D01*
Y203236D01*
D02*
G37*
G36*
X474646D02*
X469138D01*
Y198228D01*
X474646D01*
Y203236D01*
D02*
G37*
G36*
X451612D02*
X446104D01*
Y198228D01*
X451612D01*
Y203236D01*
D02*
G37*
G36*
X49492Y219492D02*
X27984D01*
Y217832D01*
X28830Y213578D01*
X30490Y209571D01*
X32899Y205966D01*
X35966Y202899D01*
X39571Y200490D01*
X43578Y198830D01*
X47832Y197984D01*
X49492D01*
Y219492D01*
D02*
G37*
G36*
X451612Y197212D02*
X446104D01*
Y192204D01*
X451612D01*
Y197212D01*
D02*
G37*
G36*
X447482Y186888D02*
X446090D01*
X444803Y186355D01*
X443819Y185371D01*
X443286Y184084D01*
Y182692D01*
X443819Y181405D01*
X444803Y180421D01*
X446090Y179888D01*
X447482D01*
X448769Y180421D01*
X449753Y181405D01*
X450286Y182692D01*
Y184084D01*
X449753Y185371D01*
X448769Y186355D01*
X447482Y186888D01*
D02*
G37*
G36*
X665585Y182506D02*
X663343D01*
X661177Y181926D01*
X659235Y180805D01*
X657650Y179219D01*
X656528Y177277D01*
X655948Y175111D01*
Y172869D01*
X656528Y170703D01*
X657650Y168761D01*
X659235Y167176D01*
X661177Y166054D01*
X663343Y165474D01*
X665585D01*
X667751Y166054D01*
X669693Y167176D01*
X671279Y168761D01*
X672400Y170703D01*
X672980Y172869D01*
Y175111D01*
X672400Y177277D01*
X671279Y179219D01*
X669693Y180805D01*
X667751Y181926D01*
X665585Y182506D01*
D02*
G37*
G36*
Y157106D02*
X663343D01*
X661177Y156526D01*
X659235Y155405D01*
X657650Y153819D01*
X656528Y151877D01*
X655948Y149711D01*
Y147469D01*
X656528Y145303D01*
X657650Y143361D01*
X659235Y141776D01*
X661177Y140654D01*
X663343Y140074D01*
X665585D01*
X667751Y140654D01*
X669693Y141776D01*
X671279Y143361D01*
X672400Y145303D01*
X672980Y147469D01*
Y149711D01*
X672400Y151877D01*
X671279Y153819D01*
X669693Y155405D01*
X667751Y156526D01*
X665585Y157106D01*
D02*
G37*
G36*
X602168Y152016D02*
X600508D01*
Y130508D01*
X622016D01*
Y132168D01*
X621170Y136422D01*
X619510Y140428D01*
X617101Y144034D01*
X614034Y147101D01*
X610429Y149510D01*
X606422Y151170D01*
X602168Y152016D01*
D02*
G37*
G36*
X599492D02*
X597832D01*
X593578Y151170D01*
X589571Y149510D01*
X585966Y147101D01*
X582899Y144034D01*
X580490Y140428D01*
X578830Y136422D01*
X577984Y132168D01*
Y130508D01*
X599492D01*
Y152016D01*
D02*
G37*
G36*
X127882Y131444D02*
X113374D01*
Y122936D01*
X127882D01*
Y131444D01*
D02*
G37*
G36*
X112358D02*
X97850D01*
Y122936D01*
X112358D01*
Y131444D01*
D02*
G37*
G36*
X45840Y131190D02*
X31332D01*
Y122682D01*
X45840D01*
Y131190D01*
D02*
G37*
G36*
X30316D02*
X15808D01*
Y122682D01*
X30316D01*
Y131190D01*
D02*
G37*
G36*
X665585Y131706D02*
X663343D01*
X661177Y131126D01*
X659235Y130005D01*
X657650Y128419D01*
X656528Y126477D01*
X655948Y124311D01*
Y122069D01*
X656528Y119903D01*
X657650Y117961D01*
X659235Y116376D01*
X661177Y115254D01*
X663343Y114674D01*
X665585D01*
X667751Y115254D01*
X669693Y116376D01*
X671279Y117961D01*
X672400Y119903D01*
X672980Y122069D01*
Y124311D01*
X672400Y126477D01*
X671279Y128419D01*
X669693Y130005D01*
X667751Y131126D01*
X665585Y131706D01*
D02*
G37*
G36*
X622016Y129492D02*
X600508D01*
Y107984D01*
X602168D01*
X606422Y108830D01*
X610429Y110490D01*
X614034Y112899D01*
X617101Y115966D01*
X619510Y119572D01*
X621170Y123578D01*
X622016Y127832D01*
Y129492D01*
D02*
G37*
G36*
X599492D02*
X577984D01*
Y127832D01*
X578830Y123578D01*
X580490Y119572D01*
X582899Y115966D01*
X585966Y112899D01*
X589571Y110490D01*
X593578Y108830D01*
X597832Y107984D01*
X599492D01*
Y129492D01*
D02*
G37*
G36*
X343116Y106542D02*
X341723D01*
X340437Y106009D01*
X339452Y105024D01*
X338919Y103738D01*
Y102346D01*
X339452Y101059D01*
X340437Y100075D01*
X341723Y99542D01*
X343116D01*
X344402Y100075D01*
X345387Y101059D01*
X345919Y102346D01*
Y103738D01*
X345387Y105024D01*
X344402Y106009D01*
X343116Y106542D01*
D02*
G37*
G36*
X665585Y106306D02*
X664972D01*
Y98298D01*
X672980D01*
Y98911D01*
X672400Y101077D01*
X671279Y103019D01*
X669693Y104605D01*
X667751Y105726D01*
X665585Y106306D01*
D02*
G37*
G36*
X663956D02*
X663343D01*
X661177Y105726D01*
X659235Y104605D01*
X657650Y103019D01*
X656528Y101077D01*
X655948Y98911D01*
Y98298D01*
X663956D01*
Y106306D01*
D02*
G37*
G36*
X672980Y97282D02*
X664972D01*
Y89274D01*
X665585D01*
X667751Y89854D01*
X669693Y90976D01*
X671279Y92561D01*
X672400Y94503D01*
X672980Y96669D01*
Y97282D01*
D02*
G37*
G36*
X663956D02*
X655948D01*
Y96669D01*
X656528Y94503D01*
X657650Y92561D01*
X659235Y90976D01*
X661177Y89854D01*
X663343Y89274D01*
X663956D01*
Y97282D01*
D02*
G37*
G36*
X127882Y121920D02*
X112866D01*
X97850D01*
Y113412D01*
X110535D01*
Y87540D01*
X110713Y86648D01*
X111218Y85892D01*
X115446Y81664D01*
X116202Y81159D01*
X117094Y80981D01*
X117986Y81159D01*
X118742Y81664D01*
X119247Y82420D01*
X119425Y83312D01*
X119247Y84204D01*
X118742Y84960D01*
X115197Y88505D01*
Y113412D01*
X127882D01*
Y121920D01*
D02*
G37*
G36*
X45840Y121666D02*
X30824D01*
X15808D01*
Y113158D01*
X28493D01*
Y87540D01*
X28671Y86648D01*
X29176Y85892D01*
X33404Y81664D01*
X34160Y81159D01*
X35052Y80981D01*
X35944Y81159D01*
X36700Y81664D01*
X37205Y82420D01*
X37383Y83312D01*
X37205Y84204D01*
X36700Y84960D01*
X33155Y88505D01*
Y113158D01*
X45840D01*
Y121666D01*
D02*
G37*
G36*
X170882Y131444D02*
X140850D01*
Y113412D01*
X153535D01*
Y87504D01*
X151827Y85796D01*
X151196D01*
X149909Y85263D01*
X148925Y84279D01*
X148392Y82992D01*
Y81600D01*
X148925Y80313D01*
X149909Y79329D01*
X151196Y78796D01*
X152588D01*
X153875Y79329D01*
X154859Y80313D01*
X155392Y81600D01*
Y82768D01*
X157514Y84890D01*
X158019Y85646D01*
X158197Y86538D01*
Y113412D01*
X170882D01*
Y131444D01*
D02*
G37*
G36*
X310830Y74874D02*
X309438D01*
X308151Y74341D01*
X307167Y73357D01*
X306959Y72854D01*
X305584D01*
X305481Y73103D01*
X304497Y74087D01*
X303210Y74620D01*
X301818D01*
X300531Y74087D01*
X299547Y73103D01*
X299032Y71860D01*
X298861Y71796D01*
X297744Y71651D01*
X297353Y72595D01*
X296369Y73579D01*
X295082Y74112D01*
X293690D01*
X292403Y73579D01*
X291419Y72595D01*
X291189Y72040D01*
X291156Y72034D01*
X289867Y72167D01*
X289479Y73103D01*
X288495Y74087D01*
X287208Y74620D01*
X285816D01*
X284529Y74087D01*
X283545Y73103D01*
X283012Y71816D01*
Y70424D01*
X283545Y69137D01*
X284529Y68153D01*
X285816Y67620D01*
X287208D01*
X288495Y68153D01*
X289479Y69137D01*
X289709Y69692D01*
X289742Y69698D01*
X291031Y69566D01*
X291419Y68629D01*
X292403Y67645D01*
X293690Y67112D01*
X295082D01*
X296369Y67645D01*
X297353Y68629D01*
X297868Y69872D01*
X298039Y69936D01*
X299156Y70081D01*
X299547Y69137D01*
X300531Y68153D01*
X301818Y67620D01*
X303210D01*
X304497Y68153D01*
X305481Y69137D01*
X305689Y69640D01*
X307064D01*
X307167Y69391D01*
X308151Y68407D01*
X309438Y67874D01*
X310830D01*
X312117Y68407D01*
X313101Y69391D01*
X313634Y70678D01*
Y72070D01*
X313101Y73357D01*
X312117Y74341D01*
X310830Y74874D01*
D02*
G37*
G36*
X319212Y74620D02*
X317820D01*
X316533Y74087D01*
X315549Y73103D01*
X315016Y71816D01*
Y70424D01*
X315549Y69137D01*
X316533Y68153D01*
X317820Y67620D01*
X319212D01*
X320499Y68153D01*
X321483Y69137D01*
X321892Y70125D01*
X322734Y70155D01*
X323189Y70060D01*
X323677Y68883D01*
X324661Y67899D01*
X325948Y67366D01*
X327340D01*
X328627Y67899D01*
X329611Y68883D01*
X329714Y69132D01*
X331089D01*
X331297Y68629D01*
X332281Y67645D01*
X333568Y67112D01*
X334960D01*
X336247Y67645D01*
X337231Y68629D01*
X337764Y69916D01*
Y71308D01*
X337231Y72595D01*
X336247Y73579D01*
X334960Y74112D01*
X333568D01*
X332281Y73579D01*
X331297Y72595D01*
X331194Y72346D01*
X329819D01*
X329611Y72849D01*
X328627Y73833D01*
X327340Y74366D01*
X325948D01*
X324661Y73833D01*
X323677Y72849D01*
X323268Y71861D01*
X322426Y71831D01*
X321971Y71926D01*
X321483Y73103D01*
X320499Y74087D01*
X319212Y74620D01*
D02*
G37*
G36*
X439100Y72842D02*
X437708D01*
X436421Y72309D01*
X435437Y71325D01*
X434904Y70038D01*
Y68646D01*
X435437Y67359D01*
X436421Y66375D01*
X437708Y65842D01*
X439100D01*
X440387Y66375D01*
X441371Y67359D01*
X441904Y68646D01*
Y70038D01*
X441371Y71325D01*
X440387Y72309D01*
X439100Y72842D01*
D02*
G37*
G36*
X478978Y72334D02*
X477586D01*
X476299Y71801D01*
X475315Y70817D01*
X474782Y69530D01*
Y68138D01*
X475315Y66851D01*
X476299Y65867D01*
X477586Y65334D01*
X478978D01*
X480265Y65867D01*
X481249Y66851D01*
X481782Y68138D01*
Y69530D01*
X481249Y70817D01*
X480265Y71801D01*
X478978Y72334D01*
D02*
G37*
G36*
X454848D02*
X453456D01*
X452169Y71801D01*
X451185Y70817D01*
X450652Y69530D01*
Y68138D01*
X451185Y66851D01*
X452169Y65867D01*
X453456Y65334D01*
X454848D01*
X456135Y65867D01*
X457119Y66851D01*
X457528Y67839D01*
X458370Y67869D01*
X458825Y67774D01*
X459313Y66597D01*
X460297Y65613D01*
X461584Y65080D01*
X462976D01*
X464263Y65613D01*
X465247Y66597D01*
X465780Y67884D01*
Y69276D01*
X465247Y70563D01*
X464263Y71547D01*
X462976Y72080D01*
X461584D01*
X460297Y71547D01*
X459313Y70563D01*
X458904Y69575D01*
X458062Y69545D01*
X457607Y69640D01*
X457119Y70817D01*
X456135Y71801D01*
X454848Y72334D01*
D02*
G37*
G36*
X665585Y80906D02*
X663343D01*
X661177Y80326D01*
X659235Y79205D01*
X657650Y77619D01*
X656528Y75677D01*
X655948Y73511D01*
Y71269D01*
X656528Y69103D01*
X657650Y67161D01*
X659235Y65575D01*
X661177Y64454D01*
X663343Y63874D01*
X665585D01*
X667751Y64454D01*
X669693Y65575D01*
X671279Y67161D01*
X672400Y69103D01*
X672980Y71269D01*
Y73511D01*
X672400Y75677D01*
X671279Y77619D01*
X669693Y79205D01*
X667751Y80326D01*
X665585Y80906D01*
D02*
G37*
G36*
X222168Y62016D02*
X220508D01*
Y40508D01*
X242016D01*
Y42168D01*
X241170Y46422D01*
X239510Y50429D01*
X237101Y54034D01*
X234034Y57101D01*
X230429Y59510D01*
X226422Y61170D01*
X222168Y62016D01*
D02*
G37*
G36*
X219492D02*
X217832D01*
X213578Y61170D01*
X209571Y59510D01*
X205966Y57101D01*
X202899Y54034D01*
X200490Y50429D01*
X198830Y46422D01*
X197984Y42168D01*
Y40508D01*
X219492D01*
Y62016D01*
D02*
G37*
G36*
X123444Y52141D02*
Y39116D01*
X132786D01*
Y42358D01*
X132451Y44907D01*
X131467Y47283D01*
X129901Y49323D01*
X127861Y50889D01*
X125485Y51873D01*
X123444Y52141D01*
D02*
G37*
G36*
X122428D02*
X120387Y51873D01*
X118011Y50889D01*
X115971Y49323D01*
X114405Y47283D01*
X113421Y44907D01*
X113086Y42358D01*
Y39116D01*
X122428D01*
Y52141D01*
D02*
G37*
G36*
X41402Y51887D02*
Y38862D01*
X50744D01*
Y42104D01*
X50409Y44654D01*
X49425Y47029D01*
X47859Y49069D01*
X45819Y50635D01*
X43443Y51619D01*
X41402Y51887D01*
D02*
G37*
G36*
X40386D02*
X38345Y51619D01*
X35969Y50635D01*
X33929Y49069D01*
X32363Y47029D01*
X31379Y44654D01*
X31044Y42104D01*
Y38862D01*
X40386D01*
Y51887D01*
D02*
G37*
G36*
X672980Y55506D02*
X655948D01*
Y38474D01*
X672980D01*
Y55506D01*
D02*
G37*
G36*
X486852Y45410D02*
X485460D01*
X484173Y44877D01*
X483189Y43893D01*
X482656Y42606D01*
Y41214D01*
X483189Y39927D01*
X484173Y38943D01*
X485460Y38410D01*
X486852D01*
X488139Y38943D01*
X489123Y39927D01*
X489656Y41214D01*
Y42606D01*
X489123Y43893D01*
X488139Y44877D01*
X486852Y45410D01*
D02*
G37*
G36*
X423098D02*
X421706D01*
X420419Y44877D01*
X419435Y43893D01*
X418902Y42606D01*
Y41214D01*
X419435Y39927D01*
X420419Y38943D01*
X421706Y38410D01*
X423098D01*
X424385Y38943D01*
X425369Y39927D01*
X425902Y41214D01*
Y42606D01*
X425369Y43893D01*
X424385Y44877D01*
X423098Y45410D01*
D02*
G37*
G36*
X471104Y44648D02*
X469712D01*
X468425Y44115D01*
X467441Y43131D01*
X466908Y41844D01*
Y40452D01*
X467441Y39165D01*
X468425Y38181D01*
X469712Y37648D01*
X471104D01*
X472391Y38181D01*
X473375Y39165D01*
X473908Y40452D01*
Y41844D01*
X473375Y43131D01*
X472391Y44115D01*
X471104Y44648D01*
D02*
G37*
G36*
X382966Y43632D02*
X381574D01*
X380287Y43099D01*
X379303Y42115D01*
X378770Y40828D01*
Y39436D01*
X379303Y38149D01*
X380287Y37165D01*
X381574Y36632D01*
X382966D01*
X384253Y37165D01*
X385237Y38149D01*
X385770Y39436D01*
Y40828D01*
X385237Y42115D01*
X384253Y43099D01*
X382966Y43632D01*
D02*
G37*
G36*
X132786Y38100D02*
X123444D01*
Y25075D01*
X125485Y25343D01*
X127861Y26327D01*
X129901Y27893D01*
X131467Y29933D01*
X132451Y32308D01*
X132786Y34858D01*
Y38100D01*
D02*
G37*
G36*
X122428D02*
X113086D01*
Y34858D01*
X113421Y32308D01*
X114405Y29933D01*
X115971Y27893D01*
X118011Y26327D01*
X120387Y25343D01*
X122428Y25075D01*
Y38100D01*
D02*
G37*
G36*
X148336Y52208D02*
X145787Y51873D01*
X143411Y50889D01*
X141371Y49323D01*
X139805Y47283D01*
X138821Y44907D01*
X138486Y42358D01*
Y34858D01*
X138821Y32308D01*
X139805Y29933D01*
X141371Y27893D01*
X143411Y26327D01*
X145787Y25343D01*
X148336Y25008D01*
X150885Y25343D01*
X153261Y26327D01*
X155301Y27893D01*
X156867Y29933D01*
X157851Y32308D01*
X158186Y34858D01*
Y42358D01*
X157851Y44907D01*
X156867Y47283D01*
X155301Y49323D01*
X153261Y50889D01*
X150885Y51873D01*
X148336Y52208D01*
D02*
G37*
G36*
X50744Y37846D02*
X41402D01*
Y24821D01*
X43443Y25089D01*
X45819Y26073D01*
X47859Y27639D01*
X49425Y29679D01*
X50409Y32055D01*
X50744Y34604D01*
Y37846D01*
D02*
G37*
G36*
X40386D02*
X31044D01*
Y34604D01*
X31379Y32055D01*
X32363Y29679D01*
X33929Y27639D01*
X35969Y26073D01*
X38345Y25089D01*
X40386Y24821D01*
Y37846D01*
D02*
G37*
G36*
X66294Y51954D02*
X63745Y51619D01*
X61369Y50635D01*
X59329Y49069D01*
X57763Y47029D01*
X56779Y44654D01*
X56444Y42104D01*
Y34604D01*
X56779Y32055D01*
X57763Y29679D01*
X59329Y27639D01*
X61369Y26073D01*
X63745Y25089D01*
X66294Y24754D01*
X68843Y25089D01*
X71219Y26073D01*
X73259Y27639D01*
X74825Y29679D01*
X75809Y32055D01*
X76144Y34604D01*
Y42104D01*
X75809Y44654D01*
X74825Y47029D01*
X73259Y49069D01*
X71219Y50635D01*
X68843Y51619D01*
X66294Y51954D01*
D02*
G37*
G36*
X541546Y33156D02*
X535038D01*
Y23648D01*
X541546D01*
Y33156D01*
D02*
G37*
G36*
X580022D02*
X573514D01*
Y23648D01*
X580022D01*
Y33156D01*
D02*
G37*
G36*
X242016Y39492D02*
X220508D01*
Y17984D01*
X222168D01*
X226422Y18830D01*
X230429Y20490D01*
X234034Y22899D01*
X237101Y25966D01*
X239510Y29571D01*
X241170Y33578D01*
X242016Y37832D01*
Y39492D01*
D02*
G37*
G36*
X219492D02*
X197984D01*
Y37832D01*
X198830Y33578D01*
X200490Y29571D01*
X202899Y25966D01*
X205966Y22899D01*
X209571Y20490D01*
X213578Y18830D01*
X217832Y17984D01*
X219492D01*
Y39492D01*
D02*
G37*
G36*
X587546Y33156D02*
X581038D01*
Y23140D01*
Y13124D01*
X587546D01*
Y21037D01*
X594868D01*
X595760Y21215D01*
X596516Y21720D01*
X597021Y22476D01*
X597199Y23368D01*
X597021Y24260D01*
X596516Y25016D01*
X595760Y25521D01*
X594868Y25699D01*
X587546D01*
Y33156D01*
D02*
G37*
G36*
X580022Y22632D02*
X573514D01*
Y13124D01*
X580022D01*
Y22632D01*
D02*
G37*
G36*
X541546D02*
X535038D01*
Y13124D01*
X541546D01*
Y22632D01*
D02*
G37*
G36*
X534022Y33156D02*
X527514D01*
Y25445D01*
X521208D01*
X520316Y25267D01*
X519560Y24762D01*
X519055Y24006D01*
X518877Y23114D01*
X519055Y22222D01*
X519560Y21466D01*
X520316Y20961D01*
X521208Y20783D01*
X527514D01*
Y13124D01*
X534022D01*
Y23140D01*
Y33156D01*
D02*
G37*
%LPD*%
G36*
X329357Y548837D02*
Y508567D01*
X328139Y507989D01*
X326852Y508521D01*
X325460D01*
X324174Y507989D01*
X323994Y507809D01*
X322724Y508335D01*
Y543863D01*
X328184Y549323D01*
X329357Y548837D01*
D02*
G37*
G36*
X449357Y530407D02*
Y498736D01*
X437723D01*
Y520433D01*
X448183Y530893D01*
X449357Y530407D01*
D02*
G37*
G36*
X466524Y564875D02*
X466400Y564576D01*
Y563184D01*
X466933Y561897D01*
X467917Y560913D01*
X469204Y560380D01*
X470596D01*
X471479Y560746D01*
X472198Y559669D01*
X434850Y522320D01*
X434485Y521774D01*
X434356Y521130D01*
Y498736D01*
X432723D01*
Y510204D01*
X432595Y510849D01*
X432230Y511395D01*
X432199Y511426D01*
X432540Y512247D01*
Y513639D01*
X432007Y514926D01*
X431022Y515910D01*
X429736Y516443D01*
X428344D01*
X427057Y515910D01*
X426073Y514926D01*
X425540Y513639D01*
Y512247D01*
X426073Y510961D01*
X427057Y509976D01*
X428344Y509443D01*
X429357D01*
Y498736D01*
X421283D01*
X420797Y499909D01*
X421764Y500877D01*
X422269Y501633D01*
X422447Y502525D01*
Y502920D01*
X422269Y503812D01*
X421764Y504568D01*
X421008Y505073D01*
X420116Y505251D01*
X419224Y505073D01*
X418468Y504568D01*
X417963Y503812D01*
X417927Y503632D01*
X416549Y502254D01*
X415206Y502707D01*
X415112Y503397D01*
X415668Y503953D01*
X416173Y504709D01*
X416351Y505601D01*
Y510104D01*
X420036D01*
Y521136D01*
X408004D01*
X407723Y522290D01*
Y522450D01*
X408004Y523604D01*
X408993Y523604D01*
X413512D01*
Y529120D01*
X414020D01*
Y529628D01*
X420036D01*
Y534636D01*
X416351D01*
Y536464D01*
X419224Y539338D01*
X419729Y540094D01*
X419907Y540986D01*
Y541274D01*
X419729Y542166D01*
X419224Y542922D01*
X418468Y543427D01*
X417576Y543605D01*
X416684Y543427D01*
X415928Y542922D01*
X415423Y542166D01*
X415413Y542119D01*
X412372Y539078D01*
X411867Y538322D01*
X411689Y537430D01*
Y535534D01*
X410791Y534636D01*
X408004Y534636D01*
X406734Y534431D01*
X383614Y557551D01*
X383738Y557850D01*
Y559242D01*
X383205Y560529D01*
X382221Y561513D01*
X380934Y562046D01*
X379542D01*
X378255Y561513D01*
X377271Y560529D01*
X376738Y559242D01*
Y557850D01*
X377271Y556563D01*
X378255Y555579D01*
X379542Y555046D01*
X380934D01*
X381233Y555170D01*
X404356Y532047D01*
Y498736D01*
X382724D01*
Y541742D01*
X382595Y542386D01*
X382230Y542932D01*
X358468Y566694D01*
X358592Y566994D01*
Y568386D01*
X358391Y568872D01*
X359240Y570142D01*
X461258D01*
X466524Y564875D01*
D02*
G37*
G36*
X351592Y567125D02*
Y566994D01*
X352125Y565707D01*
X353109Y564723D01*
X354396Y564190D01*
X355788D01*
X356087Y564314D01*
X379357Y541045D01*
Y498736D01*
X368371D01*
Y500457D01*
X370202Y502288D01*
X370707Y503044D01*
X370885Y503936D01*
X370707Y504828D01*
X370202Y505584D01*
X369446Y506089D01*
X368554Y506267D01*
X367662Y506089D01*
X366906Y505584D01*
X365810Y504488D01*
X365336Y504542D01*
X364428Y504902D01*
X364007Y505918D01*
X363371Y506554D01*
Y512244D01*
X366696D01*
Y523276D01*
X354664D01*
Y512244D01*
X358709D01*
Y506554D01*
X358073Y505918D01*
X357540Y504631D01*
Y503239D01*
X358073Y501952D01*
X358709Y501316D01*
Y498736D01*
X332724D01*
Y550053D01*
X350322Y567651D01*
X351592Y567125D01*
D02*
G37*
G36*
X469357Y479936D02*
X469485Y479292D01*
X469850Y478746D01*
X472774Y475822D01*
X473320Y475457D01*
X473964Y475329D01*
X557849D01*
X638540Y394637D01*
X638542Y394589D01*
X637652Y394157D01*
X637171Y394163D01*
X594026Y437308D01*
X593480Y437673D01*
X592836Y437801D01*
X536129D01*
X530504Y443427D01*
X531147Y444580D01*
X541818D01*
Y456612D01*
X530786D01*
Y452279D01*
X528255D01*
X523762Y456773D01*
X523697Y457438D01*
X523817Y458309D01*
X523872Y458346D01*
X524377Y459102D01*
X524555Y459994D01*
X524377Y460886D01*
X523918Y461574D01*
X523997Y461950D01*
X524359Y462844D01*
X524698D01*
X525985Y463377D01*
X526969Y464361D01*
X527141Y464775D01*
X530786D01*
Y461090D01*
X541818D01*
Y473122D01*
X530786D01*
Y469437D01*
X525681D01*
X524698Y469844D01*
X523306D01*
X522019Y469311D01*
X521035Y468327D01*
X520921Y468051D01*
X519056D01*
Y473236D01*
X502524D01*
Y468204D01*
Y461228D01*
X510790D01*
Y460212D01*
X502524D01*
Y458204D01*
Y448204D01*
Y437404D01*
X492839D01*
X462354Y467888D01*
X462478Y468188D01*
Y469580D01*
X461945Y470867D01*
X460961Y471851D01*
X459674Y472384D01*
X458282D01*
X456995Y471851D01*
X456011Y470867D01*
X455478Y469580D01*
Y468188D01*
X456011Y466901D01*
X456995Y465917D01*
X458282Y465384D01*
X459674D01*
X459973Y465508D01*
X490951Y434530D01*
X491498Y434165D01*
X492142Y434037D01*
X502524D01*
Y432403D01*
X453912D01*
X453722Y432862D01*
X452738Y433846D01*
X451451Y434379D01*
X450059D01*
X448994Y433938D01*
X448173Y434273D01*
X447724Y434593D01*
Y482204D01*
X469357D01*
Y479936D01*
D02*
G37*
G36*
X464727Y427767D02*
X464139Y427179D01*
X463606Y425892D01*
Y424500D01*
X464139Y423213D01*
X465123Y422229D01*
X466410Y421696D01*
X467802D01*
X468102Y421820D01*
X470392Y419530D01*
X470938Y419165D01*
X471582Y419037D01*
X488237D01*
X488763Y417767D01*
X488621Y417625D01*
X488088Y416338D01*
Y414946D01*
X488621Y413660D01*
X489606Y412675D01*
X490892Y412142D01*
X492284D01*
X492584Y412266D01*
X495320Y409530D01*
X495866Y409165D01*
X496510Y409037D01*
X502524D01*
Y403204D01*
Y396228D01*
X510790D01*
Y395212D01*
X502524D01*
Y392403D01*
X488002D01*
X487358Y392275D01*
X486812Y391910D01*
X458509Y363607D01*
X457432Y364327D01*
X457813Y365247D01*
Y366639D01*
X457280Y367925D01*
X456296Y368910D01*
X455009Y369443D01*
X453617D01*
X453318Y369319D01*
X447724Y374913D01*
Y427165D01*
X448173Y427485D01*
X448994Y427820D01*
X450059Y427379D01*
X451451D01*
X452738Y427912D01*
X453722Y428896D01*
X453780Y429037D01*
X464201D01*
X464727Y427767D01*
D02*
G37*
G36*
X349478Y462781D02*
X349299Y462707D01*
X348315Y461723D01*
X347782Y460436D01*
Y459044D01*
X348315Y457757D01*
X349299Y456773D01*
X350586Y456240D01*
X351978D01*
X353087Y456699D01*
X353823Y456413D01*
X354357Y456069D01*
Y371215D01*
X351480Y368339D01*
X350999Y368395D01*
X350100Y368754D01*
X349677Y369775D01*
X348693Y370759D01*
X347406Y371292D01*
X346014D01*
X345714Y371168D01*
X312723Y404160D01*
Y482204D01*
X334357D01*
Y430971D01*
X323325Y419939D01*
X323025Y420063D01*
X321633D01*
X320346Y419530D01*
X319362Y418546D01*
X318829Y417259D01*
Y415867D01*
X319362Y414580D01*
X320346Y413596D01*
X321633Y413063D01*
X323025D01*
X324312Y413596D01*
X325296Y414580D01*
X325829Y415867D01*
Y417259D01*
X325705Y417559D01*
X337230Y429084D01*
X337595Y429630D01*
X337723Y430274D01*
Y482204D01*
X349478D01*
Y462781D01*
D02*
G37*
G36*
X502524Y362256D02*
X474200D01*
X474137Y362409D01*
X473153Y363393D01*
X472084Y363836D01*
X471742Y364645D01*
X471647Y365196D01*
X475488Y369037D01*
X502524D01*
Y362256D01*
D02*
G37*
G36*
X309356Y403462D02*
X309485Y402818D01*
X309849Y402272D01*
X343334Y368787D01*
X343210Y368488D01*
Y367096D01*
X343743Y365809D01*
X344727Y364825D01*
X345748Y364402D01*
X346107Y363503D01*
X346163Y363022D01*
X343567Y360426D01*
X343088Y360624D01*
X341696D01*
X340409Y360091D01*
X339425Y359107D01*
X339224Y358621D01*
X337726Y358323D01*
X307739Y388310D01*
Y482204D01*
X309356D01*
Y403462D01*
D02*
G37*
G36*
X444357Y374216D02*
X444485Y373572D01*
X444850Y373025D01*
X450937Y366938D01*
X450813Y366639D01*
Y365247D01*
X451346Y363960D01*
X452330Y362976D01*
X453617Y362443D01*
X455009D01*
X455929Y362824D01*
X456649Y361747D01*
X446933Y352032D01*
X445856Y352751D01*
X446222Y353634D01*
Y355026D01*
X445689Y356313D01*
X444705Y357297D01*
X443418Y357830D01*
X442723D01*
Y482204D01*
X444357D01*
Y374216D01*
D02*
G37*
%LPC*%
G36*
X420036Y528612D02*
X414528D01*
Y523604D01*
X420036D01*
Y528612D01*
D02*
G37*
G36*
X360172Y541065D02*
X359280Y540887D01*
X358524Y540382D01*
X358019Y539626D01*
X357841Y538734D01*
Y536776D01*
X354664D01*
Y531768D01*
X366696D01*
Y536776D01*
X362503D01*
Y538734D01*
X362325Y539626D01*
X361820Y540382D01*
X361064Y540887D01*
X360172Y541065D01*
D02*
G37*
G36*
X366696Y530752D02*
X361188D01*
Y525744D01*
X366696D01*
Y530752D01*
D02*
G37*
G36*
X360172D02*
X354664D01*
Y525744D01*
X360172D01*
Y530752D01*
D02*
G37*
G36*
X555318Y473122D02*
X550310D01*
Y467614D01*
X555318D01*
Y473122D01*
D02*
G37*
G36*
X549294D02*
X544286D01*
Y467614D01*
X549294D01*
Y473122D01*
D02*
G37*
G36*
X555318Y466598D02*
X549802D01*
X544286D01*
Y461090D01*
X547471D01*
Y456612D01*
X544286D01*
Y451104D01*
X549802D01*
X555318D01*
Y456612D01*
X552133D01*
Y461090D01*
X555318D01*
Y466598D01*
D02*
G37*
G36*
Y450088D02*
X550310D01*
Y444580D01*
X555318D01*
Y450088D01*
D02*
G37*
G36*
X549294D02*
X544286D01*
Y444580D01*
X549294D01*
Y450088D01*
D02*
G37*
%LPD*%
G36*
X235494Y454530D02*
X236040Y454165D01*
X236684Y454037D01*
X248024D01*
Y452403D01*
X234478D01*
X182596Y504286D01*
X183162Y505516D01*
X184084D01*
X184384Y505640D01*
X235494Y454530D01*
D02*
G37*
G36*
X107067Y391187D02*
X106581Y390013D01*
X87086D01*
Y394596D01*
X80554D01*
Y382064D01*
X87086D01*
Y386647D01*
X171038D01*
X193318Y364367D01*
X193194Y364068D01*
Y362855D01*
X192712Y362494D01*
X192021Y362233D01*
X178413Y375840D01*
X177867Y376205D01*
X177223Y376333D01*
X120650D01*
X120006Y376205D01*
X119460Y375840D01*
X117936Y374316D01*
X95021Y351402D01*
X93751Y351928D01*
Y360032D01*
X106447Y372727D01*
X106746Y372603D01*
X108138D01*
X109425Y373136D01*
X110409Y374120D01*
X110942Y375407D01*
Y376799D01*
X110409Y378086D01*
X109425Y379070D01*
X108138Y379603D01*
X106746D01*
X105459Y379070D01*
X104475Y378086D01*
X103942Y376799D01*
Y375407D01*
X104066Y375108D01*
X90878Y361919D01*
X90513Y361373D01*
X90385Y360729D01*
Y346511D01*
X87209Y343336D01*
X86036Y343822D01*
Y359322D01*
X64770D01*
X43504D01*
Y341564D01*
X45542D01*
X46068Y340294D01*
X44784Y339010D01*
X44419Y338464D01*
X44291Y337820D01*
Y337596D01*
X42454D01*
Y325064D01*
X48986D01*
Y337596D01*
X50124Y337915D01*
X54016D01*
X55154Y337596D01*
Y325064D01*
X56737D01*
Y323850D01*
X56865Y323206D01*
X57230Y322660D01*
X63834Y316056D01*
X64380Y315691D01*
X65024Y315563D01*
X89916D01*
X90560Y315691D01*
X91106Y316056D01*
X98472Y323422D01*
X98837Y323968D01*
X98965Y324612D01*
Y347352D01*
X110151Y358537D01*
X111324Y358051D01*
Y350584D01*
X122356D01*
Y353917D01*
X142654D01*
Y342264D01*
X164686D01*
Y353917D01*
X169483D01*
X191068Y332332D01*
X191784Y331470D01*
X191068Y330608D01*
X177423Y316963D01*
X164686D01*
Y328296D01*
X142654D01*
Y315994D01*
X122356D01*
Y319326D01*
X111324D01*
Y309294D01*
X122356D01*
Y312627D01*
X142654D01*
Y302264D01*
X164686D01*
Y313597D01*
X178120D01*
X178764Y313725D01*
X179310Y314090D01*
X193737Y328517D01*
X232983D01*
X236970Y324530D01*
X237516Y324165D01*
X238160Y324037D01*
X248024D01*
Y322403D01*
X223706D01*
Y327076D01*
X213174D01*
Y315544D01*
X223706D01*
Y319037D01*
X235331D01*
X235921Y317831D01*
X235388Y316544D01*
Y315152D01*
X235921Y313865D01*
X236905Y312881D01*
X238192Y312348D01*
X239584D01*
X240871Y312881D01*
X241855Y313865D01*
X241979Y314165D01*
X248024D01*
Y304822D01*
X246839Y304211D01*
X245552Y304744D01*
X244160D01*
X242873Y304211D01*
X241889Y303227D01*
X241437Y302135D01*
X240675Y301806D01*
X240086Y301690D01*
X235328Y306448D01*
X234572Y306953D01*
X233680Y307131D01*
X230960D01*
Y310816D01*
X219928D01*
Y298784D01*
X230960D01*
Y302469D01*
X232715D01*
X238562Y296622D01*
Y295468D01*
X239095Y294181D01*
X239633Y293644D01*
X239527Y293119D01*
X239081Y292399D01*
X233250D01*
Y295584D01*
X223218D01*
Y284552D01*
X225903D01*
Y282376D01*
X223218D01*
Y272298D01*
X219250D01*
Y276352D01*
X214234D01*
Y276860D01*
X213726D01*
Y282376D01*
X209218D01*
Y278429D01*
X206248D01*
X205356Y278251D01*
X204600Y277746D01*
X204160Y277088D01*
X204068Y277078D01*
X202890Y277556D01*
X202357Y278843D01*
X201373Y279827D01*
X200086Y280360D01*
X198694D01*
X197407Y279827D01*
X196423Y278843D01*
X195890Y277556D01*
Y276656D01*
X195522Y276289D01*
X193722D01*
Y279474D01*
X181690D01*
Y276289D01*
X175942D01*
Y279474D01*
X163910D01*
Y276143D01*
X154930D01*
Y280478D01*
X145298D01*
Y267146D01*
X154930D01*
Y271481D01*
X163910D01*
Y268442D01*
X175942D01*
Y271627D01*
X181690D01*
Y268442D01*
X193722D01*
Y271627D01*
X196488D01*
X197380Y271804D01*
X197976Y272203D01*
X198425Y272015D01*
X199021Y271406D01*
X198938Y271206D01*
Y269814D01*
X199471Y268527D01*
X200455Y267543D01*
X201742Y267010D01*
X202083D01*
X203170Y266662D01*
X203256Y265837D01*
Y265242D01*
X203789Y263955D01*
X204773Y262971D01*
X204827Y262703D01*
X204605Y262481D01*
X204072Y261195D01*
Y259803D01*
X204605Y258516D01*
X205589Y257532D01*
X206876Y256999D01*
X208268D01*
X209554Y257532D01*
X210539Y258516D01*
X210709Y258926D01*
X248024D01*
Y257403D01*
X223716D01*
X223072Y257275D01*
X222526Y256910D01*
X215844Y250229D01*
X214574Y250755D01*
Y251394D01*
X214041Y252681D01*
X213057Y253665D01*
X211770Y254198D01*
X210378D01*
X209091Y253665D01*
X208107Y252681D01*
X207983Y252381D01*
X106615D01*
X36227Y322769D01*
Y370397D01*
X42331Y376500D01*
X43504Y376014D01*
Y360338D01*
X64770D01*
X86036D01*
Y378096D01*
X71885D01*
X71359Y379366D01*
X72310Y380318D01*
X72675Y380864D01*
X72803Y381508D01*
Y382064D01*
X74386D01*
Y394596D01*
X67854D01*
Y382064D01*
X66853Y381413D01*
X62687D01*
X61686Y382064D01*
Y394596D01*
X61461D01*
X60935Y395866D01*
X63435Y398367D01*
X99887D01*
X107067Y391187D01*
D02*
G37*
G36*
X206730Y339530D02*
X207276Y339165D01*
X207920Y339037D01*
X237089D01*
X237615Y337767D01*
X237196Y337348D01*
X236663Y336062D01*
Y334669D01*
X236693Y334596D01*
X235617Y333877D01*
X235563Y333930D01*
X235017Y334295D01*
X234373Y334423D01*
X193737D01*
X171370Y356790D01*
X170824Y357155D01*
X170180Y357283D01*
X164686D01*
Y368296D01*
X142654D01*
Y357283D01*
X122356D01*
Y360616D01*
X113889D01*
X113403Y361789D01*
X122294Y370681D01*
X175579D01*
X206730Y339530D01*
D02*
G37*
G36*
X80554Y337596D02*
X80554Y336645D01*
Y331838D01*
X83820D01*
Y331330D01*
X84328D01*
Y325064D01*
X87086D01*
Y328631D01*
X89916D01*
X90808Y328809D01*
X91564Y329314D01*
X92043Y330030D01*
X92151Y330054D01*
X93313Y329819D01*
Y326256D01*
X88272Y321215D01*
X75373D01*
X72803Y323785D01*
Y325064D01*
X74386D01*
Y337596D01*
X75524Y337915D01*
X79416D01*
X80554Y337596D01*
D02*
G37*
G36*
X463111Y340816D02*
X463112Y340271D01*
X449850Y327008D01*
X449485Y326462D01*
X449357Y325818D01*
Y244236D01*
X447724D01*
Y326747D01*
X462618Y341642D01*
X462690Y341644D01*
X463111Y340816D01*
D02*
G37*
G36*
X304357Y193453D02*
X300547Y189643D01*
X244056D01*
X243753Y190913D01*
X244014Y191088D01*
X260539Y207613D01*
X277904D01*
X278449Y206343D01*
X278353Y206199D01*
X278225Y205555D01*
Y203886D01*
X274642D01*
Y192354D01*
X285174D01*
Y203886D01*
X282311D01*
X281889Y205156D01*
X288467Y211733D01*
X289640Y211247D01*
Y207882D01*
X301672D01*
Y218914D01*
X298495D01*
Y220901D01*
X299131Y221537D01*
X299664Y222824D01*
Y224216D01*
X299131Y225503D01*
X298433Y226201D01*
Y227704D01*
X304357D01*
Y193453D01*
D02*
G37*
G36*
X334357Y224469D02*
X333313Y223425D01*
X329761D01*
X329117Y223297D01*
X328571Y222932D01*
X318596Y212957D01*
X318231Y212411D01*
X318103Y211767D01*
Y201865D01*
X308993Y192756D01*
X307723Y193282D01*
Y227704D01*
X334357D01*
Y224469D01*
D02*
G37*
G36*
X409702Y191804D02*
X414356D01*
Y108889D01*
X406090Y100623D01*
X404820Y101149D01*
Y101534D01*
X404287Y102821D01*
X403303Y103805D01*
X402864Y103987D01*
Y184196D01*
X403565Y184508D01*
X404134Y184586D01*
X404996Y183723D01*
X406283Y183190D01*
X407675D01*
X408962Y183723D01*
X409946Y184707D01*
X410479Y185994D01*
Y187386D01*
X409946Y188673D01*
X408962Y189657D01*
X407675Y190190D01*
X406283D01*
X404996Y189657D01*
X404134Y188794D01*
X403565Y188871D01*
X402864Y189184D01*
Y190665D01*
X403178Y191804D01*
X408686D01*
Y197320D01*
X409702D01*
Y191804D01*
D02*
G37*
G36*
X399497Y115765D02*
X398227Y115044D01*
X397723Y115345D01*
Y227704D01*
X399497D01*
Y115765D01*
D02*
G37*
%LPC*%
G36*
X122356Y346616D02*
X117348D01*
Y342108D01*
X122356D01*
Y346616D01*
D02*
G37*
G36*
Y341092D02*
X117348D01*
Y336584D01*
X122356D01*
Y341092D01*
D02*
G37*
G36*
X116332Y346616D02*
X111324D01*
Y343961D01*
X106934D01*
X106042Y343783D01*
X105286Y343278D01*
X104781Y342522D01*
X104603Y341630D01*
X104781Y340738D01*
X105286Y339982D01*
X106042Y339477D01*
X106934Y339299D01*
X111324D01*
Y336584D01*
X116332D01*
Y341600D01*
Y346616D01*
D02*
G37*
G36*
X122356Y333326D02*
X117348D01*
Y328818D01*
X122356D01*
Y333326D01*
D02*
G37*
G36*
X210706Y327076D02*
X200174D01*
Y323895D01*
X197183D01*
X196547Y324531D01*
X195260Y325064D01*
X193868D01*
X192581Y324531D01*
X191597Y323547D01*
X191064Y322260D01*
Y320868D01*
X191597Y319581D01*
X192581Y318597D01*
X193868Y318064D01*
X195260D01*
X196547Y318597D01*
X197183Y319233D01*
X200174D01*
Y315544D01*
X210706D01*
Y327076D01*
D02*
G37*
G36*
X122356Y327802D02*
X117348D01*
Y323294D01*
X122356D01*
Y327802D01*
D02*
G37*
G36*
X116332Y333326D02*
X111324D01*
Y330499D01*
X107950D01*
X107058Y330321D01*
X106302Y329816D01*
X105797Y329060D01*
X105619Y328168D01*
X105797Y327276D01*
X106302Y326520D01*
X107058Y326015D01*
X107950Y325837D01*
X111324D01*
Y323294D01*
X116332D01*
Y328310D01*
Y333326D01*
D02*
G37*
G36*
X217460Y310816D02*
X212452D01*
Y305308D01*
X217460D01*
Y310816D01*
D02*
G37*
G36*
Y304292D02*
X212452D01*
Y298784D01*
X217460D01*
Y304292D01*
D02*
G37*
G36*
X211436Y310816D02*
X206428D01*
Y306877D01*
X202184D01*
X201292Y306699D01*
X200536Y306194D01*
X200031Y305438D01*
X199853Y304546D01*
X200031Y303654D01*
X200536Y302898D01*
X201292Y302393D01*
X202184Y302215D01*
X206428D01*
Y298784D01*
X211436D01*
Y304800D01*
Y310816D01*
D02*
G37*
G36*
X219250Y295584D02*
X214742D01*
Y290576D01*
X219250D01*
Y295584D01*
D02*
G37*
G36*
Y289560D02*
X214742D01*
Y284552D01*
X219250D01*
Y289560D01*
D02*
G37*
G36*
X213726Y295584D02*
X209218D01*
Y291891D01*
X203962D01*
X203070Y291713D01*
X202314Y291208D01*
X201809Y290452D01*
X201631Y289560D01*
X201809Y288668D01*
X202314Y287912D01*
X203070Y287407D01*
X203962Y287229D01*
X209218D01*
Y284552D01*
X213726D01*
Y290068D01*
Y295584D01*
D02*
G37*
G36*
X219250Y282376D02*
X214742D01*
Y277368D01*
X219250D01*
Y282376D01*
D02*
G37*
G36*
X133538Y291282D02*
X132146D01*
X130859Y290749D01*
X129875Y289765D01*
X129342Y288478D01*
Y287086D01*
X129875Y285799D01*
X130397Y285277D01*
Y280478D01*
X127798D01*
Y267146D01*
X137430D01*
Y280478D01*
X135059D01*
Y285049D01*
X135809Y285799D01*
X136342Y287086D01*
Y288478D01*
X135809Y289765D01*
X134825Y290749D01*
X133538Y291282D01*
D02*
G37*
G36*
X175942Y265974D02*
X170434D01*
Y260966D01*
X175942D01*
Y265974D01*
D02*
G37*
G36*
X187198D02*
X181690D01*
Y260966D01*
X187198D01*
Y265974D01*
D02*
G37*
G36*
Y259950D02*
X181690D01*
Y254942D01*
X187198D01*
Y259950D01*
D02*
G37*
G36*
X175942D02*
X170434D01*
Y254942D01*
X175942D01*
Y259950D01*
D02*
G37*
G36*
X169418Y265974D02*
X163910D01*
Y262789D01*
X161906D01*
X161014Y262612D01*
X160258Y262106D01*
X156340Y258188D01*
X155835Y257432D01*
X155657Y256540D01*
X155835Y255648D01*
X156340Y254892D01*
X157096Y254387D01*
X157988Y254209D01*
X158880Y254387D01*
X159636Y254892D01*
X162640Y257896D01*
X163910Y257568D01*
Y254942D01*
X169418D01*
Y260458D01*
Y265974D01*
D02*
G37*
G36*
X193722D02*
X188214D01*
Y260458D01*
Y254942D01*
X193722D01*
Y256213D01*
X194992Y256739D01*
X197347Y254384D01*
X198103Y253879D01*
X198995Y253701D01*
X199390D01*
X200282Y253879D01*
X201038Y254384D01*
X201543Y255140D01*
X201721Y256032D01*
X201543Y256924D01*
X201038Y257680D01*
X200282Y258185D01*
X200102Y258221D01*
X196676Y261647D01*
X195920Y262152D01*
X195028Y262330D01*
X193722D01*
Y265974D01*
D02*
G37*
G36*
X83312Y330822D02*
X80554D01*
Y325064D01*
X83312D01*
Y330822D01*
D02*
G37*
G36*
X301672Y205414D02*
X296164D01*
Y200406D01*
X301672D01*
Y205414D01*
D02*
G37*
G36*
X295148D02*
X289640D01*
Y200406D01*
X295148D01*
Y205414D01*
D02*
G37*
G36*
X272174Y203886D02*
X267416D01*
Y198628D01*
X272174D01*
Y203886D01*
D02*
G37*
G36*
Y197612D02*
X267416D01*
Y192354D01*
X272174D01*
Y197612D01*
D02*
G37*
G36*
X266400Y203886D02*
X261642D01*
Y199689D01*
X258064D01*
X257172Y199511D01*
X256416Y199006D01*
X255911Y198250D01*
X255733Y197358D01*
X255911Y196466D01*
X256416Y195710D01*
X257172Y195205D01*
X258064Y195027D01*
X261642D01*
Y192354D01*
X266400D01*
Y198120D01*
Y203886D01*
D02*
G37*
G36*
X301672Y199390D02*
X295656D01*
X289640D01*
Y194382D01*
X293071D01*
Y193294D01*
X293249Y192402D01*
X293754Y191646D01*
X294510Y191141D01*
X295402Y190963D01*
X296294Y191141D01*
X297050Y191646D01*
X297555Y192402D01*
X297733Y193294D01*
Y194382D01*
X301672D01*
Y199390D01*
D02*
G37*
%LPD*%
D15*
X468630Y211220D02*
D03*
Y197720D02*
D03*
X409194Y197320D02*
D03*
Y210820D02*
D03*
X295656Y213398D02*
D03*
Y199898D02*
D03*
X476250Y517760D02*
D03*
Y531260D02*
D03*
X169926Y273958D02*
D03*
Y260458D02*
D03*
X285750Y531260D02*
D03*
Y517760D02*
D03*
X452120Y211220D02*
D03*
Y197720D02*
D03*
X17780Y363950D02*
D03*
Y377450D02*
D03*
X414020Y529120D02*
D03*
Y515620D02*
D03*
X360680Y531260D02*
D03*
Y517760D02*
D03*
X187706Y260458D02*
D03*
Y273958D02*
D03*
D16*
X338328Y208534D02*
D03*
X351828D02*
D03*
X540220Y289560D02*
D03*
X553720D02*
D03*
X233572Y442722D02*
D03*
X220072D02*
D03*
X225444Y304800D02*
D03*
X211944D02*
D03*
X549802Y450596D02*
D03*
X536302D02*
D03*
X549802Y467106D02*
D03*
X536302D02*
D03*
X550310Y401320D02*
D03*
X536810D02*
D03*
X218656Y364744D02*
D03*
X232156D02*
D03*
X218040Y401320D02*
D03*
X231540D02*
D03*
D17*
X266908Y198120D02*
D03*
X279908D02*
D03*
X205440Y321310D02*
D03*
X218440D02*
D03*
D18*
X580530Y23140D02*
D03*
X534530D02*
D03*
D19*
X567530Y48390D02*
D03*
X557530D02*
D03*
X547530D02*
D03*
D20*
X553750Y310896D02*
D03*
X539750D02*
D03*
X214234Y276860D02*
D03*
X228234D02*
D03*
X214234Y290068D02*
D03*
X228234D02*
D03*
D21*
X116840Y435610D02*
D03*
Y449610D02*
D03*
Y422290D02*
D03*
Y408290D02*
D03*
Y341600D02*
D03*
Y355600D02*
D03*
Y328310D02*
D03*
Y314310D02*
D03*
D22*
X153670Y355280D02*
D03*
Y315280D02*
D03*
Y449260D02*
D03*
Y409260D02*
D03*
D23*
X64770Y359830D02*
D03*
D24*
X45720Y388330D02*
D03*
X58420D02*
D03*
X71120D02*
D03*
X83820D02*
D03*
Y331330D02*
D03*
X71120D02*
D03*
X58420D02*
D03*
X45720D02*
D03*
D25*
X155866Y122428D02*
D03*
X112866D02*
D03*
X73824Y122174D02*
D03*
X30824D02*
D03*
D26*
X256290Y470720D02*
D03*
Y465720D02*
D03*
Y460720D02*
D03*
Y455720D02*
D03*
Y450720D02*
D03*
Y445720D02*
D03*
Y440720D02*
D03*
Y435720D02*
D03*
Y430720D02*
D03*
Y425720D02*
D03*
Y420720D02*
D03*
Y415720D02*
D03*
Y410720D02*
D03*
Y405720D02*
D03*
Y400720D02*
D03*
Y395720D02*
D03*
Y390720D02*
D03*
Y385720D02*
D03*
Y380720D02*
D03*
Y375720D02*
D03*
Y370720D02*
D03*
Y365720D02*
D03*
Y360720D02*
D03*
Y355720D02*
D03*
Y350720D02*
D03*
Y345720D02*
D03*
Y340720D02*
D03*
Y335720D02*
D03*
Y330720D02*
D03*
Y325720D02*
D03*
Y320720D02*
D03*
Y315720D02*
D03*
Y310720D02*
D03*
Y305720D02*
D03*
Y300720D02*
D03*
Y295720D02*
D03*
Y290720D02*
D03*
Y285720D02*
D03*
Y280720D02*
D03*
Y275720D02*
D03*
Y270720D02*
D03*
Y265720D02*
D03*
Y260720D02*
D03*
Y255720D02*
D03*
X510790D02*
D03*
Y260720D02*
D03*
Y265720D02*
D03*
Y270720D02*
D03*
Y275720D02*
D03*
Y280720D02*
D03*
Y285720D02*
D03*
Y290720D02*
D03*
Y295720D02*
D03*
Y300720D02*
D03*
Y305720D02*
D03*
Y310720D02*
D03*
Y315720D02*
D03*
Y320720D02*
D03*
Y325720D02*
D03*
Y330720D02*
D03*
Y335720D02*
D03*
Y340720D02*
D03*
Y345720D02*
D03*
Y350720D02*
D03*
Y355720D02*
D03*
Y360720D02*
D03*
Y365720D02*
D03*
Y370720D02*
D03*
Y375720D02*
D03*
Y380720D02*
D03*
Y385720D02*
D03*
Y390720D02*
D03*
Y395720D02*
D03*
Y400720D02*
D03*
Y405720D02*
D03*
Y410720D02*
D03*
Y415720D02*
D03*
Y420720D02*
D03*
Y425720D02*
D03*
Y430720D02*
D03*
Y435720D02*
D03*
Y440720D02*
D03*
Y445720D02*
D03*
Y450720D02*
D03*
Y455720D02*
D03*
Y460720D02*
D03*
Y465720D02*
D03*
Y470720D02*
D03*
D27*
X276040Y235970D02*
D03*
X281040D02*
D03*
X286040D02*
D03*
X291040D02*
D03*
X296040D02*
D03*
X301040D02*
D03*
X306040D02*
D03*
X311040D02*
D03*
X316040D02*
D03*
X321040D02*
D03*
X326040D02*
D03*
X331040D02*
D03*
X336040D02*
D03*
X341040D02*
D03*
X346040D02*
D03*
X351040D02*
D03*
X356040D02*
D03*
X361040D02*
D03*
X366040D02*
D03*
X371040D02*
D03*
X376040D02*
D03*
X381040D02*
D03*
X386040D02*
D03*
X391040D02*
D03*
X396040D02*
D03*
X401040D02*
D03*
X406040D02*
D03*
X411040D02*
D03*
X416040D02*
D03*
X421040D02*
D03*
X426040D02*
D03*
X431040D02*
D03*
X436040D02*
D03*
X441040D02*
D03*
X446040D02*
D03*
X451040D02*
D03*
X456040D02*
D03*
X461040D02*
D03*
X466040D02*
D03*
X471040D02*
D03*
X476040D02*
D03*
X481040D02*
D03*
X486040D02*
D03*
X491040D02*
D03*
Y490470D02*
D03*
X486040D02*
D03*
X481040D02*
D03*
X476040D02*
D03*
X471040D02*
D03*
X466040D02*
D03*
X461040D02*
D03*
X456040D02*
D03*
X451040D02*
D03*
X446040D02*
D03*
X441040D02*
D03*
X436040D02*
D03*
X431040D02*
D03*
X426040D02*
D03*
X421040D02*
D03*
X416040D02*
D03*
X411040D02*
D03*
X406040D02*
D03*
X401040D02*
D03*
X396040D02*
D03*
X391040D02*
D03*
X386040D02*
D03*
X381040D02*
D03*
X376040D02*
D03*
X371040D02*
D03*
X366040D02*
D03*
X361040D02*
D03*
X356040D02*
D03*
X351040D02*
D03*
X346040D02*
D03*
X341040D02*
D03*
X336040D02*
D03*
X331040D02*
D03*
X326040D02*
D03*
X321040D02*
D03*
X316040D02*
D03*
X311040D02*
D03*
X306040D02*
D03*
X301040D02*
D03*
X296040D02*
D03*
X291040D02*
D03*
X286040D02*
D03*
X281040D02*
D03*
X276040D02*
D03*
D28*
X132614Y273812D02*
D03*
X150114D02*
D03*
D29*
X303530Y529890D02*
D03*
Y516890D02*
D03*
D30*
X527357Y516583D02*
D03*
X536903Y507037D02*
D03*
X230177Y219403D02*
D03*
X239723Y209857D02*
D03*
D52*
X381040Y490470D02*
Y541742D01*
X331040Y550750D02*
X352115Y571825D01*
X331040Y490470D02*
Y550750D01*
X321040Y490470D02*
Y544560D01*
X353060Y576580D02*
X450850D01*
X352115Y571825D02*
X461955D01*
X355092Y567690D02*
X381040Y541742D01*
X321040Y544560D02*
X353060Y576580D01*
X534670Y340360D02*
X568742D01*
X524902Y330592D02*
X534670Y340360D01*
X510919Y330592D02*
X524902D01*
X34544Y322072D02*
X105918Y250698D01*
X211074D01*
X34544Y322072D02*
Y371094D01*
X416040Y108192D02*
Y235970D01*
X390398Y82550D02*
X416040Y108192D01*
X510790Y280720D02*
X520899D01*
X565079Y280599D02*
X575310Y290830D01*
X520899Y280720D02*
X521019Y280599D01*
X565079D01*
X244856Y301244D02*
X245118Y300982D01*
X256028D01*
X256290Y300720D01*
X34544Y371094D02*
X43180Y379730D01*
X200081Y232085D02*
X223716Y255720D01*
X256290D01*
X200081Y115133D02*
Y232085D01*
X533400Y342900D02*
X567690D01*
X585470Y360680D01*
X526220Y335720D02*
X533400Y342900D01*
X568742Y340360D02*
X579410Y351028D01*
X245435Y185237D02*
X303855D01*
X229108Y183642D02*
X243840D01*
X245435Y185237D01*
X303855D02*
X319786Y201168D01*
X301040Y503224D02*
X303530Y505714D01*
Y516890D01*
X301040Y490470D02*
Y503224D01*
X326040Y490470D02*
X326098Y490528D01*
Y504963D01*
X326156Y505022D01*
X558546Y477012D02*
X642874Y392684D01*
X473964Y477012D02*
X558546D01*
X527558Y450596D02*
X536302D01*
X522434Y455720D02*
X527558Y450596D01*
X520830Y450720D02*
X535432Y436118D01*
X592836D01*
X510790Y450720D02*
X520830D01*
X510790Y455720D02*
X522434D01*
X452120Y211220D02*
Y219456D01*
X456040Y223376D01*
Y235970D01*
X362255Y219417D02*
Y219507D01*
X366040Y223292D01*
X351028Y221996D02*
X351034Y222002D01*
Y235964D01*
X288798Y214445D02*
Y223266D01*
X279908Y205555D02*
X288798Y214445D01*
Y223266D02*
X291040Y225508D01*
X286040Y214920D02*
Y235970D01*
X280416Y209296D02*
X286040Y214920D01*
X291040Y225508D02*
Y235970D01*
X279908Y198120D02*
Y205555D01*
X259842Y209296D02*
X280416D01*
X278384Y36830D02*
X337820D01*
X200081Y115133D02*
X278384Y36830D01*
X337820D02*
X342392Y41402D01*
X592836Y436118D02*
X646430Y382524D01*
X471040Y479936D02*
Y490470D01*
Y479936D02*
X473964Y477012D01*
X565150Y391160D02*
X604520D01*
X558815Y381000D02*
X604520D01*
X585470Y360680D02*
X604520D01*
X579410Y351028D02*
X604520D01*
X490024Y426287D02*
X490547Y425764D01*
X492089D01*
X492133Y425720D01*
X510790D01*
X351040Y490470D02*
X351161Y490349D01*
Y459861D02*
Y490349D01*
Y459861D02*
X351282Y459740D01*
X356040Y370518D02*
Y490470D01*
X467106Y425196D02*
X471582Y420720D01*
X316040Y235970D02*
X316262Y236192D01*
Y344202D02*
X316484Y344424D01*
X316262Y236192D02*
Y344202D01*
X322329Y416563D02*
X336040Y430274D01*
X311040Y235970D02*
Y333840D01*
X295727Y349153D02*
X311040Y333840D01*
X296892Y320720D02*
X297049Y320877D01*
X256290Y320720D02*
X296892D01*
X398018Y297180D02*
X476558Y375720D01*
X403098Y299027D02*
X474791Y370720D01*
X388874Y252547D02*
Y291592D01*
X398018Y251714D02*
Y297180D01*
X388874Y291592D02*
X488002Y390720D01*
X403098Y256286D02*
Y299027D01*
X488002Y390720D02*
X510790D01*
X476558Y375720D02*
X510790D01*
X474791Y370720D02*
X510790D01*
X526259Y255749D02*
X526288Y255778D01*
X525508Y265702D02*
X525526Y265684D01*
X510808Y265702D02*
X525508D01*
X510819Y255749D02*
X526259D01*
X510790Y255720D02*
X510819Y255749D01*
X510790Y265720D02*
X510808Y265702D01*
X218440Y321310D02*
X219030Y320720D01*
X256290D01*
X325832Y357573D02*
X325936Y357469D01*
Y236074D02*
X326040Y235970D01*
X325936Y236074D02*
Y357469D01*
X321175Y267581D02*
X321310Y267716D01*
X321175Y236105D02*
Y267581D01*
X321040Y235970D02*
X321175Y236105D01*
X271597Y219019D02*
X276040Y223462D01*
Y235970D01*
X254000Y219019D02*
X271597D01*
X261112Y214884D02*
X278384D01*
X281040Y217540D01*
X242824Y192278D02*
X259842Y209296D01*
X219964Y192278D02*
X242824D01*
X281040Y217540D02*
Y235970D01*
X243397Y275655D02*
X256225D01*
X256290Y275720D01*
X243332Y275590D02*
X243397Y275655D01*
X341040Y235970D02*
Y246716D01*
X337058Y250698D02*
X341040Y246716D01*
X43180Y379730D02*
X69342D01*
X71120Y381508D02*
Y388330D01*
X69342Y379730D02*
X71120Y381508D01*
X256113Y335543D02*
X256290Y335720D01*
X240340Y335543D02*
X256113D01*
X240163Y335365D02*
X240340Y335543D01*
X231306Y420457D02*
X231438Y420589D01*
X256159D02*
X256290Y420720D01*
X231438Y420589D02*
X256159D01*
X226060Y416052D02*
X226226Y415886D01*
X256124D01*
X256290Y415720D01*
X429040Y512205D02*
X431040Y510204D01*
X429040Y512205D02*
Y512943D01*
X431040Y490470D02*
Y510204D01*
X471582Y420720D02*
X510790D01*
X450755Y430879D02*
X450914Y430720D01*
X510790D01*
X446040Y374216D02*
X454313Y365943D01*
X446040Y374216D02*
Y490470D01*
X458978Y468884D02*
X492142Y435720D01*
X380238Y558546D02*
X406040Y532744D01*
Y490470D02*
Y532744D01*
X461955Y571825D02*
X469900Y563880D01*
X309626Y577850D02*
X316040Y571436D01*
Y490470D02*
Y571436D01*
X271272Y517144D02*
Y561340D01*
X258826Y573786D02*
X271272Y561340D01*
X496644Y385646D02*
X510716D01*
X510790Y385720D01*
X496570Y385572D02*
X496644Y385646D01*
X484124Y380746D02*
X484137Y380733D01*
X510751D01*
X510764Y380746D01*
X271272Y517144D02*
X281040Y507376D01*
Y490470D02*
Y507376D01*
X204216Y176530D02*
X219964Y192278D01*
X450850Y576580D02*
X451358Y576072D01*
X492142Y435720D02*
X510790D01*
X153416Y548640D02*
X241336Y460720D01*
X256290D01*
X496510Y410720D02*
X510790D01*
X491588Y415642D02*
X496510Y410720D01*
X451040Y235970D02*
Y325818D01*
X471678Y346456D01*
X446040Y327445D02*
X464559Y345963D01*
X446040Y235970D02*
Y327445D01*
X471170Y360426D02*
X471317Y360573D01*
X510643D01*
X510790Y360720D01*
X295727Y349153D02*
Y441146D01*
X301244Y187960D02*
X306040Y192756D01*
Y235970D01*
X183388Y509016D02*
X236684Y455720D01*
X331128Y236058D02*
Y334684D01*
X331216Y334772D01*
X331040Y235970D02*
X331128Y236058D01*
X224536Y187960D02*
X301244D01*
X170753Y513748D02*
X233781Y450720D01*
X256290D01*
X236684Y455720D02*
X256290D01*
X334010Y221742D02*
X336040Y223772D01*
Y235970D01*
X319786Y201168D02*
Y211767D01*
X329761Y221742D01*
X334010D01*
X330708Y219456D02*
X338582D01*
X346040Y226914D01*
X322072Y210820D02*
X330708Y219456D01*
X322072Y100330D02*
Y210820D01*
Y100330D02*
X328422Y93980D01*
X207682Y260609D02*
X256180D01*
X207572Y260499D02*
X207682Y260609D01*
X256180D02*
X256290Y260720D01*
X207119Y265575D02*
X256145D01*
X206756Y265938D02*
X207119Y265575D01*
X202438Y270510D02*
X202543Y270615D01*
X256185D01*
X256290Y270720D01*
X256145Y265575D02*
X256290Y265720D01*
X92068Y345814D02*
Y360729D01*
X107442Y376103D01*
X94996Y348996D02*
X119126Y373126D01*
X178747D02*
X201153Y350720D01*
X119126Y373126D02*
X120650Y374650D01*
X177223D02*
X178747Y373126D01*
X116840Y355600D02*
X153670D01*
X170180D01*
X336040Y430274D02*
Y490470D01*
X311040Y403462D02*
Y490470D01*
Y403462D02*
X346710Y367792D01*
X342392Y357124D02*
X342646D01*
X306055Y387613D02*
Y490455D01*
X342646Y357124D02*
X356040Y370518D01*
X306055Y387613D02*
X363371Y330298D01*
X363885D01*
X389636Y304546D01*
X117190Y449260D02*
X153670D01*
X196662D01*
X215202Y430720D01*
X153670Y409260D02*
X198557D01*
X215018Y425720D02*
X256290D01*
X198557Y409260D02*
X215018Y425720D01*
X270533Y379984D02*
X271272D01*
X256290Y380720D02*
X269797D01*
X270533Y379984D01*
X85852Y339598D02*
X92068Y345814D01*
X47752Y339598D02*
X85852D01*
X45974Y337820D02*
X47752Y339598D01*
X45974Y331584D02*
Y337820D01*
X45720Y331330D02*
X45974Y331584D01*
X388874Y252547D02*
X389199Y252222D01*
X109982Y390652D02*
X175261D01*
X83820Y388330D02*
X171735D01*
X175261Y390652D02*
X210193Y355720D01*
X100584Y400050D02*
X109982Y390652D01*
X171735Y388330D02*
X196694Y363371D01*
X62738Y400050D02*
X100584D01*
X58420Y395732D02*
X62738Y400050D01*
X58420Y388330D02*
Y395732D01*
X210193Y355720D02*
X256290D01*
X97282Y324612D02*
Y348049D01*
X65024Y317246D02*
X89916D01*
X97282Y324612D01*
X74676Y319532D02*
X88969D01*
X94996Y325559D02*
Y348996D01*
X88969Y319532D02*
X94996Y325559D01*
X222976Y345635D02*
X256205D01*
X222891Y345549D02*
X222976Y345635D01*
X256205D02*
X256290Y345720D01*
X120650Y374650D02*
X177223D01*
X176276Y372364D02*
X207920Y340720D01*
X121597Y372364D02*
X176276D01*
X207920Y340720D02*
X256290D01*
X201153Y350720D02*
X256290D01*
X58420Y323850D02*
X65024Y317246D01*
X97282Y348049D02*
X121597Y372364D01*
X71120Y323088D02*
X74676Y319532D01*
X58420Y323850D02*
Y331330D01*
X71120Y323088D02*
Y331330D01*
X215202Y430720D02*
X256290D01*
X116840Y449610D02*
X117190Y449260D01*
X116840Y408290D02*
X152700D01*
X153670Y409260D01*
X193040Y332740D02*
X234373D01*
X170180Y355600D02*
X193040Y332740D01*
X234373D02*
X236393Y330720D01*
X256290D01*
X233680Y330200D02*
X238160Y325720D01*
X178120Y315280D02*
X193040Y330200D01*
X233680D01*
X238160Y325720D02*
X256290D01*
X152700Y314310D02*
X153670Y315280D01*
X116840Y314310D02*
X152700D01*
X153670Y315280D02*
X178120D01*
X491236Y293370D02*
X491975D01*
X494325Y295720D02*
X510790D01*
X491975Y293370D02*
X494325Y295720D01*
X492489Y300852D02*
X510658D01*
X510790Y300720D01*
X492358Y300983D02*
X492489Y300852D01*
X441040Y356751D02*
Y490470D01*
Y356751D02*
X442722Y355069D01*
Y354330D02*
Y355069D01*
X438404Y182697D02*
Y218948D01*
X438333Y182626D02*
X438404Y182697D01*
Y218948D02*
X441040Y221584D01*
X430276Y182626D02*
X436040Y188390D01*
X391472Y122837D02*
Y235538D01*
X391040Y235970D02*
X391472Y235538D01*
Y122837D02*
X391905Y122405D01*
X396040Y112445D02*
X396748Y111737D01*
X396040Y112445D02*
Y235970D01*
X396748Y110998D02*
Y111737D01*
X401180Y100978D02*
Y235830D01*
X401040Y235970D02*
X401180Y235830D01*
Y100978D02*
X401320Y100838D01*
X390398Y69596D02*
Y82550D01*
X256162Y315848D02*
X256290Y315720D01*
X238888Y315848D02*
X256162D01*
X334264Y183388D02*
X340180Y189304D01*
X334264Y183134D02*
Y183388D01*
X346040Y226914D02*
Y235970D01*
X351034Y235964D02*
X351040Y235970D01*
X380929Y223266D02*
X380985Y223321D01*
Y235915D02*
X381040Y235970D01*
X380985Y223321D02*
Y235915D01*
X357943Y189304D02*
X386040Y217401D01*
Y235970D01*
X376040Y220338D02*
Y235970D01*
X371348Y215646D02*
X376040Y220338D01*
X256290Y395720D02*
X256296Y395726D01*
X275076D01*
X275082Y395732D01*
X256290Y385720D02*
X256364Y385646D01*
X271706D01*
X271780Y385572D01*
X256290Y390720D02*
X256637Y391067D01*
X270925D01*
X268701Y375720D02*
X271041Y373380D01*
X256290Y375720D02*
X268701D01*
X267194Y367806D02*
X267716Y367284D01*
X267194Y367806D02*
Y368972D01*
X265445Y370720D02*
X267194Y368972D01*
X256290Y370720D02*
X265445D01*
X366040Y223292D02*
Y235970D01*
X370940Y235870D02*
X371040Y235970D01*
X370940Y222096D02*
Y235870D01*
X370840Y221996D02*
X370940Y222096D01*
X340180Y189304D02*
X357943D01*
X306040Y490470D02*
X306055Y490455D01*
X420959Y235889D02*
X421040Y235970D01*
X420959Y218521D02*
Y235889D01*
X420878Y218440D02*
X420959Y218521D01*
X431166Y215010D02*
Y235844D01*
X431040Y235970D02*
X431166Y235844D01*
Y215010D02*
X431292Y214884D01*
X436040Y188390D02*
Y235970D01*
X426040Y223856D02*
Y235970D01*
X425450Y223266D02*
X426040Y223856D01*
X441040Y221584D02*
Y235970D01*
X529474Y260720D02*
X533908Y256286D01*
X510790Y260720D02*
X529474D01*
X534924Y320548D02*
X604520D01*
X530096Y315720D02*
X534924Y320548D01*
X582044Y275720D02*
X590296Y283972D01*
X510790Y275720D02*
X582044D01*
X575310Y290830D02*
X603758D01*
X510790Y315720D02*
X530096D01*
X531286Y320720D02*
X541274Y330708D01*
X510790Y320720D02*
X531286D01*
X541274Y330708D02*
X604266D01*
X510790Y335720D02*
X526220D01*
X510790Y350720D02*
X524710D01*
X565150Y391160D01*
X523535Y345720D02*
X558815Y381000D01*
X510790Y345720D02*
X523535D01*
X547530Y48390D02*
Y157320D01*
X481040Y223810D02*
X547530Y157320D01*
X481040Y223810D02*
Y235970D01*
X567530Y48390D02*
Y144940D01*
X491040Y221430D02*
Y235970D01*
Y221430D02*
X567530Y144940D01*
X486040Y222402D02*
Y235970D01*
Y222402D02*
X557530Y150912D01*
Y48390D02*
Y150912D01*
X510790Y330720D02*
X510919Y330592D01*
X461040Y490470D02*
Y534700D01*
X510540Y584200D01*
X584200D01*
X451040Y490470D02*
Y532102D01*
X542508Y623570D02*
X584200D01*
X451040Y532102D02*
X542508Y623570D01*
X456040Y490470D02*
Y533510D01*
X527050Y604520D02*
X584200D01*
X456040Y533510D02*
X527050Y604520D01*
X436040Y490470D02*
Y521130D01*
X558800Y643890D02*
X584200D01*
X436040Y521130D02*
X558800Y643890D01*
D53*
X6604Y440436D02*
X14986Y448818D01*
X62484D01*
X6604Y311150D02*
Y440436D01*
Y311150D02*
X73921Y243833D01*
X73824Y179040D02*
X73921Y179137D01*
Y243833D01*
X73824Y122174D02*
Y179040D01*
X66609Y81328D02*
X73824Y88544D01*
Y122174D01*
D54*
X229923Y219403D02*
X230177D01*
X222504Y226822D02*
X229923Y219403D01*
X266146Y197358D02*
X266908Y198120D01*
X258064Y197358D02*
X266146D01*
X295402Y199644D02*
X295656Y199898D01*
X295402Y193294D02*
Y199644D01*
X406040Y247030D02*
X408940Y249930D01*
Y250190D01*
X406040Y235970D02*
Y247030D01*
X356074Y248378D02*
X356108Y248412D01*
X356040Y235970D02*
X356074Y236004D01*
Y248378D01*
X338074Y208280D02*
X338328Y208534D01*
X330962Y208280D02*
X338074D01*
X409194Y197104D02*
Y197320D01*
Y197104D02*
X409448Y196850D01*
X452120Y197720D02*
X468630D01*
Y189738D02*
Y197720D01*
X510790Y285720D02*
X521351D01*
X522337Y284734D01*
X522732D01*
X510790Y290720D02*
X510989Y290521D01*
X525327D01*
X525526Y290322D01*
X553720Y289560D02*
X562977D01*
X564247Y290830D01*
X564642D01*
X557784Y311912D02*
X559562Y313690D01*
X566420D01*
X553750Y310896D02*
X554766Y311912D01*
X557784D01*
X510836Y325674D02*
X523702D01*
X523748Y325628D01*
X510790Y325720D02*
X510836Y325674D01*
X521949Y355720D02*
X523099Y356870D01*
X523494D01*
X510790Y355720D02*
X521949D01*
X510790Y395720D02*
X522349D01*
X524877Y393192D01*
X525272D01*
X550310Y401320D02*
X550564Y401066D01*
X560578D01*
X510790Y460720D02*
X521103D01*
X521829Y459994D01*
X522224D01*
X549802Y458851D02*
Y467106D01*
Y450596D02*
Y458851D01*
X481040Y490470D02*
Y501727D01*
X483362Y504049D01*
Y504444D01*
X475996Y517506D02*
X476250Y517760D01*
X475996Y504444D02*
Y517506D01*
X416270Y490700D02*
Y498679D01*
X420116Y502525D01*
X416040Y490470D02*
X416270Y490700D01*
X420116Y502525D02*
Y502920D01*
X366040Y490470D02*
Y501422D01*
X368554Y503936D01*
X517169Y526771D02*
X527357Y516583D01*
X516890Y529336D02*
X517169Y529057D01*
X527357Y516583D02*
Y516583D01*
X517169Y526771D02*
Y529057D01*
X476250Y531260D02*
Y539496D01*
X417576Y540986D02*
Y541274D01*
X414020Y537430D02*
X417576Y540986D01*
X414020Y529120D02*
Y537430D01*
X360172Y531768D02*
Y538734D01*
Y531768D02*
X360680Y531260D01*
X285496Y532638D02*
Y538988D01*
Y532638D02*
X285750Y532384D01*
Y531260D02*
Y532384D01*
X209042Y443992D02*
X209437D01*
X210707Y442722D02*
X220072D01*
X209437Y443992D02*
X210707Y442722D01*
X116840Y429006D02*
Y435610D01*
Y422290D02*
Y429006D01*
X268337Y402082D02*
X268732D01*
X264929Y405490D02*
X268337Y402082D01*
X256290Y405720D02*
X256520Y405490D01*
X264929D01*
X206756Y401066D02*
X217786D01*
X218040Y401320D01*
X247461Y365949D02*
X256061D01*
X256290Y365720D01*
X243586Y369824D02*
X247461Y365949D01*
X206502Y369062D02*
X210820Y364744D01*
X218656D01*
X241667Y287700D02*
Y287782D01*
X239381Y289986D02*
X241577Y287789D01*
Y287394D02*
Y287789D01*
X239381Y289986D02*
Y290068D01*
X245872Y290830D02*
X245927Y290775D01*
X256235D01*
X256290Y290720D01*
X243646Y285720D02*
X256290D01*
X241667Y287700D02*
X243646Y285720D01*
X228234Y290068D02*
X239381D01*
X242062Y296164D02*
Y296418D01*
X233680Y304800D02*
X242062Y296418D01*
X242284Y295942D02*
X256068D01*
X242062Y296164D02*
X242284Y295942D01*
X256068D02*
X256290Y295720D01*
X202184Y304546D02*
X211690D01*
X211944Y304800D01*
X203962Y289560D02*
X213726D01*
X214234Y290068D01*
X213472Y276098D02*
X214234Y276860D01*
X206248Y276098D02*
X213472D01*
X195028Y259999D02*
X198995Y256032D01*
X187706Y260458D02*
X188165Y259999D01*
X195028D01*
X198995Y256032D02*
X199390D01*
X157988Y256540D02*
X161906Y260458D01*
X169926D01*
X106934Y341630D02*
X116810D01*
X116840Y341600D01*
X115824Y328168D02*
X116078Y328422D01*
X107950Y328168D02*
X115824D01*
X116078Y328422D02*
X116190Y328310D01*
X116840D01*
X84188Y330962D02*
X89916D01*
X83820Y331330D02*
X84188Y330962D01*
X64770Y359830D02*
X64858D01*
X65024Y359664D01*
X16510Y362680D02*
X17780Y363950D01*
X16510Y352044D02*
Y362680D01*
X580530Y23140D02*
X580758Y23368D01*
X594868D01*
X521208Y23114D02*
X534504D01*
X534530Y23140D01*
X112866Y87540D02*
Y122428D01*
Y87540D02*
X117094Y83312D01*
X30824Y87540D02*
X35052Y83312D01*
X30824Y87540D02*
Y122174D01*
X256290Y280720D02*
Y285720D01*
X228234Y276860D02*
Y290068D01*
X196488Y273958D02*
X199390Y276860D01*
X187706Y273958D02*
X196488D01*
X169926D02*
X187706D01*
X150114Y273812D02*
X169780D01*
X169926Y273958D01*
X132728Y273926D02*
Y287668D01*
X132614Y273812D02*
X132728Y273926D01*
Y287668D02*
X132842Y287782D01*
X31496Y387604D02*
X44994D01*
X45720Y388330D01*
X18280Y377450D02*
X28155Y387325D01*
X31217D01*
X31496Y387604D01*
X17780Y377450D02*
X18280D01*
X225444Y304800D02*
X233680D01*
X194564Y321564D02*
X205186D01*
X205440Y321310D01*
X241159Y364744D02*
X242683Y363220D01*
X232156Y364744D02*
X241159D01*
X242683Y363220D02*
X243078D01*
X245578Y360720D01*
X256290D01*
X231540Y401320D02*
X232302Y400558D01*
X243078D01*
X243159Y400639D02*
X256209D01*
X256290Y400720D01*
X243078Y400558D02*
X243159Y400639D01*
X233572Y442722D02*
X242175D01*
X244207Y444754D01*
X244602D01*
X245963Y445720D02*
X256290D01*
X244997Y444754D02*
X245963Y445720D01*
X244602Y444754D02*
X244997D01*
X304038Y530398D02*
Y538734D01*
X303530Y529890D02*
X304038Y530398D01*
X287274Y509524D02*
Y516236D01*
X285750Y517760D02*
X287274Y516236D01*
Y509524D02*
X292608Y504190D01*
X292862D01*
X296040Y501012D01*
Y490470D02*
Y501012D01*
X361040Y503935D02*
Y517400D01*
Y490470D02*
Y503935D01*
X360680Y517760D02*
X361040Y517400D01*
X414020Y505601D02*
Y515620D01*
X411226Y502412D02*
Y502807D01*
X414020Y505601D01*
X411040Y490470D02*
X411133Y490563D01*
Y502319D01*
X411226Y502412D01*
X476018Y490492D02*
X476040Y490470D01*
X476018Y490492D02*
Y504422D01*
X475996Y504444D02*
X476018Y504422D01*
X536903Y506783D02*
Y507037D01*
Y506783D02*
X545338Y498348D01*
X524397Y466344D02*
X525159Y467106D01*
X524002Y466344D02*
X524397D01*
X525159Y467106D02*
X536302D01*
X510790Y465720D02*
X522983D01*
X523607Y466344D01*
X524002D01*
X536048Y400558D02*
X536810Y401320D01*
X523748Y400558D02*
X536048D01*
X523667Y400639D02*
X523748Y400558D01*
X510790Y400720D02*
X510871Y400639D01*
X523667D01*
X510869Y305641D02*
X526463D01*
X526542Y305562D01*
X510790Y305720D02*
X510869Y305641D01*
X539458Y290322D02*
X540220Y289560D01*
X525526Y290322D02*
X539458D01*
X466415Y221745D02*
Y221996D01*
X468630Y211220D02*
Y219530D01*
X466415Y221745D02*
X468630Y219530D01*
X461270Y227141D02*
Y235740D01*
Y227141D02*
X466415Y221996D01*
X461040Y235970D02*
X461270Y235740D01*
X409194Y210820D02*
X410972Y212598D01*
Y222758D01*
X411006Y222792D02*
Y235936D01*
X411040Y235970D01*
X410972Y222758D02*
X411006Y222792D01*
X357607Y221829D02*
Y222479D01*
X357886Y222758D01*
X351828Y208534D02*
Y216050D01*
X357607Y221829D01*
X357886Y222758D02*
X361040Y225912D01*
Y235970D01*
X296164Y213906D02*
Y223520D01*
X295656Y213398D02*
X296164Y213906D01*
X296102Y223582D02*
X296164Y223520D01*
X296040Y235970D02*
X296102Y235908D01*
Y223582D02*
Y235908D01*
X239723Y209857D02*
X246634Y202946D01*
X155866Y86538D02*
Y122428D01*
X151892Y82564D02*
X155866Y86538D01*
X151892Y82296D02*
Y82564D01*
D55*
X510843Y340667D02*
X524203D01*
X510790Y340720D02*
X510843Y340667D01*
X524203D02*
X524256Y340614D01*
X529844Y310896D02*
X539750D01*
X510878Y310808D02*
X529756D01*
X510790Y310720D02*
X510878Y310808D01*
X529756D02*
X529844Y310896D01*
X510790Y340720D02*
X510832Y340762D01*
D56*
X400000Y640000D02*
D03*
X600000Y130000D02*
D03*
X50000Y220000D02*
D03*
X220000Y40000D02*
D03*
D57*
X664464Y46990D02*
D03*
D58*
Y72390D02*
D03*
Y97790D02*
D03*
Y123190D02*
D03*
Y148590D02*
D03*
Y173990D02*
D03*
D59*
X122936Y38608D02*
D03*
X148336D02*
D03*
X40894Y38354D02*
D03*
X66294D02*
D03*
D60*
X355092Y567690D02*
D03*
X62484Y448818D02*
D03*
X50038Y629158D02*
D03*
X222504Y226822D02*
D03*
X258064Y197358D02*
D03*
X295402Y193294D02*
D03*
X408940Y250190D02*
D03*
X356108Y248412D02*
D03*
X330962Y208280D02*
D03*
X409448Y196850D02*
D03*
X468630Y189738D02*
D03*
X522732Y284734D02*
D03*
X525526Y290322D02*
D03*
X564642Y290830D02*
D03*
X566420Y313690D02*
D03*
X523748Y325628D02*
D03*
X523494Y356870D02*
D03*
X525272Y393192D02*
D03*
X560578Y401066D02*
D03*
X522224Y459994D02*
D03*
X549802Y458851D02*
D03*
X483362Y504444D02*
D03*
X475996D02*
D03*
X420116Y502920D02*
D03*
X368554Y503936D02*
D03*
X516890Y529336D02*
D03*
X476250Y539496D02*
D03*
X417576Y541274D02*
D03*
X360172Y538734D02*
D03*
X285496Y538988D02*
D03*
X209042Y443992D02*
D03*
X107950Y328168D02*
D03*
X116840Y429006D02*
D03*
X268732Y402082D02*
D03*
X206756Y401066D02*
D03*
X243586Y369824D02*
D03*
X206502Y369062D02*
D03*
X241577Y287394D02*
D03*
X245872Y290830D02*
D03*
X242062Y296164D02*
D03*
X244856Y301244D02*
D03*
X202184Y304546D02*
D03*
X203962Y289560D02*
D03*
X206248Y276098D02*
D03*
X199390Y256032D02*
D03*
X157988Y256540D02*
D03*
X106934Y341630D02*
D03*
X89916Y330962D02*
D03*
X65024Y359664D02*
D03*
X16510Y352044D02*
D03*
X58420Y429514D02*
D03*
X85344Y459232D02*
D03*
X86106Y588518D02*
D03*
X259545Y598625D02*
D03*
X86868Y623824D02*
D03*
X21590Y663194D02*
D03*
X325882Y538988D02*
D03*
X607568Y564134D02*
D03*
X622046Y431292D02*
D03*
X603758Y401066D02*
D03*
X604266Y370840D02*
D03*
X604012Y340614D02*
D03*
X553466Y351282D02*
D03*
X565150Y326136D02*
D03*
X567182Y306070D02*
D03*
X603504Y310896D02*
D03*
X602234Y280670D02*
D03*
X647192Y208788D02*
D03*
X447294Y222504D02*
D03*
X386842Y203962D02*
D03*
X288036Y181102D02*
D03*
X385572Y153670D02*
D03*
X422402Y155194D02*
D03*
X470408Y157226D02*
D03*
X496570Y170942D02*
D03*
X594868Y23368D02*
D03*
X521208Y23114D02*
D03*
X501142Y15494D02*
D03*
X456946Y15748D02*
D03*
X446532Y41910D02*
D03*
X437642Y15748D02*
D03*
X398272Y69596D02*
D03*
X396748Y16002D02*
D03*
X292608Y15748D02*
D03*
X117094Y83312D02*
D03*
X35052D02*
D03*
X199390Y276860D02*
D03*
X132842Y287782D02*
D03*
X61468Y464058D02*
D03*
X31496Y387604D02*
D03*
X194564Y321564D02*
D03*
X243078Y363220D02*
D03*
Y400558D02*
D03*
X244602Y444754D02*
D03*
X326156Y505022D02*
D03*
X304038Y538734D02*
D03*
X292862Y504190D02*
D03*
X361040Y503935D02*
D03*
X411226Y502412D02*
D03*
X606298Y544322D02*
D03*
X591058Y480314D02*
D03*
X545338Y498348D02*
D03*
X524002Y466344D02*
D03*
X523748Y400558D02*
D03*
X524256Y340614D02*
D03*
X529844Y310896D02*
D03*
X526542Y305562D02*
D03*
X602488Y271018D02*
D03*
X602742Y261112D02*
D03*
X466415Y221996D02*
D03*
X410972Y222758D02*
D03*
X362255Y219417D02*
D03*
X351028Y221996D02*
D03*
X357886Y222758D02*
D03*
X296164Y223520D02*
D03*
X246634Y202946D02*
D03*
X406979Y186690D02*
D03*
X446786Y183388D02*
D03*
X486156Y41910D02*
D03*
X470408Y41148D02*
D03*
X422402Y41910D02*
D03*
X382270Y40132D02*
D03*
X278291Y42771D02*
D03*
X151892Y82296D02*
D03*
X66609Y81328D02*
D03*
X646430Y382524D02*
D03*
X642874Y392684D02*
D03*
X604520Y391160D02*
D03*
Y381000D02*
D03*
Y360680D02*
D03*
Y351028D02*
D03*
X351282Y459740D02*
D03*
X490024Y426287D02*
D03*
X467106Y425196D02*
D03*
X488950Y272796D02*
D03*
X316484Y344424D02*
D03*
X322329Y416563D02*
D03*
X297049Y320877D02*
D03*
X526288Y255778D02*
D03*
X525526Y265684D02*
D03*
X325832Y357573D02*
D03*
X321310Y267716D02*
D03*
X292354Y609346D02*
D03*
X280924Y612902D02*
D03*
X254000Y219019D02*
D03*
X62345Y634014D02*
D03*
X261112Y214884D02*
D03*
X243332Y275590D02*
D03*
X56388Y618998D02*
D03*
X337058Y250698D02*
D03*
X211074D02*
D03*
X240163Y335365D02*
D03*
X51562Y613918D02*
D03*
X231306Y420457D02*
D03*
X226060Y416052D02*
D03*
X59182Y608838D02*
D03*
X49784Y593344D02*
D03*
X429040Y512943D02*
D03*
X450755Y430879D02*
D03*
X458978Y468884D02*
D03*
X394208Y593344D02*
D03*
X380238Y558546D02*
D03*
X309626Y577850D02*
D03*
X258826Y573786D02*
D03*
X496570Y385572D02*
D03*
X484124Y380746D02*
D03*
X204216Y176530D02*
D03*
X469900Y563880D02*
D03*
X451358Y576072D02*
D03*
X153416Y548640D02*
D03*
X491588Y415642D02*
D03*
X471678Y346456D02*
D03*
X464559Y345963D02*
D03*
X471170Y360426D02*
D03*
X295727Y441146D02*
D03*
X183388Y509016D02*
D03*
X331216Y334772D02*
D03*
X224536Y187960D02*
D03*
X229108Y183642D02*
D03*
X170753Y513748D02*
D03*
X206756Y265938D02*
D03*
X207572Y260499D02*
D03*
X202438Y270510D02*
D03*
X107442Y376103D02*
D03*
X346710Y367792D02*
D03*
X342392Y357124D02*
D03*
X271272Y379984D02*
D03*
X222891Y345549D02*
D03*
X196694Y363371D02*
D03*
X491236Y293370D02*
D03*
X478282Y68834D02*
D03*
X492358Y300983D02*
D03*
X462280Y68580D02*
D03*
X454313Y365943D02*
D03*
X454152Y68834D02*
D03*
X442722Y354330D02*
D03*
X438333Y182626D02*
D03*
X430276D02*
D03*
X438404Y69342D02*
D03*
X391905Y122405D02*
D03*
X396748Y110998D02*
D03*
X401320Y100838D02*
D03*
X390398Y69596D02*
D03*
X342419Y103042D02*
D03*
X238888Y315848D02*
D03*
X328422Y93980D02*
D03*
X334264Y183134D02*
D03*
X334996Y95984D02*
D03*
X342392Y41402D02*
D03*
X403098Y256286D02*
D03*
X334264Y70612D02*
D03*
X398018Y251714D02*
D03*
X380929Y223266D02*
D03*
X326644Y70866D02*
D03*
X389199Y252222D02*
D03*
X318516Y71120D02*
D03*
X275082Y395732D02*
D03*
X310134Y71374D02*
D03*
X271780Y385572D02*
D03*
X270925Y391067D02*
D03*
X302514Y71120D02*
D03*
X294386Y70612D02*
D03*
X286512Y71120D02*
D03*
X271041Y373380D02*
D03*
X267716Y367284D02*
D03*
X370840Y221996D02*
D03*
X371348Y215646D02*
D03*
X389636Y304546D02*
D03*
X584200Y584200D02*
D03*
Y604520D02*
D03*
Y623570D02*
D03*
Y643890D02*
D03*
X604520Y320548D02*
D03*
X604266Y330708D02*
D03*
X603758Y290830D02*
D03*
X590296Y283972D02*
D03*
X533908Y256286D02*
D03*
X420878Y218440D02*
D03*
X425450Y223266D02*
D03*
X431292Y214884D02*
D03*
M02*
