G04*
G04 #@! TF.GenerationSoftware,Altium Limited,Altium Designer,23.3.1 (30)*
G04*
G04 Layer_Physical_Order=4*
G04 Layer_Color=16711680*
%FSLAX44Y44*%
%MOMM*%
G71*
G04*
G04 #@! TF.SameCoordinates,1E3CE245-77AB-4D3B-BECC-05931035AD6D*
G04*
G04*
G04 #@! TF.FilePolarity,Positive*
G04*
G01*
G75*
%ADD15R,1.0000X0.9000*%
%ADD16R,0.9000X1.0000*%
%ADD20R,0.8000X0.9000*%
%ADD21R,0.9000X0.8000*%
%ADD29R,0.9500X0.8500*%
%ADD52C,0.1270*%
%ADD53C,0.3810*%
%ADD54C,0.2540*%
%ADD55C,0.2032*%
%ADD56C,4.2000*%
%ADD57R,1.5000X1.5000*%
%ADD58C,1.5000*%
%ADD59O,1.7500X2.5000*%
%ADD60C,0.4000*%
%ADD61R,2.0000X0.6100*%
%ADD62R,3.6000X2.6800*%
%ADD63R,0.6000X1.2950*%
%ADD64R,1.3000X0.3000*%
%ADD65R,2.2000X1.8000*%
%ADD66R,3.1000X1.7000*%
%ADD67R,5.5000X1.0000*%
%ADD68C,0.3048*%
G36*
X691381Y2039D02*
X2039D01*
Y683761D01*
X691381D01*
Y2039D01*
D02*
G37*
%LPC*%
G36*
X53256Y672870D02*
X41748D01*
Y663362D01*
X53256D01*
Y672870D01*
D02*
G37*
G36*
X682406Y678216D02*
X649374D01*
Y659184D01*
X682406D01*
Y678216D01*
D02*
G37*
G36*
X53256Y662346D02*
X41748D01*
Y652838D01*
X53256D01*
Y662346D01*
D02*
G37*
G36*
X40732Y672870D02*
X29224D01*
Y665525D01*
X21590D01*
X20698Y665347D01*
X19942Y664842D01*
X19437Y664086D01*
X19259Y663194D01*
X19437Y662302D01*
X19942Y661546D01*
X20698Y661041D01*
X21590Y660863D01*
X29224D01*
Y652838D01*
X40732D01*
Y662854D01*
Y672870D01*
D02*
G37*
G36*
X672406Y650216D02*
X615374D01*
Y645573D01*
X587291D01*
X587167Y645873D01*
X586183Y646857D01*
X584896Y647390D01*
X583504D01*
X582217Y646857D01*
X581233Y645873D01*
X580700Y644586D01*
Y643194D01*
X581233Y641907D01*
X582217Y640923D01*
X583504Y640390D01*
X584896D01*
X586183Y640923D01*
X587167Y641907D01*
X587291Y642207D01*
X615374D01*
Y638184D01*
X672406D01*
Y650216D01*
D02*
G37*
G36*
X402168Y662016D02*
X400508D01*
Y640508D01*
X422016D01*
Y642168D01*
X421170Y646422D01*
X419510Y650428D01*
X417101Y654034D01*
X414034Y657101D01*
X410429Y659510D01*
X406422Y661170D01*
X402168Y662016D01*
D02*
G37*
G36*
X399492D02*
X397832D01*
X393578Y661170D01*
X389571Y659510D01*
X385966Y657101D01*
X382899Y654034D01*
X380490Y650428D01*
X378830Y646422D01*
X377984Y642168D01*
Y640508D01*
X399492D01*
Y662016D01*
D02*
G37*
G36*
X81256Y646370D02*
X66224D01*
Y636862D01*
X64954Y636355D01*
X64328Y636981D01*
X63042Y637514D01*
X61649D01*
X60363Y636981D01*
X59378Y635996D01*
X58845Y634710D01*
Y633317D01*
X59378Y632031D01*
X59450Y631959D01*
X58924Y630689D01*
X53192D01*
X53005Y631141D01*
X52021Y632125D01*
X50734Y632658D01*
X49342D01*
X48055Y632125D01*
X47071Y631141D01*
X46538Y629854D01*
Y628462D01*
X47071Y627175D01*
X48055Y626191D01*
X49342Y625658D01*
X50734D01*
X52021Y626191D01*
X53005Y627175D01*
X53066Y627323D01*
X66224D01*
Y624362D01*
X73740D01*
Y623346D01*
X66224D01*
Y620609D01*
X59509D01*
X59355Y620981D01*
X58371Y621965D01*
X57084Y622498D01*
X55692D01*
X54405Y621965D01*
X53421Y620981D01*
X52888Y619694D01*
Y618532D01*
X52630Y618076D01*
X51879Y617418D01*
X50866D01*
X49579Y616885D01*
X48595Y615901D01*
X48062Y614614D01*
Y613222D01*
X48595Y611935D01*
X49579Y610951D01*
X50866Y610418D01*
X52258D01*
X53545Y610951D01*
X54529Y611935D01*
X54627Y612173D01*
X55813D01*
X56327Y610933D01*
X56215Y610821D01*
X55682Y609534D01*
Y608142D01*
X56215Y606855D01*
X57199Y605871D01*
X58383Y605381D01*
X58625Y604872D01*
X58866Y604068D01*
X51302Y596504D01*
X50480Y596844D01*
X49088D01*
X47801Y596311D01*
X46817Y595327D01*
X46284Y594040D01*
Y592648D01*
X46817Y591361D01*
X47801Y590377D01*
X49088Y589844D01*
X50480D01*
X51767Y590377D01*
X52751Y591361D01*
X53284Y592648D01*
Y593725D01*
X61730Y602171D01*
X66224D01*
Y596338D01*
Y589362D01*
X73740D01*
Y588346D01*
X66224D01*
Y586338D01*
Y575215D01*
X65024D01*
X64380Y575087D01*
X63834Y574722D01*
X20400Y531288D01*
X20035Y530742D01*
X19907Y530098D01*
Y343916D01*
X20035Y343272D01*
X20400Y342726D01*
X187786Y175340D01*
X188332Y174975D01*
X188976Y174847D01*
X201125D01*
X201249Y174547D01*
X202233Y173563D01*
X203520Y173030D01*
X204912D01*
X206199Y173563D01*
X207183Y174547D01*
X207716Y175834D01*
Y177226D01*
X207183Y178513D01*
X206199Y179497D01*
X204912Y180030D01*
X203520D01*
X202233Y179497D01*
X201249Y178513D01*
X201125Y178213D01*
X189673D01*
X187101Y180785D01*
X187587Y181959D01*
X226017D01*
X226141Y181659D01*
X227125Y180675D01*
X228412Y180142D01*
X229804D01*
X230981Y180629D01*
X231535Y180431D01*
X232251Y180039D01*
Y179832D01*
X232379Y179188D01*
X232744Y178642D01*
X266018Y145368D01*
X266564Y145003D01*
X267208Y144875D01*
X290895D01*
X335016Y100753D01*
X334490Y99483D01*
X334300D01*
X333014Y98951D01*
X332029Y97966D01*
X331781Y97367D01*
X330421Y96952D01*
X330347Y96971D01*
X329118Y97480D01*
X327726D01*
X326439Y96947D01*
X325455Y95963D01*
X324922Y94676D01*
Y93284D01*
X325455Y91997D01*
X326439Y91013D01*
X327726Y90480D01*
X329118D01*
X329417Y90604D01*
X348587Y71435D01*
Y63241D01*
X335947D01*
Y67521D01*
X336247Y67645D01*
X337231Y68629D01*
X337764Y69916D01*
Y71308D01*
X337231Y72595D01*
X336247Y73579D01*
X334960Y74112D01*
X333568D01*
X332281Y73579D01*
X331297Y72595D01*
X331194Y72346D01*
X329819D01*
X329611Y72849D01*
X328627Y73833D01*
X327340Y74366D01*
X325948D01*
X324661Y73833D01*
X323677Y72849D01*
X323268Y71861D01*
X322426Y71831D01*
X321971Y71926D01*
X321483Y73103D01*
X320499Y74087D01*
X319212Y74620D01*
X317820D01*
X316533Y74087D01*
X315549Y73103D01*
X315016Y71816D01*
Y70424D01*
X315549Y69137D01*
X316533Y68153D01*
X316833Y68029D01*
Y63241D01*
X311954D01*
Y68339D01*
X312117Y68407D01*
X313101Y69391D01*
X313634Y70678D01*
Y72070D01*
X313101Y73357D01*
X312117Y74341D01*
X310830Y74874D01*
X309438D01*
X308151Y74341D01*
X307167Y73357D01*
X306959Y72854D01*
X305584D01*
X305481Y73103D01*
X304497Y74087D01*
X303210Y74620D01*
X301818D01*
X300531Y74087D01*
X299547Y73103D01*
X299032Y71860D01*
X298861Y71796D01*
X297744Y71651D01*
X297353Y72595D01*
X296369Y73579D01*
X295082Y74112D01*
X293690D01*
X292403Y73579D01*
X291419Y72595D01*
X291189Y72040D01*
X291156Y72034D01*
X289867Y72167D01*
X289479Y73103D01*
X288495Y74087D01*
X287208Y74620D01*
X285816D01*
X284529Y74087D01*
X283545Y73103D01*
X283012Y71816D01*
Y70424D01*
X283545Y69137D01*
X284529Y68153D01*
X284829Y68029D01*
Y63241D01*
X274254D01*
Y48259D01*
X275939D01*
Y45369D01*
X275324Y44753D01*
X274791Y43467D01*
Y42075D01*
X275324Y40788D01*
X275960Y40152D01*
Y35126D01*
X272114D01*
Y24094D01*
X284146D01*
Y35126D01*
X280622D01*
Y40152D01*
X281258Y40788D01*
X281791Y42075D01*
Y43467D01*
X281258Y44753D01*
X280601Y45410D01*
Y48259D01*
X340709D01*
Y44493D01*
X340409Y44369D01*
X339425Y43385D01*
X338892Y42098D01*
Y40706D01*
X339425Y39419D01*
X340409Y38435D01*
X341696Y37902D01*
X343088D01*
X344375Y38435D01*
X345359Y39419D01*
X345892Y40706D01*
Y42098D01*
X345359Y43385D01*
X344375Y44369D01*
X344075Y44493D01*
Y48259D01*
X379939D01*
Y42751D01*
X379303Y42115D01*
X378770Y40828D01*
Y39436D01*
X379303Y38149D01*
X379939Y37513D01*
Y35126D01*
X376254D01*
Y24094D01*
X388286D01*
Y35126D01*
X384601D01*
Y37513D01*
X385237Y38149D01*
X385770Y39436D01*
Y40828D01*
X385237Y42115D01*
X384601Y42751D01*
Y48259D01*
X397762D01*
Y55750D01*
X398778D01*
Y48259D01*
X420005D01*
Y44463D01*
X419435Y43893D01*
X418902Y42606D01*
Y41214D01*
X419435Y39927D01*
X420071Y39291D01*
Y35126D01*
X416894D01*
Y24094D01*
X428926D01*
Y35126D01*
X424733D01*
Y39291D01*
X425369Y39927D01*
X425902Y41214D01*
Y42606D01*
X425369Y43893D01*
X424667Y44595D01*
Y48259D01*
X444070D01*
Y42041D01*
X444248Y41149D01*
X444753Y40393D01*
X444884Y40262D01*
X445640Y39757D01*
X446532Y39579D01*
X447424Y39757D01*
X448180Y40262D01*
X448685Y41018D01*
X448863Y41910D01*
X448732Y42569D01*
Y48259D01*
X468008D01*
Y43698D01*
X467441Y43131D01*
X466908Y41844D01*
Y40452D01*
X467441Y39165D01*
X468077Y38529D01*
Y35126D01*
X463884D01*
Y24094D01*
X475916D01*
Y35126D01*
X472739D01*
Y38529D01*
X473375Y39165D01*
X473908Y40452D01*
Y41844D01*
X473375Y43131D01*
X472670Y43836D01*
Y48259D01*
X483882D01*
Y44586D01*
X483189Y43893D01*
X482656Y42606D01*
Y41214D01*
X483189Y39927D01*
X483825Y39291D01*
Y35126D01*
X481664D01*
Y24094D01*
X493696D01*
Y35126D01*
X488487D01*
Y39291D01*
X489123Y39927D01*
X489656Y41214D01*
Y42606D01*
X489123Y43893D01*
X488544Y44472D01*
Y48259D01*
X490286D01*
Y63241D01*
X479965D01*
Y65743D01*
X480265Y65867D01*
X481249Y66851D01*
X481782Y68138D01*
Y69530D01*
X481249Y70817D01*
X480265Y71801D01*
X478978Y72334D01*
X477586D01*
X476299Y71801D01*
X475315Y70817D01*
X474782Y69530D01*
Y68138D01*
X475315Y66851D01*
X476299Y65867D01*
X476599Y65743D01*
Y63241D01*
X463963D01*
Y65489D01*
X464263Y65613D01*
X465247Y66597D01*
X465780Y67884D01*
Y69276D01*
X465247Y70563D01*
X464263Y71547D01*
X462976Y72080D01*
X461584D01*
X460297Y71547D01*
X459313Y70563D01*
X458904Y69575D01*
X458062Y69545D01*
X457607Y69640D01*
X457119Y70817D01*
X456135Y71801D01*
X454848Y72334D01*
X453456D01*
X452169Y71801D01*
X451185Y70817D01*
X450652Y69530D01*
Y68138D01*
X451185Y66851D01*
X452169Y65867D01*
X452469Y65743D01*
Y63241D01*
X446778D01*
Y55750D01*
X445762D01*
Y63241D01*
X440087D01*
Y66251D01*
X440387Y66375D01*
X441371Y67359D01*
X441904Y68646D01*
Y70038D01*
X441371Y71325D01*
X440387Y72309D01*
X439100Y72842D01*
X437708D01*
X436421Y72309D01*
X435437Y71325D01*
X434904Y70038D01*
Y68646D01*
X435437Y67359D01*
X436421Y66375D01*
X436721Y66251D01*
Y63241D01*
X431953D01*
Y83324D01*
X431825Y83968D01*
X431460Y84514D01*
X395071Y120903D01*
X395405Y121709D01*
Y123101D01*
X394872Y124388D01*
X393887Y125372D01*
X392601Y125905D01*
X391208D01*
X389922Y125372D01*
X388938Y124388D01*
X388405Y123101D01*
Y121709D01*
X388938Y120422D01*
X389922Y119438D01*
X391208Y118905D01*
X392308D01*
X395549Y115664D01*
X395251Y114166D01*
X394765Y113965D01*
X393781Y112981D01*
X393248Y111694D01*
Y110302D01*
X393781Y109015D01*
X394765Y108031D01*
X396052Y107498D01*
X397444D01*
X397927Y107698D01*
X400121Y105504D01*
X399823Y104006D01*
X399337Y103805D01*
X398353Y102821D01*
X397820Y101534D01*
Y100142D01*
X398353Y98855D01*
X399337Y97871D01*
X400624Y97338D01*
X402016D01*
X402315Y97462D01*
X404587Y95191D01*
Y63241D01*
X400602D01*
Y69591D01*
X400603Y69596D01*
X400425Y70488D01*
X399920Y71244D01*
X399164Y71749D01*
X398272Y71927D01*
X397380Y71749D01*
X396624Y71244D01*
X396623Y71243D01*
X396118Y70487D01*
X395940Y69595D01*
Y63241D01*
X392081D01*
Y66505D01*
X392381Y66629D01*
X393365Y67613D01*
X393898Y68900D01*
Y70292D01*
X393365Y71579D01*
X392381Y72563D01*
X391094Y73096D01*
X389702D01*
X388415Y72563D01*
X387431Y71579D01*
X386898Y70292D01*
Y68900D01*
X387431Y67613D01*
X388415Y66629D01*
X388715Y66505D01*
Y63241D01*
X375953D01*
Y71191D01*
X375825Y71835D01*
X375460Y72381D01*
X345796Y102046D01*
X345919Y102346D01*
Y103738D01*
X345387Y105024D01*
X344402Y106009D01*
X343116Y106542D01*
X341723D01*
X340437Y106009D01*
X339452Y105024D01*
X338919Y103738D01*
Y103407D01*
X337649Y102881D01*
X294543Y145987D01*
X295029Y147161D01*
X341884D01*
X342528Y147289D01*
X343074Y147654D01*
X351460Y156040D01*
X351825Y156586D01*
X351953Y157230D01*
Y162819D01*
X379939D01*
Y157367D01*
X380117Y156475D01*
X380622Y155719D01*
X383383Y152958D01*
X383419Y152778D01*
X383924Y152022D01*
X384680Y151517D01*
X385572Y151339D01*
X386464Y151517D01*
X387220Y152022D01*
X387725Y152778D01*
X387903Y153670D01*
Y154065D01*
X387725Y154957D01*
X387220Y155713D01*
X384601Y158333D01*
Y162819D01*
X420005D01*
Y155260D01*
X420183Y154368D01*
X420688Y153612D01*
X420754Y153546D01*
X421510Y153041D01*
X422402Y152863D01*
X423294Y153041D01*
X424050Y153546D01*
X424555Y154302D01*
X424733Y155194D01*
X424667Y155526D01*
Y162819D01*
X468008D01*
Y157295D01*
X468186Y156403D01*
X468691Y155647D01*
X468760Y155578D01*
X469516Y155073D01*
X470408Y154895D01*
X471300Y155073D01*
X472056Y155578D01*
X472561Y156334D01*
X472739Y157226D01*
X472670Y157573D01*
Y162819D01*
X476586D01*
Y160032D01*
X476715Y159388D01*
X477080Y158842D01*
X480140Y155782D01*
X480686Y155417D01*
X481330Y155289D01*
X493522D01*
X494166Y155417D01*
X494712Y155782D01*
X552116Y213186D01*
X552481Y213732D01*
X552609Y214376D01*
Y244467D01*
X553783Y244953D01*
X629507Y169229D01*
Y105664D01*
X629635Y105020D01*
X630000Y104474D01*
X657358Y77115D01*
X656528Y75677D01*
X655948Y73511D01*
Y71269D01*
X656528Y69103D01*
X657650Y67161D01*
X659235Y65575D01*
X661177Y64454D01*
X663343Y63874D01*
X665585D01*
X667751Y64454D01*
X669693Y65575D01*
X671279Y67161D01*
X672400Y69103D01*
X672980Y71269D01*
Y73511D01*
X672400Y75677D01*
X671279Y77619D01*
X669693Y79205D01*
X667751Y80326D01*
X665585Y80906D01*
X663343D01*
X661177Y80326D01*
X659739Y79496D01*
X632873Y106361D01*
Y169926D01*
X632745Y170570D01*
X632380Y171116D01*
X554831Y248665D01*
X554767Y248987D01*
X554402Y249533D01*
X529949Y273986D01*
X529403Y274351D01*
X528759Y274479D01*
X492041D01*
X491917Y274779D01*
X490933Y275763D01*
X489646Y276296D01*
X488254D01*
X486967Y275763D01*
X485983Y274779D01*
X485450Y273492D01*
Y272100D01*
X485983Y270813D01*
X486967Y269829D01*
X488254Y269296D01*
X489646D01*
X490933Y269829D01*
X491917Y270813D01*
X492041Y271113D01*
X528062D01*
X530634Y268541D01*
X530148Y267367D01*
X528617D01*
X528493Y267667D01*
X527509Y268651D01*
X526222Y269184D01*
X524830D01*
X523543Y268651D01*
X522559Y267667D01*
X522026Y266380D01*
Y264988D01*
X522559Y263701D01*
X523543Y262717D01*
X524830Y262184D01*
X526222D01*
X527509Y262717D01*
X528493Y263701D01*
X528617Y264001D01*
X531941D01*
X534982Y260959D01*
X534827Y260476D01*
X534359Y259786D01*
X533212D01*
X531925Y259253D01*
X530941Y258269D01*
X530680Y257639D01*
X529305D01*
X529255Y257761D01*
X528271Y258745D01*
X526984Y259278D01*
X525592D01*
X524305Y258745D01*
X523321Y257761D01*
X522788Y256474D01*
Y255082D01*
X523321Y253795D01*
X524305Y252811D01*
X525592Y252278D01*
X526984D01*
X527284Y252402D01*
X543401Y236285D01*
Y216415D01*
X513073Y186087D01*
X459232D01*
X458588Y185959D01*
X458042Y185594D01*
X453080Y180632D01*
X452715Y180086D01*
X452587Y179442D01*
Y177801D01*
X448601D01*
Y180351D01*
X448769Y180421D01*
X449753Y181405D01*
X450286Y182692D01*
Y184084D01*
X449753Y185371D01*
X449117Y186007D01*
Y192204D01*
X453056D01*
Y203236D01*
X441024D01*
Y192204D01*
X444455D01*
Y186007D01*
X443819Y185371D01*
X443286Y184084D01*
Y182692D01*
X443819Y181405D01*
X443939Y181285D01*
Y177801D01*
X440016D01*
Y179535D01*
X440316Y179659D01*
X441300Y180643D01*
X441833Y181930D01*
Y183322D01*
X441300Y184609D01*
X440316Y185593D01*
X439029Y186126D01*
X437637D01*
X436350Y185593D01*
X435366Y184609D01*
X434949Y183603D01*
X433660D01*
X433243Y184609D01*
X432259Y185593D01*
X430972Y186126D01*
X429580D01*
X428293Y185593D01*
X427309Y184609D01*
X426776Y183322D01*
Y181930D01*
X427309Y180643D01*
X428293Y179659D01*
X428593Y179535D01*
Y177801D01*
X422778D01*
Y170310D01*
X421762D01*
Y177801D01*
X415957D01*
Y183199D01*
X432482Y199724D01*
X432847Y200270D01*
X432975Y200914D01*
Y211793D01*
X433275Y211917D01*
X434259Y212901D01*
X434792Y214188D01*
Y215580D01*
X434259Y216867D01*
X433275Y217851D01*
X431988Y218384D01*
X430596D01*
X429309Y217851D01*
X428403Y216945D01*
X428024Y216978D01*
X427133Y217309D01*
Y220175D01*
X427433Y220299D01*
X428417Y221283D01*
X428950Y222570D01*
Y223962D01*
X428417Y225249D01*
X427433Y226233D01*
X426146Y226766D01*
X424754D01*
X423467Y226233D01*
X422483Y225249D01*
X421950Y223962D01*
Y223113D01*
X421737Y222450D01*
X420836Y221940D01*
X420182D01*
X418895Y221407D01*
X417911Y220423D01*
X417378Y219136D01*
Y217744D01*
X417911Y216457D01*
X418895Y215473D01*
X418914Y215465D01*
X419059Y214175D01*
X410686Y205802D01*
X406828D01*
Y210604D01*
X400812D01*
Y211112D01*
X400304D01*
Y216628D01*
X395018D01*
Y247969D01*
X395418Y248274D01*
X396288Y248642D01*
X397322Y248214D01*
X398714D01*
X400001Y248747D01*
X400985Y249731D01*
X401518Y251018D01*
Y251777D01*
X402289Y252657D01*
X402691Y252786D01*
X403794D01*
X405081Y253319D01*
X406065Y254303D01*
X406598Y255590D01*
Y256982D01*
X406065Y258269D01*
X405081Y259253D01*
X403794Y259786D01*
X402402D01*
X401115Y259253D01*
X400131Y258269D01*
X399598Y256982D01*
Y256223D01*
X398827Y255343D01*
X398425Y255214D01*
X397322D01*
X396288Y254786D01*
X395418Y255154D01*
X395018Y255459D01*
Y300848D01*
X394960Y301140D01*
X394889Y301493D01*
X394889Y301493D01*
X394524Y302039D01*
X393012Y303551D01*
X393136Y303850D01*
Y305242D01*
X392603Y306529D01*
X391619Y307513D01*
X390332Y308046D01*
X389693D01*
X389167Y309316D01*
X438593Y358743D01*
X440910D01*
X441163Y357473D01*
X440739Y357297D01*
X439755Y356313D01*
X439222Y355026D01*
Y353634D01*
X439755Y352347D01*
X440739Y351363D01*
X442026Y350830D01*
X443418D01*
X444705Y351363D01*
X445689Y352347D01*
X446222Y353634D01*
Y355026D01*
X445689Y356313D01*
X444705Y357297D01*
X444281Y357473D01*
X444534Y358743D01*
X468079D01*
X468203Y358443D01*
X469187Y357459D01*
X470474Y356926D01*
X471345D01*
X471875Y355659D01*
X465555Y349339D01*
X465255Y349463D01*
X463863D01*
X462576Y348931D01*
X461592Y347946D01*
X461059Y346660D01*
Y345267D01*
X461592Y343981D01*
X462576Y342996D01*
X463863Y342463D01*
X465255D01*
X466542Y342996D01*
X467526Y343981D01*
X467533Y343998D01*
X467883Y344139D01*
X468989Y344195D01*
X469695Y343489D01*
X470982Y342956D01*
X472374D01*
X473661Y343489D01*
X474645Y344473D01*
X475178Y345760D01*
Y347152D01*
X475054Y347452D01*
X493188Y365586D01*
X493553Y366132D01*
X493681Y366776D01*
Y381852D01*
X494951Y382454D01*
X495874Y382072D01*
X497266D01*
X498553Y382605D01*
X499537Y383589D01*
X500070Y384876D01*
Y386268D01*
X499537Y387555D01*
X498553Y388539D01*
X497266Y389072D01*
X495874D01*
X494951Y388690D01*
X493681Y389292D01*
Y409385D01*
X493553Y410029D01*
X493188Y410575D01*
X492787Y410976D01*
X493085Y412474D01*
X493571Y412675D01*
X494555Y413660D01*
X495088Y414946D01*
Y416338D01*
X494887Y416824D01*
X495736Y418094D01*
X621180D01*
X641916Y397357D01*
X641552Y395925D01*
X640891Y395651D01*
X639907Y394667D01*
X639374Y393380D01*
Y391988D01*
X639907Y390701D01*
X640891Y389717D01*
X642178Y389184D01*
X643570D01*
X643869Y389308D01*
X645883Y387294D01*
X645827Y386813D01*
X645468Y385914D01*
X644447Y385491D01*
X643463Y384507D01*
X642930Y383220D01*
Y381828D01*
X643463Y380541D01*
X644447Y379557D01*
X645734Y379024D01*
X647126D01*
X647426Y379148D01*
X675227Y351347D01*
Y187133D01*
X669189Y181096D01*
X667751Y181926D01*
X665585Y182506D01*
X663343D01*
X661177Y181926D01*
X659235Y180805D01*
X657650Y179219D01*
X656528Y177277D01*
X655948Y175111D01*
Y172869D01*
X656528Y170703D01*
X657650Y168761D01*
X659235Y167176D01*
X661177Y166054D01*
X663343Y165474D01*
X665585D01*
X667751Y166054D01*
X669693Y167176D01*
X671279Y168761D01*
X672400Y170703D01*
X672980Y172869D01*
Y175111D01*
X672400Y177277D01*
X671570Y178715D01*
X676339Y183485D01*
X677513Y182999D01*
Y164019D01*
X669189Y155695D01*
X667751Y156526D01*
X665585Y157106D01*
X663343D01*
X661177Y156526D01*
X659235Y155405D01*
X657650Y153819D01*
X656528Y151877D01*
X655948Y149711D01*
Y147469D01*
X656528Y145303D01*
X657650Y143361D01*
X659235Y141776D01*
X661177Y140654D01*
X663343Y140074D01*
X665585D01*
X667751Y140654D01*
X669693Y141776D01*
X671279Y143361D01*
X672400Y145303D01*
X672980Y147469D01*
Y149711D01*
X672400Y151877D01*
X671570Y153315D01*
X678625Y160371D01*
X679799Y159885D01*
Y140905D01*
X669189Y130295D01*
X667751Y131126D01*
X665585Y131706D01*
X663343D01*
X661177Y131126D01*
X659235Y130005D01*
X657650Y128419D01*
X656528Y126477D01*
X655948Y124311D01*
Y122069D01*
X656528Y119903D01*
X657650Y117961D01*
X659235Y116376D01*
X661177Y115254D01*
X663343Y114674D01*
X665585D01*
X667751Y115254D01*
X669693Y116376D01*
X671279Y117961D01*
X672400Y119903D01*
X672980Y122069D01*
Y124311D01*
X672400Y126477D01*
X671570Y127915D01*
X682672Y139018D01*
X683037Y139564D01*
X683165Y140208D01*
Y360172D01*
X683037Y360816D01*
X682672Y361362D01*
X628830Y415204D01*
X629356Y416474D01*
X629760Y416474D01*
X647252D01*
Y430890D01*
Y445306D01*
X628744D01*
Y433623D01*
X622046D01*
X621154Y433445D01*
X620398Y432940D01*
X619893Y432184D01*
X619715Y431292D01*
X619893Y430400D01*
X620398Y429644D01*
X621154Y429139D01*
X622046Y428961D01*
X628744D01*
Y417521D01*
X628744Y417087D01*
X627474Y416561D01*
X623067Y420967D01*
X622521Y421332D01*
X621877Y421460D01*
X492487D01*
X492068Y421970D01*
X492007Y423320D01*
X492991Y424304D01*
X493524Y425590D01*
Y426983D01*
X492991Y428269D01*
X492007Y429254D01*
X490720Y429787D01*
X489328D01*
X488755Y429549D01*
X475139Y443165D01*
Y478213D01*
X475011Y478857D01*
X474646Y479403D01*
X389304Y564745D01*
X388758Y565110D01*
X388114Y565238D01*
X359240D01*
X358391Y566508D01*
X358592Y566994D01*
Y568386D01*
X358059Y569673D01*
X357075Y570657D01*
X355788Y571190D01*
X354396D01*
X353109Y570657D01*
X352989Y570537D01*
X262323D01*
X261793Y571803D01*
X262326Y573090D01*
Y574482D01*
X261793Y575769D01*
X260809Y576753D01*
X259522Y577286D01*
X258130D01*
X257831Y577162D01*
X254949Y580044D01*
X254402Y580409D01*
X253758Y580537D01*
X81256D01*
Y582171D01*
X302925D01*
X306250Y578845D01*
X306126Y578546D01*
Y577154D01*
X306659Y575867D01*
X307643Y574883D01*
X308930Y574350D01*
X310322D01*
X311609Y574883D01*
X312593Y575867D01*
X313126Y577154D01*
Y578546D01*
X312593Y579833D01*
X311609Y580817D01*
X310322Y581350D01*
X308930D01*
X308631Y581226D01*
X304812Y585044D01*
X304266Y585409D01*
X303622Y585537D01*
X88046D01*
X87661Y586807D01*
X87754Y586870D01*
X88259Y587626D01*
X88437Y588518D01*
X88259Y589410D01*
X87754Y590166D01*
X87586Y590334D01*
X87120Y590646D01*
X87433Y591916D01*
X391011D01*
X391241Y591361D01*
X392225Y590377D01*
X393512Y589844D01*
X394904D01*
X396191Y590377D01*
X397175Y591361D01*
X397708Y592648D01*
Y594040D01*
X397175Y595327D01*
X396191Y596311D01*
X394904Y596844D01*
X393512D01*
X392225Y596311D01*
X391241Y595327D01*
X391222Y595282D01*
X262948D01*
X262422Y596552D01*
X262512Y596642D01*
X263045Y597929D01*
Y599321D01*
X262512Y600607D01*
X261528Y601592D01*
X260241Y602125D01*
X258849D01*
X257563Y601592D01*
X256578Y600607D01*
X256501Y600423D01*
X81256D01*
Y611338D01*
Y621508D01*
X86793D01*
X86868Y621493D01*
X87760Y621671D01*
X88516Y622176D01*
X89021Y622932D01*
X89199Y623824D01*
X89021Y624716D01*
X88516Y625472D01*
X88501Y625487D01*
X87745Y625992D01*
X86853Y626170D01*
X81256D01*
Y637171D01*
X254275D01*
X277548Y613898D01*
X277424Y613598D01*
Y612206D01*
X277957Y610919D01*
X278941Y609935D01*
X280228Y609402D01*
X281620D01*
X282907Y609935D01*
X283891Y610919D01*
X284424Y612206D01*
Y613099D01*
X285675Y613645D01*
X288978Y610341D01*
X288854Y610042D01*
Y608650D01*
X289387Y607363D01*
X290371Y606379D01*
X291658Y605846D01*
X293050D01*
X294337Y606379D01*
X295321Y607363D01*
X295854Y608650D01*
Y610042D01*
X295321Y611329D01*
X294337Y612313D01*
X293050Y612846D01*
X291658D01*
X291359Y612722D01*
X259036Y645044D01*
X258490Y645409D01*
X257846Y645537D01*
X81256D01*
Y646370D01*
D02*
G37*
G36*
X672406Y630216D02*
X615374D01*
Y625253D01*
X587291D01*
X587167Y625553D01*
X586183Y626537D01*
X584896Y627070D01*
X583504D01*
X582217Y626537D01*
X581233Y625553D01*
X580700Y624266D01*
Y622874D01*
X581233Y621587D01*
X582217Y620603D01*
X583504Y620070D01*
X584896D01*
X586183Y620603D01*
X587167Y621587D01*
X587291Y621887D01*
X615374D01*
Y618184D01*
X672406D01*
Y630216D01*
D02*
G37*
G36*
X422016Y639492D02*
X400508D01*
Y617984D01*
X402168D01*
X406422Y618830D01*
X410429Y620490D01*
X414034Y622899D01*
X417101Y625966D01*
X419510Y629571D01*
X421170Y633578D01*
X422016Y637832D01*
Y639492D01*
D02*
G37*
G36*
X399492D02*
X377984D01*
Y637832D01*
X378830Y633578D01*
X380490Y629571D01*
X382899Y625966D01*
X385966Y622899D01*
X389571Y620490D01*
X393578Y618830D01*
X397832Y617984D01*
X399492D01*
Y639492D01*
D02*
G37*
G36*
X672406Y610216D02*
X615374D01*
Y606203D01*
X587291D01*
X587167Y606503D01*
X586183Y607487D01*
X584896Y608020D01*
X583504D01*
X582217Y607487D01*
X581233Y606503D01*
X580700Y605216D01*
Y603824D01*
X581233Y602537D01*
X582217Y601553D01*
X583504Y601020D01*
X584896D01*
X586183Y601553D01*
X587167Y602537D01*
X587291Y602837D01*
X615374D01*
Y598184D01*
X672406D01*
Y610216D01*
D02*
G37*
G36*
Y590216D02*
X615374D01*
Y585883D01*
X587291D01*
X587167Y586183D01*
X586183Y587167D01*
X584896Y587700D01*
X583504D01*
X582217Y587167D01*
X581233Y586183D01*
X580700Y584896D01*
Y583504D01*
X581233Y582217D01*
X582217Y581233D01*
X583504Y580700D01*
X584896D01*
X586183Y581233D01*
X587167Y582217D01*
X587291Y582517D01*
X615374D01*
Y578184D01*
X672406D01*
Y590216D01*
D02*
G37*
G36*
Y570216D02*
X644398D01*
Y564708D01*
X672406D01*
Y570216D01*
D02*
G37*
G36*
Y563692D02*
X644398D01*
Y558184D01*
X672406D01*
Y563692D01*
D02*
G37*
G36*
X643382Y570216D02*
X615374D01*
Y566465D01*
X607568D01*
X606676Y566287D01*
X605920Y565782D01*
X605415Y565026D01*
X605237Y564134D01*
X605415Y563242D01*
X605920Y562486D01*
X606676Y561981D01*
X607568Y561803D01*
X615374D01*
Y558184D01*
X643382D01*
Y564200D01*
Y570216D01*
D02*
G37*
G36*
X672406Y550216D02*
X615374D01*
Y546653D01*
X608917D01*
X608281Y547289D01*
X606994Y547822D01*
X605602D01*
X604315Y547289D01*
X603331Y546305D01*
X602798Y545018D01*
Y544118D01*
X599520Y540841D01*
X596574D01*
Y543526D01*
X585542D01*
Y533494D01*
X596574D01*
Y536179D01*
X600486D01*
X601378Y536357D01*
X602134Y536862D01*
X606094Y540822D01*
X606994D01*
X608281Y541355D01*
X608917Y541991D01*
X615374D01*
Y538184D01*
X672406D01*
Y550216D01*
D02*
G37*
G36*
X452054Y579572D02*
X450662D01*
X449375Y579039D01*
X448391Y578055D01*
X447858Y576768D01*
Y575376D01*
X448391Y574089D01*
X449375Y573105D01*
X450662Y572572D01*
X452054D01*
X452354Y572696D01*
X456743Y568306D01*
X456744Y568306D01*
X464204Y560845D01*
X464210Y560816D01*
X464575Y560270D01*
X521835Y503010D01*
X522381Y502645D01*
X523025Y502517D01*
X542938D01*
X543261Y501586D01*
X543287Y501247D01*
X542371Y500331D01*
X541838Y499044D01*
Y497652D01*
X542371Y496365D01*
X543355Y495381D01*
X544642Y494848D01*
X546034D01*
X547321Y495381D01*
X548305Y496365D01*
X548838Y497652D01*
Y499044D01*
X548305Y500331D01*
X547389Y501247D01*
X547415Y501586D01*
X547738Y502517D01*
X585542D01*
Y499062D01*
X596574D01*
Y502517D01*
X615374D01*
Y498184D01*
X672406D01*
Y510216D01*
X615374D01*
Y505883D01*
X596574D01*
Y509094D01*
X585542D01*
Y505883D01*
X523722D01*
X507495Y522110D01*
X508390Y523010D01*
X508936Y522645D01*
X509580Y522517D01*
X585542D01*
Y519494D01*
X596574D01*
Y522517D01*
X615374D01*
Y518184D01*
X672406D01*
Y530216D01*
X615374D01*
Y525883D01*
X596574D01*
Y529526D01*
X585542D01*
Y525883D01*
X510278D01*
X473276Y562885D01*
X473400Y563184D01*
Y564576D01*
X472867Y565863D01*
X471883Y566847D01*
X470596Y567380D01*
X469204D01*
X467917Y566847D01*
X466933Y565863D01*
X466585Y565022D01*
X465227Y564584D01*
X459124Y570687D01*
X459124Y570687D01*
X454734Y575076D01*
X454858Y575376D01*
Y576768D01*
X454325Y578055D01*
X453341Y579039D01*
X452054Y579572D01*
D02*
G37*
G36*
X476692Y507944D02*
X475300D01*
X474013Y507411D01*
X473029Y506427D01*
X472496Y505140D01*
Y503748D01*
X473029Y502461D01*
X474013Y501477D01*
X475300Y500944D01*
X476692D01*
X477979Y501477D01*
X478963Y502461D01*
X479496Y503748D01*
Y505140D01*
X478963Y506427D01*
X477979Y507411D01*
X476692Y507944D01*
D02*
G37*
G36*
X596574Y495094D02*
X585542D01*
Y485062D01*
X588727D01*
Y482933D01*
X588091Y482297D01*
X587558Y481010D01*
Y479618D01*
X588091Y478331D01*
X589075Y477347D01*
X590362Y476814D01*
X591754D01*
X593041Y477347D01*
X594025Y478331D01*
X594558Y479618D01*
Y481010D01*
X594025Y482297D01*
X593389Y482933D01*
Y485062D01*
X596574D01*
Y495094D01*
D02*
G37*
G36*
X682406Y489216D02*
X649374D01*
Y470184D01*
X682406D01*
Y489216D01*
D02*
G37*
G36*
X524698Y469844D02*
X523306D01*
X522019Y469311D01*
X521035Y468327D01*
X520502Y467040D01*
Y465648D01*
X521035Y464361D01*
X522019Y463377D01*
X523306Y462844D01*
X524698D01*
X525985Y463377D01*
X526969Y464361D01*
X527502Y465648D01*
Y467040D01*
X526969Y468327D01*
X525985Y469311D01*
X524698Y469844D01*
D02*
G37*
G36*
X666776Y445306D02*
X648268D01*
Y431398D01*
X666776D01*
Y445306D01*
D02*
G37*
G36*
Y430382D02*
X648268D01*
Y416474D01*
X666776D01*
Y430382D01*
D02*
G37*
G36*
X619252Y405056D02*
X608744D01*
Y403359D01*
X603950D01*
X603758Y403397D01*
X602866Y403219D01*
X602110Y402714D01*
X601605Y401958D01*
X601427Y401066D01*
X601605Y400174D01*
X602110Y399418D01*
X602148Y399380D01*
X602904Y398875D01*
X603796Y398697D01*
X608744D01*
Y396924D01*
X619252D01*
Y400990D01*
Y405056D01*
D02*
G37*
G36*
X630776D02*
X620268D01*
Y401498D01*
X630776D01*
Y405056D01*
D02*
G37*
G36*
X524444Y404058D02*
X523052D01*
X521765Y403525D01*
X520781Y402541D01*
X520248Y401254D01*
Y399862D01*
X520781Y398575D01*
X521765Y397591D01*
X523052Y397058D01*
X524444D01*
X525731Y397591D01*
X526715Y398575D01*
X527248Y399862D01*
Y401254D01*
X526715Y402541D01*
X525731Y403525D01*
X524444Y404058D01*
D02*
G37*
G36*
X630776Y400482D02*
X620268D01*
Y396924D01*
X630776D01*
Y400482D01*
D02*
G37*
G36*
Y395056D02*
X608744D01*
Y393427D01*
X607550Y393157D01*
X607474Y393156D01*
X606503Y394127D01*
X605216Y394660D01*
X603824D01*
X602537Y394127D01*
X601553Y393143D01*
X601020Y391856D01*
Y390464D01*
X601553Y389177D01*
X602537Y388193D01*
X603824Y387660D01*
X605216D01*
X606503Y388193D01*
X607474Y389164D01*
X607550Y389163D01*
X608744Y388893D01*
Y386924D01*
X630776D01*
Y395056D01*
D02*
G37*
G36*
Y385056D02*
X608744D01*
Y383267D01*
X607550Y382997D01*
X607474Y382996D01*
X606503Y383967D01*
X605216Y384500D01*
X603824D01*
X602537Y383967D01*
X601553Y382983D01*
X601020Y381696D01*
Y380304D01*
X601553Y379017D01*
X602537Y378033D01*
X603824Y377500D01*
X605216D01*
X606503Y378033D01*
X607474Y379004D01*
X607550Y379003D01*
X608744Y378733D01*
Y376924D01*
X630776D01*
Y385056D01*
D02*
G37*
G36*
Y375056D02*
X620268D01*
Y371498D01*
X630776D01*
Y375056D01*
D02*
G37*
G36*
Y370482D02*
X620268D01*
Y366924D01*
X630776D01*
Y370482D01*
D02*
G37*
G36*
X619252Y375056D02*
X608744D01*
Y373246D01*
X604341D01*
X603449Y373068D01*
X602693Y372563D01*
X602618Y372488D01*
X602113Y371732D01*
X601935Y370840D01*
X602113Y369948D01*
X602618Y369192D01*
X603374Y368687D01*
X604266Y368509D01*
X604643Y368584D01*
X608744D01*
Y366924D01*
X619252D01*
Y370990D01*
Y375056D01*
D02*
G37*
G36*
X630776Y365056D02*
X608744D01*
Y362947D01*
X607550Y362677D01*
X607474Y362676D01*
X606503Y363647D01*
X605216Y364180D01*
X603824D01*
X602537Y363647D01*
X601553Y362663D01*
X601020Y361376D01*
Y359984D01*
X601553Y358697D01*
X602537Y357713D01*
X603824Y357180D01*
X605216D01*
X606503Y357713D01*
X607474Y358684D01*
X607550Y358683D01*
X608744Y358413D01*
Y356924D01*
X630776D01*
Y365056D01*
D02*
G37*
G36*
Y355056D02*
X608744D01*
Y353295D01*
X607550Y353025D01*
X607474Y353024D01*
X606503Y353995D01*
X605216Y354528D01*
X603824D01*
X602537Y353995D01*
X601553Y353011D01*
X601020Y351724D01*
Y350332D01*
X601553Y349045D01*
X602537Y348061D01*
X603824Y347528D01*
X605216D01*
X606503Y348061D01*
X607474Y349032D01*
X607550Y349031D01*
X608744Y348761D01*
Y346924D01*
X630776D01*
Y355056D01*
D02*
G37*
G36*
X544624Y346638D02*
X534592D01*
Y342686D01*
X527134D01*
X526239Y343581D01*
X524952Y344114D01*
X523560D01*
X522273Y343581D01*
X521289Y342597D01*
X520756Y341310D01*
Y339918D01*
X521289Y338631D01*
X522273Y337647D01*
X523560Y337114D01*
X524952D01*
X526239Y337647D01*
X527134Y338542D01*
X534592D01*
Y335606D01*
X537424D01*
Y331906D01*
X534480D01*
Y320874D01*
X544512D01*
Y331906D01*
X541568D01*
Y335606D01*
X544624D01*
Y346638D01*
D02*
G37*
G36*
X553466Y353613D02*
X552574Y353435D01*
X551818Y352930D01*
X551313Y352174D01*
X551135Y351282D01*
Y346638D01*
X548592D01*
Y341630D01*
X553608D01*
X558624D01*
Y346638D01*
X555797D01*
Y351282D01*
X555619Y352174D01*
X555114Y352930D01*
X554358Y353435D01*
X553466Y353613D01*
D02*
G37*
G36*
X630776Y345056D02*
X620268D01*
Y341498D01*
X630776D01*
Y345056D01*
D02*
G37*
G36*
Y340482D02*
X620268D01*
Y336924D01*
X630776D01*
Y340482D01*
D02*
G37*
G36*
X619252Y345056D02*
X608744D01*
Y343133D01*
X604200D01*
X603308Y342955D01*
X602552Y342450D01*
X602364Y342262D01*
X601859Y341506D01*
X601681Y340614D01*
X601859Y339722D01*
X602364Y338966D01*
X603120Y338461D01*
X604012Y338283D01*
X604904Y338461D01*
X604920Y338471D01*
X608744D01*
Y336924D01*
X619252D01*
Y340990D01*
Y345056D01*
D02*
G37*
G36*
X558624Y340614D02*
X554116D01*
Y335606D01*
X558624D01*
Y340614D01*
D02*
G37*
G36*
X553100D02*
X548592D01*
Y335606D01*
X553100D01*
Y340614D01*
D02*
G37*
G36*
X630776Y335056D02*
X608744D01*
Y332391D01*
X607357D01*
X607233Y332691D01*
X606249Y333675D01*
X604962Y334208D01*
X603570D01*
X602283Y333675D01*
X601299Y332691D01*
X600766Y331404D01*
Y330012D01*
X601299Y328725D01*
X602283Y327741D01*
X603570Y327208D01*
X604962D01*
X606249Y327741D01*
X607233Y328725D01*
X607357Y329025D01*
X608744D01*
Y326924D01*
X630776D01*
Y335056D01*
D02*
G37*
G36*
X552988Y331906D02*
X548480D01*
Y326898D01*
X552988D01*
Y331906D01*
D02*
G37*
G36*
X630776Y325056D02*
X608744D01*
Y322815D01*
X607550Y322545D01*
X607474Y322544D01*
X606503Y323515D01*
X605216Y324048D01*
X603824D01*
X602537Y323515D01*
X601553Y322531D01*
X601020Y321244D01*
Y319852D01*
X601553Y318565D01*
X602537Y317581D01*
X603824Y317048D01*
X605216D01*
X606503Y317581D01*
X607474Y318552D01*
X607550Y318551D01*
X608744Y318281D01*
Y316924D01*
X630776D01*
Y325056D01*
D02*
G37*
G36*
X558512Y331906D02*
X554004D01*
Y326390D01*
Y320874D01*
X558512D01*
Y323805D01*
X565150D01*
X566042Y323983D01*
X566798Y324488D01*
X567303Y325244D01*
X567481Y326136D01*
X567303Y327028D01*
X566798Y327784D01*
X566042Y328289D01*
X565150Y328467D01*
X558512D01*
Y331906D01*
D02*
G37*
G36*
X552988Y325882D02*
X548480D01*
Y320874D01*
X552988D01*
Y325882D01*
D02*
G37*
G36*
X630776Y315056D02*
X620268D01*
Y311498D01*
X630776D01*
Y315056D01*
D02*
G37*
G36*
Y310482D02*
X620268D01*
Y306924D01*
X630776D01*
Y310482D01*
D02*
G37*
G36*
X619252Y315056D02*
X608744D01*
Y313274D01*
X603551D01*
X602659Y313096D01*
X601903Y312591D01*
X601856Y312544D01*
X601351Y311788D01*
X601173Y310896D01*
X601351Y310004D01*
X601856Y309248D01*
X602612Y308743D01*
X603504Y308565D01*
X603740Y308612D01*
X608744D01*
Y306924D01*
X619252D01*
Y310990D01*
Y315056D01*
D02*
G37*
G36*
X553212Y312086D02*
X548204D01*
Y306578D01*
X553212D01*
Y312086D01*
D02*
G37*
G36*
X559236D02*
X554228D01*
Y306070D01*
Y300054D01*
X559236D01*
Y303739D01*
X567182D01*
X568074Y303917D01*
X568830Y304422D01*
X569335Y305178D01*
X569513Y306070D01*
X569335Y306962D01*
X568830Y307718D01*
X568074Y308223D01*
X567182Y308401D01*
X559236D01*
Y312086D01*
D02*
G37*
G36*
X553212Y305562D02*
X548204D01*
Y300054D01*
X553212D01*
Y305562D01*
D02*
G37*
G36*
X530540Y314396D02*
X529148D01*
X527861Y313863D01*
X526877Y312879D01*
X526344Y311592D01*
Y310200D01*
X525500Y308919D01*
X524559Y308529D01*
X523575Y307545D01*
X523042Y306258D01*
Y304866D01*
X523575Y303579D01*
X524559Y302595D01*
X525846Y302062D01*
X527238D01*
X528525Y302595D01*
X529161Y303231D01*
X534704D01*
Y300054D01*
X545736D01*
Y312086D01*
X534704D01*
Y308258D01*
X533434Y308094D01*
X533279Y308297D01*
X532915Y309163D01*
X533344Y310200D01*
Y311592D01*
X532811Y312879D01*
X531827Y313863D01*
X530540Y314396D01*
D02*
G37*
G36*
X630776Y305056D02*
X608744D01*
Y302673D01*
X596900D01*
X596256Y302545D01*
X595710Y302180D01*
X589106Y295576D01*
X588741Y295030D01*
X588613Y294386D01*
Y287063D01*
X588313Y286939D01*
X587329Y285955D01*
X586796Y284668D01*
Y283276D01*
X587329Y281989D01*
X588313Y281005D01*
X589600Y280472D01*
X590992D01*
X592279Y281005D01*
X593263Y281989D01*
X593796Y283276D01*
Y284668D01*
X593263Y285955D01*
X592279Y286939D01*
X591979Y287063D01*
Y293689D01*
X597597Y299307D01*
X608744D01*
Y296924D01*
X630776D01*
Y305056D01*
D02*
G37*
G36*
Y295056D02*
X608744D01*
Y292513D01*
X606849D01*
X606725Y292813D01*
X605741Y293797D01*
X604454Y294330D01*
X603062D01*
X601775Y293797D01*
X600791Y292813D01*
X600258Y291526D01*
Y290134D01*
X600791Y288847D01*
X601775Y287863D01*
X603062Y287330D01*
X604454D01*
X605741Y287863D01*
X606725Y288847D01*
X606849Y289147D01*
X608744D01*
Y286924D01*
X630776D01*
Y295056D01*
D02*
G37*
G36*
X493054Y304483D02*
X491661D01*
X490375Y303950D01*
X489390Y302966D01*
X488858Y301679D01*
Y300287D01*
X489390Y299000D01*
X490335Y298055D01*
X490346Y297994D01*
X490339Y297775D01*
X490181Y296721D01*
X489253Y296337D01*
X488269Y295353D01*
X487736Y294066D01*
Y292674D01*
X488269Y291387D01*
X489253Y290403D01*
X490540Y289870D01*
X491932D01*
X493219Y290403D01*
X494203Y291387D01*
X494736Y292674D01*
Y294066D01*
X494203Y295353D01*
X493258Y296297D01*
X493248Y296358D01*
X493255Y296578D01*
X493413Y297631D01*
X494340Y298016D01*
X495325Y299000D01*
X495858Y300287D01*
Y301679D01*
X495325Y302966D01*
X494340Y303950D01*
X493054Y304483D01*
D02*
G37*
G36*
X526222Y293822D02*
X524830D01*
X523543Y293289D01*
X522559Y292305D01*
X522026Y291018D01*
Y289626D01*
X522559Y288339D01*
X523543Y287355D01*
X524830Y286822D01*
X526222D01*
X527509Y287355D01*
X528493Y288339D01*
X529026Y289626D01*
Y291018D01*
X528493Y292305D01*
X527509Y293289D01*
X526222Y293822D01*
D02*
G37*
G36*
X630776Y285056D02*
X620268D01*
Y281498D01*
X630776D01*
Y285056D01*
D02*
G37*
G36*
Y280482D02*
X620268D01*
Y276924D01*
X630776D01*
Y280482D01*
D02*
G37*
G36*
X619252Y285056D02*
X608744D01*
Y283161D01*
X602394D01*
X601502Y282983D01*
X600746Y282478D01*
X600586Y282318D01*
X600081Y281562D01*
X599903Y280670D01*
X600081Y279778D01*
X600586Y279022D01*
X601342Y278517D01*
X602234Y278339D01*
X603038Y278499D01*
X608744D01*
Y276924D01*
X619252D01*
Y280990D01*
Y285056D01*
D02*
G37*
G36*
X630776Y275056D02*
X608744D01*
Y273335D01*
X605121D01*
X604471Y273985D01*
X603184Y274518D01*
X601792D01*
X600505Y273985D01*
X599521Y273001D01*
X598988Y271714D01*
Y270322D01*
X599521Y269035D01*
X600505Y268051D01*
X601792Y267518D01*
X603184D01*
X604471Y268051D01*
X605093Y268673D01*
X608744D01*
Y266924D01*
X630776D01*
Y275056D01*
D02*
G37*
G36*
Y265056D02*
X608744D01*
Y263382D01*
X605422D01*
X604725Y264079D01*
X603438Y264612D01*
X602046D01*
X600759Y264079D01*
X599775Y263095D01*
X599242Y261808D01*
Y260416D01*
X599775Y259129D01*
X600759Y258145D01*
X602046Y257612D01*
X603438D01*
X604725Y258145D01*
X605300Y258720D01*
X608744D01*
Y256924D01*
X630776D01*
Y265056D01*
D02*
G37*
G36*
X666776Y245506D02*
X648268D01*
Y231598D01*
X666776D01*
Y245506D01*
D02*
G37*
G36*
X647252D02*
X628744D01*
Y231598D01*
X647252D01*
Y245506D01*
D02*
G37*
G36*
X52168Y242016D02*
X50508D01*
Y220508D01*
X72016D01*
Y222168D01*
X71170Y226422D01*
X69510Y230429D01*
X67101Y234034D01*
X64034Y237101D01*
X60429Y239510D01*
X56422Y241170D01*
X52168Y242016D01*
D02*
G37*
G36*
X49492D02*
X47832D01*
X43578Y241170D01*
X39571Y239510D01*
X35966Y237101D01*
X32899Y234034D01*
X30490Y230429D01*
X28830Y226422D01*
X27984Y222168D01*
Y220508D01*
X49492D01*
Y242016D01*
D02*
G37*
G36*
X411668Y226258D02*
X410276D01*
X408989Y225725D01*
X408005Y224741D01*
X407472Y223454D01*
Y222062D01*
X408005Y220775D01*
X408989Y219791D01*
X410276Y219258D01*
X411668D01*
X412955Y219791D01*
X413939Y220775D01*
X414472Y222062D01*
Y223454D01*
X413939Y224741D01*
X412955Y225725D01*
X411668Y226258D01*
D02*
G37*
G36*
X467111Y225496D02*
X465719D01*
X464432Y224963D01*
X463448Y223979D01*
X462915Y222692D01*
Y221300D01*
X463448Y220013D01*
X464432Y219029D01*
X465719Y218496D01*
X467111D01*
X468398Y219029D01*
X469382Y220013D01*
X469915Y221300D01*
Y222692D01*
X469382Y223979D01*
X468398Y224963D01*
X467111Y225496D01*
D02*
G37*
G36*
X406828Y216628D02*
X401320D01*
Y211620D01*
X406828D01*
Y216628D01*
D02*
G37*
G36*
X447294Y224835D02*
X446402Y224657D01*
X445646Y224152D01*
X445141Y223396D01*
X444963Y222504D01*
Y216736D01*
X441024D01*
Y211728D01*
X447040D01*
Y211220D01*
D01*
Y211728D01*
X453056D01*
Y216736D01*
X449625D01*
Y222504D01*
X449447Y223396D01*
X448942Y224152D01*
X448186Y224657D01*
X447294Y224835D01*
D02*
G37*
G36*
X666776Y230582D02*
X647760D01*
X628744D01*
Y216674D01*
X644861D01*
Y208788D01*
X645039Y207896D01*
X645544Y207140D01*
X646300Y206635D01*
X647192Y206457D01*
X648084Y206635D01*
X648840Y207140D01*
X649345Y207896D01*
X649523Y208788D01*
Y216674D01*
X666776D01*
Y230582D01*
D02*
G37*
G36*
X453056Y210712D02*
X447548D01*
Y205704D01*
X453056D01*
Y210712D01*
D02*
G37*
G36*
X446532D02*
X441024D01*
Y205704D01*
X446532D01*
Y210712D01*
D02*
G37*
G36*
X72016Y219492D02*
X50508D01*
Y197984D01*
X52168D01*
X56422Y198830D01*
X60429Y200490D01*
X64034Y202899D01*
X67101Y205966D01*
X69510Y209571D01*
X71170Y213578D01*
X72016Y217832D01*
Y219492D01*
D02*
G37*
G36*
X49492D02*
X27984D01*
Y217832D01*
X28830Y213578D01*
X30490Y209571D01*
X32899Y205966D01*
X35966Y202899D01*
X39571Y200490D01*
X43578Y198830D01*
X47832Y197984D01*
X49492D01*
Y219492D01*
D02*
G37*
G36*
X602168Y152016D02*
X600508D01*
Y130508D01*
X622016D01*
Y132168D01*
X621170Y136422D01*
X619510Y140428D01*
X617101Y144034D01*
X614034Y147101D01*
X610429Y149510D01*
X606422Y151170D01*
X602168Y152016D01*
D02*
G37*
G36*
X599492D02*
X597832D01*
X593578Y151170D01*
X589571Y149510D01*
X585966Y147101D01*
X582899Y144034D01*
X580490Y140428D01*
X578830Y136422D01*
X577984Y132168D01*
Y130508D01*
X599492D01*
Y152016D01*
D02*
G37*
G36*
X622016Y129492D02*
X600508D01*
Y107984D01*
X602168D01*
X606422Y108830D01*
X610429Y110490D01*
X614034Y112899D01*
X617101Y115966D01*
X619510Y119572D01*
X621170Y123578D01*
X622016Y127832D01*
Y129492D01*
D02*
G37*
G36*
X599492D02*
X577984D01*
Y127832D01*
X578830Y123578D01*
X580490Y119572D01*
X582899Y115966D01*
X585966Y112899D01*
X589571Y110490D01*
X593578Y108830D01*
X597832Y107984D01*
X599492D01*
Y129492D01*
D02*
G37*
G36*
X665585Y106306D02*
X664972D01*
Y98298D01*
X672980D01*
Y98911D01*
X672400Y101077D01*
X671279Y103019D01*
X669693Y104605D01*
X667751Y105726D01*
X665585Y106306D01*
D02*
G37*
G36*
X663956D02*
X663343D01*
X661177Y105726D01*
X659235Y104605D01*
X657650Y103019D01*
X656528Y101077D01*
X655948Y98911D01*
Y98298D01*
X663956D01*
Y106306D01*
D02*
G37*
G36*
X672980Y97282D02*
X664972D01*
Y89274D01*
X665585D01*
X667751Y89854D01*
X669693Y90976D01*
X671279Y92561D01*
X672400Y94503D01*
X672980Y96669D01*
Y97282D01*
D02*
G37*
G36*
X663956D02*
X655948D01*
Y96669D01*
X656528Y94503D01*
X657650Y92561D01*
X659235Y90976D01*
X661177Y89854D01*
X663343Y89274D01*
X663956D01*
Y97282D01*
D02*
G37*
G36*
X222168Y62016D02*
X220508D01*
Y40508D01*
X242016D01*
Y42168D01*
X241170Y46422D01*
X239510Y50429D01*
X237101Y54034D01*
X234034Y57101D01*
X230429Y59510D01*
X226422Y61170D01*
X222168Y62016D01*
D02*
G37*
G36*
X219492D02*
X217832D01*
X213578Y61170D01*
X209571Y59510D01*
X205966Y57101D01*
X202899Y54034D01*
X200490Y50429D01*
X198830Y46422D01*
X197984Y42168D01*
Y40508D01*
X219492D01*
Y62016D01*
D02*
G37*
G36*
X117094Y85643D02*
X116202Y85465D01*
X115446Y84960D01*
X114941Y84204D01*
X114763Y83312D01*
X114941Y82420D01*
X115446Y81664D01*
X120605Y76505D01*
Y51901D01*
X120387Y51873D01*
X118011Y50889D01*
X115971Y49323D01*
X114405Y47283D01*
X113421Y44907D01*
X113086Y42358D01*
Y39116D01*
X122936D01*
X132786D01*
Y42358D01*
X132451Y44907D01*
X131467Y47283D01*
X129901Y49323D01*
X127861Y50889D01*
X125485Y51873D01*
X125267Y51901D01*
Y77470D01*
X125089Y78362D01*
X124584Y79118D01*
X118742Y84960D01*
X117986Y85465D01*
X117094Y85643D01*
D02*
G37*
G36*
X35052D02*
X34160Y85465D01*
X33404Y84960D01*
X32899Y84204D01*
X32721Y83312D01*
X32899Y82420D01*
X33404Y81664D01*
X38563Y76505D01*
Y51647D01*
X38345Y51619D01*
X35969Y50635D01*
X33929Y49069D01*
X32363Y47029D01*
X31379Y44654D01*
X31044Y42104D01*
Y38862D01*
X40894D01*
X50744D01*
Y42104D01*
X50409Y44654D01*
X49425Y47029D01*
X47859Y49069D01*
X45819Y50635D01*
X43443Y51619D01*
X43225Y51647D01*
Y77470D01*
X43047Y78362D01*
X42542Y79118D01*
X36700Y84960D01*
X35944Y85465D01*
X35052Y85643D01*
D02*
G37*
G36*
X672980Y55506D02*
X655948D01*
Y38474D01*
X672980D01*
Y55506D01*
D02*
G37*
G36*
X132786Y38100D02*
X123444D01*
Y25075D01*
X125485Y25343D01*
X127861Y26327D01*
X129901Y27893D01*
X131467Y29933D01*
X132451Y32308D01*
X132786Y34858D01*
Y38100D01*
D02*
G37*
G36*
X122428D02*
X113086D01*
Y34858D01*
X113421Y32308D01*
X114405Y29933D01*
X115971Y27893D01*
X118011Y26327D01*
X120387Y25343D01*
X122428Y25075D01*
Y38100D01*
D02*
G37*
G36*
X152588Y85796D02*
X151196D01*
X149909Y85263D01*
X148925Y84279D01*
X148392Y82992D01*
Y81697D01*
X146688Y79993D01*
X146183Y79237D01*
X146005Y78345D01*
Y51901D01*
X145787Y51873D01*
X143411Y50889D01*
X141371Y49323D01*
X139805Y47283D01*
X138821Y44907D01*
X138486Y42358D01*
Y34858D01*
X138821Y32308D01*
X139805Y29933D01*
X141371Y27893D01*
X143411Y26327D01*
X145787Y25343D01*
X148336Y25008D01*
X150885Y25343D01*
X153261Y26327D01*
X155301Y27893D01*
X156867Y29933D01*
X157851Y32308D01*
X158186Y34858D01*
Y42358D01*
X157851Y44907D01*
X156867Y47283D01*
X155301Y49323D01*
X153261Y50889D01*
X150885Y51873D01*
X150667Y51901D01*
Y77379D01*
X152083Y78796D01*
X152588D01*
X153875Y79329D01*
X154859Y80313D01*
X155392Y81600D01*
Y82992D01*
X154859Y84279D01*
X153875Y85263D01*
X152588Y85796D01*
D02*
G37*
G36*
X50744Y37846D02*
X41402D01*
Y24821D01*
X43443Y25089D01*
X45819Y26073D01*
X47859Y27639D01*
X49425Y29679D01*
X50409Y32055D01*
X50744Y34604D01*
Y37846D01*
D02*
G37*
G36*
X40386D02*
X31044D01*
Y34604D01*
X31379Y32055D01*
X32363Y29679D01*
X33929Y27639D01*
X35969Y26073D01*
X38345Y25089D01*
X40386Y24821D01*
Y37846D01*
D02*
G37*
G36*
X67305Y84828D02*
X65912D01*
X64626Y84295D01*
X63641Y83311D01*
X63109Y82024D01*
Y80632D01*
X63473Y79752D01*
Y51506D01*
X61369Y50635D01*
X59329Y49069D01*
X57763Y47029D01*
X56779Y44654D01*
X56444Y42104D01*
Y34604D01*
X56779Y32055D01*
X57763Y29679D01*
X59329Y27639D01*
X61369Y26073D01*
X63745Y25089D01*
X66294Y24754D01*
X68843Y25089D01*
X71219Y26073D01*
X73259Y27639D01*
X74825Y29679D01*
X75809Y32055D01*
X76144Y34604D01*
Y42104D01*
X75809Y44654D01*
X74825Y47029D01*
X73259Y49069D01*
X71219Y50635D01*
X69429Y51376D01*
Y79199D01*
X69576Y79346D01*
X70108Y80632D01*
Y82024D01*
X69576Y83311D01*
X68591Y84295D01*
X67305Y84828D01*
D02*
G37*
G36*
X242016Y39492D02*
X220508D01*
Y17984D01*
X222168D01*
X226422Y18830D01*
X230429Y20490D01*
X234034Y22899D01*
X237101Y25966D01*
X239510Y29571D01*
X241170Y33578D01*
X242016Y37832D01*
Y39492D01*
D02*
G37*
G36*
X219492D02*
X197984D01*
Y37832D01*
X198830Y33578D01*
X200490Y29571D01*
X202899Y25966D01*
X205966Y22899D01*
X209571Y20490D01*
X213578Y18830D01*
X217832Y17984D01*
X219492D01*
Y39492D01*
D02*
G37*
G36*
X487172Y21626D02*
X481664D01*
Y16618D01*
X487172D01*
Y21626D01*
D02*
G37*
G36*
X475916D02*
X470408D01*
Y16618D01*
X475916D01*
Y21626D01*
D02*
G37*
G36*
X422402D02*
X416894D01*
Y16618D01*
X422402D01*
Y21626D01*
D02*
G37*
G36*
X381762D02*
X376254D01*
Y16618D01*
X381762D01*
Y21626D01*
D02*
G37*
G36*
X277622D02*
X272114D01*
Y16618D01*
X277622D01*
Y21626D01*
D02*
G37*
G36*
X493696D02*
X488188D01*
Y16110D01*
Y10594D01*
X493696D01*
Y13779D01*
X499198D01*
X499855Y13341D01*
X500747Y13163D01*
X501142D01*
X502034Y13341D01*
X502790Y13846D01*
X503295Y14602D01*
X503473Y15494D01*
X503295Y16386D01*
X502790Y17142D01*
X502034Y17647D01*
X501854Y17683D01*
X501779Y17758D01*
X501023Y18264D01*
X500131Y18441D01*
X493696D01*
Y21626D01*
D02*
G37*
G36*
X487172Y15602D02*
X481664D01*
Y10594D01*
X487172D01*
Y15602D01*
D02*
G37*
G36*
X475916D02*
X470408D01*
Y10594D01*
X475916D01*
Y15602D01*
D02*
G37*
G36*
X469392Y21626D02*
X463884D01*
Y18079D01*
X456946D01*
X456054Y17901D01*
X455298Y17396D01*
X454793Y16640D01*
X454615Y15748D01*
X454793Y14856D01*
X455298Y14100D01*
X456054Y13595D01*
X456946Y13417D01*
X463884D01*
Y10594D01*
X469392D01*
Y16110D01*
Y21626D01*
D02*
G37*
G36*
X428926D02*
X423418D01*
Y16110D01*
Y10594D01*
X428926D01*
Y13417D01*
X437642D01*
X438534Y13595D01*
X439290Y14100D01*
X439795Y14856D01*
X439973Y15748D01*
X439795Y16640D01*
X439290Y17396D01*
X438534Y17901D01*
X437642Y18079D01*
X428926D01*
Y21626D01*
D02*
G37*
G36*
X422402Y15602D02*
X416894D01*
Y10594D01*
X422402D01*
Y15602D01*
D02*
G37*
G36*
X388286Y21626D02*
X382778D01*
Y16110D01*
Y10594D01*
X388286D01*
Y13671D01*
X396748D01*
X397640Y13849D01*
X398396Y14354D01*
X398901Y15110D01*
X399079Y16002D01*
X398901Y16894D01*
X398396Y17650D01*
X397640Y18155D01*
X396748Y18333D01*
X388286D01*
Y21626D01*
D02*
G37*
G36*
X381762Y15602D02*
X376254D01*
Y10594D01*
X381762D01*
Y15602D01*
D02*
G37*
G36*
X284146Y21626D02*
X278638D01*
Y16110D01*
Y10594D01*
X284146D01*
Y13417D01*
X292608D01*
X293500Y13595D01*
X294256Y14100D01*
X294761Y14856D01*
X294939Y15748D01*
X294761Y16640D01*
X294256Y17396D01*
X293500Y17901D01*
X292608Y18079D01*
X284146D01*
Y21626D01*
D02*
G37*
G36*
X277622Y15602D02*
X272114D01*
Y10594D01*
X277622D01*
Y15602D01*
D02*
G37*
%LPD*%
G36*
X281667Y617653D02*
X281121Y616402D01*
X280228D01*
X279928Y616278D01*
X256162Y640044D01*
X255616Y640409D01*
X254972Y640537D01*
X81256D01*
Y642171D01*
X257149D01*
X281667Y617653D01*
D02*
G37*
G36*
X255844Y596552D02*
X255161Y595282D01*
X81256D01*
Y597056D01*
X255512D01*
X255844Y596552D01*
D02*
G37*
G36*
X255450Y574781D02*
X255326Y574482D01*
Y573090D01*
X255859Y571803D01*
X255329Y570537D01*
X81256D01*
Y577170D01*
X253061D01*
X255450Y574781D01*
D02*
G37*
G36*
X351095Y566446D02*
X350344Y565238D01*
X234610D01*
X234354Y565409D01*
X233710Y565537D01*
X81256D01*
Y567170D01*
X350708D01*
X351095Y566446D01*
D02*
G37*
G36*
X233365Y562000D02*
X234009Y561872D01*
X375527D01*
X376206Y560602D01*
X376060Y560383D01*
X81256D01*
Y562171D01*
X233109D01*
X233365Y562000D01*
D02*
G37*
G36*
X376063Y556807D02*
X375525Y555624D01*
X375398Y555537D01*
X81256D01*
Y557017D01*
X375880D01*
X376063Y556807D01*
D02*
G37*
G36*
X399814Y546241D02*
X399005Y545255D01*
X398773Y545409D01*
X398129Y545537D01*
X157059D01*
X156697Y546137D01*
X156445Y546807D01*
X156916Y547944D01*
Y549336D01*
X156383Y550623D01*
X156105Y550901D01*
X156631Y552171D01*
X393885D01*
X399814Y546241D01*
D02*
G37*
G36*
X215372Y536808D02*
X214723Y535537D01*
X81256D01*
Y537170D01*
X215109D01*
X215372Y536808D01*
D02*
G37*
G36*
X217140Y531807D02*
X216492Y530537D01*
X81256D01*
Y532171D01*
X216877D01*
X217140Y531807D01*
D02*
G37*
G36*
X425664Y513939D02*
X425540Y513639D01*
Y512247D01*
X426073Y510961D01*
X427057Y509976D01*
X428344Y509443D01*
X429736D01*
X431022Y509976D01*
X432007Y510961D01*
X432385Y511874D01*
X433713Y512342D01*
X457295Y488761D01*
Y471975D01*
X456995Y471851D01*
X456011Y470867D01*
X455478Y469580D01*
Y468188D01*
X456011Y466901D01*
X456995Y465917D01*
X458282Y465384D01*
X459674D01*
X460961Y465917D01*
X461945Y466901D01*
X462478Y468188D01*
Y469580D01*
X461945Y470867D01*
X460961Y471851D01*
X460661Y471975D01*
Y486968D01*
X461835Y487454D01*
X471773Y477516D01*
Y442867D01*
X470737Y442327D01*
X470543Y442301D01*
X464868Y447976D01*
X464321Y448341D01*
X463677Y448469D01*
X364933D01*
X354658Y458745D01*
X354782Y459044D01*
Y460436D01*
X354249Y461723D01*
X353265Y462707D01*
X351978Y463240D01*
X350586D01*
X349299Y462707D01*
X348315Y461723D01*
X347782Y460436D01*
Y459044D01*
X348315Y457757D01*
X349299Y456773D01*
X350586Y456240D01*
X351978D01*
X352277Y456364D01*
X361285Y447357D01*
X360799Y446183D01*
X311582D01*
X217721Y540044D01*
X217175Y540409D01*
X216531Y540537D01*
X81256D01*
Y542171D01*
X300729D01*
X301255Y540901D01*
X301071Y540717D01*
X300538Y539430D01*
Y538038D01*
X301071Y536751D01*
X302055Y535767D01*
X303342Y535234D01*
X304734D01*
X306021Y535767D01*
X307005Y536751D01*
X307538Y538038D01*
Y539430D01*
X307005Y540717D01*
X306821Y540901D01*
X307347Y542171D01*
X324245D01*
X324630Y540901D01*
X324234Y540636D01*
X323729Y539880D01*
X323551Y538988D01*
Y538593D01*
X323729Y537701D01*
X324059Y537206D01*
Y535006D01*
X320624D01*
Y530248D01*
X332156D01*
Y535006D01*
X328721D01*
Y538085D01*
X328543Y538977D01*
X328076Y539677D01*
X328035Y539880D01*
X327530Y540636D01*
X327134Y540901D01*
X327519Y542171D01*
X397432D01*
X425664Y513939D01*
D02*
G37*
G36*
X218749Y526808D02*
X218070Y525537D01*
X81256D01*
Y527170D01*
X218507D01*
X218749Y526808D01*
D02*
G37*
G36*
X179753Y506808D02*
X179074Y505537D01*
X81256D01*
Y507252D01*
X179456D01*
X179753Y506808D01*
D02*
G37*
G36*
X66224Y570555D02*
Y561338D01*
Y551338D01*
Y541338D01*
Y531338D01*
Y521338D01*
Y511338D01*
Y500537D01*
X65784D01*
X65140Y500409D01*
X64594Y500044D01*
X24447Y459897D01*
X23273Y460383D01*
Y529401D01*
X64954Y571081D01*
X66224Y570555D01*
D02*
G37*
G36*
Y495117D02*
Y490537D01*
X64928D01*
X64284Y490409D01*
X63738Y490044D01*
X26733Y453039D01*
X25559Y453525D01*
Y456249D01*
X64954Y495643D01*
X66224Y495117D01*
D02*
G37*
G36*
X294879Y446707D02*
X294461Y445329D01*
X294014Y445240D01*
X219210Y520044D01*
X218664Y520409D01*
X218019Y520537D01*
X81256D01*
Y522171D01*
X219415D01*
X294879Y446707D01*
D02*
G37*
G36*
X292351Y442142D02*
X292227Y441843D01*
Y440450D01*
X292760Y439164D01*
X293741Y438182D01*
X293741Y438164D01*
X293484Y436912D01*
X289114D01*
X220982Y505045D01*
X220436Y505409D01*
X219792Y505537D01*
X186655D01*
X186129Y506808D01*
X186355Y507033D01*
X186888Y508320D01*
Y509712D01*
X186355Y510999D01*
X185371Y511983D01*
X184084Y512516D01*
X182692D01*
X181405Y511983D01*
X180421Y510999D01*
X180263Y510618D01*
X174369D01*
X173987Y511294D01*
X173771Y511888D01*
X174253Y513052D01*
Y514444D01*
X173720Y515731D01*
X173550Y515901D01*
X174076Y517171D01*
X217322D01*
X292351Y442142D01*
D02*
G37*
G36*
X287227Y434039D02*
X287298Y433991D01*
X286912Y432721D01*
X284923D01*
X222600Y495045D01*
X222054Y495409D01*
X221410Y495537D01*
X81256D01*
Y502171D01*
X219095D01*
X287227Y434039D01*
D02*
G37*
G36*
X488029Y407741D02*
Y383531D01*
X486759Y383061D01*
X486107Y383713D01*
X484820Y384246D01*
X483428D01*
X483129Y384122D01*
X463201Y404049D01*
Y422411D01*
X464471Y422881D01*
X465123Y422229D01*
X466410Y421696D01*
X467802D01*
X469089Y422229D01*
X470073Y423213D01*
X470274Y423699D01*
X471772Y423997D01*
X488029Y407741D01*
D02*
G37*
G36*
X65370Y486447D02*
X66224Y485973D01*
Y476338D01*
Y466287D01*
X64189D01*
X63451Y467025D01*
X62164Y467558D01*
X60772D01*
X59485Y467025D01*
X58501Y466041D01*
X57968Y464754D01*
Y463362D01*
X58501Y462075D01*
X59485Y461091D01*
X60772Y460558D01*
X62164D01*
X63451Y461091D01*
X63985Y461625D01*
X66224D01*
Y459362D01*
X73740D01*
Y458346D01*
X66224D01*
Y451426D01*
X64826D01*
X64467Y451785D01*
X63180Y452318D01*
X61788D01*
X60501Y451785D01*
X59517Y450801D01*
X58984Y449514D01*
Y448122D01*
X59517Y446835D01*
X60501Y445851D01*
X61788Y445318D01*
X63180D01*
X64467Y445851D01*
X64862Y446246D01*
X73722D01*
X74184Y446338D01*
X81256D01*
Y456712D01*
X85155D01*
X86047Y456890D01*
X86803Y457395D01*
X86992Y457584D01*
X87497Y458340D01*
X87675Y459232D01*
X87497Y460124D01*
X86992Y460880D01*
X86236Y461385D01*
X85344Y461563D01*
X84452Y461385D01*
X84435Y461374D01*
X81256D01*
Y467171D01*
X83106D01*
X92551Y457726D01*
Y308864D01*
X92679Y308220D01*
X93044Y307674D01*
X141050Y259668D01*
X141596Y259303D01*
X142240Y259175D01*
X204332D01*
X204605Y258516D01*
X205589Y257532D01*
X206876Y256999D01*
X208268D01*
X209554Y257532D01*
X210539Y258516D01*
X211072Y259803D01*
Y261195D01*
X210539Y262481D01*
X209555Y263466D01*
X209501Y263734D01*
X209723Y263955D01*
X210256Y265242D01*
Y266634D01*
X209723Y267921D01*
X208739Y268905D01*
X207452Y269438D01*
X207111D01*
X206024Y269786D01*
X205938Y270611D01*
Y271206D01*
X205405Y272493D01*
X204421Y273477D01*
X203241Y273966D01*
X203071Y274141D01*
X202524Y275280D01*
X202890Y276164D01*
Y277556D01*
X202357Y278843D01*
X201373Y279827D01*
X200086Y280360D01*
X198694D01*
X197407Y279827D01*
X196423Y278843D01*
X195890Y277556D01*
Y276164D01*
X196423Y274877D01*
X197407Y273893D01*
X198444Y273463D01*
X198192Y272193D01*
X171522D01*
X170878Y272065D01*
X170332Y271700D01*
X169679Y271047D01*
X140897D01*
X100489Y311455D01*
Y460317D01*
X100361Y460961D01*
X99996Y461507D01*
X82324Y479179D01*
X81778Y479544D01*
X81256Y479648D01*
Y482171D01*
X192110D01*
X273883Y400398D01*
X273585Y398900D01*
X273099Y398699D01*
X272115Y397715D01*
X271582Y396428D01*
Y395036D01*
X270409Y394567D01*
X270229D01*
X268942Y394034D01*
X267958Y393050D01*
X267425Y391763D01*
Y390371D01*
X267958Y389084D01*
X268252Y388790D01*
X268782Y387622D01*
X268539Y386893D01*
X268280Y386268D01*
Y384876D01*
X268813Y383589D01*
X268472Y382134D01*
X268305Y381967D01*
X267772Y380680D01*
Y379288D01*
X268305Y378001D01*
X268723Y377583D01*
X269008Y376533D01*
X268679Y375968D01*
X268074Y375363D01*
X267541Y374076D01*
Y372684D01*
X267802Y372054D01*
X267028Y370784D01*
X267020D01*
X265733Y370251D01*
X264749Y369267D01*
X264216Y367980D01*
Y366588D01*
X264749Y365301D01*
X265733Y364317D01*
X266033Y364193D01*
Y156718D01*
X266161Y156074D01*
X265122Y155343D01*
X238411Y182053D01*
Y283814D01*
X239595Y284427D01*
X240881Y283894D01*
X242273D01*
X243560Y284427D01*
X244544Y285412D01*
X245077Y286698D01*
Y288090D01*
X244544Y289377D01*
X243560Y290361D01*
X242273Y290894D01*
X240881D01*
X239595Y290361D01*
X238411Y290974D01*
Y293069D01*
X239681Y293595D01*
X240079Y293197D01*
X241366Y292664D01*
X242758D01*
X244045Y293197D01*
X245029Y294181D01*
X245562Y295468D01*
Y296860D01*
X246421Y298104D01*
X246839Y298277D01*
X247823Y299261D01*
X248356Y300548D01*
Y301940D01*
X247823Y303227D01*
X246839Y304211D01*
X245552Y304744D01*
X244160D01*
X242873Y304211D01*
X241889Y303227D01*
X241623Y302584D01*
X240951D01*
X240307Y302456D01*
X239761Y302091D01*
X236791Y299121D01*
X235617Y299607D01*
Y310453D01*
X237712Y312547D01*
X238192Y312348D01*
X239584D01*
X240871Y312881D01*
X241855Y313865D01*
X242388Y315152D01*
Y316544D01*
X241855Y317831D01*
X240871Y318815D01*
X239584Y319348D01*
X238192D01*
X236905Y318815D01*
X235921Y317831D01*
X235388Y316544D01*
Y315152D01*
X235437Y315034D01*
X232744Y312340D01*
X232379Y311794D01*
X232251Y311150D01*
Y187245D01*
X231535Y186853D01*
X230981Y186655D01*
X229804Y187142D01*
X229209D01*
X228384Y187228D01*
X228036Y188315D01*
Y188656D01*
X227503Y189943D01*
X226519Y190927D01*
X225232Y191460D01*
X223840D01*
X222553Y190927D01*
X221569Y189943D01*
X221445Y189643D01*
X185032D01*
X27845Y346830D01*
Y384509D01*
X29115Y385035D01*
X29513Y384637D01*
X30800Y384104D01*
X32192D01*
X33479Y384637D01*
X34463Y385621D01*
X34996Y386908D01*
Y388300D01*
X34463Y389587D01*
X33479Y390571D01*
X32192Y391104D01*
X30800D01*
X29513Y390571D01*
X29115Y390173D01*
X27845Y390699D01*
Y449391D01*
X64954Y486499D01*
X65370Y486447D01*
D02*
G37*
G36*
X283036Y429848D02*
X283582Y429483D01*
X284226Y429355D01*
X447598D01*
X447788Y428896D01*
X448772Y427912D01*
X450059Y427379D01*
X451451D01*
X452738Y427912D01*
X453722Y428896D01*
X454255Y430183D01*
Y430314D01*
X455525Y430840D01*
X459835Y426531D01*
Y403352D01*
X459963Y402708D01*
X460328Y402162D01*
X480748Y381741D01*
X480624Y381442D01*
Y380050D01*
X481157Y378763D01*
X482141Y377779D01*
X483428Y377246D01*
X484820D01*
X486107Y377779D01*
X486759Y378431D01*
X488029Y377961D01*
Y371814D01*
X475937Y359721D01*
X474670Y360251D01*
Y361122D01*
X474137Y362409D01*
X473153Y363393D01*
X471866Y363926D01*
X470474D01*
X469187Y363393D01*
X468203Y362409D01*
X468079Y362109D01*
X457225D01*
X456699Y363379D01*
X457280Y363960D01*
X457813Y365247D01*
Y366639D01*
X457280Y367925D01*
X456296Y368910D01*
X455009Y369443D01*
X453617D01*
X452330Y368910D01*
X451346Y367925D01*
X450813Y366639D01*
Y365247D01*
X451346Y363960D01*
X451927Y363379D01*
X451401Y362109D01*
X437896D01*
X437252Y361981D01*
X436706Y361616D01*
X383874Y308784D01*
X383509Y308238D01*
X383381Y307594D01*
Y227414D01*
X382111Y226565D01*
X381625Y226766D01*
X380233D01*
X378946Y226233D01*
X377962Y225249D01*
X377429Y223962D01*
Y222570D01*
X377962Y221283D01*
X378946Y220299D01*
X379658Y220004D01*
X380042Y218593D01*
X376021Y214572D01*
X375538Y214727D01*
X374848Y215195D01*
Y216342D01*
X374315Y217629D01*
X373331Y218613D01*
X373649Y219856D01*
X373807Y220013D01*
X374340Y221300D01*
Y222692D01*
X373807Y223979D01*
X372823Y224963D01*
X371536Y225496D01*
X370144D01*
X368857Y224963D01*
X367873Y223979D01*
X367340Y222692D01*
Y221613D01*
X366643Y220888D01*
X366387Y220908D01*
X365272Y221279D01*
X365222Y221400D01*
X364238Y222384D01*
X362951Y222917D01*
X361559D01*
X361386Y223032D01*
Y223454D01*
X360853Y224741D01*
X359869Y225725D01*
X358582Y226258D01*
X357190D01*
X355903Y225725D01*
X354919Y224741D01*
X353453Y224521D01*
X353011Y224963D01*
X351724Y225496D01*
X350332D01*
X349045Y224963D01*
X348061Y223979D01*
X347528Y222692D01*
Y221300D01*
X347652Y221000D01*
X343219Y216567D01*
X328168D01*
X327524Y216439D01*
X326978Y216074D01*
X301080Y190177D01*
X300715Y189630D01*
X300587Y188986D01*
Y177801D01*
X289635D01*
X289250Y179071D01*
X289405Y179174D01*
X289684Y179454D01*
X290189Y180210D01*
X290367Y181102D01*
X290189Y181994D01*
X289684Y182750D01*
X288928Y183255D01*
X288036Y183433D01*
X287144Y183255D01*
X286992Y183153D01*
X279375D01*
X278483Y182976D01*
X277726Y182471D01*
X276011Y180755D01*
X275506Y179999D01*
X275328Y179107D01*
Y178699D01*
X275153Y178524D01*
X274182Y178524D01*
X273535Y179130D01*
Y370923D01*
X274009Y371397D01*
X274541Y372684D01*
Y374076D01*
X274009Y375363D01*
X273590Y375781D01*
X273305Y376831D01*
X273634Y377396D01*
X274239Y378001D01*
X274772Y379288D01*
Y380680D01*
X274239Y381967D01*
X274580Y383422D01*
X274747Y383589D01*
X275280Y384876D01*
Y386268D01*
X274747Y387555D01*
X274453Y387849D01*
X273923Y389017D01*
X274166Y389747D01*
X274425Y390371D01*
Y391763D01*
X275598Y392232D01*
X275778D01*
X277065Y392765D01*
X278049Y393749D01*
X278250Y394235D01*
X279748Y394533D01*
X329533Y344748D01*
Y337863D01*
X329233Y337739D01*
X328249Y336755D01*
X327716Y335468D01*
Y334076D01*
X328249Y332789D01*
X329233Y331805D01*
X330520Y331272D01*
X331912D01*
X333199Y331805D01*
X334183Y332789D01*
X334716Y334076D01*
Y335468D01*
X334183Y336755D01*
X333199Y337739D01*
X332899Y337863D01*
Y345446D01*
X332771Y346090D01*
X332406Y346636D01*
X326240Y352803D01*
X326386Y353445D01*
X326696Y354142D01*
X327815Y354606D01*
X328800Y355590D01*
X329333Y356877D01*
Y358269D01*
X328800Y359556D01*
X327815Y360540D01*
X326529Y361073D01*
X325136D01*
X323850Y360540D01*
X322865Y359556D01*
X322402Y358437D01*
X321705Y358126D01*
X321063Y357980D01*
X193998Y485045D01*
X193452Y485409D01*
X192808Y485538D01*
X81256D01*
Y492171D01*
X220713D01*
X283036Y429848D01*
D02*
G37*
G36*
X388940Y301046D02*
X390332D01*
X390632Y301170D01*
X391651Y300151D01*
Y256369D01*
X390381Y255521D01*
X389895Y255722D01*
X388503D01*
X388017Y255521D01*
X386747Y256369D01*
Y300826D01*
X388017Y301428D01*
X388940Y301046D01*
D02*
G37*
G36*
X355903Y219791D02*
X357190Y219258D01*
X357829D01*
X358355Y217988D01*
X339917Y199549D01*
X328422D01*
X327778Y199421D01*
X327232Y199056D01*
X309080Y180904D01*
X308715Y180358D01*
X308587Y179714D01*
Y177801D01*
X303953D01*
Y188289D01*
X328865Y213201D01*
X343916D01*
X344560Y213329D01*
X345106Y213694D01*
X350033Y218620D01*
X350332Y218496D01*
X351724D01*
X353011Y219029D01*
X353995Y220013D01*
X355461Y220233D01*
X355903Y219791D01*
D02*
G37*
G36*
X423767Y213164D02*
Y199833D01*
X411652Y187719D01*
X410199Y188062D01*
X409946Y188673D01*
X408962Y189657D01*
X407675Y190190D01*
X406283D01*
X404996Y189657D01*
X404413Y189074D01*
X403143Y189543D01*
Y192096D01*
X406828D01*
Y202436D01*
X411383D01*
X412027Y202564D01*
X412573Y202929D01*
X422068Y212424D01*
X422433Y212970D01*
X422497Y213289D01*
X423767Y213164D01*
D02*
G37*
G36*
X387191Y219238D02*
Y216851D01*
X357080Y186740D01*
X356715Y186194D01*
X356587Y185550D01*
Y177801D01*
X345671D01*
X345185Y178974D01*
X385921Y219710D01*
X387191Y219238D01*
D02*
G37*
G36*
X370652Y212146D02*
X371799D01*
X372267Y211456D01*
X372422Y210973D01*
X341080Y179630D01*
X340715Y179084D01*
X340587Y178440D01*
Y177801D01*
X335947D01*
Y180043D01*
X336247Y180167D01*
X337231Y181151D01*
X337764Y182438D01*
Y183830D01*
X337231Y185117D01*
X336247Y186101D01*
X334960Y186634D01*
X334829D01*
X334303Y187904D01*
X338009Y191611D01*
X348996D01*
X349640Y191739D01*
X350186Y192104D01*
X370353Y212270D01*
X370652Y212146D01*
D02*
G37*
G36*
X383615Y204077D02*
X384580Y203619D01*
X384689Y203070D01*
X385194Y202314D01*
X385950Y201809D01*
X386842Y201631D01*
X387219D01*
X387729Y201733D01*
X388239Y201313D01*
X388579Y200910D01*
X388675Y200725D01*
X388587Y200278D01*
Y177801D01*
X382778D01*
Y170310D01*
X381762D01*
Y177801D01*
X367953D01*
Y188789D01*
X383284Y204119D01*
X383615Y204077D01*
D02*
G37*
G36*
X513177Y179007D02*
X492825Y158655D01*
X482027D01*
X479953Y160729D01*
Y162819D01*
X485762D01*
Y170310D01*
Y177801D01*
X470778D01*
Y170310D01*
X469762D01*
Y177801D01*
X463953D01*
Y179125D01*
X465009Y180181D01*
X512691D01*
X513177Y179007D01*
D02*
G37*
G36*
X348587Y157927D02*
X341187Y150527D01*
X290965D01*
X290479Y151701D01*
X295460Y156682D01*
X295825Y157228D01*
X295954Y157872D01*
Y162819D01*
X348587D01*
Y157927D01*
D02*
G37*
G36*
X428587Y82626D02*
Y63241D01*
X415953D01*
Y93464D01*
X416607Y93887D01*
X417191Y94022D01*
X428587Y82626D01*
D02*
G37*
%LPC*%
G36*
X332156Y529232D02*
X326898D01*
Y524474D01*
X332156D01*
Y529232D01*
D02*
G37*
G36*
X325882D02*
X320624D01*
Y524474D01*
X325882D01*
Y529232D01*
D02*
G37*
G36*
X332156Y522006D02*
X320624D01*
Y511474D01*
X324473D01*
Y508113D01*
X324174Y507989D01*
X323189Y507004D01*
X322656Y505718D01*
Y504325D01*
X323189Y503039D01*
X324174Y502054D01*
X325460Y501521D01*
X326852D01*
X328139Y502054D01*
X329123Y503039D01*
X329656Y504325D01*
Y505718D01*
X329123Y507004D01*
X328139Y507989D01*
X327840Y508113D01*
Y511474D01*
X332156D01*
Y522006D01*
D02*
G37*
G36*
X293558Y507690D02*
X292166D01*
X290879Y507157D01*
X289895Y506173D01*
X289362Y504886D01*
Y503494D01*
X289895Y502207D01*
X290879Y501223D01*
X292166Y500690D01*
X293558D01*
X294845Y501223D01*
X295829Y502207D01*
X296362Y503494D01*
Y504886D01*
X295829Y506173D01*
X294845Y507157D01*
X293558Y507690D01*
D02*
G37*
G36*
X361736Y507435D02*
X360344D01*
X359058Y506902D01*
X358073Y505918D01*
X357540Y504631D01*
Y503239D01*
X358073Y501952D01*
X359058Y500968D01*
X360344Y500435D01*
X361736D01*
X363023Y500968D01*
X364007Y501952D01*
X364540Y503239D01*
Y504631D01*
X364007Y505918D01*
X363023Y506902D01*
X361736Y507435D01*
D02*
G37*
G36*
X411922Y505912D02*
X410530D01*
X409243Y505379D01*
X408259Y504395D01*
X407726Y503108D01*
Y501716D01*
X408259Y500429D01*
X409243Y499445D01*
X410530Y498912D01*
X411922D01*
X413209Y499445D01*
X414193Y500429D01*
X414726Y501716D01*
Y503108D01*
X414193Y504395D01*
X413209Y505379D01*
X411922Y505912D01*
D02*
G37*
G36*
X40732Y439870D02*
X29224D01*
Y430362D01*
X40732D01*
Y439870D01*
D02*
G37*
G36*
X53256D02*
X41748D01*
Y429854D01*
Y419838D01*
X53256D01*
Y427183D01*
X58420D01*
X59312Y427361D01*
X60068Y427866D01*
X60573Y428622D01*
X60751Y429514D01*
X60573Y430406D01*
X60068Y431162D01*
X59312Y431667D01*
X58420Y431845D01*
X53256D01*
Y439870D01*
D02*
G37*
G36*
X40732Y429346D02*
X29224D01*
Y419838D01*
X40732D01*
Y429346D01*
D02*
G37*
G36*
X232003Y423957D02*
X230610D01*
X229324Y423424D01*
X228339Y422440D01*
X227806Y421154D01*
Y420492D01*
X226787Y419579D01*
X226633Y419552D01*
X225364D01*
X224077Y419019D01*
X223093Y418035D01*
X222560Y416748D01*
Y415356D01*
X223093Y414069D01*
X224077Y413085D01*
X225364Y412552D01*
X226756D01*
X228043Y413085D01*
X229027Y414069D01*
X229560Y415356D01*
Y416018D01*
X230580Y416930D01*
X230733Y416957D01*
X232003D01*
X233289Y417490D01*
X234274Y418475D01*
X234806Y419761D01*
Y421154D01*
X234274Y422440D01*
X233289Y423424D01*
X232003Y423957D01*
D02*
G37*
G36*
X243774Y404058D02*
X242382D01*
X241095Y403525D01*
X240111Y402541D01*
X239578Y401254D01*
Y399862D01*
X240111Y398575D01*
X241095Y397591D01*
X242382Y397058D01*
X243774D01*
X245061Y397591D01*
X246045Y398575D01*
X246578Y399862D01*
Y401254D01*
X246045Y402541D01*
X245061Y403525D01*
X243774Y404058D01*
D02*
G37*
G36*
X108138Y379603D02*
X106746D01*
X105459Y379070D01*
X104475Y378086D01*
X103942Y376799D01*
Y375407D01*
X104475Y374120D01*
X105459Y373136D01*
X106746Y372603D01*
X108138D01*
X109425Y373136D01*
X110409Y374120D01*
X110942Y375407D01*
Y376799D01*
X110409Y378086D01*
X109425Y379070D01*
X108138Y379603D01*
D02*
G37*
G36*
X243774Y366720D02*
X242382D01*
X241095Y366187D01*
X240111Y365203D01*
X239578Y363916D01*
Y362524D01*
X240111Y361237D01*
X241095Y360253D01*
X242382Y359720D01*
X243774D01*
X245061Y360253D01*
X246045Y361237D01*
X246578Y362524D01*
Y363916D01*
X246045Y365203D01*
X245061Y366187D01*
X243774Y366720D01*
D02*
G37*
G36*
X197390Y366871D02*
X195998D01*
X194711Y366339D01*
X193727Y365354D01*
X193194Y364068D01*
Y362675D01*
X193727Y361389D01*
X194711Y360404D01*
X195998Y359871D01*
X197390D01*
X197689Y359995D01*
X213326Y344359D01*
X213872Y343994D01*
X214516Y343866D01*
X219800D01*
X219924Y343567D01*
X220909Y342582D01*
X222195Y342049D01*
X223587D01*
X224874Y342582D01*
X225858Y343567D01*
X226391Y344853D01*
Y346245D01*
X225858Y347532D01*
X224874Y348516D01*
X223587Y349049D01*
X222195D01*
X220909Y348516D01*
X219924Y347532D01*
X219800Y347233D01*
X215214D01*
X200070Y362376D01*
X200194Y362675D01*
Y364068D01*
X199661Y365354D01*
X198677Y366339D01*
X197390Y366871D01*
D02*
G37*
G36*
X240859Y338865D02*
X239467D01*
X238181Y338332D01*
X237196Y337348D01*
X236663Y336062D01*
Y334669D01*
X237196Y333383D01*
X238181Y332398D01*
X239467Y331865D01*
X240859D01*
X242146Y332398D01*
X243130Y333383D01*
X243663Y334669D01*
Y336062D01*
X243130Y337348D01*
X242146Y338332D01*
X240859Y338865D01*
D02*
G37*
G36*
X195260Y325064D02*
X193868D01*
X192581Y324531D01*
X191597Y323547D01*
X191064Y322260D01*
Y320868D01*
X191597Y319581D01*
X192581Y318597D01*
X193868Y318064D01*
X195260D01*
X196547Y318597D01*
X197531Y319581D01*
X198064Y320868D01*
Y322260D01*
X197531Y323547D01*
X196547Y324531D01*
X195260Y325064D01*
D02*
G37*
G36*
X133538Y291282D02*
X132146D01*
X130859Y290749D01*
X129875Y289765D01*
X129342Y288478D01*
Y287086D01*
X129875Y285799D01*
X130859Y284815D01*
X132146Y284282D01*
X133538D01*
X134825Y284815D01*
X135809Y285799D01*
X136342Y287086D01*
Y288478D01*
X135809Y289765D01*
X134825Y290749D01*
X133538Y291282D01*
D02*
G37*
G36*
X244028Y279090D02*
X242636D01*
X241349Y278557D01*
X240365Y277573D01*
X239832Y276286D01*
Y274894D01*
X240365Y273607D01*
X241349Y272623D01*
X242636Y272090D01*
X244028D01*
X245315Y272623D01*
X246299Y273607D01*
X246832Y274894D01*
Y276286D01*
X246299Y277573D01*
X245315Y278557D01*
X244028Y279090D01*
D02*
G37*
G36*
X211770Y254198D02*
X210378D01*
X209091Y253665D01*
X208107Y252681D01*
X207574Y251394D01*
Y250002D01*
X208107Y248715D01*
X209091Y247731D01*
X210378Y247198D01*
X211770D01*
X213057Y247731D01*
X214041Y248715D01*
X214574Y250002D01*
Y251394D01*
X214041Y252681D01*
X213057Y253665D01*
X211770Y254198D01*
D02*
G37*
G36*
X254696Y222519D02*
X253304D01*
X252017Y221986D01*
X251033Y221002D01*
X250500Y219715D01*
Y218323D01*
X251033Y217036D01*
X252017Y216052D01*
X253304Y215519D01*
X254696D01*
X255983Y216052D01*
X256638Y216707D01*
X256751Y216820D01*
X257828Y216101D01*
X257786Y216001D01*
X257612Y215580D01*
Y214188D01*
X258145Y212901D01*
X259129Y211917D01*
X260416Y211384D01*
X261808D01*
X263095Y211917D01*
X264079Y212901D01*
X264612Y214188D01*
Y215580D01*
X264079Y216867D01*
X263095Y217851D01*
X261808Y218384D01*
X260416D01*
X259129Y217851D01*
X258474Y217196D01*
X258361Y217083D01*
X257284Y217802D01*
X257326Y217902D01*
X257500Y218323D01*
Y219715D01*
X256967Y221002D01*
X255983Y221986D01*
X254696Y222519D01*
D02*
G37*
G36*
X247330Y206446D02*
X245938D01*
X244651Y205913D01*
X243667Y204929D01*
X243134Y203642D01*
Y202250D01*
X243667Y200963D01*
X244651Y199979D01*
X245938Y199446D01*
X247330D01*
X248617Y199979D01*
X249601Y200963D01*
X250134Y202250D01*
Y203642D01*
X249601Y204929D01*
X248617Y205913D01*
X247330Y206446D01*
D02*
G37*
G36*
X245298Y448254D02*
X243906D01*
X242619Y447721D01*
X241635Y446737D01*
X241102Y445450D01*
Y444058D01*
X241635Y442771D01*
X242619Y441787D01*
X243906Y441254D01*
X245298D01*
X246585Y441787D01*
X247569Y442771D01*
X248102Y444058D01*
Y445450D01*
X247569Y446737D01*
X246585Y447721D01*
X245298Y448254D01*
D02*
G37*
G36*
X323025Y420063D02*
X321633D01*
X320346Y419530D01*
X319362Y418546D01*
X318829Y417259D01*
Y415867D01*
X319362Y414580D01*
X320346Y413596D01*
X321633Y413063D01*
X323025D01*
X324312Y413596D01*
X325296Y414580D01*
X325829Y415867D01*
Y417259D01*
X325296Y418546D01*
X324312Y419530D01*
X323025Y420063D01*
D02*
G37*
G36*
X347406Y371292D02*
X346014D01*
X344727Y370759D01*
X343743Y369775D01*
X343210Y368488D01*
Y367096D01*
X343743Y365809D01*
X344727Y364825D01*
X346014Y364292D01*
X347406D01*
X348693Y364825D01*
X349677Y365809D01*
X350210Y367096D01*
Y368488D01*
X349677Y369775D01*
X348693Y370759D01*
X347406Y371292D01*
D02*
G37*
G36*
X343088Y360624D02*
X341696D01*
X340409Y360091D01*
X339425Y359107D01*
X338892Y357820D01*
Y356428D01*
X339425Y355141D01*
X340409Y354157D01*
X341696Y353624D01*
X343088D01*
X344375Y354157D01*
X345359Y355141D01*
X345892Y356428D01*
Y357820D01*
X345359Y359107D01*
X344375Y360091D01*
X343088Y360624D01*
D02*
G37*
G36*
X317180Y347924D02*
X315788D01*
X314501Y347391D01*
X313517Y346407D01*
X312984Y345120D01*
Y343728D01*
X313517Y342441D01*
X314501Y341457D01*
X315788Y340924D01*
X317180D01*
X318467Y341457D01*
X319451Y342441D01*
X319984Y343728D01*
Y345120D01*
X319451Y346407D01*
X318467Y347391D01*
X317180Y347924D01*
D02*
G37*
G36*
X297746Y324377D02*
X296353D01*
X295067Y323844D01*
X294082Y322860D01*
X293549Y321573D01*
Y320181D01*
X294082Y318895D01*
X295067Y317910D01*
X296353Y317377D01*
X297746D01*
X299032Y317910D01*
X300017Y318895D01*
X300549Y320181D01*
Y321573D01*
X300017Y322860D01*
X299032Y323844D01*
X297746Y324377D01*
D02*
G37*
G36*
X322006Y271216D02*
X320614D01*
X319327Y270683D01*
X318343Y269699D01*
X317810Y268412D01*
Y267020D01*
X318343Y265733D01*
X319327Y264749D01*
X320614Y264216D01*
X322006D01*
X323293Y264749D01*
X324277Y265733D01*
X324810Y267020D01*
Y268412D01*
X324277Y269699D01*
X323293Y270683D01*
X322006Y271216D01*
D02*
G37*
G36*
X337754Y254198D02*
X336362D01*
X335075Y253665D01*
X334091Y252681D01*
X333558Y251394D01*
Y250002D01*
X334091Y248715D01*
X335075Y247731D01*
X336362Y247198D01*
X337754D01*
X339041Y247731D01*
X340025Y248715D01*
X340558Y250002D01*
Y251394D01*
X340025Y252681D01*
X339041Y253665D01*
X337754Y254198D01*
D02*
G37*
G36*
X296860Y227020D02*
X295468D01*
X294181Y226487D01*
X293197Y225503D01*
X292664Y224216D01*
Y222824D01*
X293197Y221537D01*
X294181Y220553D01*
X295468Y220020D01*
X296860D01*
X298147Y220553D01*
X299131Y221537D01*
X299664Y222824D01*
Y224216D01*
X299131Y225503D01*
X298147Y226487D01*
X296860Y227020D01*
D02*
G37*
G36*
X490286Y177801D02*
X486778D01*
Y170310D01*
Y162819D01*
X490286D01*
Y167979D01*
X495543D01*
X496435Y168157D01*
X497191Y168662D01*
X497282Y168753D01*
X497462Y168789D01*
X498218Y169294D01*
X498723Y170050D01*
X498901Y170942D01*
X498723Y171834D01*
X498218Y172590D01*
X497462Y173095D01*
X496570Y173273D01*
X496175D01*
X495283Y173095D01*
X494603Y172641D01*
X490286D01*
Y177801D01*
D02*
G37*
%LPD*%
D15*
X447040Y197720D02*
D03*
Y211220D02*
D03*
X400812Y211112D02*
D03*
Y197612D02*
D03*
X487680Y16110D02*
D03*
Y29610D02*
D03*
X469900Y16110D02*
D03*
Y29610D02*
D03*
X422910Y16110D02*
D03*
Y29610D02*
D03*
X382270Y16110D02*
D03*
Y29610D02*
D03*
X278130Y16110D02*
D03*
Y29610D02*
D03*
D16*
X553720Y306070D02*
D03*
X540220D02*
D03*
D20*
X553496Y326390D02*
D03*
X539496D02*
D03*
X539608Y341122D02*
D03*
X553608D02*
D03*
D21*
X591058Y524510D02*
D03*
Y538510D02*
D03*
Y504078D02*
D03*
Y490078D02*
D03*
D29*
X326390Y516740D02*
D03*
Y529740D02*
D03*
D52*
X388114Y563555D02*
X473456Y478213D01*
X234009Y563555D02*
X388114D01*
X353190Y568854D02*
X354353Y567690D01*
X233710Y563854D02*
X234009Y563555D01*
X354353Y567690D02*
X355092D01*
X73740Y563854D02*
X233710D01*
X50190Y629006D02*
X73588D01*
X50038Y629158D02*
X50190Y629006D01*
X509580Y524200D02*
X643890D01*
X192808Y483854D02*
X331216Y345446D01*
X73740Y483854D02*
X192808D01*
X331216Y334772D02*
Y345446D01*
X236728Y296678D02*
X240951Y300901D01*
X244513D01*
X236728Y181356D02*
Y296678D01*
X244513Y300901D02*
X244856Y301244D01*
X94234Y308864D02*
X142240Y260858D01*
X207213D01*
X207572Y260499D01*
X73740Y583854D02*
X303622D01*
X73740Y578854D02*
X253758D01*
X73740Y568854D02*
X353190D01*
X303622Y583854D02*
X309626Y577850D01*
X253758Y578854D02*
X258826Y573786D01*
X259431Y598739D02*
X259545Y598625D01*
X73854Y598739D02*
X259431D01*
X73740Y598854D02*
X73854Y598739D01*
X73740Y543854D02*
X398129D01*
X429040Y512943D01*
X621877Y419777D02*
X681482Y360172D01*
Y140208D02*
Y360172D01*
X271564Y371558D02*
X271851Y371271D01*
Y159949D02*
Y371271D01*
X271041Y373380D02*
X271564Y372858D01*
Y371558D02*
Y372858D01*
X271851Y159949D02*
X275844Y155956D01*
X267716Y156718D02*
Y367284D01*
Y156718D02*
X273304Y151130D01*
X462270Y179822D02*
X464312Y181864D01*
X514822D01*
X547624Y214666D01*
X406270Y55750D02*
Y95888D01*
X401320Y100838D02*
X406270Y95888D01*
X326156Y516506D02*
X326390Y516740D01*
X326156Y505022D02*
Y516506D01*
X523025Y504200D02*
X591058D01*
X465765Y561460D02*
X523025Y504200D01*
X362165Y219417D02*
X362255D01*
X340614Y197866D02*
X362165Y219417D01*
X343916Y214884D02*
X351028Y221996D01*
X406270Y179956D02*
X425450Y199136D01*
X431292Y200914D02*
Y214884D01*
X414274Y183896D02*
X431292Y200914D01*
X425450Y199136D02*
Y223266D01*
X414274Y170314D02*
Y183896D01*
X406270Y170310D02*
Y179956D01*
X553212Y247904D02*
X631190Y169926D01*
Y105664D02*
X664464Y72390D01*
X631190Y105664D02*
Y169926D01*
X646430Y382524D02*
X676910Y352044D01*
Y186436D02*
Y352044D01*
X664464Y173990D02*
X676910Y186436D01*
X642874Y392684D02*
X679196Y356362D01*
Y163322D02*
Y356362D01*
X664464Y148590D02*
X679196Y163322D01*
X490686Y419777D02*
X621877D01*
X664464Y123190D02*
X681482Y140208D01*
X604520Y391160D02*
X619590D01*
X604520Y381000D02*
X619750D01*
X604520Y360680D02*
X619450D01*
X619760Y360990D01*
X604520Y351028D02*
X619722D01*
X619760Y350990D01*
X351282Y459740D02*
X364236Y446786D01*
X473456Y442468D02*
X489637Y426287D01*
X364236Y446786D02*
X463677D01*
X489637Y426287D02*
X490024D01*
X463677Y446786D02*
X490686Y419777D01*
X462730Y444500D02*
X491588Y415642D01*
X459169Y442214D02*
X483457Y417925D01*
X489712Y371116D02*
Y408438D01*
X309118Y439801D02*
X458349D01*
X491998Y366776D02*
Y409385D01*
X309938Y442214D02*
X459169D01*
X310885Y444500D02*
X462730D01*
X458349Y439801D02*
X489712Y408438D01*
X483457Y417925D02*
X491998Y409385D01*
X483457Y417925D02*
Y417925D01*
X453517Y435229D02*
X461518Y427228D01*
X467106Y425196D02*
Y425678D01*
X455269Y437515D02*
X467106Y425678D01*
X461518Y403352D02*
Y427228D01*
Y403352D02*
X484124Y380746D01*
X473456Y442468D02*
Y478213D01*
X394582Y553854D02*
X458978Y489458D01*
X73740Y553854D02*
X394582D01*
X458978Y468884D02*
Y489458D01*
X591058Y504200D02*
X643890D01*
X385064Y307594D02*
X437896Y360426D01*
X385064Y221234D02*
Y307594D01*
X437896Y360426D02*
X471170D01*
X488950Y272796D02*
X528759D01*
X553212Y248343D01*
Y247904D02*
Y248343D01*
X525526Y265684D02*
X532638D01*
X526288Y255778D02*
X545084Y236982D01*
X513770Y184404D02*
X545084Y215718D01*
X532638Y265684D02*
X550926Y247396D01*
X545084Y215718D02*
Y236982D01*
X550926Y214376D02*
Y247396D01*
X73588Y629006D02*
X73740Y628854D01*
Y643854D02*
X257846D01*
X292354Y609346D01*
X393953Y593599D02*
X394208Y593344D01*
X73995Y593599D02*
X393953D01*
X73740Y593854D02*
X73995Y593599D01*
X73740Y638854D02*
X254972D01*
X280924Y612902D01*
X62345Y634014D02*
X62505Y633854D01*
X73740D01*
X73668Y618926D02*
X73740Y618854D01*
X56460Y618926D02*
X73668D01*
X56388Y618998D02*
X56460Y618926D01*
X73708Y613886D02*
X73740Y613854D01*
X51594Y613886D02*
X73708D01*
X51562Y613918D02*
X51594Y613886D01*
X73732Y608846D02*
X73740Y608854D01*
X59182Y608838D02*
X59190Y608846D01*
X73732D01*
X50523Y593344D02*
X61033Y603854D01*
X49784Y593344D02*
X50523D01*
X61033Y603854D02*
X73740D01*
X450596Y431038D02*
X450755Y430879D01*
X284226Y431038D02*
X450596D01*
X221410Y493854D02*
X284226Y431038D01*
X73894Y558700D02*
X380084D01*
X380238Y558546D01*
X185420Y183642D02*
X229108D01*
X23876Y345186D02*
X185420Y183642D01*
X26162Y346133D02*
Y450088D01*
Y346133D02*
X184335Y187960D01*
X224536D01*
X23876Y345186D02*
Y456946D01*
X21590Y343916D02*
Y530098D01*
Y343916D02*
X188976Y176530D01*
X204216D01*
X98806Y310758D02*
X140200Y269364D01*
X140901Y265430D02*
X206248D01*
X94234Y308864D02*
Y458423D01*
X98806Y310758D02*
Y460317D01*
X96520Y309811D02*
Y459370D01*
Y309811D02*
X140901Y265430D01*
X140200Y269364D02*
X170376D01*
X236728Y181356D02*
X269240Y148844D01*
X233934Y179832D02*
X267208Y146558D01*
X233934Y179832D02*
Y311150D01*
X267208Y146558D02*
X291592D01*
X21590Y530098D02*
X65024Y573532D01*
X23876Y456946D02*
X65784Y498854D01*
X26162Y450088D02*
X64928Y488854D01*
X65024Y573532D02*
X73418D01*
X73740Y573854D01*
Y558854D02*
X73894Y558700D01*
X469900Y563880D02*
X509580Y524200D01*
X451358Y576072D02*
X457934Y569496D01*
X457934D01*
X465765Y561460D02*
Y561665D01*
X457934Y569496D02*
X465765Y561665D01*
X73740Y548854D02*
X73847Y548747D01*
X153309D01*
X153416Y548640D01*
X73740Y533854D02*
X218298D01*
X216531Y538854D02*
X310885Y444500D01*
X218298Y533854D02*
X309938Y442214D01*
X219792Y503854D02*
X288417Y435229D01*
X73740Y528854D02*
X220065D01*
X288417Y435229D02*
X453517D01*
X220065Y528854D02*
X309118Y439801D01*
X306451Y437515D02*
X455269D01*
X220112Y523854D02*
X306451Y437515D01*
X73740Y538854D02*
X216531D01*
X73740Y523854D02*
X220112D01*
X471678Y346456D02*
X491998Y366776D01*
X464559Y345963D02*
X489712Y371116D01*
X218019Y518854D02*
X295727Y441146D01*
X73740Y518854D02*
X218019D01*
X73821Y508935D02*
X183307D01*
X183388Y509016D01*
X233934Y311150D02*
X238632Y315848D01*
X238888D01*
X73740Y503854D02*
X219792D01*
X73740Y493854D02*
X221410D01*
X64928Y488854D02*
X73740D01*
X170647Y513854D02*
X170753Y513748D01*
X73740Y513854D02*
X170647D01*
X73740Y508854D02*
X73821Y508935D01*
X65784Y498854D02*
X73740D01*
X171522Y270510D02*
X202438D01*
X170376Y269364D02*
X171522Y270510D01*
X82037Y473854D02*
X96520Y459370D01*
X74605Y477989D02*
X81134D01*
X73740Y468854D02*
X83803D01*
X73740Y478854D02*
X74605Y477989D01*
X73740Y473854D02*
X82037D01*
X81134Y477989D02*
X98806Y460317D01*
X83803Y468854D02*
X94234Y458423D01*
X206248Y265430D02*
X206756Y265938D01*
X273304Y151130D02*
X287528D01*
X275844Y155956D02*
X283210D01*
X286270Y159016D02*
Y170310D01*
X283210Y155956D02*
X286270Y159016D01*
X196694Y363371D02*
X214516Y345549D01*
X222891D01*
X287528Y151130D02*
X294270Y157872D01*
Y170310D01*
X478282Y56642D02*
Y68834D01*
X478270Y55750D02*
Y56630D01*
X478282Y56642D01*
X462270Y55750D02*
X462280Y55760D01*
Y68580D01*
X454152Y55868D02*
X454270Y55750D01*
X454152Y55868D02*
Y68834D01*
X438333Y170373D02*
Y182626D01*
X438270Y170310D02*
X438333Y170373D01*
X430270Y170310D02*
X430276Y170316D01*
Y182626D01*
X438270Y55750D02*
X438404Y55884D01*
Y69342D01*
X391905Y121689D02*
X430270Y83324D01*
X391905Y121689D02*
Y122405D01*
X430270Y55750D02*
Y83324D01*
X414270Y55750D02*
Y93736D01*
X397008Y110998D02*
X414270Y93736D01*
X396748Y110998D02*
X397008D01*
X390398Y55878D02*
Y69596D01*
X390270Y55750D02*
X390398Y55878D01*
X342419Y103042D02*
X374270Y71191D01*
Y55750D02*
Y71191D01*
X291592Y146558D02*
X366270Y71880D01*
X269240Y148844D02*
X341884D01*
X350270Y157230D01*
X366270Y55750D02*
Y71880D01*
X350270Y55750D02*
Y72132D01*
X328422Y93980D02*
X350270Y72132D01*
X334264Y170316D02*
X334270Y170310D01*
X334264Y170316D02*
Y183134D01*
X326270Y170310D02*
Y182252D01*
X337312Y193294D02*
X348996D01*
X336365Y195580D02*
X344424D01*
X326270Y182252D02*
X337312Y193294D01*
X318731Y170771D02*
Y177946D01*
X336365Y195580D01*
X334996Y95984D02*
X358270Y72710D01*
Y55750D02*
Y72710D01*
X350270Y157230D02*
Y170310D01*
X342270Y55750D02*
X342392Y55628D01*
Y41402D02*
Y55628D01*
X334264Y55756D02*
X334270Y55750D01*
X334264Y55756D02*
Y70612D01*
X326644Y56124D02*
Y70866D01*
X326270Y55750D02*
X326644Y56124D01*
X342270Y178440D02*
X385064Y221234D01*
X388874Y251897D02*
X389199Y252222D01*
X393334Y216550D02*
Y300848D01*
X389636Y304546D02*
X393334Y300848D01*
X366270Y189486D02*
X393334Y216550D01*
X388874Y216154D02*
Y251897D01*
X318270Y55750D02*
X318516Y55996D01*
Y71120D01*
X310134Y71374D02*
X310270Y71238D01*
Y55750D02*
Y71238D01*
X302270Y70876D02*
X302514Y71120D01*
X302270Y55750D02*
Y70876D01*
X294386Y55866D02*
Y70612D01*
X294270Y55750D02*
X294386Y55866D01*
X286270Y55750D02*
X286512Y55992D01*
Y71120D01*
X302270Y170310D02*
Y188986D01*
X328168Y214884D02*
X343916D01*
X302270Y188986D02*
X328168Y214884D01*
X390270Y200278D02*
X394111Y204119D01*
X390270Y170310D02*
Y200278D01*
X394111Y204119D02*
X411383D01*
X328422Y197866D02*
X340614D01*
X310270Y179714D02*
X328422Y197866D01*
X348996Y193294D02*
X371348Y215646D01*
X344424Y195580D02*
X370840Y221996D01*
X310270Y170310D02*
Y179714D01*
X318270Y170310D02*
X318731Y170771D01*
X358270Y185550D02*
X388874Y216154D01*
X366270Y170310D02*
Y189486D01*
X358270Y170310D02*
Y185550D01*
X342270Y170310D02*
Y178440D01*
X420878Y213614D02*
Y218440D01*
X411383Y204119D02*
X420878Y213614D01*
X414270Y170310D02*
X414274Y170314D01*
X478270Y160032D02*
X481330Y156972D01*
X493522D01*
X550926Y214376D01*
X478270Y160032D02*
Y170310D01*
X547624Y214666D02*
Y242570D01*
X459232Y184404D02*
X513770D01*
X454270Y179442D02*
X459232Y184404D01*
X533908Y256286D02*
X547624Y242570D01*
X454270Y170310D02*
Y179442D01*
X462270Y170310D02*
Y179822D01*
X619318Y320548D02*
X619760Y320990D01*
X604520Y320548D02*
X619318D01*
X590296Y283972D02*
Y294386D01*
X596900Y300990D01*
X619760D01*
X603758Y290830D02*
X619600D01*
X619760Y290990D01*
X619478Y330708D02*
X619760Y330990D01*
X604266Y330708D02*
X619478D01*
X619750Y381000D02*
X619760Y380990D01*
X619590Y391160D02*
X619760Y390990D01*
X584200Y584200D02*
X643890D01*
X584200Y623570D02*
X643260D01*
X643890Y624200D01*
X643570Y604520D02*
X643890Y604200D01*
X584200Y604520D02*
X643570D01*
X643580Y643890D02*
X643890Y644200D01*
X584200Y643890D02*
X643580D01*
D53*
X62484Y448818D02*
X62502Y448836D01*
X66451Y38511D02*
Y81171D01*
D54*
X41580Y429514D02*
X58420D01*
X41240Y429854D02*
X41580Y429514D01*
X73740Y458854D02*
X73929Y459043D01*
X85155D01*
X85344Y459232D01*
X73908Y588686D02*
X85938D01*
X86106Y588518D01*
X73740Y588854D02*
X73908Y588686D01*
X86853Y623839D02*
X86868Y623824D01*
X73755Y623839D02*
X86853D01*
X73740Y623854D02*
X73755Y623839D01*
X40900Y663194D02*
X41240Y662854D01*
X21590Y663194D02*
X40900D01*
X326390Y529740D02*
Y538085D01*
X325882Y538593D02*
Y538988D01*
Y538593D02*
X326390Y538085D01*
X607568Y564134D02*
X643824D01*
X643890Y564200D01*
X622046Y431292D02*
X647358D01*
X647760Y430890D01*
X603796Y401028D02*
X619722D01*
X603758Y401066D02*
X603796Y401028D01*
X619722D02*
X619760Y400990D01*
X604266Y370840D02*
X604341Y370915D01*
X619685D02*
X619760Y370990D01*
X604341Y370915D02*
X619685D01*
X604200Y340802D02*
X619572D01*
X619760Y340990D01*
X604012Y340614D02*
X604200Y340802D01*
X553466Y341264D02*
Y351282D01*
Y341264D02*
X553608Y341122D01*
X553496Y326390D02*
X553750Y326136D01*
X565150D01*
X553720Y306070D02*
X567182D01*
X603551Y310943D02*
X619713D01*
X619760Y310990D01*
X603504Y310896D02*
X603551Y310943D01*
X602234Y280670D02*
X602394Y280830D01*
X619600D01*
X619760Y280990D01*
X647192Y208788D02*
Y230522D01*
X647760Y231090D01*
X447294Y211474D02*
Y222504D01*
X447040Y211220D02*
X447294Y211474D01*
X387219Y203962D02*
X393490Y210233D01*
X399933D01*
X400812Y211112D01*
X386842Y203962D02*
X387219D01*
X279375Y180823D02*
X287757D01*
X277659Y170921D02*
Y179107D01*
Y170921D02*
X278270Y170310D01*
X277659Y179107D02*
X279375Y180823D01*
X287757D02*
X288036Y181102D01*
X385572Y153670D02*
Y154065D01*
X382270Y157367D02*
Y170310D01*
Y157367D02*
X385572Y154065D01*
X422270Y170310D02*
X422336Y170244D01*
Y155260D02*
Y170244D01*
Y155260D02*
X422402Y155194D01*
X470339Y157295D02*
Y170241D01*
X470270Y170310D02*
X470339Y170241D01*
Y157295D02*
X470408Y157226D01*
X495543Y170310D02*
X496175Y170942D01*
X486270Y170310D02*
X495543D01*
X496175Y170942D02*
X496570D01*
X487680Y16110D02*
X500131D01*
X500747Y15494D01*
X501142D01*
X469538Y15748D02*
X469900Y16110D01*
X456946Y15748D02*
X469538D01*
X446401Y42041D02*
X446532Y41910D01*
X446270Y55750D02*
X446401Y55619D01*
Y42041D02*
Y55619D01*
X422910Y16110D02*
X423272Y15748D01*
X437642D01*
X398271Y55751D02*
Y69595D01*
X398272Y69596D01*
X398270Y55750D02*
X398271Y55751D01*
X382270Y16110D02*
X382378Y16002D01*
X396748D01*
X278492Y15748D02*
X292608D01*
X278130Y16110D02*
X278492Y15748D01*
X122936Y38608D02*
Y77470D01*
X117094Y83312D02*
X122936Y77470D01*
X35052Y83312D02*
X40894Y77470D01*
Y38354D02*
Y77470D01*
X61468Y464058D02*
X61570Y463956D01*
X73638D01*
X73740Y463854D01*
X600486Y538510D02*
X606298Y544322D01*
X591058Y538510D02*
X600486D01*
X643768Y544322D02*
X643890Y544200D01*
X606298Y544322D02*
X643768D01*
X591058Y480314D02*
Y490078D01*
X526542Y305562D02*
X539712D01*
X540220Y306070D01*
X602502Y271004D02*
X619746D01*
X619760Y270990D01*
X602488Y271018D02*
X602502Y271004D01*
X619699Y261051D02*
X619760Y260990D01*
X602803Y261051D02*
X619699D01*
X602742Y261112D02*
X602803Y261051D01*
X401868Y186411D02*
X406700D01*
X406979Y186690D01*
X400812Y185355D02*
X401868Y186411D01*
X446786Y197466D02*
X447040Y197720D01*
X446786Y183388D02*
Y197466D01*
X446270Y182477D02*
X446786Y182993D01*
X446270Y170310D02*
Y182477D01*
X446786Y182993D02*
Y183388D01*
X398270Y182812D02*
X400812Y185355D01*
Y197612D01*
X398270Y170310D02*
Y182812D01*
X486156Y31134D02*
X487680Y29610D01*
X486156Y31134D02*
Y41910D01*
X486213Y55693D02*
X486270Y55750D01*
X486213Y41967D02*
Y55693D01*
X486156Y41910D02*
X486213Y41967D01*
X469900Y29610D02*
X470408Y30118D01*
Y41148D01*
X470339Y41217D02*
Y55681D01*
Y41217D02*
X470408Y41148D01*
X470270Y55750D02*
X470339Y55681D01*
X422402Y30118D02*
X422910Y29610D01*
X422402Y30118D02*
Y41910D01*
X422336Y41976D02*
Y54930D01*
Y41976D02*
X422402Y41910D01*
X421894Y55372D02*
X422336Y54930D01*
X422270Y55748D02*
Y55750D01*
X421894Y55372D02*
X422270Y55748D01*
X382270Y40132D02*
Y55750D01*
Y29610D02*
Y40132D01*
X278130Y29610D02*
X278291Y29771D01*
X278270Y42771D02*
Y55750D01*
X278291Y29771D02*
Y42771D01*
X148336Y78345D02*
X151892Y81901D01*
Y82296D01*
X148336Y38608D02*
Y78345D01*
X66294Y38354D02*
X66451Y38511D01*
Y81171D02*
X66609Y81328D01*
D55*
X539100Y340614D02*
X539496Y340218D01*
Y326390D02*
Y340218D01*
X524256Y340614D02*
X539100D01*
D56*
X400000Y640000D02*
D03*
X600000Y130000D02*
D03*
X50000Y220000D02*
D03*
X220000Y40000D02*
D03*
D57*
X664464Y46990D02*
D03*
D58*
Y72390D02*
D03*
Y97790D02*
D03*
Y123190D02*
D03*
Y148590D02*
D03*
Y173990D02*
D03*
D59*
X122936Y38608D02*
D03*
X148336D02*
D03*
X40894Y38354D02*
D03*
X66294D02*
D03*
D60*
X355092Y567690D02*
D03*
X62484Y448818D02*
D03*
X50038Y629158D02*
D03*
X222504Y226822D02*
D03*
X258064Y197358D02*
D03*
X295402Y193294D02*
D03*
X408940Y250190D02*
D03*
X356108Y248412D02*
D03*
X330962Y208280D02*
D03*
X409448Y196850D02*
D03*
X468630Y189738D02*
D03*
X522732Y284734D02*
D03*
X525526Y290322D02*
D03*
X564642Y290830D02*
D03*
X566420Y313690D02*
D03*
X523748Y325628D02*
D03*
X523494Y356870D02*
D03*
X525272Y393192D02*
D03*
X560578Y401066D02*
D03*
X522224Y459994D02*
D03*
X549802Y458851D02*
D03*
X483362Y504444D02*
D03*
X475996D02*
D03*
X420116Y502920D02*
D03*
X368554Y503936D02*
D03*
X516890Y529336D02*
D03*
X476250Y539496D02*
D03*
X417576Y541274D02*
D03*
X360172Y538734D02*
D03*
X285496Y538988D02*
D03*
X209042Y443992D02*
D03*
X107950Y328168D02*
D03*
X116840Y429006D02*
D03*
X268732Y402082D02*
D03*
X206756Y401066D02*
D03*
X243586Y369824D02*
D03*
X206502Y369062D02*
D03*
X241577Y287394D02*
D03*
X245872Y290830D02*
D03*
X242062Y296164D02*
D03*
X244856Y301244D02*
D03*
X202184Y304546D02*
D03*
X203962Y289560D02*
D03*
X206248Y276098D02*
D03*
X199390Y256032D02*
D03*
X157988Y256540D02*
D03*
X106934Y341630D02*
D03*
X89916Y330962D02*
D03*
X65024Y359664D02*
D03*
X16510Y352044D02*
D03*
X58420Y429514D02*
D03*
X85344Y459232D02*
D03*
X86106Y588518D02*
D03*
X259545Y598625D02*
D03*
X86868Y623824D02*
D03*
X21590Y663194D02*
D03*
X325882Y538988D02*
D03*
X607568Y564134D02*
D03*
X622046Y431292D02*
D03*
X603758Y401066D02*
D03*
X604266Y370840D02*
D03*
X604012Y340614D02*
D03*
X553466Y351282D02*
D03*
X565150Y326136D02*
D03*
X567182Y306070D02*
D03*
X603504Y310896D02*
D03*
X602234Y280670D02*
D03*
X647192Y208788D02*
D03*
X447294Y222504D02*
D03*
X386842Y203962D02*
D03*
X288036Y181102D02*
D03*
X385572Y153670D02*
D03*
X422402Y155194D02*
D03*
X470408Y157226D02*
D03*
X496570Y170942D02*
D03*
X594868Y23368D02*
D03*
X521208Y23114D02*
D03*
X501142Y15494D02*
D03*
X456946Y15748D02*
D03*
X446532Y41910D02*
D03*
X437642Y15748D02*
D03*
X398272Y69596D02*
D03*
X396748Y16002D02*
D03*
X292608Y15748D02*
D03*
X117094Y83312D02*
D03*
X35052D02*
D03*
X199390Y276860D02*
D03*
X132842Y287782D02*
D03*
X61468Y464058D02*
D03*
X31496Y387604D02*
D03*
X194564Y321564D02*
D03*
X243078Y363220D02*
D03*
Y400558D02*
D03*
X244602Y444754D02*
D03*
X326156Y505022D02*
D03*
X304038Y538734D02*
D03*
X292862Y504190D02*
D03*
X361040Y503935D02*
D03*
X411226Y502412D02*
D03*
X606298Y544322D02*
D03*
X591058Y480314D02*
D03*
X545338Y498348D02*
D03*
X524002Y466344D02*
D03*
X523748Y400558D02*
D03*
X524256Y340614D02*
D03*
X529844Y310896D02*
D03*
X526542Y305562D02*
D03*
X602488Y271018D02*
D03*
X602742Y261112D02*
D03*
X466415Y221996D02*
D03*
X410972Y222758D02*
D03*
X362255Y219417D02*
D03*
X351028Y221996D02*
D03*
X357886Y222758D02*
D03*
X296164Y223520D02*
D03*
X246634Y202946D02*
D03*
X406979Y186690D02*
D03*
X446786Y183388D02*
D03*
X486156Y41910D02*
D03*
X470408Y41148D02*
D03*
X422402Y41910D02*
D03*
X382270Y40132D02*
D03*
X278291Y42771D02*
D03*
X151892Y82296D02*
D03*
X66609Y81328D02*
D03*
X646430Y382524D02*
D03*
X642874Y392684D02*
D03*
X604520Y391160D02*
D03*
Y381000D02*
D03*
Y360680D02*
D03*
Y351028D02*
D03*
X351282Y459740D02*
D03*
X490024Y426287D02*
D03*
X467106Y425196D02*
D03*
X488950Y272796D02*
D03*
X316484Y344424D02*
D03*
X322329Y416563D02*
D03*
X297049Y320877D02*
D03*
X526288Y255778D02*
D03*
X525526Y265684D02*
D03*
X325832Y357573D02*
D03*
X321310Y267716D02*
D03*
X292354Y609346D02*
D03*
X280924Y612902D02*
D03*
X254000Y219019D02*
D03*
X62345Y634014D02*
D03*
X261112Y214884D02*
D03*
X243332Y275590D02*
D03*
X56388Y618998D02*
D03*
X337058Y250698D02*
D03*
X211074D02*
D03*
X240163Y335365D02*
D03*
X51562Y613918D02*
D03*
X231306Y420457D02*
D03*
X226060Y416052D02*
D03*
X59182Y608838D02*
D03*
X49784Y593344D02*
D03*
X429040Y512943D02*
D03*
X450755Y430879D02*
D03*
X458978Y468884D02*
D03*
X394208Y593344D02*
D03*
X380238Y558546D02*
D03*
X309626Y577850D02*
D03*
X258826Y573786D02*
D03*
X496570Y385572D02*
D03*
X484124Y380746D02*
D03*
X204216Y176530D02*
D03*
X469900Y563880D02*
D03*
X451358Y576072D02*
D03*
X153416Y548640D02*
D03*
X491588Y415642D02*
D03*
X471678Y346456D02*
D03*
X464559Y345963D02*
D03*
X471170Y360426D02*
D03*
X295727Y441146D02*
D03*
X183388Y509016D02*
D03*
X331216Y334772D02*
D03*
X224536Y187960D02*
D03*
X229108Y183642D02*
D03*
X170753Y513748D02*
D03*
X206756Y265938D02*
D03*
X207572Y260499D02*
D03*
X202438Y270510D02*
D03*
X107442Y376103D02*
D03*
X346710Y367792D02*
D03*
X342392Y357124D02*
D03*
X271272Y379984D02*
D03*
X222891Y345549D02*
D03*
X196694Y363371D02*
D03*
X491236Y293370D02*
D03*
X478282Y68834D02*
D03*
X492358Y300983D02*
D03*
X462280Y68580D02*
D03*
X454313Y365943D02*
D03*
X454152Y68834D02*
D03*
X442722Y354330D02*
D03*
X438333Y182626D02*
D03*
X430276D02*
D03*
X438404Y69342D02*
D03*
X391905Y122405D02*
D03*
X396748Y110998D02*
D03*
X401320Y100838D02*
D03*
X390398Y69596D02*
D03*
X342419Y103042D02*
D03*
X238888Y315848D02*
D03*
X328422Y93980D02*
D03*
X334264Y183134D02*
D03*
X334996Y95984D02*
D03*
X342392Y41402D02*
D03*
X403098Y256286D02*
D03*
X334264Y70612D02*
D03*
X398018Y251714D02*
D03*
X380929Y223266D02*
D03*
X326644Y70866D02*
D03*
X389199Y252222D02*
D03*
X318516Y71120D02*
D03*
X275082Y395732D02*
D03*
X310134Y71374D02*
D03*
X271780Y385572D02*
D03*
X270925Y391067D02*
D03*
X302514Y71120D02*
D03*
X294386Y70612D02*
D03*
X286512Y71120D02*
D03*
X271041Y373380D02*
D03*
X267716Y367284D02*
D03*
X370840Y221996D02*
D03*
X371348Y215646D02*
D03*
X389636Y304546D02*
D03*
X584200Y584200D02*
D03*
Y604520D02*
D03*
Y623570D02*
D03*
Y643890D02*
D03*
X604520Y320548D02*
D03*
X604266Y330708D02*
D03*
X603758Y290830D02*
D03*
X590296Y283972D02*
D03*
X533908Y256286D02*
D03*
X420878Y218440D02*
D03*
X425450Y223266D02*
D03*
X431292Y214884D02*
D03*
D61*
X619760Y400990D02*
D03*
Y390990D02*
D03*
Y380990D02*
D03*
Y370990D02*
D03*
Y360990D02*
D03*
Y350990D02*
D03*
Y340990D02*
D03*
Y330990D02*
D03*
Y320990D02*
D03*
Y310990D02*
D03*
Y300990D02*
D03*
Y290990D02*
D03*
Y280990D02*
D03*
Y270990D02*
D03*
Y260990D02*
D03*
D62*
X647760Y430890D02*
D03*
Y231090D02*
D03*
D63*
X486270Y55750D02*
D03*
X478270D02*
D03*
X470270D02*
D03*
X462270D02*
D03*
X454270D02*
D03*
X446270D02*
D03*
X438270D02*
D03*
X430270D02*
D03*
X422270D02*
D03*
X414270D02*
D03*
X406270D02*
D03*
X398270D02*
D03*
X390270D02*
D03*
X382270D02*
D03*
X374270D02*
D03*
X366270D02*
D03*
X358270D02*
D03*
X350270D02*
D03*
X342270D02*
D03*
X334270D02*
D03*
X326270D02*
D03*
X318270D02*
D03*
X310270D02*
D03*
X302270D02*
D03*
X294270D02*
D03*
X286270D02*
D03*
X278270D02*
D03*
Y170310D02*
D03*
X286270D02*
D03*
X294270D02*
D03*
X302270D02*
D03*
X310270D02*
D03*
X318270D02*
D03*
X326270D02*
D03*
X334270D02*
D03*
X342270D02*
D03*
X350270D02*
D03*
X358270D02*
D03*
X366270D02*
D03*
X374270D02*
D03*
X382270D02*
D03*
X390270D02*
D03*
X398270D02*
D03*
X406270D02*
D03*
X414270D02*
D03*
X422270D02*
D03*
X430270D02*
D03*
X438270D02*
D03*
X446270D02*
D03*
X454270D02*
D03*
X462270D02*
D03*
X470270D02*
D03*
X478270D02*
D03*
X486270D02*
D03*
D64*
X73740Y448854D02*
D03*
Y453854D02*
D03*
Y458854D02*
D03*
Y463854D02*
D03*
Y468854D02*
D03*
Y473854D02*
D03*
Y478854D02*
D03*
Y483854D02*
D03*
Y488854D02*
D03*
Y493854D02*
D03*
Y498854D02*
D03*
Y503854D02*
D03*
Y508854D02*
D03*
Y513854D02*
D03*
Y518854D02*
D03*
Y523854D02*
D03*
Y528854D02*
D03*
Y533854D02*
D03*
Y538854D02*
D03*
Y543854D02*
D03*
Y548854D02*
D03*
Y553854D02*
D03*
Y558854D02*
D03*
Y563854D02*
D03*
Y568854D02*
D03*
Y573854D02*
D03*
Y578854D02*
D03*
Y583854D02*
D03*
Y588854D02*
D03*
Y593854D02*
D03*
Y598854D02*
D03*
Y603854D02*
D03*
Y608854D02*
D03*
Y613854D02*
D03*
Y618854D02*
D03*
Y623854D02*
D03*
Y628854D02*
D03*
Y633854D02*
D03*
Y638854D02*
D03*
Y643854D02*
D03*
D65*
X41240Y429854D02*
D03*
Y662854D02*
D03*
D66*
X665890Y668700D02*
D03*
Y479700D02*
D03*
D67*
X643890Y504200D02*
D03*
Y524200D02*
D03*
Y544200D02*
D03*
Y564200D02*
D03*
Y584200D02*
D03*
Y604200D02*
D03*
Y624200D02*
D03*
Y644200D02*
D03*
D68*
X73740Y448854D02*
Y453854D01*
X62502Y448836D02*
X73722D01*
M02*
