G04*
G04 #@! TF.GenerationSoftware,Altium Limited,Altium Designer,23.3.1 (30)*
G04*
G04 Layer_Color=8421504*
%FSLAX25Y25*%
%MOIN*%
G70*
G04*
G04 #@! TF.SameCoordinates,0C139B8F-EE47-4A66-AA8D-B4512E762C46*
G04*
G04*
G04 #@! TF.FilePolarity,Positive*
G04*
G01*
G75*
%ADD14R,0.03150X0.03543*%
%ADD15R,0.03543X0.03150*%
%ADD16R,0.06299X0.11024*%
%ADD17R,0.10236X0.04331*%
%ADD18R,0.21654X0.03937*%
%ADD19R,0.12205X0.06693*%
D14*
X102744Y99500D02*
D03*
X108256D02*
D03*
X102744Y91500D02*
D03*
X108256D02*
D03*
X102744Y75500D02*
D03*
X108256D02*
D03*
X78744Y46500D02*
D03*
X84256D02*
D03*
X109756Y107000D02*
D03*
X104244D02*
D03*
X109756Y115000D02*
D03*
X104244D02*
D03*
X21756Y42000D02*
D03*
X16244D02*
D03*
D15*
X114000Y54756D02*
D03*
Y49244D02*
D03*
X100372Y67128D02*
D03*
Y61616D02*
D03*
X70000Y19000D02*
D03*
Y24512D02*
D03*
X80000Y18744D02*
D03*
Y24256D02*
D03*
D16*
X49500Y24035D02*
D03*
Y40965D02*
D03*
D17*
X22508Y114874D02*
D03*
Y107000D02*
D03*
Y99126D02*
D03*
Y91252D02*
D03*
Y83378D02*
D03*
Y75504D02*
D03*
Y67630D02*
D03*
Y59756D02*
D03*
X85500D02*
D03*
Y67630D02*
D03*
Y75504D02*
D03*
Y83378D02*
D03*
Y91252D02*
D03*
Y99126D02*
D03*
Y107000D02*
D03*
Y114874D02*
D03*
D18*
X132000Y16378D02*
D03*
Y24252D02*
D03*
Y32126D02*
D03*
Y40000D02*
D03*
Y47874D02*
D03*
Y55748D02*
D03*
Y63622D02*
D03*
Y71496D02*
D03*
D19*
X140661Y81142D02*
D03*
Y6732D02*
D03*
M02*
