G04*
G04 #@! TF.GenerationSoftware,Altium Limited,Altium Designer,23.3.1 (30)*
G04*
G04 Layer_Physical_Order=1*
G04 Layer_Color=255*
%FSLAX25Y25*%
%MOIN*%
G70*
G04*
G04 #@! TF.SameCoordinates,0C139B8F-EE47-4A66-AA8D-B4512E762C46*
G04*
G04*
G04 #@! TF.FilePolarity,Positive*
G04*
G01*
G75*
%ADD14R,0.03150X0.03543*%
%ADD15R,0.03543X0.03150*%
%ADD16R,0.06299X0.11024*%
%ADD17R,0.10236X0.04331*%
%ADD18R,0.21654X0.03937*%
%ADD19R,0.12205X0.06693*%
%ADD32C,0.01000*%
%ADD33C,0.16535*%
%ADD34C,0.05906*%
%ADD35R,0.05906X0.05906*%
%ADD36O,0.06890X0.09843*%
%ADD37O,0.09843X0.05906*%
%ADD38C,0.01968*%
G36*
X152500Y0D02*
X0D01*
Y155000D01*
X152500D01*
Y0D01*
D02*
G37*
%LPC*%
G36*
X118863Y146768D02*
X118250D01*
Y138250D01*
X126768D01*
Y138864D01*
X126431Y140557D01*
X125770Y142153D01*
X124810Y143589D01*
X123589Y144810D01*
X122153Y145770D01*
X120557Y146431D01*
X118863Y146768D01*
D02*
G37*
G36*
X117750D02*
X117137D01*
X115443Y146431D01*
X113847Y145770D01*
X112411Y144810D01*
X111190Y143589D01*
X110230Y142153D01*
X109569Y140557D01*
X109232Y138864D01*
Y138250D01*
X117750D01*
Y146768D01*
D02*
G37*
G36*
X126768Y137750D02*
X118250D01*
Y129232D01*
X118863D01*
X120557Y129569D01*
X122153Y130230D01*
X123589Y131190D01*
X124810Y132411D01*
X125770Y133847D01*
X126431Y135443D01*
X126768Y137136D01*
Y137750D01*
D02*
G37*
G36*
X117750D02*
X109232D01*
Y137136D01*
X109569Y135443D01*
X110230Y133847D01*
X111190Y132411D01*
X112411Y131190D01*
X113847Y130230D01*
X115443Y129569D01*
X117137Y129232D01*
X117750D01*
Y137750D01*
D02*
G37*
G36*
X111831Y117272D02*
X107681D01*
Y112728D01*
X111831D01*
Y113980D01*
X118292D01*
X118608Y113665D01*
X119187Y113425D01*
X119813D01*
X120392Y113665D01*
X120835Y114108D01*
X121075Y114687D01*
Y115313D01*
X120835Y115892D01*
X120392Y116335D01*
X119813Y116575D01*
X119187D01*
X118608Y116335D01*
X118292Y116020D01*
X111831D01*
Y117272D01*
D02*
G37*
G36*
X91118Y117539D02*
X79882D01*
Y112209D01*
X91118D01*
Y113854D01*
X102169D01*
Y112728D01*
X106319D01*
Y117272D01*
X102169D01*
Y115894D01*
X91118D01*
Y117539D01*
D02*
G37*
G36*
X28126D02*
X16890D01*
Y115894D01*
X13874D01*
X13484Y115816D01*
X13153Y115595D01*
X8418Y110860D01*
X8197Y110529D01*
X8119Y110138D01*
Y106085D01*
X7803Y105770D01*
X7564Y105191D01*
Y104564D01*
X7803Y103985D01*
X8247Y103542D01*
X8825Y103303D01*
X9452D01*
X10031Y103542D01*
X10474Y103985D01*
X10713Y104564D01*
Y105191D01*
X10474Y105770D01*
X10158Y106085D01*
Y109716D01*
X14296Y113854D01*
X16890D01*
Y112209D01*
X28126D01*
Y117539D01*
D02*
G37*
G36*
X143968Y118420D02*
X140032D01*
X139130Y118301D01*
X138290Y117953D01*
X137569Y117400D01*
X137015Y116678D01*
X136668Y115838D01*
X136549Y114937D01*
X136668Y114036D01*
X137015Y113196D01*
X137569Y112475D01*
X138290Y111921D01*
X139130Y111573D01*
X140032Y111454D01*
X143968D01*
X144870Y111573D01*
X145710Y111921D01*
X146431Y112475D01*
X146985Y113196D01*
X147332Y114036D01*
X147451Y114937D01*
X147332Y115838D01*
X146985Y116678D01*
X146431Y117400D01*
X145710Y117953D01*
X144870Y118301D01*
X143968Y118420D01*
D02*
G37*
G36*
X111831Y109272D02*
X107681D01*
Y104728D01*
X111831D01*
Y105980D01*
X118292D01*
X118608Y105665D01*
X119187Y105425D01*
X119813D01*
X120392Y105665D01*
X120835Y106108D01*
X121075Y106687D01*
Y107313D01*
X120835Y107892D01*
X120392Y108335D01*
X119813Y108575D01*
X119187D01*
X118608Y108335D01*
X118292Y108020D01*
X111831D01*
Y109272D01*
D02*
G37*
G36*
X91118Y109665D02*
X79882D01*
Y104335D01*
X91118D01*
Y105980D01*
X102169D01*
Y104728D01*
X106319D01*
Y109272D01*
X102169D01*
Y108020D01*
X91118D01*
Y109665D01*
D02*
G37*
G36*
X28126D02*
X16890D01*
Y104335D01*
X28126D01*
Y109665D01*
D02*
G37*
G36*
X143968Y110546D02*
X140032D01*
X139130Y110427D01*
X138290Y110079D01*
X137569Y109526D01*
X137015Y108804D01*
X136668Y107964D01*
X136549Y107063D01*
X136668Y106162D01*
X137015Y105322D01*
X137569Y104601D01*
X138290Y104047D01*
X139130Y103699D01*
X140032Y103580D01*
X143968D01*
X144870Y103699D01*
X145710Y104047D01*
X146431Y104601D01*
X146985Y105322D01*
X147332Y106162D01*
X147451Y107063D01*
X147332Y107964D01*
X146985Y108804D01*
X146431Y109526D01*
X145710Y110079D01*
X144870Y110427D01*
X143968Y110546D01*
D02*
G37*
G36*
X91118Y101791D02*
X79882D01*
Y96461D01*
X91118D01*
Y98106D01*
X95980D01*
Y96707D01*
X95665Y96392D01*
X95425Y95813D01*
Y95187D01*
X95665Y94608D01*
X96108Y94165D01*
X96687Y93925D01*
X97313D01*
X97892Y94165D01*
X98335Y94608D01*
X98575Y95187D01*
Y95813D01*
X98335Y96392D01*
X98020Y96707D01*
Y98106D01*
X100669D01*
Y97228D01*
X104819D01*
Y101772D01*
X100669D01*
Y100146D01*
X91118D01*
Y101791D01*
D02*
G37*
G36*
X28126D02*
X16890D01*
Y100146D01*
X14626D01*
X14236Y100068D01*
X13905Y99847D01*
X11279Y97221D01*
X11058Y96890D01*
X10980Y96500D01*
Y94708D01*
X10665Y94392D01*
X10425Y93813D01*
Y93187D01*
X10665Y92608D01*
X11108Y92165D01*
X11687Y91925D01*
X12313D01*
X12892Y92165D01*
X13335Y92608D01*
X13575Y93187D01*
Y93813D01*
X13335Y94392D01*
X13020Y94708D01*
Y96078D01*
X15048Y98106D01*
X16890D01*
Y96461D01*
X28126D01*
Y101791D01*
D02*
G37*
G36*
X110331Y101772D02*
X106181D01*
Y97228D01*
X107236D01*
Y93772D01*
X106181D01*
Y89228D01*
X110331D01*
Y90480D01*
X111293D01*
X111608Y90165D01*
X112187Y89925D01*
X112813D01*
X113392Y90165D01*
X113835Y90608D01*
X114075Y91187D01*
Y91813D01*
X113835Y92392D01*
X113392Y92835D01*
X112813Y93075D01*
X112187D01*
X111608Y92835D01*
X111293Y92520D01*
X110331D01*
Y93772D01*
X109275D01*
Y97228D01*
X110331D01*
Y101772D01*
D02*
G37*
G36*
X28126Y93917D02*
X16890D01*
Y88587D01*
X28126D01*
Y93917D01*
D02*
G37*
G36*
X147264Y84988D02*
X134059D01*
Y77295D01*
X147264D01*
Y84988D01*
D02*
G37*
G36*
X91118Y93917D02*
X79882D01*
Y88587D01*
X91118D01*
Y90232D01*
X100669D01*
Y89228D01*
X101725D01*
Y88256D01*
X101802Y87866D01*
X102023Y87535D01*
X111983Y77575D01*
X111776Y77075D01*
X111687D01*
X111108Y76835D01*
X110831Y76558D01*
X110331Y76612D01*
Y77772D01*
X106181D01*
Y73228D01*
X110331D01*
Y74388D01*
X110831Y74442D01*
X111108Y74165D01*
X111687Y73925D01*
X112313D01*
X112892Y74165D01*
X113335Y74608D01*
X113575Y75187D01*
Y75276D01*
X114075Y75483D01*
X118783Y70775D01*
X119114Y70554D01*
X119504Y70477D01*
X120673D01*
Y69028D01*
X143327D01*
Y73965D01*
X120673D01*
Y72516D01*
X119926D01*
X103764Y88678D01*
Y89228D01*
X104819D01*
Y93772D01*
X100669D01*
Y92272D01*
X91118D01*
Y93917D01*
D02*
G37*
G36*
Y78169D02*
X79882D01*
Y72839D01*
X91118D01*
Y74484D01*
X95288D01*
X95608Y74165D01*
X96187Y73925D01*
X96813D01*
X97392Y74165D01*
X97711Y74484D01*
X100669D01*
Y73228D01*
X104819D01*
Y77772D01*
X100669D01*
Y76524D01*
X97704D01*
X97392Y76835D01*
X96813Y77075D01*
X96187D01*
X95608Y76835D01*
X95296Y76524D01*
X91118D01*
Y78169D01*
D02*
G37*
G36*
X102644Y63691D02*
X100622D01*
Y61866D01*
X102644D01*
Y63691D01*
D02*
G37*
G36*
X100122D02*
X98100D01*
Y61866D01*
X100122D01*
Y63691D01*
D02*
G37*
G36*
X91118Y62421D02*
X85750D01*
Y60006D01*
X91118D01*
Y62421D01*
D02*
G37*
G36*
X85250D02*
X79882D01*
Y60006D01*
X85250D01*
Y62421D01*
D02*
G37*
G36*
X102644Y61366D02*
X100622D01*
Y59541D01*
X102644D01*
Y61366D01*
D02*
G37*
G36*
X100122D02*
X98100D01*
Y59541D01*
X100122D01*
Y61366D01*
D02*
G37*
G36*
X91118Y59506D02*
X85750D01*
Y57091D01*
X91118D01*
Y59506D01*
D02*
G37*
G36*
X85250D02*
X79882D01*
Y57091D01*
X85250D01*
Y59506D01*
D02*
G37*
G36*
X143327Y58217D02*
X120673D01*
Y56520D01*
X119708D01*
X119392Y56835D01*
X118813Y57075D01*
X118187D01*
X117608Y56835D01*
X117292Y56520D01*
X116272D01*
Y56831D01*
X111728D01*
Y52681D01*
X116272D01*
Y54480D01*
X117292D01*
X117608Y54165D01*
X118187Y53925D01*
X118813D01*
X119392Y54165D01*
X119708Y54480D01*
X120673D01*
Y53280D01*
X143327D01*
Y58217D01*
D02*
G37*
G36*
X116272Y51319D02*
X114250D01*
Y49494D01*
X116272D01*
Y51319D01*
D02*
G37*
G36*
X113750D02*
X111728D01*
Y49494D01*
X113750D01*
Y51319D01*
D02*
G37*
G36*
X143327Y50343D02*
X132250D01*
Y48124D01*
X143327D01*
Y50343D01*
D02*
G37*
G36*
X131750D02*
X120673D01*
Y48124D01*
X131750D01*
Y50343D01*
D02*
G37*
G36*
X116272Y48994D02*
X114250D01*
Y47169D01*
X116272D01*
Y48994D01*
D02*
G37*
G36*
X113750D02*
X111728D01*
Y47169D01*
X113750D01*
Y48994D01*
D02*
G37*
G36*
X86331Y48772D02*
X84506D01*
Y46750D01*
X86331D01*
Y48772D01*
D02*
G37*
G36*
X84006D02*
X82181D01*
Y46750D01*
X84006D01*
Y48772D01*
D02*
G37*
G36*
X143327Y47624D02*
X132250D01*
Y45406D01*
X143327D01*
Y47624D01*
D02*
G37*
G36*
X131750D02*
X120673D01*
Y45406D01*
X131750D01*
Y47624D01*
D02*
G37*
G36*
X86331Y46250D02*
X84506D01*
Y44228D01*
X86331D01*
Y46250D01*
D02*
G37*
G36*
X84006D02*
X82181D01*
Y44228D01*
X84006D01*
Y46250D01*
D02*
G37*
G36*
X18319Y44272D02*
X16494D01*
Y42250D01*
X18319D01*
Y44272D01*
D02*
G37*
G36*
X15994D02*
X14169D01*
Y42250D01*
X15994D01*
Y44272D01*
D02*
G37*
G36*
X53150Y46976D02*
X49750D01*
Y41215D01*
X53150D01*
Y46976D01*
D02*
G37*
G36*
X49250D02*
X45850D01*
Y41215D01*
X49250D01*
Y46976D01*
D02*
G37*
G36*
X91118Y86043D02*
X79882D01*
Y84398D01*
X76378D01*
X75988Y84320D01*
X75657Y84099D01*
X70279Y78721D01*
X70058Y78390D01*
X69980Y78000D01*
Y53500D01*
Y51000D01*
X70058Y50610D01*
X70279Y50279D01*
X74779Y45779D01*
X75110Y45558D01*
X75500Y45480D01*
X76669D01*
Y44228D01*
X80819D01*
Y48772D01*
X76669D01*
Y47520D01*
X75922D01*
X72020Y51422D01*
Y52480D01*
X89078D01*
X98425Y43133D01*
Y42687D01*
X98665Y42108D01*
X99108Y41665D01*
X99459Y41520D01*
X99359Y41020D01*
X78422D01*
X35343Y84099D01*
X35012Y84320D01*
X34622Y84398D01*
X28126D01*
Y86043D01*
X16890D01*
Y80713D01*
X28126D01*
Y82358D01*
X34200D01*
X39552Y77006D01*
X39548Y76969D01*
X39327Y76524D01*
X28126D01*
Y78169D01*
X16890D01*
Y72839D01*
X28126D01*
Y74484D01*
X39074D01*
X44636Y68922D01*
X44317Y68534D01*
X44260Y68572D01*
X43870Y68650D01*
X28126D01*
Y70295D01*
X16890D01*
Y64965D01*
X28126D01*
Y66610D01*
X43448D01*
X86779Y23279D01*
X87110Y23058D01*
X87500Y22980D01*
X120673D01*
Y21783D01*
X143327D01*
Y26720D01*
X120673D01*
Y25020D01*
X87922D01*
X82108Y30834D01*
X82427Y31222D01*
X82484Y31184D01*
X82874Y31106D01*
X120673D01*
Y29658D01*
X143327D01*
Y34595D01*
X120673D01*
Y33146D01*
X83296D01*
X77944Y38498D01*
X77948Y38535D01*
X78169Y38980D01*
X120673D01*
Y37532D01*
X143327D01*
Y42469D01*
X120673D01*
Y41020D01*
X100641D01*
X100541Y41520D01*
X100892Y41665D01*
X101335Y42108D01*
X101575Y42687D01*
Y43313D01*
X101335Y43892D01*
X100892Y44335D01*
X100313Y44575D01*
X99867D01*
X90221Y54221D01*
X89890Y54442D01*
X89500Y54520D01*
X72020D01*
Y77578D01*
X76800Y82358D01*
X79882D01*
Y80713D01*
X91118D01*
Y86043D01*
D02*
G37*
G36*
X18319Y41750D02*
X16494D01*
Y39728D01*
X18319D01*
Y41750D01*
D02*
G37*
G36*
X15994D02*
X14169D01*
Y39728D01*
X15994D01*
Y41750D01*
D02*
G37*
G36*
X53150Y40715D02*
X49750D01*
Y34953D01*
X53150D01*
Y40715D01*
D02*
G37*
G36*
X49250D02*
X45850D01*
Y34953D01*
X49250D01*
Y40715D01*
D02*
G37*
G36*
X28126Y62421D02*
X16890D01*
Y57091D01*
X20736D01*
Y44272D01*
X19681D01*
Y39728D01*
X20736D01*
Y35000D01*
Y32940D01*
X20371Y32575D01*
X20187D01*
X19608Y32335D01*
X19165Y31892D01*
X18925Y31313D01*
Y30687D01*
X19165Y30108D01*
X19608Y29665D01*
X20187Y29425D01*
X20813D01*
X21392Y29665D01*
X21835Y30108D01*
X22075Y30687D01*
Y31313D01*
X22051Y31371D01*
X22477Y31797D01*
X22698Y32128D01*
X22775Y32518D01*
Y33980D01*
X31578D01*
X42244Y23314D01*
X42574Y23094D01*
X42965Y23016D01*
X45850D01*
Y18024D01*
X53150D01*
Y23492D01*
X67728D01*
Y22437D01*
X72272D01*
Y23236D01*
X77728D01*
Y22181D01*
X82272D01*
Y26331D01*
X77728D01*
Y25275D01*
X72272D01*
Y26587D01*
X67728D01*
Y25531D01*
X53150D01*
Y30047D01*
X45850D01*
Y25055D01*
X43387D01*
X32721Y35721D01*
X32390Y35942D01*
X32000Y36020D01*
X22775D01*
Y39728D01*
X23831D01*
Y44272D01*
X22775D01*
Y57091D01*
X28126D01*
Y62421D01*
D02*
G37*
G36*
X91118Y70295D02*
X79882D01*
Y64965D01*
X91118D01*
Y66480D01*
X98100D01*
Y65053D01*
X102644D01*
Y66480D01*
X120407D01*
X120673Y66091D01*
X120673Y65980D01*
Y64520D01*
X116489D01*
X116335Y64892D01*
X115892Y65335D01*
X115313Y65575D01*
X114687D01*
X114108Y65335D01*
X113665Y64892D01*
X113425Y64313D01*
Y63687D01*
X113665Y63108D01*
X114108Y62665D01*
X114687Y62425D01*
X115313D01*
X115549Y62523D01*
X115762Y62480D01*
X120673D01*
Y61154D01*
X143327D01*
Y65980D01*
X143327Y66091D01*
X143593Y66480D01*
X144078D01*
X144980Y65578D01*
Y17422D01*
X144956Y17398D01*
X143327D01*
Y18846D01*
X120673D01*
Y13909D01*
X143327D01*
Y15358D01*
X145378D01*
X145768Y15436D01*
X146099Y15657D01*
X146721Y16279D01*
X146942Y16610D01*
X147020Y17000D01*
Y66000D01*
X146942Y66390D01*
X146721Y66721D01*
X145221Y68221D01*
X144890Y68442D01*
X144500Y68520D01*
X102644D01*
Y69203D01*
X98100D01*
Y68520D01*
X91118D01*
Y70295D01*
D02*
G37*
G36*
X72272Y21075D02*
X67728D01*
Y20020D01*
X64500D01*
X64110Y19942D01*
X63779Y19721D01*
X59633Y15575D01*
X59187D01*
X58608Y15335D01*
X58165Y14892D01*
X57925Y14313D01*
Y13687D01*
X58165Y13108D01*
X58608Y12665D01*
X59187Y12425D01*
X59813D01*
X60392Y12665D01*
X60835Y13108D01*
X61075Y13687D01*
Y14133D01*
X64922Y17980D01*
X67728D01*
Y16925D01*
X72272D01*
Y21075D01*
D02*
G37*
G36*
X82272Y20819D02*
X77728D01*
Y19764D01*
X77244D01*
X76854Y19686D01*
X76523Y19465D01*
X73133Y16075D01*
X72687D01*
X72108Y15835D01*
X71665Y15392D01*
X71425Y14813D01*
Y14187D01*
X71665Y13608D01*
X72108Y13165D01*
X72687Y12925D01*
X73313D01*
X73892Y13165D01*
X74335Y13608D01*
X74575Y14187D01*
Y14633D01*
X77228Y17286D01*
X77728Y17079D01*
Y16669D01*
X82272D01*
Y20819D01*
D02*
G37*
G36*
X9250Y21422D02*
Y16250D01*
X12979D01*
Y17476D01*
X12843Y18506D01*
X12446Y19466D01*
X11813Y20290D01*
X10989Y20922D01*
X10030Y21320D01*
X9250Y21422D01*
D02*
G37*
G36*
X8750D02*
X7970Y21320D01*
X7011Y20922D01*
X6186Y20290D01*
X5554Y19466D01*
X5157Y18506D01*
X5021Y17476D01*
Y16250D01*
X8750D01*
Y21422D01*
D02*
G37*
G36*
X39364Y20768D02*
X38750D01*
Y12250D01*
X47268D01*
Y12864D01*
X46931Y14558D01*
X46270Y16153D01*
X45310Y17589D01*
X44089Y18810D01*
X42653Y19770D01*
X41058Y20431D01*
X39364Y20768D01*
D02*
G37*
G36*
X38250D02*
X37637D01*
X35943Y20431D01*
X34347Y19770D01*
X32911Y18810D01*
X31690Y17589D01*
X30730Y16153D01*
X30069Y14558D01*
X29732Y12864D01*
Y12250D01*
X38250D01*
Y20768D01*
D02*
G37*
G36*
X12979Y15750D02*
X9250D01*
Y10578D01*
X10030Y10680D01*
X10989Y11078D01*
X11813Y11710D01*
X12446Y12534D01*
X12843Y13494D01*
X12979Y14524D01*
Y15750D01*
D02*
G37*
G36*
X8750D02*
X5021D01*
Y14524D01*
X5157Y13494D01*
X5554Y12534D01*
X6186Y11710D01*
X7011Y11078D01*
X7970Y10680D01*
X8750Y10578D01*
Y15750D01*
D02*
G37*
G36*
X19000Y21455D02*
X17970Y21320D01*
X17010Y20922D01*
X16186Y20290D01*
X15554Y19466D01*
X15157Y18506D01*
X15021Y17476D01*
Y14524D01*
X15157Y13494D01*
X15554Y12534D01*
X16186Y11710D01*
X17010Y11078D01*
X17970Y10680D01*
X19000Y10545D01*
X20030Y10680D01*
X20989Y11078D01*
X21813Y11710D01*
X22446Y12534D01*
X22843Y13494D01*
X22979Y14524D01*
Y17476D01*
X22843Y18506D01*
X22446Y19466D01*
X21813Y20290D01*
X20989Y20922D01*
X20030Y21320D01*
X19000Y21455D01*
D02*
G37*
G36*
X100455Y10953D02*
X99545D01*
X98667Y10717D01*
X97880Y10263D01*
X97237Y9620D01*
X96783Y8833D01*
X96547Y7955D01*
Y7045D01*
X96783Y6167D01*
X97237Y5380D01*
X97880Y4737D01*
X98667Y4282D01*
X99545Y4047D01*
X100455D01*
X101333Y4282D01*
X102120Y4737D01*
X102763Y5380D01*
X103217Y6167D01*
X103453Y7045D01*
Y7955D01*
X103217Y8833D01*
X102763Y9620D01*
X102120Y10263D01*
X101333Y10717D01*
X100455Y10953D01*
D02*
G37*
G36*
X90455D02*
X89545D01*
X88667Y10717D01*
X87880Y10263D01*
X87237Y9620D01*
X86783Y8833D01*
X86547Y7955D01*
Y7045D01*
X86783Y6167D01*
X87237Y5380D01*
X87880Y4737D01*
X88667Y4282D01*
X89545Y4047D01*
X90455D01*
X91333Y4282D01*
X92120Y4737D01*
X92763Y5380D01*
X93217Y6167D01*
X93453Y7045D01*
Y7955D01*
X93217Y8833D01*
X92763Y9620D01*
X92120Y10263D01*
X91333Y10717D01*
X90455Y10953D01*
D02*
G37*
G36*
X80455D02*
X79545D01*
X78667Y10717D01*
X77880Y10263D01*
X77237Y9620D01*
X76783Y8833D01*
X76547Y7955D01*
Y7045D01*
X76783Y6167D01*
X77237Y5380D01*
X77880Y4737D01*
X78667Y4282D01*
X79545Y4047D01*
X80455D01*
X81333Y4282D01*
X82120Y4737D01*
X82763Y5380D01*
X83217Y6167D01*
X83453Y7045D01*
Y7955D01*
X83217Y8833D01*
X82763Y9620D01*
X82120Y10263D01*
X81333Y10717D01*
X80455Y10953D01*
D02*
G37*
G36*
X73453D02*
X66547D01*
Y4047D01*
X73453D01*
Y10953D01*
D02*
G37*
G36*
X47268Y11750D02*
X38750D01*
Y3232D01*
X39364D01*
X41058Y3569D01*
X42653Y4230D01*
X44089Y5190D01*
X45310Y6411D01*
X46270Y7847D01*
X46931Y9443D01*
X47268Y11136D01*
Y11750D01*
D02*
G37*
G36*
X38250D02*
X29732D01*
Y11136D01*
X30069Y9443D01*
X30730Y7847D01*
X31690Y6411D01*
X32911Y5190D01*
X34347Y4230D01*
X35943Y3569D01*
X37637Y3232D01*
X38250D01*
Y11750D01*
D02*
G37*
G36*
X147264Y10579D02*
X134059D01*
Y2886D01*
X147264D01*
Y10579D01*
D02*
G37*
%LPD*%
D14*
X102744Y99500D02*
D03*
X108256D02*
D03*
X102744Y91500D02*
D03*
X108256D02*
D03*
X102744Y75500D02*
D03*
X108256D02*
D03*
X78744Y46500D02*
D03*
X84256D02*
D03*
X109756Y107000D02*
D03*
X104244D02*
D03*
X109756Y115000D02*
D03*
X104244D02*
D03*
X21756Y42000D02*
D03*
X16244D02*
D03*
D15*
X114000Y54756D02*
D03*
Y49244D02*
D03*
X100372Y67128D02*
D03*
Y61616D02*
D03*
X70000Y19000D02*
D03*
Y24512D02*
D03*
X80000Y18744D02*
D03*
Y24256D02*
D03*
D16*
X49500Y24035D02*
D03*
Y40965D02*
D03*
D17*
X22508Y114874D02*
D03*
Y107000D02*
D03*
Y99126D02*
D03*
Y91252D02*
D03*
Y83378D02*
D03*
Y75504D02*
D03*
Y67630D02*
D03*
Y59756D02*
D03*
X85500D02*
D03*
Y67630D02*
D03*
Y75504D02*
D03*
Y83378D02*
D03*
Y91252D02*
D03*
Y99126D02*
D03*
Y107000D02*
D03*
Y114874D02*
D03*
D18*
X132000Y16378D02*
D03*
Y24252D02*
D03*
Y32126D02*
D03*
Y40000D02*
D03*
Y47874D02*
D03*
Y55748D02*
D03*
Y63622D02*
D03*
Y71496D02*
D03*
D19*
X140661Y81142D02*
D03*
Y6732D02*
D03*
D32*
X108256Y75500D02*
X112000D01*
X108256Y75500D02*
X108256Y75500D01*
X115762Y63500D02*
X131878D01*
X115000Y64000D02*
X115262D01*
X115762Y63500D01*
X118500Y55500D02*
X131752D01*
X114744D02*
X118500D01*
X108256Y91500D02*
X108256Y91500D01*
X112500D01*
X131752Y55500D02*
X132000Y55748D01*
X114000Y54756D02*
X114744Y55500D01*
X71000Y53500D02*
Y78000D01*
Y51000D02*
Y53500D01*
X89500D01*
X100000Y43000D01*
X85500Y75504D02*
X102740D01*
X73000Y14500D02*
X77244Y18744D01*
X80000D01*
X14626Y99126D02*
X22508D01*
X12000Y96500D02*
X14626Y99126D01*
X12000Y93500D02*
Y96500D01*
X59500Y14000D02*
X64500Y19000D01*
X70000D01*
X9138Y110138D02*
X13874Y114874D01*
X22508D01*
X9138Y104877D02*
Y110138D01*
X21756Y59004D02*
X22508Y59756D01*
X21756Y42000D02*
Y59004D01*
X70256Y24256D02*
X80000D01*
X70000Y24512D02*
X70256Y24256D01*
X49500Y24035D02*
X49976Y24512D01*
X70000D01*
X21756Y35000D02*
Y42000D01*
Y32518D02*
Y35000D01*
X32000D01*
X42965Y24035D01*
X49500D01*
X20500Y31262D02*
X21756Y32518D01*
X20500Y31000D02*
Y31262D01*
X87500Y24000D02*
X134000D01*
X22508Y67630D02*
X43870D01*
X87500Y24000D01*
X39496Y75504D02*
X82874Y32126D01*
X132000D01*
X22508Y75504D02*
X39496D01*
X133748Y24252D02*
X134000Y24000D01*
X132000Y24252D02*
X133748D01*
X78000Y40000D02*
X132000D01*
X34622Y83378D02*
X78000Y40000D01*
X22508Y83378D02*
X34622D01*
X71000Y51000D02*
X75500Y46500D01*
X78744D01*
X97000Y99126D02*
X102370D01*
X85500D02*
X97000D01*
Y95500D02*
Y99126D01*
X85500Y91252D02*
X102496D01*
X131878Y63500D02*
X132000Y63622D01*
X100744Y67500D02*
X144500D01*
X102744Y88256D02*
Y91500D01*
Y88256D02*
X119504Y71496D01*
X132000D01*
X85500Y67500D02*
X99256D01*
X100000Y66756D01*
X100744Y67500D01*
X145378Y16378D02*
X146000Y17000D01*
X132000Y16378D02*
X145378D01*
X146000Y17000D02*
Y66000D01*
X144500Y67500D02*
X146000Y66000D01*
X85370Y67630D02*
X85500Y67500D01*
X85370Y67630D02*
X85500D01*
X102740Y75504D02*
X102744Y75500D01*
X71000Y78000D02*
X76378Y83378D01*
X85500D01*
X108256Y91500D02*
Y99500D01*
X102496Y91252D02*
X102744Y91500D01*
X102370Y99126D02*
X102744Y99500D01*
X109756Y107000D02*
X109756Y107000D01*
X119500D01*
X109756Y115000D02*
X119500D01*
X109756Y115000D02*
X109756Y115000D01*
X85500Y107000D02*
X104244D01*
X104244Y107000D01*
X85500Y114874D02*
X104118D01*
X104244Y115000D01*
D33*
X38500Y12000D02*
D03*
X118000Y138000D02*
D03*
D34*
X100000Y7500D02*
D03*
X90000D02*
D03*
X80000D02*
D03*
D35*
X70000D02*
D03*
D36*
X9000Y16000D02*
D03*
X19000D02*
D03*
D37*
X142000Y107063D02*
D03*
Y114937D02*
D03*
D38*
X112000Y75500D02*
D03*
X115000Y64000D02*
D03*
X118500Y55500D02*
D03*
X112500Y91500D02*
D03*
X100000Y43000D02*
D03*
X96500Y75500D02*
D03*
X73000Y14500D02*
D03*
X12000Y93500D02*
D03*
X59500Y14000D02*
D03*
X9138Y104877D02*
D03*
X20500Y31000D02*
D03*
X119500Y107000D02*
D03*
Y115000D02*
D03*
X97000Y95500D02*
D03*
M02*
