G04*
G04 #@! TF.GenerationSoftware,Altium Limited,Altium Designer,23.3.1 (30)*
G04*
G04 Layer_Physical_Order=2*
G04 Layer_Color=16711680*
%FSLAX25Y25*%
%MOIN*%
G70*
G04*
G04 #@! TF.SameCoordinates,0C139B8F-EE47-4A66-AA8D-B4512E762C46*
G04*
G04*
G04 #@! TF.FilePolarity,Positive*
G04*
G01*
G75*
%ADD32C,0.01000*%
%ADD33C,0.16535*%
%ADD34C,0.05906*%
%ADD35R,0.05906X0.05906*%
%ADD36O,0.06890X0.09843*%
%ADD37O,0.09843X0.05906*%
%ADD38C,0.01968*%
G36*
X152500Y0D02*
X106648D01*
X106598Y500D01*
X106890Y558D01*
X107221Y779D01*
X119221Y12779D01*
X119442Y13110D01*
X119520Y13500D01*
Y54293D01*
X119835Y54608D01*
X120075Y55187D01*
Y55813D01*
X119835Y56392D01*
X119520Y56708D01*
Y75500D01*
Y85500D01*
X119442Y85890D01*
X119221Y86221D01*
X114075Y91367D01*
Y91813D01*
X113835Y92392D01*
X113392Y92835D01*
X112813Y93075D01*
X112187D01*
X111608Y92835D01*
X111165Y92392D01*
X110925Y91813D01*
Y91187D01*
X111165Y90608D01*
X111608Y90165D01*
X112187Y89925D01*
X112633D01*
X117480Y85078D01*
Y76520D01*
X113207D01*
X112892Y76835D01*
X112313Y77075D01*
X111687D01*
X111108Y76835D01*
X110665Y76392D01*
X110425Y75813D01*
Y75187D01*
X110665Y74608D01*
X111108Y74165D01*
X111687Y73925D01*
X112313D01*
X112892Y74165D01*
X113207Y74480D01*
X117480D01*
Y56708D01*
X117165Y56392D01*
X116925Y55813D01*
Y55187D01*
X117165Y54608D01*
X117480Y54293D01*
Y13922D01*
X106078Y2520D01*
X32446D01*
X22440Y12526D01*
X22446Y12534D01*
X22843Y13494D01*
X22979Y14524D01*
Y17476D01*
X22843Y18506D01*
X22446Y19466D01*
X21813Y20290D01*
X20989Y20922D01*
X20030Y21320D01*
X20020Y21321D01*
Y28816D01*
X20629Y29425D01*
X20813D01*
X21392Y29665D01*
X21835Y30108D01*
X22075Y30687D01*
Y31313D01*
X21835Y31892D01*
X21392Y32335D01*
X20813Y32575D01*
X20187D01*
X19608Y32335D01*
X19165Y31892D01*
X18925Y31313D01*
Y30687D01*
X18949Y30629D01*
X18279Y29959D01*
X18058Y29628D01*
X17980Y29238D01*
Y21321D01*
X17970Y21320D01*
X17010Y20922D01*
X16186Y20290D01*
X15554Y19466D01*
X15157Y18506D01*
X15021Y17476D01*
Y14524D01*
X15157Y13494D01*
X15554Y12534D01*
X16186Y11710D01*
X17010Y11078D01*
X17970Y10680D01*
X19000Y10545D01*
X20030Y10680D01*
X20989Y11078D01*
X20998Y11084D01*
X31303Y779D01*
X31633Y558D01*
X31925Y500D01*
X31876Y0D01*
X0D01*
Y155000D01*
X152500D01*
Y0D01*
D02*
G37*
%LPC*%
G36*
X118863Y146768D02*
X118250D01*
Y138250D01*
X126768D01*
Y138864D01*
X126431Y140557D01*
X125770Y142153D01*
X124810Y143589D01*
X123589Y144810D01*
X122153Y145770D01*
X120557Y146431D01*
X118863Y146768D01*
D02*
G37*
G36*
X117750D02*
X117137D01*
X115443Y146431D01*
X113847Y145770D01*
X112411Y144810D01*
X111190Y143589D01*
X110230Y142153D01*
X109569Y140557D01*
X109232Y138864D01*
Y138250D01*
X117750D01*
Y146768D01*
D02*
G37*
G36*
X126768Y137750D02*
X118250D01*
Y129232D01*
X118863D01*
X120557Y129569D01*
X122153Y130230D01*
X123589Y131190D01*
X124810Y132411D01*
X125770Y133847D01*
X126431Y135443D01*
X126768Y137136D01*
Y137750D01*
D02*
G37*
G36*
X117750D02*
X109232D01*
Y137136D01*
X109569Y135443D01*
X110230Y133847D01*
X111190Y132411D01*
X112411Y131190D01*
X113847Y130230D01*
X115443Y129569D01*
X117137Y129232D01*
X117750D01*
Y137750D01*
D02*
G37*
G36*
X143968Y118420D02*
X140032D01*
X139130Y118301D01*
X138290Y117953D01*
X137569Y117400D01*
X137015Y116678D01*
X136730Y115988D01*
X120739D01*
X120392Y116335D01*
X119813Y116575D01*
X119187D01*
X118608Y116335D01*
X118165Y115892D01*
X117925Y115313D01*
Y114687D01*
X118165Y114108D01*
X118608Y113665D01*
X119187Y113425D01*
X119813D01*
X120392Y113665D01*
X120676Y113949D01*
X136704D01*
X137015Y113196D01*
X137569Y112475D01*
X138290Y111921D01*
X139130Y111573D01*
X140032Y111454D01*
X143968D01*
X144870Y111573D01*
X145710Y111921D01*
X146431Y112475D01*
X146985Y113196D01*
X147332Y114036D01*
X147451Y114937D01*
X147332Y115838D01*
X146985Y116678D01*
X146431Y117400D01*
X145710Y117953D01*
X144870Y118301D01*
X143968Y118420D01*
D02*
G37*
G36*
Y110546D02*
X140032D01*
X139130Y110427D01*
X138290Y110079D01*
X137569Y109526D01*
X137015Y108804D01*
X136704Y108051D01*
X120676D01*
X120392Y108335D01*
X119813Y108575D01*
X119187D01*
X118608Y108335D01*
X118165Y107892D01*
X117925Y107313D01*
Y106687D01*
X118165Y106108D01*
X118608Y105665D01*
X119187Y105425D01*
X119813D01*
X120392Y105665D01*
X120739Y106012D01*
X136730D01*
X137015Y105322D01*
X137569Y104601D01*
X138290Y104047D01*
X139130Y103699D01*
X140032Y103580D01*
X143968D01*
X144870Y103699D01*
X145710Y104047D01*
X146431Y104601D01*
X146985Y105322D01*
X147332Y106162D01*
X147451Y107063D01*
X147332Y107964D01*
X146985Y108804D01*
X146431Y109526D01*
X145710Y110079D01*
X144870Y110427D01*
X143968Y110546D01*
D02*
G37*
G36*
X97313Y97075D02*
X96687D01*
X96108Y96835D01*
X95665Y96392D01*
X95425Y95813D01*
Y95187D01*
X95665Y94608D01*
X95980Y94292D01*
Y82000D01*
X96058Y81610D01*
X96279Y81279D01*
X113425Y64133D01*
Y63687D01*
X113665Y63108D01*
X114108Y62665D01*
X114687Y62425D01*
X115313D01*
X115892Y62665D01*
X116335Y63108D01*
X116575Y63687D01*
Y64313D01*
X116335Y64892D01*
X115892Y65335D01*
X115313Y65575D01*
X114867D01*
X98020Y82422D01*
Y94292D01*
X98335Y94608D01*
X98575Y95187D01*
Y95813D01*
X98335Y96392D01*
X97892Y96835D01*
X97313Y97075D01*
D02*
G37*
G36*
X9250Y21422D02*
Y16250D01*
X12979D01*
Y17476D01*
X12843Y18506D01*
X12446Y19466D01*
X11813Y20290D01*
X10989Y20922D01*
X10030Y21320D01*
X9250Y21422D01*
D02*
G37*
G36*
X8750D02*
X7970Y21320D01*
X7011Y20922D01*
X6186Y20290D01*
X5554Y19466D01*
X5157Y18506D01*
X5021Y17476D01*
Y16250D01*
X8750D01*
Y21422D01*
D02*
G37*
G36*
X39364Y20768D02*
X38750D01*
Y12250D01*
X47268D01*
Y12864D01*
X46931Y14558D01*
X46270Y16153D01*
X45310Y17589D01*
X44089Y18810D01*
X42653Y19770D01*
X41058Y20431D01*
X39364Y20768D01*
D02*
G37*
G36*
X38250D02*
X37637D01*
X35943Y20431D01*
X34347Y19770D01*
X32911Y18810D01*
X31690Y17589D01*
X30730Y16153D01*
X30069Y14558D01*
X29732Y12864D01*
Y12250D01*
X38250D01*
Y20768D01*
D02*
G37*
G36*
X12979Y15750D02*
X9250D01*
Y10578D01*
X10030Y10680D01*
X10989Y11078D01*
X11813Y11710D01*
X12446Y12534D01*
X12843Y13494D01*
X12979Y14524D01*
Y15750D01*
D02*
G37*
G36*
X8750D02*
X5021D01*
Y14524D01*
X5157Y13494D01*
X5554Y12534D01*
X6186Y11710D01*
X7011Y11078D01*
X7970Y10680D01*
X8750Y10578D01*
Y15750D01*
D02*
G37*
G36*
X96813Y77075D02*
X96187D01*
X95608Y76835D01*
X95165Y76392D01*
X94925Y75813D01*
Y75187D01*
X95165Y74608D01*
X95480Y74292D01*
Y14422D01*
X91614Y10555D01*
X91333Y10717D01*
X90455Y10953D01*
X89545D01*
X88667Y10717D01*
X87880Y10263D01*
X87237Y9620D01*
X86783Y8833D01*
X86547Y7955D01*
Y7045D01*
X86783Y6167D01*
X87237Y5380D01*
X87880Y4737D01*
X88667Y4282D01*
X89545Y4047D01*
X90455D01*
X91333Y4282D01*
X92120Y4737D01*
X92763Y5380D01*
X93217Y6167D01*
X93453Y7045D01*
Y7955D01*
X93217Y8833D01*
X93055Y9114D01*
X97221Y13279D01*
X97442Y13610D01*
X97520Y14000D01*
Y74292D01*
X97835Y74608D01*
X98075Y75187D01*
Y75813D01*
X97835Y76392D01*
X97392Y76835D01*
X96813Y77075D01*
D02*
G37*
G36*
X100313Y44575D02*
X99687D01*
X99108Y44335D01*
X98665Y43892D01*
X98425Y43313D01*
Y42687D01*
X98665Y42108D01*
X98980Y41793D01*
Y10801D01*
X98667Y10717D01*
X97880Y10263D01*
X97237Y9620D01*
X96783Y8833D01*
X96547Y7955D01*
Y7045D01*
X96783Y6167D01*
X97237Y5380D01*
X97880Y4737D01*
X98667Y4282D01*
X99545Y4047D01*
X100455D01*
X101333Y4282D01*
X102120Y4737D01*
X102763Y5380D01*
X103217Y6167D01*
X103453Y7045D01*
Y7955D01*
X103217Y8833D01*
X102763Y9620D01*
X102120Y10263D01*
X101333Y10717D01*
X101020Y10801D01*
Y41793D01*
X101335Y42108D01*
X101575Y42687D01*
Y43313D01*
X101335Y43892D01*
X100892Y44335D01*
X100313Y44575D01*
D02*
G37*
G36*
X9452Y106452D02*
X8825D01*
X8247Y106212D01*
X7803Y105770D01*
X7564Y105191D01*
Y104564D01*
X7803Y103985D01*
X8119Y103670D01*
Y64362D01*
X8197Y63971D01*
X8418Y63640D01*
X57925Y14133D01*
Y13687D01*
X58165Y13108D01*
X58608Y12665D01*
X59187Y12425D01*
X59633D01*
X65279Y6779D01*
X65610Y6558D01*
X66000Y6480D01*
X66547D01*
Y4047D01*
X73453D01*
Y10953D01*
X66547D01*
Y9102D01*
X66047Y8895D01*
X61075Y13867D01*
Y14313D01*
X60835Y14892D01*
X60392Y15335D01*
X59813Y15575D01*
X59367D01*
X10158Y64784D01*
Y92500D01*
X10624Y92607D01*
X10980Y92284D01*
Y75500D01*
X11058Y75110D01*
X11279Y74779D01*
X71425Y14633D01*
Y14187D01*
X71665Y13608D01*
X72108Y13165D01*
X72687Y12925D01*
X73133D01*
X76945Y9114D01*
X76783Y8833D01*
X76547Y7955D01*
Y7045D01*
X76783Y6167D01*
X77237Y5380D01*
X77880Y4737D01*
X78667Y4282D01*
X79545Y4047D01*
X80455D01*
X81333Y4282D01*
X82120Y4737D01*
X82763Y5380D01*
X83217Y6167D01*
X83453Y7045D01*
Y7955D01*
X83217Y8833D01*
X82763Y9620D01*
X82120Y10263D01*
X81333Y10717D01*
X80455Y10953D01*
X79545D01*
X78667Y10717D01*
X78386Y10555D01*
X74575Y14367D01*
Y14813D01*
X74335Y15392D01*
X73892Y15835D01*
X73313Y16075D01*
X72867D01*
X13020Y75922D01*
Y92292D01*
X13335Y92608D01*
X13575Y93187D01*
Y93813D01*
X13335Y94392D01*
X12892Y94835D01*
X12313Y95075D01*
X11687D01*
X11108Y94835D01*
X10665Y94392D01*
X10658Y94376D01*
X10158Y94475D01*
Y103670D01*
X10474Y103985D01*
X10713Y104564D01*
Y105191D01*
X10474Y105770D01*
X10031Y106212D01*
X9452Y106452D01*
D02*
G37*
G36*
X47268Y11750D02*
X38750D01*
Y3232D01*
X39364D01*
X41058Y3569D01*
X42653Y4230D01*
X44089Y5190D01*
X45310Y6411D01*
X46270Y7847D01*
X46931Y9443D01*
X47268Y11136D01*
Y11750D01*
D02*
G37*
G36*
X38250D02*
X29732D01*
Y11136D01*
X30069Y9443D01*
X30730Y7847D01*
X31690Y6411D01*
X32911Y5190D01*
X34347Y4230D01*
X35943Y3569D01*
X37637Y3232D01*
X38250D01*
Y11750D01*
D02*
G37*
%LPD*%
D32*
X106500Y1500D02*
X118500Y13500D01*
Y55500D01*
X32024Y1500D02*
X106500D01*
X19000Y14524D02*
Y16000D01*
Y14524D02*
X32024Y1500D01*
X118500Y75500D02*
Y85500D01*
Y55500D02*
Y75500D01*
X112000D02*
X118500D01*
X97000Y82000D02*
X115000Y64000D01*
X97000Y82000D02*
Y95500D01*
X112500Y91500D02*
X118500Y85500D01*
X100000Y7500D02*
Y43000D01*
X90000Y7500D02*
X96500Y14000D01*
Y75500D01*
X73000Y14500D02*
X80000Y7500D01*
X12000Y75500D02*
X73000Y14500D01*
X12000Y75500D02*
Y93500D01*
X9138Y64362D02*
Y104877D01*
Y64362D02*
X59500Y14000D01*
X66000Y7500D01*
X70000D01*
X19000Y16000D02*
Y29238D01*
X20500Y30738D01*
Y31000D01*
X141969Y107032D02*
X142000Y107063D01*
X119532Y107032D02*
X141969D01*
X119500Y107000D02*
X119532Y107032D01*
X141969Y114969D02*
X142000Y114937D01*
X119532Y114969D02*
X141969D01*
X119500Y115000D02*
X119532Y114969D01*
D33*
X38500Y12000D02*
D03*
X118000Y138000D02*
D03*
D34*
X100000Y7500D02*
D03*
X90000D02*
D03*
X80000D02*
D03*
D35*
X70000D02*
D03*
D36*
X9000Y16000D02*
D03*
X19000D02*
D03*
D37*
X142000Y107063D02*
D03*
Y114937D02*
D03*
D38*
X112000Y75500D02*
D03*
X115000Y64000D02*
D03*
X118500Y55500D02*
D03*
X112500Y91500D02*
D03*
X100000Y43000D02*
D03*
X96500Y75500D02*
D03*
X73000Y14500D02*
D03*
X12000Y93500D02*
D03*
X59500Y14000D02*
D03*
X9138Y104877D02*
D03*
X20500Y31000D02*
D03*
X119500Y107000D02*
D03*
Y115000D02*
D03*
X97000Y95500D02*
D03*
M02*
