M48
;Layer_Color=9474304
;FILE_FORMAT=2:5
INCH,TZ
;TYPE=PLATED
T1F00S00C0.01181
T2F00S00C0.02756
T3F00S00C0.03543
T4F00S00C0.04331
T5F00S00C0.12598
%
T01
X59500Y14000
X73000Y14500
X118500Y55500
X115000Y64000
X119500Y107000
Y115000
X112500Y91500
X112000Y75500
X96500
X97000Y95500
X100000Y43000
X20500Y31000
X12000Y93500
X9138Y104877
T02
X142000Y107063
Y114937
T03
X70000Y7500
X80000
X90000
X100000
T04
X9000Y16000
X19000
T05
X38500Y12000
X118000Y138000
M30
