M48
;Layer_Color=9474304
;FILE_FORMAT=2:4
INCH,TZ
;TYPE=PLATED
T1F00S00C0.0280
T2F00S00C0.0354
T3F00S00C0.0390
%
T01
X48400Y23200
X48300Y30800
X30700Y36000
X36650Y31950
X40400Y34550
X40500Y38100
X52750Y33550
X52350Y32950
X52950Y31500
T02
X53550Y25550
X54550
X55550
X34300Y29300
Y30300
X32000Y30600
Y29600
X29350Y29200
Y30200
Y31200
X28350
Y30200
Y29200
Y28200
X29350
Y32200
Y33200
Y34200
Y35200
Y36200
Y37200
X28350
Y36200
Y35200
Y34200
Y33200
Y32200
X31950Y33500
Y34500
Y35500
Y36500
X36050Y36450
Y35450
Y34450
X37050
Y35450
Y36450
X36900Y39500
X37900
X35900
X34900
X33900
X34300Y32300
Y31300
X43450Y39550
X44450
X55250Y39750
Y38750
T03
X47250Y21850
X48250
X49250
X50250
X51250
X52250
X53250
X54250
X55250
X56250
X57250
X46250
X45250
X44250
X43250
X42250
X41250
X40250
X39250
X38250
X37250
X36250
X35250
X34250
X33250
X32250
X31250
X30250
X29250
X28250
X28300Y42700
X29300
X30300
X31300
X32300
X33300
X34300
X35300
X36300
X37300
X38300
X39300
X40300
X41300
X42300
X43300
X44300
X45300
X46300
X47300
X48300
X49300
X50300
X51300
X52300
X53300
X54300
X55300
X56300
X57300
M30
