G04*
G04 #@! TF.GenerationSoftware,Altium Limited,Altium Designer,20.1.11 (218)*
G04*
G04 Layer_Color=32768*
%FSLAX25Y25*%
%MOIN*%
G70*
G04*
G04 #@! TF.SameCoordinates,3E3CE198-1D4E-4C69-B1C9-FC2CBC885D2D*
G04*
G04*
G04 #@! TF.FilePolarity,Positive*
G04*
G01*
G75*
%ADD11C,0.00394*%
%ADD44C,0.00197*%
D11*
X465299Y366791D02*
X571598D01*
Y278209D02*
Y366791D01*
X465299Y278209D02*
X571598D01*
X465299D02*
Y366791D01*
X296532Y395000D02*
X300468D01*
X298500Y393032D02*
Y396969D01*
X336032Y353500D02*
X339968D01*
X338000Y351532D02*
Y355469D01*
X284500Y394531D02*
Y398468D01*
X282531Y396500D02*
X286469D01*
X523531Y408500D02*
X527468D01*
X525500Y406531D02*
Y410468D01*
X422532Y360000D02*
X426469D01*
X424500Y358032D02*
Y361968D01*
X446000Y360500D02*
Y361681D01*
Y360500D02*
Y361681D01*
Y359319D02*
Y360500D01*
X444819D02*
X447181D01*
D44*
X302831Y386142D02*
Y403858D01*
X294169Y386142D02*
Y403858D01*
Y386142D02*
X302831D01*
X294169Y403858D02*
X302831D01*
X333669Y344642D02*
Y362358D01*
X342331Y344642D02*
Y362358D01*
X333669D02*
X342331D01*
X333669Y344642D02*
X342331D01*
X279972Y405752D02*
X289028D01*
X279972Y387248D02*
X289028D01*
X279972D02*
Y405752D01*
X289028Y387248D02*
Y405752D01*
X534752Y403972D02*
Y413028D01*
X516248Y403972D02*
Y413028D01*
X534752D01*
X516248Y403972D02*
X534752D01*
X431193Y356260D02*
Y363740D01*
X417807Y356260D02*
Y363740D01*
Y356260D02*
X431193D01*
X417807Y363740D02*
X431193D01*
X436994Y354201D02*
Y366799D01*
X454022Y354201D02*
Y366799D01*
X436994Y354201D02*
X454022D01*
X436994Y366799D02*
X454022D01*
M02*
