G04*
G04 #@! TF.GenerationSoftware,Altium Limited,Altium Designer,20.1.11 (218)*
G04*
G04 Layer_Physical_Order=2*
G04 Layer_Color=16711680*
%FSLAX25Y25*%
%MOIN*%
G70*
G04*
G04 #@! TF.SameCoordinates,3E3CE198-1D4E-4C69-B1C9-FC2CBC885D2D*
G04*
G04*
G04 #@! TF.FilePolarity,Positive*
G04*
G01*
G75*
%ADD14C,0.01000*%
%ADD32R,0.06299X0.06299*%
%ADD33C,0.06299*%
%ADD34C,0.05906*%
%ADD35R,0.05906X0.05906*%
%ADD36R,0.05906X0.05906*%
%ADD37C,0.05000*%
%ADD38R,0.06496X0.04724*%
%ADD39R,0.07087X0.05118*%
%ADD40R,0.05118X0.07087*%
G36*
X580000Y210000D02*
X275000D01*
Y435000D01*
X580000D01*
Y210000D01*
D02*
G37*
%LPC*%
G36*
X563500Y431120D02*
Y427500D01*
X567120D01*
X567043Y428083D01*
X566625Y429093D01*
X565960Y429959D01*
X565093Y430625D01*
X564083Y431043D01*
X563500Y431120D01*
D02*
G37*
G36*
X333500D02*
Y427500D01*
X337120D01*
X337043Y428083D01*
X336625Y429093D01*
X335960Y429959D01*
X335093Y430625D01*
X334083Y431043D01*
X333500Y431120D01*
D02*
G37*
G36*
X303500D02*
Y427500D01*
X307120D01*
X307043Y428083D01*
X306625Y429093D01*
X305960Y429959D01*
X305093Y430625D01*
X304083Y431043D01*
X303500Y431120D01*
D02*
G37*
G36*
X503500D02*
Y427500D01*
X507120D01*
X507043Y428083D01*
X506625Y429093D01*
X505960Y429959D01*
X505093Y430625D01*
X504083Y431043D01*
X503500Y431120D01*
D02*
G37*
G36*
X453500D02*
Y427500D01*
X457120D01*
X457043Y428083D01*
X456625Y429093D01*
X455960Y429959D01*
X455093Y430625D01*
X454083Y431043D01*
X453500Y431120D01*
D02*
G37*
G36*
X323500D02*
Y427500D01*
X327120D01*
X327043Y428083D01*
X326625Y429093D01*
X325959Y429959D01*
X325093Y430625D01*
X324083Y431043D01*
X323500Y431120D01*
D02*
G37*
G36*
X313500D02*
Y427500D01*
X317120D01*
X317043Y428083D01*
X316625Y429093D01*
X315960Y429959D01*
X315093Y430625D01*
X314083Y431043D01*
X313500Y431120D01*
D02*
G37*
G36*
X283500D02*
Y427500D01*
X287120D01*
X287043Y428083D01*
X286625Y429093D01*
X285960Y429959D01*
X285093Y430625D01*
X284083Y431043D01*
X283500Y431120D01*
D02*
G37*
G36*
X293500D02*
Y427500D01*
X297120D01*
X297043Y428083D01*
X296625Y429093D01*
X295959Y429959D01*
X295093Y430625D01*
X294083Y431043D01*
X293500Y431120D01*
D02*
G37*
G36*
X562500D02*
X561917Y431043D01*
X560907Y430625D01*
X560041Y429959D01*
X559375Y429093D01*
X558957Y428083D01*
X558880Y427500D01*
X562500D01*
Y431120D01*
D02*
G37*
G36*
X332500D02*
X331917Y431043D01*
X330907Y430625D01*
X330041Y429959D01*
X329375Y429093D01*
X328957Y428083D01*
X328880Y427500D01*
X332500D01*
Y431120D01*
D02*
G37*
G36*
X302500D02*
X301917Y431043D01*
X300907Y430625D01*
X300041Y429959D01*
X299375Y429093D01*
X298957Y428083D01*
X298880Y427500D01*
X302500D01*
Y431120D01*
D02*
G37*
G36*
X502500D02*
X501917Y431043D01*
X500907Y430625D01*
X500040Y429959D01*
X499375Y429093D01*
X498957Y428083D01*
X498880Y427500D01*
X502500D01*
Y431120D01*
D02*
G37*
G36*
X452500D02*
X451917Y431043D01*
X450907Y430625D01*
X450040Y429959D01*
X449375Y429093D01*
X448957Y428083D01*
X448880Y427500D01*
X452500D01*
Y431120D01*
D02*
G37*
G36*
X322500D02*
X321917Y431043D01*
X320907Y430625D01*
X320040Y429959D01*
X319375Y429093D01*
X318957Y428083D01*
X318880Y427500D01*
X322500D01*
Y431120D01*
D02*
G37*
G36*
X312500D02*
X311917Y431043D01*
X310907Y430625D01*
X310040Y429959D01*
X309375Y429093D01*
X308957Y428083D01*
X308880Y427500D01*
X312500D01*
Y431120D01*
D02*
G37*
G36*
X282500D02*
X281917Y431043D01*
X280907Y430625D01*
X280041Y429959D01*
X279375Y429093D01*
X278957Y428083D01*
X278880Y427500D01*
X282500D01*
Y431120D01*
D02*
G37*
G36*
X292500D02*
X291917Y431043D01*
X290907Y430625D01*
X290040Y429959D01*
X289375Y429093D01*
X288957Y428083D01*
X288880Y427500D01*
X292500D01*
Y431120D01*
D02*
G37*
G36*
X567120Y426500D02*
X563500D01*
Y422880D01*
X564083Y422957D01*
X565093Y423375D01*
X565960Y424041D01*
X566625Y424907D01*
X567043Y425917D01*
X567120Y426500D01*
D02*
G37*
G36*
X507120D02*
X503500D01*
Y422880D01*
X504083Y422957D01*
X505093Y423375D01*
X505960Y424041D01*
X506625Y424907D01*
X507043Y425917D01*
X507120Y426500D01*
D02*
G37*
G36*
X457120D02*
X453500D01*
Y422880D01*
X454083Y422957D01*
X455093Y423375D01*
X455960Y424041D01*
X456625Y424907D01*
X457043Y425917D01*
X457120Y426500D01*
D02*
G37*
G36*
X337120D02*
X333500D01*
Y422880D01*
X334083Y422957D01*
X335093Y423375D01*
X335960Y424041D01*
X336625Y424907D01*
X337043Y425917D01*
X337120Y426500D01*
D02*
G37*
G36*
X327120D02*
X323500D01*
Y422880D01*
X324083Y422957D01*
X325093Y423375D01*
X325959Y424041D01*
X326625Y424907D01*
X327043Y425917D01*
X327120Y426500D01*
D02*
G37*
G36*
X317120D02*
X313500D01*
Y422880D01*
X314083Y422957D01*
X315093Y423375D01*
X315960Y424041D01*
X316625Y424907D01*
X317043Y425917D01*
X317120Y426500D01*
D02*
G37*
G36*
X307120D02*
X303500D01*
Y422880D01*
X304083Y422957D01*
X305093Y423375D01*
X305960Y424041D01*
X306625Y424907D01*
X307043Y425917D01*
X307120Y426500D01*
D02*
G37*
G36*
X297120D02*
X293500D01*
Y422880D01*
X294083Y422957D01*
X295093Y423375D01*
X295959Y424041D01*
X296625Y424907D01*
X297043Y425917D01*
X297120Y426500D01*
D02*
G37*
G36*
X287120D02*
X283500D01*
Y422880D01*
X284083Y422957D01*
X285093Y423375D01*
X285960Y424041D01*
X286625Y424907D01*
X287043Y425917D01*
X287120Y426500D01*
D02*
G37*
G36*
X562500D02*
X558880D01*
X558957Y425917D01*
X559375Y424907D01*
X560041Y424041D01*
X560907Y423375D01*
X561917Y422957D01*
X562500Y422880D01*
Y426500D01*
D02*
G37*
G36*
X502500D02*
X498880D01*
X498957Y425917D01*
X499375Y424907D01*
X500040Y424041D01*
X500907Y423375D01*
X501917Y422957D01*
X502500Y422880D01*
Y426500D01*
D02*
G37*
G36*
X452500D02*
X448880D01*
X448957Y425917D01*
X449375Y424907D01*
X450040Y424041D01*
X450907Y423375D01*
X451917Y422957D01*
X452500Y422880D01*
Y426500D01*
D02*
G37*
G36*
X332500D02*
X328880D01*
X328957Y425917D01*
X329375Y424907D01*
X330041Y424041D01*
X330907Y423375D01*
X331917Y422957D01*
X332500Y422880D01*
Y426500D01*
D02*
G37*
G36*
X322500D02*
X318880D01*
X318957Y425917D01*
X319375Y424907D01*
X320040Y424041D01*
X320907Y423375D01*
X321917Y422957D01*
X322500Y422880D01*
Y426500D01*
D02*
G37*
G36*
X312500D02*
X308880D01*
X308957Y425917D01*
X309375Y424907D01*
X310040Y424041D01*
X310907Y423375D01*
X311917Y422957D01*
X312500Y422880D01*
Y426500D01*
D02*
G37*
G36*
X302500D02*
X298880D01*
X298957Y425917D01*
X299375Y424907D01*
X300041Y424041D01*
X300907Y423375D01*
X301917Y422957D01*
X302500Y422880D01*
Y426500D01*
D02*
G37*
G36*
X292500D02*
X288880D01*
X288957Y425917D01*
X289375Y424907D01*
X290040Y424041D01*
X290907Y423375D01*
X291917Y422957D01*
X292500Y422880D01*
Y426500D01*
D02*
G37*
G36*
X282500D02*
X278880D01*
X278957Y425917D01*
X279375Y424907D01*
X280041Y424041D01*
X280907Y423375D01*
X281917Y422957D01*
X282500Y422880D01*
Y426500D01*
D02*
G37*
G36*
X577150Y431150D02*
X568850D01*
Y422850D01*
X577150D01*
Y431150D01*
D02*
G37*
G36*
X553000Y431185D02*
X551917Y431043D01*
X550907Y430625D01*
X550040Y429959D01*
X549375Y429093D01*
X548957Y428083D01*
X548815Y427000D01*
X548957Y425917D01*
X549375Y424907D01*
X550040Y424041D01*
X550907Y423375D01*
X551917Y422957D01*
X553000Y422815D01*
X554083Y422957D01*
X555093Y423375D01*
X555960Y424041D01*
X556625Y424907D01*
X557043Y425917D01*
X557185Y427000D01*
X557043Y428083D01*
X556625Y429093D01*
X555960Y429959D01*
X555093Y430625D01*
X554083Y431043D01*
X553000Y431185D01*
D02*
G37*
G36*
X543000D02*
X541917Y431043D01*
X540907Y430625D01*
X540040Y429959D01*
X539375Y429093D01*
X538957Y428083D01*
X538815Y427000D01*
X538957Y425917D01*
X539375Y424907D01*
X540040Y424041D01*
X540907Y423375D01*
X541917Y422957D01*
X543000Y422815D01*
X544083Y422957D01*
X545093Y423375D01*
X545960Y424041D01*
X546625Y424907D01*
X547043Y425917D01*
X547185Y427000D01*
X547043Y428083D01*
X546625Y429093D01*
X545960Y429959D01*
X545093Y430625D01*
X544083Y431043D01*
X543000Y431185D01*
D02*
G37*
G36*
X533000D02*
X531917Y431043D01*
X530907Y430625D01*
X530041Y429959D01*
X529375Y429093D01*
X528957Y428083D01*
X528815Y427000D01*
X528957Y425917D01*
X529375Y424907D01*
X530041Y424041D01*
X530907Y423375D01*
X531917Y422957D01*
X533000Y422815D01*
X534083Y422957D01*
X535093Y423375D01*
X535959Y424041D01*
X536625Y424907D01*
X537043Y425917D01*
X537185Y427000D01*
X537043Y428083D01*
X536625Y429093D01*
X535959Y429959D01*
X535093Y430625D01*
X534083Y431043D01*
X533000Y431185D01*
D02*
G37*
G36*
X523000D02*
X521917Y431043D01*
X520907Y430625D01*
X520041Y429959D01*
X519375Y429093D01*
X518957Y428083D01*
X518815Y427000D01*
X518957Y425917D01*
X519375Y424907D01*
X520041Y424041D01*
X520907Y423375D01*
X521917Y422957D01*
X523000Y422815D01*
X524083Y422957D01*
X525093Y423375D01*
X525959Y424041D01*
X526625Y424907D01*
X527043Y425917D01*
X527185Y427000D01*
X527043Y428083D01*
X526625Y429093D01*
X525959Y429959D01*
X525093Y430625D01*
X524083Y431043D01*
X523000Y431185D01*
D02*
G37*
G36*
X493000D02*
X491917Y431043D01*
X490907Y430625D01*
X490040Y429959D01*
X489375Y429093D01*
X488957Y428083D01*
X488815Y427000D01*
X488957Y425917D01*
X489375Y424907D01*
X490040Y424041D01*
X490907Y423375D01*
X491917Y422957D01*
X493000Y422815D01*
X494083Y422957D01*
X495093Y423375D01*
X495960Y424041D01*
X496625Y424907D01*
X497043Y425917D01*
X497185Y427000D01*
X497043Y428083D01*
X496625Y429093D01*
X495960Y429959D01*
X495093Y430625D01*
X494083Y431043D01*
X493000Y431185D01*
D02*
G37*
G36*
X473000D02*
X471917Y431043D01*
X470907Y430625D01*
X470041Y429959D01*
X469375Y429093D01*
X468957Y428083D01*
X468815Y427000D01*
X468957Y425917D01*
X469375Y424907D01*
X470041Y424041D01*
X470907Y423375D01*
X471917Y422957D01*
X473000Y422815D01*
X474083Y422957D01*
X475093Y423375D01*
X475959Y424041D01*
X476625Y424907D01*
X477043Y425917D01*
X477185Y427000D01*
X477043Y428083D01*
X476625Y429093D01*
X475959Y429959D01*
X475093Y430625D01*
X474083Y431043D01*
X473000Y431185D01*
D02*
G37*
G36*
X483000D02*
X481917Y431043D01*
X480907Y430625D01*
X480041Y429959D01*
X479375Y429093D01*
X478957Y428083D01*
X478815Y427000D01*
X478957Y425917D01*
X479375Y424907D01*
X479547Y424683D01*
X448915Y394051D01*
X448453Y394242D01*
Y399453D01*
X446029D01*
Y407866D01*
X461353Y423190D01*
X461917Y422957D01*
X463000Y422815D01*
X464083Y422957D01*
X465093Y423375D01*
X465960Y424041D01*
X466625Y424907D01*
X467043Y425917D01*
X467185Y427000D01*
X467043Y428083D01*
X466625Y429093D01*
X465960Y429959D01*
X465093Y430625D01*
X464083Y431043D01*
X463000Y431185D01*
X461917Y431043D01*
X460907Y430625D01*
X460041Y429959D01*
X459375Y429093D01*
X458957Y428083D01*
X458815Y427000D01*
X458957Y425917D01*
X459191Y425353D01*
X443419Y409581D01*
X443087Y409085D01*
X442971Y408500D01*
Y399453D01*
X440547D01*
Y391547D01*
X445758D01*
X445949Y391085D01*
X431393Y376529D01*
X361000D01*
X360415Y376413D01*
X359919Y376081D01*
X344378Y360541D01*
X342248D01*
Y362374D01*
X333752D01*
Y361118D01*
X333252Y360911D01*
X330029Y364134D01*
Y373500D01*
X329913Y374085D01*
X329581Y374581D01*
X309731Y394432D01*
X309235Y394763D01*
X308650Y394880D01*
X294631D01*
X294045Y394763D01*
X293549Y394432D01*
X293522Y394391D01*
X292465Y393524D01*
X291216Y392856D01*
X289861Y392445D01*
X289414Y392401D01*
X289043Y392737D01*
Y394350D01*
X279957D01*
Y387232D01*
X281971D01*
Y375953D01*
X279547D01*
Y368047D01*
X286692D01*
X286811Y367865D01*
X286884Y367547D01*
X284996Y365659D01*
X284532Y365851D01*
X283500Y365987D01*
X282468Y365851D01*
X281507Y365453D01*
X280681Y364819D01*
X280047Y363993D01*
X279649Y363032D01*
X279513Y362000D01*
X279649Y360968D01*
X280047Y360007D01*
X280681Y359181D01*
X281507Y358547D01*
X282468Y358149D01*
X283500Y358013D01*
X284532Y358149D01*
X285493Y358547D01*
X286319Y359181D01*
X286953Y360007D01*
X287351Y360968D01*
X287487Y362000D01*
X287351Y363032D01*
X287159Y363496D01*
X288681Y365018D01*
X290203D01*
X290450Y364518D01*
X290047Y363993D01*
X289649Y363032D01*
X289579Y362500D01*
X293500D01*
X297421D01*
X297351Y363032D01*
X296953Y363993D01*
X296319Y364819D01*
X295848Y365181D01*
X295804Y365844D01*
X299581Y369621D01*
X299913Y370118D01*
X300029Y370703D01*
Y386126D01*
X302748D01*
Y391821D01*
X308016D01*
X326971Y372867D01*
Y363500D01*
X327087Y362915D01*
X327419Y362419D01*
X331907Y357930D01*
X332403Y357599D01*
X332988Y357482D01*
X333752D01*
Y355650D01*
X342248D01*
Y357482D01*
X345012D01*
X345597Y357599D01*
X346093Y357930D01*
X356085Y367922D01*
X356547Y367731D01*
Y360547D01*
X358971D01*
Y358145D01*
X358507Y357953D01*
X357681Y357319D01*
X357047Y356493D01*
X356649Y355532D01*
X356513Y354500D01*
X356649Y353468D01*
X357047Y352507D01*
X357681Y351681D01*
X358507Y351047D01*
X358971Y350855D01*
Y348145D01*
X358507Y347953D01*
X357681Y347319D01*
X357047Y346493D01*
X356855Y346029D01*
X343007D01*
X342248Y346789D01*
Y351350D01*
X333752D01*
Y344626D01*
X340085D01*
X341293Y343419D01*
X341789Y343087D01*
X342374Y342971D01*
X356855D01*
X357047Y342507D01*
X357681Y341681D01*
X358507Y341047D01*
X359468Y340649D01*
X360500Y340513D01*
X361532Y340649D01*
X362493Y341047D01*
X363319Y341681D01*
X363953Y342507D01*
X364351Y343468D01*
X364487Y344500D01*
X364351Y345532D01*
X363953Y346493D01*
X363319Y347319D01*
X362493Y347953D01*
X362029Y348145D01*
Y350855D01*
X362493Y351047D01*
X363319Y351681D01*
X363953Y352507D01*
X364351Y353468D01*
X364487Y354500D01*
X364351Y355532D01*
X363953Y356493D01*
X363319Y357319D01*
X362493Y357953D01*
X362029Y358145D01*
Y360547D01*
X364453D01*
Y368453D01*
X357269D01*
X357078Y368915D01*
X361633Y373471D01*
X432027D01*
X432612Y373587D01*
X433108Y373919D01*
X482120Y422930D01*
X483000Y422815D01*
X484083Y422957D01*
X485093Y423375D01*
X485959Y424041D01*
X486625Y424907D01*
X487043Y425917D01*
X487185Y427000D01*
X487043Y428083D01*
X486625Y429093D01*
X485959Y429959D01*
X485093Y430625D01*
X484083Y431043D01*
X483000Y431185D01*
D02*
G37*
G36*
X443000D02*
X441917Y431043D01*
X440907Y430625D01*
X440040Y429959D01*
X439375Y429093D01*
X438957Y428083D01*
X438815Y427000D01*
X438957Y425917D01*
X439375Y424907D01*
X440040Y424041D01*
X440907Y423375D01*
X441917Y422957D01*
X443000Y422815D01*
X444083Y422957D01*
X445093Y423375D01*
X445960Y424041D01*
X446625Y424907D01*
X447043Y425917D01*
X447185Y427000D01*
X447043Y428083D01*
X446625Y429093D01*
X445960Y429959D01*
X445093Y430625D01*
X444083Y431043D01*
X443000Y431185D01*
D02*
G37*
G36*
X433000D02*
X431917Y431043D01*
X430907Y430625D01*
X430041Y429959D01*
X429375Y429093D01*
X428957Y428083D01*
X428815Y427000D01*
X428957Y425917D01*
X429375Y424907D01*
X430041Y424041D01*
X430907Y423375D01*
X431917Y422957D01*
X433000Y422815D01*
X434083Y422957D01*
X435093Y423375D01*
X435959Y424041D01*
X436625Y424907D01*
X437043Y425917D01*
X437185Y427000D01*
X437043Y428083D01*
X436625Y429093D01*
X435959Y429959D01*
X435093Y430625D01*
X434083Y431043D01*
X433000Y431185D01*
D02*
G37*
G36*
X423000D02*
X421917Y431043D01*
X420907Y430625D01*
X420041Y429959D01*
X419375Y429093D01*
X418957Y428083D01*
X418815Y427000D01*
X418957Y425917D01*
X419375Y424907D01*
X420041Y424041D01*
X420907Y423375D01*
X421917Y422957D01*
X423000Y422815D01*
X424083Y422957D01*
X425093Y423375D01*
X425959Y424041D01*
X426625Y424907D01*
X427043Y425917D01*
X427185Y427000D01*
X427043Y428083D01*
X426625Y429093D01*
X425959Y429959D01*
X425093Y430625D01*
X424083Y431043D01*
X423000Y431185D01*
D02*
G37*
G36*
X413000D02*
X411917Y431043D01*
X410907Y430625D01*
X410041Y429959D01*
X409375Y429093D01*
X408957Y428083D01*
X408815Y427000D01*
X408957Y425917D01*
X409375Y424907D01*
X410041Y424041D01*
X410907Y423375D01*
X411917Y422957D01*
X413000Y422815D01*
X414083Y422957D01*
X415093Y423375D01*
X415960Y424041D01*
X416625Y424907D01*
X417043Y425917D01*
X417185Y427000D01*
X417043Y428083D01*
X416625Y429093D01*
X415960Y429959D01*
X415093Y430625D01*
X414083Y431043D01*
X413000Y431185D01*
D02*
G37*
G36*
X403000D02*
X401917Y431043D01*
X400907Y430625D01*
X400040Y429959D01*
X399375Y429093D01*
X398957Y428083D01*
X398815Y427000D01*
X398957Y425917D01*
X399190Y425353D01*
X377919Y404081D01*
X377587Y403585D01*
X377471Y403000D01*
Y398953D01*
X375047D01*
Y391047D01*
X382953D01*
Y398953D01*
X380529D01*
Y402366D01*
X401353Y423190D01*
X401917Y422957D01*
X403000Y422815D01*
X404083Y422957D01*
X405093Y423375D01*
X405960Y424041D01*
X406625Y424907D01*
X407043Y425917D01*
X407185Y427000D01*
X407043Y428083D01*
X406625Y429093D01*
X405960Y429959D01*
X405093Y430625D01*
X404083Y431043D01*
X403000Y431185D01*
D02*
G37*
G36*
X393000D02*
X391917Y431043D01*
X390907Y430625D01*
X390040Y429959D01*
X389375Y429093D01*
X388957Y428083D01*
X388815Y427000D01*
X388957Y425917D01*
X389191Y425353D01*
X367919Y404081D01*
X367587Y403585D01*
X367471Y403000D01*
Y398645D01*
X367007Y398453D01*
X366181Y397819D01*
X365547Y396993D01*
X365149Y396032D01*
X365013Y395000D01*
X365149Y393968D01*
X365547Y393007D01*
X366181Y392181D01*
X367007Y391547D01*
X367968Y391149D01*
X369000Y391013D01*
X370032Y391149D01*
X370993Y391547D01*
X371819Y392181D01*
X372453Y393007D01*
X372851Y393968D01*
X372987Y395000D01*
X372851Y396032D01*
X372453Y396993D01*
X371819Y397819D01*
X370993Y398453D01*
X370529Y398645D01*
Y402366D01*
X391353Y423190D01*
X391917Y422957D01*
X393000Y422815D01*
X394083Y422957D01*
X395093Y423375D01*
X395959Y424041D01*
X396625Y424907D01*
X397043Y425917D01*
X397185Y427000D01*
X397043Y428083D01*
X396625Y429093D01*
X395959Y429959D01*
X395093Y430625D01*
X394083Y431043D01*
X393000Y431185D01*
D02*
G37*
G36*
X383000D02*
X381917Y431043D01*
X380907Y430625D01*
X380041Y429959D01*
X379375Y429093D01*
X378957Y428083D01*
X378815Y427000D01*
X378957Y425917D01*
X379190Y425353D01*
X357919Y404081D01*
X357587Y403585D01*
X357471Y403000D01*
Y398645D01*
X357007Y398453D01*
X356181Y397819D01*
X355547Y396993D01*
X355149Y396032D01*
X355013Y395000D01*
X355149Y393968D01*
X355547Y393007D01*
X356181Y392181D01*
X357007Y391547D01*
X357968Y391149D01*
X359000Y391013D01*
X360032Y391149D01*
X360993Y391547D01*
X361819Y392181D01*
X362453Y393007D01*
X362851Y393968D01*
X362987Y395000D01*
X362851Y396032D01*
X362453Y396993D01*
X361819Y397819D01*
X360993Y398453D01*
X360529Y398645D01*
Y402366D01*
X381353Y423190D01*
X381917Y422957D01*
X383000Y422815D01*
X384083Y422957D01*
X385093Y423375D01*
X385960Y424041D01*
X386625Y424907D01*
X387043Y425917D01*
X387185Y427000D01*
X387043Y428083D01*
X386625Y429093D01*
X385960Y429959D01*
X385093Y430625D01*
X384083Y431043D01*
X383000Y431185D01*
D02*
G37*
G36*
X373000D02*
X371917Y431043D01*
X370907Y430625D01*
X370040Y429959D01*
X369375Y429093D01*
X368957Y428083D01*
X368815Y427000D01*
X368957Y425917D01*
X369191Y425353D01*
X347919Y404081D01*
X347587Y403585D01*
X347471Y403000D01*
Y398645D01*
X347007Y398453D01*
X346181Y397819D01*
X345547Y396993D01*
X345149Y396032D01*
X345013Y395000D01*
X345149Y393968D01*
X345547Y393007D01*
X346181Y392181D01*
X347007Y391547D01*
X347968Y391149D01*
X349000Y391013D01*
X350032Y391149D01*
X350993Y391547D01*
X351819Y392181D01*
X352453Y393007D01*
X352851Y393968D01*
X352987Y395000D01*
X352851Y396032D01*
X352453Y396993D01*
X351819Y397819D01*
X350993Y398453D01*
X350529Y398645D01*
Y402366D01*
X371353Y423190D01*
X371917Y422957D01*
X373000Y422815D01*
X374083Y422957D01*
X375093Y423375D01*
X375959Y424041D01*
X376625Y424907D01*
X377043Y425917D01*
X377185Y427000D01*
X377043Y428083D01*
X376625Y429093D01*
X375959Y429959D01*
X375093Y430625D01*
X374083Y431043D01*
X373000Y431185D01*
D02*
G37*
G36*
X363000D02*
X361917Y431043D01*
X360907Y430625D01*
X360040Y429959D01*
X359375Y429093D01*
X358957Y428083D01*
X358815Y427000D01*
X358957Y425917D01*
X359191Y425353D01*
X337919Y404081D01*
X337587Y403585D01*
X337471Y403000D01*
Y398645D01*
X337007Y398453D01*
X336181Y397819D01*
X335547Y396993D01*
X335149Y396032D01*
X335013Y395000D01*
X335149Y393968D01*
X335547Y393007D01*
X336181Y392181D01*
X337007Y391547D01*
X337968Y391149D01*
X339000Y391013D01*
X340032Y391149D01*
X340993Y391547D01*
X341819Y392181D01*
X342453Y393007D01*
X342851Y393968D01*
X342987Y395000D01*
X342851Y396032D01*
X342453Y396993D01*
X341819Y397819D01*
X340993Y398453D01*
X340529Y398645D01*
Y402366D01*
X361353Y423190D01*
X361917Y422957D01*
X363000Y422815D01*
X364083Y422957D01*
X365093Y423375D01*
X365960Y424041D01*
X366625Y424907D01*
X367043Y425917D01*
X367185Y427000D01*
X367043Y428083D01*
X366625Y429093D01*
X365960Y429959D01*
X365093Y430625D01*
X364083Y431043D01*
X363000Y431185D01*
D02*
G37*
G36*
X353000D02*
X351917Y431043D01*
X350907Y430625D01*
X350041Y429959D01*
X349375Y429093D01*
X348957Y428083D01*
X348815Y427000D01*
X348957Y425917D01*
X349375Y424907D01*
X350041Y424041D01*
X350907Y423375D01*
X351917Y422957D01*
X353000Y422815D01*
X354083Y422957D01*
X355093Y423375D01*
X355960Y424041D01*
X356625Y424907D01*
X357043Y425917D01*
X357185Y427000D01*
X357043Y428083D01*
X356625Y429093D01*
X355960Y429959D01*
X355093Y430625D01*
X354083Y431043D01*
X353000Y431185D01*
D02*
G37*
G36*
X343000D02*
X341917Y431043D01*
X340907Y430625D01*
X340040Y429959D01*
X339375Y429093D01*
X338957Y428083D01*
X338815Y427000D01*
X338957Y425917D01*
X339375Y424907D01*
X340040Y424041D01*
X340907Y423375D01*
X341917Y422957D01*
X343000Y422815D01*
X344083Y422957D01*
X345093Y423375D01*
X345959Y424041D01*
X346625Y424907D01*
X347043Y425917D01*
X347185Y427000D01*
X347043Y428083D01*
X346625Y429093D01*
X345959Y429959D01*
X345093Y430625D01*
X344083Y431043D01*
X343000Y431185D01*
D02*
G37*
G36*
X534768Y413043D02*
X531709D01*
Y409000D01*
X534768D01*
Y413043D01*
D02*
G37*
G36*
X530709D02*
X527650D01*
Y409000D01*
X530709D01*
Y413043D01*
D02*
G37*
G36*
X534768Y408000D02*
X531709D01*
Y403957D01*
X534768D01*
Y408000D01*
D02*
G37*
G36*
X530709D02*
X527650D01*
Y403957D01*
X530709D01*
Y408000D01*
D02*
G37*
G36*
X289043Y405768D02*
X285000D01*
Y402709D01*
X289043D01*
Y405768D01*
D02*
G37*
G36*
X284000D02*
X279957D01*
Y402709D01*
X284000D01*
Y405768D01*
D02*
G37*
G36*
X302748Y403874D02*
X299000D01*
Y401012D01*
X302748D01*
Y403874D01*
D02*
G37*
G36*
X298000D02*
X294252D01*
Y401012D01*
X298000D01*
Y403874D01*
D02*
G37*
G36*
X289043Y401709D02*
X285000D01*
Y398650D01*
X289043D01*
Y401709D01*
D02*
G37*
G36*
X284000D02*
X279957D01*
Y398650D01*
X284000D01*
Y401709D01*
D02*
G37*
G36*
X553000Y401421D02*
Y398000D01*
X556421D01*
X556351Y398532D01*
X555953Y399493D01*
X555319Y400319D01*
X554493Y400953D01*
X553532Y401351D01*
X553000Y401421D01*
D02*
G37*
G36*
X552000D02*
X551468Y401351D01*
X550507Y400953D01*
X549681Y400319D01*
X549047Y399493D01*
X548649Y398532D01*
X548579Y398000D01*
X552000D01*
Y401421D01*
D02*
G37*
G36*
X302748Y400012D02*
X299000D01*
Y397150D01*
X302748D01*
Y400012D01*
D02*
G37*
G36*
X298000D02*
X294252D01*
Y397150D01*
X298000D01*
Y400012D01*
D02*
G37*
G36*
X556421Y397000D02*
X553000D01*
Y393579D01*
X553532Y393649D01*
X554493Y394047D01*
X555319Y394681D01*
X555953Y395507D01*
X556351Y396468D01*
X556421Y397000D01*
D02*
G37*
G36*
X552000D02*
X548579D01*
X548649Y396468D01*
X549047Y395507D01*
X549681Y394681D01*
X550507Y394047D01*
X551468Y393649D01*
X552000Y393579D01*
Y397000D01*
D02*
G37*
G36*
X434500Y399487D02*
X433468Y399351D01*
X432507Y398953D01*
X431681Y398319D01*
X431047Y397493D01*
X430855Y397029D01*
X419500D01*
X418915Y396913D01*
X418419Y396581D01*
X406149Y384312D01*
X405914Y384410D01*
X405000Y384530D01*
X404086Y384410D01*
X403235Y384057D01*
X402504Y383496D01*
X401943Y382765D01*
X401590Y381914D01*
X401470Y381000D01*
X401590Y380086D01*
X401943Y379235D01*
X402504Y378504D01*
X403235Y377943D01*
X404086Y377590D01*
X405000Y377470D01*
X405914Y377590D01*
X406765Y377943D01*
X407496Y378504D01*
X408057Y379235D01*
X408410Y380086D01*
X408530Y381000D01*
X408410Y381914D01*
X408312Y382149D01*
X420133Y393971D01*
X430855D01*
X431047Y393507D01*
X431681Y392681D01*
X432507Y392047D01*
X433468Y391649D01*
X434500Y391513D01*
X435532Y391649D01*
X436493Y392047D01*
X437319Y392681D01*
X437953Y393507D01*
X438351Y394468D01*
X438487Y395500D01*
X438351Y396532D01*
X437953Y397493D01*
X437319Y398319D01*
X436493Y398953D01*
X435532Y399351D01*
X434500Y399487D01*
D02*
G37*
G36*
X323453Y368953D02*
X315547D01*
Y366529D01*
X311500D01*
X310915Y366413D01*
X310419Y366081D01*
X307766Y363429D01*
X307000Y363530D01*
X306086Y363410D01*
X305235Y363057D01*
X304504Y362496D01*
X303943Y361765D01*
X303590Y360914D01*
X303470Y360000D01*
X303571Y359234D01*
X302867Y358529D01*
X296291D01*
X296122Y359029D01*
X296319Y359181D01*
X296953Y360007D01*
X297351Y360968D01*
X297421Y361500D01*
X293500D01*
X289579D01*
X289649Y360968D01*
X290047Y360007D01*
X290681Y359181D01*
X290878Y359029D01*
X290708Y358529D01*
X288500D01*
X287915Y358413D01*
X287419Y358081D01*
X284996Y355659D01*
X284532Y355851D01*
X283500Y355987D01*
X282468Y355851D01*
X281507Y355453D01*
X280681Y354819D01*
X280047Y353993D01*
X279649Y353032D01*
X279513Y352000D01*
X279649Y350968D01*
X280047Y350007D01*
X280681Y349181D01*
X281507Y348547D01*
X282468Y348149D01*
X283500Y348013D01*
X284532Y348149D01*
X285493Y348547D01*
X286319Y349181D01*
X286953Y350007D01*
X287351Y350968D01*
X287487Y352000D01*
X287351Y353032D01*
X287159Y353496D01*
X289134Y355471D01*
X290708D01*
X290878Y354971D01*
X290681Y354819D01*
X290047Y353993D01*
X289649Y353032D01*
X289579Y352500D01*
X293500D01*
X297421D01*
X297351Y353032D01*
X296953Y353993D01*
X296319Y354819D01*
X296122Y354971D01*
X296291Y355471D01*
X303500D01*
X304085Y355587D01*
X304581Y355919D01*
X305497Y356834D01*
X306086Y356590D01*
X307000Y356470D01*
X307914Y356590D01*
X308765Y356943D01*
X309496Y357504D01*
X310057Y358235D01*
X310410Y359086D01*
X310530Y360000D01*
X310410Y360914D01*
X310166Y361503D01*
X312134Y363471D01*
X315547D01*
Y361047D01*
X323453D01*
Y368953D01*
D02*
G37*
G36*
X319500Y358987D02*
X318468Y358851D01*
X317507Y358453D01*
X316681Y357819D01*
X316047Y356993D01*
X315855Y356529D01*
X312000D01*
X311415Y356413D01*
X310919Y356081D01*
X303366Y348529D01*
X296291D01*
X296122Y349029D01*
X296319Y349181D01*
X296953Y350007D01*
X297351Y350968D01*
X297421Y351500D01*
X293500D01*
X289579D01*
X289649Y350968D01*
X290047Y350007D01*
X290681Y349181D01*
X290878Y349029D01*
X290708Y348529D01*
X288500D01*
X287915Y348413D01*
X287419Y348081D01*
X284996Y345659D01*
X284532Y345851D01*
X283500Y345987D01*
X282468Y345851D01*
X281507Y345453D01*
X280681Y344819D01*
X280047Y343993D01*
X279649Y343032D01*
X279513Y342000D01*
X279649Y340968D01*
X280047Y340007D01*
X280681Y339181D01*
X281507Y338547D01*
X282468Y338149D01*
X283500Y338013D01*
X284532Y338149D01*
X285493Y338547D01*
X286319Y339181D01*
X286953Y340007D01*
X287351Y340968D01*
X287487Y342000D01*
X287351Y343032D01*
X287159Y343496D01*
X289134Y345471D01*
X290708D01*
X290878Y344971D01*
X290681Y344819D01*
X290047Y343993D01*
X289649Y343032D01*
X289579Y342500D01*
X293500D01*
X297421D01*
X297351Y343032D01*
X296953Y343993D01*
X296319Y344819D01*
X296122Y344971D01*
X296291Y345471D01*
X304000D01*
X304585Y345587D01*
X305081Y345919D01*
X312633Y353471D01*
X315855D01*
X316047Y353007D01*
X316681Y352181D01*
X317507Y351547D01*
X318468Y351149D01*
X319500Y351013D01*
X320532Y351149D01*
X321493Y351547D01*
X322319Y352181D01*
X322953Y353007D01*
X323351Y353968D01*
X323487Y355000D01*
X323351Y356032D01*
X322953Y356993D01*
X322319Y357819D01*
X321493Y358453D01*
X320532Y358851D01*
X319500Y358987D01*
D02*
G37*
G36*
Y348987D02*
X318468Y348851D01*
X317507Y348453D01*
X316681Y347819D01*
X316047Y346993D01*
X315649Y346032D01*
X315513Y345000D01*
X315649Y343968D01*
X315841Y343504D01*
X310866Y338529D01*
X296291D01*
X296122Y339029D01*
X296319Y339181D01*
X296953Y340007D01*
X297351Y340968D01*
X297421Y341500D01*
X293500D01*
X289579D01*
X289649Y340968D01*
X290047Y340007D01*
X290681Y339181D01*
X290878Y339029D01*
X290708Y338529D01*
X289000D01*
X288415Y338413D01*
X287919Y338081D01*
X285349Y335512D01*
X284532Y335851D01*
X283500Y335987D01*
X282468Y335851D01*
X281507Y335453D01*
X280681Y334819D01*
X280047Y333993D01*
X279649Y333032D01*
X279513Y332000D01*
X279649Y330968D01*
X280047Y330007D01*
X280681Y329181D01*
X281507Y328547D01*
X282468Y328149D01*
X283500Y328013D01*
X284532Y328149D01*
X285493Y328547D01*
X286319Y329181D01*
X286953Y330007D01*
X287351Y330968D01*
X287487Y332000D01*
X287351Y333032D01*
X287305Y333142D01*
X289633Y335471D01*
X290708D01*
X290878Y334971D01*
X290681Y334819D01*
X290047Y333993D01*
X289649Y333032D01*
X289579Y332500D01*
X293500D01*
X297421D01*
X297351Y333032D01*
X296953Y333993D01*
X296319Y334819D01*
X296122Y334971D01*
X296291Y335471D01*
X311500D01*
X312085Y335587D01*
X312581Y335919D01*
X318004Y341341D01*
X318468Y341149D01*
X319500Y341013D01*
X320532Y341149D01*
X321493Y341547D01*
X322319Y342181D01*
X322953Y343007D01*
X323006Y343134D01*
X323592Y343245D01*
X329846Y336991D01*
X329654Y336529D01*
X323145D01*
X322953Y336993D01*
X322319Y337819D01*
X321493Y338453D01*
X320532Y338851D01*
X319500Y338987D01*
X318468Y338851D01*
X317507Y338453D01*
X316681Y337819D01*
X316047Y336993D01*
X315649Y336032D01*
X315513Y335000D01*
X315649Y333968D01*
X315841Y333504D01*
X300867Y318529D01*
X296291D01*
X296122Y319029D01*
X296319Y319181D01*
X296953Y320007D01*
X297351Y320968D01*
X297421Y321500D01*
X293500D01*
X289579D01*
X289649Y320968D01*
X290047Y320007D01*
X290681Y319181D01*
X290878Y319029D01*
X290708Y318529D01*
X288500D01*
X287915Y318413D01*
X287419Y318081D01*
X284996Y315659D01*
X284532Y315851D01*
X283500Y315987D01*
X282468Y315851D01*
X281507Y315453D01*
X280681Y314819D01*
X280047Y313993D01*
X279649Y313032D01*
X279513Y312000D01*
X279649Y310968D01*
X280047Y310007D01*
X280681Y309181D01*
X281507Y308547D01*
X282468Y308149D01*
X283500Y308013D01*
X284532Y308149D01*
X285493Y308547D01*
X286319Y309181D01*
X286953Y310007D01*
X287351Y310968D01*
X287487Y312000D01*
X287351Y313032D01*
X287159Y313496D01*
X289134Y315471D01*
X290708D01*
X290878Y314971D01*
X290681Y314819D01*
X290047Y313993D01*
X289649Y313032D01*
X289579Y312500D01*
X293500D01*
X297421D01*
X297351Y313032D01*
X296953Y313993D01*
X296319Y314819D01*
X296122Y314971D01*
X296291Y315471D01*
X301500D01*
X302085Y315587D01*
X302581Y315919D01*
X318004Y331341D01*
X318468Y331149D01*
X319500Y331013D01*
X320532Y331149D01*
X321493Y331547D01*
X322319Y332181D01*
X322953Y333007D01*
X323145Y333471D01*
X373867D01*
X484727Y222610D01*
X484444Y222186D01*
X483583Y222543D01*
X482500Y222685D01*
X481417Y222543D01*
X480407Y222125D01*
X479540Y221460D01*
X478875Y220593D01*
X478457Y219583D01*
X478315Y218500D01*
X478457Y217417D01*
X478875Y216407D01*
X479540Y215541D01*
X480407Y214875D01*
X481417Y214457D01*
X482500Y214315D01*
X483583Y214457D01*
X484593Y214875D01*
X485460Y215541D01*
X486125Y216407D01*
X486543Y217417D01*
X486685Y218500D01*
X486543Y219583D01*
X486186Y220444D01*
X486610Y220727D01*
X488375Y218962D01*
X488315Y218500D01*
X488457Y217417D01*
X488875Y216407D01*
X489540Y215541D01*
X490407Y214875D01*
X491417Y214457D01*
X492500Y214315D01*
X493583Y214457D01*
X494593Y214875D01*
X495460Y215541D01*
X496125Y216407D01*
X496543Y217417D01*
X496685Y218500D01*
X496543Y219583D01*
X496125Y220593D01*
X495460Y221460D01*
X494593Y222125D01*
X493583Y222543D01*
X492500Y222685D01*
X491417Y222543D01*
X490407Y222125D01*
X489916Y221747D01*
X483651Y228011D01*
X483885Y228485D01*
X484000Y228470D01*
X484914Y228590D01*
X485765Y228943D01*
X486496Y229504D01*
X487057Y230235D01*
X487410Y231086D01*
X487530Y232000D01*
X487515Y232115D01*
X487989Y232348D01*
X499253Y221084D01*
X498875Y220593D01*
X498457Y219583D01*
X498315Y218500D01*
X498457Y217417D01*
X498875Y216407D01*
X499541Y215541D01*
X500407Y214875D01*
X501417Y214457D01*
X502500Y214315D01*
X503583Y214457D01*
X504593Y214875D01*
X505459Y215541D01*
X506125Y216407D01*
X506543Y217417D01*
X506685Y218500D01*
X506543Y219583D01*
X506125Y220593D01*
X505459Y221460D01*
X504593Y222125D01*
X503583Y222543D01*
X502500Y222685D01*
X502038Y222625D01*
X442044Y282619D01*
X441548Y282951D01*
X440962Y283067D01*
X436096D01*
X374520Y344643D01*
X374463Y344681D01*
X374351Y345532D01*
X373953Y346493D01*
X373319Y347319D01*
X372493Y347953D01*
X371532Y348351D01*
X370500Y348487D01*
X369468Y348351D01*
X368507Y347953D01*
X367681Y347319D01*
X367047Y346493D01*
X366649Y345532D01*
X366513Y344500D01*
X366649Y343468D01*
X367047Y342507D01*
X367681Y341681D01*
X368507Y341047D01*
X369468Y340649D01*
X370500Y340513D01*
X371532Y340649D01*
X372493Y341047D01*
X373227Y341610D01*
X375846Y338991D01*
X375654Y338529D01*
X332633D01*
X325081Y346081D01*
X324585Y346413D01*
X324000Y346529D01*
X323145D01*
X322953Y346993D01*
X322319Y347819D01*
X321493Y348453D01*
X320532Y348851D01*
X319500Y348987D01*
D02*
G37*
G36*
X297421Y331500D02*
X294000D01*
Y328079D01*
X294532Y328149D01*
X295493Y328547D01*
X296319Y329181D01*
X296953Y330007D01*
X297351Y330968D01*
X297421Y331500D01*
D02*
G37*
G36*
X293000D02*
X289579D01*
X289649Y330968D01*
X290047Y330007D01*
X290681Y329181D01*
X291507Y328547D01*
X292468Y328149D01*
X293000Y328079D01*
Y331500D01*
D02*
G37*
G36*
X294000Y325921D02*
Y322500D01*
X297421D01*
X297351Y323032D01*
X296953Y323993D01*
X296319Y324819D01*
X295493Y325453D01*
X294532Y325851D01*
X294000Y325921D01*
D02*
G37*
G36*
X293000D02*
X292468Y325851D01*
X291507Y325453D01*
X290681Y324819D01*
X290047Y323993D01*
X289649Y323032D01*
X289579Y322500D01*
X293000D01*
Y325921D01*
D02*
G37*
G36*
X343000Y326987D02*
X341968Y326851D01*
X341007Y326453D01*
X340181Y325819D01*
X339547Y324993D01*
X339149Y324032D01*
X339013Y323000D01*
X339149Y321968D01*
X339341Y321504D01*
X331919Y314081D01*
X331587Y313585D01*
X331471Y313000D01*
Y283500D01*
X331587Y282915D01*
X331919Y282419D01*
X338419Y275919D01*
X338915Y275587D01*
X339500Y275471D01*
X343038D01*
X398594Y219914D01*
X398457Y219583D01*
X398315Y218500D01*
X398457Y217417D01*
X398875Y216407D01*
X399540Y215541D01*
X400407Y214875D01*
X401417Y214457D01*
X402500Y214315D01*
X403583Y214457D01*
X404593Y214875D01*
X405459Y215541D01*
X406125Y216407D01*
X406543Y217417D01*
X406685Y218500D01*
X406543Y219583D01*
X406125Y220593D01*
X405459Y221460D01*
X404593Y222125D01*
X403583Y222543D01*
X402500Y222685D01*
X401417Y222543D01*
X400621Y222213D01*
X369997Y252837D01*
X370189Y253299D01*
X375538D01*
X408691Y220147D01*
X408457Y219583D01*
X408315Y218500D01*
X408457Y217417D01*
X408875Y216407D01*
X409541Y215541D01*
X410407Y214875D01*
X411417Y214457D01*
X412500Y214315D01*
X413583Y214457D01*
X414593Y214875D01*
X415459Y215541D01*
X416125Y216407D01*
X416543Y217417D01*
X416685Y218500D01*
X416543Y219583D01*
X416125Y220593D01*
X415459Y221460D01*
X414593Y222125D01*
X413583Y222543D01*
X412500Y222685D01*
X411417Y222543D01*
X410853Y222309D01*
X377253Y255910D01*
X376757Y256241D01*
X376172Y256358D01*
X369305D01*
X337029Y288633D01*
Y299867D01*
X338633Y301471D01*
X339355D01*
X339547Y301007D01*
X340181Y300181D01*
X341007Y299547D01*
X341968Y299149D01*
X343000Y299013D01*
X344032Y299149D01*
X344993Y299547D01*
X345819Y300181D01*
X346453Y301007D01*
X346851Y301968D01*
X346987Y303000D01*
X346851Y304032D01*
X346453Y304993D01*
X345819Y305819D01*
X344993Y306453D01*
X344032Y306851D01*
X343000Y306987D01*
X341968Y306851D01*
X341007Y306453D01*
X340181Y305819D01*
X339547Y304993D01*
X339355Y304529D01*
X338000D01*
X337415Y304413D01*
X336919Y304081D01*
X334991Y302154D01*
X334529Y302346D01*
Y312367D01*
X341504Y319341D01*
X341968Y319149D01*
X343000Y319013D01*
X344032Y319149D01*
X344993Y319547D01*
X345819Y320181D01*
X346453Y321007D01*
X346851Y321968D01*
X346987Y323000D01*
X346851Y324032D01*
X346453Y324993D01*
X345819Y325819D01*
X344993Y326453D01*
X344032Y326851D01*
X343000Y326987D01*
D02*
G37*
G36*
X283500Y325987D02*
X282468Y325851D01*
X281507Y325453D01*
X280681Y324819D01*
X280047Y323993D01*
X279649Y323032D01*
X279513Y322000D01*
X279649Y320968D01*
X280047Y320007D01*
X280681Y319181D01*
X281507Y318547D01*
X282468Y318149D01*
X283500Y318013D01*
X284532Y318149D01*
X285493Y318547D01*
X286319Y319181D01*
X286953Y320007D01*
X287351Y320968D01*
X287487Y322000D01*
X287351Y323032D01*
X286953Y323993D01*
X286319Y324819D01*
X285493Y325453D01*
X284532Y325851D01*
X283500Y325987D01*
D02*
G37*
G36*
X370500Y368487D02*
X369468Y368351D01*
X368507Y367953D01*
X367681Y367319D01*
X367047Y366493D01*
X366649Y365532D01*
X366513Y364500D01*
X366649Y363468D01*
X367047Y362507D01*
X367681Y361681D01*
X368507Y361047D01*
X369468Y360649D01*
X370500Y360513D01*
X371532Y360649D01*
X372493Y361047D01*
X373319Y361681D01*
X373953Y362507D01*
X374145Y362971D01*
X472367D01*
X521419Y313919D01*
X521915Y313587D01*
X522500Y313471D01*
X526345D01*
X526443Y313235D01*
X527004Y312504D01*
X527735Y311943D01*
X528586Y311590D01*
X529500Y311470D01*
X530414Y311590D01*
X531265Y311943D01*
X531996Y312504D01*
X532557Y313235D01*
X532910Y314086D01*
X533030Y315000D01*
X532910Y315914D01*
X532557Y316765D01*
X531996Y317496D01*
X531265Y318057D01*
X530414Y318410D01*
X529500Y318530D01*
X528586Y318410D01*
X527735Y318057D01*
X527004Y317496D01*
X526443Y316765D01*
X526345Y316529D01*
X523134D01*
X474081Y365581D01*
X473585Y365913D01*
X473000Y366029D01*
X374145D01*
X373953Y366493D01*
X373319Y367319D01*
X372493Y367953D01*
X371532Y368351D01*
X370500Y368487D01*
D02*
G37*
G36*
X297421Y311500D02*
X294000D01*
Y308079D01*
X294532Y308149D01*
X295493Y308547D01*
X296319Y309181D01*
X296953Y310007D01*
X297351Y310968D01*
X297421Y311500D01*
D02*
G37*
G36*
X293000D02*
X289579D01*
X289649Y310968D01*
X290047Y310007D01*
X290681Y309181D01*
X291507Y308547D01*
X292468Y308149D01*
X293000Y308079D01*
Y311500D01*
D02*
G37*
G36*
X404000Y349030D02*
X403086Y348910D01*
X402235Y348557D01*
X401504Y347996D01*
X400943Y347265D01*
X400590Y346414D01*
X400470Y345500D01*
X400590Y344586D01*
X400943Y343735D01*
X401504Y343004D01*
X402235Y342443D01*
X403086Y342090D01*
X404000Y341970D01*
X404914Y342090D01*
X405765Y342443D01*
X406496Y343004D01*
X407057Y343735D01*
X407155Y343971D01*
X444867D01*
X479688Y309149D01*
X479590Y308914D01*
X479470Y308000D01*
X479590Y307086D01*
X479943Y306235D01*
X480504Y305504D01*
X481235Y304943D01*
X482086Y304590D01*
X483000Y304470D01*
X483914Y304590D01*
X484765Y304943D01*
X485496Y305504D01*
X486057Y306235D01*
X486410Y307086D01*
X486530Y308000D01*
X486410Y308914D01*
X486057Y309765D01*
X485496Y310496D01*
X484765Y311057D01*
X483914Y311410D01*
X483000Y311530D01*
X482086Y311410D01*
X481851Y311312D01*
X446581Y346581D01*
X446085Y346913D01*
X445500Y347029D01*
X407155D01*
X407057Y347265D01*
X406496Y347996D01*
X405765Y348557D01*
X404914Y348910D01*
X404000Y349030D01*
D02*
G37*
G36*
X294000Y305921D02*
Y302500D01*
X297421D01*
X297351Y303032D01*
X296953Y303993D01*
X296319Y304819D01*
X295493Y305453D01*
X294532Y305851D01*
X294000Y305921D01*
D02*
G37*
G36*
X293000D02*
X292468Y305851D01*
X291507Y305453D01*
X290681Y304819D01*
X290047Y303993D01*
X289649Y303032D01*
X289579Y302500D01*
X293000D01*
Y305921D01*
D02*
G37*
G36*
X323953Y309953D02*
X316047D01*
Y302047D01*
X323953D01*
Y309953D01*
D02*
G37*
G36*
X297421Y301500D02*
X294000D01*
Y298079D01*
X294532Y298149D01*
X295493Y298547D01*
X296319Y299181D01*
X296953Y300007D01*
X297351Y300968D01*
X297421Y301500D01*
D02*
G37*
G36*
X293000D02*
X289579D01*
X289649Y300968D01*
X290047Y300007D01*
X290681Y299181D01*
X291507Y298547D01*
X292468Y298149D01*
X293000Y298079D01*
Y301500D01*
D02*
G37*
G36*
X283500Y305987D02*
X282468Y305851D01*
X281507Y305453D01*
X280681Y304819D01*
X280047Y303993D01*
X279649Y303032D01*
X279513Y302000D01*
X279649Y300968D01*
X280047Y300007D01*
X280681Y299181D01*
X281507Y298547D01*
X282468Y298149D01*
X283500Y298013D01*
X284532Y298149D01*
X285493Y298547D01*
X286319Y299181D01*
X286953Y300007D01*
X287351Y300968D01*
X287487Y302000D01*
X287351Y303032D01*
X286953Y303993D01*
X286319Y304819D01*
X285493Y305453D01*
X284532Y305851D01*
X283500Y305987D01*
D02*
G37*
G36*
X294000Y295921D02*
Y292500D01*
X297421D01*
X297351Y293032D01*
X296953Y293993D01*
X296319Y294819D01*
X295493Y295453D01*
X294532Y295851D01*
X294000Y295921D01*
D02*
G37*
G36*
X293000D02*
X292468Y295851D01*
X291507Y295453D01*
X290681Y294819D01*
X290047Y293993D01*
X289649Y293032D01*
X289579Y292500D01*
X293000D01*
Y295921D01*
D02*
G37*
G36*
X320000Y299987D02*
X318968Y299851D01*
X318007Y299453D01*
X317181Y298819D01*
X316547Y297993D01*
X316149Y297032D01*
X316013Y296000D01*
X316149Y294968D01*
X316547Y294007D01*
X317181Y293181D01*
X318007Y292547D01*
X318968Y292149D01*
X320000Y292013D01*
X321032Y292149D01*
X321993Y292547D01*
X322819Y293181D01*
X323453Y294007D01*
X323851Y294968D01*
X323987Y296000D01*
X323851Y297032D01*
X323453Y297993D01*
X322819Y298819D01*
X321993Y299453D01*
X321032Y299851D01*
X320000Y299987D01*
D02*
G37*
G36*
X297421Y291500D02*
X294000D01*
Y288079D01*
X294532Y288149D01*
X295493Y288547D01*
X296319Y289181D01*
X296953Y290007D01*
X297351Y290968D01*
X297421Y291500D01*
D02*
G37*
G36*
X293000D02*
X289579D01*
X289649Y290968D01*
X290047Y290007D01*
X290681Y289181D01*
X291507Y288547D01*
X292468Y288149D01*
X293000Y288079D01*
Y291500D01*
D02*
G37*
G36*
X283500Y295987D02*
X282468Y295851D01*
X281507Y295453D01*
X280681Y294819D01*
X280047Y293993D01*
X279649Y293032D01*
X279513Y292000D01*
X279649Y290968D01*
X280047Y290007D01*
X280681Y289181D01*
X281507Y288547D01*
X282468Y288149D01*
X283500Y288013D01*
X284532Y288149D01*
X285493Y288547D01*
X286319Y289181D01*
X286953Y290007D01*
X287351Y290968D01*
X287487Y292000D01*
X287351Y293032D01*
X286953Y293993D01*
X286319Y294819D01*
X285493Y295453D01*
X284532Y295851D01*
X283500Y295987D01*
D02*
G37*
G36*
X294000Y285921D02*
Y282500D01*
X297421D01*
X297351Y283032D01*
X296953Y283993D01*
X296319Y284819D01*
X295493Y285453D01*
X294532Y285851D01*
X294000Y285921D01*
D02*
G37*
G36*
X293000D02*
X292468Y285851D01*
X291507Y285453D01*
X290681Y284819D01*
X290047Y283993D01*
X289649Y283032D01*
X289579Y282500D01*
X293000D01*
Y285921D01*
D02*
G37*
G36*
X297421Y281500D02*
X294000D01*
Y278079D01*
X294532Y278149D01*
X295493Y278547D01*
X296319Y279181D01*
X296953Y280007D01*
X297351Y280968D01*
X297421Y281500D01*
D02*
G37*
G36*
X293000D02*
X289579D01*
X289649Y280968D01*
X290047Y280007D01*
X290681Y279181D01*
X291507Y278547D01*
X292468Y278149D01*
X293000Y278079D01*
Y281500D01*
D02*
G37*
G36*
X283500Y285987D02*
X282468Y285851D01*
X281507Y285453D01*
X280681Y284819D01*
X280047Y283993D01*
X279649Y283032D01*
X279513Y282000D01*
X279649Y280968D01*
X280047Y280007D01*
X280681Y279181D01*
X281507Y278547D01*
X282468Y278149D01*
X283500Y278013D01*
X284532Y278149D01*
X285493Y278547D01*
X286319Y279181D01*
X286953Y280007D01*
X287351Y280968D01*
X287487Y282000D01*
X287351Y283032D01*
X286953Y283993D01*
X286319Y284819D01*
X285493Y285453D01*
X284532Y285851D01*
X283500Y285987D01*
D02*
G37*
G36*
X513000Y431185D02*
X511917Y431043D01*
X510907Y430625D01*
X510041Y429959D01*
X509375Y429093D01*
X508957Y428083D01*
X508815Y427000D01*
X508957Y425917D01*
X509375Y424907D01*
X510041Y424041D01*
X510907Y423375D01*
X511917Y422957D01*
X513000Y422815D01*
X514083Y422957D01*
X514647Y423190D01*
X518262Y419575D01*
Y413043D01*
X516232D01*
Y403957D01*
X521187D01*
X538726Y386419D01*
X539222Y386087D01*
X539807Y385971D01*
X548547D01*
Y383547D01*
X553971D01*
Y259453D01*
X551547D01*
Y251547D01*
X559453D01*
Y259453D01*
X557029D01*
Y384500D01*
X556913Y385085D01*
X556581Y385581D01*
X556453Y385710D01*
Y391453D01*
X548547D01*
Y389029D01*
X540441D01*
X523350Y406120D01*
Y413043D01*
X521321D01*
Y420209D01*
X521204Y420794D01*
X520873Y421290D01*
X516810Y425353D01*
X517043Y425917D01*
X517185Y427000D01*
X517043Y428083D01*
X516625Y429093D01*
X515960Y429959D01*
X515093Y430625D01*
X514083Y431043D01*
X513000Y431185D01*
D02*
G37*
G36*
X527500Y339030D02*
X526586Y338910D01*
X525735Y338557D01*
X525004Y337996D01*
X524443Y337265D01*
X524090Y336414D01*
X523970Y335500D01*
X524090Y334586D01*
X524443Y333735D01*
X524776Y333301D01*
X524460Y332891D01*
X524414Y332910D01*
X523500Y333030D01*
X522586Y332910D01*
X521735Y332557D01*
X521004Y331996D01*
X520443Y331265D01*
X520090Y330414D01*
X519970Y329500D01*
X520090Y328586D01*
X520443Y327735D01*
X521004Y327004D01*
X521735Y326443D01*
X522586Y326090D01*
X523500Y325970D01*
X524414Y326090D01*
X525265Y326443D01*
X525996Y327004D01*
X526557Y327735D01*
X526655Y327971D01*
X531366D01*
X539971Y319367D01*
Y262134D01*
X536996Y259159D01*
X536532Y259351D01*
X535500Y259487D01*
X534468Y259351D01*
X533507Y258953D01*
X532681Y258319D01*
X532047Y257493D01*
X531649Y256532D01*
X531513Y255500D01*
X531649Y254468D01*
X532047Y253507D01*
X532681Y252681D01*
X533507Y252047D01*
X534468Y251649D01*
X535500Y251513D01*
X536532Y251649D01*
X537493Y252047D01*
X538319Y252681D01*
X538953Y253507D01*
X539351Y254468D01*
X539487Y255500D01*
X539351Y256532D01*
X539159Y256996D01*
X542581Y260419D01*
X542913Y260915D01*
X543029Y261500D01*
Y320000D01*
X542913Y320585D01*
X542581Y321081D01*
X533081Y330581D01*
X532585Y330913D01*
X532000Y331029D01*
X526655D01*
X526557Y331265D01*
X526225Y331699D01*
X526540Y332109D01*
X526586Y332090D01*
X527500Y331970D01*
X528414Y332090D01*
X529265Y332443D01*
X529996Y333004D01*
X530557Y333735D01*
X530655Y333971D01*
X537366D01*
X543971Y327366D01*
Y259145D01*
X543507Y258953D01*
X542681Y258319D01*
X542047Y257493D01*
X541649Y256532D01*
X541513Y255500D01*
X541649Y254468D01*
X542047Y253507D01*
X542681Y252681D01*
X543507Y252047D01*
X544468Y251649D01*
X545500Y251513D01*
X546532Y251649D01*
X547493Y252047D01*
X548319Y252681D01*
X548953Y253507D01*
X549351Y254468D01*
X549487Y255500D01*
X549351Y256532D01*
X548953Y257493D01*
X548319Y258319D01*
X547493Y258953D01*
X547029Y259145D01*
Y328000D01*
X546913Y328585D01*
X546581Y329081D01*
X539081Y336581D01*
X538585Y336913D01*
X538000Y337029D01*
X530655D01*
X530557Y337265D01*
X529996Y337996D01*
X529265Y338557D01*
X528414Y338910D01*
X527500Y339030D01*
D02*
G37*
G36*
X573000Y222620D02*
Y219000D01*
X576620D01*
X576543Y219583D01*
X576125Y220593D01*
X575459Y221460D01*
X574593Y222125D01*
X573583Y222543D01*
X573000Y222620D01*
D02*
G37*
G36*
X572000D02*
X571417Y222543D01*
X570407Y222125D01*
X569541Y221460D01*
X568875Y220593D01*
X568457Y219583D01*
X568380Y219000D01*
X572000D01*
Y222620D01*
D02*
G37*
G36*
X563000D02*
Y219000D01*
X566620D01*
X566543Y219583D01*
X566125Y220593D01*
X565459Y221460D01*
X564593Y222125D01*
X563583Y222543D01*
X563000Y222620D01*
D02*
G37*
G36*
X562000D02*
X561417Y222543D01*
X560407Y222125D01*
X559541Y221460D01*
X558875Y220593D01*
X558457Y219583D01*
X558380Y219000D01*
X562000D01*
Y222620D01*
D02*
G37*
G36*
X553000D02*
Y219000D01*
X556620D01*
X556543Y219583D01*
X556125Y220593D01*
X555459Y221460D01*
X554593Y222125D01*
X553583Y222543D01*
X553000Y222620D01*
D02*
G37*
G36*
X552000D02*
X551417Y222543D01*
X550407Y222125D01*
X549541Y221460D01*
X548875Y220593D01*
X548457Y219583D01*
X548380Y219000D01*
X552000D01*
Y222620D01*
D02*
G37*
G36*
X543000D02*
Y219000D01*
X546620D01*
X546543Y219583D01*
X546125Y220593D01*
X545460Y221460D01*
X544593Y222125D01*
X543583Y222543D01*
X543000Y222620D01*
D02*
G37*
G36*
X542000D02*
X541417Y222543D01*
X540407Y222125D01*
X539540Y221460D01*
X538875Y220593D01*
X538457Y219583D01*
X538380Y219000D01*
X542000D01*
Y222620D01*
D02*
G37*
G36*
X533000D02*
Y219000D01*
X536620D01*
X536543Y219583D01*
X536125Y220593D01*
X535460Y221460D01*
X534593Y222125D01*
X533583Y222543D01*
X533000Y222620D01*
D02*
G37*
G36*
X532000D02*
X531417Y222543D01*
X530407Y222125D01*
X529540Y221460D01*
X528875Y220593D01*
X528457Y219583D01*
X528380Y219000D01*
X532000D01*
Y222620D01*
D02*
G37*
G36*
X523000D02*
Y219000D01*
X526620D01*
X526543Y219583D01*
X526125Y220593D01*
X525459Y221460D01*
X524593Y222125D01*
X523583Y222543D01*
X523000Y222620D01*
D02*
G37*
G36*
X522000D02*
X521417Y222543D01*
X520407Y222125D01*
X519541Y221460D01*
X518875Y220593D01*
X518457Y219583D01*
X518380Y219000D01*
X522000D01*
Y222620D01*
D02*
G37*
G36*
X433000D02*
Y219000D01*
X436620D01*
X436543Y219583D01*
X436125Y220593D01*
X435460Y221460D01*
X434593Y222125D01*
X433583Y222543D01*
X433000Y222620D01*
D02*
G37*
G36*
X432000D02*
X431417Y222543D01*
X430407Y222125D01*
X429540Y221460D01*
X428875Y220593D01*
X428457Y219583D01*
X428380Y219000D01*
X432000D01*
Y222620D01*
D02*
G37*
G36*
X293000D02*
Y219000D01*
X296620D01*
X296543Y219583D01*
X296125Y220593D01*
X295460Y221460D01*
X294593Y222125D01*
X293583Y222543D01*
X293000Y222620D01*
D02*
G37*
G36*
X292000D02*
X291417Y222543D01*
X290407Y222125D01*
X289541Y221460D01*
X288875Y220593D01*
X288457Y219583D01*
X288380Y219000D01*
X292000D01*
Y222620D01*
D02*
G37*
G36*
X286650Y222650D02*
X283000D01*
Y219000D01*
X286650D01*
Y222650D01*
D02*
G37*
G36*
X282000D02*
X278350D01*
Y219000D01*
X282000D01*
Y222650D01*
D02*
G37*
G36*
X576620Y218000D02*
X573000D01*
Y214380D01*
X573583Y214457D01*
X574593Y214875D01*
X575459Y215541D01*
X576125Y216407D01*
X576543Y217417D01*
X576620Y218000D01*
D02*
G37*
G36*
X572000D02*
X568380D01*
X568457Y217417D01*
X568875Y216407D01*
X569541Y215541D01*
X570407Y214875D01*
X571417Y214457D01*
X572000Y214380D01*
Y218000D01*
D02*
G37*
G36*
X566620D02*
X563000D01*
Y214380D01*
X563583Y214457D01*
X564593Y214875D01*
X565459Y215541D01*
X566125Y216407D01*
X566543Y217417D01*
X566620Y218000D01*
D02*
G37*
G36*
X562000D02*
X558380D01*
X558457Y217417D01*
X558875Y216407D01*
X559541Y215541D01*
X560407Y214875D01*
X561417Y214457D01*
X562000Y214380D01*
Y218000D01*
D02*
G37*
G36*
X556620D02*
X553000D01*
Y214380D01*
X553583Y214457D01*
X554593Y214875D01*
X555459Y215541D01*
X556125Y216407D01*
X556543Y217417D01*
X556620Y218000D01*
D02*
G37*
G36*
X552000D02*
X548380D01*
X548457Y217417D01*
X548875Y216407D01*
X549541Y215541D01*
X550407Y214875D01*
X551417Y214457D01*
X552000Y214380D01*
Y218000D01*
D02*
G37*
G36*
X546620D02*
X543000D01*
Y214380D01*
X543583Y214457D01*
X544593Y214875D01*
X545460Y215541D01*
X546125Y216407D01*
X546543Y217417D01*
X546620Y218000D01*
D02*
G37*
G36*
X542000D02*
X538380D01*
X538457Y217417D01*
X538875Y216407D01*
X539540Y215541D01*
X540407Y214875D01*
X541417Y214457D01*
X542000Y214380D01*
Y218000D01*
D02*
G37*
G36*
X536620D02*
X533000D01*
Y214380D01*
X533583Y214457D01*
X534593Y214875D01*
X535460Y215541D01*
X536125Y216407D01*
X536543Y217417D01*
X536620Y218000D01*
D02*
G37*
G36*
X532000D02*
X528380D01*
X528457Y217417D01*
X528875Y216407D01*
X529540Y215541D01*
X530407Y214875D01*
X531417Y214457D01*
X532000Y214380D01*
Y218000D01*
D02*
G37*
G36*
X526620D02*
X523000D01*
Y214380D01*
X523583Y214457D01*
X524593Y214875D01*
X525459Y215541D01*
X526125Y216407D01*
X526543Y217417D01*
X526620Y218000D01*
D02*
G37*
G36*
X522000D02*
X518380D01*
X518457Y217417D01*
X518875Y216407D01*
X519541Y215541D01*
X520407Y214875D01*
X521417Y214457D01*
X522000Y214380D01*
Y218000D01*
D02*
G37*
G36*
X436620D02*
X433000D01*
Y214380D01*
X433583Y214457D01*
X434593Y214875D01*
X435460Y215541D01*
X436125Y216407D01*
X436543Y217417D01*
X436620Y218000D01*
D02*
G37*
G36*
X432000D02*
X428380D01*
X428457Y217417D01*
X428875Y216407D01*
X429540Y215541D01*
X430407Y214875D01*
X431417Y214457D01*
X432000Y214380D01*
Y218000D01*
D02*
G37*
G36*
X296620D02*
X293000D01*
Y214380D01*
X293583Y214457D01*
X294593Y214875D01*
X295460Y215541D01*
X296125Y216407D01*
X296543Y217417D01*
X296620Y218000D01*
D02*
G37*
G36*
X292000D02*
X288380D01*
X288457Y217417D01*
X288875Y216407D01*
X289541Y215541D01*
X290407Y214875D01*
X291417Y214457D01*
X292000Y214380D01*
Y218000D01*
D02*
G37*
G36*
X286650D02*
X283000D01*
Y214350D01*
X286650D01*
Y218000D01*
D02*
G37*
G36*
X282000D02*
X278350D01*
Y214350D01*
X282000D01*
Y218000D01*
D02*
G37*
G36*
X370500Y358487D02*
X369468Y358351D01*
X368507Y357953D01*
X367681Y357319D01*
X367047Y356493D01*
X366649Y355532D01*
X366513Y354500D01*
X366649Y353468D01*
X367047Y352507D01*
X367681Y351681D01*
X368507Y351047D01*
X369468Y350649D01*
X370500Y350513D01*
X371532Y350649D01*
X371996Y350841D01*
X437381Y285456D01*
X437877Y285125D01*
X438462Y285008D01*
X443829D01*
X508691Y220147D01*
X508457Y219583D01*
X508315Y218500D01*
X508457Y217417D01*
X508875Y216407D01*
X509541Y215541D01*
X510407Y214875D01*
X511417Y214457D01*
X512500Y214315D01*
X513583Y214457D01*
X514593Y214875D01*
X515459Y215541D01*
X516125Y216407D01*
X516543Y217417D01*
X516685Y218500D01*
X516543Y219583D01*
X516125Y220593D01*
X515459Y221460D01*
X514593Y222125D01*
X513583Y222543D01*
X512500Y222685D01*
X511417Y222543D01*
X510853Y222309D01*
X445544Y287619D01*
X445048Y287951D01*
X444462Y288067D01*
X439096D01*
X374159Y353004D01*
X374351Y353468D01*
X374487Y354500D01*
X374351Y355532D01*
X373953Y356493D01*
X373319Y357319D01*
X372493Y357953D01*
X371532Y358351D01*
X370500Y358487D01*
D02*
G37*
G36*
X472500Y222685D02*
X471417Y222543D01*
X470407Y222125D01*
X469541Y221460D01*
X468875Y220593D01*
X468457Y219583D01*
X468315Y218500D01*
X468457Y217417D01*
X468875Y216407D01*
X469541Y215541D01*
X470407Y214875D01*
X471417Y214457D01*
X472500Y214315D01*
X473583Y214457D01*
X474593Y214875D01*
X475459Y215541D01*
X476125Y216407D01*
X476543Y217417D01*
X476685Y218500D01*
X476543Y219583D01*
X476125Y220593D01*
X475459Y221460D01*
X474593Y222125D01*
X473583Y222543D01*
X472500Y222685D01*
D02*
G37*
G36*
X462500D02*
X461417Y222543D01*
X460407Y222125D01*
X459541Y221460D01*
X458875Y220593D01*
X458457Y219583D01*
X458315Y218500D01*
X458457Y217417D01*
X458875Y216407D01*
X459541Y215541D01*
X460407Y214875D01*
X461417Y214457D01*
X462500Y214315D01*
X463583Y214457D01*
X464593Y214875D01*
X465459Y215541D01*
X466125Y216407D01*
X466543Y217417D01*
X466685Y218500D01*
X466543Y219583D01*
X466125Y220593D01*
X465459Y221460D01*
X464593Y222125D01*
X463583Y222543D01*
X462500Y222685D01*
D02*
G37*
G36*
X366500Y323030D02*
X365586Y322910D01*
X364735Y322557D01*
X364004Y321996D01*
X363443Y321265D01*
X363090Y320414D01*
X362970Y319500D01*
X363090Y318586D01*
X363443Y317735D01*
X364004Y317004D01*
X364735Y316443D01*
X365586Y316090D01*
X366500Y315970D01*
X367414Y316090D01*
X367649Y316188D01*
X450971Y232867D01*
Y222358D01*
X450407Y222125D01*
X449541Y221460D01*
X448875Y220593D01*
X448457Y219583D01*
X448315Y218500D01*
X448457Y217417D01*
X448875Y216407D01*
X449541Y215541D01*
X450407Y214875D01*
X451417Y214457D01*
X452500Y214315D01*
X453583Y214457D01*
X454593Y214875D01*
X455459Y215541D01*
X456125Y216407D01*
X456543Y217417D01*
X456685Y218500D01*
X456543Y219583D01*
X456125Y220593D01*
X455459Y221460D01*
X454593Y222125D01*
X454029Y222358D01*
Y233500D01*
X453913Y234085D01*
X453581Y234581D01*
X369812Y318351D01*
X369910Y318586D01*
X370030Y319500D01*
X369910Y320414D01*
X369557Y321265D01*
X368996Y321996D01*
X368265Y322557D01*
X367414Y322910D01*
X366500Y323030D01*
D02*
G37*
G36*
X343000Y316987D02*
X341968Y316851D01*
X341007Y316453D01*
X340181Y315819D01*
X339547Y314993D01*
X339149Y314032D01*
X339013Y313000D01*
X339149Y311968D01*
X339547Y311007D01*
X340181Y310181D01*
X341007Y309547D01*
X341968Y309149D01*
X343000Y309013D01*
X344032Y309149D01*
X344993Y309547D01*
X345819Y310181D01*
X346128Y310584D01*
X348253D01*
X438691Y220147D01*
X438457Y219583D01*
X438315Y218500D01*
X438457Y217417D01*
X438875Y216407D01*
X439540Y215541D01*
X440407Y214875D01*
X441417Y214457D01*
X442500Y214315D01*
X443583Y214457D01*
X444593Y214875D01*
X445460Y215541D01*
X446125Y216407D01*
X446543Y217417D01*
X446685Y218500D01*
X446543Y219583D01*
X446125Y220593D01*
X445460Y221460D01*
X444593Y222125D01*
X443583Y222543D01*
X442500Y222685D01*
X441417Y222543D01*
X440853Y222309D01*
X349968Y313195D01*
X349472Y313526D01*
X348887Y313643D01*
X346902D01*
X346851Y314032D01*
X346453Y314993D01*
X345819Y315819D01*
X344993Y316453D01*
X344032Y316851D01*
X343000Y316987D01*
D02*
G37*
G36*
X346953Y296953D02*
X339047D01*
Y289047D01*
X346953D01*
Y291262D01*
X347453Y291384D01*
X418690Y220147D01*
X418457Y219583D01*
X418315Y218500D01*
X418457Y217417D01*
X418875Y216407D01*
X419541Y215541D01*
X420407Y214875D01*
X421417Y214457D01*
X422500Y214315D01*
X423583Y214457D01*
X424593Y214875D01*
X425459Y215541D01*
X426125Y216407D01*
X426543Y217417D01*
X426685Y218500D01*
X426543Y219583D01*
X426125Y220593D01*
X425459Y221460D01*
X424593Y222125D01*
X423583Y222543D01*
X422500Y222685D01*
X421417Y222543D01*
X420853Y222309D01*
X349081Y294081D01*
X348585Y294413D01*
X348000Y294529D01*
X346953D01*
Y296953D01*
D02*
G37*
G36*
X392500Y222685D02*
X391417Y222543D01*
X390407Y222125D01*
X389541Y221460D01*
X388875Y220593D01*
X388457Y219583D01*
X388315Y218500D01*
X388457Y217417D01*
X388875Y216407D01*
X389541Y215541D01*
X390407Y214875D01*
X391417Y214457D01*
X392500Y214315D01*
X393583Y214457D01*
X394593Y214875D01*
X395460Y215541D01*
X396125Y216407D01*
X396543Y217417D01*
X396685Y218500D01*
X396543Y219583D01*
X396125Y220593D01*
X395460Y221460D01*
X394593Y222125D01*
X393583Y222543D01*
X392500Y222685D01*
D02*
G37*
G36*
X382500D02*
X381417Y222543D01*
X380407Y222125D01*
X379540Y221460D01*
X378875Y220593D01*
X378457Y219583D01*
X378315Y218500D01*
X378457Y217417D01*
X378875Y216407D01*
X379540Y215541D01*
X380407Y214875D01*
X381417Y214457D01*
X382500Y214315D01*
X383583Y214457D01*
X384593Y214875D01*
X385459Y215541D01*
X386125Y216407D01*
X386543Y217417D01*
X386685Y218500D01*
X386543Y219583D01*
X386125Y220593D01*
X385459Y221460D01*
X384593Y222125D01*
X383583Y222543D01*
X382500Y222685D01*
D02*
G37*
G36*
X372500D02*
X371417Y222543D01*
X370407Y222125D01*
X369541Y221460D01*
X368875Y220593D01*
X368457Y219583D01*
X368315Y218500D01*
X368457Y217417D01*
X368875Y216407D01*
X369541Y215541D01*
X370407Y214875D01*
X371417Y214457D01*
X372500Y214315D01*
X373583Y214457D01*
X374593Y214875D01*
X375460Y215541D01*
X376125Y216407D01*
X376543Y217417D01*
X376685Y218500D01*
X376543Y219583D01*
X376125Y220593D01*
X375460Y221460D01*
X374593Y222125D01*
X373583Y222543D01*
X372500Y222685D01*
D02*
G37*
G36*
X362500D02*
X361417Y222543D01*
X360407Y222125D01*
X359541Y221460D01*
X358875Y220593D01*
X358457Y219583D01*
X358315Y218500D01*
X358457Y217417D01*
X358875Y216407D01*
X359541Y215541D01*
X360407Y214875D01*
X361417Y214457D01*
X362500Y214315D01*
X363583Y214457D01*
X364593Y214875D01*
X365459Y215541D01*
X366125Y216407D01*
X366543Y217417D01*
X366685Y218500D01*
X366543Y219583D01*
X366125Y220593D01*
X365459Y221460D01*
X364593Y222125D01*
X363583Y222543D01*
X362500Y222685D01*
D02*
G37*
G36*
X352500D02*
X351417Y222543D01*
X350407Y222125D01*
X349540Y221460D01*
X348875Y220593D01*
X348457Y219583D01*
X348315Y218500D01*
X348457Y217417D01*
X348875Y216407D01*
X349540Y215541D01*
X350407Y214875D01*
X351417Y214457D01*
X352500Y214315D01*
X353583Y214457D01*
X354593Y214875D01*
X355459Y215541D01*
X356125Y216407D01*
X356543Y217417D01*
X356685Y218500D01*
X356543Y219583D01*
X356125Y220593D01*
X355459Y221460D01*
X354593Y222125D01*
X353583Y222543D01*
X352500Y222685D01*
D02*
G37*
G36*
X342500D02*
X341417Y222543D01*
X340407Y222125D01*
X339541Y221460D01*
X338875Y220593D01*
X338457Y219583D01*
X338315Y218500D01*
X338457Y217417D01*
X338875Y216407D01*
X339541Y215541D01*
X340407Y214875D01*
X341417Y214457D01*
X342500Y214315D01*
X343583Y214457D01*
X344593Y214875D01*
X345460Y215541D01*
X346125Y216407D01*
X346543Y217417D01*
X346685Y218500D01*
X346543Y219583D01*
X346125Y220593D01*
X345460Y221460D01*
X344593Y222125D01*
X343583Y222543D01*
X342500Y222685D01*
D02*
G37*
G36*
X332500D02*
X331417Y222543D01*
X330407Y222125D01*
X329540Y221460D01*
X328875Y220593D01*
X328457Y219583D01*
X328315Y218500D01*
X328457Y217417D01*
X328875Y216407D01*
X329540Y215541D01*
X330407Y214875D01*
X331417Y214457D01*
X332500Y214315D01*
X333583Y214457D01*
X334593Y214875D01*
X335459Y215541D01*
X336125Y216407D01*
X336543Y217417D01*
X336685Y218500D01*
X336543Y219583D01*
X336125Y220593D01*
X335459Y221460D01*
X334593Y222125D01*
X333583Y222543D01*
X332500Y222685D01*
D02*
G37*
G36*
X322500D02*
X321417Y222543D01*
X320407Y222125D01*
X319541Y221460D01*
X318875Y220593D01*
X318457Y219583D01*
X318315Y218500D01*
X318457Y217417D01*
X318875Y216407D01*
X319541Y215541D01*
X320407Y214875D01*
X321417Y214457D01*
X322500Y214315D01*
X323583Y214457D01*
X324593Y214875D01*
X325460Y215541D01*
X326125Y216407D01*
X326543Y217417D01*
X326685Y218500D01*
X326543Y219583D01*
X326125Y220593D01*
X325460Y221460D01*
X324593Y222125D01*
X323583Y222543D01*
X322500Y222685D01*
D02*
G37*
G36*
X312500D02*
X311417Y222543D01*
X310407Y222125D01*
X309541Y221460D01*
X308875Y220593D01*
X308457Y219583D01*
X308315Y218500D01*
X308457Y217417D01*
X308875Y216407D01*
X309541Y215541D01*
X310407Y214875D01*
X311417Y214457D01*
X312500Y214315D01*
X313583Y214457D01*
X314593Y214875D01*
X315459Y215541D01*
X316125Y216407D01*
X316543Y217417D01*
X316685Y218500D01*
X316543Y219583D01*
X316125Y220593D01*
X315459Y221460D01*
X314593Y222125D01*
X313583Y222543D01*
X312500Y222685D01*
D02*
G37*
G36*
X302500D02*
X301417Y222543D01*
X300407Y222125D01*
X299540Y221460D01*
X298875Y220593D01*
X298457Y219583D01*
X298315Y218500D01*
X298457Y217417D01*
X298875Y216407D01*
X299540Y215541D01*
X300407Y214875D01*
X301417Y214457D01*
X302500Y214315D01*
X303583Y214457D01*
X304593Y214875D01*
X305459Y215541D01*
X306125Y216407D01*
X306543Y217417D01*
X306685Y218500D01*
X306543Y219583D01*
X306125Y220593D01*
X305459Y221460D01*
X304593Y222125D01*
X303583Y222543D01*
X302500Y222685D01*
D02*
G37*
%LPD*%
G36*
X294252Y390454D02*
Y386126D01*
X296971D01*
Y374792D01*
X296471Y374622D01*
X296319Y374819D01*
X295493Y375453D01*
X294532Y375851D01*
X293500Y375987D01*
X292468Y375851D01*
X291507Y375453D01*
X290681Y374819D01*
X290047Y373993D01*
X289855Y373529D01*
X287453D01*
Y375953D01*
X285029D01*
Y387232D01*
X289043D01*
Y389300D01*
X290459Y389440D01*
X292389Y390025D01*
X293752Y390753D01*
X294252Y390454D01*
D02*
G37*
G36*
X484348Y235989D02*
X484115Y235515D01*
X484000Y235530D01*
X483086Y235410D01*
X482235Y235057D01*
X481504Y234496D01*
X481496Y234496D01*
X436445Y279546D01*
X436636Y280008D01*
X440329D01*
X484348Y235989D01*
D02*
G37*
D14*
X288453Y390791D02*
X289431Y390846D01*
X290397Y391010D01*
X291338Y391282D01*
X292244Y391657D01*
X293101Y392130D01*
X293900Y392698D01*
X294631Y393350D01*
X445500Y345500D02*
X483000Y308000D01*
X404000Y345500D02*
X445500D01*
X303500Y357000D02*
X311500Y365000D01*
X328500Y363500D02*
X332988Y359012D01*
X328500Y363500D02*
Y373500D01*
X308650Y393350D02*
X328500Y373500D01*
X332988Y359012D02*
X338000D01*
X345012D01*
X294631Y393350D02*
X308650D01*
X345012Y359012D02*
X361000Y375000D01*
X332000Y337000D02*
X376828D01*
X366500Y319500D02*
X452500Y233500D01*
Y218500D02*
Y233500D01*
X343887Y312113D02*
X348887D01*
X442500Y218500D01*
X376828Y337000D02*
X481828Y232000D01*
X319500Y335000D02*
X374500D01*
X489462Y220038D01*
X343000Y313000D02*
X343887Y312113D01*
X491066Y218500D02*
X492500D01*
X489462Y220038D02*
X489528D01*
X491066Y218500D01*
X481828Y232000D02*
X484000D01*
X361000Y375000D02*
X432027D01*
X435462Y281538D02*
X440962D01*
X502500Y218500D02*
Y219934D01*
X500962Y221472D02*
X502500Y219934D01*
X500962Y221472D02*
Y221538D01*
X440962Y281538D02*
X500962Y221538D01*
X319500Y345000D02*
X324000D01*
X332000Y337000D01*
X444462Y286538D02*
X512500Y218500D01*
X438462Y286538D02*
X444462D01*
X370500Y354500D02*
X438462Y286538D01*
X348000Y293000D02*
X422500Y218500D01*
X343000Y293000D02*
X348000D01*
X343672Y277000D02*
X402172Y218500D01*
X335500Y288000D02*
X368672Y254828D01*
X339500Y277000D02*
X343672D01*
X402172Y218500D02*
X402500D01*
X371439Y343561D02*
X373439D01*
X435462Y281538D01*
X370500Y344500D02*
X371439Y343561D01*
X338886Y347988D02*
X342374Y344500D01*
X360500D01*
X333000Y283500D02*
X339500Y277000D01*
X333000Y283500D02*
Y313000D01*
X335500Y288000D02*
Y300500D01*
X368672Y254828D02*
X376172D01*
X412500Y218500D01*
X333000Y313000D02*
X343000Y323000D01*
X335500Y300500D02*
X338000Y303000D01*
X343000D01*
X483000Y425973D02*
Y427000D01*
X432027Y375000D02*
X483000Y425973D01*
X370500Y364500D02*
X473000D01*
X522500Y315000D01*
X284500Y390791D02*
X288448D01*
X288453Y390791D01*
X304000Y347000D02*
X312000Y355000D01*
X319500D01*
X294344Y366547D02*
X298500Y370703D01*
Y389488D01*
X532000Y329500D02*
X541500Y320000D01*
X523500Y329500D02*
X532000D01*
X527500Y335500D02*
X538000D01*
X545500Y328000D01*
X541500Y261500D02*
Y320000D01*
X535500Y255500D02*
X541500Y261500D01*
X545500Y255500D02*
Y328000D01*
X522500Y315000D02*
X529500D01*
X519791Y408500D02*
Y420209D01*
Y407516D02*
X539807Y387500D01*
X552500D01*
X519791Y407516D02*
Y408500D01*
X555500Y255500D02*
Y384500D01*
X552500Y387500D02*
X555500Y384500D01*
X405000Y381000D02*
X419500Y395500D01*
X434500D01*
X360500Y344500D02*
Y354500D01*
X338000Y347988D02*
X338886D01*
X360500Y354500D02*
Y364500D01*
X288500Y317000D02*
X301500D01*
X283500Y312000D02*
X288500Y317000D01*
X301500D02*
X319500Y335000D01*
X284000Y332000D02*
X289000Y337000D01*
X311500D02*
X319500Y345000D01*
X289000Y337000D02*
X311500D01*
X283500Y332000D02*
X284000D01*
X283500Y352000D02*
X288500Y357000D01*
X303500D01*
X283500Y342000D02*
X288500Y347000D01*
X304000D01*
X311500Y365000D02*
X319500D01*
X283500Y362000D02*
X288047Y366547D01*
X294344D01*
X283500Y372000D02*
X293500D01*
X339000Y395000D02*
Y403000D01*
X363000Y427000D01*
X349000Y395000D02*
Y403000D01*
X373000Y427000D01*
X359000Y403000D02*
X383000Y427000D01*
X359000Y395000D02*
Y403000D01*
X369000Y395000D02*
Y403000D01*
X393000Y427000D01*
X403000Y427000D02*
Y427000D01*
X379000Y403000D02*
X403000Y427000D01*
X379000Y395000D02*
Y403000D01*
X444500Y395500D02*
Y408500D01*
X463000Y427000D01*
X283500Y389791D02*
X284500Y390791D01*
X283500Y372000D02*
Y389791D01*
X513000Y427000D02*
X519791Y420209D01*
D32*
X573000Y427000D02*
D03*
X282500Y218500D02*
D03*
D33*
X563000Y427000D02*
D03*
X553000D02*
D03*
X543000D02*
D03*
X533000D02*
D03*
X523000D02*
D03*
X513000D02*
D03*
X503000D02*
D03*
X493000D02*
D03*
X483000D02*
D03*
X473000D02*
D03*
X463000D02*
D03*
X453000D02*
D03*
X443000D02*
D03*
X433000D02*
D03*
X423000D02*
D03*
X413000D02*
D03*
X403000D02*
D03*
X393000D02*
D03*
X383000D02*
D03*
X373000D02*
D03*
X363000D02*
D03*
X353000D02*
D03*
X343000D02*
D03*
X333000D02*
D03*
X323000D02*
D03*
X313000D02*
D03*
X303000D02*
D03*
X293000D02*
D03*
X283000D02*
D03*
X572500Y218500D02*
D03*
X562500D02*
D03*
X552500D02*
D03*
X542500D02*
D03*
X532500D02*
D03*
X522500D02*
D03*
X512500D02*
D03*
X502500D02*
D03*
X492500D02*
D03*
X482500D02*
D03*
X472500D02*
D03*
X462500D02*
D03*
X452500D02*
D03*
X442500D02*
D03*
X432500D02*
D03*
X422500D02*
D03*
X412500D02*
D03*
X402500D02*
D03*
X392500D02*
D03*
X382500D02*
D03*
X372500D02*
D03*
X362500D02*
D03*
X352500D02*
D03*
X342500D02*
D03*
X332500D02*
D03*
X322500D02*
D03*
X312500D02*
D03*
X302500D02*
D03*
X292500D02*
D03*
D34*
X320000Y296000D02*
D03*
X319500Y355000D02*
D03*
Y345000D02*
D03*
Y335000D02*
D03*
X369000Y395000D02*
D03*
X359000D02*
D03*
X349000D02*
D03*
X339000D02*
D03*
X370500Y344500D02*
D03*
X360500D02*
D03*
X370500Y354500D02*
D03*
X360500D02*
D03*
X370500Y364500D02*
D03*
X552500Y397500D02*
D03*
X343000Y303000D02*
D03*
Y313000D02*
D03*
Y323000D02*
D03*
X293500Y372000D02*
D03*
X283500Y362000D02*
D03*
X293500D02*
D03*
X283500Y352000D02*
D03*
X293500D02*
D03*
X283500Y342000D02*
D03*
X293500D02*
D03*
X283500Y332000D02*
D03*
X293500D02*
D03*
X283500Y322000D02*
D03*
X293500D02*
D03*
X283500Y312000D02*
D03*
X293500D02*
D03*
X283500Y302000D02*
D03*
X293500D02*
D03*
X283500Y292000D02*
D03*
X293500D02*
D03*
X283500Y282000D02*
D03*
X293500D02*
D03*
X545500Y255500D02*
D03*
X535500D02*
D03*
X434500Y395500D02*
D03*
D35*
X320000Y306000D02*
D03*
X319500Y365000D02*
D03*
X360500Y364500D02*
D03*
X552500Y387500D02*
D03*
X343000Y293000D02*
D03*
X283500Y372000D02*
D03*
D36*
X379000Y395000D02*
D03*
X555500Y255500D02*
D03*
X444500Y395500D02*
D03*
D37*
X529500Y315000D02*
D03*
X523500Y329500D02*
D03*
X483000Y308000D02*
D03*
X527500Y335500D02*
D03*
X404000Y345500D02*
D03*
X307000Y360000D02*
D03*
X366500Y319500D02*
D03*
X484000Y232000D02*
D03*
X405000Y381000D02*
D03*
D38*
X298500Y389488D02*
D03*
Y400512D02*
D03*
X338000Y359012D02*
D03*
Y347988D02*
D03*
D39*
X284500Y402209D02*
D03*
Y390791D02*
D03*
D40*
X531209Y408500D02*
D03*
X519791D02*
D03*
M02*
