G04*
G04 #@! TF.GenerationSoftware,Altium Limited,Altium Designer,20.1.11 (218)*
G04*
G04 Layer_Color=32896*
%FSLAX25Y25*%
%MOIN*%
G70*
G04*
G04 #@! TF.SameCoordinates,3E3CE198-1D4E-4C69-B1C9-FC2CBC885D2D*
G04*
G04*
G04 #@! TF.FilePolarity,Positive*
G04*
G01*
G75*
%ADD12C,0.00787*%
%ADD13C,0.00591*%
%ADD14C,0.01000*%
D12*
X294169Y395000D02*
X302831D01*
X301650Y404055D02*
X302831D01*
Y385945D02*
Y404055D01*
X301650Y385945D02*
X302831D01*
X294169D02*
X295350D01*
X294169D02*
Y404055D01*
X295350D01*
X333669Y353500D02*
X342331D01*
X333669Y344445D02*
X334850D01*
X333669D02*
Y362555D01*
X334850D01*
X341150D02*
X342331D01*
Y344445D02*
Y362555D01*
X341150Y344445D02*
X342331D01*
D13*
X287945Y405850D02*
X288929D01*
Y387150D02*
Y405850D01*
X287945Y387150D02*
X288929D01*
X280071D02*
X281055D01*
X280071D02*
Y405850D01*
X281055D01*
X280071Y396500D02*
X288929D01*
X534850Y404071D02*
Y405055D01*
X516150Y404071D02*
X534850D01*
X516150D02*
Y405055D01*
Y411945D02*
Y412929D01*
X534850D01*
Y411945D02*
Y412929D01*
X525500Y404071D02*
Y412929D01*
D14*
X344300Y365900D02*
Y371898D01*
X341301D01*
X340301Y370898D01*
Y368899D01*
X341301Y367899D01*
X344300D01*
X342301D02*
X340301Y365900D01*
X334303D02*
X338302D01*
X334303Y369899D01*
Y370898D01*
X335303Y371898D01*
X337302D01*
X338302Y370898D01*
X302800Y407400D02*
Y413398D01*
X299801D01*
X298801Y412398D01*
Y410399D01*
X299801Y409399D01*
X302800D01*
X300801D02*
X298801Y407400D01*
X296802D02*
X294803D01*
X295802D01*
Y413398D01*
X296802Y412398D01*
X282501Y415500D02*
X281501Y416499D01*
Y418499D01*
X282501Y419498D01*
X286499D01*
X287499Y418499D01*
Y416499D01*
X286499Y415500D01*
X287499Y409502D02*
Y413500D01*
X283500Y409502D01*
X282501D01*
X281501Y410501D01*
Y412501D01*
X282501Y413500D01*
X544000Y409999D02*
X545000Y410999D01*
X546999D01*
X547999Y409999D01*
Y406001D01*
X546999Y405001D01*
X545000D01*
X544000Y406001D01*
X542001Y405001D02*
X540001D01*
X541001D01*
Y410999D01*
X542001Y409999D01*
M02*
